  0
SECTION
  2
HEADER
  9
$ACADVER
  1
AC1014
  9
$HANDSEED
  5
FFFF
  9
$MEASUREMENT
 70
     1
  0
ENDSEC
  0
SECTION
  2
TABLES
  0
TABLE
  2
VPORT
  5
8
330
0
100
AcDbSymbolTable
 70
     4
  0
VPORT
  5
2E
330
8
100
AcDbSymbolTableRecord
100
AcDbViewportTableRecord
  2
*ACTIVE
 70
     0
 10
0.0
 20
0.0
 11
1.0
 21
1.0
 12
210.0
 22
148.5
 13
0.0
 23
0.0
 14
10.0
 24
10.0
 15
10.0
 25
10.0
 16
0.0
 26
0.0
 36
1.0
 17
0.0
 27
0.0
 37
0.0
 40
341.0
 41
1.24
 42
50.0
 43
0.0
 44
0.0
 50
0.0
 51
0.0
 71
     0
 72
   100
 73
     1
 74
     3
 75
     0
 76
     0
 77
     0
 78
     0
  0
ENDTAB
  0
TABLE
  2
LTYPE
  5
5
330
0
100
AcDbSymbolTable
 70
     1
  0
LTYPE
  5
14
330
5
100
AcDbSymbolTableRecord
100
AcDbLinetypeTableRecord
  2
BYBLOCK
 70
     0
  3

 72
    65
 73
     0
 40
0.0
  0
LTYPE
  5
15
330
5
100
AcDbSymbolTableRecord
100
AcDbLinetypeTableRecord
  2
BYLAYER
 70
     0
  3

 72
    65
 73
     0
 40
0.0
  0
LTYPE
  5
16
330
5
100
AcDbSymbolTableRecord
100
AcDbLinetypeTableRecord
  2
CONTINUOUS
 70
     0
  3
Solid line
 72
    65
 73
     0
 40
0.0
  0
ENDTAB
  0
TABLE
  2
LAYER
  5
2
100
AcDbSymbolTable
 70
2
  0
LAYER
  5
50
100
AcDbSymbolTableRecord
100
AcDbLayerTableRecord
  2
0
 70
0
  6
CONTINUOUS
  0
LAYER
  5
51
100
AcDbSymbolTableRecord
100
AcDbLayerTableRecord
  2
Layer_1
 70
0
  6
CONTINUOUS
  0
ENDTAB
  0
TABLE
  2
STYLE
  5
3
330
0
100
AcDbSymbolTable
 70
     1
  0
STYLE
  5
11
330
3
100
AcDbSymbolTableRecord
100
AcDbTextStyleTableRecord
  2
STANDARD
 70
     0
 40
0.0
 41
1.0
 50
0.0
 71
     0
 42
2.5
  3
txt
  4

  0
ENDTAB
  0
TABLE
  2
VIEW
  5
6
330
0
100
AcDbSymbolTable
 70
     0
  0
ENDTAB
  0
TABLE
  2
UCS
  5
7
330
0
100
AcDbSymbolTable
 70
     0
  0
ENDTAB
  0
TABLE
  2
APPID
  5
9
330
0
100
AcDbSymbolTable
 70
     2
  0
APPID
  5
12
330
9
100
AcDbSymbolTableRecord
100
AcDbRegAppTableRecord
  2
ACAD
 70
     0
  0
ENDTAB
  0
TABLE
  2
DIMSTYLE
  5
A
330
0
100
AcDbSymbolTable
 70
     1
  0
DIMSTYLE
105
27
330
A
100
AcDbSymbolTableRecord
100
AcDbDimStyleTableRecord
  2
ISO-25
 70
     0
  3

  4

  5

  6

  7

 40
1.0
 41
2.5
 42
0.625
 43
3.75
 44
1.25
 45
0.0
 46
0.0
 47
0.0
 48
0.0
140
2.5
141
2.5
142
0.0
143
0.03937007874016
144
1.0
145
0.0
146
1.0
147
0.625
 71
     0
 72
     0
 73
     0
 74
     0
 75
     0
 76
     0
 77
     1
 78
     8
170
     0
171
     3
172
     1
173
     0
174
     0
175
     0
176
     0
177
     0
178
     0
270
     2
271
     2
272
     2
273
     2
274
     3
340
11
275
     0
280
     0
281
     0
282
     0
283
     0
284
     8
285
     0
286
     0
287
     3
288
     0
  0
ENDTAB
  0
TABLE
  2
BLOCK_RECORD
  5
1
330
0
100
AcDbSymbolTable
 70
     1
  0
BLOCK_RECORD
  5
1F
330
1
100
AcDbSymbolTableRecord
100
AcDbBlockTableRecord
  2
*MODEL_SPACE
  0
BLOCK_RECORD
  5
1B
330
1
100
AcDbSymbolTableRecord
100
AcDbBlockTableRecord
  2
*PAPER_SPACE
  0
ENDTAB
  0
ENDSEC
  0
SECTION
  2
BLOCKS
  0
BLOCK
  5
20
330
1F
100
AcDbEntity
  8
0
100
AcDbBlockBegin
  2
*MODEL_SPACE
 70
     0
 10
0.0
 20
0.0
 30
0.0
  3
*MODEL_SPACE
  1

  0
ENDBLK
  5
21
330
1F
100
AcDbEntity
  8
0
100
AcDbBlockEnd
  0
BLOCK
  5
1C
330
1B
100
AcDbEntity
 67
     1
  8
0
100
AcDbBlockBegin
  2
*PAPER_SPACE
  1

  0
ENDBLK
  5
1D
330
1B
100
AcDbEntity
 67
     1
  8
0
100
AcDbBlockEnd
  0
ENDSEC
  0
SECTION
  2
ENTITIES
  0
SPLINE
  5
100
100
AcDbEntity
  8
Layer_1
 62
1
100
AcDbSpline
 70
8
 71
3
 72
8
 73
4
 74
0
 40
0
 40
0
 40
0
 40
0
 40
1
 40
1
 40
1
 40
1
 10
1.999878
 20
304.799990
 30
0.0
 10
0.891878
 20
304.799990
 30
0.0
 10
0.000000
 20
303.908112
 30
0.0
 10
0.000000
 20
302.800112
 30
0.0
  0
SPLINE
  5
101
100
AcDbEntity
  8
Layer_1
 62
1
100
AcDbSpline
 70
8
 71
3
 72
8
 73
4
 74
0
 40
0
 40
0
 40
0
 40
0
 40
1
 40
1
 40
1
 40
1
 10
0.000000
 20
1.999873
 30
0.0
 10
0.000000
 20
0.891878
 30
0.0
 10
0.891878
 20
-0.000006
 30
0.0
 10
1.999878
 20
-0.000006
 30
0.0
  0
LWPOLYLINE
  5
102
100
AcDbEntity
  8
Layer_1
 62
1
100
AcDbPolyline
 90
2
 70
0
 10
0.000000
 20
302.800112
 30
0.0
 10
0.000000
 20
1.999873
 30
0.0
  0
SPLINE
  5
103
100
AcDbEntity
  8
Layer_1
 62
1
100
AcDbSpline
 70
8
 71
3
 72
8
 73
4
 74
0
 40
0
 40
0
 40
0
 40
0
 40
1
 40
1
 40
1
 40
1
 10
302.800117
 20
-0.000006
 30
0.0
 10
303.908112
 20
-0.000006
 30
0.0
 10
304.799996
 20
0.891878
 30
0.0
 10
304.799996
 20
1.999873
 30
0.0
  0
LWPOLYLINE
  5
104
100
AcDbEntity
  8
Layer_1
 62
1
100
AcDbPolyline
 90
2
 70
0
 10
1.999878
 20
-0.000006
 30
0.0
 10
302.800117
 20
-0.000006
 30
0.0
  0
SPLINE
  5
105
100
AcDbEntity
  8
Layer_1
 62
1
100
AcDbSpline
 70
8
 71
3
 72
8
 73
4
 74
0
 40
0
 40
0
 40
0
 40
0
 40
1
 40
1
 40
1
 40
1
 10
299.720208
 20
293.876626
 30
0.0
 10
299.720208
 20
293.322626
 30
0.0
 10
299.274253
 20
292.876170
 30
0.0
 10
298.720268
 20
292.876170
 30
0.0
  0
LWPOLYLINE
  5
106
100
AcDbEntity
  8
Layer_1
 62
1
100
AcDbPolyline
 90
4
 70
0
 10
304.799996
 20
1.999873
 30
0.0
 10
304.799996
 20
294.626451
 30
0.0
 10
299.720208
 20
294.626451
 30
0.0
 10
299.720208
 20
293.876626
 30
0.0
  0
SPLINE
  5
107
100
AcDbEntity
  8
Layer_1
 62
1
100
AcDbSpline
 70
8
 71
3
 72
8
 73
4
 74
0
 40
0
 40
0
 40
0
 40
0
 40
1
 40
1
 40
1
 40
1
 10
290.720247
 20
292.876170
 30
0.0
 10
290.166236
 20
292.876170
 30
0.0
 10
289.720307
 20
293.322626
 30
0.0
 10
289.720307
 20
293.876626
 30
0.0
  0
LWPOLYLINE
  5
108
100
AcDbEntity
  8
Layer_1
 62
1
100
AcDbPolyline
 90
2
 70
0
 10
298.720268
 20
292.876170
 30
0.0
 10
290.720247
 20
292.876170
 30
0.0
  0
SPLINE
  5
109
100
AcDbEntity
  8
Layer_1
 62
1
100
AcDbSpline
 70
8
 71
3
 72
8
 73
4
 74
0
 40
0
 40
0
 40
0
 40
0
 40
1
 40
1
 40
1
 40
1
 10
289.720307
 20
298.876321
 30
0.0
 10
289.720307
 20
299.430321
 30
0.0
 10
290.166236
 20
299.876260
 30
0.0
 10
290.720247
 20
299.876260
 30
0.0
  0
LWPOLYLINE
  5
10a
100
AcDbEntity
  8
Layer_1
 62
1
100
AcDbPolyline
 90
2
 70
0
 10
289.720307
 20
293.876626
 30
0.0
 10
289.720307
 20
298.876321
 30
0.0
  0
SPLINE
  5
10b
100
AcDbEntity
  8
Layer_1
 62
1
100
AcDbSpline
 70
8
 71
3
 72
8
 73
4
 74
0
 40
0
 40
0
 40
0
 40
0
 40
1
 40
1
 40
1
 40
1
 10
298.720268
 20
299.876260
 30
0.0
 10
299.274253
 20
299.876260
 30
0.0
 10
299.720208
 20
299.430321
 30
0.0
 10
299.720208
 20
298.876321
 30
0.0
  0
LWPOLYLINE
  5
10c
100
AcDbEntity
  8
Layer_1
 62
1
100
AcDbPolyline
 90
2
 70
0
 10
290.720247
 20
299.876260
 30
0.0
 10
298.720268
 20
299.876260
 30
0.0
  0
SPLINE
  5
10d
100
AcDbEntity
  8
Layer_1
 62
1
100
AcDbSpline
 70
8
 71
3
 72
8
 73
4
 74
0
 40
0
 40
0
 40
0
 40
0
 40
1
 40
1
 40
1
 40
1
 10
304.799996
 20
302.800112
 30
0.0
 10
304.799996
 20
303.908112
 30
0.0
 10
303.908112
 20
304.799990
 30
0.0
 10
302.800117
 20
304.799990
 30
0.0
  0
LWPOLYLINE
  5
10e
100
AcDbEntity
  8
Layer_1
 62
1
100
AcDbPolyline
 90
4
 70
0
 10
299.720208
 20
298.876321
 30
0.0
 10
299.720208
 20
298.126496
 30
0.0
 10
304.799996
 20
298.126496
 30
0.0
 10
304.799996
 20
302.800112
 30
0.0
  0
LWPOLYLINE
  5
10f
100
AcDbEntity
  8
Layer_1
 62
1
100
AcDbPolyline
 90
3
 70
0
 10
302.800117
 20
304.799990
 30
0.0
 10
1.999878
 20
304.799990
 30
0.0
 10
1.999878
 20
304.799990
 30
0.0
  0
LWPOLYLINE
  5
110
100
AcDbEntity
  8
Layer_1
 62
1
100
AcDbPolyline
 90
4
 70
1
 10
8.674999
 20
97.616641
 30
0.0
 10
98.674999
 20
97.616641
 30
0.0
 10
98.674999
 20
7.616641
 30
0.0
 10
8.674999
 20
7.616641
 30
0.0
  0
LWPOLYLINE
  5
111
100
AcDbEntity
  8
Layer_1
 62
1
100
AcDbPolyline
 90
4
 70
1
 10
8.674999
 20
193.616671
 30
0.0
 10
98.674999
 20
193.616671
 30
0.0
 10
98.674999
 20
103.616671
 30
0.0
 10
8.674999
 20
103.616671
 30
0.0
  0
LWPOLYLINE
  5
112
100
AcDbEntity
  8
Layer_1
 62
1
100
AcDbPolyline
 90
4
 70
1
 10
8.674999
 20
289.616668
 30
0.0
 10
98.674999
 20
289.616668
 30
0.0
 10
98.674999
 20
199.616668
 30
0.0
 10
8.674999
 20
199.616668
 30
0.0
  0
LWPOLYLINE
  5
113
100
AcDbEntity
  8
Layer_1
 62
1
100
AcDbPolyline
 90
4
 70
1
 10
104.674990
 20
289.616668
 30
0.0
 10
194.674990
 20
289.616668
 30
0.0
 10
194.674990
 20
199.616668
 30
0.0
 10
104.674990
 20
199.616668
 30
0.0
  0
LWPOLYLINE
  5
114
100
AcDbEntity
  8
Layer_1
 62
1
100
AcDbPolyline
 90
4
 70
1
 10
200.674960
 20
289.616668
 30
0.0
 10
290.674960
 20
289.616668
 30
0.0
 10
290.674960
 20
199.616668
 30
0.0
 10
200.674960
 20
199.616668
 30
0.0
  0
LWPOLYLINE
  5
115
100
AcDbEntity
  8
Layer_1
 62
1
100
AcDbPolyline
 90
4
 70
1
 10
200.674960
 20
193.616671
 30
0.0
 10
290.674960
 20
193.616671
 30
0.0
 10
290.674960
 20
103.616671
 30
0.0
 10
200.674960
 20
103.616671
 30
0.0
  0
LWPOLYLINE
  5
116
100
AcDbEntity
  8
Layer_1
 62
1
100
AcDbPolyline
 90
4
 70
1
 10
104.674990
 20
193.616671
 30
0.0
 10
194.674990
 20
193.616671
 30
0.0
 10
194.674990
 20
103.616671
 30
0.0
 10
104.674990
 20
103.616671
 30
0.0
  0
LWPOLYLINE
  5
117
100
AcDbEntity
  8
Layer_1
 62
1
100
AcDbPolyline
 90
4
 70
1
 10
104.674990
 20
97.616641
 30
0.0
 10
194.674990
 20
97.616641
 30
0.0
 10
194.674990
 20
7.616641
 30
0.0
 10
104.674990
 20
7.616641
 30
0.0
  0
SPLINE
  5
118
100
AcDbEntity
  8
Layer_1
 62
3
100
AcDbSpline
 70
8
 71
3
 72
8
 73
4
 74
0
 40
0
 40
0
 40
0
 40
0
 40
1
 40
1
 40
1
 40
1
 10
53.234700
 20
293.207913
 30
0.0
 10
53.818900
 20
293.207913
 30
0.0
 10
54.403100
 20
293.512713
 30
0.0
 10
54.860300
 20
293.868313
 30
0.0
  0
LWPOLYLINE
  5
119
100
AcDbEntity
  8
Layer_1
 62
1
100
AcDbPolyline
 90
4
 70
1
 10
200.674960
 20
97.616641
 30
0.0
 10
290.674960
 20
97.616641
 30
0.0
 10
290.674960
 20
7.616641
 30
0.0
 10
200.674960
 20
7.616641
 30
0.0
  0
SPLINE
  5
11a
100
AcDbEntity
  8
Layer_1
 62
3
100
AcDbSpline
 70
8
 71
3
 72
8
 73
4
 74
0
 40
0
 40
0
 40
0
 40
0
 40
1
 40
1
 40
1
 40
1
 10
55.512270
 20
295.832579
 30
0.0
 10
55.512270
 20
296.857046
 30
0.0
 10
54.970400
 20
297.525913
 30
0.0
 10
53.844330
 20
297.525913
 30
0.0
  0
SPLINE
  5
11b
100
AcDbEntity
  8
Layer_1
 62
3
100
AcDbSpline
 70
8
 71
3
 72
8
 73
4
 74
0
 40
0
 40
0
 40
0
 40
0
 40
1
 40
1
 40
1
 40
1
 10
53.844330
 20
297.525913
 30
0.0
 10
53.124670
 20
297.525913
 30
0.0
 10
52.430400
 20
297.204179
 30
0.0
 10
52.015530
 20
296.933246
 30
0.0
  0
LWPOLYLINE
  5
11c
100
AcDbEntity
  8
Layer_1
 62
3
100
AcDbPolyline
 90
5
 70
0
 10
54.860300
 20
293.868313
 30
0.0
 10
54.885700
 20
293.868313
 30
0.0
 10
54.945000
 20
293.309513
 30
0.0
 10
55.512270
 20
293.309513
 30
0.0
 10
55.512270
 20
295.832579
 30
0.0
  0
SPLINE
  5
11d
100
AcDbEntity
  8
Layer_1
 62
3
100
AcDbSpline
 70
8
 71
3
 72
8
 73
4
 74
0
 40
0
 40
0
 40
0
 40
0
 40
1
 40
1
 40
1
 40
1
 10
52.286470
 20
296.459113
 30
0.0
 10
52.667470
 20
296.696179
 30
0.0
 10
53.192400
 20
296.950179
 30
0.0
 10
53.725800
 20
296.950179
 30
0.0
  0
SPLINE
  5
11e
100
AcDbEntity
  8
Layer_1
 62
3
100
AcDbSpline
 70
8
 71
3
 72
8
 73
4
 74
0
 40
0
 40
0
 40
0
 40
0
 40
1
 40
1
 40
1
 40
1
 10
53.725800
 20
296.950179
 30
0.0
 10
54.521670
 20
296.950179
 30
0.0
 10
54.801070
 20
296.476046
 30
0.0
 10
54.818000
 20
295.917246
 30
0.0
  0
SPLINE
  5
11f
100
AcDbEntity
  8
Layer_1
 62
3
100
AcDbSpline
 70
8
 71
3
 72
8
 73
4
 74
0
 40
0
 40
0
 40
0
 40
0
 40
1
 40
1
 40
1
 40
1
 10
54.818000
 20
295.917246
 30
0.0
 10
52.692870
 20
295.747913
 30
0.0
 10
51.837730
 20
295.299179
 30
0.0
 10
51.837730
 20
294.376313
 30
0.0
  0
SPLINE
  5
120
100
AcDbEntity
  8
Layer_1
 62
3
100
AcDbSpline
 70
8
 71
3
 72
8
 73
4
 74
0
 40
0
 40
0
 40
0
 40
0
 40
1
 40
1
 40
1
 40
1
 10
51.837730
 20
294.376313
 30
0.0
 10
51.837730
 20
293.639713
 30
0.0
 10
52.464270
 20
293.207913
 30
0.0
 10
53.234730
 20
293.207913
 30
0.0
  0
LWPOLYLINE
  5
121
100
AcDbEntity
  8
Layer_1
 62
3
100
AcDbPolyline
 90
2
 70
0
 10
52.015530
 20
296.933246
 30
0.0
 10
52.286470
 20
296.459113
 30
0.0
  0
SPLINE
  5
122
100
AcDbEntity
  8
Layer_1
 62
3
100
AcDbSpline
 70
8
 71
3
 72
8
 73
4
 74
0
 40
0
 40
0
 40
0
 40
0
 40
1
 40
1
 40
1
 40
1
 10
53.420970
 20
293.766713
 30
0.0
 10
52.946840
 20
293.766713
 30
0.0
 10
52.515040
 20
293.961446
 30
0.0
 10
52.515040
 20
294.427113
 30
0.0
  0
SPLINE
  5
123
100
AcDbEntity
  8
Layer_1
 62
3
100
AcDbSpline
 70
8
 71
3
 72
8
 73
4
 74
0
 40
0
 40
0
 40
0
 40
0
 40
1
 40
1
 40
1
 40
1
 10
52.515040
 20
294.427113
 30
0.0
 10
52.515040
 20
294.968979
 30
0.0
 10
53.056900
 20
295.316113
 30
0.0
 10
54.817970
 20
295.460046
 30
0.0
  0
LWPOLYLINE
  5
124
100
AcDbEntity
  8
Layer_1
 62
3
100
AcDbPolyline
 90
1
 70
1
 10
53.234730
 20
293.207913
 30
0.0
  0
SPLINE
  5
125
100
AcDbEntity
  8
Layer_1
 62
3
100
AcDbSpline
 70
8
 71
3
 72
8
 73
4
 74
0
 40
0
 40
0
 40
0
 40
0
 40
1
 40
1
 40
1
 40
1
 10
54.817970
 20
294.376313
 30
0.0
 10
54.352300
 20
293.986846
 30
0.0
 10
53.886640
 20
293.766713
 30
0.0
 10
53.420970
 20
293.766713
 30
0.0
  0
LWPOLYLINE
  5
126
100
AcDbEntity
  8
Layer_1
 62
3
100
AcDbPolyline
 90
2
 70
0
 10
54.817970
 20
295.460046
 30
0.0
 10
54.817970
 20
294.376313
 30
0.0
  0
SPLINE
  5
127
100
AcDbEntity
  8
Layer_1
 62
3
100
AcDbSpline
 70
8
 71
3
 72
8
 73
4
 74
0
 40
0
 40
0
 40
0
 40
0
 40
1
 40
1
 40
1
 40
1
 10
149.704616
 20
292.301980
 30
0.0
 10
150.686749
 20
292.301980
 30
0.0
 10
151.567283
 20
293.123247
 30
0.0
 10
151.567283
 20
294.528714
 30
0.0
  0
SPLINE
  5
128
100
AcDbEntity
  8
Layer_1
 62
3
100
AcDbSpline
 70
8
 71
3
 72
8
 73
4
 74
0
 40
0
 40
0
 40
0
 40
0
 40
1
 40
1
 40
1
 40
1
 10
151.567283
 20
294.528714
 30
0.0
 10
151.567283
 20
295.798714
 30
0.0
 10
150.966149
 20
296.619980
 30
0.0
 10
149.857016
 20
296.619980
 30
0.0
  0
SPLINE
  5
129
100
AcDbEntity
  8
Layer_1
 62
3
100
AcDbSpline
 70
8
 71
3
 72
8
 73
4
 74
0
 40
0
 40
0
 40
0
 40
0
 40
1
 40
1
 40
1
 40
1
 10
149.857016
 20
296.619980
 30
0.0
 10
149.374416
 20
296.619980
 30
0.0
 10
148.849483
 20
296.374447
 30
0.0
 10
148.476950
 20
295.993447
 30
0.0
  0
LWPOLYLINE
  5
12a
100
AcDbEntity
  8
Layer_1
 62
3
100
AcDbPolyline
 90
1
 70
1
 10
53.420970
 20
293.766713
 30
0.0
  0
SPLINE
  5
12b
100
AcDbEntity
  8
Layer_1
 62
3
100
AcDbSpline
 70
8
 71
3
 72
8
 73
4
 74
0
 40
0
 40
0
 40
0
 40
0
 40
1
 40
1
 40
1
 40
1
 10
148.426153
 20
292.860780
 30
0.0
 10
148.815619
 20
292.513647
 30
0.0
 10
149.306686
 20
292.301980
 30
0.0
 10
149.704619
 20
292.301980
 30
0.0
  0
LWPOLYLINE
  5
12c
100
AcDbEntity
  8
Layer_1
 62
3
100
AcDbPolyline
 90
9
 70
0
 10
148.476950
 20
295.993447
 30
0.0
 10
148.451550
 20
295.993447
 30
0.0
 10
148.476950
 20
296.789314
 30
0.0
 10
148.476950
 20
298.431847
 30
0.0
 10
147.782683
 20
298.431847
 30
0.0
 10
147.782683
 20
292.403580
 30
0.0
 10
148.341483
 20
292.403580
 30
0.0
 10
148.400753
 20
292.860780
 30
0.0
 10
148.426153
 20
292.860780
 30
0.0
  0
SPLINE
  5
12d
100
AcDbEntity
  8
Layer_1
 62
3
100
AcDbSpline
 70
8
 71
3
 72
8
 73
4
 74
0
 40
0
 40
0
 40
0
 40
0
 40
1
 40
1
 40
1
 40
1
 10
149.594550
 20
292.886180
 30
0.0
 10
149.298216
 20
292.886180
 30
0.0
 10
148.866416
 20
293.021647
 30
0.0
 10
148.476950
 20
293.368780
 30
0.0
  0
LWPOLYLINE
  5
12e
100
AcDbEntity
  8
Layer_1
 62
3
100
AcDbPolyline
 90
1
 70
1
 10
149.704619
 20
292.301980
 30
0.0
  0
SPLINE
  5
12f
100
AcDbEntity
  8
Layer_1
 62
3
100
AcDbSpline
 70
8
 71
3
 72
8
 73
4
 74
0
 40
0
 40
0
 40
0
 40
0
 40
1
 40
1
 40
1
 40
1
 10
148.476950
 20
295.417714
 30
0.0
 10
148.900283
 20
295.841047
 30
0.0
 10
149.323616
 20
296.035780
 30
0.0
 10
149.687683
 20
296.035780
 30
0.0
  0
SPLINE
  5
130
100
AcDbEntity
  8
Layer_1
 62
3
100
AcDbSpline
 70
8
 71
3
 72
8
 73
4
 74
0
 40
0
 40
0
 40
0
 40
0
 40
1
 40
1
 40
1
 40
1
 10
149.687683
 20
296.035780
 30
0.0
 10
150.508949
 20
296.035780
 30
0.0
 10
150.847616
 20
295.426180
 30
0.0
 10
150.847616
 20
294.520247
 30
0.0
  0
SPLINE
  5
131
100
AcDbEntity
  8
Layer_1
 62
3
100
AcDbSpline
 70
8
 71
3
 72
8
 73
4
 74
0
 40
0
 40
0
 40
0
 40
0
 40
1
 40
1
 40
1
 40
1
 10
150.847616
 20
294.520247
 30
0.0
 10
150.847616
 20
293.504247
 30
0.0
 10
150.314216
 20
292.886180
 30
0.0
 10
149.594550
 20
292.886180
 30
0.0
  0
LWPOLYLINE
  5
132
100
AcDbEntity
  8
Layer_1
 62
3
100
AcDbPolyline
 90
2
 70
0
 10
148.476950
 20
293.368780
 30
0.0
 10
148.476950
 20
295.417714
 30
0.0
  0
SPLINE
  5
133
100
AcDbEntity
  8
Layer_1
 62
3
100
AcDbSpline
 70
8
 71
3
 72
8
 73
4
 74
0
 40
0
 40
0
 40
0
 40
0
 40
1
 40
1
 40
1
 40
1
 10
245.963840
 20
293.207913
 30
0.0
 10
246.573440
 20
293.207913
 30
0.0
 10
247.140710
 20
293.444980
 30
0.0
 10
247.597910
 20
293.851380
 30
0.0
  0
LWPOLYLINE
  5
134
100
AcDbEntity
  8
Layer_1
 62
3
100
AcDbPolyline
 90
1
 70
1
 10
149.594550
 20
292.886180
 30
0.0
  0
SPLINE
  5
135
100
AcDbEntity
  8
Layer_1
 62
3
100
AcDbSpline
 70
8
 71
3
 72
8
 73
4
 74
0
 40
0
 40
0
 40
0
 40
0
 40
1
 40
1
 40
1
 40
1
 10
247.284640
 20
294.300113
 30
0.0
 10
246.945980
 20
294.012246
 30
0.0
 10
246.522640
 20
293.783646
 30
0.0
 10
246.014640
 20
293.783646
 30
0.0
  0
SPLINE
  5
136
100
AcDbEntity
  8
Layer_1
 62
3
100
AcDbSpline
 70
8
 71
3
 72
8
 73
4
 74
0
 40
0
 40
0
 40
0
 40
0
 40
1
 40
1
 40
1
 40
1
 10
246.014640
 20
293.783646
 30
0.0
 10
245.066380
 20
293.783646
 30
0.0
 10
244.431380
 20
294.418646
 30
0.0
 10
244.431380
 20
295.358446
 30
0.0
  0
SPLINE
  5
137
100
AcDbEntity
  8
Layer_1
 62
3
100
AcDbSpline
 70
8
 71
3
 72
8
 73
4
 74
0
 40
0
 40
0
 40
0
 40
0
 40
1
 40
1
 40
1
 40
1
 10
244.431380
 20
295.358446
 30
0.0
 10
244.431380
 20
296.306713
 30
0.0
 10
245.083310
 20
296.950180
 30
0.0
 10
246.031580
 20
296.950180
 30
0.0
  0
SPLINE
  5
138
100
AcDbEntity
  8
Layer_1
 62
3
100
AcDbSpline
 70
8
 71
3
 72
8
 73
4
 74
0
 40
0
 40
0
 40
0
 40
0
 40
1
 40
1
 40
1
 40
1
 10
246.031580
 20
296.950180
 30
0.0
 10
246.463380
 20
296.950180
 30
0.0
 10
246.818980
 20
296.772380
 30
0.0
 10
247.157640
 20
296.476046
 30
0.0
  0
LWPOLYLINE
  5
139
100
AcDbEntity
  8
Layer_1
 62
3
100
AcDbPolyline
 90
2
 70
0
 10
247.597910
 20
293.851380
 30
0.0
 10
247.284640
 20
294.300113
 30
0.0
  0
SPLINE
  5
13a
100
AcDbEntity
  8
Layer_1
 62
3
100
AcDbSpline
 70
8
 71
3
 72
8
 73
4
 74
0
 40
0
 40
0
 40
0
 40
0
 40
1
 40
1
 40
1
 40
1
 10
247.504780
 20
296.924780
 30
0.0
 10
247.166110
 20
297.254980
 30
0.0
 10
246.675040
 20
297.525913
 30
0.0
 10
246.006180
 20
297.525913
 30
0.0
  0
SPLINE
  5
13b
100
AcDbEntity
  8
Layer_1
 62
3
100
AcDbSpline
 70
8
 71
3
 72
8
 73
4
 74
0
 40
0
 40
0
 40
0
 40
0
 40
1
 40
1
 40
1
 40
1
 10
246.006180
 20
297.525913
 30
0.0
 10
244.761580
 20
297.525913
 30
0.0
 10
243.711710
 20
296.738513
 30
0.0
 10
243.711710
 20
295.358446
 30
0.0
  0
SPLINE
  5
13c
100
AcDbEntity
  8
Layer_1
 62
3
100
AcDbSpline
 70
8
 71
3
 72
8
 73
4
 74
0
 40
0
 40
0
 40
0
 40
0
 40
1
 40
1
 40
1
 40
1
 10
243.711710
 20
295.358446
 30
0.0
 10
243.711710
 20
293.995313
 30
0.0
 10
244.676910
 20
293.207913
 30
0.0
 10
245.963840
 20
293.207913
 30
0.0
  0
LWPOLYLINE
  5
13d
100
AcDbEntity
  8
Layer_1
 62
3
100
AcDbPolyline
 90
2
 70
0
 10
247.157640
 20
296.476046
 30
0.0
 10
247.504780
 20
296.924780
 30
0.0
  0
LWPOLYLINE
  5
13e
100
AcDbEntity
  8
Layer_1
 62
3
100
AcDbPolyline
 90
1
 70
1
 10
245.963840
 20
293.207913
 30
0.0
  0
SPLINE
  5
13f
100
AcDbEntity
  8
Layer_1
 62
3
100
AcDbSpline
 70
8
 71
3
 72
8
 73
4
 74
0
 40
0
 40
0
 40
0
 40
0
 40
1
 40
1
 40
1
 40
1
 10
295.646322
 20
55.317511
 30
0.0
 10
295.299189
 20
55.131251
 30
0.0
 10
294.892789
 20
55.004251
 30
0.0
 10
294.257789
 20
54.919581
 30
0.0
  0
LWPOLYLINE
  5
140
100
AcDbEntity
  8
Layer_1
 62
3
100
AcDbPolyline
 90
6
 70
0
 10
293.910656
 20
49.915781
 30
0.0
 10
297.576722
 20
49.915781
 30
0.0
 10
297.576722
 20
50.491511
 30
0.0
 10
296.162789
 20
50.491511
 30
0.0
 10
296.162789
 20
55.317511
 30
0.0
 10
295.646322
 20
55.317511
 30
0.0
  0
LWPOLYLINE
  5
141
100
AcDbEntity
  8
Layer_1
 62
3
100
AcDbPolyline
 90
6
 70
0
 10
294.257789
 20
54.919581
 30
0.0
 10
294.257789
 20
54.470851
 30
0.0
 10
295.468522
 20
54.470851
 30
0.0
 10
295.468522
 20
50.491511
 30
0.0
 10
293.910656
 20
50.491511
 30
0.0
 10
293.910656
 20
49.915781
 30
0.0
  0
SPLINE
  5
142
100
AcDbEntity
  8
Layer_1
 62
3
100
AcDbSpline
 70
8
 71
3
 72
8
 73
4
 74
0
 40
0
 40
0
 40
0
 40
0
 40
1
 40
1
 40
1
 40
1
 10
295.883386
 20
146.466134
 30
0.0
 10
295.561653
 20
146.466134
 30
0.0
 10
295.214520
 20
146.440734
 30
0.0
 10
294.875853
 20
146.415334
 30
0.0
  0
SPLINE
  5
143
100
AcDbEntity
  8
Layer_1
 62
3
100
AcDbSpline
 70
8
 71
3
 72
8
 73
4
 74
0
 40
0
 40
0
 40
0
 40
0
 40
1
 40
1
 40
1
 40
1
 10
294.875853
 20
146.415334
 30
0.0
 10
296.349053
 20
147.753067
 30
0.0
 10
297.365053
 20
148.760601
 30
0.0
 10
297.365053
 20
149.776601
 30
0.0
  0
SPLINE
  5
144
100
AcDbEntity
  8
Layer_1
 62
3
100
AcDbSpline
 70
8
 71
3
 72
8
 73
4
 74
0
 40
0
 40
0
 40
0
 40
0
 40
1
 40
1
 40
1
 40
1
 10
297.365053
 20
149.776601
 30
0.0
 10
297.365053
 20
150.733334
 30
0.0
 10
296.687720
 20
151.368334
 30
0.0
 10
295.603986
 20
151.368334
 30
0.0
  0
SPLINE
  5
145
100
AcDbEntity
  8
Layer_1
 62
3
100
AcDbSpline
 70
8
 71
3
 72
8
 73
4
 74
0
 40
0
 40
0
 40
0
 40
0
 40
1
 40
1
 40
1
 40
1
 10
295.603986
 20
151.368334
 30
0.0
 10
294.841986
 20
151.368334
 30
0.0
 10
294.308586
 20
151.038134
 30
0.0
 10
293.825986
 20
150.547067
 30
0.0
  0
LWPOLYLINE
  5
146
100
AcDbEntity
  8
Layer_1
 62
3
100
AcDbPolyline
 90
4
 70
0
 10
293.859853
 20
145.865001
 30
0.0
 10
297.661386
 20
145.865001
 30
0.0
 10
297.661386
 20
146.466134
 30
0.0
 10
295.883386
 20
146.466134
 30
0.0
  0
SPLINE
  5
147
100
AcDbEntity
  8
Layer_1
 62
3
100
AcDbSpline
 70
8
 71
3
 72
8
 73
4
 74
0
 40
0
 40
0
 40
0
 40
0
 40
1
 40
1
 40
1
 40
1
 10
294.223920
 20
150.149134
 30
0.0
 10
294.571053
 20
150.513201
 30
0.0
 10
295.011320
 20
150.801067
 30
0.0
 10
295.519320
 20
150.801067
 30
0.0
  0
SPLINE
  5
148
100
AcDbEntity
  8
Layer_1
 62
3
100
AcDbSpline
 70
8
 71
3
 72
8
 73
4
 74
0
 40
0
 40
0
 40
0
 40
0
 40
1
 40
1
 40
1
 40
1
 10
295.519320
 20
150.801067
 30
0.0
 10
296.315186
 20
150.801067
 30
0.0
 10
296.696186
 20
150.360801
 30
0.0
 10
296.696186
 20
149.742734
 30
0.0
  0
SPLINE
  5
149
100
AcDbEntity
  8
Layer_1
 62
3
100
AcDbSpline
 70
8
 71
3
 72
8
 73
4
 74
0
 40
0
 40
0
 40
0
 40
0
 40
1
 40
1
 40
1
 40
1
 10
296.696186
 20
149.742734
 30
0.0
 10
296.696186
 20
148.845267
 30
0.0
 10
295.688653
 20
147.897001
 30
0.0
 10
293.859853
 20
146.279868
 30
0.0
  0
LWPOLYLINE
  5
14a
100
AcDbEntity
  8
Layer_1
 62
3
100
AcDbPolyline
 90
2
 70
0
 10
293.825986
 20
150.547067
 30
0.0
 10
294.223920
 20
150.149134
 30
0.0
  0
SPLINE
  5
14b
100
AcDbEntity
  8
Layer_1
 62
3
100
AcDbSpline
 70
8
 71
3
 72
8
 73
4
 74
0
 40
0
 40
0
 40
0
 40
0
 40
1
 40
1
 40
1
 40
1
 10
295.739456
 20
241.814200
 30
0.0
 10
296.814722
 20
241.814200
 30
0.0
 10
297.695256
 20
242.398400
 30
0.0
 10
297.695256
 20
243.355133
 30
0.0
  0
SPLINE
  5
14c
100
AcDbEntity
  8
Layer_1
 62
3
100
AcDbSpline
 70
8
 71
3
 72
8
 73
4
 74
0
 40
0
 40
0
 40
0
 40
0
 40
1
 40
1
 40
1
 40
1
 10
297.695256
 20
243.355133
 30
0.0
 10
297.695256
 20
244.100200
 30
0.0
 10
297.077189
 20
244.574333
 30
0.0
 10
296.357523
 20
244.726733
 30
0.0
  0
LWPOLYLINE
  5
14d
100
AcDbEntity
  8
Layer_1
 62
3
100
AcDbPolyline
 90
2
 70
0
 10
293.859853
 20
146.279868
 30
0.0
 10
293.859853
 20
145.865001
 30
0.0
  0
SPLINE
  5
14e
100
AcDbEntity
  8
Layer_1
 62
3
100
AcDbSpline
 70
8
 71
3
 72
8
 73
4
 74
0
 40
0
 40
0
 40
0
 40
0
 40
1
 40
1
 40
1
 40
1
 10
296.357523
 20
244.760603
 30
0.0
 10
297.026389
 20
244.980736
 30
0.0
 10
297.508989
 20
245.395603
 30
0.0
 10
297.508989
 20
246.047536
 30
0.0
  0
SPLINE
  5
14f
100
AcDbEntity
  8
Layer_1
 62
3
100
AcDbSpline
 70
8
 71
3
 72
8
 73
4
 74
0
 40
0
 40
0
 40
0
 40
0
 40
1
 40
1
 40
1
 40
1
 10
297.508989
 20
246.047536
 30
0.0
 10
297.508989
 20
246.919603
 30
0.0
 10
296.738523
 20
247.419136
 30
0.0
 10
295.722523
 20
247.419136
 30
0.0
  0
SPLINE
  5
150
100
AcDbEntity
  8
Layer_1
 62
3
100
AcDbSpline
 70
8
 71
3
 72
8
 73
4
 74
0
 40
0
 40
0
 40
0
 40
0
 40
1
 40
1
 40
1
 40
1
 10
295.722523
 20
247.419136
 30
0.0
 10
295.028256
 20
247.419136
 30
0.0
 10
294.444056
 20
247.131269
 30
0.0
 10
293.995323
 20
246.741803
 30
0.0
  0
LWPOLYLINE
  5
151
100
AcDbEntity
  8
Layer_1
 62
3
100
AcDbPolyline
 90
2
 70
0
 10
296.357523
 20
244.726733
 30
0.0
 10
296.357523
 20
244.760603
 30
0.0
  0
SPLINE
  5
152
100
AcDbEntity
  8
Layer_1
 62
3
100
AcDbSpline
 70
8
 71
3
 72
8
 73
4
 74
0
 40
0
 40
0
 40
0
 40
0
 40
1
 40
1
 40
1
 40
1
 10
294.367856
 20
246.301536
 30
0.0
 10
294.723456
 20
246.623269
 30
0.0
 10
295.189123
 20
246.851869
 30
0.0
 10
295.697123
 20
246.851869
 30
0.0
  0
SPLINE
  5
153
100
AcDbEntity
  8
Layer_1
 62
3
100
AcDbSpline
 70
8
 71
3
 72
8
 73
4
 74
0
 40
0
 40
0
 40
0
 40
0
 40
1
 40
1
 40
1
 40
1
 10
295.697123
 20
246.851869
 30
0.0
 10
296.357523
 20
246.851869
 30
0.0
 10
296.797789
 20
246.521669
 30
0.0
 10
296.797789
 20
245.996736
 30
0.0
  0
SPLINE
  5
154
100
AcDbEntity
  8
Layer_1
 62
3
100
AcDbSpline
 70
8
 71
3
 72
8
 73
4
 74
0
 40
0
 40
0
 40
0
 40
0
 40
1
 40
1
 40
1
 40
1
 10
296.797789
 20
245.996736
 30
0.0
 10
296.797789
 20
245.429469
 30
0.0
 10
296.306723
 20
244.989203
 30
0.0
 10
295.028256
 20
244.989203
 30
0.0
  0
LWPOLYLINE
  5
155
100
AcDbEntity
  8
Layer_1
 62
3
100
AcDbPolyline
 90
2
 70
0
 10
293.995323
 20
246.741803
 30
0.0
 10
294.367856
 20
246.301536
 30
0.0
  0
SPLINE
  5
156
100
AcDbEntity
  8
Layer_1
 62
3
100
AcDbSpline
 70
8
 71
3
 72
8
 73
4
 74
0
 40
0
 40
0
 40
0
 40
0
 40
1
 40
1
 40
1
 40
1
 10
295.028256
 20
244.455803
 30
0.0
 10
296.450656
 20
244.455803
 30
0.0
 10
296.992522
 20
244.024003
 30
0.0
 10
296.992522
 20
243.380536
 30
0.0
  0
SPLINE
  5
157
100
AcDbEntity
  8
Layer_1
 62
3
100
AcDbSpline
 70
8
 71
3
 72
8
 73
4
 74
0
 40
0
 40
0
 40
0
 40
0
 40
1
 40
1
 40
1
 40
1
 10
296.992522
 20
243.380536
 30
0.0
 10
296.992522
 20
242.779403
 30
0.0
 10
296.433723
 20
242.389936
 30
0.0
 10
295.697123
 20
242.389936
 30
0.0
  0
SPLINE
  5
158
100
AcDbEntity
  8
Layer_1
 62
3
100
AcDbSpline
 70
8
 71
3
 72
8
 73
4
 74
0
 40
0
 40
0
 40
0
 40
0
 40
1
 40
1
 40
1
 40
1
 10
295.697123
 20
242.389936
 30
0.0
 10
295.002856
 20
242.389936
 30
0.0
 10
294.503323
 20
242.694736
 30
0.0
 10
294.147723
 20
243.033403
 30
0.0
  0
LWPOLYLINE
  5
159
100
AcDbEntity
  8
Layer_1
 62
3
100
AcDbPolyline
 90
2
 70
0
 10
295.028256
 20
244.989203
 30
0.0
 10
295.028256
 20
244.455803
 30
0.0
  0
SPLINE
  5
15a
100
AcDbEntity
  8
Layer_1
 62
3
100
AcDbSpline
 70
8
 71
3
 72
8
 73
4
 74
0
 40
0
 40
0
 40
0
 40
0
 40
1
 40
1
 40
1
 40
1
 10
293.792123
 20
242.576203
 30
0.0
 10
294.190056
 20
242.178270
 30
0.0
 10
294.808123
 20
241.814203
 30
0.0
 10
295.739456
 20
241.814203
 30
0.0
  0
LWPOLYLINE
  5
15b
100
AcDbEntity
  8
Layer_1
 62
3
100
AcDbPolyline
 90
2
 70
0
 10
294.147723
 20
243.033403
 30
0.0
 10
293.792123
 20
242.576203
 30
0.0
  0
LWPOLYLINE
  5
15c
100
AcDbEntity
  8
Layer_1
 62
3
100
AcDbPolyline
 90
1
 70
1
 10
295.739456
 20
241.814203
 30
0.0
  0
ENDSEC
  0
SECTION
  2
OBJECTS
  0
DICTIONARY
  5
C
330
0
100
AcDbDictionary
  3
ACAD_GROUP
350
D
  3
ACAD_MLINESTYLE
350
17
  0
DICTIONARY
  5
D
330
C
100
AcDbDictionary
  0
DICTIONARY
  5
1A
330
C
100
AcDbDictionary
  0
DICTIONARY
  5
17
330
C
100
AcDbDictionary
  3
STANDARD
350
18
  0
DICTIONARY
  5
19
330
C
100
AcDbDictionary
  0
ENDSEC
  0
EOF
