G04 #@! TF.GenerationSoftware,KiCad,Pcbnew,5.1.5*
G04 #@! TF.CreationDate,2020-03-20T00:43:26-04:00*
G04 #@! TF.ProjectId,M55-RJ45,4d35352d-524a-4343-952e-6b696361645f,rev?*
G04 #@! TF.SameCoordinates,Original*
G04 #@! TF.FileFunction,Legend,Top*
G04 #@! TF.FilePolarity,Positive*
%FSLAX46Y46*%
G04 Gerber Fmt 4.6, Leading zero omitted, Abs format (unit mm)*
G04 Created by KiCad (PCBNEW 5.1.5) date 2020-03-20 00:43:26*
%MOMM*%
%LPD*%
G04 APERTURE LIST*
%ADD10C,0.300000*%
%ADD11C,0.120000*%
%ADD12C,0.150000*%
G04 APERTURE END LIST*
D10*
X39574285Y-116248571D02*
X39074285Y-115534285D01*
X38717142Y-116248571D02*
X38717142Y-114748571D01*
X39288571Y-114748571D01*
X39431428Y-114820000D01*
X39502857Y-114891428D01*
X39574285Y-115034285D01*
X39574285Y-115248571D01*
X39502857Y-115391428D01*
X39431428Y-115462857D01*
X39288571Y-115534285D01*
X38717142Y-115534285D01*
X40645714Y-114748571D02*
X40645714Y-115820000D01*
X40574285Y-116034285D01*
X40431428Y-116177142D01*
X40217142Y-116248571D01*
X40074285Y-116248571D01*
X42002857Y-115248571D02*
X42002857Y-116248571D01*
X41645714Y-114677142D02*
X41288571Y-115748571D01*
X42217142Y-115748571D01*
X43502857Y-114748571D02*
X42788571Y-114748571D01*
X42717142Y-115462857D01*
X42788571Y-115391428D01*
X42931428Y-115320000D01*
X43288571Y-115320000D01*
X43431428Y-115391428D01*
X43502857Y-115462857D01*
X43574285Y-115605714D01*
X43574285Y-115962857D01*
X43502857Y-116105714D01*
X43431428Y-116177142D01*
X43288571Y-116248571D01*
X42931428Y-116248571D01*
X42788571Y-116177142D01*
X42717142Y-116105714D01*
X44217142Y-115677142D02*
X45360000Y-115677142D01*
X46074285Y-116248571D02*
X46074285Y-114748571D01*
X46574285Y-115820000D01*
X47074285Y-114748571D01*
X47074285Y-116248571D01*
X48502857Y-114748571D02*
X47788571Y-114748571D01*
X47717142Y-115462857D01*
X47788571Y-115391428D01*
X47931428Y-115320000D01*
X48288571Y-115320000D01*
X48431428Y-115391428D01*
X48502857Y-115462857D01*
X48574285Y-115605714D01*
X48574285Y-115962857D01*
X48502857Y-116105714D01*
X48431428Y-116177142D01*
X48288571Y-116248571D01*
X47931428Y-116248571D01*
X47788571Y-116177142D01*
X47717142Y-116105714D01*
X49931428Y-114748571D02*
X49217142Y-114748571D01*
X49145714Y-115462857D01*
X49217142Y-115391428D01*
X49360000Y-115320000D01*
X49717142Y-115320000D01*
X49860000Y-115391428D01*
X49931428Y-115462857D01*
X50002857Y-115605714D01*
X50002857Y-115962857D01*
X49931428Y-116105714D01*
X49860000Y-116177142D01*
X49717142Y-116248571D01*
X49360000Y-116248571D01*
X49217142Y-116177142D01*
X49145714Y-116105714D01*
X51788571Y-116248571D02*
X51788571Y-115248571D01*
X51788571Y-115391428D02*
X51860000Y-115320000D01*
X52002857Y-115248571D01*
X52217142Y-115248571D01*
X52360000Y-115320000D01*
X52431428Y-115462857D01*
X52431428Y-116248571D01*
X52431428Y-115462857D02*
X52502857Y-115320000D01*
X52645714Y-115248571D01*
X52860000Y-115248571D01*
X53002857Y-115320000D01*
X53074285Y-115462857D01*
X53074285Y-116248571D01*
X54788571Y-115248571D02*
X55145714Y-116248571D01*
X55502857Y-115248571D01*
X56360000Y-114748571D02*
X56502857Y-114748571D01*
X56645714Y-114820000D01*
X56717142Y-114891428D01*
X56788571Y-115034285D01*
X56860000Y-115320000D01*
X56860000Y-115677142D01*
X56788571Y-115962857D01*
X56717142Y-116105714D01*
X56645714Y-116177142D01*
X56502857Y-116248571D01*
X56360000Y-116248571D01*
X56217142Y-116177142D01*
X56145714Y-116105714D01*
X56074285Y-115962857D01*
X56002857Y-115677142D01*
X56002857Y-115320000D01*
X56074285Y-115034285D01*
X56145714Y-114891428D01*
X56217142Y-114820000D01*
X56360000Y-114748571D01*
X57502857Y-116105714D02*
X57574285Y-116177142D01*
X57502857Y-116248571D01*
X57431428Y-116177142D01*
X57502857Y-116105714D01*
X57502857Y-116248571D01*
X58145714Y-114891428D02*
X58217142Y-114820000D01*
X58360000Y-114748571D01*
X58717142Y-114748571D01*
X58860000Y-114820000D01*
X58931428Y-114891428D01*
X59002857Y-115034285D01*
X59002857Y-115177142D01*
X58931428Y-115391428D01*
X58074285Y-116248571D01*
X59002857Y-116248571D01*
X60717142Y-114891428D02*
X60788571Y-114820000D01*
X60931428Y-114748571D01*
X61288571Y-114748571D01*
X61431428Y-114820000D01*
X61502857Y-114891428D01*
X61574285Y-115034285D01*
X61574285Y-115177142D01*
X61502857Y-115391428D01*
X60645714Y-116248571D01*
X61574285Y-116248571D01*
X62502857Y-114748571D02*
X62645714Y-114748571D01*
X62788571Y-114820000D01*
X62860000Y-114891428D01*
X62931428Y-115034285D01*
X63002857Y-115320000D01*
X63002857Y-115677142D01*
X62931428Y-115962857D01*
X62860000Y-116105714D01*
X62788571Y-116177142D01*
X62645714Y-116248571D01*
X62502857Y-116248571D01*
X62360000Y-116177142D01*
X62288571Y-116105714D01*
X62217142Y-115962857D01*
X62145714Y-115677142D01*
X62145714Y-115320000D01*
X62217142Y-115034285D01*
X62288571Y-114891428D01*
X62360000Y-114820000D01*
X62502857Y-114748571D01*
X63574285Y-114891428D02*
X63645714Y-114820000D01*
X63788571Y-114748571D01*
X64145714Y-114748571D01*
X64288571Y-114820000D01*
X64360000Y-114891428D01*
X64431428Y-115034285D01*
X64431428Y-115177142D01*
X64360000Y-115391428D01*
X63502857Y-116248571D01*
X64431428Y-116248571D01*
X65360000Y-114748571D02*
X65502857Y-114748571D01*
X65645714Y-114820000D01*
X65717142Y-114891428D01*
X65788571Y-115034285D01*
X65860000Y-115320000D01*
X65860000Y-115677142D01*
X65788571Y-115962857D01*
X65717142Y-116105714D01*
X65645714Y-116177142D01*
X65502857Y-116248571D01*
X65360000Y-116248571D01*
X65217142Y-116177142D01*
X65145714Y-116105714D01*
X65074285Y-115962857D01*
X65002857Y-115677142D01*
X65002857Y-115320000D01*
X65074285Y-115034285D01*
X65145714Y-114891428D01*
X65217142Y-114820000D01*
X65360000Y-114748571D01*
X66502857Y-115677142D02*
X67645714Y-115677142D01*
X68645714Y-114748571D02*
X68788571Y-114748571D01*
X68931428Y-114820000D01*
X69002857Y-114891428D01*
X69074285Y-115034285D01*
X69145714Y-115320000D01*
X69145714Y-115677142D01*
X69074285Y-115962857D01*
X69002857Y-116105714D01*
X68931428Y-116177142D01*
X68788571Y-116248571D01*
X68645714Y-116248571D01*
X68502857Y-116177142D01*
X68431428Y-116105714D01*
X68360000Y-115962857D01*
X68288571Y-115677142D01*
X68288571Y-115320000D01*
X68360000Y-115034285D01*
X68431428Y-114891428D01*
X68502857Y-114820000D01*
X68645714Y-114748571D01*
X69645714Y-114748571D02*
X70574285Y-114748571D01*
X70074285Y-115320000D01*
X70288571Y-115320000D01*
X70431428Y-115391428D01*
X70502857Y-115462857D01*
X70574285Y-115605714D01*
X70574285Y-115962857D01*
X70502857Y-116105714D01*
X70431428Y-116177142D01*
X70288571Y-116248571D01*
X69860000Y-116248571D01*
X69717142Y-116177142D01*
X69645714Y-116105714D01*
D11*
X42920000Y-123935000D02*
X40660000Y-123935000D01*
X42920000Y-121140000D02*
X42920000Y-123935000D01*
X42920000Y-121140000D02*
X58480000Y-121140000D01*
X58480000Y-121140000D02*
X58480000Y-124360000D01*
X58480000Y-124360000D02*
X61580000Y-124360000D01*
X61580000Y-124360000D02*
X61580000Y-133640000D01*
X61580000Y-133640000D02*
X58480000Y-133640000D01*
X58480000Y-133640000D02*
X58480000Y-136860000D01*
X58480000Y-136860000D02*
X42920000Y-136860000D01*
X42920000Y-136860000D02*
X42920000Y-134080000D01*
X67530000Y-135660000D02*
X67530000Y-134605000D01*
X67530000Y-137300000D02*
X72170000Y-137300000D01*
X67530000Y-121935000D02*
X66710000Y-121935000D01*
X72170000Y-135636000D02*
X72170000Y-134581000D01*
X72170000Y-119240000D02*
X67530000Y-119240000D01*
X67530000Y-120904000D02*
X67530000Y-121959000D01*
X72170000Y-120880000D02*
X72170000Y-121935000D01*
D12*
X50666666Y-118952380D02*
X50666666Y-119666666D01*
X50619047Y-119809523D01*
X50523809Y-119904761D01*
X50380952Y-119952380D01*
X50285714Y-119952380D01*
X51666666Y-119952380D02*
X51095238Y-119952380D01*
X51380952Y-119952380D02*
X51380952Y-118952380D01*
X51285714Y-119095238D01*
X51190476Y-119190476D01*
X51095238Y-119238095D01*
X64130940Y-135677233D02*
X64845226Y-135677233D01*
X64988083Y-135724852D01*
X65083321Y-135820090D01*
X65130940Y-135962947D01*
X65130940Y-136058185D01*
X64464274Y-134772471D02*
X65130940Y-134772471D01*
X64083321Y-135010566D02*
X64797607Y-135248661D01*
X64797607Y-134629614D01*
M02*
