G04 #@! TF.GenerationSoftware,KiCad,Pcbnew,5.1.5*
G04 #@! TF.CreationDate,2020-03-20T00:43:26-04:00*
G04 #@! TF.ProjectId,M55-RJ45,4d35352d-524a-4343-952e-6b696361645f,rev?*
G04 #@! TF.SameCoordinates,Original*
G04 #@! TF.FileFunction,Copper,L1,Top*
G04 #@! TF.FilePolarity,Positive*
%FSLAX46Y46*%
G04 Gerber Fmt 4.6, Leading zero omitted, Abs format (unit mm)*
G04 Created by KiCad (PCBNEW 5.1.5) date 2020-03-20 00:43:26*
%MOMM*%
%LPD*%
G04 APERTURE LIST*
%ADD10C,0.300000*%
%ADD11R,5.000000X0.760000*%
%ADD12R,4.500000X8.800000*%
%ADD13R,1.100000X0.800000*%
%ADD14R,2.500000X1.200000*%
%ADD15C,0.800000*%
%ADD16C,0.127000*%
G04 APERTURE END LIST*
D10*
X39574285Y-116248571D02*
X39074285Y-115534285D01*
X38717142Y-116248571D02*
X38717142Y-114748571D01*
X39288571Y-114748571D01*
X39431428Y-114820000D01*
X39502857Y-114891428D01*
X39574285Y-115034285D01*
X39574285Y-115248571D01*
X39502857Y-115391428D01*
X39431428Y-115462857D01*
X39288571Y-115534285D01*
X38717142Y-115534285D01*
X40645714Y-114748571D02*
X40645714Y-115820000D01*
X40574285Y-116034285D01*
X40431428Y-116177142D01*
X40217142Y-116248571D01*
X40074285Y-116248571D01*
X42002857Y-115248571D02*
X42002857Y-116248571D01*
X41645714Y-114677142D02*
X41288571Y-115748571D01*
X42217142Y-115748571D01*
X43502857Y-114748571D02*
X42788571Y-114748571D01*
X42717142Y-115462857D01*
X42788571Y-115391428D01*
X42931428Y-115320000D01*
X43288571Y-115320000D01*
X43431428Y-115391428D01*
X43502857Y-115462857D01*
X43574285Y-115605714D01*
X43574285Y-115962857D01*
X43502857Y-116105714D01*
X43431428Y-116177142D01*
X43288571Y-116248571D01*
X42931428Y-116248571D01*
X42788571Y-116177142D01*
X42717142Y-116105714D01*
X44217142Y-115677142D02*
X45360000Y-115677142D01*
X46074285Y-116248571D02*
X46074285Y-114748571D01*
X46574285Y-115820000D01*
X47074285Y-114748571D01*
X47074285Y-116248571D01*
X48502857Y-114748571D02*
X47788571Y-114748571D01*
X47717142Y-115462857D01*
X47788571Y-115391428D01*
X47931428Y-115320000D01*
X48288571Y-115320000D01*
X48431428Y-115391428D01*
X48502857Y-115462857D01*
X48574285Y-115605714D01*
X48574285Y-115962857D01*
X48502857Y-116105714D01*
X48431428Y-116177142D01*
X48288571Y-116248571D01*
X47931428Y-116248571D01*
X47788571Y-116177142D01*
X47717142Y-116105714D01*
X49931428Y-114748571D02*
X49217142Y-114748571D01*
X49145714Y-115462857D01*
X49217142Y-115391428D01*
X49360000Y-115320000D01*
X49717142Y-115320000D01*
X49860000Y-115391428D01*
X49931428Y-115462857D01*
X50002857Y-115605714D01*
X50002857Y-115962857D01*
X49931428Y-116105714D01*
X49860000Y-116177142D01*
X49717142Y-116248571D01*
X49360000Y-116248571D01*
X49217142Y-116177142D01*
X49145714Y-116105714D01*
X51788571Y-116248571D02*
X51788571Y-115248571D01*
X51788571Y-115391428D02*
X51860000Y-115320000D01*
X52002857Y-115248571D01*
X52217142Y-115248571D01*
X52360000Y-115320000D01*
X52431428Y-115462857D01*
X52431428Y-116248571D01*
X52431428Y-115462857D02*
X52502857Y-115320000D01*
X52645714Y-115248571D01*
X52860000Y-115248571D01*
X53002857Y-115320000D01*
X53074285Y-115462857D01*
X53074285Y-116248571D01*
X54788571Y-115248571D02*
X55145714Y-116248571D01*
X55502857Y-115248571D01*
X56360000Y-114748571D02*
X56502857Y-114748571D01*
X56645714Y-114820000D01*
X56717142Y-114891428D01*
X56788571Y-115034285D01*
X56860000Y-115320000D01*
X56860000Y-115677142D01*
X56788571Y-115962857D01*
X56717142Y-116105714D01*
X56645714Y-116177142D01*
X56502857Y-116248571D01*
X56360000Y-116248571D01*
X56217142Y-116177142D01*
X56145714Y-116105714D01*
X56074285Y-115962857D01*
X56002857Y-115677142D01*
X56002857Y-115320000D01*
X56074285Y-115034285D01*
X56145714Y-114891428D01*
X56217142Y-114820000D01*
X56360000Y-114748571D01*
X57502857Y-116105714D02*
X57574285Y-116177142D01*
X57502857Y-116248571D01*
X57431428Y-116177142D01*
X57502857Y-116105714D01*
X57502857Y-116248571D01*
X58145714Y-114891428D02*
X58217142Y-114820000D01*
X58360000Y-114748571D01*
X58717142Y-114748571D01*
X58860000Y-114820000D01*
X58931428Y-114891428D01*
X59002857Y-115034285D01*
X59002857Y-115177142D01*
X58931428Y-115391428D01*
X58074285Y-116248571D01*
X59002857Y-116248571D01*
X60717142Y-114891428D02*
X60788571Y-114820000D01*
X60931428Y-114748571D01*
X61288571Y-114748571D01*
X61431428Y-114820000D01*
X61502857Y-114891428D01*
X61574285Y-115034285D01*
X61574285Y-115177142D01*
X61502857Y-115391428D01*
X60645714Y-116248571D01*
X61574285Y-116248571D01*
X62502857Y-114748571D02*
X62645714Y-114748571D01*
X62788571Y-114820000D01*
X62860000Y-114891428D01*
X62931428Y-115034285D01*
X63002857Y-115320000D01*
X63002857Y-115677142D01*
X62931428Y-115962857D01*
X62860000Y-116105714D01*
X62788571Y-116177142D01*
X62645714Y-116248571D01*
X62502857Y-116248571D01*
X62360000Y-116177142D01*
X62288571Y-116105714D01*
X62217142Y-115962857D01*
X62145714Y-115677142D01*
X62145714Y-115320000D01*
X62217142Y-115034285D01*
X62288571Y-114891428D01*
X62360000Y-114820000D01*
X62502857Y-114748571D01*
X63574285Y-114891428D02*
X63645714Y-114820000D01*
X63788571Y-114748571D01*
X64145714Y-114748571D01*
X64288571Y-114820000D01*
X64360000Y-114891428D01*
X64431428Y-115034285D01*
X64431428Y-115177142D01*
X64360000Y-115391428D01*
X63502857Y-116248571D01*
X64431428Y-116248571D01*
X65360000Y-114748571D02*
X65502857Y-114748571D01*
X65645714Y-114820000D01*
X65717142Y-114891428D01*
X65788571Y-115034285D01*
X65860000Y-115320000D01*
X65860000Y-115677142D01*
X65788571Y-115962857D01*
X65717142Y-116105714D01*
X65645714Y-116177142D01*
X65502857Y-116248571D01*
X65360000Y-116248571D01*
X65217142Y-116177142D01*
X65145714Y-116105714D01*
X65074285Y-115962857D01*
X65002857Y-115677142D01*
X65002857Y-115320000D01*
X65074285Y-115034285D01*
X65145714Y-114891428D01*
X65217142Y-114820000D01*
X65360000Y-114748571D01*
X66502857Y-115677142D02*
X67645714Y-115677142D01*
X68645714Y-114748571D02*
X68788571Y-114748571D01*
X68931428Y-114820000D01*
X69002857Y-114891428D01*
X69074285Y-115034285D01*
X69145714Y-115320000D01*
X69145714Y-115677142D01*
X69074285Y-115962857D01*
X69002857Y-116105714D01*
X68931428Y-116177142D01*
X68788571Y-116248571D01*
X68645714Y-116248571D01*
X68502857Y-116177142D01*
X68431428Y-116105714D01*
X68360000Y-115962857D01*
X68288571Y-115677142D01*
X68288571Y-115320000D01*
X68360000Y-115034285D01*
X68431428Y-114891428D01*
X68502857Y-114820000D01*
X68645714Y-114748571D01*
X69645714Y-114748571D02*
X70574285Y-114748571D01*
X70074285Y-115320000D01*
X70288571Y-115320000D01*
X70431428Y-115391428D01*
X70502857Y-115462857D01*
X70574285Y-115605714D01*
X70574285Y-115962857D01*
X70502857Y-116105714D01*
X70431428Y-116177142D01*
X70288571Y-116248571D01*
X69860000Y-116248571D01*
X69717142Y-116177142D01*
X69645714Y-116105714D01*
D11*
X43160000Y-124555000D03*
X43160000Y-125825000D03*
X43160000Y-127095000D03*
X43160000Y-128365000D03*
X43160000Y-129635000D03*
X43160000Y-130905000D03*
X43160000Y-132175000D03*
X43160000Y-133445000D03*
D12*
X59090000Y-129000000D03*
D13*
X67310000Y-133985000D03*
X72390000Y-133985000D03*
X67310000Y-132715000D03*
X72390000Y-132715000D03*
X67310000Y-131445000D03*
X72390000Y-131445000D03*
X67310000Y-130175000D03*
X72390000Y-130175000D03*
X67310000Y-128905000D03*
X72390000Y-128905000D03*
X67310000Y-127635000D03*
X72390000Y-127635000D03*
X67310000Y-126365000D03*
X72390000Y-126365000D03*
X67310000Y-125095000D03*
X72390000Y-125095000D03*
X67310000Y-123825000D03*
X72390000Y-123825000D03*
X67310000Y-122555000D03*
X72390000Y-122555000D03*
D14*
X67475000Y-120060000D03*
X72225000Y-120060000D03*
X67475000Y-136480000D03*
X72225000Y-136480000D03*
D15*
X39370000Y-132054600D03*
X38841680Y-124297440D03*
X38956189Y-125545425D03*
X32537400Y-129578100D03*
X33975949Y-124759711D03*
X38100002Y-127354906D03*
X38099996Y-128734510D03*
X33896300Y-126898400D03*
X31750000Y-124688600D03*
X70485000Y-132715000D03*
X62230000Y-124460000D03*
X62230000Y-132080000D03*
X70485000Y-131445000D03*
X63005000Y-129540000D03*
X64134990Y-130669990D03*
X69215000Y-130175000D03*
X70485000Y-125730000D03*
X63005000Y-125730000D03*
D16*
X43160000Y-132175000D02*
X39490400Y-132175000D01*
X39490400Y-132175000D02*
X39370000Y-132054600D01*
X39099240Y-124555000D02*
X38841680Y-124297440D01*
X43160000Y-124555000D02*
X39099240Y-124555000D01*
X39235764Y-125825000D02*
X38956189Y-125545425D01*
X43160000Y-125825000D02*
X39235764Y-125825000D01*
X32537400Y-126198260D02*
X33975949Y-124759711D01*
X32537400Y-129578100D02*
X32537400Y-126198260D01*
X34541634Y-124759711D02*
X33975949Y-124759711D01*
X37023473Y-124759711D02*
X34541634Y-124759711D01*
X39358762Y-127095000D02*
X37023473Y-124759711D01*
X43160000Y-127095000D02*
X39358762Y-127095000D01*
X43160000Y-128365000D02*
X39110096Y-128365000D01*
X39110096Y-128365000D02*
X38100002Y-127354906D01*
X43160000Y-129635000D02*
X39000486Y-129635000D01*
X39000486Y-129635000D02*
X38099996Y-128734510D01*
X34296299Y-127298399D02*
X33896300Y-126898400D01*
X43160000Y-130905000D02*
X37902900Y-130905000D01*
X37902900Y-130905000D02*
X34296299Y-127298399D01*
X31750000Y-128117600D02*
X31750000Y-124688600D01*
X43160000Y-133445000D02*
X33517398Y-133445000D01*
X31750000Y-131677602D02*
X31750000Y-128117600D01*
X33517398Y-133445000D02*
X31750000Y-131677602D01*
X70485000Y-132715000D02*
X72390000Y-132715000D01*
X62230000Y-133985000D02*
X67310000Y-133985000D01*
X67310000Y-133985000D02*
X72390000Y-133985000D01*
X62230000Y-124460000D02*
X62230000Y-132080000D01*
X62230000Y-132080000D02*
X62230000Y-133985000D01*
X72390000Y-131445000D02*
X70485000Y-131445000D01*
X66510000Y-130175000D02*
X67310000Y-130175000D01*
X65875000Y-129540000D02*
X66510000Y-130175000D01*
X63005000Y-129540000D02*
X65875000Y-129540000D01*
X64910000Y-131445000D02*
X64134990Y-130669990D01*
X67310000Y-131445000D02*
X64910000Y-131445000D01*
X69215000Y-131610000D02*
X69215000Y-130175000D01*
X67310000Y-132715000D02*
X68110000Y-132715000D01*
X68110000Y-132715000D02*
X69215000Y-131610000D01*
X72390000Y-125095000D02*
X71120000Y-125095000D01*
X71120000Y-125095000D02*
X70485000Y-125730000D01*
X67310000Y-128905000D02*
X72390000Y-128905000D01*
X72390000Y-128905000D02*
X72390000Y-130175000D01*
X63500000Y-128905000D02*
X67310000Y-128905000D01*
X63005000Y-125730000D02*
X63005000Y-128410000D01*
X63005000Y-128410000D02*
X63500000Y-128905000D01*
M02*
