%FSLAX45Y45*%
G04 Gerber Fmt 4.5, Leading zero omitted, Abs format (unit mm)*
G04 Created by KiCad (PCBNEW 5.1.5) date 2020-03-20 00:43:18*
%MOMM*%
%LPD*%
G04 APERTURE LIST*
%TA.AperFunction,Profile*%
%ADD10C,0.050000*%
%TD*%
%ADD11C,0.200000*%
%ADD12C,0.300000*%
G04 APERTURE END LIST*
D10*
X2880000Y-11300000D02*
X7400000Y-11300000D01*
X2880000Y-11300000D02*
X2880000Y-14400000D01*
X2880000Y-14400000D02*
X7400000Y-14400000D01*
X7400000Y-11300000D02*
X7400000Y-14400000D01*
D11*
X3155000Y-12448860D02*
X3195000Y-12488860D01*
X3195000Y-12448860D02*
X3155000Y-12488860D01*
X3233740Y-12937810D02*
X3273740Y-12977810D01*
X3273740Y-12937810D02*
X3233740Y-12977810D01*
X3369630Y-12669840D02*
X3409630Y-12709840D01*
X3409630Y-12669840D02*
X3369630Y-12709840D01*
X3377595Y-12455971D02*
X3417595Y-12495971D01*
X3417595Y-12455971D02*
X3377595Y-12495971D01*
X3790000Y-12853451D02*
X3830000Y-12893451D01*
X3830000Y-12853451D02*
X3790000Y-12893451D01*
X3790000Y-12715491D02*
X3830000Y-12755491D01*
X3830000Y-12715491D02*
X3790000Y-12755491D01*
X3864168Y-12409744D02*
X3904168Y-12449744D01*
X3904168Y-12409744D02*
X3864168Y-12449744D01*
X3875619Y-12534542D02*
X3915619Y-12574542D01*
X3915619Y-12534542D02*
X3875619Y-12574542D01*
X3917000Y-13185460D02*
X3957000Y-13225460D01*
X3957000Y-13185460D02*
X3917000Y-13225460D01*
X6203000Y-12426000D02*
X6243000Y-12466000D01*
X6243000Y-12426000D02*
X6203000Y-12466000D01*
X6203000Y-13188000D02*
X6243000Y-13228000D01*
X6243000Y-13188000D02*
X6203000Y-13228000D01*
X6280500Y-12553000D02*
X6320500Y-12593000D01*
X6320500Y-12553000D02*
X6280500Y-12593000D01*
X6280500Y-12934000D02*
X6320500Y-12974000D01*
X6320500Y-12934000D02*
X6280500Y-12974000D01*
X6393499Y-13046999D02*
X6433499Y-13086999D01*
X6433499Y-13046999D02*
X6393499Y-13086999D01*
X6901500Y-12997500D02*
X6941500Y-13037500D01*
X6941500Y-12997500D02*
X6901500Y-13037500D01*
X7028500Y-12553000D02*
X7068500Y-12593000D01*
X7068500Y-12553000D02*
X7028500Y-12593000D01*
X7028500Y-13124500D02*
X7068500Y-13164500D01*
X7068500Y-13124500D02*
X7028500Y-13164500D01*
X7028500Y-13251500D02*
X7068500Y-13291500D01*
X7068500Y-13251500D02*
X7028500Y-13291500D01*
X3382500Y-12107500D02*
G75*
G03X3382500Y-12107500I-82500J0D01*
G01*
X3382500Y-13692500D02*
G75*
G03X3382500Y-13692500I-82500J0D01*
G01*
X7067500Y-12034500D02*
G75*
G03X7067500Y-12034500I-82500J0D01*
G01*
X7067500Y-13619500D02*
G75*
G03X7067500Y-13619500I-82500J0D01*
G01*
X3407410Y-11535284D02*
X3407410Y-11805284D01*
X3272410Y-11670284D02*
X3542410Y-11670284D01*
X6880098Y-13931012D02*
X6880098Y-14201012D01*
X6745098Y-14066012D02*
X7015098Y-14066012D01*
D12*
X3163928Y-14868214D02*
X3163928Y-14568214D01*
X3235357Y-14568214D01*
X3278214Y-14582500D01*
X3306786Y-14611071D01*
X3321071Y-14639643D01*
X3335357Y-14696786D01*
X3335357Y-14739643D01*
X3321071Y-14796786D01*
X3306786Y-14825357D01*
X3278214Y-14853929D01*
X3235357Y-14868214D01*
X3163928Y-14868214D01*
X3463928Y-14868214D02*
X3463928Y-14668214D01*
X3463928Y-14725357D02*
X3478214Y-14696786D01*
X3492500Y-14682500D01*
X3521071Y-14668214D01*
X3549643Y-14668214D01*
X3649643Y-14868214D02*
X3649643Y-14668214D01*
X3649643Y-14568214D02*
X3635357Y-14582500D01*
X3649643Y-14596786D01*
X3663928Y-14582500D01*
X3649643Y-14568214D01*
X3649643Y-14596786D01*
X3835357Y-14868214D02*
X3806786Y-14853929D01*
X3792500Y-14825357D01*
X3792500Y-14568214D01*
X3992500Y-14868214D02*
X3963928Y-14853929D01*
X3949643Y-14825357D01*
X3949643Y-14568214D01*
X4335357Y-14868214D02*
X4335357Y-14568214D01*
X4435357Y-14782500D01*
X4535357Y-14568214D01*
X4535357Y-14868214D01*
X4806786Y-14868214D02*
X4806786Y-14711071D01*
X4792500Y-14682500D01*
X4763928Y-14668214D01*
X4706786Y-14668214D01*
X4678214Y-14682500D01*
X4806786Y-14853929D02*
X4778214Y-14868214D01*
X4706786Y-14868214D01*
X4678214Y-14853929D01*
X4663928Y-14825357D01*
X4663928Y-14796786D01*
X4678214Y-14768214D01*
X4706786Y-14753929D01*
X4778214Y-14753929D01*
X4806786Y-14739643D01*
X4949643Y-14668214D02*
X4949643Y-14968214D01*
X4949643Y-14682500D02*
X4978214Y-14668214D01*
X5035357Y-14668214D01*
X5063928Y-14682500D01*
X5078214Y-14696786D01*
X5092500Y-14725357D01*
X5092500Y-14811071D01*
X5078214Y-14839643D01*
X5063928Y-14853929D01*
X5035357Y-14868214D01*
X4978214Y-14868214D01*
X4949643Y-14853929D01*
X5221071Y-14839643D02*
X5235357Y-14853929D01*
X5221071Y-14868214D01*
X5206786Y-14853929D01*
X5221071Y-14839643D01*
X5221071Y-14868214D01*
X5221071Y-14682500D02*
X5235357Y-14696786D01*
X5221071Y-14711071D01*
X5206786Y-14696786D01*
X5221071Y-14682500D01*
X5221071Y-14711071D01*
X2837500Y-15342500D02*
X2877500Y-15382500D01*
X2877500Y-15342500D02*
X2837500Y-15382500D01*
X3221071Y-15198214D02*
X3249643Y-15198214D01*
X3278214Y-15212500D01*
X3292500Y-15226786D01*
X3306786Y-15255357D01*
X3321071Y-15312500D01*
X3321071Y-15383929D01*
X3306786Y-15441071D01*
X3292500Y-15469643D01*
X3278214Y-15483929D01*
X3249643Y-15498214D01*
X3221071Y-15498214D01*
X3192500Y-15483929D01*
X3178214Y-15469643D01*
X3163928Y-15441071D01*
X3149643Y-15383929D01*
X3149643Y-15312500D01*
X3163928Y-15255357D01*
X3178214Y-15226786D01*
X3192500Y-15212500D01*
X3221071Y-15198214D01*
X3449643Y-15469643D02*
X3463928Y-15483929D01*
X3449643Y-15498214D01*
X3435357Y-15483929D01*
X3449643Y-15469643D01*
X3449643Y-15498214D01*
X3721071Y-15298214D02*
X3721071Y-15498214D01*
X3649643Y-15183929D02*
X3578214Y-15398214D01*
X3763928Y-15398214D01*
X3935357Y-15198214D02*
X3963928Y-15198214D01*
X3992500Y-15212500D01*
X4006786Y-15226786D01*
X4021071Y-15255357D01*
X4035357Y-15312500D01*
X4035357Y-15383929D01*
X4021071Y-15441071D01*
X4006786Y-15469643D01*
X3992500Y-15483929D01*
X3963928Y-15498214D01*
X3935357Y-15498214D01*
X3906786Y-15483929D01*
X3892500Y-15469643D01*
X3878214Y-15441071D01*
X3863928Y-15383929D01*
X3863928Y-15312500D01*
X3878214Y-15255357D01*
X3892500Y-15226786D01*
X3906786Y-15212500D01*
X3935357Y-15198214D01*
X4163928Y-15498214D02*
X4163928Y-15298214D01*
X4163928Y-15326786D02*
X4178214Y-15312500D01*
X4206786Y-15298214D01*
X4249643Y-15298214D01*
X4278214Y-15312500D01*
X4292500Y-15341071D01*
X4292500Y-15498214D01*
X4292500Y-15341071D02*
X4306786Y-15312500D01*
X4335357Y-15298214D01*
X4378214Y-15298214D01*
X4406786Y-15312500D01*
X4421071Y-15341071D01*
X4421071Y-15498214D01*
X4563928Y-15498214D02*
X4563928Y-15298214D01*
X4563928Y-15326786D02*
X4578214Y-15312500D01*
X4606786Y-15298214D01*
X4649643Y-15298214D01*
X4678214Y-15312500D01*
X4692500Y-15341071D01*
X4692500Y-15498214D01*
X4692500Y-15341071D02*
X4706786Y-15312500D01*
X4735357Y-15298214D01*
X4778214Y-15298214D01*
X4806786Y-15312500D01*
X4821071Y-15341071D01*
X4821071Y-15498214D01*
X5406786Y-15183929D02*
X5149643Y-15569643D01*
X5792500Y-15198214D02*
X5821071Y-15198214D01*
X5849643Y-15212500D01*
X5863928Y-15226786D01*
X5878214Y-15255357D01*
X5892500Y-15312500D01*
X5892500Y-15383929D01*
X5878214Y-15441071D01*
X5863928Y-15469643D01*
X5849643Y-15483929D01*
X5821071Y-15498214D01*
X5792500Y-15498214D01*
X5763928Y-15483929D01*
X5749643Y-15469643D01*
X5735357Y-15441071D01*
X5721071Y-15383929D01*
X5721071Y-15312500D01*
X5735357Y-15255357D01*
X5749643Y-15226786D01*
X5763928Y-15212500D01*
X5792500Y-15198214D01*
X6021071Y-15469643D02*
X6035357Y-15483929D01*
X6021071Y-15498214D01*
X6006786Y-15483929D01*
X6021071Y-15469643D01*
X6021071Y-15498214D01*
X6221071Y-15198214D02*
X6249643Y-15198214D01*
X6278214Y-15212500D01*
X6292500Y-15226786D01*
X6306786Y-15255357D01*
X6321071Y-15312500D01*
X6321071Y-15383929D01*
X6306786Y-15441071D01*
X6292500Y-15469643D01*
X6278214Y-15483929D01*
X6249643Y-15498214D01*
X6221071Y-15498214D01*
X6192500Y-15483929D01*
X6178214Y-15469643D01*
X6163928Y-15441071D01*
X6149643Y-15383929D01*
X6149643Y-15312500D01*
X6163928Y-15255357D01*
X6178214Y-15226786D01*
X6192500Y-15212500D01*
X6221071Y-15198214D01*
X6606786Y-15498214D02*
X6435357Y-15498214D01*
X6521071Y-15498214D02*
X6521071Y-15198214D01*
X6492500Y-15241071D01*
X6463928Y-15269643D01*
X6435357Y-15283929D01*
X6863928Y-15198214D02*
X6806786Y-15198214D01*
X6778214Y-15212500D01*
X6763928Y-15226786D01*
X6735357Y-15269643D01*
X6721071Y-15326786D01*
X6721071Y-15441071D01*
X6735357Y-15469643D01*
X6749643Y-15483929D01*
X6778214Y-15498214D01*
X6835357Y-15498214D01*
X6863928Y-15483929D01*
X6878214Y-15469643D01*
X6892500Y-15441071D01*
X6892500Y-15369643D01*
X6878214Y-15341071D01*
X6863928Y-15326786D01*
X6835357Y-15312500D01*
X6778214Y-15312500D01*
X6749643Y-15326786D01*
X6735357Y-15341071D01*
X6721071Y-15369643D01*
X7006786Y-15198214D02*
X7006786Y-15255357D01*
X7121071Y-15198214D02*
X7121071Y-15255357D01*
X7563928Y-15612500D02*
X7549643Y-15598214D01*
X7521071Y-15555357D01*
X7506786Y-15526786D01*
X7492500Y-15483929D01*
X7478214Y-15412500D01*
X7478214Y-15355357D01*
X7492500Y-15283929D01*
X7506786Y-15241071D01*
X7521071Y-15212500D01*
X7549643Y-15169643D01*
X7563928Y-15155357D01*
X7835357Y-15498214D02*
X7663928Y-15498214D01*
X7749643Y-15498214D02*
X7749643Y-15198214D01*
X7721071Y-15241071D01*
X7692500Y-15269643D01*
X7663928Y-15283929D01*
X8006786Y-15326786D02*
X7978214Y-15312500D01*
X7963928Y-15298214D01*
X7949643Y-15269643D01*
X7949643Y-15255357D01*
X7963928Y-15226786D01*
X7978214Y-15212500D01*
X8006786Y-15198214D01*
X8063928Y-15198214D01*
X8092500Y-15212500D01*
X8106786Y-15226786D01*
X8121071Y-15255357D01*
X8121071Y-15269643D01*
X8106786Y-15298214D01*
X8092500Y-15312500D01*
X8063928Y-15326786D01*
X8006786Y-15326786D01*
X7978214Y-15341071D01*
X7963928Y-15355357D01*
X7949643Y-15383929D01*
X7949643Y-15441071D01*
X7963928Y-15469643D01*
X7978214Y-15483929D01*
X8006786Y-15498214D01*
X8063928Y-15498214D01*
X8092500Y-15483929D01*
X8106786Y-15469643D01*
X8121071Y-15441071D01*
X8121071Y-15383929D01*
X8106786Y-15355357D01*
X8092500Y-15341071D01*
X8063928Y-15326786D01*
X8478214Y-15498214D02*
X8478214Y-15198214D01*
X8606786Y-15498214D02*
X8606786Y-15341071D01*
X8592500Y-15312500D01*
X8563928Y-15298214D01*
X8521071Y-15298214D01*
X8492500Y-15312500D01*
X8478214Y-15326786D01*
X8792500Y-15498214D02*
X8763928Y-15483929D01*
X8749643Y-15469643D01*
X8735357Y-15441071D01*
X8735357Y-15355357D01*
X8749643Y-15326786D01*
X8763928Y-15312500D01*
X8792500Y-15298214D01*
X8835357Y-15298214D01*
X8863928Y-15312500D01*
X8878214Y-15326786D01*
X8892500Y-15355357D01*
X8892500Y-15441071D01*
X8878214Y-15469643D01*
X8863928Y-15483929D01*
X8835357Y-15498214D01*
X8792500Y-15498214D01*
X9063928Y-15498214D02*
X9035357Y-15483929D01*
X9021071Y-15455357D01*
X9021071Y-15198214D01*
X9292500Y-15483929D02*
X9263928Y-15498214D01*
X9206786Y-15498214D01*
X9178214Y-15483929D01*
X9163928Y-15455357D01*
X9163928Y-15341071D01*
X9178214Y-15312500D01*
X9206786Y-15298214D01*
X9263928Y-15298214D01*
X9292500Y-15312500D01*
X9306786Y-15341071D01*
X9306786Y-15369643D01*
X9163928Y-15398214D01*
X9421071Y-15483929D02*
X9449643Y-15498214D01*
X9506786Y-15498214D01*
X9535357Y-15483929D01*
X9549643Y-15455357D01*
X9549643Y-15441071D01*
X9535357Y-15412500D01*
X9506786Y-15398214D01*
X9463928Y-15398214D01*
X9435357Y-15383929D01*
X9421071Y-15355357D01*
X9421071Y-15341071D01*
X9435357Y-15312500D01*
X9463928Y-15298214D01*
X9506786Y-15298214D01*
X9535357Y-15312500D01*
X9649643Y-15612500D02*
X9663928Y-15598214D01*
X9692500Y-15555357D01*
X9706786Y-15526786D01*
X9721071Y-15483929D01*
X9735357Y-15412500D01*
X9735357Y-15355357D01*
X9721071Y-15283929D01*
X9706786Y-15241071D01*
X9692500Y-15212500D01*
X9663928Y-15169643D01*
X9649643Y-15155357D01*
X2877500Y-15758500D02*
G75*
G03X2877500Y-15758500I-82500J0D01*
G01*
X3321071Y-15894214D02*
X3149643Y-15894214D01*
X3235357Y-15894214D02*
X3235357Y-15594214D01*
X3206786Y-15637071D01*
X3178214Y-15665643D01*
X3149643Y-15679929D01*
X3449643Y-15865643D02*
X3463928Y-15879929D01*
X3449643Y-15894214D01*
X3435357Y-15879929D01*
X3449643Y-15865643D01*
X3449643Y-15894214D01*
X3721071Y-15594214D02*
X3663928Y-15594214D01*
X3635357Y-15608500D01*
X3621071Y-15622786D01*
X3592500Y-15665643D01*
X3578214Y-15722786D01*
X3578214Y-15837071D01*
X3592500Y-15865643D01*
X3606786Y-15879929D01*
X3635357Y-15894214D01*
X3692500Y-15894214D01*
X3721071Y-15879929D01*
X3735357Y-15865643D01*
X3749643Y-15837071D01*
X3749643Y-15765643D01*
X3735357Y-15737071D01*
X3721071Y-15722786D01*
X3692500Y-15708500D01*
X3635357Y-15708500D01*
X3606786Y-15722786D01*
X3592500Y-15737071D01*
X3578214Y-15765643D01*
X4021071Y-15594214D02*
X3878214Y-15594214D01*
X3863928Y-15737071D01*
X3878214Y-15722786D01*
X3906786Y-15708500D01*
X3978214Y-15708500D01*
X4006786Y-15722786D01*
X4021071Y-15737071D01*
X4035357Y-15765643D01*
X4035357Y-15837071D01*
X4021071Y-15865643D01*
X4006786Y-15879929D01*
X3978214Y-15894214D01*
X3906786Y-15894214D01*
X3878214Y-15879929D01*
X3863928Y-15865643D01*
X4163928Y-15894214D02*
X4163928Y-15694214D01*
X4163928Y-15722786D02*
X4178214Y-15708500D01*
X4206786Y-15694214D01*
X4249643Y-15694214D01*
X4278214Y-15708500D01*
X4292500Y-15737071D01*
X4292500Y-15894214D01*
X4292500Y-15737071D02*
X4306786Y-15708500D01*
X4335357Y-15694214D01*
X4378214Y-15694214D01*
X4406786Y-15708500D01*
X4421071Y-15737071D01*
X4421071Y-15894214D01*
X4563928Y-15894214D02*
X4563928Y-15694214D01*
X4563928Y-15722786D02*
X4578214Y-15708500D01*
X4606786Y-15694214D01*
X4649643Y-15694214D01*
X4678214Y-15708500D01*
X4692500Y-15737071D01*
X4692500Y-15894214D01*
X4692500Y-15737071D02*
X4706786Y-15708500D01*
X4735357Y-15694214D01*
X4778214Y-15694214D01*
X4806786Y-15708500D01*
X4821071Y-15737071D01*
X4821071Y-15894214D01*
X5406786Y-15579929D02*
X5149643Y-15965643D01*
X5792500Y-15594214D02*
X5821071Y-15594214D01*
X5849643Y-15608500D01*
X5863928Y-15622786D01*
X5878214Y-15651357D01*
X5892500Y-15708500D01*
X5892500Y-15779929D01*
X5878214Y-15837071D01*
X5863928Y-15865643D01*
X5849643Y-15879929D01*
X5821071Y-15894214D01*
X5792500Y-15894214D01*
X5763928Y-15879929D01*
X5749643Y-15865643D01*
X5735357Y-15837071D01*
X5721071Y-15779929D01*
X5721071Y-15708500D01*
X5735357Y-15651357D01*
X5749643Y-15622786D01*
X5763928Y-15608500D01*
X5792500Y-15594214D01*
X6021071Y-15865643D02*
X6035357Y-15879929D01*
X6021071Y-15894214D01*
X6006786Y-15879929D01*
X6021071Y-15865643D01*
X6021071Y-15894214D01*
X6221071Y-15594214D02*
X6249643Y-15594214D01*
X6278214Y-15608500D01*
X6292500Y-15622786D01*
X6306786Y-15651357D01*
X6321071Y-15708500D01*
X6321071Y-15779929D01*
X6306786Y-15837071D01*
X6292500Y-15865643D01*
X6278214Y-15879929D01*
X6249643Y-15894214D01*
X6221071Y-15894214D01*
X6192500Y-15879929D01*
X6178214Y-15865643D01*
X6163928Y-15837071D01*
X6149643Y-15779929D01*
X6149643Y-15708500D01*
X6163928Y-15651357D01*
X6178214Y-15622786D01*
X6192500Y-15608500D01*
X6221071Y-15594214D01*
X6578214Y-15594214D02*
X6521071Y-15594214D01*
X6492500Y-15608500D01*
X6478214Y-15622786D01*
X6449643Y-15665643D01*
X6435357Y-15722786D01*
X6435357Y-15837071D01*
X6449643Y-15865643D01*
X6463928Y-15879929D01*
X6492500Y-15894214D01*
X6549643Y-15894214D01*
X6578214Y-15879929D01*
X6592500Y-15865643D01*
X6606786Y-15837071D01*
X6606786Y-15765643D01*
X6592500Y-15737071D01*
X6578214Y-15722786D01*
X6549643Y-15708500D01*
X6492500Y-15708500D01*
X6463928Y-15722786D01*
X6449643Y-15737071D01*
X6435357Y-15765643D01*
X6878214Y-15594214D02*
X6735357Y-15594214D01*
X6721071Y-15737071D01*
X6735357Y-15722786D01*
X6763928Y-15708500D01*
X6835357Y-15708500D01*
X6863928Y-15722786D01*
X6878214Y-15737071D01*
X6892500Y-15765643D01*
X6892500Y-15837071D01*
X6878214Y-15865643D01*
X6863928Y-15879929D01*
X6835357Y-15894214D01*
X6763928Y-15894214D01*
X6735357Y-15879929D01*
X6721071Y-15865643D01*
X7006786Y-15594214D02*
X7006786Y-15651357D01*
X7121071Y-15594214D02*
X7121071Y-15651357D01*
X7563928Y-16008500D02*
X7549643Y-15994214D01*
X7521071Y-15951357D01*
X7506786Y-15922786D01*
X7492500Y-15879929D01*
X7478214Y-15808500D01*
X7478214Y-15751357D01*
X7492500Y-15679929D01*
X7506786Y-15637071D01*
X7521071Y-15608500D01*
X7549643Y-15565643D01*
X7563928Y-15551357D01*
X7806786Y-15694214D02*
X7806786Y-15894214D01*
X7735357Y-15579929D02*
X7663928Y-15794214D01*
X7849643Y-15794214D01*
X8192500Y-15894214D02*
X8192500Y-15594214D01*
X8321071Y-15894214D02*
X8321071Y-15737071D01*
X8306786Y-15708500D01*
X8278214Y-15694214D01*
X8235357Y-15694214D01*
X8206786Y-15708500D01*
X8192500Y-15722786D01*
X8506786Y-15894214D02*
X8478214Y-15879929D01*
X8463928Y-15865643D01*
X8449643Y-15837071D01*
X8449643Y-15751357D01*
X8463928Y-15722786D01*
X8478214Y-15708500D01*
X8506786Y-15694214D01*
X8549643Y-15694214D01*
X8578214Y-15708500D01*
X8592500Y-15722786D01*
X8606786Y-15751357D01*
X8606786Y-15837071D01*
X8592500Y-15865643D01*
X8578214Y-15879929D01*
X8549643Y-15894214D01*
X8506786Y-15894214D01*
X8778214Y-15894214D02*
X8749643Y-15879929D01*
X8735357Y-15851357D01*
X8735357Y-15594214D01*
X9006786Y-15879929D02*
X8978214Y-15894214D01*
X8921071Y-15894214D01*
X8892500Y-15879929D01*
X8878214Y-15851357D01*
X8878214Y-15737071D01*
X8892500Y-15708500D01*
X8921071Y-15694214D01*
X8978214Y-15694214D01*
X9006786Y-15708500D01*
X9021071Y-15737071D01*
X9021071Y-15765643D01*
X8878214Y-15794214D01*
X9135357Y-15879929D02*
X9163928Y-15894214D01*
X9221071Y-15894214D01*
X9249643Y-15879929D01*
X9263928Y-15851357D01*
X9263928Y-15837071D01*
X9249643Y-15808500D01*
X9221071Y-15794214D01*
X9178214Y-15794214D01*
X9149643Y-15779929D01*
X9135357Y-15751357D01*
X9135357Y-15737071D01*
X9149643Y-15708500D01*
X9178214Y-15694214D01*
X9221071Y-15694214D01*
X9249643Y-15708500D01*
X9363928Y-16008500D02*
X9378214Y-15994214D01*
X9406786Y-15951357D01*
X9421071Y-15922786D01*
X9435357Y-15879929D01*
X9449643Y-15808500D01*
X9449643Y-15751357D01*
X9435357Y-15679929D01*
X9421071Y-15637071D01*
X9406786Y-15608500D01*
X9378214Y-15565643D01*
X9363928Y-15551357D01*
X9906786Y-16008500D02*
X9892500Y-15994214D01*
X9863928Y-15951357D01*
X9849643Y-15922786D01*
X9835357Y-15879929D01*
X9821071Y-15808500D01*
X9821071Y-15751357D01*
X9835357Y-15679929D01*
X9849643Y-15637071D01*
X9863928Y-15608500D01*
X9892500Y-15565643D01*
X9906786Y-15551357D01*
X10021071Y-15694214D02*
X10021071Y-15894214D01*
X10021071Y-15722786D02*
X10035357Y-15708500D01*
X10063928Y-15694214D01*
X10106786Y-15694214D01*
X10135357Y-15708500D01*
X10149643Y-15737071D01*
X10149643Y-15894214D01*
X10335357Y-15894214D02*
X10306786Y-15879929D01*
X10292500Y-15865643D01*
X10278214Y-15837071D01*
X10278214Y-15751357D01*
X10292500Y-15722786D01*
X10306786Y-15708500D01*
X10335357Y-15694214D01*
X10378214Y-15694214D01*
X10406786Y-15708500D01*
X10421071Y-15722786D01*
X10435357Y-15751357D01*
X10435357Y-15837071D01*
X10421071Y-15865643D01*
X10406786Y-15879929D01*
X10378214Y-15894214D01*
X10335357Y-15894214D01*
X10521071Y-15694214D02*
X10635357Y-15694214D01*
X10563928Y-15594214D02*
X10563928Y-15851357D01*
X10578214Y-15879929D01*
X10606786Y-15894214D01*
X10635357Y-15894214D01*
X10963928Y-15694214D02*
X10963928Y-15994214D01*
X10963928Y-15708500D02*
X10992500Y-15694214D01*
X11049643Y-15694214D01*
X11078214Y-15708500D01*
X11092500Y-15722786D01*
X11106786Y-15751357D01*
X11106786Y-15837071D01*
X11092500Y-15865643D01*
X11078214Y-15879929D01*
X11049643Y-15894214D01*
X10992500Y-15894214D01*
X10963928Y-15879929D01*
X11278214Y-15894214D02*
X11249643Y-15879929D01*
X11235357Y-15851357D01*
X11235357Y-15594214D01*
X11521071Y-15894214D02*
X11521071Y-15737071D01*
X11506786Y-15708500D01*
X11478214Y-15694214D01*
X11421071Y-15694214D01*
X11392500Y-15708500D01*
X11521071Y-15879929D02*
X11492500Y-15894214D01*
X11421071Y-15894214D01*
X11392500Y-15879929D01*
X11378214Y-15851357D01*
X11378214Y-15822786D01*
X11392500Y-15794214D01*
X11421071Y-15779929D01*
X11492500Y-15779929D01*
X11521071Y-15765643D01*
X11621071Y-15694214D02*
X11735357Y-15694214D01*
X11663928Y-15594214D02*
X11663928Y-15851357D01*
X11678214Y-15879929D01*
X11706786Y-15894214D01*
X11735357Y-15894214D01*
X11949643Y-15879929D02*
X11921071Y-15894214D01*
X11863928Y-15894214D01*
X11835357Y-15879929D01*
X11821071Y-15851357D01*
X11821071Y-15737071D01*
X11835357Y-15708500D01*
X11863928Y-15694214D01*
X11921071Y-15694214D01*
X11949643Y-15708500D01*
X11963928Y-15737071D01*
X11963928Y-15765643D01*
X11821071Y-15794214D01*
X12221071Y-15894214D02*
X12221071Y-15594214D01*
X12221071Y-15879929D02*
X12192500Y-15894214D01*
X12135357Y-15894214D01*
X12106786Y-15879929D01*
X12092500Y-15865643D01*
X12078214Y-15837071D01*
X12078214Y-15751357D01*
X12092500Y-15722786D01*
X12106786Y-15708500D01*
X12135357Y-15694214D01*
X12192500Y-15694214D01*
X12221071Y-15708500D01*
X12335357Y-16008500D02*
X12349643Y-15994214D01*
X12378214Y-15951357D01*
X12392500Y-15922786D01*
X12406786Y-15879929D01*
X12421071Y-15808500D01*
X12421071Y-15751357D01*
X12406786Y-15679929D01*
X12392500Y-15637071D01*
X12378214Y-15608500D01*
X12349643Y-15565643D01*
X12335357Y-15551357D01*
X2742500Y-16019500D02*
X2742500Y-16289500D01*
X2607500Y-16154500D02*
X2877500Y-16154500D01*
X3149643Y-16018786D02*
X3163928Y-16004500D01*
X3192500Y-15990214D01*
X3263928Y-15990214D01*
X3292500Y-16004500D01*
X3306786Y-16018786D01*
X3321071Y-16047357D01*
X3321071Y-16075929D01*
X3306786Y-16118786D01*
X3135357Y-16290214D01*
X3321071Y-16290214D01*
X3449643Y-16261643D02*
X3463928Y-16275929D01*
X3449643Y-16290214D01*
X3435357Y-16275929D01*
X3449643Y-16261643D01*
X3449643Y-16290214D01*
X3563928Y-15990214D02*
X3763928Y-15990214D01*
X3635357Y-16290214D01*
X3935357Y-15990214D02*
X3963928Y-15990214D01*
X3992500Y-16004500D01*
X4006786Y-16018786D01*
X4021071Y-16047357D01*
X4035357Y-16104500D01*
X4035357Y-16175929D01*
X4021071Y-16233071D01*
X4006786Y-16261643D01*
X3992500Y-16275929D01*
X3963928Y-16290214D01*
X3935357Y-16290214D01*
X3906786Y-16275929D01*
X3892500Y-16261643D01*
X3878214Y-16233071D01*
X3863928Y-16175929D01*
X3863928Y-16104500D01*
X3878214Y-16047357D01*
X3892500Y-16018786D01*
X3906786Y-16004500D01*
X3935357Y-15990214D01*
X4163928Y-16290214D02*
X4163928Y-16090214D01*
X4163928Y-16118786D02*
X4178214Y-16104500D01*
X4206786Y-16090214D01*
X4249643Y-16090214D01*
X4278214Y-16104500D01*
X4292500Y-16133071D01*
X4292500Y-16290214D01*
X4292500Y-16133071D02*
X4306786Y-16104500D01*
X4335357Y-16090214D01*
X4378214Y-16090214D01*
X4406786Y-16104500D01*
X4421071Y-16133071D01*
X4421071Y-16290214D01*
X4563928Y-16290214D02*
X4563928Y-16090214D01*
X4563928Y-16118786D02*
X4578214Y-16104500D01*
X4606786Y-16090214D01*
X4649643Y-16090214D01*
X4678214Y-16104500D01*
X4692500Y-16133071D01*
X4692500Y-16290214D01*
X4692500Y-16133071D02*
X4706786Y-16104500D01*
X4735357Y-16090214D01*
X4778214Y-16090214D01*
X4806786Y-16104500D01*
X4821071Y-16133071D01*
X4821071Y-16290214D01*
X5406786Y-15975929D02*
X5149643Y-16361643D01*
X5792500Y-15990214D02*
X5821071Y-15990214D01*
X5849643Y-16004500D01*
X5863928Y-16018786D01*
X5878214Y-16047357D01*
X5892500Y-16104500D01*
X5892500Y-16175929D01*
X5878214Y-16233071D01*
X5863928Y-16261643D01*
X5849643Y-16275929D01*
X5821071Y-16290214D01*
X5792500Y-16290214D01*
X5763928Y-16275929D01*
X5749643Y-16261643D01*
X5735357Y-16233071D01*
X5721071Y-16175929D01*
X5721071Y-16104500D01*
X5735357Y-16047357D01*
X5749643Y-16018786D01*
X5763928Y-16004500D01*
X5792500Y-15990214D01*
X6021071Y-16261643D02*
X6035357Y-16275929D01*
X6021071Y-16290214D01*
X6006786Y-16275929D01*
X6021071Y-16261643D01*
X6021071Y-16290214D01*
X6321071Y-16290214D02*
X6149643Y-16290214D01*
X6235357Y-16290214D02*
X6235357Y-15990214D01*
X6206786Y-16033071D01*
X6178214Y-16061643D01*
X6149643Y-16075929D01*
X6506786Y-15990214D02*
X6535357Y-15990214D01*
X6563928Y-16004500D01*
X6578214Y-16018786D01*
X6592500Y-16047357D01*
X6606786Y-16104500D01*
X6606786Y-16175929D01*
X6592500Y-16233071D01*
X6578214Y-16261643D01*
X6563928Y-16275929D01*
X6535357Y-16290214D01*
X6506786Y-16290214D01*
X6478214Y-16275929D01*
X6463928Y-16261643D01*
X6449643Y-16233071D01*
X6435357Y-16175929D01*
X6435357Y-16104500D01*
X6449643Y-16047357D01*
X6463928Y-16018786D01*
X6478214Y-16004500D01*
X6506786Y-15990214D01*
X6863928Y-15990214D02*
X6806786Y-15990214D01*
X6778214Y-16004500D01*
X6763928Y-16018786D01*
X6735357Y-16061643D01*
X6721071Y-16118786D01*
X6721071Y-16233071D01*
X6735357Y-16261643D01*
X6749643Y-16275929D01*
X6778214Y-16290214D01*
X6835357Y-16290214D01*
X6863928Y-16275929D01*
X6878214Y-16261643D01*
X6892500Y-16233071D01*
X6892500Y-16161643D01*
X6878214Y-16133071D01*
X6863928Y-16118786D01*
X6835357Y-16104500D01*
X6778214Y-16104500D01*
X6749643Y-16118786D01*
X6735357Y-16133071D01*
X6721071Y-16161643D01*
X7006786Y-15990214D02*
X7006786Y-16047357D01*
X7121071Y-15990214D02*
X7121071Y-16047357D01*
X7563928Y-16404500D02*
X7549643Y-16390214D01*
X7521071Y-16347357D01*
X7506786Y-16318786D01*
X7492500Y-16275929D01*
X7478214Y-16204500D01*
X7478214Y-16147357D01*
X7492500Y-16075929D01*
X7506786Y-16033071D01*
X7521071Y-16004500D01*
X7549643Y-15961643D01*
X7563928Y-15947357D01*
X7663928Y-16018786D02*
X7678214Y-16004500D01*
X7706786Y-15990214D01*
X7778214Y-15990214D01*
X7806786Y-16004500D01*
X7821071Y-16018786D01*
X7835357Y-16047357D01*
X7835357Y-16075929D01*
X7821071Y-16118786D01*
X7649643Y-16290214D01*
X7835357Y-16290214D01*
X8192500Y-16290214D02*
X8192500Y-15990214D01*
X8321071Y-16290214D02*
X8321071Y-16133071D01*
X8306786Y-16104500D01*
X8278214Y-16090214D01*
X8235357Y-16090214D01*
X8206786Y-16104500D01*
X8192500Y-16118786D01*
X8506786Y-16290214D02*
X8478214Y-16275929D01*
X8463928Y-16261643D01*
X8449643Y-16233071D01*
X8449643Y-16147357D01*
X8463928Y-16118786D01*
X8478214Y-16104500D01*
X8506786Y-16090214D01*
X8549643Y-16090214D01*
X8578214Y-16104500D01*
X8592500Y-16118786D01*
X8606786Y-16147357D01*
X8606786Y-16233071D01*
X8592500Y-16261643D01*
X8578214Y-16275929D01*
X8549643Y-16290214D01*
X8506786Y-16290214D01*
X8778214Y-16290214D02*
X8749643Y-16275929D01*
X8735357Y-16247357D01*
X8735357Y-15990214D01*
X9006786Y-16275929D02*
X8978214Y-16290214D01*
X8921071Y-16290214D01*
X8892500Y-16275929D01*
X8878214Y-16247357D01*
X8878214Y-16133071D01*
X8892500Y-16104500D01*
X8921071Y-16090214D01*
X8978214Y-16090214D01*
X9006786Y-16104500D01*
X9021071Y-16133071D01*
X9021071Y-16161643D01*
X8878214Y-16190214D01*
X9135357Y-16275929D02*
X9163928Y-16290214D01*
X9221071Y-16290214D01*
X9249643Y-16275929D01*
X9263928Y-16247357D01*
X9263928Y-16233071D01*
X9249643Y-16204500D01*
X9221071Y-16190214D01*
X9178214Y-16190214D01*
X9149643Y-16175929D01*
X9135357Y-16147357D01*
X9135357Y-16133071D01*
X9149643Y-16104500D01*
X9178214Y-16090214D01*
X9221071Y-16090214D01*
X9249643Y-16104500D01*
X9363928Y-16404500D02*
X9378214Y-16390214D01*
X9406786Y-16347357D01*
X9421071Y-16318786D01*
X9435357Y-16275929D01*
X9449643Y-16204500D01*
X9449643Y-16147357D01*
X9435357Y-16075929D01*
X9421071Y-16033071D01*
X9406786Y-16004500D01*
X9378214Y-15961643D01*
X9363928Y-15947357D01*
X9906786Y-16404500D02*
X9892500Y-16390214D01*
X9863928Y-16347357D01*
X9849643Y-16318786D01*
X9835357Y-16275929D01*
X9821071Y-16204500D01*
X9821071Y-16147357D01*
X9835357Y-16075929D01*
X9849643Y-16033071D01*
X9863928Y-16004500D01*
X9892500Y-15961643D01*
X9906786Y-15947357D01*
X10021071Y-16090214D02*
X10021071Y-16290214D01*
X10021071Y-16118786D02*
X10035357Y-16104500D01*
X10063928Y-16090214D01*
X10106786Y-16090214D01*
X10135357Y-16104500D01*
X10149643Y-16133071D01*
X10149643Y-16290214D01*
X10335357Y-16290214D02*
X10306786Y-16275929D01*
X10292500Y-16261643D01*
X10278214Y-16233071D01*
X10278214Y-16147357D01*
X10292500Y-16118786D01*
X10306786Y-16104500D01*
X10335357Y-16090214D01*
X10378214Y-16090214D01*
X10406786Y-16104500D01*
X10421071Y-16118786D01*
X10435357Y-16147357D01*
X10435357Y-16233071D01*
X10421071Y-16261643D01*
X10406786Y-16275929D01*
X10378214Y-16290214D01*
X10335357Y-16290214D01*
X10521071Y-16090214D02*
X10635357Y-16090214D01*
X10563928Y-15990214D02*
X10563928Y-16247357D01*
X10578214Y-16275929D01*
X10606786Y-16290214D01*
X10635357Y-16290214D01*
X10963928Y-16090214D02*
X10963928Y-16390214D01*
X10963928Y-16104500D02*
X10992500Y-16090214D01*
X11049643Y-16090214D01*
X11078214Y-16104500D01*
X11092500Y-16118786D01*
X11106786Y-16147357D01*
X11106786Y-16233071D01*
X11092500Y-16261643D01*
X11078214Y-16275929D01*
X11049643Y-16290214D01*
X10992500Y-16290214D01*
X10963928Y-16275929D01*
X11278214Y-16290214D02*
X11249643Y-16275929D01*
X11235357Y-16247357D01*
X11235357Y-15990214D01*
X11521071Y-16290214D02*
X11521071Y-16133071D01*
X11506786Y-16104500D01*
X11478214Y-16090214D01*
X11421071Y-16090214D01*
X11392500Y-16104500D01*
X11521071Y-16275929D02*
X11492500Y-16290214D01*
X11421071Y-16290214D01*
X11392500Y-16275929D01*
X11378214Y-16247357D01*
X11378214Y-16218786D01*
X11392500Y-16190214D01*
X11421071Y-16175929D01*
X11492500Y-16175929D01*
X11521071Y-16161643D01*
X11621071Y-16090214D02*
X11735357Y-16090214D01*
X11663928Y-15990214D02*
X11663928Y-16247357D01*
X11678214Y-16275929D01*
X11706786Y-16290214D01*
X11735357Y-16290214D01*
X11949643Y-16275929D02*
X11921071Y-16290214D01*
X11863928Y-16290214D01*
X11835357Y-16275929D01*
X11821071Y-16247357D01*
X11821071Y-16133071D01*
X11835357Y-16104500D01*
X11863928Y-16090214D01*
X11921071Y-16090214D01*
X11949643Y-16104500D01*
X11963928Y-16133071D01*
X11963928Y-16161643D01*
X11821071Y-16190214D01*
X12221071Y-16290214D02*
X12221071Y-15990214D01*
X12221071Y-16275929D02*
X12192500Y-16290214D01*
X12135357Y-16290214D01*
X12106786Y-16275929D01*
X12092500Y-16261643D01*
X12078214Y-16233071D01*
X12078214Y-16147357D01*
X12092500Y-16118786D01*
X12106786Y-16104500D01*
X12135357Y-16090214D01*
X12192500Y-16090214D01*
X12221071Y-16104500D01*
X12335357Y-16404500D02*
X12349643Y-16390214D01*
X12378214Y-16347357D01*
X12392500Y-16318786D01*
X12406786Y-16275929D01*
X12421071Y-16204500D01*
X12421071Y-16147357D01*
X12406786Y-16075929D01*
X12392500Y-16033071D01*
X12378214Y-16004500D01*
X12349643Y-15961643D01*
X12335357Y-15947357D01*
M02*
