M48
; DRILL file {KiCad 5.1.5} date Fri 20 Mar 2020 12:43:17 AM EDT
; FORMAT={-:-/ absolute / metric / decimal}
; #@! TF.CreationDate,2020-03-20T00:43:17-04:00
; #@! TF.GenerationSoftware,Kicad,Pcbnew,5.1.5
FMAT,2
METRIC
T1C0.400
T2C1.650
T3C2.700
%
G90
G05
T1
X31.75Y-124.689
X32.537Y-129.578
X33.896Y-126.898
X33.976Y-124.76
X38.1Y-128.735
X38.1Y-127.355
X38.842Y-124.297
X38.956Y-125.545
X39.37Y-132.055
X62.23Y-124.46
X62.23Y-132.08
X63.005Y-125.73
X63.005Y-129.54
X64.135Y-130.67
X69.215Y-130.175
X70.485Y-125.73
X70.485Y-131.445
X70.485Y-132.715
T2
X33.0Y-121.075
X33.0Y-136.925
X69.85Y-120.345
X69.85Y-136.195
T3
X34.074Y-116.703
X68.801Y-140.66
T0
M30
