G04 #@! TF.GenerationSoftware,KiCad,Pcbnew,5.1.5*
G04 #@! TF.CreationDate,2020-03-20T00:43:26-04:00*
G04 #@! TF.ProjectId,M55-RJ45,4d35352d-524a-4343-952e-6b696361645f,rev?*
G04 #@! TF.SameCoordinates,Original*
G04 #@! TF.FileFunction,Soldermask,Bot*
G04 #@! TF.FilePolarity,Negative*
%FSLAX46Y46*%
G04 Gerber Fmt 4.6, Leading zero omitted, Abs format (unit mm)*
G04 Created by KiCad (PCBNEW 5.1.5) date 2020-03-20 00:43:26*
%MOMM*%
%LPD*%
G04 APERTURE LIST*
%ADD10C,0.300000*%
%ADD11C,0.100000*%
G04 APERTURE END LIST*
D10*
X70595000Y-115248571D02*
X70023571Y-115248571D01*
X70380714Y-116248571D02*
X70380714Y-114962857D01*
X70309285Y-114820000D01*
X70166428Y-114748571D01*
X70023571Y-114748571D01*
X68523571Y-115248571D02*
X68166428Y-116248571D01*
X67809285Y-115248571D01*
X66952142Y-114748571D02*
X66809285Y-114748571D01*
X66666428Y-114820000D01*
X66595000Y-114891428D01*
X66523571Y-115034285D01*
X66452142Y-115320000D01*
X66452142Y-115677142D01*
X66523571Y-115962857D01*
X66595000Y-116105714D01*
X66666428Y-116177142D01*
X66809285Y-116248571D01*
X66952142Y-116248571D01*
X67095000Y-116177142D01*
X67166428Y-116105714D01*
X67237857Y-115962857D01*
X67309285Y-115677142D01*
X67309285Y-115320000D01*
X67237857Y-115034285D01*
X67166428Y-114891428D01*
X67095000Y-114820000D01*
X66952142Y-114748571D01*
X65809285Y-116105714D02*
X65737857Y-116177142D01*
X65809285Y-116248571D01*
X65880714Y-116177142D01*
X65809285Y-116105714D01*
X65809285Y-116248571D01*
X65166428Y-114891428D02*
X65095000Y-114820000D01*
X64952142Y-114748571D01*
X64595000Y-114748571D01*
X64452142Y-114820000D01*
X64380714Y-114891428D01*
X64309285Y-115034285D01*
X64309285Y-115177142D01*
X64380714Y-115391428D01*
X65237857Y-116248571D01*
X64309285Y-116248571D01*
X62595000Y-114891428D02*
X62523571Y-114820000D01*
X62380714Y-114748571D01*
X62023571Y-114748571D01*
X61880714Y-114820000D01*
X61809285Y-114891428D01*
X61737857Y-115034285D01*
X61737857Y-115177142D01*
X61809285Y-115391428D01*
X62666428Y-116248571D01*
X61737857Y-116248571D01*
X60809285Y-114748571D02*
X60666428Y-114748571D01*
X60523571Y-114820000D01*
X60452142Y-114891428D01*
X60380714Y-115034285D01*
X60309285Y-115320000D01*
X60309285Y-115677142D01*
X60380714Y-115962857D01*
X60452142Y-116105714D01*
X60523571Y-116177142D01*
X60666428Y-116248571D01*
X60809285Y-116248571D01*
X60952142Y-116177142D01*
X61023571Y-116105714D01*
X61095000Y-115962857D01*
X61166428Y-115677142D01*
X61166428Y-115320000D01*
X61095000Y-115034285D01*
X61023571Y-114891428D01*
X60952142Y-114820000D01*
X60809285Y-114748571D01*
X59737857Y-114891428D02*
X59666428Y-114820000D01*
X59523571Y-114748571D01*
X59166428Y-114748571D01*
X59023571Y-114820000D01*
X58952142Y-114891428D01*
X58880714Y-115034285D01*
X58880714Y-115177142D01*
X58952142Y-115391428D01*
X59809285Y-116248571D01*
X58880714Y-116248571D01*
X57952142Y-114748571D02*
X57809285Y-114748571D01*
X57666428Y-114820000D01*
X57595000Y-114891428D01*
X57523571Y-115034285D01*
X57452142Y-115320000D01*
X57452142Y-115677142D01*
X57523571Y-115962857D01*
X57595000Y-116105714D01*
X57666428Y-116177142D01*
X57809285Y-116248571D01*
X57952142Y-116248571D01*
X58095000Y-116177142D01*
X58166428Y-116105714D01*
X58237857Y-115962857D01*
X58309285Y-115677142D01*
X58309285Y-115320000D01*
X58237857Y-115034285D01*
X58166428Y-114891428D01*
X58095000Y-114820000D01*
X57952142Y-114748571D01*
X56809285Y-115677142D02*
X55666428Y-115677142D01*
X54666428Y-114748571D02*
X54523571Y-114748571D01*
X54380714Y-114820000D01*
X54309285Y-114891428D01*
X54237857Y-115034285D01*
X54166428Y-115320000D01*
X54166428Y-115677142D01*
X54237857Y-115962857D01*
X54309285Y-116105714D01*
X54380714Y-116177142D01*
X54523571Y-116248571D01*
X54666428Y-116248571D01*
X54809285Y-116177142D01*
X54880714Y-116105714D01*
X54952142Y-115962857D01*
X55023571Y-115677142D01*
X55023571Y-115320000D01*
X54952142Y-115034285D01*
X54880714Y-114891428D01*
X54809285Y-114820000D01*
X54666428Y-114748571D01*
X53666428Y-114748571D02*
X52737857Y-114748571D01*
X53237857Y-115320000D01*
X53023571Y-115320000D01*
X52880714Y-115391428D01*
X52809285Y-115462857D01*
X52737857Y-115605714D01*
X52737857Y-115962857D01*
X52809285Y-116105714D01*
X52880714Y-116177142D01*
X53023571Y-116248571D01*
X53452142Y-116248571D01*
X53595000Y-116177142D01*
X53666428Y-116105714D01*
D11*
G36*
X69119413Y-139295013D02*
G01*
X69209637Y-139312959D01*
X69315247Y-139356705D01*
X69464601Y-139418569D01*
X69464602Y-139418570D01*
X69694066Y-139571892D01*
X69889208Y-139767034D01*
X69991655Y-139920357D01*
X70042531Y-139996499D01*
X70148141Y-140251464D01*
X70201980Y-140522132D01*
X70201980Y-140798108D01*
X70148141Y-141068776D01*
X70042531Y-141323741D01*
X70042530Y-141323742D01*
X69889208Y-141553206D01*
X69694066Y-141748348D01*
X69540743Y-141850795D01*
X69464601Y-141901671D01*
X69315247Y-141963535D01*
X69209637Y-142007281D01*
X69119413Y-142025227D01*
X68938968Y-142061120D01*
X68662992Y-142061120D01*
X68482547Y-142025227D01*
X68392323Y-142007281D01*
X68286713Y-141963535D01*
X68137359Y-141901671D01*
X68061217Y-141850795D01*
X67907894Y-141748348D01*
X67712752Y-141553206D01*
X67559430Y-141323742D01*
X67559429Y-141323741D01*
X67453819Y-141068776D01*
X67399980Y-140798108D01*
X67399980Y-140522132D01*
X67453819Y-140251464D01*
X67559429Y-139996499D01*
X67610305Y-139920357D01*
X67712752Y-139767034D01*
X67907894Y-139571892D01*
X68137358Y-139418570D01*
X68137359Y-139418569D01*
X68286713Y-139356705D01*
X68392323Y-139312959D01*
X68482547Y-139295013D01*
X68662992Y-139259120D01*
X68938968Y-139259120D01*
X69119413Y-139295013D01*
G37*
G36*
X33170899Y-136065832D02*
G01*
X33255520Y-136082664D01*
X33414942Y-136148699D01*
X33558418Y-136244566D01*
X33680434Y-136366582D01*
X33776301Y-136510058D01*
X33817674Y-136609942D01*
X33833517Y-136648190D01*
X33845068Y-136669801D01*
X33860614Y-136688743D01*
X33879556Y-136704288D01*
X33901166Y-136715839D01*
X33924615Y-136722952D01*
X33949001Y-136725354D01*
X33973388Y-136722952D01*
X33996836Y-136715839D01*
X34018447Y-136704288D01*
X34037389Y-136688742D01*
X34052934Y-136669800D01*
X34064485Y-136648190D01*
X34071598Y-136624741D01*
X34074000Y-136600355D01*
X34074000Y-136559000D01*
X36676000Y-136559000D01*
X36676000Y-137861000D01*
X34074000Y-137861000D01*
X34074000Y-137249645D01*
X34071598Y-137225259D01*
X34064485Y-137201810D01*
X34052934Y-137180199D01*
X34037389Y-137161257D01*
X34018447Y-137145712D01*
X33996836Y-137134161D01*
X33973387Y-137127048D01*
X33949001Y-137124646D01*
X33924615Y-137127048D01*
X33901166Y-137134161D01*
X33879555Y-137145712D01*
X33860613Y-137161257D01*
X33845068Y-137180199D01*
X33833519Y-137201807D01*
X33776301Y-137339942D01*
X33680434Y-137483418D01*
X33558418Y-137605434D01*
X33414942Y-137701301D01*
X33255520Y-137767336D01*
X33170899Y-137784168D01*
X33086280Y-137801000D01*
X32913720Y-137801000D01*
X32829101Y-137784168D01*
X32744480Y-137767336D01*
X32585058Y-137701301D01*
X32441582Y-137605434D01*
X32319566Y-137483418D01*
X32223699Y-137339942D01*
X32166481Y-137201807D01*
X32154932Y-137180199D01*
X32139386Y-137161257D01*
X32120444Y-137145712D01*
X32098834Y-137134161D01*
X32075385Y-137127048D01*
X32050999Y-137124646D01*
X32026612Y-137127048D01*
X32003164Y-137134161D01*
X31981553Y-137145712D01*
X31962611Y-137161258D01*
X31947066Y-137180200D01*
X31935515Y-137201810D01*
X31928402Y-137225259D01*
X31926000Y-137249645D01*
X31926000Y-137861000D01*
X29324000Y-137861000D01*
X29324000Y-136559000D01*
X31926000Y-136559000D01*
X31926000Y-136600355D01*
X31928402Y-136624741D01*
X31935515Y-136648190D01*
X31947066Y-136669801D01*
X31962611Y-136688743D01*
X31981553Y-136704288D01*
X32003164Y-136715839D01*
X32026613Y-136722952D01*
X32050999Y-136725354D01*
X32075385Y-136722952D01*
X32098834Y-136715839D01*
X32120445Y-136704288D01*
X32139387Y-136688743D01*
X32154932Y-136669801D01*
X32166483Y-136648190D01*
X32182326Y-136609942D01*
X32223699Y-136510058D01*
X32319566Y-136366582D01*
X32441582Y-136244566D01*
X32585058Y-136148699D01*
X32744480Y-136082664D01*
X32829101Y-136065832D01*
X32913720Y-136049000D01*
X33086280Y-136049000D01*
X33170899Y-136065832D01*
G37*
G36*
X70105520Y-135352664D02*
G01*
X70264942Y-135418699D01*
X70408418Y-135514566D01*
X70530434Y-135636582D01*
X70626301Y-135780058D01*
X70692336Y-135939480D01*
X70726000Y-136108721D01*
X70726000Y-136281279D01*
X70692336Y-136450520D01*
X70626301Y-136609942D01*
X70530434Y-136753418D01*
X70408418Y-136875434D01*
X70264942Y-136971301D01*
X70105520Y-137037336D01*
X69936280Y-137071000D01*
X69763720Y-137071000D01*
X69594480Y-137037336D01*
X69435058Y-136971301D01*
X69291582Y-136875434D01*
X69169566Y-136753418D01*
X69073699Y-136609942D01*
X69007664Y-136450520D01*
X68974000Y-136281279D01*
X68974000Y-136108721D01*
X69007664Y-135939480D01*
X69073699Y-135780058D01*
X69169566Y-135636582D01*
X69291582Y-135514566D01*
X69435058Y-135418699D01*
X69594480Y-135352664D01*
X69763720Y-135319000D01*
X69936280Y-135319000D01*
X70105520Y-135352664D01*
G37*
G36*
X31061000Y-135166000D02*
G01*
X29859000Y-135166000D01*
X29859000Y-134264000D01*
X31061000Y-134264000D01*
X31061000Y-135166000D01*
G37*
G36*
X36141000Y-135166000D02*
G01*
X34939000Y-135166000D01*
X34939000Y-134264000D01*
X36141000Y-134264000D01*
X36141000Y-135166000D01*
G37*
G36*
X36141000Y-133896000D02*
G01*
X34939000Y-133896000D01*
X34939000Y-132994000D01*
X36141000Y-132994000D01*
X36141000Y-133896000D01*
G37*
G36*
X31061000Y-133896000D02*
G01*
X29859000Y-133896000D01*
X29859000Y-132994000D01*
X31061000Y-132994000D01*
X31061000Y-133896000D01*
G37*
G36*
X61391000Y-133876000D02*
G01*
X56289000Y-133876000D01*
X56289000Y-133014000D01*
X61391000Y-133014000D01*
X61391000Y-133876000D01*
G37*
G36*
X45211000Y-133451000D02*
G01*
X40609000Y-133451000D01*
X40609000Y-124549000D01*
X45211000Y-124549000D01*
X45211000Y-133451000D01*
G37*
G36*
X36141000Y-132626000D02*
G01*
X34939000Y-132626000D01*
X34939000Y-131724000D01*
X36141000Y-131724000D01*
X36141000Y-132626000D01*
G37*
G36*
X31061000Y-132626000D02*
G01*
X29859000Y-132626000D01*
X29859000Y-131724000D01*
X31061000Y-131724000D01*
X31061000Y-132626000D01*
G37*
G36*
X61391000Y-132606000D02*
G01*
X56289000Y-132606000D01*
X56289000Y-131744000D01*
X61391000Y-131744000D01*
X61391000Y-132606000D01*
G37*
G36*
X31061000Y-131356000D02*
G01*
X29859000Y-131356000D01*
X29859000Y-130454000D01*
X31061000Y-130454000D01*
X31061000Y-131356000D01*
G37*
G36*
X36141000Y-131356000D02*
G01*
X34939000Y-131356000D01*
X34939000Y-130454000D01*
X36141000Y-130454000D01*
X36141000Y-131356000D01*
G37*
G36*
X61391000Y-131336000D02*
G01*
X56289000Y-131336000D01*
X56289000Y-130474000D01*
X61391000Y-130474000D01*
X61391000Y-131336000D01*
G37*
G36*
X36141000Y-130086000D02*
G01*
X34939000Y-130086000D01*
X34939000Y-129184000D01*
X36141000Y-129184000D01*
X36141000Y-130086000D01*
G37*
G36*
X31061000Y-130086000D02*
G01*
X29859000Y-130086000D01*
X29859000Y-129184000D01*
X31061000Y-129184000D01*
X31061000Y-130086000D01*
G37*
G36*
X61391000Y-130066000D02*
G01*
X56289000Y-130066000D01*
X56289000Y-129204000D01*
X61391000Y-129204000D01*
X61391000Y-130066000D01*
G37*
G36*
X31061000Y-128816000D02*
G01*
X29859000Y-128816000D01*
X29859000Y-127914000D01*
X31061000Y-127914000D01*
X31061000Y-128816000D01*
G37*
G36*
X36141000Y-128816000D02*
G01*
X34939000Y-128816000D01*
X34939000Y-127914000D01*
X36141000Y-127914000D01*
X36141000Y-128816000D01*
G37*
G36*
X61391000Y-128796000D02*
G01*
X56289000Y-128796000D01*
X56289000Y-127934000D01*
X61391000Y-127934000D01*
X61391000Y-128796000D01*
G37*
G36*
X36141000Y-127546000D02*
G01*
X34939000Y-127546000D01*
X34939000Y-126644000D01*
X36141000Y-126644000D01*
X36141000Y-127546000D01*
G37*
G36*
X31061000Y-127546000D02*
G01*
X29859000Y-127546000D01*
X29859000Y-126644000D01*
X31061000Y-126644000D01*
X31061000Y-127546000D01*
G37*
G36*
X61391000Y-127526000D02*
G01*
X56289000Y-127526000D01*
X56289000Y-126664000D01*
X61391000Y-126664000D01*
X61391000Y-127526000D01*
G37*
G36*
X31061000Y-126276000D02*
G01*
X29859000Y-126276000D01*
X29859000Y-125374000D01*
X31061000Y-125374000D01*
X31061000Y-126276000D01*
G37*
G36*
X36141000Y-126276000D02*
G01*
X34939000Y-126276000D01*
X34939000Y-125374000D01*
X36141000Y-125374000D01*
X36141000Y-126276000D01*
G37*
G36*
X61391000Y-126256000D02*
G01*
X56289000Y-126256000D01*
X56289000Y-125394000D01*
X61391000Y-125394000D01*
X61391000Y-126256000D01*
G37*
G36*
X31061000Y-125006000D02*
G01*
X29859000Y-125006000D01*
X29859000Y-124104000D01*
X31061000Y-124104000D01*
X31061000Y-125006000D01*
G37*
G36*
X36141000Y-125006000D02*
G01*
X34939000Y-125006000D01*
X34939000Y-124104000D01*
X36141000Y-124104000D01*
X36141000Y-125006000D01*
G37*
G36*
X61391000Y-124986000D02*
G01*
X56289000Y-124986000D01*
X56289000Y-124124000D01*
X61391000Y-124124000D01*
X61391000Y-124986000D01*
G37*
G36*
X36141000Y-123736000D02*
G01*
X34939000Y-123736000D01*
X34939000Y-122834000D01*
X36141000Y-122834000D01*
X36141000Y-123736000D01*
G37*
G36*
X31061000Y-123736000D02*
G01*
X29859000Y-123736000D01*
X29859000Y-122834000D01*
X31061000Y-122834000D01*
X31061000Y-123736000D01*
G37*
G36*
X31926000Y-120750355D02*
G01*
X31928402Y-120774741D01*
X31935515Y-120798190D01*
X31947066Y-120819801D01*
X31962611Y-120838743D01*
X31981553Y-120854288D01*
X32003164Y-120865839D01*
X32026613Y-120872952D01*
X32050999Y-120875354D01*
X32075385Y-120872952D01*
X32098834Y-120865839D01*
X32120445Y-120854288D01*
X32139387Y-120838743D01*
X32154932Y-120819801D01*
X32166483Y-120798190D01*
X32182326Y-120759942D01*
X32223699Y-120660058D01*
X32319566Y-120516582D01*
X32441582Y-120394566D01*
X32585058Y-120298699D01*
X32744480Y-120232664D01*
X32913720Y-120199000D01*
X33086280Y-120199000D01*
X33255520Y-120232664D01*
X33414942Y-120298699D01*
X33558418Y-120394566D01*
X33680434Y-120516582D01*
X33776301Y-120660058D01*
X33817674Y-120759942D01*
X33833517Y-120798190D01*
X33845068Y-120819801D01*
X33860614Y-120838743D01*
X33879556Y-120854288D01*
X33901166Y-120865839D01*
X33924615Y-120872952D01*
X33949001Y-120875354D01*
X33973388Y-120872952D01*
X33996836Y-120865839D01*
X34018447Y-120854288D01*
X34037389Y-120838742D01*
X34052934Y-120819800D01*
X34064485Y-120798190D01*
X34071598Y-120774741D01*
X34074000Y-120750355D01*
X34074000Y-120139000D01*
X36676000Y-120139000D01*
X36676000Y-121441000D01*
X34074000Y-121441000D01*
X34074000Y-121399645D01*
X34071598Y-121375259D01*
X34064485Y-121351810D01*
X34052934Y-121330199D01*
X34037389Y-121311257D01*
X34018447Y-121295712D01*
X33996836Y-121284161D01*
X33973387Y-121277048D01*
X33949001Y-121274646D01*
X33924615Y-121277048D01*
X33901166Y-121284161D01*
X33879555Y-121295712D01*
X33860613Y-121311257D01*
X33845068Y-121330199D01*
X33833519Y-121351807D01*
X33776301Y-121489942D01*
X33680434Y-121633418D01*
X33558418Y-121755434D01*
X33414942Y-121851301D01*
X33255520Y-121917336D01*
X33086280Y-121951000D01*
X32913720Y-121951000D01*
X32744480Y-121917336D01*
X32585058Y-121851301D01*
X32441582Y-121755434D01*
X32319566Y-121633418D01*
X32223699Y-121489942D01*
X32166481Y-121351807D01*
X32154932Y-121330199D01*
X32139386Y-121311257D01*
X32120444Y-121295712D01*
X32098834Y-121284161D01*
X32075385Y-121277048D01*
X32050999Y-121274646D01*
X32026612Y-121277048D01*
X32003164Y-121284161D01*
X31981553Y-121295712D01*
X31962611Y-121311258D01*
X31947066Y-121330200D01*
X31935515Y-121351810D01*
X31928402Y-121375259D01*
X31926000Y-121399645D01*
X31926000Y-121441000D01*
X29324000Y-121441000D01*
X29324000Y-120139000D01*
X31926000Y-120139000D01*
X31926000Y-120750355D01*
G37*
G36*
X70020899Y-119485832D02*
G01*
X70105520Y-119502664D01*
X70264942Y-119568699D01*
X70408418Y-119664566D01*
X70530434Y-119786582D01*
X70626301Y-119930058D01*
X70692336Y-120089480D01*
X70726000Y-120258721D01*
X70726000Y-120431279D01*
X70692336Y-120600520D01*
X70626301Y-120759942D01*
X70530434Y-120903418D01*
X70408418Y-121025434D01*
X70264942Y-121121301D01*
X70105520Y-121187336D01*
X70020899Y-121204168D01*
X69936280Y-121221000D01*
X69763720Y-121221000D01*
X69679101Y-121204168D01*
X69594480Y-121187336D01*
X69435058Y-121121301D01*
X69291582Y-121025434D01*
X69169566Y-120903418D01*
X69073699Y-120759942D01*
X69007664Y-120600520D01*
X68974000Y-120431279D01*
X68974000Y-120258721D01*
X69007664Y-120089480D01*
X69073699Y-119930058D01*
X69169566Y-119786582D01*
X69291582Y-119664566D01*
X69435058Y-119568699D01*
X69594480Y-119502664D01*
X69679101Y-119485832D01*
X69763720Y-119469000D01*
X69936280Y-119469000D01*
X70020899Y-119485832D01*
G37*
G36*
X34392533Y-115337733D02*
G01*
X34482757Y-115355679D01*
X34588367Y-115399425D01*
X34737721Y-115461289D01*
X34737722Y-115461290D01*
X34967186Y-115614612D01*
X35162328Y-115809754D01*
X35264775Y-115963077D01*
X35315651Y-116039219D01*
X35421261Y-116294184D01*
X35475100Y-116564852D01*
X35475100Y-116840828D01*
X35421261Y-117111496D01*
X35315651Y-117366461D01*
X35315650Y-117366462D01*
X35162328Y-117595926D01*
X34967186Y-117791068D01*
X34813863Y-117893515D01*
X34737721Y-117944391D01*
X34588367Y-118006255D01*
X34482757Y-118050001D01*
X34392533Y-118067947D01*
X34212088Y-118103840D01*
X33936112Y-118103840D01*
X33755667Y-118067947D01*
X33665443Y-118050001D01*
X33559833Y-118006255D01*
X33410479Y-117944391D01*
X33334337Y-117893515D01*
X33181014Y-117791068D01*
X32985872Y-117595926D01*
X32832550Y-117366462D01*
X32832549Y-117366461D01*
X32726939Y-117111496D01*
X32673100Y-116840828D01*
X32673100Y-116564852D01*
X32726939Y-116294184D01*
X32832549Y-116039219D01*
X32883425Y-115963077D01*
X32985872Y-115809754D01*
X33181014Y-115614612D01*
X33410478Y-115461290D01*
X33410479Y-115461289D01*
X33559833Y-115399425D01*
X33665443Y-115355679D01*
X33755667Y-115337733D01*
X33936112Y-115301840D01*
X34212088Y-115301840D01*
X34392533Y-115337733D01*
G37*
M02*
