G04 #@! TF.GenerationSoftware,KiCad,Pcbnew,5.1.5*
G04 #@! TF.CreationDate,2020-03-20T00:43:26-04:00*
G04 #@! TF.ProjectId,M55-RJ45,4d35352d-524a-4343-952e-6b696361645f,rev?*
G04 #@! TF.SameCoordinates,Original*
G04 #@! TF.FileFunction,Copper,L2,Bot*
G04 #@! TF.FilePolarity,Positive*
%FSLAX46Y46*%
G04 Gerber Fmt 4.6, Leading zero omitted, Abs format (unit mm)*
G04 Created by KiCad (PCBNEW 5.1.5) date 2020-03-20 00:43:26*
%MOMM*%
%LPD*%
G04 APERTURE LIST*
%ADD10C,0.300000*%
%ADD11R,1.100000X0.800000*%
%ADD12R,2.500000X1.200000*%
%ADD13R,4.500000X8.800000*%
%ADD14R,5.000000X0.760000*%
%ADD15C,0.800000*%
%ADD16C,0.127000*%
G04 APERTURE END LIST*
D10*
X70595000Y-115248571D02*
X70023571Y-115248571D01*
X70380714Y-116248571D02*
X70380714Y-114962857D01*
X70309285Y-114820000D01*
X70166428Y-114748571D01*
X70023571Y-114748571D01*
X68523571Y-115248571D02*
X68166428Y-116248571D01*
X67809285Y-115248571D01*
X66952142Y-114748571D02*
X66809285Y-114748571D01*
X66666428Y-114820000D01*
X66595000Y-114891428D01*
X66523571Y-115034285D01*
X66452142Y-115320000D01*
X66452142Y-115677142D01*
X66523571Y-115962857D01*
X66595000Y-116105714D01*
X66666428Y-116177142D01*
X66809285Y-116248571D01*
X66952142Y-116248571D01*
X67095000Y-116177142D01*
X67166428Y-116105714D01*
X67237857Y-115962857D01*
X67309285Y-115677142D01*
X67309285Y-115320000D01*
X67237857Y-115034285D01*
X67166428Y-114891428D01*
X67095000Y-114820000D01*
X66952142Y-114748571D01*
X65809285Y-116105714D02*
X65737857Y-116177142D01*
X65809285Y-116248571D01*
X65880714Y-116177142D01*
X65809285Y-116105714D01*
X65809285Y-116248571D01*
X65166428Y-114891428D02*
X65095000Y-114820000D01*
X64952142Y-114748571D01*
X64595000Y-114748571D01*
X64452142Y-114820000D01*
X64380714Y-114891428D01*
X64309285Y-115034285D01*
X64309285Y-115177142D01*
X64380714Y-115391428D01*
X65237857Y-116248571D01*
X64309285Y-116248571D01*
X62595000Y-114891428D02*
X62523571Y-114820000D01*
X62380714Y-114748571D01*
X62023571Y-114748571D01*
X61880714Y-114820000D01*
X61809285Y-114891428D01*
X61737857Y-115034285D01*
X61737857Y-115177142D01*
X61809285Y-115391428D01*
X62666428Y-116248571D01*
X61737857Y-116248571D01*
X60809285Y-114748571D02*
X60666428Y-114748571D01*
X60523571Y-114820000D01*
X60452142Y-114891428D01*
X60380714Y-115034285D01*
X60309285Y-115320000D01*
X60309285Y-115677142D01*
X60380714Y-115962857D01*
X60452142Y-116105714D01*
X60523571Y-116177142D01*
X60666428Y-116248571D01*
X60809285Y-116248571D01*
X60952142Y-116177142D01*
X61023571Y-116105714D01*
X61095000Y-115962857D01*
X61166428Y-115677142D01*
X61166428Y-115320000D01*
X61095000Y-115034285D01*
X61023571Y-114891428D01*
X60952142Y-114820000D01*
X60809285Y-114748571D01*
X59737857Y-114891428D02*
X59666428Y-114820000D01*
X59523571Y-114748571D01*
X59166428Y-114748571D01*
X59023571Y-114820000D01*
X58952142Y-114891428D01*
X58880714Y-115034285D01*
X58880714Y-115177142D01*
X58952142Y-115391428D01*
X59809285Y-116248571D01*
X58880714Y-116248571D01*
X57952142Y-114748571D02*
X57809285Y-114748571D01*
X57666428Y-114820000D01*
X57595000Y-114891428D01*
X57523571Y-115034285D01*
X57452142Y-115320000D01*
X57452142Y-115677142D01*
X57523571Y-115962857D01*
X57595000Y-116105714D01*
X57666428Y-116177142D01*
X57809285Y-116248571D01*
X57952142Y-116248571D01*
X58095000Y-116177142D01*
X58166428Y-116105714D01*
X58237857Y-115962857D01*
X58309285Y-115677142D01*
X58309285Y-115320000D01*
X58237857Y-115034285D01*
X58166428Y-114891428D01*
X58095000Y-114820000D01*
X57952142Y-114748571D01*
X56809285Y-115677142D02*
X55666428Y-115677142D01*
X54666428Y-114748571D02*
X54523571Y-114748571D01*
X54380714Y-114820000D01*
X54309285Y-114891428D01*
X54237857Y-115034285D01*
X54166428Y-115320000D01*
X54166428Y-115677142D01*
X54237857Y-115962857D01*
X54309285Y-116105714D01*
X54380714Y-116177142D01*
X54523571Y-116248571D01*
X54666428Y-116248571D01*
X54809285Y-116177142D01*
X54880714Y-116105714D01*
X54952142Y-115962857D01*
X55023571Y-115677142D01*
X55023571Y-115320000D01*
X54952142Y-115034285D01*
X54880714Y-114891428D01*
X54809285Y-114820000D01*
X54666428Y-114748571D01*
X53666428Y-114748571D02*
X52737857Y-114748571D01*
X53237857Y-115320000D01*
X53023571Y-115320000D01*
X52880714Y-115391428D01*
X52809285Y-115462857D01*
X52737857Y-115605714D01*
X52737857Y-115962857D01*
X52809285Y-116105714D01*
X52880714Y-116177142D01*
X53023571Y-116248571D01*
X53452142Y-116248571D01*
X53595000Y-116177142D01*
X53666428Y-116105714D01*
D11*
X35540000Y-134715000D03*
X30460000Y-134715000D03*
X35540000Y-133445000D03*
X30460000Y-133445000D03*
X35540000Y-132175000D03*
X30460000Y-132175000D03*
X35540000Y-130905000D03*
X30460000Y-130905000D03*
X35540000Y-129635000D03*
X30460000Y-129635000D03*
X35540000Y-128365000D03*
X30460000Y-128365000D03*
X35540000Y-127095000D03*
X30460000Y-127095000D03*
X35540000Y-125825000D03*
X30460000Y-125825000D03*
X35540000Y-124555000D03*
X30460000Y-124555000D03*
X35540000Y-123285000D03*
X30460000Y-123285000D03*
D12*
X35375000Y-120790000D03*
X30625000Y-120790000D03*
X35375000Y-137210000D03*
X30625000Y-137210000D03*
D13*
X42910000Y-129000000D03*
D14*
X58840000Y-133445000D03*
X58840000Y-132175000D03*
X58840000Y-130905000D03*
X58840000Y-129635000D03*
X58840000Y-128365000D03*
X58840000Y-127095000D03*
X58840000Y-125825000D03*
X58840000Y-124555000D03*
D15*
X39370000Y-132054600D03*
X38841680Y-124297440D03*
X38956189Y-125545425D03*
X32537400Y-129578100D03*
X33975949Y-124759711D03*
X38100002Y-127354906D03*
X38099996Y-128734510D03*
X33896300Y-126898400D03*
X31750000Y-124688600D03*
X70485000Y-132715000D03*
X62230000Y-124460000D03*
X62230000Y-132080000D03*
X70485000Y-131445000D03*
X63005000Y-129540000D03*
X64134990Y-130669990D03*
X69215000Y-130175000D03*
X70485000Y-125730000D03*
X63005000Y-125730000D03*
D16*
X30555000Y-123190000D02*
X30460000Y-123285000D01*
X35540000Y-123285000D02*
X30460000Y-123285000D01*
X35540000Y-123285000D02*
X37829240Y-123285000D01*
X40133219Y-131291381D02*
X40133219Y-125588979D01*
X39370000Y-132054600D02*
X40133219Y-131291381D01*
X39241679Y-124697439D02*
X38841680Y-124297440D01*
X40133219Y-125588979D02*
X39241679Y-124697439D01*
X37829240Y-123285000D02*
X38841680Y-124297440D01*
X30460000Y-128365000D02*
X30460000Y-127095000D01*
X31260000Y-128365000D02*
X30460000Y-128365000D01*
X35540000Y-128365000D02*
X31260000Y-128365000D01*
X35540000Y-128365000D02*
X36539996Y-128365000D01*
X38610540Y-129509520D02*
X38956189Y-129163871D01*
X37684516Y-129509520D02*
X38610540Y-129509520D01*
X36539996Y-128365000D02*
X37684516Y-129509520D01*
X38956189Y-129163871D02*
X38956189Y-126111110D01*
X38956189Y-126111110D02*
X38956189Y-125545425D01*
X32537400Y-130143785D02*
X32537400Y-129578100D01*
X30460000Y-132175000D02*
X31260000Y-132175000D01*
X31260000Y-132175000D02*
X32537400Y-130897600D01*
X32537400Y-130897600D02*
X32537400Y-130143785D01*
X34180660Y-124555000D02*
X33975949Y-124759711D01*
X35540000Y-124555000D02*
X34180660Y-124555000D01*
X36570096Y-125825000D02*
X38100002Y-127354906D01*
X35540000Y-125825000D02*
X36570096Y-125825000D01*
X35654425Y-127209425D02*
X35540000Y-127095000D01*
X36460486Y-127095000D02*
X37699997Y-128334511D01*
X35540000Y-127095000D02*
X36460486Y-127095000D01*
X37699997Y-128334511D02*
X38099996Y-128734510D01*
X32822900Y-125825000D02*
X33896300Y-126898400D01*
X30460000Y-125825000D02*
X32822900Y-125825000D01*
X30581859Y-124433141D02*
X30460000Y-124555000D01*
X30593600Y-124688600D02*
X30460000Y-124555000D01*
X31750000Y-124688600D02*
X30593600Y-124688600D01*
X58840000Y-133445000D02*
X69755000Y-133445000D01*
X70085001Y-133114999D02*
X70485000Y-132715000D01*
X69755000Y-133445000D02*
X70085001Y-133114999D01*
X58840000Y-124555000D02*
X62135000Y-124555000D01*
X62135000Y-124555000D02*
X62230000Y-124460000D01*
X62135000Y-132175000D02*
X62230000Y-132080000D01*
X58840000Y-132175000D02*
X62135000Y-132175000D01*
X62987994Y-131445000D02*
X70485000Y-131445000D01*
X58840000Y-130905000D02*
X62447994Y-130905000D01*
X62447994Y-130905000D02*
X62987994Y-131445000D01*
X58840000Y-129635000D02*
X62910000Y-129635000D01*
X62910000Y-129635000D02*
X63005000Y-129540000D01*
X63200154Y-128365000D02*
X64134990Y-129299836D01*
X58840000Y-128365000D02*
X63200154Y-128365000D01*
X64134990Y-130104305D02*
X64134990Y-130669990D01*
X64134990Y-129299836D02*
X64134990Y-130104305D01*
X69120000Y-127095000D02*
X70485000Y-125730000D01*
X69215000Y-127000000D02*
X70485000Y-125730000D01*
X69215000Y-130175000D02*
X69215000Y-127000000D01*
X58840000Y-127095000D02*
X69120000Y-127095000D01*
X58840000Y-125825000D02*
X62910000Y-125825000D01*
X62910000Y-125825000D02*
X63005000Y-125730000D01*
M02*
