solid OpenSCAD_Model
  facet normal 1 -0 0
    outer loop
      vertex 8.5 2 2
      vertex 8.5 8.5 -2
      vertex 8.5 8.5 2
    endloop
  endfacet
  facet normal 1 0 0
    outer loop
      vertex 8.5 8.5 -2
      vertex 8.5 2 2
      vertex 8.5 2 -2
    endloop
  endfacet
  facet normal 1 -0 0
    outer loop
      vertex 8.5 -8.5 2
      vertex 8.5 -2 -2
      vertex 8.5 -2 2
    endloop
  endfacet
  facet normal 1 0 0
    outer loop
      vertex 8.5 -2 -2
      vertex 8.5 -8.5 2
      vertex 8.5 -8.5 -2
    endloop
  endfacet
  facet normal -0 0 1
    outer loop
      vertex -8.84549 -0.475528 2
      vertex -8.5 -2 2
      vertex -8.5 0 2
    endloop
  endfacet
  facet normal 0 0 1
    outer loop
      vertex -9.40451 -0.293892 2
      vertex -8.5 -2 2
      vertex -8.84549 -0.475528 2
    endloop
  endfacet
  facet normal 0 0 1
    outer loop
      vertex -12 -2 2
      vertex -9.40451 -0.293892 2
      vertex -12 2 2
    endloop
  endfacet
  facet normal 0 0 1
    outer loop
      vertex -9.40451 -0.293892 2
      vertex -12 -2 2
      vertex -8.5 -2 2
    endloop
  endfacet
  facet normal 0 0 1
    outer loop
      vertex -8.5 2 2
      vertex -8.84549 0.475528 2
      vertex -8.5 0 2
    endloop
  endfacet
  facet normal 0 0 1
    outer loop
      vertex -8.5 2 2
      vertex -9.40451 0.293892 2
      vertex -8.84549 0.475528 2
    endloop
  endfacet
  facet normal 0 0 1
    outer loop
      vertex -9.40451 0.293892 2
      vertex -12 2 2
      vertex -9.40451 -0.293892 2
    endloop
  endfacet
  facet normal -0 0 1
    outer loop
      vertex -12 2 2
      vertex -9.40451 0.293892 2
      vertex -8.5 2 2
    endloop
  endfacet
  facet normal -0 0 1
    outer loop
      vertex 7.5 7 2
      vertex 8.5 2 2
      vertex 8.5 8.5 2
    endloop
  endfacet
  facet normal -0 0 1
    outer loop
      vertex 7.15451 6.52447 2
      vertex 8.5 2 2
      vertex 7.5 7 2
    endloop
  endfacet
  facet normal -0 0 1
    outer loop
      vertex 6.5 6.5 2
      vertex 8.5 2 2
      vertex 7.15451 6.52447 2
    endloop
  endfacet
  facet normal 0 0 1
    outer loop
      vertex 8.5 8.5 2
      vertex 7.15451 7.47553 2
      vertex 7.5 7 2
    endloop
  endfacet
  facet normal 0 0 1
    outer loop
      vertex 8.5 8.5 2
      vertex 6.59549 7.29389 2
      vertex 7.15451 7.47553 2
    endloop
  endfacet
  facet normal 0 0 1
    outer loop
      vertex 6.59549 7.29389 2
      vertex 6.5 6.5 2
      vertex 6.59549 6.70611 2
    endloop
  endfacet
  facet normal 0 0 1
    outer loop
      vertex 6.59549 7.29389 2
      vertex -6.5 6.5 2
      vertex 6.5 6.5 2
    endloop
  endfacet
  facet normal -0 0 1
    outer loop
      vertex -8.5 8.5 2
      vertex 6.59549 7.29389 2
      vertex 8.5 8.5 2
    endloop
  endfacet
  facet normal -0 0 1
    outer loop
      vertex -8.5 0 2
      vertex -6.5 -6.5 2
      vertex -6.5 6.5 2
    endloop
  endfacet
  facet normal -0 0 1
    outer loop
      vertex -8.5 -2 2
      vertex -6.5 -6.5 2
      vertex -8.5 0 2
    endloop
  endfacet
  facet normal 0 0 1
    outer loop
      vertex -6.5 -6.5 2
      vertex -6.84549 -6.52447 2
      vertex -6.5 -7 2
    endloop
  endfacet
  facet normal 0 0 1
    outer loop
      vertex -8.5 0 2
      vertex -6.5 6.5 2
      vertex -8.5 2 2
    endloop
  endfacet
  facet normal 0 0 1
    outer loop
      vertex -8.5 2 2
      vertex -6.5 6.5 2
      vertex -8.5 8.5 2
    endloop
  endfacet
  facet normal 0 0 1
    outer loop
      vertex 6.59549 7.29389 2
      vertex -8.5 8.5 2
      vertex -6.5 6.5 2
    endloop
  endfacet
  facet normal 0 0 1
    outer loop
      vertex 8.5 2 2
      vertex 6.5 6.5 2
      vertex 8.5 -2 2
    endloop
  endfacet
  facet normal 0 0 1
    outer loop
      vertex 6.5 6.5 2
      vertex 7.15451 6.52447 2
      vertex 6.59549 6.70611 2
    endloop
  endfacet
  facet normal 0 0 1
    outer loop
      vertex 8.5 -2 2
      vertex 6.5 6.5 2
      vertex 6.5 -6.5 2
    endloop
  endfacet
  facet normal 0 0 1
    outer loop
      vertex 8.5 -2 2
      vertex 6.5 -6.5 2
      vertex 8.5 -8.5 2
    endloop
  endfacet
  facet normal 0 0 1
    outer loop
      vertex -6.5 -7 2
      vertex 6.5 -6.5 2
      vertex -6.5 -6.5 2
    endloop
  endfacet
  facet normal 0 0 1
    outer loop
      vertex -6.84549 -7.47553 2
      vertex 6.5 -6.5 2
      vertex -6.5 -7 2
    endloop
  endfacet
  facet normal 0 0 1
    outer loop
      vertex 6.5 -6.5 2
      vertex -6.84549 -7.47553 2
      vertex 8.5 -8.5 2
    endloop
  endfacet
  facet normal 0 0 1
    outer loop
      vertex -6.5 -6.5 2
      vertex -8.5 -2 2
      vertex -6.84549 -6.52447 2
    endloop
  endfacet
  facet normal 0 0 1
    outer loop
      vertex -6.84549 -6.52447 2
      vertex -8.5 -2 2
      vertex -7.40451 -6.70611 2
    endloop
  endfacet
  facet normal 0 0 1
    outer loop
      vertex -8.5 -8.5 2
      vertex -7.40451 -6.70611 2
      vertex -8.5 -2 2
    endloop
  endfacet
  facet normal 0 0 1
    outer loop
      vertex -6.84549 -7.47553 2
      vertex -8.5 -8.5 2
      vertex 8.5 -8.5 2
    endloop
  endfacet
  facet normal 0 0 1
    outer loop
      vertex -7.40451 -7.29389 2
      vertex -8.5 -8.5 2
      vertex -6.84549 -7.47553 2
    endloop
  endfacet
  facet normal 0 0 1
    outer loop
      vertex -7.40451 -6.70611 2
      vertex -8.5 -8.5 2
      vertex -7.40451 -7.29389 2
    endloop
  endfacet
  facet normal 0 0 1
    outer loop
      vertex 12 2 2
      vertex 9.5 0 2
      vertex 12 -2 2
    endloop
  endfacet
  facet normal 0 0 1
    outer loop
      vertex 12 2 2
      vertex 9.15451 0.475528 2
      vertex 9.5 0 2
    endloop
  endfacet
  facet normal -0 0 1
    outer loop
      vertex 8.5 2 2
      vertex 9.15451 0.475528 2
      vertex 12 2 2
    endloop
  endfacet
  facet normal 0 0 1
    outer loop
      vertex 8.59549 0.293892 2
      vertex 8.5 2 2
      vertex 8.59549 -0.293892 2
    endloop
  endfacet
  facet normal 0 0 1
    outer loop
      vertex 9.15451 0.475528 2
      vertex 8.5 2 2
      vertex 8.59549 0.293892 2
    endloop
  endfacet
  facet normal -0 0 1
    outer loop
      vertex 9.15451 -0.475528 2
      vertex 12 -2 2
      vertex 9.5 0 2
    endloop
  endfacet
  facet normal 0 0 1
    outer loop
      vertex 8.5 -2 2
      vertex 9.15451 -0.475528 2
      vertex 8.59549 -0.293892 2
    endloop
  endfacet
  facet normal 0 0 1
    outer loop
      vertex 9.15451 -0.475528 2
      vertex 8.5 -2 2
      vertex 12 -2 2
    endloop
  endfacet
  facet normal 0 0 1
    outer loop
      vertex 8.5 -2 2
      vertex 8.59549 -0.293892 2
      vertex 8.5 2 2
    endloop
  endfacet
  facet normal 0 0 -1
    outer loop
      vertex -8.84549 0.475528 -2
      vertex -8.5 2 -2
      vertex -8.5 0 -2
    endloop
  endfacet
  facet normal 0 0 -1
    outer loop
      vertex -9.40451 0.293892 -2
      vertex -8.5 2 -2
      vertex -8.84549 0.475528 -2
    endloop
  endfacet
  facet normal 0 0 -1
    outer loop
      vertex -12 2 -2
      vertex -9.40451 0.293892 -2
      vertex -12 -2 -2
    endloop
  endfacet
  facet normal 0 0 -1
    outer loop
      vertex -9.40451 0.293892 -2
      vertex -12 2 -2
      vertex -8.5 2 -2
    endloop
  endfacet
  facet normal 0 0 -1
    outer loop
      vertex -8.5 -2 -2
      vertex -8.84549 -0.475528 -2
      vertex -8.5 0 -2
    endloop
  endfacet
  facet normal 0 0 -1
    outer loop
      vertex -8.5 -2 -2
      vertex -9.40451 -0.293892 -2
      vertex -8.84549 -0.475528 -2
    endloop
  endfacet
  facet normal -0 0 -1
    outer loop
      vertex -9.40451 -0.293892 -2
      vertex -12 -2 -2
      vertex -9.40451 0.293892 -2
    endloop
  endfacet
  facet normal 0 0 -1
    outer loop
      vertex -12 -2 -2
      vertex -9.40451 -0.293892 -2
      vertex -8.5 -2 -2
    endloop
  endfacet
  facet normal 0 0 -1
    outer loop
      vertex 6.5 -6.5 -2
      vertex 8.5 -2 -2
      vertex 8.5 -8.5 -2
    endloop
  endfacet
  facet normal -0 0 -1
    outer loop
      vertex 8.5 -2 -2
      vertex 6.5 -6.5 -2
      vertex 8.5 2 -2
    endloop
  endfacet
  facet normal 0 0 -1
    outer loop
      vertex 6.5 6.5 -2
      vertex 8.5 2 -2
      vertex 6.5 -6.5 -2
    endloop
  endfacet
  facet normal 0 0 -1
    outer loop
      vertex 8.5 -8.5 -2
      vertex -6.5 -6.5 -2
      vertex 6.5 -6.5 -2
    endloop
  endfacet
  facet normal 0 0 -1
    outer loop
      vertex -8.5 -2 -2
      vertex -6.5 -6.5 -2
      vertex -8.5 -8.5 -2
    endloop
  endfacet
  facet normal 0 0 -1
    outer loop
      vertex -8.5 -8.5 -2
      vertex -6.5 -6.5 -2
      vertex 8.5 -8.5 -2
    endloop
  endfacet
  facet normal 0 0 -1
    outer loop
      vertex 8.5 2 -2
      vertex 6.5 6.5 -2
      vertex 8.5 8.5 -2
    endloop
  endfacet
  facet normal 0 0 -1
    outer loop
      vertex -6.5 6.5 -2
      vertex 8.5 8.5 -2
      vertex 6.5 6.5 -2
    endloop
  endfacet
  facet normal 0 0 -1
    outer loop
      vertex -8.5 0 -2
      vertex -6.5 -6.5 -2
      vertex -8.5 -2 -2
    endloop
  endfacet
  facet normal 0 0 -1
    outer loop
      vertex -6.5 -6.5 -2
      vertex -8.5 0 -2
      vertex -6.5 6.5 -2
    endloop
  endfacet
  facet normal 0 0 -1
    outer loop
      vertex -8.5 2 -2
      vertex -6.5 6.5 -2
      vertex -8.5 0 -2
    endloop
  endfacet
  facet normal 0 0 -1
    outer loop
      vertex -6.5 6.5 -2
      vertex -8.5 8.5 -2
      vertex 8.5 8.5 -2
    endloop
  endfacet
  facet normal 0 0 -1
    outer loop
      vertex -8.5 8.5 -2
      vertex -6.5 6.5 -2
      vertex -8.5 2 -2
    endloop
  endfacet
  facet normal 0 0 -1
    outer loop
      vertex 12 -2 -2
      vertex 9.5 0 -2
      vertex 12 2 -2
    endloop
  endfacet
  facet normal 0 0 -1
    outer loop
      vertex 12 -2 -2
      vertex 9.15451 -0.475528 -2
      vertex 9.5 0 -2
    endloop
  endfacet
  facet normal 0 0 -1
    outer loop
      vertex 8.5 -2 -2
      vertex 9.15451 -0.475528 -2
      vertex 12 -2 -2
    endloop
  endfacet
  facet normal -0 0 -1
    outer loop
      vertex 8.59549 -0.293892 -2
      vertex 8.5 -2 -2
      vertex 8.59549 0.293892 -2
    endloop
  endfacet
  facet normal -0 0 -1
    outer loop
      vertex 9.15451 -0.475528 -2
      vertex 8.5 -2 -2
      vertex 8.59549 -0.293892 -2
    endloop
  endfacet
  facet normal 0 0 -1
    outer loop
      vertex 9.15451 0.475528 -2
      vertex 12 2 -2
      vertex 9.5 0 -2
    endloop
  endfacet
  facet normal 0 0 -1
    outer loop
      vertex 8.5 2 -2
      vertex 9.15451 0.475528 -2
      vertex 8.59549 0.293892 -2
    endloop
  endfacet
  facet normal 0 0 -1
    outer loop
      vertex 9.15451 0.475528 -2
      vertex 8.5 2 -2
      vertex 12 2 -2
    endloop
  endfacet
  facet normal 0 0 -1
    outer loop
      vertex 8.5 2 -2
      vertex 8.59549 0.293892 -2
      vertex 8.5 -2 -2
    endloop
  endfacet
  facet normal -1 0 0
    outer loop
      vertex -8.5 2 -2
      vertex -8.5 8.5 2
      vertex -8.5 8.5 -2
    endloop
  endfacet
  facet normal -1 -0 0
    outer loop
      vertex -8.5 8.5 2
      vertex -8.5 2 -2
      vertex -8.5 2 2
    endloop
  endfacet
  facet normal -1 0 0
    outer loop
      vertex -8.5 -8.5 -2
      vertex -8.5 -2 2
      vertex -8.5 -2 -2
    endloop
  endfacet
  facet normal -1 -0 0
    outer loop
      vertex -8.5 -2 2
      vertex -8.5 -8.5 -2
      vertex -8.5 -8.5 2
    endloop
  endfacet
  facet normal 0 1 -0
    outer loop
      vertex 8.5 8.5 -2
      vertex -8.5 8.5 2
      vertex 8.5 8.5 2
    endloop
  endfacet
  facet normal 0 1 0
    outer loop
      vertex -8.5 8.5 2
      vertex 8.5 8.5 -2
      vertex -8.5 8.5 -2
    endloop
  endfacet
  facet normal 0 -1 0
    outer loop
      vertex -8.5 -8.5 -2
      vertex 8.5 -8.5 2
      vertex -8.5 -8.5 2
    endloop
  endfacet
  facet normal 0 -1 -0
    outer loop
      vertex 8.5 -8.5 2
      vertex -8.5 -8.5 -2
      vertex 8.5 -8.5 -2
    endloop
  endfacet
  facet normal -1 0 0
    outer loop
      vertex 6.5 -6.5 -2
      vertex 6.5 6.5 2
      vertex 6.5 6.5 -2
    endloop
  endfacet
  facet normal -1 -0 0
    outer loop
      vertex 6.5 6.5 2
      vertex 6.5 -6.5 -2
      vertex 6.5 -6.5 2
    endloop
  endfacet
  facet normal 1 -0 0
    outer loop
      vertex -6.5 -6.5 2
      vertex -6.5 6.5 -2
      vertex -6.5 6.5 2
    endloop
  endfacet
  facet normal 1 0 0
    outer loop
      vertex -6.5 6.5 -2
      vertex -6.5 -6.5 2
      vertex -6.5 -6.5 -2
    endloop
  endfacet
  facet normal 0 -1 0
    outer loop
      vertex -6.5 6.5 -2
      vertex 6.5 6.5 2
      vertex -6.5 6.5 2
    endloop
  endfacet
  facet normal 0 -1 -0
    outer loop
      vertex 6.5 6.5 2
      vertex -6.5 6.5 -2
      vertex 6.5 6.5 -2
    endloop
  endfacet
  facet normal 0 1 -0
    outer loop
      vertex 6.5 -6.5 -2
      vertex -6.5 -6.5 2
      vertex 6.5 -6.5 2
    endloop
  endfacet
  facet normal 0 1 0
    outer loop
      vertex -6.5 -6.5 2
      vertex 6.5 -6.5 -2
      vertex -6.5 -6.5 -2
    endloop
  endfacet
  facet normal -0.309022 -0.951055 0
    outer loop
      vertex 6.59549 6.70611 2
      vertex 7.15451 6.52447 4
      vertex 6.59549 6.70611 4
    endloop
  endfacet
  facet normal -0.309022 -0.951055 -0
    outer loop
      vertex 7.15451 6.52447 4
      vertex 6.59549 6.70611 2
      vertex 7.15451 6.52447 2
    endloop
  endfacet
  facet normal -0.309022 0.951055 0
    outer loop
      vertex 7.15451 7.47553 2
      vertex 6.59549 7.29389 4
      vertex 7.15451 7.47553 4
    endloop
  endfacet
  facet normal -0.309022 0.951055 0
    outer loop
      vertex 6.59549 7.29389 4
      vertex 7.15451 7.47553 2
      vertex 6.59549 7.29389 2
    endloop
  endfacet
  facet normal 0.809019 0.587782 0
    outer loop
      vertex 7.5 7 4
      vertex 7.15451 7.47553 2
      vertex 7.15451 7.47553 4
    endloop
  endfacet
  facet normal 0.809019 0.587782 0
    outer loop
      vertex 7.15451 7.47553 2
      vertex 7.5 7 4
      vertex 7.5 7 2
    endloop
  endfacet
  facet normal -1 0 0
    outer loop
      vertex 6.59549 6.70611 2
      vertex 6.59549 7.29389 4
      vertex 6.59549 7.29389 2
    endloop
  endfacet
  facet normal -1 -0 0
    outer loop
      vertex 6.59549 7.29389 4
      vertex 6.59549 6.70611 2
      vertex 6.59549 6.70611 4
    endloop
  endfacet
  facet normal 0 0 1
    outer loop
      vertex 7.15451 7.47553 4
      vertex 7.15451 6.52447 4
      vertex 7.5 7 4
    endloop
  endfacet
  facet normal -0 0 1
    outer loop
      vertex 6.59549 7.29389 4
      vertex 7.15451 6.52447 4
      vertex 7.15451 7.47553 4
    endloop
  endfacet
  facet normal 0 0 1
    outer loop
      vertex 7.15451 6.52447 4
      vertex 6.59549 7.29389 4
      vertex 6.59549 6.70611 4
    endloop
  endfacet
  facet normal 0.809019 -0.587782 0
    outer loop
      vertex 7.15451 6.52447 4
      vertex 7.5 7 2
      vertex 7.5 7 4
    endloop
  endfacet
  facet normal 0.809019 -0.587782 0
    outer loop
      vertex 7.5 7 2
      vertex 7.15451 6.52447 4
      vertex 7.15451 6.52447 2
    endloop
  endfacet
  facet normal -0.309022 -0.951055 0
    outer loop
      vertex -7.40451 -7.29389 2
      vertex -6.84549 -7.47553 4
      vertex -7.40451 -7.29389 4
    endloop
  endfacet
  facet normal -0.309022 -0.951055 -0
    outer loop
      vertex -6.84549 -7.47553 4
      vertex -7.40451 -7.29389 2
      vertex -6.84549 -7.47553 2
    endloop
  endfacet
  facet normal -0.309022 0.951055 0
    outer loop
      vertex -6.84549 -6.52447 2
      vertex -7.40451 -6.70611 4
      vertex -6.84549 -6.52447 4
    endloop
  endfacet
  facet normal -0.309022 0.951055 0
    outer loop
      vertex -7.40451 -6.70611 4
      vertex -6.84549 -6.52447 2
      vertex -7.40451 -6.70611 2
    endloop
  endfacet
  facet normal 0.809019 0.587782 0
    outer loop
      vertex -6.5 -7 4
      vertex -6.84549 -6.52447 2
      vertex -6.84549 -6.52447 4
    endloop
  endfacet
  facet normal 0.809019 0.587782 0
    outer loop
      vertex -6.84549 -6.52447 2
      vertex -6.5 -7 4
      vertex -6.5 -7 2
    endloop
  endfacet
  facet normal -1 0 0
    outer loop
      vertex -7.40451 -7.29389 2
      vertex -7.40451 -6.70611 4
      vertex -7.40451 -6.70611 2
    endloop
  endfacet
  facet normal -1 -0 0
    outer loop
      vertex -7.40451 -6.70611 4
      vertex -7.40451 -7.29389 2
      vertex -7.40451 -7.29389 4
    endloop
  endfacet
  facet normal 0 0 1
    outer loop
      vertex -6.84549 -6.52447 4
      vertex -6.84549 -7.47553 4
      vertex -6.5 -7 4
    endloop
  endfacet
  facet normal -0 0 1
    outer loop
      vertex -7.40451 -6.70611 4
      vertex -6.84549 -7.47553 4
      vertex -6.84549 -6.52447 4
    endloop
  endfacet
  facet normal 0 0 1
    outer loop
      vertex -6.84549 -7.47553 4
      vertex -7.40451 -6.70611 4
      vertex -7.40451 -7.29389 4
    endloop
  endfacet
  facet normal 0.809019 -0.587782 0
    outer loop
      vertex -6.84549 -7.47553 4
      vertex -6.5 -7 2
      vertex -6.5 -7 4
    endloop
  endfacet
  facet normal 0.809019 -0.587782 0
    outer loop
      vertex -6.5 -7 2
      vertex -6.84549 -7.47553 4
      vertex -6.84549 -7.47553 2
    endloop
  endfacet
  facet normal 1 -0 0
    outer loop
      vertex 12 -2 2
      vertex 12 2 -2
      vertex 12 2 2
    endloop
  endfacet
  facet normal 1 0 0
    outer loop
      vertex 12 2 -2
      vertex 12 -2 2
      vertex 12 -2 -2
    endloop
  endfacet
  facet normal 0 1 -0
    outer loop
      vertex 12 2 -2
      vertex 8.5 2 2
      vertex 12 2 2
    endloop
  endfacet
  facet normal 0 1 0
    outer loop
      vertex 8.5 2 2
      vertex 12 2 -2
      vertex 8.5 2 -2
    endloop
  endfacet
  facet normal 0 -1 0
    outer loop
      vertex 8.5 -2 -2
      vertex 12 -2 2
      vertex 8.5 -2 2
    endloop
  endfacet
  facet normal 0 -1 -0
    outer loop
      vertex 12 -2 2
      vertex 8.5 -2 -2
      vertex 12 -2 -2
    endloop
  endfacet
  facet normal -1 0 0
    outer loop
      vertex -12 -2 -2
      vertex -12 2 2
      vertex -12 2 -2
    endloop
  endfacet
  facet normal -1 -0 0
    outer loop
      vertex -12 2 2
      vertex -12 -2 -2
      vertex -12 -2 2
    endloop
  endfacet
  facet normal 0 1 -0
    outer loop
      vertex -8.5 2 -2
      vertex -12 2 2
      vertex -8.5 2 2
    endloop
  endfacet
  facet normal 0 1 0
    outer loop
      vertex -12 2 2
      vertex -8.5 2 -2
      vertex -12 2 -2
    endloop
  endfacet
  facet normal 0 -1 0
    outer loop
      vertex -12 -2 -2
      vertex -8.5 -2 2
      vertex -12 -2 2
    endloop
  endfacet
  facet normal 0 -1 -0
    outer loop
      vertex -8.5 -2 2
      vertex -12 -2 -2
      vertex -8.5 -2 -2
    endloop
  endfacet
  facet normal 0.309016 0.951057 -0
    outer loop
      vertex 9.15451 -0.475528 -2
      vertex 8.59549 -0.293892 2
      vertex 9.15451 -0.475528 2
    endloop
  endfacet
  facet normal 0.309016 0.951057 0
    outer loop
      vertex 8.59549 -0.293892 2
      vertex 9.15451 -0.475528 -2
      vertex 8.59549 -0.293892 -2
    endloop
  endfacet
  facet normal 0.309016 -0.951057 0
    outer loop
      vertex 8.59549 0.293892 -2
      vertex 9.15451 0.475528 2
      vertex 8.59549 0.293892 2
    endloop
  endfacet
  facet normal 0.309016 -0.951057 0
    outer loop
      vertex 9.15451 0.475528 2
      vertex 8.59549 0.293892 -2
      vertex 9.15451 0.475528 -2
    endloop
  endfacet
  facet normal -0.809018 -0.587784 0
    outer loop
      vertex 9.5 0 -2
      vertex 9.15451 0.475528 2
      vertex 9.15451 0.475528 -2
    endloop
  endfacet
  facet normal -0.809018 -0.587784 0
    outer loop
      vertex 9.15451 0.475528 2
      vertex 9.5 0 -2
      vertex 9.5 0 2
    endloop
  endfacet
  facet normal 1 -0 0
    outer loop
      vertex 8.59549 -0.293892 2
      vertex 8.59549 0.293892 -2
      vertex 8.59549 0.293892 2
    endloop
  endfacet
  facet normal 1 0 0
    outer loop
      vertex 8.59549 0.293892 -2
      vertex 8.59549 -0.293892 2
      vertex 8.59549 -0.293892 -2
    endloop
  endfacet
  facet normal -0.809018 0.587784 0
    outer loop
      vertex 9.15451 -0.475528 -2
      vertex 9.5 0 2
      vertex 9.5 0 -2
    endloop
  endfacet
  facet normal -0.809018 0.587784 0
    outer loop
      vertex 9.5 0 2
      vertex 9.15451 -0.475528 -2
      vertex 9.15451 -0.475528 2
    endloop
  endfacet
  facet normal 0.309016 0.951057 -0
    outer loop
      vertex -8.84549 -0.475528 -2
      vertex -9.40451 -0.293892 2
      vertex -8.84549 -0.475528 2
    endloop
  endfacet
  facet normal 0.309016 0.951057 0
    outer loop
      vertex -9.40451 -0.293892 2
      vertex -8.84549 -0.475528 -2
      vertex -9.40451 -0.293892 -2
    endloop
  endfacet
  facet normal 0.309016 -0.951057 0
    outer loop
      vertex -9.40451 0.293892 -2
      vertex -8.84549 0.475528 2
      vertex -9.40451 0.293892 2
    endloop
  endfacet
  facet normal 0.309016 -0.951057 0
    outer loop
      vertex -8.84549 0.475528 2
      vertex -9.40451 0.293892 -2
      vertex -8.84549 0.475528 -2
    endloop
  endfacet
  facet normal -0.809018 -0.587784 0
    outer loop
      vertex -8.5 0 -2
      vertex -8.84549 0.475528 2
      vertex -8.84549 0.475528 -2
    endloop
  endfacet
  facet normal -0.809018 -0.587784 0
    outer loop
      vertex -8.84549 0.475528 2
      vertex -8.5 0 -2
      vertex -8.5 0 2
    endloop
  endfacet
  facet normal 1 -0 0
    outer loop
      vertex -9.40451 -0.293892 2
      vertex -9.40451 0.293892 -2
      vertex -9.40451 0.293892 2
    endloop
  endfacet
  facet normal 1 0 0
    outer loop
      vertex -9.40451 0.293892 -2
      vertex -9.40451 -0.293892 2
      vertex -9.40451 -0.293892 -2
    endloop
  endfacet
  facet normal -0.809018 0.587784 0
    outer loop
      vertex -8.84549 -0.475528 -2
      vertex -8.5 0 2
      vertex -8.5 0 -2
    endloop
  endfacet
  facet normal -0.809018 0.587784 0
    outer loop
      vertex -8.5 0 2
      vertex -8.84549 -0.475528 -2
      vertex -8.84549 -0.475528 2
    endloop
  endfacet
endsolid OpenSCAD_Model
