%TF.GenerationSoftware,KiCad,Pcbnew,10.0.3*%
%TF.CreationDate,2026-06-18T14:40:04-04:00*%
%TF.ProjectId,panel,70616e65-6c2e-46b6-9963-61645f706362,rev?*%
%TF.SameCoordinates,Original*%
%TF.FileFunction,Copper,L1,Top*%
%TF.FilePolarity,Positive*%
%FSLAX46Y46*%
G04 Gerber Fmt 4.6, Leading zero omitted, Abs format (unit mm)*
G04 Created by KiCad (PCBNEW 10.0.3) date 2026-06-18 14:40:04*
%MOMM*%
%LPD*%
G01*
G04 APERTURE LIST*
G04 Aperture macros list*
%AMRoundRect*
0 Rectangle with rounded corners*
0 $1 Rounding radius*
0 $2 $3 $4 $5 $6 $7 $8 $9 X,Y pos of 4 corners*
0 Add a 4 corners polygon primitive as box body*
4,1,4,$2,$3,$4,$5,$6,$7,$8,$9,$2,$3,0*
0 Add four circle primitives for the rounded corners*
1,1,$1+$1,$2,$3*
1,1,$1+$1,$4,$5*
1,1,$1+$1,$6,$7*
1,1,$1+$1,$8,$9*
0 Add four rect primitives between the rounded corners*
20,1,$1+$1,$2,$3,$4,$5,0*
20,1,$1+$1,$4,$5,$6,$7,0*
20,1,$1+$1,$6,$7,$8,$9,0*
20,1,$1+$1,$8,$9,$2,$3,0*%
G04 Aperture macros list end*
%TA.AperFunction,SMDPad,CuDef*%
%ADD10RoundRect,0.250001X-0.462499X-0.624999X0.462499X-0.624999X0.462499X0.624999X-0.462499X0.624999X0*%
%TD*%
%TA.AperFunction,ComponentPad*%
%ADD11R,1.800000X1.800000*%
%TD*%
%TA.AperFunction,ComponentPad*%
%ADD12C,1.800000*%
%TD*%
%TA.AperFunction,ComponentPad*%
%ADD13O,4.500000X2.250000*%
%TD*%
%TA.AperFunction,ComponentPad*%
%ADD14C,1.440000*%
%TD*%
%TA.AperFunction,SMDPad,CuDef*%
%ADD15RoundRect,0.250000X-0.400000X-0.625000X0.400000X-0.625000X0.400000X0.625000X-0.400000X0.625000X0*%
%TD*%
%TA.AperFunction,ComponentPad*%
%ADD16C,1.600000*%
%TD*%
%TA.AperFunction,ViaPad*%
%ADD17C,0.600000*%
%TD*%
%TA.AperFunction,Conductor*%
%ADD18C,0.500000*%
%TD*%
G04 APERTURE END LIST*
D10*
%TO.P,D1,1,K_1*%
%TO.N,Net-(D1-K)*%
X94000000Y-80000000D03*
%TO.P,D1,2,A_2*%
%TO.N,Net-(D1-A)*%
X96975000Y-80000000D03*
%TD*%
D11*
%TO.P,D12,1,K_1*%
%TO.N,GND*%
X48460000Y-96000000D03*
D12*
%TO.P,D12,2,A_2*%
%TO.N,Net-(D11-K)*%
X51000000Y-96000000D03*
%TD*%
D13*
%TO.P,J1,1*%
%TO.N,+12V*%
X57000000Y-58000000D03*
%TO.P,J1,2*%
%TO.N,GND*%
X57000000Y-51700000D03*
%TD*%
D10*
%TO.P,D3,1,K_1*%
%TO.N,Net-(D11-K)*%
X55025000Y-66000000D03*
%TO.P,D3,2,A_2*%
%TO.N,Net-(D10-K)*%
X58000000Y-66000000D03*
%TD*%
%TO.P,D7,1,K_1*%
%TO.N,Net-(D15-K)*%
X94000000Y-66000000D03*
%TO.P,D7,2,A_2*%
%TO.N,Net-(D14-K)*%
X96975000Y-66000000D03*
%TD*%
D14*
%TO.P,RV1,1,1_1*%
%TO.N,+12V*%
X86000000Y-49505000D03*
%TO.P,RV1,2,2_2*%
%TO.N,Net-(D1-A)*%
X83460000Y-49505000D03*
%TO.P,RV1,3,3_3*%
%TO.N,GND*%
X80920000Y-49505000D03*
%TD*%
D11*
%TO.P,D15,1,K_1*%
%TO.N,Net-(D15-K)*%
X100460000Y-66000000D03*
D12*
%TO.P,D15,2,A_2*%
%TO.N,Net-(D14-K)*%
X103000000Y-66000000D03*
%TD*%
D11*
%TO.P,D11,1,K_1*%
%TO.N,Net-(D11-K)*%
X48460000Y-66000000D03*
D12*
%TO.P,D11,2,A_2*%
%TO.N,Net-(D10-K)*%
X51000000Y-66000000D03*
%TD*%
D15*
%TO.P,R1,1*%
%TO.N,+12V*%
X68640000Y-50000000D03*
%TO.P,R1,2*%
%TO.N,Net-(D1-A)*%
X71740000Y-50000000D03*
%TD*%
D11*
%TO.P,D13,1,K_1*%
%TO.N,Net-(D13-K)*%
X48460000Y-80000000D03*
D12*
%TO.P,D13,2,A_2*%
%TO.N,Net-(D13-A)*%
X51000000Y-80000000D03*
%TD*%
D10*
%TO.P,D5,1,K_1*%
%TO.N,Net-(D13-K)*%
X55025000Y-80000000D03*
%TO.P,D5,2,A_2*%
%TO.N,Net-(D13-A)*%
X58000000Y-80000000D03*
%TD*%
D11*
%TO.P,D16,1,K_1*%
%TO.N,GND*%
X100460000Y-95000000D03*
D12*
%TO.P,D16,2,A_2*%
%TO.N,Net-(D15-K)*%
X103000000Y-95000000D03*
%TD*%
D11*
%TO.P,D10,1,K_1*%
%TO.N,Net-(D10-K)*%
X87460000Y-66000000D03*
D12*
%TO.P,D10,2,A_2*%
%TO.N,Net-(D1-K)*%
X90000000Y-66000000D03*
%TD*%
D10*
%TO.P,D4,1,K_1*%
%TO.N,GND*%
X54972500Y-97000000D03*
%TO.P,D4,2,A_2*%
%TO.N,Net-(D11-K)*%
X57947500Y-97000000D03*
%TD*%
D11*
%TO.P,D9,1,K_1*%
%TO.N,Net-(D1-K)*%
X100000000Y-80000000D03*
D12*
%TO.P,D9,2,A_2*%
%TO.N,Net-(D1-A)*%
X102540000Y-80000000D03*
%TD*%
D10*
%TO.P,D6,1,K_1*%
%TO.N,Net-(D14-K)*%
X69000000Y-66000000D03*
%TO.P,D6,2,A_2*%
%TO.N,Net-(D13-K)*%
X71975000Y-66000000D03*
%TD*%
%TO.P,D2,1,K_1*%
%TO.N,Net-(D10-K)*%
X81000000Y-66000000D03*
%TO.P,D2,2,A_2*%
%TO.N,Net-(D1-K)*%
X83975000Y-66000000D03*
%TD*%
D11*
%TO.P,D14,1,K_1*%
%TO.N,Net-(D14-K)*%
X62000000Y-66000000D03*
D12*
%TO.P,D14,2,A_2*%
%TO.N,Net-(D13-K)*%
X64540000Y-66000000D03*
%TD*%
D16*
%TO.P,R3,1*%
%TO.N,+12V*%
X66190000Y-46000000D03*
%TO.P,R3,2*%
%TO.N,Net-(D1-A)*%
X73810000Y-46000000D03*
%TD*%
D15*
%TO.P,R2,1*%
%TO.N,+12V*%
X68640000Y-54000000D03*
%TO.P,R2,2*%
%TO.N,Net-(D13-A)*%
X71740000Y-54000000D03*
%TD*%
D10*
%TO.P,D8,1,K_1*%
%TO.N,GND*%
X94000000Y-97000000D03*
%TO.P,D8,2,A_2*%
%TO.N,Net-(D15-K)*%
X96975000Y-97000000D03*
%TD*%
D16*
%TO.P,R4,1*%
%TO.N,+12V*%
X66190000Y-58000000D03*
%TO.P,R4,2*%
%TO.N,Net-(D13-A)*%
X73810000Y-58000000D03*
%TD*%
D14*
%TO.P,RV2,1,1_1*%
%TO.N,+12V*%
X101000000Y-49505000D03*
%TO.P,RV2,2,2_2*%
%TO.N,Net-(D13-A)*%
X98460000Y-49505000D03*
%TO.P,RV2,3,3_3*%
%TO.N,GND*%
X95920000Y-49505000D03*
%TD*%
D17*
%TO.N,Net-(D1-K)*%
X94000000Y-73000000D03*
%TO.N,Net-(D1-A)*%
X97000000Y-70000000D03*
%TO.N,Net-(D10-K)*%
X57000000Y-68000000D03*
%TD*%
%TO.N,Net-(D1-K)*%
D18*
X83975000Y-66000000D02*
X85325000Y-64650000D01*
X98675000Y-81325000D02*
X95325000Y-81325000D01*
X88650000Y-64650000D02*
X90000000Y-66000000D01*
X85325000Y-64650000D02*
X88650000Y-64650000D01*
X94000000Y-80000000D02*
X94000000Y-73000000D01*
X100000000Y-80000000D02*
X98675000Y-81325000D01*
X95325000Y-81325000D02*
X94000000Y-80000000D01*
%TO.N,Net-(D1-A)*%
X73000000Y-50000000D02*
X77000000Y-46000000D01*
X77000000Y-46000000D02*
X79955000Y-46000000D01*
X98325000Y-78650000D02*
X98325000Y-71325000D01*
X73810000Y-46000000D02*
X77000000Y-46000000D01*
X102540000Y-80000000D02*
X101190000Y-78650000D01*
X98325000Y-71325000D02*
X97000000Y-70000000D01*
X101190000Y-78650000D02*
X98325000Y-78650000D01*
X79955000Y-46000000D02*
X83460000Y-49505000D01*
X71740000Y-50000000D02*
X73000000Y-50000000D01*
X98325000Y-78650000D02*
X96975000Y-80000000D01*
%TO.N,GND*%
X105050000Y-94859189D02*
X105050000Y-51900370D01*
X54622500Y-97350000D02*
X49810000Y-97350000D01*
X96000000Y-95000000D02*
X100460000Y-95000000D01*
X95325000Y-98325000D02*
X101584189Y-98325000D01*
X94000000Y-97000000D02*
X95325000Y-98325000D01*
X94000000Y-97000000D02*
X96000000Y-95000000D01*
X105050000Y-51900370D02*
X97199630Y-44050000D01*
X49810000Y-97350000D02*
X48460000Y-96000000D01*
X97199630Y-44050000D02*
X64650000Y-44050000D01*
X46410000Y-93950000D02*
X46410000Y-62290000D01*
X48460000Y-96000000D02*
X46410000Y-93950000D01*
X46410000Y-62290000D02*
X57000000Y-51700000D01*
X64650000Y-44050000D02*
X57000000Y-51700000D01*
X54972500Y-97000000D02*
X54622500Y-97350000D01*
X101584189Y-98325000D02*
X105050000Y-94859189D01*
%TO.N,Net-(D11-K)*%
X47110000Y-92110000D02*
X51000000Y-96000000D01*
X55025000Y-66000000D02*
X53675000Y-67350000D01*
X47110000Y-67350000D02*
X47110000Y-92110000D01*
X48460000Y-66000000D02*
X47110000Y-67350000D01*
X57947500Y-97000000D02*
X56622500Y-95675000D01*
X53675000Y-67350000D02*
X49810000Y-67350000D01*
X56622500Y-95675000D02*
X51325000Y-95675000D01*
X51325000Y-95675000D02*
X51000000Y-96000000D01*
X49810000Y-67350000D02*
X48460000Y-66000000D01*
%TO.N,+12V*%
X67440000Y-44750000D02*
X66190000Y-46000000D01*
X66190000Y-54000000D02*
X66190000Y-58000000D01*
X66190000Y-54000000D02*
X68640000Y-54000000D01*
X81245000Y-44750000D02*
X67440000Y-44750000D01*
X96245000Y-44750000D02*
X81245000Y-44750000D01*
X86000000Y-49505000D02*
X81245000Y-44750000D01*
X66190000Y-50000000D02*
X68640000Y-50000000D01*
X66190000Y-50000000D02*
X66190000Y-54000000D01*
X101000000Y-49505000D02*
X96245000Y-44750000D01*
X57000000Y-58000000D02*
X66190000Y-58000000D01*
X66190000Y-46000000D02*
X66190000Y-50000000D01*
%TO.N,Net-(D10-K)*%
X82325000Y-67325000D02*
X86135000Y-67325000D01*
X60050000Y-63950000D02*
X58000000Y-66000000D01*
X58000000Y-66000000D02*
X58000000Y-67000000D01*
X78950000Y-63950000D02*
X60050000Y-63950000D01*
X86135000Y-67325000D02*
X87460000Y-66000000D01*
X58000000Y-67000000D02*
X57000000Y-68000000D01*
X81000000Y-66000000D02*
X82325000Y-67325000D01*
X81000000Y-66000000D02*
X78950000Y-63950000D01*
%TO.N,Net-(D15-K)*%
X100460000Y-66000000D02*
X101810000Y-64650000D01*
X104350000Y-93650000D02*
X103000000Y-95000000D01*
X103559189Y-64650000D02*
X104350000Y-65440811D01*
X94000000Y-66000000D02*
X95325000Y-64675000D01*
X96975000Y-97000000D02*
X101000000Y-97000000D01*
X104350000Y-65440811D02*
X104350000Y-93650000D01*
X95325000Y-64675000D02*
X99135000Y-64675000D01*
X99135000Y-64675000D02*
X100460000Y-66000000D01*
X101810000Y-64650000D02*
X103559189Y-64650000D01*
X101000000Y-97000000D02*
X103000000Y-95000000D01*
%TO.N,Net-(D14-K)*%
X69000000Y-66000000D02*
X67650000Y-64650000D01*
X98325000Y-67350000D02*
X96975000Y-66000000D01*
X101650000Y-67350000D02*
X98325000Y-67350000D01*
X103000000Y-66000000D02*
X101650000Y-67350000D01*
X63350000Y-64650000D02*
X62000000Y-66000000D01*
X67650000Y-64650000D02*
X63350000Y-64650000D01*
%TO.N,Net-(D13-K)*%
X63190000Y-67350000D02*
X64540000Y-66000000D01*
X65865000Y-67325000D02*
X64540000Y-66000000D01*
X49810000Y-78650000D02*
X48460000Y-80000000D01*
X55025000Y-80000000D02*
X53675000Y-78650000D01*
X61589340Y-67350000D02*
X63190000Y-67350000D01*
X70650000Y-67325000D02*
X65865000Y-67325000D01*
X59250000Y-69689340D02*
X61589340Y-67350000D01*
X58059378Y-82025000D02*
X59250000Y-80834378D01*
X48460000Y-80000000D02*
X50485000Y-82025000D01*
X53675000Y-78650000D02*
X49810000Y-78650000D01*
X59250000Y-80834378D02*
X59250000Y-69689340D01*
X71975000Y-66000000D02*
X70650000Y-67325000D01*
X50485000Y-82025000D02*
X58059378Y-82025000D01*
%TO.N,Net-(D13-A)*%
X56187500Y-78187500D02*
X58000000Y-80000000D01*
X79000000Y-54000000D02*
X93965000Y-54000000D01*
X73810000Y-58000000D02*
X72560000Y-59250000D01*
X56675000Y-81325000D02*
X52325000Y-81325000D01*
X71740000Y-54000000D02*
X79000000Y-54000000D01*
X75000000Y-58000000D02*
X79000000Y-54000000D01*
X93965000Y-54000000D02*
X98460000Y-49505000D01*
X56187500Y-64812500D02*
X56187500Y-78187500D01*
X58000000Y-80000000D02*
X56675000Y-81325000D01*
X73810000Y-58000000D02*
X75000000Y-58000000D01*
X72560000Y-59250000D02*
X61750000Y-59250000D01*
X61750000Y-59250000D02*
X56187500Y-64812500D01*
X52325000Y-81325000D02*
X51000000Y-80000000D01*
%TO.N,Net-(D14-K)*%
X93725000Y-69250000D02*
X96975000Y-66000000D01*
X75465622Y-69250000D02*
X93725000Y-69250000D01*
X73137500Y-65078122D02*
X73137500Y-66921878D01*
X72734378Y-64675000D02*
X73137500Y-65078122D01*
X73137500Y-66921878D02*
X75465622Y-69250000D01*
X70325000Y-64675000D02*
X72734378Y-64675000D01*
X69000000Y-66000000D02*
X70325000Y-64675000D01*
%TD*%
%TA.AperFunction,NonConductor*%
G36*
X80949809Y-45520185D02*
G01*
X80970450Y-45536818D01*
X82280851Y-46847219D01*
X83506452Y-48072819D01*
X83516845Y-48091854D01*
X83531173Y-48108138D01*
X83533260Y-48121914D01*
X83539937Y-48134142D01*
X83538390Y-48155773D01*
X83541639Y-48177219D01*
X83535946Y-48189936D01*
X83534953Y-48203834D01*
X83521955Y-48221196D01*
X83513095Y-48240992D01*
X83501430Y-48248613D01*
X83493081Y-48259767D01*
X83472761Y-48267345D01*
X83454604Y-48279210D01*
X83432009Y-48282545D01*
X83427617Y-48284184D01*
X83419708Y-48284496D01*
X83419179Y-48284500D01*
X83363945Y-48284500D01*
X83361177Y-48284938D01*
X83353665Y-48284995D01*
X83324130Y-48276565D01*
X83294073Y-48270249D01*
X83289127Y-48266573D01*
X83286479Y-48265818D01*
X83283398Y-48262317D01*
X83265047Y-48248680D01*
X80728549Y-45712181D01*
X80695064Y-45650858D01*
X80700048Y-45581166D01*
X80741920Y-45525233D01*
X80807384Y-45500816D01*
X80816230Y-45500500D01*
X80882770Y-45500500D01*
X80949809Y-45520185D01*
G37*
%TD.AperFunction*%
%TA.AperFunction,NonConductor*%
G36*
X105442539Y-43520185D02*
G01*
X105488294Y-43572989D01*
X105499500Y-43624500D01*
X105499500Y-50989140D01*
X105479815Y-51056179D01*
X105427011Y-51101934D01*
X105357853Y-51111878D01*
X105294297Y-51082853D01*
X105287819Y-51076821D01*
X97923179Y-43712181D01*
X97889694Y-43650858D01*
X97894678Y-43581166D01*
X97936550Y-43525233D01*
X98002014Y-43500816D01*
X98010860Y-43500500D01*
X105375500Y-43500500D01*
X105442539Y-43520185D01*
G37*
%TD.AperFunction*%
%TA.AperFunction,NonConductor*%
G36*
X72461186Y-45508424D02*
G01*
X72488910Y-45513222D01*
X72494266Y-45518137D01*
X72501238Y-45520185D01*
X72519655Y-45541439D01*
X72540386Y-45560466D01*
X72542234Y-45567496D01*
X72546993Y-45572989D01*
X72550996Y-45600833D01*
X72558148Y-45628040D01*
X72556378Y-45638264D01*
X72556937Y-45642147D01*
X72552130Y-45662817D01*
X72541524Y-45695457D01*
X72541523Y-45695464D01*
X72509500Y-45897648D01*
X72509500Y-46102351D01*
X72541522Y-46304534D01*
X72604781Y-46499223D01*
X72697715Y-46681613D01*
X72818028Y-46847213D01*
X72962786Y-46991971D01*
X73084535Y-47080425D01*
X73128390Y-47112287D01*
X73244607Y-47171503D01*
X73310776Y-47205218D01*
X73310778Y-47205218D01*
X73310781Y-47205220D01*
X73415137Y-47239127D01*
X73505465Y-47268477D01*
X73606557Y-47284488D01*
X73707648Y-47300500D01*
X73707649Y-47300500D01*
X73912351Y-47300500D01*
X73912352Y-47300500D01*
X74114534Y-47268477D01*
X74309219Y-47205220D01*
X74476510Y-47119980D01*
X74545177Y-47107084D01*
X74609918Y-47133360D01*
X74650176Y-47190466D01*
X74653168Y-47260271D01*
X74620485Y-47318146D01*
X72957889Y-48980741D01*
X72896566Y-49014226D01*
X72826874Y-49009242D01*
X72770941Y-48967370D01*
X72764669Y-48958155D01*
X72732715Y-48906348D01*
X72732711Y-48906343D01*
X72608657Y-48782289D01*
X72608656Y-48782288D01*
X72515888Y-48725069D01*
X72459336Y-48690187D01*
X72459331Y-48690185D01*
X72457862Y-48689698D01*
X72292797Y-48635001D01*
X72292795Y-48635000D01*
X72190010Y-48624500D01*
X71289998Y-48624500D01*
X71289980Y-48624501D01*
X71187203Y-48635000D01*
X71187200Y-48635001D01*
X71020668Y-48690185D01*
X71020663Y-48690187D01*
X70871342Y-48782289D01*
X70747289Y-48906342D01*
X70655187Y-49055663D01*
X70655185Y-49055668D01*
X70640137Y-49101081D01*
X70600001Y-49222203D01*
X70600001Y-49222204D01*
X70600000Y-49222204D01*
X70589500Y-49324983D01*
X70589500Y-50675001D01*
X70589501Y-50675018D01*
X70600000Y-50777796D01*
X70600001Y-50777799D01*
X70632045Y-50874500D01*
X70655186Y-50944334D01*
X70747288Y-51093656D01*
X70871344Y-51217712D01*
X71020666Y-51309814D01*
X71187203Y-51364999D01*
X71289991Y-51375500D01*
X72190008Y-51375499D01*
X72190016Y-51375498D01*
X72190019Y-51375498D01*
X72246302Y-51369748D01*
X72292797Y-51364999D01*
X72459334Y-51309814D01*
X72608656Y-51217712D01*
X72732712Y-51093656D01*
X72824814Y-50944334D01*
X72860879Y-50835494D01*
X72900652Y-50778051D01*
X72965167Y-50751228D01*
X72978585Y-50750500D01*
X73073920Y-50750500D01*
X73199598Y-50725500D01*
X73218913Y-50721658D01*
X73355495Y-50665084D01*
X73404729Y-50632186D01*
X73478416Y-50582952D01*
X77274548Y-46786818D01*
X77335871Y-46753334D01*
X77362229Y-46750500D01*
X79592770Y-46750500D01*
X79659809Y-46770185D01*
X79680451Y-46786819D01*
X80966452Y-48072819D01*
X80999937Y-48134142D01*
X80994953Y-48203834D01*
X80953081Y-48259767D01*
X80887617Y-48284184D01*
X80878771Y-48284500D01*
X80823945Y-48284500D01*
X80769496Y-48293124D01*
X80634197Y-48314553D01*
X80451493Y-48373916D01*
X80280318Y-48461135D01*
X80191645Y-48525560D01*
X80124898Y-48574055D01*
X80124896Y-48574057D01*
X80124895Y-48574057D01*
X79989057Y-48709895D01*
X79989057Y-48709896D01*
X79989055Y-48709898D01*
X79940560Y-48776645D01*
X79876135Y-48865318D01*
X79788916Y-49036493D01*
X79729553Y-49219197D01*
X79699500Y-49408945D01*
X79699500Y-49601054D01*
X79729553Y-49790802D01*
X79788916Y-49973506D01*
X79788918Y-49973509D01*
X79876135Y-50144681D01*
X79989055Y-50300102D01*
X80124898Y-50435945D01*
X80280319Y-50548865D01*
X80393361Y-50606463D01*
X80451493Y-50636083D01*
X80540748Y-50665083D01*
X80634199Y-50695447D01*
X80823945Y-50725500D01*
X80823946Y-50725500D01*
X81016054Y-50725500D01*
X81016055Y-50725500D01*
X81205801Y-50695447D01*
X81388509Y-50636082D01*
X81559681Y-50548865D01*
X81715102Y-50435945D01*
X81850945Y-50300102D01*
X81963865Y-50144681D01*
X82051082Y-49973509D01*
X82066492Y-49926082D01*
X82072069Y-49908919D01*
X82111506Y-49851243D01*
X82175864Y-49824044D01*
X82244711Y-49835958D01*
X82296187Y-49883202D01*
X82307931Y-49908919D01*
X82328915Y-49973504D01*
X82328918Y-49973509D01*
X82416135Y-50144681D01*
X82529055Y-50300102D01*
X82664898Y-50435945D01*
X82820319Y-50548865D01*
X82933361Y-50606463D01*
X82991493Y-50636083D01*
X83080748Y-50665083D01*
X83174199Y-50695447D01*
X83363945Y-50725500D01*
X83363946Y-50725500D01*
X83556054Y-50725500D01*
X83556055Y-50725500D01*
X83745801Y-50695447D01*
X83928509Y-50636082D01*
X84099681Y-50548865D01*
X84255102Y-50435945D01*
X84390945Y-50300102D01*
X84503865Y-50144681D01*
X84591082Y-49973509D01*
X84606492Y-49926082D01*
X84612069Y-49908919D01*
X84651506Y-49851243D01*
X84715864Y-49824044D01*
X84784711Y-49835958D01*
X84836187Y-49883202D01*
X84847931Y-49908919D01*
X84868915Y-49973504D01*
X84868918Y-49973509D01*
X84956135Y-50144681D01*
X85069055Y-50300102D01*
X85204898Y-50435945D01*
X85360319Y-50548865D01*
X85473361Y-50606463D01*
X85531493Y-50636083D01*
X85620748Y-50665083D01*
X85714199Y-50695447D01*
X85903945Y-50725500D01*
X85903946Y-50725500D01*
X86096054Y-50725500D01*
X86096055Y-50725500D01*
X86285801Y-50695447D01*
X86468509Y-50636082D01*
X86639681Y-50548865D01*
X86795102Y-50435945D01*
X86930945Y-50300102D01*
X87043865Y-50144681D01*
X87131082Y-49973509D01*
X87190447Y-49790801D01*
X87220500Y-49601055D01*
X87220500Y-49408945D01*
X87190447Y-49219199D01*
X87160003Y-49125500D01*
X87131083Y-49036493D01*
X87095863Y-48967370D01*
X87043865Y-48865319D01*
X86930945Y-48709898D01*
X86795102Y-48574055D01*
X86639681Y-48461135D01*
X86468506Y-48373916D01*
X86285802Y-48314553D01*
X86150504Y-48293124D01*
X86096055Y-48284500D01*
X85903945Y-48284500D01*
X85903938Y-48284500D01*
X85902450Y-48284617D01*
X85901893Y-48284500D01*
X85899073Y-48284500D01*
X85899073Y-48283907D01*
X85834073Y-48270249D01*
X85805047Y-48248680D01*
X83268549Y-45712181D01*
X83235064Y-45650858D01*
X83240048Y-45581166D01*
X83281920Y-45525233D01*
X83347384Y-45500816D01*
X83356230Y-45500500D01*
X95882770Y-45500500D01*
X95949809Y-45520185D01*
X95970450Y-45536818D01*
X97280851Y-46847219D01*
X98506452Y-48072819D01*
X98539937Y-48134142D01*
X98534953Y-48203834D01*
X98493081Y-48259767D01*
X98427617Y-48284184D01*
X98418771Y-48284500D01*
X98363945Y-48284500D01*
X98309496Y-48293124D01*
X98174197Y-48314553D01*
X97991493Y-48373916D01*
X97820318Y-48461135D01*
X97731645Y-48525560D01*
X97664898Y-48574055D01*
X97664896Y-48574057D01*
X97664895Y-48574057D01*
X97529057Y-48709895D01*
X97529057Y-48709896D01*
X97529055Y-48709898D01*
X97480560Y-48776645D01*
X97416135Y-48865318D01*
X97328916Y-49036493D01*
X97307931Y-49101081D01*
X97268494Y-49158756D01*
X97204135Y-49185955D01*
X97135289Y-49174041D01*
X97083813Y-49126797D01*
X97072069Y-49101081D01*
X97051083Y-49036493D01*
X97015863Y-48967370D01*
X96963865Y-48865319D01*
X96850945Y-48709898D01*
X96715102Y-48574055D01*
X96559681Y-48461135D01*
X96388506Y-48373916D01*
X96205802Y-48314553D01*
X96070504Y-48293124D01*
X96016055Y-48284500D01*
X95823945Y-48284500D01*
X95769496Y-48293124D01*
X95634197Y-48314553D01*
X95451493Y-48373916D01*
X95280318Y-48461135D01*
X95191645Y-48525560D01*
X95124898Y-48574055D01*
X95124896Y-48574057D01*
X95124895Y-48574057D01*
X94989057Y-48709895D01*
X94989057Y-48709896D01*
X94989055Y-48709898D01*
X94940560Y-48776645D01*
X94876135Y-48865318D01*
X94788916Y-49036493D01*
X94729553Y-49219197D01*
X94699500Y-49408945D01*
X94699500Y-49601054D01*
X94729553Y-49790802D01*
X94788916Y-49973506D01*
X94788918Y-49973509D01*
X94876135Y-50144681D01*
X94989055Y-50300102D01*
X95124898Y-50435945D01*
X95280319Y-50548865D01*
X95393361Y-50606463D01*
X95451493Y-50636083D01*
X95540748Y-50665083D01*
X95634199Y-50695447D01*
X95823945Y-50725500D01*
X95823946Y-50725500D01*
X95878769Y-50725500D01*
X95945808Y-50745185D01*
X95991563Y-50797989D01*
X96001507Y-50867147D01*
X95972482Y-50930703D01*
X95966450Y-50937181D01*
X93690451Y-53213181D01*
X93629128Y-53246666D01*
X93602770Y-53249500D01*
X72978585Y-53249500D01*
X72911546Y-53229815D01*
X72865791Y-53177011D01*
X72860879Y-53164504D01*
X72824814Y-53055666D01*
X72732712Y-52906344D01*
X72608656Y-52782288D01*
X72459334Y-52690186D01*
X72292797Y-52635001D01*
X72292795Y-52635000D01*
X72190010Y-52624500D01*
X71289998Y-52624500D01*
X71289980Y-52624501D01*
X71187203Y-52635000D01*
X71187200Y-52635001D01*
X71020668Y-52690185D01*
X71020663Y-52690187D01*
X70871342Y-52782289D01*
X70747289Y-52906342D01*
X70655187Y-53055663D01*
X70655186Y-53055666D01*
X70600001Y-53222203D01*
X70600001Y-53222204D01*
X70600000Y-53222204D01*
X70589500Y-53324983D01*
X70589500Y-54675001D01*
X70589501Y-54675018D01*
X70600000Y-54777796D01*
X70600001Y-54777799D01*
X70632045Y-54874500D01*
X70655186Y-54944334D01*
X70747288Y-55093656D01*
X70871344Y-55217712D01*
X71020666Y-55309814D01*
X71187203Y-55364999D01*
X71289991Y-55375500D01*
X72190008Y-55375499D01*
X72190016Y-55375498D01*
X72190019Y-55375498D01*
X72246302Y-55369748D01*
X72292797Y-55364999D01*
X72459334Y-55309814D01*
X72608656Y-55217712D01*
X72732712Y-55093656D01*
X72824814Y-54944334D01*
X72860879Y-54835494D01*
X72900652Y-54778051D01*
X72965167Y-54751228D01*
X72978585Y-54750500D01*
X76888771Y-54750500D01*
X76955810Y-54770185D01*
X77001565Y-54822989D01*
X77011509Y-54892147D01*
X76982484Y-54955703D01*
X76976454Y-54962178D01*
X75564132Y-56374500D01*
X74881589Y-57057042D01*
X74820266Y-57090527D01*
X74750574Y-57085543D01*
X74706227Y-57057042D01*
X74657213Y-57008028D01*
X74491613Y-56887715D01*
X74491612Y-56887714D01*
X74491610Y-56887713D01*
X74434653Y-56858691D01*
X74309223Y-56794781D01*
X74114534Y-56731522D01*
X73939995Y-56703878D01*
X73912352Y-56699500D01*
X73707648Y-56699500D01*
X73683329Y-56703351D01*
X73505465Y-56731522D01*
X73310776Y-56794781D01*
X73128386Y-56887715D01*
X72962786Y-57008028D01*
X72818028Y-57152786D01*
X72697715Y-57318386D01*
X72604781Y-57500776D01*
X72541522Y-57695465D01*
X72509500Y-57897648D01*
X72509500Y-58102351D01*
X72518318Y-58158025D01*
X72509364Y-58227318D01*
X72483526Y-58265104D01*
X72285449Y-58463182D01*
X72224129Y-58496666D01*
X72197770Y-58499500D01*
X67565801Y-58499500D01*
X67498762Y-58479815D01*
X67453007Y-58427011D01*
X67443063Y-58357853D01*
X67447870Y-58337183D01*
X67458475Y-58304542D01*
X67458475Y-58304538D01*
X67458477Y-58304534D01*
X67490500Y-58102352D01*
X67490500Y-57897648D01*
X67458477Y-57695466D01*
X67395220Y-57500781D01*
X67395218Y-57500778D01*
X67395218Y-57500776D01*
X67361503Y-57434607D01*
X67302287Y-57318390D01*
X67252236Y-57249500D01*
X67181971Y-57152786D01*
X67037217Y-57008032D01*
X67037212Y-57008028D01*
X66991615Y-56974900D01*
X66948949Y-56919571D01*
X66940500Y-56874582D01*
X66940500Y-54874500D01*
X66960185Y-54807461D01*
X67012989Y-54761706D01*
X67064500Y-54750500D01*
X67401415Y-54750500D01*
X67468454Y-54770185D01*
X67514209Y-54822989D01*
X67519118Y-54835489D01*
X67555186Y-54944334D01*
X67647288Y-55093656D01*
X67771344Y-55217712D01*
X67920666Y-55309814D01*
X68087203Y-55364999D01*
X68189991Y-55375500D01*
X69090008Y-55375499D01*
X69090016Y-55375498D01*
X69090019Y-55375498D01*
X69146302Y-55369748D01*
X69192797Y-55364999D01*
X69359334Y-55309814D01*
X69508656Y-55217712D01*
X69632712Y-55093656D01*
X69724814Y-54944334D01*
X69779999Y-54777797D01*
X69790500Y-54675009D01*
X69790499Y-53324992D01*
X69779999Y-53222203D01*
X69724814Y-53055666D01*
X69632712Y-52906344D01*
X69508656Y-52782288D01*
X69359334Y-52690186D01*
X69192797Y-52635001D01*
X69192795Y-52635000D01*
X69090010Y-52624500D01*
X68189998Y-52624500D01*
X68189980Y-52624501D01*
X68087203Y-52635000D01*
X68087200Y-52635001D01*
X67920668Y-52690185D01*
X67920663Y-52690187D01*
X67771342Y-52782289D01*
X67647289Y-52906342D01*
X67555187Y-53055663D01*
X67555185Y-53055668D01*
X67519121Y-53164504D01*
X67479348Y-53221949D01*
X67414833Y-53248772D01*
X67401415Y-53249500D01*
X67064500Y-53249500D01*
X66997461Y-53229815D01*
X66951706Y-53177011D01*
X66940500Y-53125500D01*
X66940500Y-50874500D01*
X66960185Y-50807461D01*
X67012989Y-50761706D01*
X67064500Y-50750500D01*
X67401415Y-50750500D01*
X67468454Y-50770185D01*
X67514209Y-50822989D01*
X67519118Y-50835489D01*
X67555186Y-50944334D01*
X67647288Y-51093656D01*
X67771344Y-51217712D01*
X67920666Y-51309814D01*
X68087203Y-51364999D01*
X68189991Y-51375500D01*
X69090008Y-51375499D01*
X69090016Y-51375498D01*
X69090019Y-51375498D01*
X69146302Y-51369748D01*
X69192797Y-51364999D01*
X69359334Y-51309814D01*
X69508656Y-51217712D01*
X69632712Y-51093656D01*
X69724814Y-50944334D01*
X69779999Y-50777797D01*
X69790500Y-50675009D01*
X69790499Y-49324992D01*
X69779999Y-49222203D01*
X69724814Y-49055666D01*
X69632712Y-48906344D01*
X69508656Y-48782288D01*
X69415888Y-48725069D01*
X69359336Y-48690187D01*
X69359331Y-48690185D01*
X69357862Y-48689698D01*
X69192797Y-48635001D01*
X69192795Y-48635000D01*
X69090010Y-48624500D01*
X68189998Y-48624500D01*
X68189980Y-48624501D01*
X68087203Y-48635000D01*
X68087200Y-48635001D01*
X67920668Y-48690185D01*
X67920663Y-48690187D01*
X67771342Y-48782289D01*
X67647289Y-48906342D01*
X67555187Y-49055663D01*
X67555185Y-49055668D01*
X67540137Y-49101081D01*
X67521026Y-49158756D01*
X67519121Y-49164504D01*
X67479348Y-49221949D01*
X67414833Y-49248772D01*
X67401415Y-49249500D01*
X67064500Y-49249500D01*
X66997461Y-49229815D01*
X66951706Y-49177011D01*
X66940500Y-49125500D01*
X66940500Y-47125416D01*
X66960185Y-47058377D01*
X66991613Y-47025099D01*
X67037219Y-46991966D01*
X67181966Y-46847219D01*
X67181968Y-46847215D01*
X67181971Y-46847213D01*
X67252236Y-46750500D01*
X67302287Y-46681610D01*
X67395220Y-46499219D01*
X67458477Y-46304534D01*
X67490500Y-46102352D01*
X67490500Y-45897648D01*
X67481681Y-45841971D01*
X67490635Y-45772680D01*
X67516468Y-45734898D01*
X67714550Y-45536816D01*
X67775873Y-45503334D01*
X67802230Y-45500500D01*
X72434199Y-45500500D01*
X72461186Y-45508424D01*
G37*
%TD.AperFunction*%
%TA.AperFunction,NonConductor*%
G36*
X63905809Y-43520185D02*
G01*
X63951564Y-43572989D01*
X63961508Y-43642147D01*
X63932483Y-43705703D01*
X63926451Y-43712181D01*
X57600451Y-50038181D01*
X57539128Y-50071666D01*
X57512770Y-50074500D01*
X55747070Y-50074500D01*
X55662833Y-50087842D01*
X55494359Y-50114526D01*
X55251027Y-50193588D01*
X55251024Y-50193589D01*
X55023049Y-50309750D01*
X54816064Y-50460132D01*
X54816059Y-50460136D01*
X54635136Y-50641059D01*
X54635132Y-50641064D01*
X54484750Y-50848049D01*
X54368589Y-51076024D01*
X54368588Y-51076027D01*
X54289526Y-51319359D01*
X54249500Y-51572070D01*
X54249500Y-51827929D01*
X54289526Y-52080640D01*
X54368588Y-52323972D01*
X54368589Y-52323975D01*
X54484750Y-52551950D01*
X54635132Y-52758935D01*
X54635136Y-52758940D01*
X54669732Y-52793536D01*
X54703217Y-52854859D01*
X54698233Y-52924551D01*
X54669732Y-52968898D01*
X45827050Y-61811580D01*
X45827044Y-61811588D01*
X45777812Y-61885268D01*
X45777813Y-61885269D01*
X45744921Y-61934496D01*
X45744911Y-61934514D01*
X45739060Y-61948641D01*
X45695219Y-62003044D01*
X45628924Y-62025108D01*
X45561225Y-62007828D01*
X45513615Y-61956690D01*
X45500500Y-61901187D01*
X45500500Y-43624500D01*
X45520185Y-43557461D01*
X45572989Y-43511706D01*
X45624500Y-43500500D01*
X63838770Y-43500500D01*
X63905809Y-43520185D01*
G37*
%TD.AperFunction*%
%TA.AperFunction,NonConductor*%
G36*
X95681334Y-65482548D02*
G01*
X95737267Y-65524420D01*
X95761684Y-65589884D01*
X95762000Y-65598730D01*
X95762000Y-66100269D01*
X95742315Y-66167308D01*
X95725681Y-66187950D01*
X95424681Y-66488950D01*
X95363358Y-66522435D01*
X95293666Y-66517451D01*
X95237733Y-66475579D01*
X95213316Y-66410115D01*
X95213000Y-66401269D01*
X95213000Y-65899730D01*
X95232685Y-65832691D01*
X95249319Y-65812049D01*
X95550319Y-65511049D01*
X95611642Y-65477564D01*
X95681334Y-65482548D01*
G37*
%TD.AperFunction*%
%TA.AperFunction,NonConductor*%
G36*
X70681334Y-65482548D02*
G01*
X70737267Y-65524420D01*
X70761684Y-65589884D01*
X70762000Y-65598730D01*
X70762000Y-66100270D01*
X70742315Y-66167309D01*
X70725681Y-66187951D01*
X70424681Y-66488951D01*
X70363358Y-66522436D01*
X70293666Y-66517452D01*
X70237733Y-66475580D01*
X70213316Y-66410116D01*
X70213000Y-66401270D01*
X70213000Y-65899730D01*
X70232685Y-65832691D01*
X70249319Y-65812049D01*
X70550319Y-65511049D01*
X70611642Y-65477564D01*
X70681334Y-65482548D01*
G37*
%TD.AperFunction*%
%TA.AperFunction,NonConductor*%
G36*
X86002539Y-65420185D02*
G01*
X86048294Y-65472989D01*
X86059500Y-65524500D01*
X86059500Y-66287769D01*
X86050855Y-66317209D01*
X86044332Y-66347196D01*
X86040577Y-66352211D01*
X86039815Y-66354808D01*
X86023185Y-66375445D01*
X85860449Y-66538182D01*
X85799128Y-66571666D01*
X85772770Y-66574500D01*
X85312000Y-66574500D01*
X85244961Y-66554815D01*
X85199206Y-66502011D01*
X85188000Y-66450500D01*
X85188000Y-65899729D01*
X85207685Y-65832690D01*
X85224319Y-65812048D01*
X85599548Y-65436819D01*
X85626475Y-65422115D01*
X85652294Y-65405523D01*
X85658494Y-65404631D01*
X85660871Y-65403334D01*
X85687229Y-65400500D01*
X85935500Y-65400500D01*
X86002539Y-65420185D01*
G37*
%TD.AperFunction*%
%TA.AperFunction,NonConductor*%
G36*
X67354809Y-65420185D02*
G01*
X67375451Y-65436819D01*
X67750681Y-65812048D01*
X67784166Y-65873371D01*
X67787000Y-65899729D01*
X67787000Y-66450500D01*
X67767315Y-66517539D01*
X67714511Y-66563294D01*
X67663000Y-66574500D01*
X66227230Y-66574500D01*
X66160191Y-66554815D01*
X66139549Y-66538181D01*
X65953876Y-66352508D01*
X65920391Y-66291185D01*
X65919084Y-66245434D01*
X65940500Y-66110222D01*
X65940500Y-65889778D01*
X65906015Y-65672049D01*
X65906014Y-65672045D01*
X65870525Y-65562817D01*
X65868530Y-65492976D01*
X65904611Y-65433143D01*
X65967312Y-65402316D01*
X65988456Y-65400500D01*
X67287770Y-65400500D01*
X67354809Y-65420185D01*
G37*
%TD.AperFunction*%
%TA.AperFunction,NonConductor*%
G36*
X98839809Y-65445185D02*
G01*
X98860451Y-65461819D01*
X99023181Y-65624549D01*
X99056666Y-65685872D01*
X99059500Y-65712230D01*
X99059500Y-66126628D01*
X99059501Y-66475500D01*
X99039817Y-66542539D01*
X98987013Y-66588294D01*
X98935501Y-66599500D01*
X98687229Y-66599500D01*
X98620190Y-66579815D01*
X98599548Y-66563181D01*
X98224319Y-66187951D01*
X98190834Y-66126628D01*
X98188000Y-66100270D01*
X98188000Y-65549500D01*
X98207685Y-65482461D01*
X98260489Y-65436706D01*
X98312000Y-65425500D01*
X98772770Y-65425500D01*
X98839809Y-65445185D01*
G37*
%TD.AperFunction*%
%TA.AperFunction,NonConductor*%
G36*
X65317992Y-44820185D02*
G01*
X65363747Y-44872989D01*
X65373691Y-44942147D01*
X65344666Y-45005703D01*
X65338634Y-45012181D01*
X65198032Y-45152782D01*
X65198028Y-45152786D01*
X65077715Y-45318386D01*
X64984781Y-45500776D01*
X64921522Y-45695465D01*
X64889500Y-45897648D01*
X64889500Y-46102351D01*
X64921522Y-46304534D01*
X64984781Y-46499223D01*
X65077715Y-46681613D01*
X65198028Y-46847213D01*
X65198034Y-46847219D01*
X65342781Y-46991966D01*
X65388384Y-47025098D01*
X65431050Y-47080425D01*
X65439500Y-47125416D01*
X65439500Y-56874582D01*
X65419815Y-56941621D01*
X65388385Y-56974900D01*
X65342787Y-57008028D01*
X65342782Y-57008032D01*
X65198032Y-57152782D01*
X65198028Y-57152787D01*
X65164900Y-57198385D01*
X65109571Y-57241051D01*
X65064582Y-57249500D01*
X59642929Y-57249500D01*
X59575890Y-57229815D01*
X59532444Y-57181794D01*
X59515251Y-57148051D01*
X59364867Y-56941064D01*
X59364863Y-56941059D01*
X59183940Y-56760136D01*
X59183935Y-56760132D01*
X58976950Y-56609750D01*
X58976949Y-56609749D01*
X58976947Y-56609748D01*
X58903910Y-56572533D01*
X58748975Y-56493589D01*
X58748972Y-56493588D01*
X58505640Y-56414526D01*
X58379284Y-56394513D01*
X58252930Y-56374500D01*
X55747070Y-56374500D01*
X55662833Y-56387842D01*
X55494359Y-56414526D01*
X55251027Y-56493588D01*
X55251024Y-56493589D01*
X55023049Y-56609750D01*
X54816064Y-56760132D01*
X54816059Y-56760136D01*
X54635136Y-56941059D01*
X54635132Y-56941064D01*
X54484750Y-57148049D01*
X54368589Y-57376024D01*
X54368588Y-57376027D01*
X54289526Y-57619359D01*
X54249500Y-57872070D01*
X54249500Y-58127929D01*
X54289526Y-58380640D01*
X54368588Y-58623971D01*
X54368589Y-58623974D01*
X54368590Y-58623975D01*
X54482335Y-58847212D01*
X54484750Y-58851950D01*
X54635132Y-59058935D01*
X54635136Y-59058940D01*
X54816059Y-59239863D01*
X54816064Y-59239867D01*
X54899519Y-59300500D01*
X55023053Y-59390252D01*
X55172080Y-59466185D01*
X55251024Y-59506410D01*
X55251027Y-59506411D01*
X55372693Y-59545942D01*
X55494361Y-59585474D01*
X55747070Y-59625500D01*
X55747071Y-59625500D01*
X58252929Y-59625500D01*
X58252930Y-59625500D01*
X58505639Y-59585474D01*
X58748975Y-59506410D01*
X58976947Y-59390252D01*
X59183942Y-59239862D01*
X59364862Y-59058942D01*
X59515252Y-58851947D01*
X59532444Y-58818206D01*
X59580418Y-58767410D01*
X59642929Y-58750500D01*
X60888770Y-58750500D01*
X60955809Y-58770185D01*
X61001564Y-58822989D01*
X61011508Y-58892147D01*
X60982483Y-58955703D01*
X60976451Y-58962181D01*
X55604550Y-64334080D01*
X55604544Y-64334088D01*
X55555312Y-64407768D01*
X55555313Y-64407769D01*
X55522421Y-64456996D01*
X55522414Y-64457009D01*
X55484744Y-64547953D01*
X55440903Y-64602356D01*
X55374608Y-64624421D01*
X55370183Y-64624500D01*
X54512484Y-64624500D01*
X54409704Y-64635000D01*
X54409703Y-64635001D01*
X54243164Y-64690186D01*
X54243162Y-64690187D01*
X54093848Y-64782286D01*
X54093844Y-64782289D01*
X53969789Y-64906344D01*
X53969786Y-64906348D01*
X53877687Y-65055662D01*
X53877686Y-65055664D01*
X53822501Y-65222203D01*
X53822500Y-65222204D01*
X53812000Y-65324984D01*
X53812000Y-66100270D01*
X53792315Y-66167309D01*
X53775681Y-66187951D01*
X53400451Y-66563181D01*
X53339128Y-66596666D01*
X53312770Y-66599500D01*
X52448456Y-66599500D01*
X52381417Y-66579815D01*
X52335662Y-66527011D01*
X52325718Y-66457853D01*
X52330525Y-66437183D01*
X52366014Y-66327954D01*
X52366013Y-66327954D01*
X52366015Y-66327951D01*
X52400500Y-66110222D01*
X52400500Y-65889778D01*
X52366015Y-65672049D01*
X52307832Y-65492976D01*
X52297896Y-65462396D01*
X52297895Y-65462393D01*
X52263237Y-65394375D01*
X52197815Y-65265978D01*
X52139501Y-65185715D01*
X52068247Y-65087641D01*
X52068243Y-65087636D01*
X51912363Y-64931756D01*
X51912358Y-64931752D01*
X51734025Y-64802187D01*
X51734024Y-64802186D01*
X51734022Y-64802185D01*
X51669947Y-64769537D01*
X51537606Y-64702104D01*
X51537603Y-64702103D01*
X51327952Y-64633985D01*
X51219086Y-64616742D01*
X51110222Y-64599500D01*
X50889778Y-64599500D01*
X50817201Y-64610995D01*
X50672047Y-64633985D01*
X50462396Y-64702103D01*
X50462393Y-64702104D01*
X50265974Y-64802187D01*
X50087641Y-64931752D01*
X50087636Y-64931756D01*
X50037463Y-64981929D01*
X49976140Y-65015413D01*
X49906448Y-65010428D01*
X49850515Y-64968557D01*
X49833601Y-64937580D01*
X49803797Y-64857671D01*
X49803793Y-64857664D01*
X49717547Y-64742455D01*
X49717544Y-64742452D01*
X49602335Y-64656206D01*
X49602328Y-64656202D01*
X49467482Y-64605908D01*
X49467483Y-64605908D01*
X49407883Y-64599501D01*
X49407881Y-64599500D01*
X49407873Y-64599500D01*
X49407864Y-64599500D01*
X47512129Y-64599500D01*
X47512123Y-64599501D01*
X47452515Y-64605909D01*
X47327832Y-64652412D01*
X47258141Y-64657396D01*
X47196818Y-64623910D01*
X47163334Y-64562587D01*
X47160500Y-64536230D01*
X47160500Y-62652229D01*
X47180185Y-62585190D01*
X47196819Y-62564548D01*
X56399548Y-53361819D01*
X56460871Y-53328334D01*
X56487229Y-53325500D01*
X58252929Y-53325500D01*
X58252930Y-53325500D01*
X58505639Y-53285474D01*
X58748975Y-53206410D01*
X58976947Y-53090252D01*
X59183942Y-52939862D01*
X59364862Y-52758942D01*
X59515252Y-52551947D01*
X59631410Y-52323975D01*
X59710474Y-52080639D01*
X59750500Y-51827930D01*
X59750500Y-51572070D01*
X59710474Y-51319361D01*
X59643059Y-51111878D01*
X59631411Y-51076027D01*
X59631410Y-51076024D01*
X59587140Y-50989140D01*
X59515252Y-50848053D01*
X59452518Y-50761706D01*
X59364867Y-50641064D01*
X59364863Y-50641059D01*
X59330267Y-50606463D01*
X59296782Y-50545140D01*
X59301766Y-50475448D01*
X59330267Y-50431101D01*
X64924549Y-44836819D01*
X64951476Y-44822115D01*
X64977295Y-44805523D01*
X64983495Y-44804631D01*
X64985872Y-44803334D01*
X65012230Y-44800500D01*
X65250953Y-44800500D01*
X65317992Y-44820185D01*
G37*
%TD.AperFunction*%
%TA.AperFunction,NonConductor*%
G36*
X99746944Y-49829422D02*
G01*
X99778270Y-49833017D01*
X99781103Y-49835333D01*
X99784711Y-49835958D01*
X99807951Y-49857287D01*
X99832359Y-49877246D01*
X99834547Y-49881697D01*
X99836187Y-49883202D01*
X99847931Y-49908919D01*
X99868915Y-49973504D01*
X99868918Y-49973509D01*
X99956135Y-50144681D01*
X100069055Y-50300102D01*
X100204898Y-50435945D01*
X100360319Y-50548865D01*
X100473361Y-50606463D01*
X100531493Y-50636083D01*
X100620748Y-50665083D01*
X100714199Y-50695447D01*
X100903945Y-50725500D01*
X100903946Y-50725500D01*
X101096054Y-50725500D01*
X101096055Y-50725500D01*
X101285801Y-50695447D01*
X101468509Y-50636082D01*
X101639681Y-50548865D01*
X101795102Y-50435945D01*
X101930945Y-50300102D01*
X102038093Y-50152624D01*
X102093423Y-50109960D01*
X102163036Y-50103981D01*
X102224831Y-50136587D01*
X102226092Y-50137830D01*
X104263181Y-52174919D01*
X104296666Y-52236242D01*
X104299500Y-52262600D01*
X104299500Y-64029580D01*
X104295208Y-64044195D01*
X104295857Y-64059418D01*
X104285563Y-64077042D01*
X104279815Y-64096619D01*
X104268303Y-64106593D01*
X104260619Y-64119751D01*
X104242431Y-64129012D01*
X104227011Y-64142374D01*
X104211933Y-64144541D01*
X104198357Y-64151455D01*
X104178053Y-64149413D01*
X104157853Y-64152318D01*
X104142926Y-64145881D01*
X104128838Y-64144465D01*
X104108759Y-64131148D01*
X104098361Y-64126665D01*
X104092817Y-64122260D01*
X104037605Y-64067048D01*
X103952099Y-64009916D01*
X103947852Y-64007078D01*
X103914689Y-63984919D01*
X103914677Y-63984912D01*
X103778106Y-63928343D01*
X103778096Y-63928340D01*
X103633109Y-63899500D01*
X103633107Y-63899500D01*
X101883917Y-63899500D01*
X101736082Y-63899500D01*
X101736080Y-63899500D01*
X101591092Y-63928340D01*
X101591082Y-63928343D01*
X101454511Y-63984912D01*
X101454498Y-63984919D01*
X101331584Y-64067048D01*
X101331580Y-64067051D01*
X100835451Y-64563181D01*
X100774128Y-64596666D01*
X100747770Y-64599500D01*
X100172230Y-64599500D01*
X100105191Y-64579815D01*
X100084549Y-64563181D01*
X99613421Y-64092052D01*
X99613414Y-64092046D01*
X99539729Y-64042812D01*
X99539729Y-64042813D01*
X99490491Y-64009913D01*
X99353917Y-63953343D01*
X99353907Y-63953340D01*
X99208920Y-63924500D01*
X99208918Y-63924500D01*
X95251082Y-63924500D01*
X95251080Y-63924500D01*
X95106092Y-63953340D01*
X95106086Y-63953342D01*
X94969508Y-64009914D01*
X94969496Y-64009921D01*
X94920269Y-64042813D01*
X94846588Y-64092044D01*
X94846580Y-64092050D01*
X94350451Y-64588181D01*
X94289128Y-64621666D01*
X94262770Y-64624500D01*
X93487484Y-64624500D01*
X93384704Y-64635000D01*
X93384703Y-64635001D01*
X93218164Y-64690186D01*
X93218162Y-64690187D01*
X93068848Y-64782286D01*
X93068844Y-64782289D01*
X92944789Y-64906344D01*
X92944786Y-64906348D01*
X92852687Y-65055662D01*
X92852686Y-65055664D01*
X92797501Y-65222203D01*
X92797500Y-65222204D01*
X92787000Y-65324984D01*
X92787000Y-66675015D01*
X92797500Y-66777795D01*
X92797501Y-66777796D01*
X92852686Y-66944335D01*
X92852687Y-66944337D01*
X92944786Y-67093651D01*
X92944789Y-67093655D01*
X93068844Y-67217710D01*
X93068848Y-67217713D01*
X93218162Y-67309812D01*
X93218164Y-67309813D01*
X93218166Y-67309814D01*
X93384703Y-67364999D01*
X93487492Y-67375500D01*
X93487497Y-67375500D01*
X94238769Y-67375500D01*
X94305808Y-67395185D01*
X94351563Y-67447989D01*
X94361507Y-67517147D01*
X94332482Y-67580703D01*
X94326450Y-67587181D01*
X93450451Y-68463181D01*
X93389128Y-68496666D01*
X93362770Y-68499500D01*
X76538226Y-68499500D01*
X76471187Y-68479815D01*
X76425432Y-68427011D01*
X76415488Y-68357853D01*
X76444513Y-68294297D01*
X76499906Y-68257569D01*
X76518412Y-68251557D01*
X76707816Y-68155051D01*
X76782900Y-68100500D01*
X76879786Y-68030109D01*
X76879788Y-68030106D01*
X76879792Y-68030104D01*
X77030104Y-67879792D01*
X77030106Y-67879788D01*
X77030109Y-67879786D01*
X77139086Y-67729789D01*
X77155051Y-67707816D01*
X77251557Y-67518412D01*
X77317246Y-67316243D01*
X77350500Y-67106287D01*
X77350500Y-66893713D01*
X77317246Y-66683757D01*
X77251557Y-66481588D01*
X77155051Y-66292184D01*
X77155049Y-66292181D01*
X77155048Y-66292179D01*
X77030109Y-66120213D01*
X76879786Y-65969890D01*
X76707820Y-65844951D01*
X76518414Y-65748444D01*
X76518413Y-65748443D01*
X76518412Y-65748443D01*
X76316243Y-65682754D01*
X76316241Y-65682753D01*
X76316240Y-65682753D01*
X76154957Y-65657208D01*
X76106287Y-65649500D01*
X75893713Y-65649500D01*
X75845042Y-65657208D01*
X75683760Y-65682753D01*
X75481585Y-65748444D01*
X75292179Y-65844951D01*
X75120213Y-65969890D01*
X74969890Y-66120213D01*
X74844951Y-66292179D01*
X74748444Y-66481585D01*
X74682753Y-66683760D01*
X74649500Y-66893713D01*
X74649500Y-67073148D01*
X74629815Y-67140187D01*
X74577011Y-67185942D01*
X74507853Y-67195886D01*
X74444297Y-67166861D01*
X74437819Y-67160829D01*
X73924319Y-66647329D01*
X73890834Y-66586006D01*
X73888000Y-66559648D01*
X73888000Y-65004203D01*
X73887999Y-65004202D01*
X73879684Y-64962396D01*
X73859159Y-64859210D01*
X73858311Y-64857164D01*
X73856690Y-64849179D01*
X73859186Y-64819962D01*
X73858921Y-64790643D01*
X73862126Y-64785555D01*
X73862638Y-64779563D01*
X73880533Y-64756333D01*
X73896162Y-64731525D01*
X73901609Y-64728977D01*
X73905279Y-64724214D01*
X73932895Y-64714346D01*
X73959453Y-64701927D01*
X73969873Y-64701134D01*
X73971075Y-64700705D01*
X73972171Y-64700959D01*
X73978209Y-64700500D01*
X78587770Y-64700500D01*
X78654809Y-64720185D01*
X78675451Y-64736819D01*
X79750681Y-65812049D01*
X79784166Y-65873372D01*
X79787000Y-65899730D01*
X79787000Y-66675015D01*
X79797500Y-66777795D01*
X79797501Y-66777796D01*
X79852686Y-66944335D01*
X79852687Y-66944337D01*
X79944786Y-67093651D01*
X79944789Y-67093655D01*
X80068844Y-67217710D01*
X80068848Y-67217713D01*
X80218162Y-67309812D01*
X80218164Y-67309813D01*
X80218166Y-67309814D01*
X80384703Y-67364999D01*
X80487492Y-67375500D01*
X81262770Y-67375500D01*
X81329809Y-67395185D01*
X81350451Y-67411819D01*
X81846586Y-67907954D01*
X81876058Y-67927645D01*
X81920270Y-67957186D01*
X81969505Y-67990084D01*
X81969506Y-67990084D01*
X81969507Y-67990085D01*
X81969509Y-67990086D01*
X82066122Y-68030104D01*
X82106087Y-68046658D01*
X82106091Y-68046658D01*
X82106092Y-68046659D01*
X82251079Y-68075500D01*
X82251082Y-68075500D01*
X86208920Y-68075500D01*
X86306462Y-68056096D01*
X86353913Y-68046658D01*
X86490495Y-67990084D01*
X86539729Y-67957186D01*
X86539734Y-67957183D01*
X86576005Y-67932948D01*
X86613416Y-67907952D01*
X87084549Y-67436817D01*
X87145872Y-67403333D01*
X87172230Y-67400499D01*
X88407871Y-67400499D01*
X88407872Y-67400499D01*
X88467483Y-67394091D01*
X88602331Y-67343796D01*
X88717546Y-67257546D01*
X88803796Y-67142331D01*
X88821951Y-67093655D01*
X88833601Y-67062420D01*
X88875471Y-67006486D01*
X88940936Y-66982068D01*
X89009209Y-66996919D01*
X89037464Y-67018071D01*
X89087636Y-67068243D01*
X89087641Y-67068247D01*
X89166476Y-67125523D01*
X89265978Y-67197815D01*
X89394375Y-67263237D01*
X89462393Y-67297895D01*
X89462396Y-67297896D01*
X89518864Y-67316243D01*
X89672049Y-67366015D01*
X89889778Y-67400500D01*
X89889779Y-67400500D01*
X90110221Y-67400500D01*
X90110222Y-67400500D01*
X90327951Y-67366015D01*
X90537606Y-67297895D01*
X90734022Y-67197815D01*
X90912365Y-67068242D01*
X91068242Y-66912365D01*
X91197815Y-66734022D01*
X91297895Y-66537606D01*
X91366015Y-66327951D01*
X91400500Y-66110222D01*
X91400500Y-65889778D01*
X91366015Y-65672049D01*
X91307832Y-65492976D01*
X91297896Y-65462396D01*
X91297895Y-65462393D01*
X91263237Y-65394375D01*
X91197815Y-65265978D01*
X91139501Y-65185715D01*
X91068247Y-65087641D01*
X91068243Y-65087636D01*
X90912363Y-64931756D01*
X90912358Y-64931752D01*
X90734025Y-64802187D01*
X90734024Y-64802186D01*
X90734022Y-64802185D01*
X90669947Y-64769537D01*
X90537606Y-64702104D01*
X90537603Y-64702103D01*
X90327952Y-64633985D01*
X90219086Y-64616742D01*
X90110222Y-64599500D01*
X89889778Y-64599500D01*
X89889773Y-64599500D01*
X89754569Y-64620914D01*
X89685275Y-64611959D01*
X89647490Y-64586122D01*
X89128421Y-64067052D01*
X89128420Y-64067051D01*
X89116996Y-64059418D01*
X89042910Y-64009916D01*
X89042909Y-64009915D01*
X89005500Y-63984919D01*
X89005488Y-63984912D01*
X88868917Y-63928343D01*
X88868907Y-63928340D01*
X88723920Y-63899500D01*
X88723918Y-63899500D01*
X85398917Y-63899500D01*
X85251082Y-63899500D01*
X85251080Y-63899500D01*
X85106092Y-63928340D01*
X85106082Y-63928343D01*
X84969511Y-63984912D01*
X84969498Y-63984919D01*
X84846584Y-64067048D01*
X84846580Y-64067051D01*
X84325452Y-64588181D01*
X84264129Y-64621666D01*
X84237771Y-64624500D01*
X83462484Y-64624500D01*
X83359704Y-64635000D01*
X83359703Y-64635001D01*
X83193164Y-64690186D01*
X83193162Y-64690187D01*
X83043848Y-64782286D01*
X83043844Y-64782289D01*
X82919789Y-64906344D01*
X82919786Y-64906348D01*
X82827687Y-65055662D01*
X82827686Y-65055664D01*
X82772501Y-65222203D01*
X82772500Y-65222204D01*
X82762000Y-65324984D01*
X82762000Y-66401270D01*
X82742315Y-66468309D01*
X82689511Y-66514064D01*
X82620353Y-66524008D01*
X82556797Y-66494983D01*
X82550319Y-66488951D01*
X82249319Y-66187951D01*
X82215834Y-66126628D01*
X82213000Y-66100270D01*
X82213000Y-65324997D01*
X82212999Y-65324984D01*
X82202499Y-65222204D01*
X82202499Y-65222203D01*
X82147314Y-65055666D01*
X82145131Y-65052127D01*
X82055213Y-64906348D01*
X82055210Y-64906344D01*
X81931155Y-64782289D01*
X81931151Y-64782286D01*
X81781837Y-64690187D01*
X81781835Y-64690186D01*
X81698565Y-64662593D01*
X81615297Y-64635001D01*
X81615295Y-64635000D01*
X81512515Y-64624500D01*
X81512508Y-64624500D01*
X80737230Y-64624500D01*
X80670191Y-64604815D01*
X80649549Y-64588181D01*
X79428421Y-63367052D01*
X79428414Y-63367046D01*
X79354729Y-63317812D01*
X79354729Y-63317813D01*
X79305491Y-63284913D01*
X79168917Y-63228343D01*
X79168907Y-63228340D01*
X79023920Y-63199500D01*
X79023918Y-63199500D01*
X59976082Y-63199500D01*
X59976080Y-63199500D01*
X59831092Y-63228340D01*
X59831086Y-63228342D01*
X59694508Y-63284914D01*
X59694496Y-63284921D01*
X59645269Y-63317813D01*
X59571588Y-63367044D01*
X59571580Y-63367050D01*
X58350451Y-64588181D01*
X58289128Y-64621666D01*
X58262770Y-64624500D01*
X57736229Y-64624500D01*
X57669190Y-64604815D01*
X57623435Y-64552011D01*
X57613491Y-64482853D01*
X57642516Y-64419297D01*
X57648548Y-64412819D01*
X62024549Y-60036819D01*
X62085872Y-60003334D01*
X62112230Y-60000500D01*
X72633920Y-60000500D01*
X72731462Y-59981096D01*
X72778913Y-59971658D01*
X72915495Y-59915084D01*
X72964729Y-59882186D01*
X73038416Y-59832952D01*
X73544895Y-59326471D01*
X73606216Y-59292988D01*
X73651971Y-59291681D01*
X73707648Y-59300500D01*
X73707649Y-59300500D01*
X73912351Y-59300500D01*
X73912352Y-59300500D01*
X74114534Y-59268477D01*
X74309219Y-59205220D01*
X74491610Y-59112287D01*
X74584590Y-59044732D01*
X74657213Y-58991971D01*
X74657215Y-58991968D01*
X74657219Y-58991966D01*
X74801966Y-58847219D01*
X74819570Y-58822989D01*
X74835100Y-58801615D01*
X74890429Y-58758949D01*
X74935418Y-58750500D01*
X75073920Y-58750500D01*
X75171462Y-58731096D01*
X75218913Y-58721658D01*
X75355495Y-58665084D01*
X75417019Y-58623975D01*
X75478416Y-58582952D01*
X79274548Y-54786818D01*
X79335871Y-54753334D01*
X79362229Y-54750500D01*
X94038920Y-54750500D01*
X94136462Y-54731096D01*
X94183913Y-54721658D01*
X94320495Y-54665084D01*
X94369729Y-54632186D01*
X94443416Y-54582952D01*
X98265049Y-50761317D01*
X98326370Y-50727834D01*
X98359073Y-50725613D01*
X98359073Y-50725500D01*
X98360746Y-50725500D01*
X98362469Y-50725383D01*
X98363936Y-50725498D01*
X98363945Y-50725500D01*
X98363954Y-50725500D01*
X98556054Y-50725500D01*
X98556055Y-50725500D01*
X98745801Y-50695447D01*
X98928509Y-50636082D01*
X99099681Y-50548865D01*
X99255102Y-50435945D01*
X99390945Y-50300102D01*
X99503865Y-50144681D01*
X99591082Y-49973509D01*
X99606492Y-49926082D01*
X99612069Y-49908919D01*
X99629865Y-49882892D01*
X99646155Y-49855879D01*
X99649440Y-49854263D01*
X99651506Y-49851243D01*
X99680553Y-49838966D01*
X99708856Y-49825052D01*
X99712491Y-49825469D01*
X99715864Y-49824044D01*
X99746944Y-49829422D01*
G37*
%TD.AperFunction*%
%TA.AperFunction,NonConductor*%
G36*
X72545430Y-67395185D02*
G01*
X72566072Y-67411819D01*
X74442073Y-69287819D01*
X74475558Y-69349142D01*
X74470574Y-69418834D01*
X74428702Y-69474767D01*
X74363238Y-69499184D01*
X74354392Y-69499500D01*
X60800570Y-69499500D01*
X60733531Y-69479815D01*
X60687776Y-69427011D01*
X60677832Y-69357853D01*
X60706857Y-69294297D01*
X60712889Y-69287819D01*
X61863888Y-68136819D01*
X61925211Y-68103334D01*
X61951569Y-68100500D01*
X63263920Y-68100500D01*
X63389598Y-68075500D01*
X63408913Y-68071658D01*
X63545495Y-68015084D01*
X63594729Y-67982186D01*
X63668416Y-67932952D01*
X64187492Y-67413874D01*
X64248813Y-67380391D01*
X64294565Y-67379084D01*
X64429778Y-67400500D01*
X64429780Y-67400500D01*
X64650220Y-67400500D01*
X64650222Y-67400500D01*
X64785431Y-67379084D01*
X64854722Y-67388038D01*
X64892508Y-67413876D01*
X65386586Y-67907954D01*
X65416058Y-67927645D01*
X65460270Y-67957186D01*
X65509505Y-67990084D01*
X65509506Y-67990084D01*
X65509507Y-67990085D01*
X65509509Y-67990086D01*
X65606122Y-68030104D01*
X65646087Y-68046658D01*
X65646091Y-68046658D01*
X65646092Y-68046659D01*
X65791079Y-68075500D01*
X65791082Y-68075500D01*
X70723920Y-68075500D01*
X70821462Y-68056096D01*
X70868913Y-68046658D01*
X71005495Y-67990084D01*
X71054729Y-67957186D01*
X71054734Y-67957183D01*
X71091005Y-67932948D01*
X71128416Y-67907952D01*
X71624549Y-67411819D01*
X71685872Y-67378334D01*
X71712230Y-67375500D01*
X72478391Y-67375500D01*
X72545430Y-67395185D01*
G37*
%TD.AperFunction*%
%TA.AperFunction,NonConductor*%
G36*
X60565674Y-64709145D02*
G01*
X60595657Y-64715668D01*
X60598887Y-64718898D01*
X60603270Y-64720185D01*
X60623362Y-64743372D01*
X60645063Y-64765073D01*
X60646034Y-64769537D01*
X60649025Y-64772989D01*
X60653392Y-64803360D01*
X60659915Y-64833346D01*
X60658583Y-64839466D01*
X60658969Y-64842147D01*
X60652413Y-64867833D01*
X60605908Y-64992517D01*
X60599501Y-65052116D01*
X60599500Y-65052135D01*
X60599500Y-66947870D01*
X60599501Y-66947876D01*
X60605908Y-67007483D01*
X60649935Y-67125523D01*
X60654919Y-67195214D01*
X60621434Y-67256537D01*
X58667047Y-69210924D01*
X58667043Y-69210929D01*
X58641273Y-69249499D01*
X58641273Y-69249500D01*
X58584913Y-69333848D01*
X58528343Y-69470422D01*
X58528340Y-69470432D01*
X58499500Y-69615419D01*
X58499500Y-78500500D01*
X58479815Y-78567539D01*
X58427011Y-78613294D01*
X58375500Y-78624500D01*
X57737230Y-78624500D01*
X57670191Y-78604815D01*
X57649549Y-78588181D01*
X56974319Y-77912951D01*
X56940834Y-77851628D01*
X56938000Y-77825270D01*
X56938000Y-68924500D01*
X56957685Y-68857461D01*
X57010489Y-68811706D01*
X57062000Y-68800500D01*
X57078844Y-68800500D01*
X57078845Y-68800499D01*
X57233497Y-68769737D01*
X57379179Y-68709394D01*
X57510289Y-68621789D01*
X57621789Y-68510289D01*
X57709394Y-68379179D01*
X57719191Y-68355524D01*
X57746069Y-68315297D01*
X58582952Y-67478415D01*
X58619621Y-67423535D01*
X58647424Y-67381924D01*
X58701033Y-67337122D01*
X58711482Y-67333125D01*
X58781834Y-67309814D01*
X58931155Y-67217711D01*
X59055211Y-67093655D01*
X59147314Y-66944334D01*
X59202499Y-66777797D01*
X59213000Y-66675008D01*
X59213000Y-65899729D01*
X59232685Y-65832691D01*
X59249319Y-65812049D01*
X60324549Y-64736819D01*
X60385872Y-64703334D01*
X60412230Y-64700500D01*
X60536231Y-64700500D01*
X60565674Y-64709145D01*
G37*
%TD.AperFunction*%
%TA.AperFunction,NonConductor*%
G36*
X55380039Y-67395185D02*
G01*
X55425794Y-67447989D01*
X55437000Y-67499500D01*
X55437000Y-78261418D01*
X55437000Y-78261420D01*
X55436999Y-78261420D01*
X55465840Y-78406407D01*
X55465841Y-78406408D01*
X55465842Y-78406413D01*
X55485159Y-78453048D01*
X55492627Y-78522518D01*
X55461351Y-78584997D01*
X55401262Y-78620649D01*
X55370597Y-78624500D01*
X54762230Y-78624500D01*
X54695191Y-78604815D01*
X54674549Y-78588181D01*
X54153421Y-78067052D01*
X54153414Y-78067046D01*
X54079729Y-78017812D01*
X54079729Y-78017813D01*
X54030491Y-77984913D01*
X53893917Y-77928343D01*
X53893907Y-77928340D01*
X53748920Y-77899500D01*
X53748918Y-77899500D01*
X49883917Y-77899500D01*
X49736082Y-77899500D01*
X49736080Y-77899500D01*
X49591092Y-77928340D01*
X49591082Y-77928343D01*
X49454511Y-77984912D01*
X49454498Y-77984919D01*
X49331584Y-78067048D01*
X49331580Y-78067051D01*
X48835451Y-78563181D01*
X48774128Y-78596666D01*
X48747770Y-78599500D01*
X47984500Y-78599500D01*
X47917461Y-78579815D01*
X47871706Y-78527011D01*
X47860500Y-78475500D01*
X47860500Y-67712228D01*
X47880185Y-67645189D01*
X47896815Y-67624551D01*
X48084548Y-67436817D01*
X48145871Y-67403333D01*
X48172229Y-67400499D01*
X48747769Y-67400499D01*
X48814808Y-67420184D01*
X48835450Y-67436818D01*
X49331580Y-67932948D01*
X49331584Y-67932951D01*
X49454498Y-68015080D01*
X49454511Y-68015087D01*
X49591082Y-68071656D01*
X49591087Y-68071658D01*
X49591091Y-68071658D01*
X49591092Y-68071659D01*
X49736079Y-68100500D01*
X49736082Y-68100500D01*
X53748920Y-68100500D01*
X53874598Y-68075500D01*
X53893913Y-68071658D01*
X54030495Y-68015084D01*
X54079729Y-67982186D01*
X54153416Y-67932952D01*
X54674549Y-67411819D01*
X54735872Y-67378334D01*
X54762230Y-67375500D01*
X55313000Y-67375500D01*
X55380039Y-67395185D01*
G37*
%TD.AperFunction*%
%TA.AperFunction,NonConductor*%
G36*
X56443203Y-79505017D02*
G01*
X56449681Y-79511049D01*
X56750681Y-79812049D01*
X56765384Y-79838976D01*
X56781977Y-79864795D01*
X56782868Y-79870995D01*
X56784166Y-79873372D01*
X56787000Y-79899729D01*
X56787000Y-80100270D01*
X56767315Y-80167309D01*
X56750681Y-80187951D01*
X56449681Y-80488951D01*
X56388358Y-80522436D01*
X56318666Y-80517452D01*
X56262733Y-80475580D01*
X56238316Y-80410116D01*
X56238000Y-80401270D01*
X56238000Y-79598730D01*
X56257685Y-79531691D01*
X56310489Y-79485936D01*
X56379647Y-79475992D01*
X56443203Y-79505017D01*
G37*
%TD.AperFunction*%
%TA.AperFunction,NonConductor*%
G36*
X98518834Y-79620047D02*
G01*
X98574767Y-79661919D01*
X98599184Y-79727383D01*
X98599500Y-79736229D01*
X98599500Y-80287769D01*
X98590855Y-80317209D01*
X98584332Y-80347196D01*
X98580577Y-80352211D01*
X98579815Y-80354808D01*
X98563185Y-80375445D01*
X98400449Y-80538182D01*
X98339128Y-80571666D01*
X98312770Y-80574500D01*
X98312000Y-80574500D01*
X98290506Y-80568188D01*
X98269437Y-80566682D01*
X98259150Y-80558981D01*
X98244961Y-80554815D01*
X98229041Y-80536442D01*
X98213503Y-80524811D01*
X98209377Y-80513749D01*
X98199206Y-80502011D01*
X98191097Y-80464740D01*
X98189086Y-80459346D01*
X98189505Y-80457418D01*
X98188000Y-80450500D01*
X98188000Y-79899729D01*
X98207685Y-79832690D01*
X98224319Y-79812048D01*
X98387819Y-79648548D01*
X98449142Y-79615063D01*
X98518834Y-79620047D01*
G37*
%TD.AperFunction*%
%TA.AperFunction,NonConductor*%
G36*
X53379809Y-79420185D02*
G01*
X53400451Y-79436819D01*
X53775681Y-79812048D01*
X53809166Y-79873371D01*
X53812000Y-79899729D01*
X53812000Y-80450500D01*
X53792315Y-80517539D01*
X53739511Y-80563294D01*
X53688000Y-80574500D01*
X52687230Y-80574500D01*
X52620191Y-80554815D01*
X52599549Y-80538181D01*
X52413876Y-80352508D01*
X52380391Y-80291185D01*
X52379084Y-80245434D01*
X52400500Y-80110222D01*
X52400500Y-79889778D01*
X52366015Y-79672049D01*
X52362724Y-79661919D01*
X52330525Y-79562817D01*
X52328530Y-79492976D01*
X52364611Y-79433143D01*
X52427312Y-79402316D01*
X52448456Y-79400500D01*
X53312770Y-79400500D01*
X53379809Y-79420185D01*
G37*
%TD.AperFunction*%
%TA.AperFunction,NonConductor*%
G36*
X47365703Y-93427517D02*
G01*
X47372181Y-93433549D01*
X48326451Y-94387819D01*
X48337063Y-94407255D01*
X48351564Y-94423989D01*
X48353480Y-94437320D01*
X48359936Y-94449142D01*
X48358356Y-94471228D01*
X48361508Y-94493147D01*
X48355912Y-94505398D01*
X48354952Y-94518834D01*
X48341681Y-94536560D01*
X48332483Y-94556703D01*
X48321151Y-94563985D01*
X48313080Y-94574767D01*
X48292334Y-94582504D01*
X48273705Y-94594477D01*
X48251786Y-94597628D01*
X48247616Y-94599184D01*
X48238770Y-94599500D01*
X48172230Y-94599500D01*
X48105191Y-94579815D01*
X48084549Y-94563181D01*
X47196819Y-93675451D01*
X47163334Y-93614128D01*
X47160500Y-93587770D01*
X47160500Y-93521230D01*
X47180185Y-93454191D01*
X47232989Y-93408436D01*
X47302147Y-93398492D01*
X47365703Y-93427517D01*
G37*
%TD.AperFunction*%
%TA.AperFunction,NonConductor*%
G36*
X99002540Y-95770185D02*
G01*
X99048295Y-95822989D01*
X99059501Y-95874500D01*
X99059501Y-95947876D01*
X99065908Y-96007483D01*
X99093764Y-96082167D01*
X99098748Y-96151859D01*
X99065263Y-96213182D01*
X99003939Y-96246666D01*
X98977582Y-96249500D01*
X98276085Y-96249500D01*
X98209046Y-96229815D01*
X98163291Y-96177011D01*
X98158379Y-96164504D01*
X98131095Y-96082167D01*
X98122314Y-96055666D01*
X98122312Y-96055662D01*
X98050722Y-95939597D01*
X98032281Y-95872205D01*
X98053203Y-95805541D01*
X98106845Y-95760771D01*
X98156260Y-95750500D01*
X98935501Y-95750500D01*
X99002540Y-95770185D01*
G37*
%TD.AperFunction*%
%TA.AperFunction,NonConductor*%
G36*
X95681334Y-96482546D02*
G01*
X95737267Y-96524418D01*
X95761684Y-96589882D01*
X95762000Y-96598728D01*
X95762000Y-97401270D01*
X95742315Y-97468309D01*
X95689511Y-97514064D01*
X95620353Y-97524008D01*
X95556797Y-97494983D01*
X95550319Y-97488951D01*
X95249319Y-97187951D01*
X95234615Y-97161023D01*
X95218023Y-97135205D01*
X95217131Y-97129004D01*
X95215834Y-97126628D01*
X95213000Y-97100270D01*
X95213000Y-96899728D01*
X95232685Y-96832689D01*
X95249315Y-96812051D01*
X95550319Y-96511046D01*
X95611642Y-96477562D01*
X95681334Y-96482546D01*
G37*
%TD.AperFunction*%
%TA.AperFunction,NonConductor*%
G36*
X103566856Y-67364609D02*
G01*
X103597684Y-67427310D01*
X103599500Y-67448455D01*
X103599500Y-78795293D01*
X103579815Y-78862332D01*
X103527011Y-78908087D01*
X103457853Y-78918031D01*
X103402615Y-78895612D01*
X103274021Y-78802184D01*
X103077606Y-78702104D01*
X103077603Y-78702103D01*
X102867952Y-78633985D01*
X102759086Y-78616742D01*
X102650222Y-78599500D01*
X102429778Y-78599500D01*
X102429773Y-78599500D01*
X102294569Y-78620914D01*
X102225275Y-78611959D01*
X102187490Y-78586122D01*
X101668421Y-78067052D01*
X101668414Y-78067046D01*
X101594729Y-78017812D01*
X101594729Y-78017813D01*
X101545491Y-77984913D01*
X101408917Y-77928343D01*
X101408907Y-77928340D01*
X101263920Y-77899500D01*
X101263918Y-77899500D01*
X99199500Y-77899500D01*
X99132461Y-77879815D01*
X99086706Y-77827011D01*
X99075500Y-77775500D01*
X99075500Y-71251079D01*
X99046659Y-71106092D01*
X99046658Y-71106091D01*
X99046658Y-71106087D01*
X98990084Y-70969505D01*
X98957186Y-70920270D01*
X98957185Y-70920268D01*
X98907956Y-70846589D01*
X98907952Y-70846584D01*
X97746071Y-69684703D01*
X97719191Y-69644475D01*
X97709394Y-69620821D01*
X97709389Y-69620814D01*
X97621789Y-69489710D01*
X97510292Y-69378213D01*
X97510288Y-69378210D01*
X97379185Y-69290609D01*
X97379172Y-69290602D01*
X97233501Y-69230264D01*
X97233489Y-69230261D01*
X97078845Y-69199500D01*
X97078842Y-69199500D01*
X96921158Y-69199500D01*
X96921155Y-69199500D01*
X96766510Y-69230261D01*
X96766498Y-69230264D01*
X96620827Y-69290602D01*
X96620814Y-69290609D01*
X96489711Y-69378210D01*
X96489707Y-69378213D01*
X96378213Y-69489707D01*
X96378210Y-69489711D01*
X96290609Y-69620814D01*
X96290602Y-69620827D01*
X96230264Y-69766498D01*
X96230261Y-69766510D01*
X96199500Y-69921153D01*
X96199500Y-70078846D01*
X96230261Y-70233489D01*
X96230264Y-70233501D01*
X96290602Y-70379172D01*
X96290609Y-70379185D01*
X96378210Y-70510288D01*
X96378213Y-70510292D01*
X96489710Y-70621789D01*
X96620815Y-70709390D01*
X96620821Y-70709394D01*
X96644475Y-70719191D01*
X96684703Y-70746071D01*
X97538181Y-71599549D01*
X97571666Y-71660872D01*
X97574500Y-71687230D01*
X97574500Y-78287770D01*
X97554815Y-78354809D01*
X97538181Y-78375451D01*
X97325452Y-78588181D01*
X97264129Y-78621666D01*
X97237771Y-78624500D01*
X96462484Y-78624500D01*
X96359704Y-78635000D01*
X96359703Y-78635001D01*
X96193164Y-78690186D01*
X96193162Y-78690187D01*
X96043848Y-78782286D01*
X96043844Y-78782289D01*
X95919789Y-78906344D01*
X95919786Y-78906348D01*
X95827687Y-79055662D01*
X95827686Y-79055664D01*
X95772501Y-79222203D01*
X95772500Y-79222204D01*
X95762000Y-79324984D01*
X95762000Y-80401270D01*
X95742315Y-80468309D01*
X95689511Y-80514064D01*
X95620353Y-80524008D01*
X95556797Y-80494983D01*
X95550319Y-80488951D01*
X95249319Y-80187951D01*
X95215834Y-80126628D01*
X95213000Y-80100270D01*
X95213000Y-79324997D01*
X95212999Y-79324984D01*
X95202499Y-79222204D01*
X95202499Y-79222203D01*
X95147314Y-79055666D01*
X95056285Y-78908087D01*
X95055213Y-78906348D01*
X95055210Y-78906344D01*
X94931154Y-78782288D01*
X94809402Y-78707190D01*
X94762678Y-78655242D01*
X94750500Y-78601652D01*
X94750500Y-73304604D01*
X94759939Y-73257151D01*
X94769737Y-73233497D01*
X94800500Y-73078842D01*
X94800500Y-72921158D01*
X94800500Y-72921155D01*
X94800499Y-72921153D01*
X94769738Y-72766510D01*
X94769737Y-72766503D01*
X94769735Y-72766498D01*
X94709397Y-72620827D01*
X94709390Y-72620814D01*
X94621789Y-72489711D01*
X94621786Y-72489707D01*
X94510292Y-72378213D01*
X94510288Y-72378210D01*
X94379185Y-72290609D01*
X94379172Y-72290602D01*
X94233501Y-72230264D01*
X94233489Y-72230261D01*
X94078845Y-72199500D01*
X94078842Y-72199500D01*
X93921158Y-72199500D01*
X93921155Y-72199500D01*
X93766510Y-72230261D01*
X93766498Y-72230264D01*
X93620827Y-72290602D01*
X93620814Y-72290609D01*
X93489711Y-72378210D01*
X93489707Y-72378213D01*
X93378213Y-72489707D01*
X93378210Y-72489711D01*
X93290609Y-72620814D01*
X93290602Y-72620827D01*
X93230264Y-72766498D01*
X93230261Y-72766510D01*
X93199500Y-72921153D01*
X93199500Y-73078846D01*
X93230261Y-73233489D01*
X93230263Y-73233497D01*
X93240061Y-73257151D01*
X93249500Y-73304604D01*
X93249500Y-78601652D01*
X93229815Y-78668691D01*
X93190598Y-78707190D01*
X93068845Y-78782288D01*
X92944789Y-78906344D01*
X92944786Y-78906348D01*
X92852687Y-79055662D01*
X92852686Y-79055664D01*
X92797501Y-79222203D01*
X92797500Y-79222204D01*
X92787000Y-79324984D01*
X92787000Y-80675015D01*
X92797500Y-80777795D01*
X92797501Y-80777796D01*
X92852686Y-80944335D01*
X92852687Y-80944337D01*
X92944786Y-81093651D01*
X92944789Y-81093655D01*
X93068844Y-81217710D01*
X93068848Y-81217713D01*
X93218162Y-81309812D01*
X93218164Y-81309813D01*
X93218166Y-81309814D01*
X93384703Y-81364999D01*
X93487492Y-81375500D01*
X94262770Y-81375500D01*
X94329809Y-81395185D01*
X94350451Y-81411819D01*
X94846578Y-81907947D01*
X94846585Y-81907953D01*
X94911129Y-81951079D01*
X94911131Y-81951080D01*
X94911134Y-81951082D01*
X94969505Y-81990084D01*
X95106087Y-82046658D01*
X95106091Y-82046658D01*
X95106092Y-82046659D01*
X95251079Y-82075500D01*
X95251082Y-82075500D01*
X98748920Y-82075500D01*
X98846462Y-82056096D01*
X98893913Y-82046658D01*
X99030495Y-81990084D01*
X99088866Y-81951082D01*
X99088866Y-81951081D01*
X99088868Y-81951081D01*
X99121141Y-81929517D01*
X99153416Y-81907952D01*
X99624549Y-81436817D01*
X99685872Y-81403333D01*
X99712230Y-81400499D01*
X100947871Y-81400499D01*
X100947872Y-81400499D01*
X101007483Y-81394091D01*
X101142331Y-81343796D01*
X101257546Y-81257546D01*
X101343796Y-81142331D01*
X101361951Y-81093655D01*
X101373601Y-81062420D01*
X101415471Y-81006486D01*
X101480936Y-80982068D01*
X101549209Y-80996919D01*
X101577464Y-81018071D01*
X101627636Y-81068243D01*
X101627641Y-81068247D01*
X101783192Y-81181260D01*
X101805978Y-81197815D01*
X101934375Y-81263237D01*
X102002393Y-81297895D01*
X102002396Y-81297896D01*
X102039071Y-81309812D01*
X102212049Y-81366015D01*
X102429778Y-81400500D01*
X102429779Y-81400500D01*
X102650221Y-81400500D01*
X102650222Y-81400500D01*
X102867951Y-81366015D01*
X103077606Y-81297895D01*
X103274022Y-81197815D01*
X103342281Y-81148222D01*
X103402615Y-81104388D01*
X103468421Y-81080908D01*
X103536475Y-81096734D01*
X103585170Y-81146840D01*
X103599500Y-81204706D01*
X103599500Y-93287769D01*
X103579815Y-93354808D01*
X103563181Y-93375450D01*
X103352508Y-93586122D01*
X103291185Y-93619607D01*
X103245429Y-93620914D01*
X103110227Y-93599500D01*
X103110222Y-93599500D01*
X102889778Y-93599500D01*
X102817201Y-93610995D01*
X102672047Y-93633985D01*
X102462396Y-93702103D01*
X102462393Y-93702104D01*
X102265974Y-93802187D01*
X102087641Y-93931752D01*
X102087636Y-93931756D01*
X102037463Y-93981929D01*
X101976140Y-94015413D01*
X101906448Y-94010428D01*
X101850515Y-93968557D01*
X101833601Y-93937580D01*
X101803797Y-93857671D01*
X101803793Y-93857664D01*
X101717547Y-93742455D01*
X101717544Y-93742452D01*
X101602335Y-93656206D01*
X101602328Y-93656202D01*
X101467482Y-93605908D01*
X101467483Y-93605908D01*
X101407883Y-93599501D01*
X101407881Y-93599500D01*
X101407873Y-93599500D01*
X101407864Y-93599500D01*
X99512129Y-93599500D01*
X99512123Y-93599501D01*
X99452516Y-93605908D01*
X99317671Y-93656202D01*
X99317664Y-93656206D01*
X99202455Y-93742452D01*
X99202452Y-93742455D01*
X99116206Y-93857664D01*
X99116202Y-93857671D01*
X99065908Y-93992517D01*
X99059501Y-94052116D01*
X99059500Y-94052135D01*
X99059500Y-94125500D01*
X99039815Y-94192539D01*
X98987011Y-94238294D01*
X98935500Y-94249500D01*
X95926080Y-94249500D01*
X95781092Y-94278340D01*
X95781082Y-94278343D01*
X95644511Y-94334912D01*
X95644498Y-94334919D01*
X95521584Y-94417048D01*
X95521580Y-94417051D01*
X94350451Y-95588181D01*
X94289128Y-95621666D01*
X94262770Y-95624500D01*
X93487484Y-95624500D01*
X93384704Y-95635000D01*
X93384703Y-95635001D01*
X93218164Y-95690186D01*
X93218162Y-95690187D01*
X93068848Y-95782286D01*
X93068844Y-95782289D01*
X92944789Y-95906344D01*
X92944786Y-95906348D01*
X92852687Y-96055662D01*
X92852686Y-96055664D01*
X92797501Y-96222203D01*
X92797500Y-96222204D01*
X92787000Y-96324984D01*
X92787000Y-97675015D01*
X92797500Y-97777795D01*
X92797501Y-97777796D01*
X92852686Y-97944335D01*
X92852687Y-97944337D01*
X92944786Y-98093651D01*
X92944789Y-98093655D01*
X93068844Y-98217710D01*
X93068848Y-98217713D01*
X93218162Y-98309812D01*
X93218164Y-98309813D01*
X93218166Y-98309814D01*
X93384703Y-98364999D01*
X93487492Y-98375500D01*
X94262770Y-98375500D01*
X94329809Y-98395185D01*
X94350451Y-98411819D01*
X94846586Y-98907954D01*
X94876058Y-98927645D01*
X94920270Y-98957186D01*
X94969505Y-98990084D01*
X94969506Y-98990084D01*
X94969507Y-98990085D01*
X94969509Y-98990086D01*
X95106082Y-99046656D01*
X95106087Y-99046658D01*
X95106091Y-99046658D01*
X95106092Y-99046659D01*
X95251079Y-99075500D01*
X95251082Y-99075500D01*
X101658109Y-99075500D01*
X101755651Y-99056096D01*
X101803102Y-99046658D01*
X101939684Y-98990084D01*
X101988918Y-98957186D01*
X101988923Y-98957183D01*
X102013260Y-98940921D01*
X102062605Y-98907952D01*
X105287819Y-95682738D01*
X105349142Y-95649253D01*
X105418834Y-95654237D01*
X105474767Y-95696109D01*
X105499184Y-95761573D01*
X105499500Y-95770419D01*
X105499500Y-99375500D01*
X105479815Y-99442539D01*
X105427011Y-99488294D01*
X105375500Y-99499500D01*
X92624500Y-99499500D01*
X92557461Y-99479815D01*
X92511706Y-99427011D01*
X92500500Y-99375500D01*
X92500500Y-86393713D01*
X93649500Y-86393713D01*
X93649500Y-86606286D01*
X93682753Y-86816239D01*
X93748444Y-87018414D01*
X93844951Y-87207820D01*
X93969890Y-87379786D01*
X94120213Y-87530109D01*
X94292179Y-87655048D01*
X94292181Y-87655049D01*
X94292184Y-87655051D01*
X94481588Y-87751557D01*
X94683757Y-87817246D01*
X94893713Y-87850500D01*
X94893714Y-87850500D01*
X95106286Y-87850500D01*
X95106287Y-87850500D01*
X95316243Y-87817246D01*
X95518412Y-87751557D01*
X95707816Y-87655051D01*
X95729789Y-87639086D01*
X95879786Y-87530109D01*
X95879788Y-87530106D01*
X95879792Y-87530104D01*
X96030104Y-87379792D01*
X96030106Y-87379788D01*
X96030109Y-87379786D01*
X96155048Y-87207820D01*
X96155047Y-87207820D01*
X96155051Y-87207816D01*
X96251557Y-87018412D01*
X96317246Y-86816243D01*
X96350500Y-86606287D01*
X96350500Y-86393713D01*
X96317246Y-86183757D01*
X96251557Y-85981588D01*
X96155051Y-85792184D01*
X96155049Y-85792181D01*
X96155048Y-85792179D01*
X96030109Y-85620213D01*
X95879786Y-85469890D01*
X95707820Y-85344951D01*
X95518414Y-85248444D01*
X95518413Y-85248443D01*
X95518412Y-85248443D01*
X95316243Y-85182754D01*
X95316241Y-85182753D01*
X95316240Y-85182753D01*
X95154957Y-85157208D01*
X95106287Y-85149500D01*
X94893713Y-85149500D01*
X94845042Y-85157208D01*
X94683760Y-85182753D01*
X94481585Y-85248444D01*
X94292179Y-85344951D01*
X94120213Y-85469890D01*
X93969890Y-85620213D01*
X93844951Y-85792179D01*
X93748444Y-85981585D01*
X93682753Y-86183760D01*
X93649500Y-86393713D01*
X92500500Y-86393713D01*
X92500500Y-70124500D01*
X92520185Y-70057461D01*
X92572989Y-70011706D01*
X92624500Y-70000500D01*
X93798920Y-70000500D01*
X93896462Y-69981096D01*
X93943913Y-69971658D01*
X94080495Y-69915084D01*
X94129729Y-69882186D01*
X94203416Y-69832952D01*
X96624549Y-67411819D01*
X96685872Y-67378334D01*
X96712230Y-67375500D01*
X97237771Y-67375500D01*
X97304810Y-67395185D01*
X97325452Y-67411819D01*
X97742049Y-67828416D01*
X97821583Y-67907950D01*
X97846585Y-67932952D01*
X97969498Y-68015080D01*
X97969511Y-68015087D01*
X98106082Y-68071656D01*
X98106087Y-68071658D01*
X98106091Y-68071658D01*
X98106092Y-68071659D01*
X98251079Y-68100500D01*
X98251082Y-68100500D01*
X101723920Y-68100500D01*
X101849598Y-68075500D01*
X101868913Y-68071658D01*
X102005495Y-68015084D01*
X102054729Y-67982186D01*
X102128416Y-67932952D01*
X102647492Y-67413874D01*
X102708813Y-67380391D01*
X102754565Y-67379084D01*
X102889778Y-67400500D01*
X102889780Y-67400500D01*
X103110221Y-67400500D01*
X103110222Y-67400500D01*
X103327951Y-67366015D01*
X103437182Y-67330523D01*
X103507023Y-67328529D01*
X103566856Y-67364609D01*
G37*
%TD.AperFunction*%
%TA.AperFunction,NonConductor*%
G36*
X48814808Y-81420184D02*
G01*
X48835450Y-81436818D01*
X49902048Y-82503415D01*
X49902049Y-82503416D01*
X50006583Y-82607950D01*
X50006585Y-82607952D01*
X50129498Y-82690080D01*
X50129511Y-82690087D01*
X50266082Y-82746656D01*
X50266087Y-82746658D01*
X50266091Y-82746658D01*
X50266092Y-82746659D01*
X50411079Y-82775500D01*
X50411082Y-82775500D01*
X58133298Y-82775500D01*
X58230840Y-82756096D01*
X58278291Y-82746658D01*
X58414873Y-82690084D01*
X58464107Y-82657186D01*
X58537794Y-82607952D01*
X59287819Y-81857927D01*
X59349142Y-81824442D01*
X59418834Y-81829426D01*
X59474767Y-81871298D01*
X59499184Y-81936762D01*
X59499500Y-81945608D01*
X59499500Y-99375500D01*
X59479815Y-99442539D01*
X59427011Y-99488294D01*
X59375500Y-99499500D01*
X45624500Y-99499500D01*
X45557461Y-99479815D01*
X45511706Y-99427011D01*
X45500500Y-99375500D01*
X45500500Y-94338813D01*
X45520185Y-94271774D01*
X45572989Y-94226019D01*
X45642147Y-94216075D01*
X45705703Y-94245100D01*
X45731201Y-94275639D01*
X45735689Y-94283220D01*
X45744916Y-94305495D01*
X45777813Y-94354729D01*
X45779692Y-94357541D01*
X45779702Y-94357558D01*
X45827046Y-94428414D01*
X45827052Y-94428421D01*
X47023181Y-95624549D01*
X47056666Y-95685872D01*
X47059500Y-95712230D01*
X47059500Y-96947870D01*
X47059501Y-96947876D01*
X47065908Y-97007483D01*
X47116202Y-97142328D01*
X47116206Y-97142335D01*
X47202452Y-97257544D01*
X47202455Y-97257547D01*
X47317664Y-97343793D01*
X47317671Y-97343797D01*
X47452517Y-97394091D01*
X47452516Y-97394091D01*
X47459444Y-97394835D01*
X47512127Y-97400500D01*
X48747769Y-97400499D01*
X48814808Y-97420184D01*
X48835450Y-97436818D01*
X49331580Y-97932948D01*
X49331584Y-97932951D01*
X49454498Y-98015080D01*
X49454511Y-98015087D01*
X49591082Y-98071656D01*
X49591087Y-98071658D01*
X49591091Y-98071658D01*
X49591092Y-98071659D01*
X49736079Y-98100500D01*
X49736082Y-98100500D01*
X49883917Y-98100500D01*
X53872772Y-98100500D01*
X53939811Y-98120185D01*
X53960453Y-98136819D01*
X54041344Y-98217710D01*
X54041348Y-98217713D01*
X54190662Y-98309812D01*
X54190664Y-98309813D01*
X54190666Y-98309814D01*
X54357203Y-98364999D01*
X54459992Y-98375500D01*
X54459997Y-98375500D01*
X55485003Y-98375500D01*
X55485008Y-98375500D01*
X55587797Y-98364999D01*
X55754334Y-98309814D01*
X55903655Y-98217711D01*
X56027711Y-98093655D01*
X56119814Y-97944334D01*
X56174999Y-97777797D01*
X56185500Y-97675008D01*
X56185500Y-96598730D01*
X56205185Y-96531691D01*
X56257989Y-96485936D01*
X56327147Y-96475992D01*
X56390703Y-96505017D01*
X56397181Y-96511049D01*
X56698181Y-96812049D01*
X56731666Y-96873372D01*
X56734500Y-96899730D01*
X56734500Y-97675015D01*
X56745000Y-97777795D01*
X56745001Y-97777796D01*
X56800186Y-97944335D01*
X56800187Y-97944337D01*
X56892286Y-98093651D01*
X56892289Y-98093655D01*
X57016344Y-98217710D01*
X57016348Y-98217713D01*
X57165662Y-98309812D01*
X57165664Y-98309813D01*
X57165666Y-98309814D01*
X57332203Y-98364999D01*
X57434992Y-98375500D01*
X57434997Y-98375500D01*
X58460003Y-98375500D01*
X58460008Y-98375500D01*
X58562797Y-98364999D01*
X58729334Y-98309814D01*
X58878655Y-98217711D01*
X59002711Y-98093655D01*
X59094814Y-97944334D01*
X59149999Y-97777797D01*
X59160500Y-97675008D01*
X59160500Y-96324992D01*
X59149999Y-96222203D01*
X59094814Y-96055666D01*
X59065094Y-96007483D01*
X59002713Y-95906348D01*
X59002710Y-95906344D01*
X58878655Y-95782289D01*
X58878651Y-95782286D01*
X58729337Y-95690187D01*
X58729335Y-95690186D01*
X58620847Y-95654237D01*
X58562797Y-95635001D01*
X58562795Y-95635000D01*
X58460015Y-95624500D01*
X58460008Y-95624500D01*
X57684730Y-95624500D01*
X57617691Y-95604815D01*
X57597049Y-95588181D01*
X57100921Y-95092052D01*
X57100914Y-95092046D01*
X57027229Y-95042812D01*
X57027229Y-95042813D01*
X56977991Y-95009913D01*
X56841417Y-94953343D01*
X56841407Y-94953340D01*
X56696420Y-94924500D01*
X56696418Y-94924500D01*
X51942665Y-94924500D01*
X51875626Y-94904815D01*
X51869780Y-94900818D01*
X51734025Y-94802187D01*
X51734024Y-94802186D01*
X51734022Y-94802185D01*
X51671096Y-94770122D01*
X51537606Y-94702104D01*
X51537603Y-94702103D01*
X51327952Y-94633985D01*
X51219086Y-94616742D01*
X51110222Y-94599500D01*
X50889778Y-94599500D01*
X50889773Y-94599500D01*
X50754569Y-94620914D01*
X50685275Y-94611959D01*
X50647490Y-94586122D01*
X47896819Y-91835451D01*
X47863334Y-91774128D01*
X47860500Y-91747770D01*
X47860500Y-86393713D01*
X55649500Y-86393713D01*
X55649500Y-86606286D01*
X55682753Y-86816239D01*
X55748444Y-87018414D01*
X55844951Y-87207820D01*
X55969890Y-87379786D01*
X56120213Y-87530109D01*
X56292179Y-87655048D01*
X56292181Y-87655049D01*
X56292184Y-87655051D01*
X56481588Y-87751557D01*
X56683757Y-87817246D01*
X56893713Y-87850500D01*
X56893714Y-87850500D01*
X57106286Y-87850500D01*
X57106287Y-87850500D01*
X57316243Y-87817246D01*
X57518412Y-87751557D01*
X57707816Y-87655051D01*
X57729789Y-87639086D01*
X57879786Y-87530109D01*
X57879788Y-87530106D01*
X57879792Y-87530104D01*
X58030104Y-87379792D01*
X58030106Y-87379788D01*
X58030109Y-87379786D01*
X58155048Y-87207820D01*
X58155047Y-87207820D01*
X58155051Y-87207816D01*
X58251557Y-87018412D01*
X58317246Y-86816243D01*
X58350500Y-86606287D01*
X58350500Y-86393713D01*
X58317246Y-86183757D01*
X58251557Y-85981588D01*
X58155051Y-85792184D01*
X58155049Y-85792181D01*
X58155048Y-85792179D01*
X58030109Y-85620213D01*
X57879786Y-85469890D01*
X57707820Y-85344951D01*
X57518414Y-85248444D01*
X57518413Y-85248443D01*
X57518412Y-85248443D01*
X57316243Y-85182754D01*
X57316241Y-85182753D01*
X57316240Y-85182753D01*
X57154957Y-85157208D01*
X57106287Y-85149500D01*
X56893713Y-85149500D01*
X56845042Y-85157208D01*
X56683760Y-85182753D01*
X56481585Y-85248444D01*
X56292179Y-85344951D01*
X56120213Y-85469890D01*
X55969890Y-85620213D01*
X55844951Y-85792179D01*
X55748444Y-85981585D01*
X55682753Y-86183760D01*
X55649500Y-86393713D01*
X47860500Y-86393713D01*
X47860500Y-81524499D01*
X47880185Y-81457460D01*
X47932989Y-81411705D01*
X47984500Y-81400499D01*
X48747769Y-81400499D01*
X48814808Y-81420184D01*
G37*
%TD.AperFunction*%
M02*
