%TF.GenerationSoftware,KiCad,Pcbnew,10.0.3*%
%TF.CreationDate,2026-06-18T14:40:04-04:00*%
%TF.ProjectId,panel,70616e65-6c2e-46b6-9963-61645f706362,rev?*%
%TF.SameCoordinates,Original*%
%TF.FileFunction,Copper,L2,Bot*%
%TF.FilePolarity,Positive*%
%FSLAX46Y46*%
G04 Gerber Fmt 4.6, Leading zero omitted, Abs format (unit mm)*
G04 Created by KiCad (PCBNEW 10.0.3) date 2026-06-18 14:40:04*
%MOMM*%
%LPD*%
G01*
G04 APERTURE LIST*
%TA.AperFunction,ComponentPad*%
%ADD10R,1.800000X1.800000*%
%TD*%
%TA.AperFunction,ComponentPad*%
%ADD11C,1.800000*%
%TD*%
%TA.AperFunction,ComponentPad*%
%ADD12O,4.500000X2.250000*%
%TD*%
%TA.AperFunction,ComponentPad*%
%ADD13C,1.440000*%
%TD*%
%TA.AperFunction,ComponentPad*%
%ADD14C,1.600000*%
%TD*%
%TA.AperFunction,ViaPad*%
%ADD15C,0.600000*%
%TD*%
%TA.AperFunction,Conductor*%
%ADD16C,0.500000*%
%TD*%
G04 APERTURE END LIST*
D10*
%TO.P,D12,1,K_1*%
%TO.N,GND*%
X48460000Y-96000000D03*
D11*
%TO.P,D12,2,A_2*%
%TO.N,Net-(D11-K)*%
X51000000Y-96000000D03*
%TD*%
D12*
%TO.P,J1,1*%
%TO.N,+12V*%
X57000000Y-58000000D03*
%TO.P,J1,2*%
%TO.N,GND*%
X57000000Y-51700000D03*
%TD*%
D13*
%TO.P,RV1,1,1_1*%
%TO.N,+12V*%
X86000000Y-49505000D03*
%TO.P,RV1,2,2_2*%
%TO.N,Net-(D1-A)*%
X83460000Y-49505000D03*
%TO.P,RV1,3,3_3*%
%TO.N,GND*%
X80920000Y-49505000D03*
%TD*%
D10*
%TO.P,D15,1,K_1*%
%TO.N,Net-(D15-K)*%
X100460000Y-66000000D03*
D11*
%TO.P,D15,2,A_2*%
%TO.N,Net-(D14-K)*%
X103000000Y-66000000D03*
%TD*%
D10*
%TO.P,D11,1,K_1*%
%TO.N,Net-(D11-K)*%
X48460000Y-66000000D03*
D11*
%TO.P,D11,2,A_2*%
%TO.N,Net-(D10-K)*%
X51000000Y-66000000D03*
%TD*%
D10*
%TO.P,D13,1,K_1*%
%TO.N,Net-(D13-K)*%
X48460000Y-80000000D03*
D11*
%TO.P,D13,2,A_2*%
%TO.N,Net-(D13-A)*%
X51000000Y-80000000D03*
%TD*%
D10*
%TO.P,D16,1,K_1*%
%TO.N,GND*%
X100460000Y-95000000D03*
D11*
%TO.P,D16,2,A_2*%
%TO.N,Net-(D15-K)*%
X103000000Y-95000000D03*
%TD*%
D10*
%TO.P,D10,1,K_1*%
%TO.N,Net-(D10-K)*%
X87460000Y-66000000D03*
D11*
%TO.P,D10,2,A_2*%
%TO.N,Net-(D1-K)*%
X90000000Y-66000000D03*
%TD*%
D10*
%TO.P,D9,1,K_1*%
%TO.N,Net-(D1-K)*%
X100000000Y-80000000D03*
D11*
%TO.P,D9,2,A_2*%
%TO.N,Net-(D1-A)*%
X102540000Y-80000000D03*
%TD*%
D10*
%TO.P,D14,1,K_1*%
%TO.N,Net-(D14-K)*%
X62000000Y-66000000D03*
D11*
%TO.P,D14,2,A_2*%
%TO.N,Net-(D13-K)*%
X64540000Y-66000000D03*
%TD*%
D14*
%TO.P,R3,1*%
%TO.N,+12V*%
X66190000Y-46000000D03*
%TO.P,R3,2*%
%TO.N,Net-(D1-A)*%
X73810000Y-46000000D03*
%TD*%
%TO.P,R4,1*%
%TO.N,+12V*%
X66190000Y-58000000D03*
%TO.P,R4,2*%
%TO.N,Net-(D13-A)*%
X73810000Y-58000000D03*
%TD*%
D13*
%TO.P,RV2,1,1_1*%
%TO.N,+12V*%
X101000000Y-49505000D03*
%TO.P,RV2,2,2_2*%
%TO.N,Net-(D13-A)*%
X98460000Y-49505000D03*
%TO.P,RV2,3,3_3*%
%TO.N,GND*%
X95920000Y-49505000D03*
%TD*%
D15*
%TO.N,Net-(D1-K)*%
X94000000Y-73000000D03*
%TO.N,Net-(D1-A)*%
X97000000Y-70000000D03*
%TO.N,Net-(D10-K)*%
X57000000Y-68000000D03*
%TD*%
%TO.N,Net-(D1-K)*%
D16*
X94000000Y-70000000D02*
X90000000Y-66000000D01*
X94000000Y-73000000D02*
X94000000Y-70000000D01*
%TO.N,Net-(D1-A)*%
X83460000Y-56460000D02*
X83460000Y-49505000D01*
X97000000Y-70000000D02*
X83460000Y-56460000D01*
%TO.N,GND*%
X95920000Y-49505000D02*
X94415000Y-48000000D01*
X80920000Y-49505000D02*
X59195000Y-49505000D01*
X59195000Y-49505000D02*
X57000000Y-51700000D01*
X94415000Y-48000000D02*
X82425000Y-48000000D01*
X82425000Y-48000000D02*
X80920000Y-49505000D01*
%TO.N,Net-(D10-K)*%
X57000000Y-68000000D02*
X53000000Y-68000000D01*
X53000000Y-68000000D02*
X51000000Y-66000000D01*
%TD*%
%TA.AperFunction,NonConductor*%
G36*
X105442539Y-43520185D02*
G01*
X105488294Y-43572989D01*
X105499500Y-43624500D01*
X105499500Y-99375500D01*
X105479815Y-99442539D01*
X105427011Y-99488294D01*
X105375500Y-99499500D01*
X92624500Y-99499500D01*
X92557461Y-99479815D01*
X92511706Y-99427011D01*
X92500500Y-99375500D01*
X92500500Y-94052135D01*
X99059500Y-94052135D01*
X99059500Y-95947870D01*
X99059501Y-95947876D01*
X99065908Y-96007483D01*
X99116202Y-96142328D01*
X99116206Y-96142335D01*
X99202452Y-96257544D01*
X99202455Y-96257547D01*
X99317664Y-96343793D01*
X99317671Y-96343797D01*
X99452517Y-96394091D01*
X99452516Y-96394091D01*
X99459444Y-96394835D01*
X99512127Y-96400500D01*
X101407872Y-96400499D01*
X101467483Y-96394091D01*
X101602331Y-96343796D01*
X101717546Y-96257546D01*
X101803796Y-96142331D01*
X101831429Y-96068243D01*
X101833601Y-96062420D01*
X101875471Y-96006486D01*
X101940936Y-95982068D01*
X102009209Y-95996919D01*
X102037464Y-96018071D01*
X102087636Y-96068243D01*
X102087641Y-96068247D01*
X102189603Y-96142326D01*
X102265978Y-96197815D01*
X102394375Y-96263237D01*
X102462393Y-96297895D01*
X102462396Y-96297896D01*
X102554898Y-96327951D01*
X102672049Y-96366015D01*
X102889778Y-96400500D01*
X102889779Y-96400500D01*
X103110221Y-96400500D01*
X103110222Y-96400500D01*
X103327951Y-96366015D01*
X103537606Y-96297895D01*
X103734022Y-96197815D01*
X103912365Y-96068242D01*
X104068242Y-95912365D01*
X104197815Y-95734022D01*
X104297895Y-95537606D01*
X104366015Y-95327951D01*
X104400500Y-95110222D01*
X104400500Y-94889778D01*
X104366015Y-94672049D01*
X104297895Y-94462394D01*
X104297895Y-94462393D01*
X104263237Y-94394375D01*
X104197815Y-94265978D01*
X104139501Y-94185715D01*
X104068247Y-94087641D01*
X104068243Y-94087636D01*
X103912363Y-93931756D01*
X103912358Y-93931752D01*
X103734025Y-93802187D01*
X103734024Y-93802186D01*
X103734022Y-93802185D01*
X103616791Y-93742452D01*
X103537606Y-93702104D01*
X103537603Y-93702103D01*
X103327952Y-93633985D01*
X103219086Y-93616742D01*
X103110222Y-93599500D01*
X102889778Y-93599500D01*
X102817201Y-93610995D01*
X102672047Y-93633985D01*
X102462396Y-93702103D01*
X102462393Y-93702104D01*
X102265974Y-93802187D01*
X102087641Y-93931752D01*
X102087636Y-93931756D01*
X102037463Y-93981929D01*
X101976140Y-94015413D01*
X101906448Y-94010428D01*
X101850515Y-93968557D01*
X101833601Y-93937580D01*
X101803797Y-93857671D01*
X101803793Y-93857664D01*
X101717547Y-93742455D01*
X101717544Y-93742452D01*
X101602335Y-93656206D01*
X101602328Y-93656202D01*
X101467482Y-93605908D01*
X101467483Y-93605908D01*
X101407883Y-93599501D01*
X101407881Y-93599500D01*
X101407873Y-93599500D01*
X101407864Y-93599500D01*
X99512129Y-93599500D01*
X99512123Y-93599501D01*
X99452516Y-93605908D01*
X99317671Y-93656202D01*
X99317664Y-93656206D01*
X99202455Y-93742452D01*
X99202452Y-93742455D01*
X99116206Y-93857664D01*
X99116202Y-93857671D01*
X99065908Y-93992517D01*
X99059501Y-94052116D01*
X99059500Y-94052135D01*
X92500500Y-94052135D01*
X92500500Y-86393713D01*
X93649500Y-86393713D01*
X93649500Y-86606286D01*
X93682753Y-86816239D01*
X93748444Y-87018414D01*
X93844951Y-87207820D01*
X93969890Y-87379786D01*
X94120213Y-87530109D01*
X94292179Y-87655048D01*
X94292181Y-87655049D01*
X94292184Y-87655051D01*
X94481588Y-87751557D01*
X94683757Y-87817246D01*
X94893713Y-87850500D01*
X94893714Y-87850500D01*
X95106286Y-87850500D01*
X95106287Y-87850500D01*
X95316243Y-87817246D01*
X95518412Y-87751557D01*
X95707816Y-87655051D01*
X95729789Y-87639086D01*
X95879786Y-87530109D01*
X95879788Y-87530106D01*
X95879792Y-87530104D01*
X96030104Y-87379792D01*
X96030106Y-87379788D01*
X96030109Y-87379786D01*
X96155048Y-87207820D01*
X96155047Y-87207820D01*
X96155051Y-87207816D01*
X96251557Y-87018412D01*
X96317246Y-86816243D01*
X96350500Y-86606287D01*
X96350500Y-86393713D01*
X96317246Y-86183757D01*
X96251557Y-85981588D01*
X96155051Y-85792184D01*
X96155049Y-85792181D01*
X96155048Y-85792179D01*
X96030109Y-85620213D01*
X95879786Y-85469890D01*
X95707820Y-85344951D01*
X95518414Y-85248444D01*
X95518413Y-85248443D01*
X95518412Y-85248443D01*
X95316243Y-85182754D01*
X95316241Y-85182753D01*
X95316240Y-85182753D01*
X95154957Y-85157208D01*
X95106287Y-85149500D01*
X94893713Y-85149500D01*
X94845042Y-85157208D01*
X94683760Y-85182753D01*
X94481585Y-85248444D01*
X94292179Y-85344951D01*
X94120213Y-85469890D01*
X93969890Y-85620213D01*
X93844951Y-85792179D01*
X93748444Y-85981585D01*
X93682753Y-86183760D01*
X93649500Y-86393713D01*
X92500500Y-86393713D01*
X92500500Y-79052135D01*
X98599500Y-79052135D01*
X98599500Y-80947870D01*
X98599501Y-80947876D01*
X98605908Y-81007483D01*
X98656202Y-81142328D01*
X98656206Y-81142335D01*
X98742452Y-81257544D01*
X98742455Y-81257547D01*
X98857664Y-81343793D01*
X98857671Y-81343797D01*
X98992517Y-81394091D01*
X98992516Y-81394091D01*
X98999444Y-81394835D01*
X99052127Y-81400500D01*
X100947872Y-81400499D01*
X101007483Y-81394091D01*
X101142331Y-81343796D01*
X101257546Y-81257546D01*
X101343796Y-81142331D01*
X101371429Y-81068243D01*
X101373601Y-81062420D01*
X101415471Y-81006486D01*
X101480936Y-80982068D01*
X101549209Y-80996919D01*
X101577464Y-81018071D01*
X101627636Y-81068243D01*
X101627641Y-81068247D01*
X101729603Y-81142326D01*
X101805978Y-81197815D01*
X101934375Y-81263237D01*
X102002393Y-81297895D01*
X102002396Y-81297896D01*
X102107221Y-81331955D01*
X102212049Y-81366015D01*
X102429778Y-81400500D01*
X102429779Y-81400500D01*
X102650221Y-81400500D01*
X102650222Y-81400500D01*
X102867951Y-81366015D01*
X103077606Y-81297895D01*
X103274022Y-81197815D01*
X103452365Y-81068242D01*
X103608242Y-80912365D01*
X103737815Y-80734022D01*
X103837895Y-80537606D01*
X103906015Y-80327951D01*
X103940500Y-80110222D01*
X103940500Y-79889778D01*
X103906015Y-79672049D01*
X103837895Y-79462394D01*
X103837895Y-79462393D01*
X103803237Y-79394375D01*
X103737815Y-79265978D01*
X103679501Y-79185715D01*
X103608247Y-79087641D01*
X103608243Y-79087636D01*
X103452363Y-78931756D01*
X103452358Y-78931752D01*
X103274025Y-78802187D01*
X103274024Y-78802186D01*
X103274022Y-78802185D01*
X103156791Y-78742452D01*
X103077606Y-78702104D01*
X103077603Y-78702103D01*
X102867952Y-78633985D01*
X102759086Y-78616742D01*
X102650222Y-78599500D01*
X102429778Y-78599500D01*
X102357201Y-78610995D01*
X102212047Y-78633985D01*
X102002396Y-78702103D01*
X102002393Y-78702104D01*
X101805974Y-78802187D01*
X101627641Y-78931752D01*
X101627636Y-78931756D01*
X101577463Y-78981929D01*
X101516140Y-79015413D01*
X101446448Y-79010428D01*
X101390515Y-78968557D01*
X101373601Y-78937580D01*
X101343797Y-78857671D01*
X101343793Y-78857664D01*
X101257547Y-78742455D01*
X101257544Y-78742452D01*
X101142335Y-78656206D01*
X101142328Y-78656202D01*
X101007482Y-78605908D01*
X101007483Y-78605908D01*
X100947883Y-78599501D01*
X100947881Y-78599500D01*
X100947873Y-78599500D01*
X100947864Y-78599500D01*
X99052129Y-78599500D01*
X99052123Y-78599501D01*
X98992516Y-78605908D01*
X98857671Y-78656202D01*
X98857664Y-78656206D01*
X98742455Y-78742452D01*
X98742452Y-78742455D01*
X98656206Y-78857664D01*
X98656202Y-78857671D01*
X98605908Y-78992517D01*
X98599501Y-79052116D01*
X98599500Y-79052135D01*
X92500500Y-79052135D01*
X92500500Y-69934110D01*
X92500500Y-69934108D01*
X92484024Y-69872618D01*
X92485687Y-69802772D01*
X92524849Y-69744909D01*
X92589077Y-69717405D01*
X92657980Y-69728991D01*
X92691480Y-69752847D01*
X93213181Y-70274548D01*
X93246666Y-70335871D01*
X93249500Y-70362229D01*
X93249500Y-72695396D01*
X93240062Y-72742844D01*
X93230263Y-72766503D01*
X93230262Y-72766506D01*
X93230260Y-72766511D01*
X93199500Y-72921153D01*
X93199500Y-73078846D01*
X93230261Y-73233489D01*
X93230264Y-73233501D01*
X93290602Y-73379172D01*
X93290609Y-73379185D01*
X93378210Y-73510288D01*
X93378213Y-73510292D01*
X93489707Y-73621786D01*
X93489711Y-73621789D01*
X93620814Y-73709390D01*
X93620827Y-73709397D01*
X93766498Y-73769735D01*
X93766503Y-73769737D01*
X93921153Y-73800499D01*
X93921156Y-73800500D01*
X93921158Y-73800500D01*
X94078844Y-73800500D01*
X94078845Y-73800499D01*
X94233497Y-73769737D01*
X94379179Y-73709394D01*
X94510289Y-73621789D01*
X94621789Y-73510289D01*
X94709394Y-73379179D01*
X94769737Y-73233497D01*
X94800500Y-73078842D01*
X94800500Y-72921158D01*
X94800500Y-72921155D01*
X94800499Y-72921153D01*
X94769739Y-72766511D01*
X94769738Y-72766508D01*
X94769737Y-72766503D01*
X94759937Y-72742844D01*
X94750500Y-72695396D01*
X94750500Y-69926079D01*
X94721659Y-69781092D01*
X94721658Y-69781091D01*
X94721658Y-69781087D01*
X94695280Y-69717405D01*
X94665087Y-69644511D01*
X94665080Y-69644498D01*
X94582952Y-69521585D01*
X94551074Y-69489707D01*
X94478416Y-69417049D01*
X92982520Y-67921153D01*
X91413876Y-66352508D01*
X91380391Y-66291185D01*
X91379084Y-66245434D01*
X91400500Y-66110222D01*
X91400500Y-65889778D01*
X91379671Y-65758270D01*
X91388626Y-65688978D01*
X91433622Y-65635526D01*
X91500373Y-65614886D01*
X91567687Y-65633611D01*
X91589825Y-65651192D01*
X96253926Y-70315293D01*
X96280805Y-70355519D01*
X96290603Y-70379172D01*
X96290606Y-70379178D01*
X96290609Y-70379185D01*
X96378210Y-70510288D01*
X96378213Y-70510292D01*
X96489707Y-70621786D01*
X96489711Y-70621789D01*
X96620814Y-70709390D01*
X96620827Y-70709397D01*
X96766498Y-70769735D01*
X96766503Y-70769737D01*
X96921153Y-70800499D01*
X96921156Y-70800500D01*
X96921158Y-70800500D01*
X97078844Y-70800500D01*
X97078845Y-70800499D01*
X97233497Y-70769737D01*
X97379179Y-70709394D01*
X97510289Y-70621789D01*
X97621789Y-70510289D01*
X97709394Y-70379179D01*
X97769737Y-70233497D01*
X97800500Y-70078842D01*
X97800500Y-69921158D01*
X97800500Y-69921155D01*
X97800499Y-69921153D01*
X97769737Y-69766503D01*
X97749400Y-69717405D01*
X97709397Y-69620827D01*
X97709390Y-69620814D01*
X97621789Y-69489711D01*
X97621786Y-69489707D01*
X97510292Y-69378213D01*
X97510288Y-69378210D01*
X97379185Y-69290609D01*
X97379180Y-69290607D01*
X97379179Y-69290606D01*
X97355519Y-69280805D01*
X97315293Y-69253926D01*
X93197854Y-65136487D01*
X93113502Y-65052135D01*
X99059500Y-65052135D01*
X99059500Y-66947870D01*
X99059501Y-66947876D01*
X99065908Y-67007483D01*
X99116202Y-67142328D01*
X99116206Y-67142335D01*
X99202452Y-67257544D01*
X99202455Y-67257547D01*
X99317664Y-67343793D01*
X99317671Y-67343797D01*
X99452517Y-67394091D01*
X99452516Y-67394091D01*
X99459444Y-67394835D01*
X99512127Y-67400500D01*
X101407872Y-67400499D01*
X101467483Y-67394091D01*
X101602331Y-67343796D01*
X101717546Y-67257546D01*
X101803796Y-67142331D01*
X101831429Y-67068243D01*
X101833601Y-67062420D01*
X101875471Y-67006486D01*
X101940936Y-66982068D01*
X102009209Y-66996919D01*
X102037464Y-67018071D01*
X102087636Y-67068243D01*
X102087641Y-67068247D01*
X102189603Y-67142326D01*
X102265978Y-67197815D01*
X102394375Y-67263237D01*
X102462393Y-67297895D01*
X102462396Y-67297896D01*
X102518864Y-67316243D01*
X102672049Y-67366015D01*
X102889778Y-67400500D01*
X102889779Y-67400500D01*
X103110221Y-67400500D01*
X103110222Y-67400500D01*
X103327951Y-67366015D01*
X103537606Y-67297895D01*
X103734022Y-67197815D01*
X103912365Y-67068242D01*
X104068242Y-66912365D01*
X104197815Y-66734022D01*
X104297895Y-66537606D01*
X104366015Y-66327951D01*
X104400500Y-66110222D01*
X104400500Y-65889778D01*
X104366015Y-65672049D01*
X104297895Y-65462394D01*
X104297895Y-65462393D01*
X104263237Y-65394375D01*
X104197815Y-65265978D01*
X104092985Y-65121691D01*
X104068247Y-65087641D01*
X104068243Y-65087636D01*
X103912363Y-64931756D01*
X103912358Y-64931752D01*
X103734025Y-64802187D01*
X103734024Y-64802186D01*
X103734022Y-64802185D01*
X103616791Y-64742452D01*
X103537606Y-64702104D01*
X103537603Y-64702103D01*
X103327952Y-64633985D01*
X103219086Y-64616742D01*
X103110222Y-64599500D01*
X102889778Y-64599500D01*
X102817201Y-64610995D01*
X102672047Y-64633985D01*
X102462396Y-64702103D01*
X102462393Y-64702104D01*
X102265974Y-64802187D01*
X102087641Y-64931752D01*
X102087636Y-64931756D01*
X102037463Y-64981929D01*
X101976140Y-65015413D01*
X101906448Y-65010428D01*
X101850515Y-64968557D01*
X101833601Y-64937580D01*
X101803797Y-64857671D01*
X101803793Y-64857664D01*
X101717547Y-64742455D01*
X101717544Y-64742452D01*
X101602335Y-64656206D01*
X101602328Y-64656202D01*
X101467482Y-64605908D01*
X101467483Y-64605908D01*
X101407883Y-64599501D01*
X101407881Y-64599500D01*
X101407873Y-64599500D01*
X101407864Y-64599500D01*
X99512129Y-64599500D01*
X99512123Y-64599501D01*
X99452516Y-64605908D01*
X99317671Y-64656202D01*
X99317664Y-64656206D01*
X99202455Y-64742452D01*
X99202452Y-64742455D01*
X99116206Y-64857664D01*
X99116202Y-64857671D01*
X99065908Y-64992517D01*
X99059501Y-65052116D01*
X99059500Y-65052135D01*
X93113502Y-65052135D01*
X84246819Y-56185451D01*
X84213334Y-56124128D01*
X84210500Y-56097770D01*
X84210500Y-50531203D01*
X84230185Y-50464164D01*
X84251736Y-50439469D01*
X84251657Y-50439390D01*
X84252830Y-50438216D01*
X84253969Y-50436912D01*
X84255089Y-50435953D01*
X84255102Y-50435945D01*
X84390945Y-50300102D01*
X84503865Y-50144681D01*
X84591082Y-49973509D01*
X84591084Y-49973504D01*
X84612069Y-49908919D01*
X84651506Y-49851243D01*
X84715864Y-49824044D01*
X84784711Y-49835958D01*
X84836187Y-49883202D01*
X84847931Y-49908919D01*
X84868915Y-49973504D01*
X84868918Y-49973509D01*
X84956135Y-50144681D01*
X85069055Y-50300102D01*
X85204898Y-50435945D01*
X85360319Y-50548865D01*
X85447119Y-50593092D01*
X85531493Y-50636083D01*
X85622845Y-50665764D01*
X85714199Y-50695447D01*
X85903945Y-50725500D01*
X85903946Y-50725500D01*
X86096054Y-50725500D01*
X86096055Y-50725500D01*
X86285801Y-50695447D01*
X86468509Y-50636082D01*
X86639681Y-50548865D01*
X86795102Y-50435945D01*
X86930945Y-50300102D01*
X87043865Y-50144681D01*
X87131082Y-49973509D01*
X87190447Y-49790801D01*
X87220500Y-49601055D01*
X87220500Y-49408945D01*
X87190447Y-49219199D01*
X87160424Y-49126797D01*
X87131083Y-49036493D01*
X87077227Y-48930795D01*
X87064331Y-48862126D01*
X87090607Y-48797385D01*
X87147714Y-48757128D01*
X87187712Y-48750500D01*
X94052770Y-48750500D01*
X94119809Y-48770185D01*
X94140451Y-48786819D01*
X94663680Y-49310048D01*
X94697165Y-49371371D01*
X94699387Y-49404073D01*
X94699500Y-49404073D01*
X94699500Y-49405730D01*
X94699617Y-49407452D01*
X94699500Y-49408939D01*
X94699500Y-49601054D01*
X94729553Y-49790802D01*
X94788916Y-49973506D01*
X94788918Y-49973509D01*
X94876135Y-50144681D01*
X94989055Y-50300102D01*
X95124898Y-50435945D01*
X95280319Y-50548865D01*
X95367119Y-50593092D01*
X95451493Y-50636083D01*
X95542845Y-50665764D01*
X95634199Y-50695447D01*
X95823945Y-50725500D01*
X95823946Y-50725500D01*
X96016054Y-50725500D01*
X96016055Y-50725500D01*
X96205801Y-50695447D01*
X96388509Y-50636082D01*
X96559681Y-50548865D01*
X96715102Y-50435945D01*
X96850945Y-50300102D01*
X96963865Y-50144681D01*
X97051082Y-49973509D01*
X97051084Y-49973504D01*
X97072069Y-49908919D01*
X97111506Y-49851243D01*
X97175864Y-49824044D01*
X97244711Y-49835958D01*
X97296187Y-49883202D01*
X97307931Y-49908919D01*
X97328915Y-49973504D01*
X97328918Y-49973509D01*
X97416135Y-50144681D01*
X97529055Y-50300102D01*
X97664898Y-50435945D01*
X97820319Y-50548865D01*
X97907119Y-50593092D01*
X97991493Y-50636083D01*
X98082845Y-50665764D01*
X98174199Y-50695447D01*
X98363945Y-50725500D01*
X98363946Y-50725500D01*
X98556054Y-50725500D01*
X98556055Y-50725500D01*
X98745801Y-50695447D01*
X98928509Y-50636082D01*
X99099681Y-50548865D01*
X99255102Y-50435945D01*
X99390945Y-50300102D01*
X99503865Y-50144681D01*
X99591082Y-49973509D01*
X99591084Y-49973504D01*
X99612069Y-49908919D01*
X99651506Y-49851243D01*
X99715864Y-49824044D01*
X99784711Y-49835958D01*
X99836187Y-49883202D01*
X99847931Y-49908919D01*
X99868915Y-49973504D01*
X99868918Y-49973509D01*
X99956135Y-50144681D01*
X100069055Y-50300102D01*
X100204898Y-50435945D01*
X100360319Y-50548865D01*
X100447119Y-50593092D01*
X100531493Y-50636083D01*
X100622845Y-50665764D01*
X100714199Y-50695447D01*
X100903945Y-50725500D01*
X100903946Y-50725500D01*
X101096054Y-50725500D01*
X101096055Y-50725500D01*
X101285801Y-50695447D01*
X101468509Y-50636082D01*
X101639681Y-50548865D01*
X101795102Y-50435945D01*
X101930945Y-50300102D01*
X102043865Y-50144681D01*
X102131082Y-49973509D01*
X102190447Y-49790801D01*
X102220500Y-49601055D01*
X102220500Y-49408945D01*
X102190447Y-49219199D01*
X102160424Y-49126797D01*
X102131083Y-49036493D01*
X102072771Y-48922050D01*
X102043865Y-48865319D01*
X101930945Y-48709898D01*
X101795102Y-48574055D01*
X101639681Y-48461135D01*
X101468506Y-48373916D01*
X101285802Y-48314553D01*
X101150504Y-48293124D01*
X101096055Y-48284500D01*
X100903945Y-48284500D01*
X100849496Y-48293124D01*
X100714197Y-48314553D01*
X100531493Y-48373916D01*
X100360318Y-48461135D01*
X100271645Y-48525560D01*
X100204898Y-48574055D01*
X100204896Y-48574057D01*
X100204895Y-48574057D01*
X100069057Y-48709895D01*
X100069057Y-48709896D01*
X100069055Y-48709898D01*
X100025254Y-48770185D01*
X99956135Y-48865318D01*
X99868916Y-49036493D01*
X99847931Y-49101081D01*
X99808494Y-49158756D01*
X99744135Y-49185955D01*
X99675289Y-49174041D01*
X99623813Y-49126797D01*
X99612069Y-49101081D01*
X99591083Y-49036493D01*
X99532771Y-48922050D01*
X99503865Y-48865319D01*
X99390945Y-48709898D01*
X99255102Y-48574055D01*
X99099681Y-48461135D01*
X98928506Y-48373916D01*
X98745802Y-48314553D01*
X98610504Y-48293124D01*
X98556055Y-48284500D01*
X98363945Y-48284500D01*
X98309496Y-48293124D01*
X98174197Y-48314553D01*
X97991493Y-48373916D01*
X97820318Y-48461135D01*
X97731645Y-48525560D01*
X97664898Y-48574055D01*
X97664896Y-48574057D01*
X97664895Y-48574057D01*
X97529057Y-48709895D01*
X97529057Y-48709896D01*
X97529055Y-48709898D01*
X97485254Y-48770185D01*
X97416135Y-48865318D01*
X97328916Y-49036493D01*
X97307931Y-49101081D01*
X97268494Y-49158756D01*
X97204135Y-49185955D01*
X97135289Y-49174041D01*
X97083813Y-49126797D01*
X97072069Y-49101081D01*
X97051083Y-49036493D01*
X96992771Y-48922050D01*
X96963865Y-48865319D01*
X96850945Y-48709898D01*
X96715102Y-48574055D01*
X96559681Y-48461135D01*
X96388506Y-48373916D01*
X96205802Y-48314553D01*
X96070504Y-48293124D01*
X96016055Y-48284500D01*
X95823945Y-48284500D01*
X95823936Y-48284500D01*
X95822433Y-48284618D01*
X95821872Y-48284500D01*
X95819073Y-48284500D01*
X95819073Y-48283911D01*
X95754059Y-48270240D01*
X95725048Y-48248679D01*
X94893421Y-47417052D01*
X94893414Y-47417046D01*
X94819729Y-47367812D01*
X94819729Y-47367813D01*
X94770491Y-47334913D01*
X94633917Y-47278343D01*
X94633907Y-47278340D01*
X94488920Y-47249500D01*
X94488918Y-47249500D01*
X82498917Y-47249500D01*
X82351082Y-47249500D01*
X82351080Y-47249500D01*
X82206092Y-47278340D01*
X82206082Y-47278343D01*
X82069511Y-47334912D01*
X82069498Y-47334919D01*
X81946584Y-47417048D01*
X81946580Y-47417051D01*
X81114951Y-48248679D01*
X81053628Y-48282164D01*
X81020927Y-48284389D01*
X81020927Y-48284500D01*
X81019298Y-48284500D01*
X81017564Y-48284618D01*
X81016061Y-48284500D01*
X81016055Y-48284500D01*
X80823945Y-48284500D01*
X80769496Y-48293124D01*
X80634197Y-48314553D01*
X80451493Y-48373916D01*
X80280318Y-48461135D01*
X80191645Y-48525560D01*
X80124898Y-48574055D01*
X80124896Y-48574057D01*
X80124895Y-48574057D01*
X79989050Y-48709902D01*
X79988077Y-48711042D01*
X79987599Y-48711353D01*
X79985610Y-48713343D01*
X79985191Y-48712924D01*
X79929566Y-48749229D01*
X79893796Y-48754500D01*
X59121080Y-48754500D01*
X58976092Y-48783340D01*
X58976082Y-48783343D01*
X58839509Y-48839913D01*
X58801487Y-48865319D01*
X58716582Y-48922049D01*
X58716581Y-48922050D01*
X57600451Y-50038181D01*
X57539128Y-50071666D01*
X57512770Y-50074500D01*
X55747070Y-50074500D01*
X55662833Y-50087842D01*
X55494359Y-50114526D01*
X55251027Y-50193588D01*
X55251024Y-50193589D01*
X55023049Y-50309750D01*
X54816064Y-50460132D01*
X54816059Y-50460136D01*
X54635136Y-50641059D01*
X54635132Y-50641064D01*
X54484750Y-50848049D01*
X54368589Y-51076024D01*
X54368588Y-51076027D01*
X54289526Y-51319359D01*
X54249500Y-51572070D01*
X54249500Y-51827929D01*
X54289526Y-52080640D01*
X54368588Y-52323972D01*
X54368589Y-52323975D01*
X54484750Y-52551950D01*
X54635132Y-52758935D01*
X54635136Y-52758940D01*
X54816059Y-52939863D01*
X54816064Y-52939867D01*
X54996607Y-53071038D01*
X55023053Y-53090252D01*
X55172080Y-53166185D01*
X55251024Y-53206410D01*
X55251027Y-53206411D01*
X55372693Y-53245942D01*
X55494361Y-53285474D01*
X55747070Y-53325500D01*
X55747071Y-53325500D01*
X58252929Y-53325500D01*
X58252930Y-53325500D01*
X58505639Y-53285474D01*
X58748975Y-53206410D01*
X58976947Y-53090252D01*
X59183942Y-52939862D01*
X59364862Y-52758942D01*
X59515252Y-52551947D01*
X59631410Y-52323975D01*
X59710474Y-52080639D01*
X59750500Y-51827930D01*
X59750500Y-51572070D01*
X59710474Y-51319361D01*
X59631410Y-51076025D01*
X59631410Y-51076024D01*
X59591185Y-50997080D01*
X59515252Y-50848053D01*
X59496038Y-50821607D01*
X59364867Y-50641064D01*
X59364863Y-50641059D01*
X59330267Y-50606463D01*
X59325928Y-50598517D01*
X59318681Y-50593092D01*
X59309446Y-50568332D01*
X59296782Y-50545140D01*
X59297427Y-50536110D01*
X59294264Y-50527628D01*
X59299880Y-50501807D01*
X59301766Y-50475448D01*
X59307584Y-50466394D01*
X59309116Y-50459355D01*
X59330267Y-50431101D01*
X59469549Y-50291819D01*
X59530872Y-50258334D01*
X59557230Y-50255500D01*
X79893796Y-50255500D01*
X79960835Y-50275185D01*
X79985530Y-50296736D01*
X79985610Y-50296657D01*
X79986773Y-50297820D01*
X79988077Y-50298958D01*
X79989050Y-50300097D01*
X79989055Y-50300102D01*
X80124898Y-50435945D01*
X80280319Y-50548865D01*
X80367119Y-50593092D01*
X80451493Y-50636083D01*
X80542845Y-50665764D01*
X80634199Y-50695447D01*
X80823945Y-50725500D01*
X80823946Y-50725500D01*
X81016054Y-50725500D01*
X81016055Y-50725500D01*
X81205801Y-50695447D01*
X81388509Y-50636082D01*
X81559681Y-50548865D01*
X81715102Y-50435945D01*
X81850945Y-50300102D01*
X81963865Y-50144681D01*
X82051082Y-49973509D01*
X82051084Y-49973504D01*
X82072069Y-49908919D01*
X82111506Y-49851243D01*
X82175864Y-49824044D01*
X82244711Y-49835958D01*
X82296187Y-49883202D01*
X82307931Y-49908919D01*
X82328915Y-49973504D01*
X82328918Y-49973509D01*
X82416135Y-50144681D01*
X82529055Y-50300102D01*
X82664898Y-50435945D01*
X82664903Y-50435949D01*
X82666031Y-50436912D01*
X82666343Y-50437390D01*
X82668343Y-50439390D01*
X82667922Y-50439810D01*
X82704224Y-50495419D01*
X82709500Y-50531203D01*
X82709500Y-56533918D01*
X82709500Y-56533920D01*
X82709499Y-56533920D01*
X82738340Y-56678907D01*
X82738343Y-56678917D01*
X82794914Y-56815492D01*
X82827812Y-56864727D01*
X82827813Y-56864730D01*
X82877046Y-56938414D01*
X82877052Y-56938421D01*
X90348807Y-64410174D01*
X90382292Y-64471497D01*
X90377308Y-64541189D01*
X90335436Y-64597122D01*
X90269972Y-64621539D01*
X90241729Y-64620328D01*
X90110222Y-64599500D01*
X89889778Y-64599500D01*
X89817201Y-64610995D01*
X89672047Y-64633985D01*
X89462396Y-64702103D01*
X89462393Y-64702104D01*
X89265974Y-64802187D01*
X89087641Y-64931752D01*
X89087636Y-64931756D01*
X89037463Y-64981929D01*
X88976140Y-65015413D01*
X88906448Y-65010428D01*
X88850515Y-64968557D01*
X88833601Y-64937580D01*
X88803797Y-64857671D01*
X88803793Y-64857664D01*
X88717547Y-64742455D01*
X88717544Y-64742452D01*
X88602335Y-64656206D01*
X88602328Y-64656202D01*
X88467482Y-64605908D01*
X88467483Y-64605908D01*
X88407883Y-64599501D01*
X88407881Y-64599500D01*
X88407873Y-64599500D01*
X88407864Y-64599500D01*
X86512129Y-64599500D01*
X86512123Y-64599501D01*
X86452516Y-64605908D01*
X86317671Y-64656202D01*
X86317664Y-64656206D01*
X86202455Y-64742452D01*
X86202452Y-64742455D01*
X86116206Y-64857664D01*
X86116202Y-64857671D01*
X86065908Y-64992517D01*
X86059501Y-65052116D01*
X86059500Y-65052135D01*
X86059500Y-66947870D01*
X86059501Y-66947876D01*
X86065908Y-67007483D01*
X86116202Y-67142328D01*
X86116206Y-67142335D01*
X86202452Y-67257544D01*
X86202455Y-67257547D01*
X86317664Y-67343793D01*
X86317671Y-67343797D01*
X86452517Y-67394091D01*
X86452516Y-67394091D01*
X86459444Y-67394835D01*
X86512127Y-67400500D01*
X88407872Y-67400499D01*
X88467483Y-67394091D01*
X88602331Y-67343796D01*
X88717546Y-67257546D01*
X88803796Y-67142331D01*
X88831429Y-67068243D01*
X88833601Y-67062420D01*
X88875471Y-67006486D01*
X88940936Y-66982068D01*
X89009209Y-66996919D01*
X89037464Y-67018071D01*
X89087636Y-67068243D01*
X89087641Y-67068247D01*
X89189603Y-67142326D01*
X89265978Y-67197815D01*
X89394375Y-67263237D01*
X89462393Y-67297895D01*
X89462396Y-67297896D01*
X89518864Y-67316243D01*
X89672049Y-67366015D01*
X89889778Y-67400500D01*
X89889779Y-67400500D01*
X90110220Y-67400500D01*
X90110222Y-67400500D01*
X90245431Y-67379084D01*
X90314722Y-67388038D01*
X90352508Y-67413876D01*
X92247151Y-69308519D01*
X92280636Y-69369842D01*
X92275652Y-69439534D01*
X92233780Y-69495467D01*
X92168316Y-69519884D01*
X92127378Y-69515975D01*
X92065892Y-69499500D01*
X60065892Y-69499500D01*
X59934108Y-69499500D01*
X59806812Y-69533608D01*
X59692686Y-69599500D01*
X59692683Y-69599502D01*
X59599502Y-69692683D01*
X59599500Y-69692686D01*
X59533608Y-69806812D01*
X59499500Y-69934108D01*
X59499500Y-99375500D01*
X59479815Y-99442539D01*
X59427011Y-99488294D01*
X59375500Y-99499500D01*
X45624500Y-99499500D01*
X45557461Y-99479815D01*
X45511706Y-99427011D01*
X45500500Y-99375500D01*
X45500500Y-95052135D01*
X47059500Y-95052135D01*
X47059500Y-96947870D01*
X47059501Y-96947876D01*
X47065908Y-97007483D01*
X47116202Y-97142328D01*
X47116206Y-97142335D01*
X47202452Y-97257544D01*
X47202455Y-97257547D01*
X47317664Y-97343793D01*
X47317671Y-97343797D01*
X47452517Y-97394091D01*
X47452516Y-97394091D01*
X47459444Y-97394835D01*
X47512127Y-97400500D01*
X49407872Y-97400499D01*
X49467483Y-97394091D01*
X49602331Y-97343796D01*
X49717546Y-97257546D01*
X49803796Y-97142331D01*
X49831429Y-97068243D01*
X49833601Y-97062420D01*
X49875471Y-97006486D01*
X49940936Y-96982068D01*
X50009209Y-96996919D01*
X50037464Y-97018071D01*
X50087636Y-97068243D01*
X50087641Y-97068247D01*
X50189603Y-97142326D01*
X50265978Y-97197815D01*
X50394375Y-97263237D01*
X50462393Y-97297895D01*
X50462396Y-97297896D01*
X50567221Y-97331955D01*
X50672049Y-97366015D01*
X50889778Y-97400500D01*
X50889779Y-97400500D01*
X51110221Y-97400500D01*
X51110222Y-97400500D01*
X51327951Y-97366015D01*
X51537606Y-97297895D01*
X51734022Y-97197815D01*
X51912365Y-97068242D01*
X52068242Y-96912365D01*
X52197815Y-96734022D01*
X52297895Y-96537606D01*
X52366015Y-96327951D01*
X52400500Y-96110222D01*
X52400500Y-95889778D01*
X52366015Y-95672049D01*
X52331955Y-95567221D01*
X52297896Y-95462396D01*
X52297895Y-95462393D01*
X52263237Y-95394375D01*
X52197815Y-95265978D01*
X52139501Y-95185715D01*
X52068247Y-95087641D01*
X52068243Y-95087636D01*
X51912363Y-94931756D01*
X51912358Y-94931752D01*
X51734025Y-94802187D01*
X51734024Y-94802186D01*
X51734022Y-94802185D01*
X51616791Y-94742452D01*
X51537606Y-94702104D01*
X51537603Y-94702103D01*
X51327952Y-94633985D01*
X51219086Y-94616742D01*
X51110222Y-94599500D01*
X50889778Y-94599500D01*
X50817201Y-94610995D01*
X50672047Y-94633985D01*
X50462396Y-94702103D01*
X50462393Y-94702104D01*
X50265974Y-94802187D01*
X50087641Y-94931752D01*
X50087636Y-94931756D01*
X50037463Y-94981929D01*
X49976140Y-95015413D01*
X49906448Y-95010428D01*
X49850515Y-94968557D01*
X49833601Y-94937580D01*
X49803797Y-94857671D01*
X49803793Y-94857664D01*
X49717547Y-94742455D01*
X49717544Y-94742452D01*
X49602335Y-94656206D01*
X49602328Y-94656202D01*
X49467482Y-94605908D01*
X49467483Y-94605908D01*
X49407883Y-94599501D01*
X49407881Y-94599500D01*
X49407873Y-94599500D01*
X49407864Y-94599500D01*
X47512129Y-94599500D01*
X47512123Y-94599501D01*
X47452516Y-94605908D01*
X47317671Y-94656202D01*
X47317664Y-94656206D01*
X47202455Y-94742452D01*
X47202452Y-94742455D01*
X47116206Y-94857664D01*
X47116202Y-94857671D01*
X47065908Y-94992517D01*
X47059501Y-95052116D01*
X47059500Y-95052135D01*
X45500500Y-95052135D01*
X45500500Y-86393713D01*
X55649500Y-86393713D01*
X55649500Y-86606286D01*
X55682753Y-86816239D01*
X55748444Y-87018414D01*
X55844951Y-87207820D01*
X55969890Y-87379786D01*
X56120213Y-87530109D01*
X56292179Y-87655048D01*
X56292181Y-87655049D01*
X56292184Y-87655051D01*
X56481588Y-87751557D01*
X56683757Y-87817246D01*
X56893713Y-87850500D01*
X56893714Y-87850500D01*
X57106286Y-87850500D01*
X57106287Y-87850500D01*
X57316243Y-87817246D01*
X57518412Y-87751557D01*
X57707816Y-87655051D01*
X57729789Y-87639086D01*
X57879786Y-87530109D01*
X57879788Y-87530106D01*
X57879792Y-87530104D01*
X58030104Y-87379792D01*
X58030106Y-87379788D01*
X58030109Y-87379786D01*
X58155048Y-87207820D01*
X58155047Y-87207820D01*
X58155051Y-87207816D01*
X58251557Y-87018412D01*
X58317246Y-86816243D01*
X58350500Y-86606287D01*
X58350500Y-86393713D01*
X58317246Y-86183757D01*
X58251557Y-85981588D01*
X58155051Y-85792184D01*
X58155049Y-85792181D01*
X58155048Y-85792179D01*
X58030109Y-85620213D01*
X57879786Y-85469890D01*
X57707820Y-85344951D01*
X57518414Y-85248444D01*
X57518413Y-85248443D01*
X57518412Y-85248443D01*
X57316243Y-85182754D01*
X57316241Y-85182753D01*
X57316240Y-85182753D01*
X57154957Y-85157208D01*
X57106287Y-85149500D01*
X56893713Y-85149500D01*
X56845042Y-85157208D01*
X56683760Y-85182753D01*
X56481585Y-85248444D01*
X56292179Y-85344951D01*
X56120213Y-85469890D01*
X55969890Y-85620213D01*
X55844951Y-85792179D01*
X55748444Y-85981585D01*
X55682753Y-86183760D01*
X55649500Y-86393713D01*
X45500500Y-86393713D01*
X45500500Y-79052135D01*
X47059500Y-79052135D01*
X47059500Y-80947870D01*
X47059501Y-80947876D01*
X47065908Y-81007483D01*
X47116202Y-81142328D01*
X47116206Y-81142335D01*
X47202452Y-81257544D01*
X47202455Y-81257547D01*
X47317664Y-81343793D01*
X47317671Y-81343797D01*
X47452517Y-81394091D01*
X47452516Y-81394091D01*
X47459444Y-81394835D01*
X47512127Y-81400500D01*
X49407872Y-81400499D01*
X49467483Y-81394091D01*
X49602331Y-81343796D01*
X49717546Y-81257546D01*
X49803796Y-81142331D01*
X49831429Y-81068243D01*
X49833601Y-81062420D01*
X49875471Y-81006486D01*
X49940936Y-80982068D01*
X50009209Y-80996919D01*
X50037464Y-81018071D01*
X50087636Y-81068243D01*
X50087641Y-81068247D01*
X50189603Y-81142326D01*
X50265978Y-81197815D01*
X50394375Y-81263237D01*
X50462393Y-81297895D01*
X50462396Y-81297896D01*
X50567221Y-81331955D01*
X50672049Y-81366015D01*
X50889778Y-81400500D01*
X50889779Y-81400500D01*
X51110221Y-81400500D01*
X51110222Y-81400500D01*
X51327951Y-81366015D01*
X51537606Y-81297895D01*
X51734022Y-81197815D01*
X51912365Y-81068242D01*
X52068242Y-80912365D01*
X52197815Y-80734022D01*
X52297895Y-80537606D01*
X52366015Y-80327951D01*
X52400500Y-80110222D01*
X52400500Y-79889778D01*
X52366015Y-79672049D01*
X52297895Y-79462394D01*
X52297895Y-79462393D01*
X52263237Y-79394375D01*
X52197815Y-79265978D01*
X52139501Y-79185715D01*
X52068247Y-79087641D01*
X52068243Y-79087636D01*
X51912363Y-78931756D01*
X51912358Y-78931752D01*
X51734025Y-78802187D01*
X51734024Y-78802186D01*
X51734022Y-78802185D01*
X51616791Y-78742452D01*
X51537606Y-78702104D01*
X51537603Y-78702103D01*
X51327952Y-78633985D01*
X51219086Y-78616742D01*
X51110222Y-78599500D01*
X50889778Y-78599500D01*
X50817201Y-78610995D01*
X50672047Y-78633985D01*
X50462396Y-78702103D01*
X50462393Y-78702104D01*
X50265974Y-78802187D01*
X50087641Y-78931752D01*
X50087636Y-78931756D01*
X50037463Y-78981929D01*
X49976140Y-79015413D01*
X49906448Y-79010428D01*
X49850515Y-78968557D01*
X49833601Y-78937580D01*
X49803797Y-78857671D01*
X49803793Y-78857664D01*
X49717547Y-78742455D01*
X49717544Y-78742452D01*
X49602335Y-78656206D01*
X49602328Y-78656202D01*
X49467482Y-78605908D01*
X49467483Y-78605908D01*
X49407883Y-78599501D01*
X49407881Y-78599500D01*
X49407873Y-78599500D01*
X49407864Y-78599500D01*
X47512129Y-78599500D01*
X47512123Y-78599501D01*
X47452516Y-78605908D01*
X47317671Y-78656202D01*
X47317664Y-78656206D01*
X47202455Y-78742452D01*
X47202452Y-78742455D01*
X47116206Y-78857664D01*
X47116202Y-78857671D01*
X47065908Y-78992517D01*
X47059501Y-79052116D01*
X47059500Y-79052135D01*
X45500500Y-79052135D01*
X45500500Y-65052135D01*
X47059500Y-65052135D01*
X47059500Y-66947870D01*
X47059501Y-66947876D01*
X47065908Y-67007483D01*
X47116202Y-67142328D01*
X47116206Y-67142335D01*
X47202452Y-67257544D01*
X47202455Y-67257547D01*
X47317664Y-67343793D01*
X47317671Y-67343797D01*
X47452517Y-67394091D01*
X47452516Y-67394091D01*
X47459444Y-67394835D01*
X47512127Y-67400500D01*
X49407872Y-67400499D01*
X49467483Y-67394091D01*
X49602331Y-67343796D01*
X49717546Y-67257546D01*
X49803796Y-67142331D01*
X49831429Y-67068243D01*
X49833601Y-67062420D01*
X49875471Y-67006486D01*
X49940936Y-66982068D01*
X50009209Y-66996919D01*
X50037464Y-67018071D01*
X50087636Y-67068243D01*
X50087641Y-67068247D01*
X50189603Y-67142326D01*
X50265978Y-67197815D01*
X50394375Y-67263237D01*
X50462393Y-67297895D01*
X50462396Y-67297896D01*
X50518864Y-67316243D01*
X50672049Y-67366015D01*
X50889778Y-67400500D01*
X50889779Y-67400500D01*
X51110220Y-67400500D01*
X51110222Y-67400500D01*
X51245431Y-67379084D01*
X51314722Y-67388038D01*
X51352508Y-67413876D01*
X52417049Y-68478416D01*
X52521584Y-68582951D01*
X52521585Y-68582952D01*
X52644498Y-68665080D01*
X52644511Y-68665087D01*
X52751469Y-68709390D01*
X52781087Y-68721658D01*
X52781091Y-68721658D01*
X52781092Y-68721659D01*
X52926079Y-68750500D01*
X52926082Y-68750500D01*
X52926083Y-68750500D01*
X53073917Y-68750500D01*
X56695396Y-68750500D01*
X56742844Y-68759937D01*
X56766503Y-68769737D01*
X56766508Y-68769738D01*
X56766511Y-68769739D01*
X56921153Y-68800499D01*
X56921156Y-68800500D01*
X56921158Y-68800500D01*
X57078844Y-68800500D01*
X57078845Y-68800499D01*
X57233497Y-68769737D01*
X57379179Y-68709394D01*
X57510289Y-68621789D01*
X57621789Y-68510289D01*
X57709394Y-68379179D01*
X57769737Y-68233497D01*
X57800500Y-68078842D01*
X57800500Y-67921158D01*
X57800500Y-67921155D01*
X57800499Y-67921153D01*
X57792272Y-67879792D01*
X57769737Y-67766503D01*
X57745428Y-67707816D01*
X57709397Y-67620827D01*
X57709390Y-67620814D01*
X57621789Y-67489711D01*
X57621786Y-67489707D01*
X57510292Y-67378213D01*
X57510288Y-67378210D01*
X57379185Y-67290609D01*
X57379172Y-67290602D01*
X57233501Y-67230264D01*
X57233489Y-67230261D01*
X57078845Y-67199500D01*
X57078842Y-67199500D01*
X56921158Y-67199500D01*
X56921155Y-67199500D01*
X56766511Y-67230260D01*
X56766506Y-67230262D01*
X56766504Y-67230262D01*
X56766503Y-67230263D01*
X56742844Y-67240062D01*
X56695396Y-67249500D01*
X53362229Y-67249500D01*
X53295190Y-67229815D01*
X53274548Y-67213181D01*
X52413876Y-66352508D01*
X52380391Y-66291185D01*
X52379084Y-66245434D01*
X52400500Y-66110222D01*
X52400500Y-65889778D01*
X52366015Y-65672049D01*
X52297895Y-65462394D01*
X52297895Y-65462393D01*
X52263237Y-65394375D01*
X52197815Y-65265978D01*
X52139501Y-65185715D01*
X52092986Y-65121691D01*
X52068247Y-65087641D01*
X52068243Y-65087636D01*
X52032742Y-65052135D01*
X60599500Y-65052135D01*
X60599500Y-66947870D01*
X60599501Y-66947876D01*
X60605908Y-67007483D01*
X60656202Y-67142328D01*
X60656206Y-67142335D01*
X60742452Y-67257544D01*
X60742455Y-67257547D01*
X60857664Y-67343793D01*
X60857671Y-67343797D01*
X60992517Y-67394091D01*
X60992516Y-67394091D01*
X60999444Y-67394835D01*
X61052127Y-67400500D01*
X62947872Y-67400499D01*
X63007483Y-67394091D01*
X63142331Y-67343796D01*
X63257546Y-67257546D01*
X63343796Y-67142331D01*
X63371429Y-67068243D01*
X63373601Y-67062420D01*
X63415471Y-67006486D01*
X63480936Y-66982068D01*
X63549209Y-66996919D01*
X63577464Y-67018071D01*
X63627636Y-67068243D01*
X63627641Y-67068247D01*
X63729603Y-67142326D01*
X63805978Y-67197815D01*
X63934375Y-67263237D01*
X64002393Y-67297895D01*
X64002396Y-67297896D01*
X64058864Y-67316243D01*
X64212049Y-67366015D01*
X64429778Y-67400500D01*
X64429779Y-67400500D01*
X64650221Y-67400500D01*
X64650222Y-67400500D01*
X64867951Y-67366015D01*
X65077606Y-67297895D01*
X65274022Y-67197815D01*
X65452365Y-67068242D01*
X65608242Y-66912365D01*
X65621793Y-66893713D01*
X74649500Y-66893713D01*
X74649500Y-67106287D01*
X74659534Y-67169644D01*
X74669135Y-67230260D01*
X74682754Y-67316243D01*
X74739117Y-67489711D01*
X74748444Y-67518414D01*
X74844951Y-67707820D01*
X74969890Y-67879786D01*
X75120213Y-68030109D01*
X75292179Y-68155048D01*
X75292181Y-68155049D01*
X75292184Y-68155051D01*
X75481588Y-68251557D01*
X75683757Y-68317246D01*
X75893713Y-68350500D01*
X75893714Y-68350500D01*
X76106286Y-68350500D01*
X76106287Y-68350500D01*
X76316243Y-68317246D01*
X76518412Y-68251557D01*
X76707816Y-68155051D01*
X76812707Y-68078844D01*
X76879786Y-68030109D01*
X76879788Y-68030106D01*
X76879792Y-68030104D01*
X77030104Y-67879792D01*
X77030106Y-67879788D01*
X77030109Y-67879786D01*
X77155048Y-67707820D01*
X77155047Y-67707820D01*
X77155051Y-67707816D01*
X77251557Y-67518412D01*
X77317246Y-67316243D01*
X77350500Y-67106287D01*
X77350500Y-66893713D01*
X77317246Y-66683757D01*
X77251557Y-66481588D01*
X77155051Y-66292184D01*
X77155049Y-66292181D01*
X77155048Y-66292179D01*
X77030109Y-66120213D01*
X76879786Y-65969890D01*
X76707820Y-65844951D01*
X76518414Y-65748444D01*
X76518413Y-65748443D01*
X76518412Y-65748443D01*
X76316243Y-65682754D01*
X76316241Y-65682753D01*
X76316240Y-65682753D01*
X76154957Y-65657208D01*
X76106287Y-65649500D01*
X75893713Y-65649500D01*
X75845042Y-65657208D01*
X75683760Y-65682753D01*
X75481585Y-65748444D01*
X75292179Y-65844951D01*
X75120213Y-65969890D01*
X74969890Y-66120213D01*
X74844951Y-66292179D01*
X74748444Y-66481585D01*
X74682753Y-66683760D01*
X74661815Y-66815959D01*
X74649500Y-66893713D01*
X65621793Y-66893713D01*
X65737815Y-66734022D01*
X65837895Y-66537606D01*
X65906015Y-66327951D01*
X65940500Y-66110222D01*
X65940500Y-65889778D01*
X65906015Y-65672049D01*
X65837895Y-65462394D01*
X65837895Y-65462393D01*
X65803237Y-65394375D01*
X65737815Y-65265978D01*
X65632985Y-65121691D01*
X65608247Y-65087641D01*
X65608243Y-65087636D01*
X65452363Y-64931756D01*
X65452358Y-64931752D01*
X65274025Y-64802187D01*
X65274024Y-64802186D01*
X65274022Y-64802185D01*
X65156791Y-64742452D01*
X65077606Y-64702104D01*
X65077603Y-64702103D01*
X64867952Y-64633985D01*
X64759086Y-64616742D01*
X64650222Y-64599500D01*
X64429778Y-64599500D01*
X64357201Y-64610995D01*
X64212047Y-64633985D01*
X64002396Y-64702103D01*
X64002393Y-64702104D01*
X63805974Y-64802187D01*
X63627641Y-64931752D01*
X63627636Y-64931756D01*
X63577463Y-64981929D01*
X63516140Y-65015413D01*
X63446448Y-65010428D01*
X63390515Y-64968557D01*
X63373601Y-64937580D01*
X63343797Y-64857671D01*
X63343793Y-64857664D01*
X63257547Y-64742455D01*
X63257544Y-64742452D01*
X63142335Y-64656206D01*
X63142328Y-64656202D01*
X63007482Y-64605908D01*
X63007483Y-64605908D01*
X62947883Y-64599501D01*
X62947881Y-64599500D01*
X62947873Y-64599500D01*
X62947864Y-64599500D01*
X61052129Y-64599500D01*
X61052123Y-64599501D01*
X60992516Y-64605908D01*
X60857671Y-64656202D01*
X60857664Y-64656206D01*
X60742455Y-64742452D01*
X60742452Y-64742455D01*
X60656206Y-64857664D01*
X60656202Y-64857671D01*
X60605908Y-64992517D01*
X60599501Y-65052116D01*
X60599500Y-65052135D01*
X52032742Y-65052135D01*
X51912363Y-64931756D01*
X51912358Y-64931752D01*
X51734025Y-64802187D01*
X51734024Y-64802186D01*
X51734022Y-64802185D01*
X51616791Y-64742452D01*
X51537606Y-64702104D01*
X51537603Y-64702103D01*
X51327952Y-64633985D01*
X51219086Y-64616742D01*
X51110222Y-64599500D01*
X50889778Y-64599500D01*
X50817201Y-64610995D01*
X50672047Y-64633985D01*
X50462396Y-64702103D01*
X50462393Y-64702104D01*
X50265974Y-64802187D01*
X50087641Y-64931752D01*
X50087636Y-64931756D01*
X50037463Y-64981929D01*
X49976140Y-65015413D01*
X49906448Y-65010428D01*
X49850515Y-64968557D01*
X49833601Y-64937580D01*
X49803797Y-64857671D01*
X49803793Y-64857664D01*
X49717547Y-64742455D01*
X49717544Y-64742452D01*
X49602335Y-64656206D01*
X49602328Y-64656202D01*
X49467482Y-64605908D01*
X49467483Y-64605908D01*
X49407883Y-64599501D01*
X49407881Y-64599500D01*
X49407873Y-64599500D01*
X49407864Y-64599500D01*
X47512129Y-64599500D01*
X47512123Y-64599501D01*
X47452516Y-64605908D01*
X47317671Y-64656202D01*
X47317664Y-64656206D01*
X47202455Y-64742452D01*
X47202452Y-64742455D01*
X47116206Y-64857664D01*
X47116202Y-64857671D01*
X47065908Y-64992517D01*
X47059501Y-65052116D01*
X47059500Y-65052135D01*
X45500500Y-65052135D01*
X45500500Y-57872070D01*
X54249500Y-57872070D01*
X54249500Y-58127929D01*
X54289526Y-58380640D01*
X54368588Y-58623972D01*
X54368589Y-58623975D01*
X54484750Y-58851950D01*
X54635132Y-59058935D01*
X54635136Y-59058940D01*
X54816059Y-59239863D01*
X54816064Y-59239867D01*
X54855443Y-59268477D01*
X55023053Y-59390252D01*
X55172080Y-59466185D01*
X55251024Y-59506410D01*
X55251027Y-59506411D01*
X55372693Y-59545942D01*
X55494361Y-59585474D01*
X55747070Y-59625500D01*
X55747071Y-59625500D01*
X58252929Y-59625500D01*
X58252930Y-59625500D01*
X58505639Y-59585474D01*
X58748975Y-59506410D01*
X58976947Y-59390252D01*
X59183942Y-59239862D01*
X59364862Y-59058942D01*
X59515252Y-58851947D01*
X59631410Y-58623975D01*
X59710474Y-58380639D01*
X59750500Y-58127930D01*
X59750500Y-57897648D01*
X64889500Y-57897648D01*
X64889500Y-58102351D01*
X64921522Y-58304534D01*
X64984781Y-58499223D01*
X65077715Y-58681613D01*
X65198028Y-58847213D01*
X65342786Y-58991971D01*
X65434966Y-59058942D01*
X65508390Y-59112287D01*
X65624607Y-59171503D01*
X65690776Y-59205218D01*
X65690778Y-59205218D01*
X65690781Y-59205220D01*
X65795137Y-59239127D01*
X65885465Y-59268477D01*
X65986557Y-59284488D01*
X66087648Y-59300500D01*
X66087649Y-59300500D01*
X66292351Y-59300500D01*
X66292352Y-59300500D01*
X66494534Y-59268477D01*
X66689219Y-59205220D01*
X66871610Y-59112287D01*
X66964590Y-59044732D01*
X67037213Y-58991971D01*
X67037215Y-58991968D01*
X67037219Y-58991966D01*
X67181966Y-58847219D01*
X67181968Y-58847215D01*
X67181971Y-58847213D01*
X67234732Y-58774590D01*
X67302287Y-58681610D01*
X67395220Y-58499219D01*
X67458477Y-58304534D01*
X67490500Y-58102352D01*
X67490500Y-57897648D01*
X72509500Y-57897648D01*
X72509500Y-58102351D01*
X72541522Y-58304534D01*
X72604781Y-58499223D01*
X72697715Y-58681613D01*
X72818028Y-58847213D01*
X72962786Y-58991971D01*
X73054966Y-59058942D01*
X73128390Y-59112287D01*
X73244607Y-59171503D01*
X73310776Y-59205218D01*
X73310778Y-59205218D01*
X73310781Y-59205220D01*
X73415137Y-59239127D01*
X73505465Y-59268477D01*
X73606557Y-59284488D01*
X73707648Y-59300500D01*
X73707649Y-59300500D01*
X73912351Y-59300500D01*
X73912352Y-59300500D01*
X74114534Y-59268477D01*
X74309219Y-59205220D01*
X74491610Y-59112287D01*
X74584590Y-59044732D01*
X74657213Y-58991971D01*
X74657215Y-58991968D01*
X74657219Y-58991966D01*
X74801966Y-58847219D01*
X74801968Y-58847215D01*
X74801971Y-58847213D01*
X74854732Y-58774590D01*
X74922287Y-58681610D01*
X75015220Y-58499219D01*
X75078477Y-58304534D01*
X75110500Y-58102352D01*
X75110500Y-57897648D01*
X75078477Y-57695466D01*
X75015220Y-57500781D01*
X75015218Y-57500778D01*
X75015218Y-57500776D01*
X74981503Y-57434607D01*
X74922287Y-57318390D01*
X74914556Y-57307749D01*
X74801971Y-57152786D01*
X74657213Y-57008028D01*
X74491613Y-56887715D01*
X74491612Y-56887714D01*
X74491610Y-56887713D01*
X74434653Y-56858691D01*
X74309223Y-56794781D01*
X74114534Y-56731522D01*
X73939995Y-56703878D01*
X73912352Y-56699500D01*
X73707648Y-56699500D01*
X73683329Y-56703351D01*
X73505465Y-56731522D01*
X73310776Y-56794781D01*
X73128386Y-56887715D01*
X72962786Y-57008028D01*
X72818028Y-57152786D01*
X72697715Y-57318386D01*
X72604781Y-57500776D01*
X72541522Y-57695465D01*
X72509500Y-57897648D01*
X67490500Y-57897648D01*
X67458477Y-57695466D01*
X67395220Y-57500781D01*
X67395218Y-57500778D01*
X67395218Y-57500776D01*
X67361503Y-57434607D01*
X67302287Y-57318390D01*
X67294556Y-57307749D01*
X67181971Y-57152786D01*
X67037213Y-57008028D01*
X66871613Y-56887715D01*
X66871612Y-56887714D01*
X66871610Y-56887713D01*
X66814653Y-56858691D01*
X66689223Y-56794781D01*
X66494534Y-56731522D01*
X66319995Y-56703878D01*
X66292352Y-56699500D01*
X66087648Y-56699500D01*
X66063329Y-56703351D01*
X65885465Y-56731522D01*
X65690776Y-56794781D01*
X65508386Y-56887715D01*
X65342786Y-57008028D01*
X65198028Y-57152786D01*
X65077715Y-57318386D01*
X64984781Y-57500776D01*
X64921522Y-57695465D01*
X64889500Y-57897648D01*
X59750500Y-57897648D01*
X59750500Y-57872070D01*
X59710474Y-57619361D01*
X59631410Y-57376025D01*
X59631410Y-57376024D01*
X59591185Y-57297080D01*
X59515252Y-57148053D01*
X59413523Y-57008034D01*
X59364867Y-56941064D01*
X59364863Y-56941059D01*
X59183940Y-56760136D01*
X59183935Y-56760132D01*
X58976950Y-56609750D01*
X58976949Y-56609749D01*
X58976947Y-56609748D01*
X58903910Y-56572533D01*
X58748975Y-56493589D01*
X58748972Y-56493588D01*
X58505640Y-56414526D01*
X58379284Y-56394513D01*
X58252930Y-56374500D01*
X55747070Y-56374500D01*
X55662833Y-56387842D01*
X55494359Y-56414526D01*
X55251027Y-56493588D01*
X55251024Y-56493589D01*
X55023049Y-56609750D01*
X54816064Y-56760132D01*
X54816059Y-56760136D01*
X54635136Y-56941059D01*
X54635132Y-56941064D01*
X54484750Y-57148049D01*
X54368589Y-57376024D01*
X54368588Y-57376027D01*
X54289526Y-57619359D01*
X54249500Y-57872070D01*
X45500500Y-57872070D01*
X45500500Y-45897648D01*
X64889500Y-45897648D01*
X64889500Y-46102351D01*
X64921522Y-46304534D01*
X64984781Y-46499223D01*
X65077715Y-46681613D01*
X65198028Y-46847213D01*
X65342786Y-46991971D01*
X65497749Y-47104556D01*
X65508390Y-47112287D01*
X65624607Y-47171503D01*
X65690776Y-47205218D01*
X65690778Y-47205218D01*
X65690781Y-47205220D01*
X65795137Y-47239127D01*
X65885465Y-47268477D01*
X65947750Y-47278342D01*
X66087648Y-47300500D01*
X66087649Y-47300500D01*
X66292351Y-47300500D01*
X66292352Y-47300500D01*
X66494534Y-47268477D01*
X66689219Y-47205220D01*
X66871610Y-47112287D01*
X66964590Y-47044732D01*
X67037213Y-46991971D01*
X67037215Y-46991968D01*
X67037219Y-46991966D01*
X67181966Y-46847219D01*
X67181968Y-46847215D01*
X67181971Y-46847213D01*
X67234732Y-46774590D01*
X67302287Y-46681610D01*
X67395220Y-46499219D01*
X67458477Y-46304534D01*
X67490500Y-46102352D01*
X67490500Y-45897648D01*
X72509500Y-45897648D01*
X72509500Y-46102351D01*
X72541522Y-46304534D01*
X72604781Y-46499223D01*
X72697715Y-46681613D01*
X72818028Y-46847213D01*
X72962786Y-46991971D01*
X73117749Y-47104556D01*
X73128390Y-47112287D01*
X73244607Y-47171503D01*
X73310776Y-47205218D01*
X73310778Y-47205218D01*
X73310781Y-47205220D01*
X73415137Y-47239127D01*
X73505465Y-47268477D01*
X73567750Y-47278342D01*
X73707648Y-47300500D01*
X73707649Y-47300500D01*
X73912351Y-47300500D01*
X73912352Y-47300500D01*
X74114534Y-47268477D01*
X74309219Y-47205220D01*
X74491610Y-47112287D01*
X74584590Y-47044732D01*
X74657213Y-46991971D01*
X74657215Y-46991968D01*
X74657219Y-46991966D01*
X74801966Y-46847219D01*
X74801968Y-46847215D01*
X74801971Y-46847213D01*
X74854732Y-46774590D01*
X74922287Y-46681610D01*
X75015220Y-46499219D01*
X75078477Y-46304534D01*
X75110500Y-46102352D01*
X75110500Y-45897648D01*
X75078477Y-45695466D01*
X75015220Y-45500781D01*
X75015218Y-45500778D01*
X75015218Y-45500776D01*
X74981503Y-45434607D01*
X74922287Y-45318390D01*
X74914556Y-45307749D01*
X74801971Y-45152786D01*
X74657213Y-45008028D01*
X74491613Y-44887715D01*
X74491612Y-44887714D01*
X74491610Y-44887713D01*
X74434653Y-44858691D01*
X74309223Y-44794781D01*
X74114534Y-44731522D01*
X73939995Y-44703878D01*
X73912352Y-44699500D01*
X73707648Y-44699500D01*
X73683329Y-44703351D01*
X73505465Y-44731522D01*
X73310776Y-44794781D01*
X73128386Y-44887715D01*
X72962786Y-45008028D01*
X72818028Y-45152786D01*
X72697715Y-45318386D01*
X72604781Y-45500776D01*
X72541522Y-45695465D01*
X72509500Y-45897648D01*
X67490500Y-45897648D01*
X67458477Y-45695466D01*
X67395220Y-45500781D01*
X67395218Y-45500778D01*
X67395218Y-45500776D01*
X67361503Y-45434607D01*
X67302287Y-45318390D01*
X67294556Y-45307749D01*
X67181971Y-45152786D01*
X67037213Y-45008028D01*
X66871613Y-44887715D01*
X66871612Y-44887714D01*
X66871610Y-44887713D01*
X66814653Y-44858691D01*
X66689223Y-44794781D01*
X66494534Y-44731522D01*
X66319995Y-44703878D01*
X66292352Y-44699500D01*
X66087648Y-44699500D01*
X66063329Y-44703351D01*
X65885465Y-44731522D01*
X65690776Y-44794781D01*
X65508386Y-44887715D01*
X65342786Y-45008028D01*
X65198028Y-45152786D01*
X65077715Y-45318386D01*
X64984781Y-45500776D01*
X64921522Y-45695465D01*
X64889500Y-45897648D01*
X45500500Y-45897648D01*
X45500500Y-43624500D01*
X45520185Y-43557461D01*
X45572989Y-43511706D01*
X45624500Y-43500500D01*
X105375500Y-43500500D01*
X105442539Y-43520185D01*
G37*
%TD.AperFunction*%
M02*
