  0
SECTION
  2
HEADER
  9
$ACADVER
  1
AC1014
  9
$HANDSEED
  5
FFFF
  9
$INSUNITS
 70
     0
  9
$MEASUREMENT
 70
     1
  0
ENDSEC
  0
SECTION
  2
TABLES
  0
TABLE
  2
VPORT
  5
8
330
0
100
AcDbSymbolTable
 70
     4
  0
VPORT
  5
2E
330
8
100
AcDbSymbolTableRecord
100
AcDbViewportTableRecord
  2
*ACTIVE
 70
     0
 10
0.0
 20
0.0
 11
1.0
 21
1.0
 12
210.0
 22
148.5
 13
0.0
 23
0.0
 14
10.0
 24
10.0
 15
10.0
 25
10.0
 16
0.0
 26
0.0
 36
1.0
 17
0.0
 27
0.0
 37
0.0
 40
341.0
 41
1.24
 42
50.0
 43
0.0
 44
0.0
 50
0.0
 51
0.0
 71
     0
 72
   100
 73
     1
 74
     3
 75
     0
 76
     0
 77
     0
 78
     0
  0
ENDTAB
  0
TABLE
  2
LTYPE
  5
5
330
0
100
AcDbSymbolTable
 70
     1
  0
LTYPE
  5
14
330
5
100
AcDbSymbolTableRecord
100
AcDbLinetypeTableRecord
  2
BYBLOCK
 70
     0
  3

 72
    65
 73
     0
 40
0.0
  0
LTYPE
  5
15
330
5
100
AcDbSymbolTableRecord
100
AcDbLinetypeTableRecord
  2
BYLAYER
 70
     0
  3

 72
    65
 73
     0
 40
0.0
  0
LTYPE
  5
16
330
5
100
AcDbSymbolTableRecord
100
AcDbLinetypeTableRecord
  2
CONTINUOUS
 70
     0
  3
Solid line
 72
    65
 73
     0
 40
0.0
  0
ENDTAB
  0
TABLE
  2
LAYER
  5
2
100
AcDbSymbolTable
 70
1
  0
LAYER
  5
50
100
AcDbSymbolTableRecord
100
AcDbLayerTableRecord
  2
0
 70
0
  6
CONTINUOUS
  0
ENDTAB
  0
TABLE
  2
STYLE
  5
3
330
0
100
AcDbSymbolTable
 70
     1
  0
STYLE
  5
11
330
3
100
AcDbSymbolTableRecord
100
AcDbTextStyleTableRecord
  2
STANDARD
 70
     0
 40
0.0
 41
1.0
 50
0.0
 71
     0
 42
2.5
  3
txt
  4

  0
ENDTAB
  0
TABLE
  2
VIEW
  5
6
330
0
100
AcDbSymbolTable
 70
     0
  0
ENDTAB
  0
TABLE
  2
UCS
  5
7
330
0
100
AcDbSymbolTable
 70
     0
  0
ENDTAB
  0
TABLE
  2
APPID
  5
9
330
0
100
AcDbSymbolTable
 70
     2
  0
APPID
  5
12
330
9
100
AcDbSymbolTableRecord
100
AcDbRegAppTableRecord
  2
ACAD
 70
     0
  0
ENDTAB
  0
TABLE
  2
DIMSTYLE
  5
A
330
0
100
AcDbSymbolTable
 70
     1
  0
DIMSTYLE
105
27
330
A
100
AcDbSymbolTableRecord
100
AcDbDimStyleTableRecord
  2
ISO-25
 70
     0
  3

  4

  5

  6

  7

 40
1.0
 41
2.5
 42
0.625
 43
3.75
 44
1.25
 45
0.0
 46
0.0
 47
0.0
 48
0.0
140
2.5
141
2.5
142
0.0
143
0.03937007874016
144
1.0
145
0.0
146
1.0
147
0.625
 71
     0
 72
     0
 73
     0
 74
     0
 75
     0
 76
     0
 77
     1
 78
     8
170
     0
171
     3
172
     1
173
     0
174
     0
175
     0
176
     0
177
     0
178
     0
270
     2
271
     2
272
     2
273
     2
274
     3
340
11
275
     0
280
     0
281
     0
282
     0
283
     0
284
     8
285
     0
286
     0
287
     3
288
     0
  0
ENDTAB
  0
TABLE
  2
BLOCK_RECORD
  5
1
330
0
100
AcDbSymbolTable
 70
     1
  0
BLOCK_RECORD
  5
1F
330
1
100
AcDbSymbolTableRecord
100
AcDbBlockTableRecord
  2
*MODEL_SPACE
  0
BLOCK_RECORD
  5
1B
330
1
100
AcDbSymbolTableRecord
100
AcDbBlockTableRecord
  2
*PAPER_SPACE
  0
ENDTAB
  0
ENDSEC
  0
SECTION
  2
BLOCKS
  0
BLOCK
  5
20
330
1F
100
AcDbEntity
  8
0
100
AcDbBlockBegin
  2
*MODEL_SPACE
 70
     0
 10
0.0
 20
0.0
 30
0.0
  3
*MODEL_SPACE
  1

  0
ENDBLK
  5
21
330
1F
100
AcDbEntity
  8
0
100
AcDbBlockEnd
  0
BLOCK
  5
1C
330
1B
100
AcDbEntity
 67
     1
  8
0
100
AcDbBlockBegin
  2
*PAPER_SPACE
  1

  0
ENDBLK
  5
1D
330
1B
100
AcDbEntity
 67
     1
  8
0
100
AcDbBlockEnd
  0
ENDSEC
  0
SECTION
  2
ENTITIES
  0
SPLINE
  5
100
100
AcDbEntity
  8
0
 62
1
100
AcDbSpline
 70
8
 71
3
 72
8
 73
4
 74
0
 40
0
 40
0
 40
0
 40
0
 40
1
 40
1
 40
1
 40
1
 10
890.159950
 20
963.960570
 30
0.0
 10
890.159610
 20
960.580590
 30
0.0
 10
892.899350
 20
957.840300
 30
0.0
 10
896.279340
 20
957.839960
 30
0.0
  0
SPLINE
  5
101
100
AcDbEntity
  8
0
 62
1
100
AcDbSpline
 70
8
 71
3
 72
8
 73
4
 74
0
 40
0
 40
0
 40
0
 40
0
 40
1
 40
1
 40
1
 40
1
 10
896.279340
 20
957.839960
 30
0.0
 10
899.659320
 20
957.839620
 30
0.0
 10
902.399610
 20
960.579360
 30
0.0
 10
902.399950
 20
963.959350
 30
0.0
  0
SPLINE
  5
102
100
AcDbEntity
  8
0
 62
1
100
AcDbSpline
 70
8
 71
3
 72
8
 73
4
 74
0
 40
0
 40
0
 40
0
 40
0
 40
1
 40
1
 40
1
 40
1
 10
902.399950
 20
963.959350
 30
0.0
 10
902.400290
 20
967.339330
 30
0.0
 10
899.660550
 20
970.079620
 30
0.0
 10
896.280560
 20
970.079960
 30
0.0
  0
SPLINE
  5
103
100
AcDbEntity
  8
0
 62
1
100
AcDbSpline
 70
8
 71
3
 72
8
 73
4
 74
0
 40
0
 40
0
 40
0
 40
0
 40
1
 40
1
 40
1
 40
1
 10
896.280560
 20
970.079960
 30
0.0
 10
892.900580
 20
970.080300
 30
0.0
 10
890.160290
 20
967.340560
 30
0.0
 10
890.159950
 20
963.960570
 30
0.0
  0
SPLINE
  5
104
100
AcDbEntity
  8
0
 62
1
100
AcDbSpline
 70
8
 71
3
 72
8
 73
4
 74
0
 40
0
 40
0
 40
0
 40
0
 40
1
 40
1
 40
1
 40
1
 10
963.600050
 20
963.960570
 30
0.0
 10
963.599710
 20
960.580590
 30
0.0
 10
966.339450
 20
957.840300
 30
0.0
 10
969.719440
 20
957.839960
 30
0.0
  0
SPLINE
  5
105
100
AcDbEntity
  8
0
 62
1
100
AcDbSpline
 70
8
 71
3
 72
8
 73
4
 74
0
 40
0
 40
0
 40
0
 40
0
 40
1
 40
1
 40
1
 40
1
 10
969.719440
 20
957.839960
 30
0.0
 10
973.099420
 20
957.839620
 30
0.0
 10
975.839710
 20
960.579360
 30
0.0
 10
975.840050
 20
963.959350
 30
0.0
  0
SPLINE
  5
106
100
AcDbEntity
  8
0
 62
1
100
AcDbSpline
 70
8
 71
3
 72
8
 73
4
 74
0
 40
0
 40
0
 40
0
 40
0
 40
1
 40
1
 40
1
 40
1
 10
975.840050
 20
963.959350
 30
0.0
 10
975.840390
 20
967.339330
 30
0.0
 10
973.100650
 20
970.079620
 30
0.0
 10
969.720660
 20
970.079960
 30
0.0
  0
SPLINE
  5
107
100
AcDbEntity
  8
0
 62
1
100
AcDbSpline
 70
8
 71
3
 72
8
 73
4
 74
0
 40
0
 40
0
 40
0
 40
0
 40
1
 40
1
 40
1
 40
1
 10
969.720660
 20
970.079960
 30
0.0
 10
966.340680
 20
970.080300
 30
0.0
 10
963.600390
 20
967.340560
 30
0.0
 10
963.600050
 20
963.960570
 30
0.0
  0
SPLINE
  5
108
100
AcDbEntity
  8
0
 62
1
100
AcDbSpline
 70
8
 71
3
 72
8
 73
4
 74
0
 40
0
 40
0
 40
0
 40
0
 40
1
 40
1
 40
1
 40
1
 10
1228.320000
 20
916.200760
 30
0.0
 10
1228.319600
 20
912.158040
 30
0.0
 10
1231.596500
 20
908.880430
 30
0.0
 10
1235.639300
 20
908.880030
 30
0.0
  0
SPLINE
  5
109
100
AcDbEntity
  8
0
 62
1
100
AcDbSpline
 70
8
 71
3
 72
8
 73
4
 74
0
 40
0
 40
0
 40
0
 40
0
 40
1
 40
1
 40
1
 40
1
 10
1235.639300
 20
908.880030
 30
0.0
 10
1239.682000
 20
908.879630
 30
0.0
 10
1242.959600
 20
912.156580
 30
0.0
 10
1242.960000
 20
916.199300
 30
0.0
  0
SPLINE
  5
10a
100
AcDbEntity
  8
0
 62
1
100
AcDbSpline
 70
8
 71
3
 72
8
 73
4
 74
0
 40
0
 40
0
 40
0
 40
0
 40
1
 40
1
 40
1
 40
1
 10
1242.960000
 20
916.199300
 30
0.0
 10
1242.960400
 20
920.242020
 30
0.0
 10
1239.683500
 20
923.519630
 30
0.0
 10
1235.640700
 20
923.520030
 30
0.0
  0
SPLINE
  5
10b
100
AcDbEntity
  8
0
 62
1
100
AcDbSpline
 70
8
 71
3
 72
8
 73
4
 74
0
 40
0
 40
0
 40
0
 40
0
 40
1
 40
1
 40
1
 40
1
 10
1235.640700
 20
923.520030
 30
0.0
 10
1231.598000
 20
923.520430
 30
0.0
 10
1228.320400
 20
920.243480
 30
0.0
 10
1228.320000
 20
916.200760
 30
0.0
  0
SPLINE
  5
10c
100
AcDbEntity
  8
0
 62
1
100
AcDbSpline
 70
8
 71
3
 72
8
 73
4
 74
0
 40
0
 40
0
 40
0
 40
0
 40
1
 40
1
 40
1
 40
1
 10
1109.040000
 20
916.200760
 30
0.0
 10
1109.039600
 20
912.158040
 30
0.0
 10
1112.316500
 20
908.880430
 30
0.0
 10
1116.359300
 20
908.880030
 30
0.0
  0
SPLINE
  5
10d
100
AcDbEntity
  8
0
 62
1
100
AcDbSpline
 70
8
 71
3
 72
8
 73
4
 74
0
 40
0
 40
0
 40
0
 40
0
 40
1
 40
1
 40
1
 40
1
 10
1116.359300
 20
908.880030
 30
0.0
 10
1120.402000
 20
908.879630
 30
0.0
 10
1123.679600
 20
912.156580
 30
0.0
 10
1123.680000
 20
916.199300
 30
0.0
  0
SPLINE
  5
10e
100
AcDbEntity
  8
0
 62
1
100
AcDbSpline
 70
8
 71
3
 72
8
 73
4
 74
0
 40
0
 40
0
 40
0
 40
0
 40
1
 40
1
 40
1
 40
1
 10
1123.680000
 20
916.199300
 30
0.0
 10
1123.680400
 20
920.242020
 30
0.0
 10
1120.403500
 20
923.519630
 30
0.0
 10
1116.360700
 20
923.520030
 30
0.0
  0
SPLINE
  5
10f
100
AcDbEntity
  8
0
 62
1
100
AcDbSpline
 70
8
 71
3
 72
8
 73
4
 74
0
 40
0
 40
0
 40
0
 40
0
 40
1
 40
1
 40
1
 40
1
 10
1116.360700
 20
923.520030
 30
0.0
 10
1112.318000
 20
923.520430
 30
0.0
 10
1109.040400
 20
920.243480
 30
0.0
 10
1109.040000
 20
916.200760
 30
0.0
  0
SPLINE
  5
110
100
AcDbEntity
  8
0
 62
1
100
AcDbSpline
 70
8
 71
3
 72
8
 73
4
 74
0
 40
0
 40
0
 40
0
 40
0
 40
1
 40
1
 40
1
 40
1
 10
1109.040000
 20
1073.400720
 30
0.0
 10
1109.039600
 20
1069.358000
 30
0.0
 10
1112.316500
 20
1066.080390
 30
0.0
 10
1116.359300
 20
1066.079990
 30
0.0
  0
SPLINE
  5
111
100
AcDbEntity
  8
0
 62
1
100
AcDbSpline
 70
8
 71
3
 72
8
 73
4
 74
0
 40
0
 40
0
 40
0
 40
0
 40
1
 40
1
 40
1
 40
1
 10
1116.359300
 20
1066.079990
 30
0.0
 10
1120.402000
 20
1066.079590
 30
0.0
 10
1123.679600
 20
1069.356540
 30
0.0
 10
1123.680000
 20
1073.399260
 30
0.0
  0
SPLINE
  5
112
100
AcDbEntity
  8
0
 62
1
100
AcDbSpline
 70
8
 71
3
 72
8
 73
4
 74
0
 40
0
 40
0
 40
0
 40
0
 40
1
 40
1
 40
1
 40
1
 10
1123.680000
 20
1073.399260
 30
0.0
 10
1123.680400
 20
1077.441980
 30
0.0
 10
1120.403500
 20
1080.719590
 30
0.0
 10
1116.360700
 20
1080.719990
 30
0.0
  0
SPLINE
  5
113
100
AcDbEntity
  8
0
 62
1
100
AcDbSpline
 70
8
 71
3
 72
8
 73
4
 74
0
 40
0
 40
0
 40
0
 40
0
 40
1
 40
1
 40
1
 40
1
 10
1116.360700
 20
1080.719990
 30
0.0
 10
1112.318000
 20
1080.720390
 30
0.0
 10
1109.040400
 20
1077.443440
 30
0.0
 10
1109.040000
 20
1073.400720
 30
0.0
  0
SPLINE
  5
114
100
AcDbEntity
  8
0
 62
1
100
AcDbSpline
 70
8
 71
3
 72
8
 73
4
 74
0
 40
0
 40
0
 40
0
 40
0
 40
1
 40
1
 40
1
 40
1
 10
1228.320000
 20
1073.400720
 30
0.0
 10
1228.319600
 20
1069.358000
 30
0.0
 10
1231.596500
 20
1066.080390
 30
0.0
 10
1235.639300
 20
1066.079990
 30
0.0
  0
SPLINE
  5
115
100
AcDbEntity
  8
0
 62
1
100
AcDbSpline
 70
8
 71
3
 72
8
 73
4
 74
0
 40
0
 40
0
 40
0
 40
0
 40
1
 40
1
 40
1
 40
1
 10
1235.639300
 20
1066.079990
 30
0.0
 10
1239.682000
 20
1066.079590
 30
0.0
 10
1242.959600
 20
1069.356540
 30
0.0
 10
1242.960000
 20
1073.399260
 30
0.0
  0
SPLINE
  5
116
100
AcDbEntity
  8
0
 62
1
100
AcDbSpline
 70
8
 71
3
 72
8
 73
4
 74
0
 40
0
 40
0
 40
0
 40
0
 40
1
 40
1
 40
1
 40
1
 10
1242.960000
 20
1073.399260
 30
0.0
 10
1242.960400
 20
1077.441980
 30
0.0
 10
1239.683500
 20
1080.719590
 30
0.0
 10
1235.640700
 20
1080.719990
 30
0.0
  0
SPLINE
  5
117
100
AcDbEntity
  8
0
 62
1
100
AcDbSpline
 70
8
 71
3
 72
8
 73
4
 74
0
 40
0
 40
0
 40
0
 40
0
 40
1
 40
1
 40
1
 40
1
 10
1235.640700
 20
1080.719990
 30
0.0
 10
1231.598000
 20
1080.720390
 30
0.0
 10
1228.320400
 20
1077.443440
 30
0.0
 10
1228.320000
 20
1073.400720
 30
0.0
  0
SPLINE
  5
118
100
AcDbEntity
  8
0
 62
1
100
AcDbSpline
 70
8
 71
3
 72
8
 73
4
 74
0
 40
0
 40
0
 40
0
 40
0
 40
1
 40
1
 40
1
 40
1
 10
1270.560000
 20
855.961320
 30
0.0
 10
1270.559300
 20
848.472330
 30
0.0
 10
1276.629700
 20
842.400710
 30
0.0
 10
1284.118600
 20
842.399960
 30
0.0
  0
SPLINE
  5
119
100
AcDbEntity
  8
0
 62
1
100
AcDbSpline
 70
8
 71
3
 72
8
 73
4
 74
0
 40
0
 40
0
 40
0
 40
0
 40
1
 40
1
 40
1
 40
1
 10
1284.118600
 20
842.399960
 30
0.0
 10
1291.607600
 20
842.399210
 30
0.0
 10
1297.679300
 20
848.469620
 30
0.0
 10
1297.680000
 20
855.958600
 30
0.0
  0
SPLINE
  5
11a
100
AcDbEntity
  8
0
 62
1
100
AcDbSpline
 70
8
 71
3
 72
8
 73
4
 74
0
 40
0
 40
0
 40
0
 40
0
 40
1
 40
1
 40
1
 40
1
 10
1297.680000
 20
855.958600
 30
0.0
 10
1297.680700
 20
863.447590
 30
0.0
 10
1291.610300
 20
869.519210
 30
0.0
 10
1284.121400
 20
869.519960
 30
0.0
  0
SPLINE
  5
11b
100
AcDbEntity
  8
0
 62
1
100
AcDbSpline
 70
8
 71
3
 72
8
 73
4
 74
0
 40
0
 40
0
 40
0
 40
0
 40
1
 40
1
 40
1
 40
1
 10
1284.121400
 20
869.519960
 30
0.0
 10
1276.632400
 20
869.520710
 30
0.0
 10
1270.560700
 20
863.450300
 30
0.0
 10
1270.560000
 20
855.961320
 30
0.0
  0
SPLINE
  5
11c
100
AcDbEntity
  8
0
 62
1
100
AcDbSpline
 70
8
 71
3
 72
8
 73
4
 74
0
 40
0
 40
0
 40
0
 40
0
 40
1
 40
1
 40
1
 40
1
 10
814.559960
 20
855.961320
 30
0.0
 10
814.559210
 20
848.472330
 30
0.0
 10
820.629620
 20
842.400710
 30
0.0
 10
828.118600
 20
842.399960
 30
0.0
  0
SPLINE
  5
11d
100
AcDbEntity
  8
0
 62
1
100
AcDbSpline
 70
8
 71
3
 72
8
 73
4
 74
0
 40
0
 40
0
 40
0
 40
0
 40
1
 40
1
 40
1
 40
1
 10
828.118600
 20
842.399960
 30
0.0
 10
835.607590
 20
842.399210
 30
0.0
 10
841.679210
 20
848.469620
 30
0.0
 10
841.679960
 20
855.958600
 30
0.0
  0
SPLINE
  5
11e
100
AcDbEntity
  8
0
 62
1
100
AcDbSpline
 70
8
 71
3
 72
8
 73
4
 74
0
 40
0
 40
0
 40
0
 40
0
 40
1
 40
1
 40
1
 40
1
 10
841.679960
 20
855.958600
 30
0.0
 10
841.680710
 20
863.447590
 30
0.0
 10
835.610300
 20
869.519210
 30
0.0
 10
828.121320
 20
869.519960
 30
0.0
  0
SPLINE
  5
11f
100
AcDbEntity
  8
0
 62
1
100
AcDbSpline
 70
8
 71
3
 72
8
 73
4
 74
0
 40
0
 40
0
 40
0
 40
0
 40
1
 40
1
 40
1
 40
1
 10
828.121320
 20
869.519960
 30
0.0
 10
820.632330
 20
869.520710
 30
0.0
 10
814.560710
 20
863.450300
 30
0.0
 10
814.559960
 20
855.961320
 30
0.0
  0
SPLINE
  5
120
100
AcDbEntity
  8
0
 62
1
100
AcDbSpline
 70
8
 71
3
 72
8
 73
4
 74
0
 40
0
 40
0
 40
0
 40
0
 40
1
 40
1
 40
1
 40
1
 10
814.559960
 20
1095.961320
 30
0.0
 10
814.559210
 20
1088.472330
 30
0.0
 10
820.629620
 20
1082.400710
 30
0.0
 10
828.118600
 20
1082.399960
 30
0.0
  0
SPLINE
  5
121
100
AcDbEntity
  8
0
 62
1
100
AcDbSpline
 70
8
 71
3
 72
8
 73
4
 74
0
 40
0
 40
0
 40
0
 40
0
 40
1
 40
1
 40
1
 40
1
 10
828.118600
 20
1082.399960
 30
0.0
 10
835.607590
 20
1082.399210
 30
0.0
 10
841.679210
 20
1088.469620
 30
0.0
 10
841.679960
 20
1095.958600
 30
0.0
  0
SPLINE
  5
122
100
AcDbEntity
  8
0
 62
1
100
AcDbSpline
 70
8
 71
3
 72
8
 73
4
 74
0
 40
0
 40
0
 40
0
 40
0
 40
1
 40
1
 40
1
 40
1
 10
841.679960
 20
1095.958600
 30
0.0
 10
841.680710
 20
1103.447590
 30
0.0
 10
835.610300
 20
1109.519210
 30
0.0
 10
828.121320
 20
1109.519960
 30
0.0
  0
SPLINE
  5
123
100
AcDbEntity
  8
0
 62
1
100
AcDbSpline
 70
8
 71
3
 72
8
 73
4
 74
0
 40
0
 40
0
 40
0
 40
0
 40
1
 40
1
 40
1
 40
1
 10
828.121320
 20
1109.519960
 30
0.0
 10
820.632330
 20
1109.520710
 30
0.0
 10
814.560710
 20
1103.450300
 30
0.0
 10
814.559960
 20
1095.961320
 30
0.0
  0
SPLINE
  5
124
100
AcDbEntity
  8
0
 62
1
100
AcDbSpline
 70
8
 71
3
 72
8
 73
4
 74
0
 40
0
 40
0
 40
0
 40
0
 40
1
 40
1
 40
1
 40
1
 10
1270.560000
 20
1095.961320
 30
0.0
 10
1270.559300
 20
1088.472330
 30
0.0
 10
1276.629700
 20
1082.400710
 30
0.0
 10
1284.118600
 20
1082.399960
 30
0.0
  0
SPLINE
  5
125
100
AcDbEntity
  8
0
 62
1
100
AcDbSpline
 70
8
 71
3
 72
8
 73
4
 74
0
 40
0
 40
0
 40
0
 40
0
 40
1
 40
1
 40
1
 40
1
 10
1284.118600
 20
1082.399960
 30
0.0
 10
1291.607600
 20
1082.399210
 30
0.0
 10
1297.679300
 20
1088.469620
 30
0.0
 10
1297.680000
 20
1095.958600
 30
0.0
  0
SPLINE
  5
126
100
AcDbEntity
  8
0
 62
1
100
AcDbSpline
 70
8
 71
3
 72
8
 73
4
 74
0
 40
0
 40
0
 40
0
 40
0
 40
1
 40
1
 40
1
 40
1
 10
1297.680000
 20
1095.958600
 30
0.0
 10
1297.680700
 20
1103.447590
 30
0.0
 10
1291.610300
 20
1109.519210
 30
0.0
 10
1284.121400
 20
1109.519960
 30
0.0
  0
SPLINE
  5
127
100
AcDbEntity
  8
0
 62
1
100
AcDbSpline
 70
8
 71
3
 72
8
 73
4
 74
0
 40
0
 40
0
 40
0
 40
0
 40
1
 40
1
 40
1
 40
1
 10
1284.121400
 20
1109.519960
 30
0.0
 10
1276.632400
 20
1109.520710
 30
0.0
 10
1270.560700
 20
1103.450300
 30
0.0
 10
1270.560000
 20
1095.961320
 30
0.0
  0
LWPOLYLINE
  5
128
100
AcDbEntity
  8
0
 62
1
100
AcDbPolyline
 90
6
 70
1
 10
1252.799900
 20
1060.559950
 30
0.0
 10
1252.799900
 20
930.479960
 30
0.0
 10
1188.000000
 20
930.479960
 30
0.0
 10
1188.000000
 20
978.479960
 30
0.0
 10
1215.840000
 20
978.479960
 30
0.0
 10
1215.840000
 20
1060.559950
 30
0.0
  0
LWPOLYLINE
  5
129
100
AcDbEntity
  8
0
 62
1
100
AcDbPolyline
 90
4
 70
1
 10
1181.520000
 20
941.999980
 30
0.0
 10
1095.120000
 20
941.999980
 30
0.0
 10
1095.120000
 20
1052.399960
 30
0.0
 10
1181.520000
 20
1052.399960
 30
0.0
  0
LWPOLYLINE
  5
12a
100
AcDbEntity
  8
0
 62
1
100
AcDbPolyline
 90
4
 70
1
 10
1163.040000
 20
1064.399960
 30
0.0
 10
1127.040000
 20
1064.399960
 30
0.0
 10
1127.040000
 20
1088.879930
 30
0.0
 10
1163.040000
 20
1088.879930
 30
0.0
  0
LWPOLYLINE
  5
12b
100
AcDbEntity
  8
0
 62
1
100
AcDbPolyline
 90
4
 70
1
 10
1008.000000
 20
832.079980
 30
0.0
 10
1008.000000
 20
844.559950
 30
0.0
 10
1104.000000
 20
844.559950
 30
0.0
 10
1104.000000
 20
832.079980
 30
0.0
  0
LWPOLYLINE
  5
12c
100
AcDbEntity
  8
0
 62
1
100
AcDbPolyline
 90
4
 70
1
 10
1104.000000
 20
1107.599990
 30
0.0
 10
1008.000000
 20
1107.599990
 30
0.0
 10
1008.000000
 20
1120.079970
 30
0.0
 10
1104.000000
 20
1120.079970
 30
0.0
  0
LWPOLYLINE
  5
12d
100
AcDbEntity
  8
0
 62
1
100
AcDbPolyline
 90
4
 70
1
 10
803.999980
 20
952.079980
 30
0.0
 10
803.999980
 20
1000.079970
 30
0.0
 10
816.479970
 20
1000.079970
 30
0.0
 10
816.479970
 20
952.079980
 30
0.0
  0
LWPOLYLINE
  5
12e
100
AcDbEntity
  8
0
 62
1
100
AcDbPolyline
 90
4
 70
1
 10
1308.000000
 20
964.079980
 30
0.0
 10
1308.000000
 20
916.079980
 30
0.0
 10
1295.520000
 20
916.079980
 30
0.0
 10
1295.520000
 20
964.079980
 30
0.0
  0
LWPOLYLINE
  5
12f
100
AcDbEntity
  8
0
 62
1
100
AcDbPolyline
 90
4
 70
1
 10
969.599990
 20
929.519990
 30
0.0
 10
1070.400000
 20
929.519990
 30
0.0
 10
1070.400000
 20
881.519990
 30
0.0
 10
969.599990
 20
881.519990
 30
0.0
  0
LWPOLYLINE
  5
130
100
AcDbEntity
  8
0
 62
1
100
AcDbPolyline
 90
4
 70
1
 10
791.999980
 20
820.079980
 30
0.0
 10
1320.000000
 20
820.079980
 30
0.0
 10
1320.000000
 20
1132.079970
 30
0.0
 10
791.999980
 20
1132.079970
 30
0.0
  0
LWPOLYLINE
  5
131
100
AcDbEntity
  8
0
 62
1
100
AcDbPolyline
 90
4
 70
1
 10
907.679990
 20
711.360010
 30
0.0
 10
907.679990
 20
754.559950
 30
0.0
 10
958.079980
 20
754.559950
 30
0.0
 10
958.079980
 20
711.360010
 30
0.0
  0
LWPOLYLINE
  5
132
100
AcDbEntity
  8
0
 62
1
100
AcDbPolyline
 90
16
 70
1
 10
1104.000000
 20
798.239970
 30
0.0
 10
1104.000000
 20
810.239970
 30
0.0
 10
1008.000000
 20
810.239970
 30
0.0
 10
1008.000000
 20
798.239970
 30
0.0
 10
839.999980
 20
798.239970
 30
0.0
 10
839.999980
 20
702.239970
 30
0.0
 10
935.999980
 20
702.239970
 30
0.0
 10
935.999980
 20
690.239970
 30
0.0
 10
983.999980
 20
690.239970
 30
0.0
 10
983.999980
 20
702.239970
 30
0.0
 10
1128.000000
 20
702.239970
 30
0.0
 10
1128.000000
 20
690.239970
 30
0.0
 10
1176.000000
 20
690.239970
 30
0.0
 10
1176.000000
 20
702.239970
 30
0.0
 10
1272.000000
 20
702.239970
 30
0.0
 10
1272.000000
 20
798.239970
 30
0.0
  0
SPLINE
  5
133
100
AcDbEntity
  8
0
 62
1
100
AcDbSpline
 70
8
 71
3
 72
8
 73
4
 74
0
 40
0
 40
0
 40
0
 40
0
 40
1
 40
1
 40
1
 40
1
 10
1097.040000
 20
604.680700
 30
0.0
 10
1097.039600
 20
600.638000
 30
0.0
 10
1100.316500
 20
597.360400
 30
0.0
 10
1104.359300
 20
597.360000
 30
0.0
  0
SPLINE
  5
134
100
AcDbEntity
  8
0
 62
1
100
AcDbSpline
 70
8
 71
3
 72
8
 73
4
 74
0
 40
0
 40
0
 40
0
 40
0
 40
1
 40
1
 40
1
 40
1
 10
1104.359300
 20
597.360000
 30
0.0
 10
1108.402000
 20
597.359600
 30
0.0
 10
1111.679600
 20
600.636500
 30
0.0
 10
1111.680000
 20
604.679300
 30
0.0
  0
SPLINE
  5
135
100
AcDbEntity
  8
0
 62
1
100
AcDbSpline
 70
8
 71
3
 72
8
 73
4
 74
0
 40
0
 40
0
 40
0
 40
0
 40
1
 40
1
 40
1
 40
1
 10
1111.680000
 20
604.679300
 30
0.0
 10
1111.680400
 20
608.722000
 30
0.0
 10
1108.403500
 20
611.999600
 30
0.0
 10
1104.360700
 20
612.000000
 30
0.0
  0
SPLINE
  5
136
100
AcDbEntity
  8
0
 62
1
100
AcDbSpline
 70
8
 71
3
 72
8
 73
4
 74
0
 40
0
 40
0
 40
0
 40
0
 40
1
 40
1
 40
1
 40
1
 10
1104.360700
 20
612.000000
 30
0.0
 10
1100.318000
 20
612.000400
 30
0.0
 10
1097.040400
 20
608.723500
 30
0.0
 10
1097.040000
 20
604.680700
 30
0.0
  0
SPLINE
  5
137
100
AcDbEntity
  8
0
 62
1
100
AcDbSpline
 70
8
 71
3
 72
8
 73
4
 74
0
 40
0
 40
0
 40
0
 40
0
 40
1
 40
1
 40
1
 40
1
 10
1097.040000
 20
447.480700
 30
0.0
 10
1097.039600
 20
443.438000
 30
0.0
 10
1100.316500
 20
440.160400
 30
0.0
 10
1104.359300
 20
440.160000
 30
0.0
  0
SPLINE
  5
138
100
AcDbEntity
  8
0
 62
1
100
AcDbSpline
 70
8
 71
3
 72
8
 73
4
 74
0
 40
0
 40
0
 40
0
 40
0
 40
1
 40
1
 40
1
 40
1
 10
1104.359300
 20
440.160000
 30
0.0
 10
1108.402000
 20
440.159600
 30
0.0
 10
1111.679600
 20
443.436500
 30
0.0
 10
1111.680000
 20
447.479300
 30
0.0
  0
SPLINE
  5
139
100
AcDbEntity
  8
0
 62
1
100
AcDbSpline
 70
8
 71
3
 72
8
 73
4
 74
0
 40
0
 40
0
 40
0
 40
0
 40
1
 40
1
 40
1
 40
1
 10
1111.680000
 20
447.479300
 30
0.0
 10
1111.680400
 20
451.522000
 30
0.0
 10
1108.403500
 20
454.799600
 30
0.0
 10
1104.360700
 20
454.800000
 30
0.0
  0
SPLINE
  5
13a
100
AcDbEntity
  8
0
 62
1
100
AcDbSpline
 70
8
 71
3
 72
8
 73
4
 74
0
 40
0
 40
0
 40
0
 40
0
 40
1
 40
1
 40
1
 40
1
 10
1104.360700
 20
454.800000
 30
0.0
 10
1100.318000
 20
454.800400
 30
0.0
 10
1097.040400
 20
451.523500
 30
0.0
 10
1097.040000
 20
447.480700
 30
0.0
  0
SPLINE
  5
13b
100
AcDbEntity
  8
0
 62
1
100
AcDbSpline
 70
8
 71
3
 72
8
 73
4
 74
0
 40
0
 40
0
 40
0
 40
0
 40
1
 40
1
 40
1
 40
1
 10
1216.320000
 20
604.680700
 30
0.0
 10
1216.319600
 20
600.638000
 30
0.0
 10
1219.596500
 20
597.360400
 30
0.0
 10
1223.639300
 20
597.360000
 30
0.0
  0
SPLINE
  5
13c
100
AcDbEntity
  8
0
 62
1
100
AcDbSpline
 70
8
 71
3
 72
8
 73
4
 74
0
 40
0
 40
0
 40
0
 40
0
 40
1
 40
1
 40
1
 40
1
 10
1223.639300
 20
597.360000
 30
0.0
 10
1227.682000
 20
597.359600
 30
0.0
 10
1230.959600
 20
600.636500
 30
0.0
 10
1230.960000
 20
604.679300
 30
0.0
  0
SPLINE
  5
13d
100
AcDbEntity
  8
0
 62
1
100
AcDbSpline
 70
8
 71
3
 72
8
 73
4
 74
0
 40
0
 40
0
 40
0
 40
0
 40
1
 40
1
 40
1
 40
1
 10
1230.960000
 20
604.679300
 30
0.0
 10
1230.960400
 20
608.722000
 30
0.0
 10
1227.683500
 20
611.999600
 30
0.0
 10
1223.640700
 20
612.000000
 30
0.0
  0
SPLINE
  5
13e
100
AcDbEntity
  8
0
 62
1
100
AcDbSpline
 70
8
 71
3
 72
8
 73
4
 74
0
 40
0
 40
0
 40
0
 40
0
 40
1
 40
1
 40
1
 40
1
 10
1223.640700
 20
612.000000
 30
0.0
 10
1219.598000
 20
612.000400
 30
0.0
 10
1216.320400
 20
608.723500
 30
0.0
 10
1216.320000
 20
604.680700
 30
0.0
  0
SPLINE
  5
13f
100
AcDbEntity
  8
0
 62
1
100
AcDbSpline
 70
8
 71
3
 72
8
 73
4
 74
0
 40
0
 40
0
 40
0
 40
0
 40
1
 40
1
 40
1
 40
1
 10
1216.320000
 20
447.480700
 30
0.0
 10
1216.319600
 20
443.438000
 30
0.0
 10
1219.596500
 20
440.160400
 30
0.0
 10
1223.639300
 20
440.160000
 30
0.0
  0
SPLINE
  5
140
100
AcDbEntity
  8
0
 62
1
100
AcDbSpline
 70
8
 71
3
 72
8
 73
4
 74
0
 40
0
 40
0
 40
0
 40
0
 40
1
 40
1
 40
1
 40
1
 10
1223.639300
 20
440.160000
 30
0.0
 10
1227.682000
 20
440.159600
 30
0.0
 10
1230.959600
 20
443.436500
 30
0.0
 10
1230.960000
 20
447.479300
 30
0.0
  0
SPLINE
  5
141
100
AcDbEntity
  8
0
 62
1
100
AcDbSpline
 70
8
 71
3
 72
8
 73
4
 74
0
 40
0
 40
0
 40
0
 40
0
 40
1
 40
1
 40
1
 40
1
 10
1230.960000
 20
447.479300
 30
0.0
 10
1230.960400
 20
451.522000
 30
0.0
 10
1227.683500
 20
454.799600
 30
0.0
 10
1223.640700
 20
454.800000
 30
0.0
  0
SPLINE
  5
142
100
AcDbEntity
  8
0
 62
1
100
AcDbSpline
 70
8
 71
3
 72
8
 73
4
 74
0
 40
0
 40
0
 40
0
 40
0
 40
1
 40
1
 40
1
 40
1
 10
1223.640700
 20
454.800000
 30
0.0
 10
1219.598000
 20
454.800400
 30
0.0
 10
1216.320400
 20
451.523500
 30
0.0
 10
1216.320000
 20
447.480700
 30
0.0
  0
SPLINE
  5
143
100
AcDbEntity
  8
0
 62
1
100
AcDbSpline
 70
8
 71
3
 72
8
 73
4
 74
0
 40
0
 40
0
 40
0
 40
0
 40
1
 40
1
 40
1
 40
1
 10
814.559960
 20
646.201390
 30
0.0
 10
814.559210
 20
638.712400
 30
0.0
 10
820.629620
 20
632.640780
 30
0.0
 10
828.118600
 20
632.640030
 30
0.0
  0
SPLINE
  5
144
100
AcDbEntity
  8
0
 62
1
100
AcDbSpline
 70
8
 71
3
 72
8
 73
4
 74
0
 40
0
 40
0
 40
0
 40
0
 40
1
 40
1
 40
1
 40
1
 10
828.118600
 20
632.640030
 30
0.0
 10
835.607590
 20
632.639280
 30
0.0
 10
841.679210
 20
638.709690
 30
0.0
 10
841.679960
 20
646.198670
 30
0.0
  0
SPLINE
  5
145
100
AcDbEntity
  8
0
 62
1
100
AcDbSpline
 70
8
 71
3
 72
8
 73
4
 74
0
 40
0
 40
0
 40
0
 40
0
 40
1
 40
1
 40
1
 40
1
 10
841.679960
 20
646.198670
 30
0.0
 10
841.680710
 20
653.687660
 30
0.0
 10
835.610300
 20
659.759280
 30
0.0
 10
828.121320
 20
659.760030
 30
0.0
  0
SPLINE
  5
146
100
AcDbEntity
  8
0
 62
1
100
AcDbSpline
 70
8
 71
3
 72
8
 73
4
 74
0
 40
0
 40
0
 40
0
 40
0
 40
1
 40
1
 40
1
 40
1
 10
828.121320
 20
659.760030
 30
0.0
 10
820.632330
 20
659.760780
 30
0.0
 10
814.560710
 20
653.690370
 30
0.0
 10
814.559960
 20
646.201390
 30
0.0
  0
SPLINE
  5
147
100
AcDbEntity
  8
0
 62
1
100
AcDbSpline
 70
8
 71
3
 72
8
 73
4
 74
0
 40
0
 40
0
 40
0
 40
0
 40
1
 40
1
 40
1
 40
1
 10
814.559960
 20
406.201400
 30
0.0
 10
814.559210
 20
398.712400
 30
0.0
 10
820.629620
 20
392.640700
 30
0.0
 10
828.118600
 20
392.640000
 30
0.0
  0
SPLINE
  5
148
100
AcDbEntity
  8
0
 62
1
100
AcDbSpline
 70
8
 71
3
 72
8
 73
4
 74
0
 40
0
 40
0
 40
0
 40
0
 40
1
 40
1
 40
1
 40
1
 10
828.118600
 20
392.640000
 30
0.0
 10
835.607590
 20
392.639300
 30
0.0
 10
841.679210
 20
398.709700
 30
0.0
 10
841.679960
 20
406.198600
 30
0.0
  0
SPLINE
  5
149
100
AcDbEntity
  8
0
 62
1
100
AcDbSpline
 70
8
 71
3
 72
8
 73
4
 74
0
 40
0
 40
0
 40
0
 40
0
 40
1
 40
1
 40
1
 40
1
 10
841.679960
 20
406.198600
 30
0.0
 10
841.680710
 20
413.687600
 30
0.0
 10
835.610300
 20
419.759300
 30
0.0
 10
828.121320
 20
419.760000
 30
0.0
  0
SPLINE
  5
14a
100
AcDbEntity
  8
0
 62
1
100
AcDbSpline
 70
8
 71
3
 72
8
 73
4
 74
0
 40
0
 40
0
 40
0
 40
0
 40
1
 40
1
 40
1
 40
1
 10
828.121320
 20
419.760000
 30
0.0
 10
820.632330
 20
419.760700
 30
0.0
 10
814.560710
 20
413.690300
 30
0.0
 10
814.559960
 20
406.201400
 30
0.0
  0
SPLINE
  5
14b
100
AcDbEntity
  8
0
 62
1
100
AcDbSpline
 70
8
 71
3
 72
8
 73
4
 74
0
 40
0
 40
0
 40
0
 40
0
 40
1
 40
1
 40
1
 40
1
 10
1270.560000
 20
406.201400
 30
0.0
 10
1270.559300
 20
398.712400
 30
0.0
 10
1276.629700
 20
392.640700
 30
0.0
 10
1284.118600
 20
392.640000
 30
0.0
  0
SPLINE
  5
14c
100
AcDbEntity
  8
0
 62
1
100
AcDbSpline
 70
8
 71
3
 72
8
 73
4
 74
0
 40
0
 40
0
 40
0
 40
0
 40
1
 40
1
 40
1
 40
1
 10
1284.118600
 20
392.640000
 30
0.0
 10
1291.607600
 20
392.639300
 30
0.0
 10
1297.679300
 20
398.709700
 30
0.0
 10
1297.680000
 20
406.198600
 30
0.0
  0
SPLINE
  5
14d
100
AcDbEntity
  8
0
 62
1
100
AcDbSpline
 70
8
 71
3
 72
8
 73
4
 74
0
 40
0
 40
0
 40
0
 40
0
 40
1
 40
1
 40
1
 40
1
 10
1297.680000
 20
406.198600
 30
0.0
 10
1297.680700
 20
413.687600
 30
0.0
 10
1291.610300
 20
419.759300
 30
0.0
 10
1284.121400
 20
419.760000
 30
0.0
  0
SPLINE
  5
14e
100
AcDbEntity
  8
0
 62
1
100
AcDbSpline
 70
8
 71
3
 72
8
 73
4
 74
0
 40
0
 40
0
 40
0
 40
0
 40
1
 40
1
 40
1
 40
1
 10
1284.121400
 20
419.760000
 30
0.0
 10
1276.632400
 20
419.760700
 30
0.0
 10
1270.560700
 20
413.690300
 30
0.0
 10
1270.560000
 20
406.201400
 30
0.0
  0
SPLINE
  5
14f
100
AcDbEntity
  8
0
 62
1
100
AcDbSpline
 70
8
 71
3
 72
8
 73
4
 74
0
 40
0
 40
0
 40
0
 40
0
 40
1
 40
1
 40
1
 40
1
 10
1270.560000
 20
646.201390
 30
0.0
 10
1270.559300
 20
638.712400
 30
0.0
 10
1276.629700
 20
632.640780
 30
0.0
 10
1284.118600
 20
632.640030
 30
0.0
  0
SPLINE
  5
150
100
AcDbEntity
  8
0
 62
1
100
AcDbSpline
 70
8
 71
3
 72
8
 73
4
 74
0
 40
0
 40
0
 40
0
 40
0
 40
1
 40
1
 40
1
 40
1
 10
1284.118600
 20
632.640030
 30
0.0
 10
1291.607600
 20
632.639280
 30
0.0
 10
1297.679300
 20
638.709690
 30
0.0
 10
1297.680000
 20
646.198670
 30
0.0
  0
SPLINE
  5
151
100
AcDbEntity
  8
0
 62
1
100
AcDbSpline
 70
8
 71
3
 72
8
 73
4
 74
0
 40
0
 40
0
 40
0
 40
0
 40
1
 40
1
 40
1
 40
1
 10
1297.680000
 20
646.198670
 30
0.0
 10
1297.680700
 20
653.687660
 30
0.0
 10
1291.610300
 20
659.759280
 30
0.0
 10
1284.121400
 20
659.760030
 30
0.0
  0
SPLINE
  5
152
100
AcDbEntity
  8
0
 62
1
100
AcDbSpline
 70
8
 71
3
 72
8
 73
4
 74
0
 40
0
 40
0
 40
0
 40
0
 40
1
 40
1
 40
1
 40
1
 10
1284.121400
 20
659.760030
 30
0.0
 10
1276.632400
 20
659.760780
 30
0.0
 10
1270.560700
 20
653.690370
 30
0.0
 10
1270.560000
 20
646.201390
 30
0.0
  0
LWPOLYLINE
  5
153
100
AcDbEntity
  8
0
 62
1
100
AcDbPolyline
 90
16
 70
1
 10
766.079980
 20
999.839980
 30
0.0
 10
766.079980
 20
1084.079970
 30
0.0
 10
670.079980
 20
1084.079970
 30
0.0
 10
670.079980
 20
1024.079970
 30
0.0
 10
658.079980
 20
1024.079970
 30
0.0
 10
658.079980
 20
1000.079970
 30
0.0
 10
670.079980
 20
1000.079970
 30
0.0
 10
670.079980
 20
952.079980
 30
0.0
 10
658.079980
 20
952.079980
 30
0.0
 10
658.079980
 20
928.079980
 30
0.0
 10
670.079980
 20
928.079980
 30
0.0
 10
670.079980
 20
868.079980
 30
0.0
 10
766.079980
 20
868.079980
 30
0.0
 10
766.079980
 20
952.319960
 30
0.0
 10
778.079980
 20
952.319960
 30
0.0
 10
778.079980
 20
999.839980
 30
0.0
  0
LWPOLYLINE
  5
154
100
AcDbEntity
  8
0
 62
1
100
AcDbPolyline
 90
4
 70
1
 10
1176.000000
 20
657.600000
 30
0.0
 10
1128.000000
 20
657.600000
 30
0.0
 10
1128.000000
 20
670.079980
 30
0.0
 10
1176.000000
 20
670.079980
 30
0.0
  0
LWPOLYLINE
  5
155
100
AcDbEntity
  8
0
 62
1
100
AcDbPolyline
 90
4
 70
1
 10
983.999980
 20
657.600000
 30
0.0
 10
935.999980
 20
657.600000
 30
0.0
 10
935.999980
 20
670.079980
 30
0.0
 10
983.999980
 20
670.079980
 30
0.0
  0
LWPOLYLINE
  5
156
100
AcDbEntity
  8
0
 62
1
100
AcDbPolyline
 90
4
 70
1
 10
803.999980
 20
477.600000
 30
0.0
 10
803.999980
 20
502.080000
 30
0.0
 10
816.479970
 20
502.080000
 30
0.0
 10
816.479970
 20
477.600000
 30
0.0
  0
LWPOLYLINE
  5
157
100
AcDbEntity
  8
0
 62
1
100
AcDbPolyline
 90
4
 70
1
 10
803.999980
 20
550.080000
 30
0.0
 10
803.999980
 20
574.560000
 30
0.0
 10
816.479970
 20
574.560000
 30
0.0
 10
816.479970
 20
550.080000
 30
0.0
  0
LWPOLYLINE
  5
158
100
AcDbEntity
  8
0
 62
1
100
AcDbPolyline
 90
4
 70
1
 10
1128.000000
 20
382.080000
 30
0.0
 10
1128.000000
 20
394.560000
 30
0.0
 10
1176.000000
 20
394.560000
 30
0.0
 10
1176.000000
 20
382.080000
 30
0.0
  0
LWPOLYLINE
  5
159
100
AcDbEntity
  8
0
 62
1
100
AcDbPolyline
 90
4
 70
1
 10
983.999980
 20
382.080000
 30
0.0
 10
935.999980
 20
382.080000
 30
0.0
 10
935.999980
 20
394.560000
 30
0.0
 10
983.999980
 20
394.560000
 30
0.0
  0
LWPOLYLINE
  5
15a
100
AcDbEntity
  8
0
 62
1
100
AcDbPolyline
 90
4
 70
1
 10
1295.520000
 20
477.600000
 30
0.0
 10
1295.520000
 20
502.080000
 30
0.0
 10
1308.000000
 20
502.080000
 30
0.0
 10
1308.000000
 20
477.600000
 30
0.0
  0
LWPOLYLINE
  5
15b
100
AcDbEntity
  8
0
 62
1
100
AcDbPolyline
 90
4
 70
1
 10
1308.000000
 20
574.560000
 30
0.0
 10
1308.000000
 20
550.080000
 30
0.0
 10
1295.520000
 20
550.080000
 30
0.0
 10
1295.520000
 20
574.560000
 30
0.0
  0
LWPOLYLINE
  5
15c
100
AcDbEntity
  8
0
 62
1
100
AcDbPolyline
 90
4
 70
1
 10
791.999980
 20
370.080000
 30
0.0
 10
1320.000000
 20
370.080000
 30
0.0
 10
1320.000000
 20
682.079980
 30
0.0
 10
791.999980
 20
682.079980
 30
0.0
  0
LWPOLYLINE
  5
15d
100
AcDbEntity
  8
0
 62
1
100
AcDbPolyline
 90
20
 70
1
 10
1345.920000
 20
916.319960
 30
0.0
 10
1345.920000
 20
868.079980
 30
0.0
 10
1441.919800
 20
868.079980
 30
0.0
 10
1441.919800
 20
928.079980
 30
0.0
 10
1453.919800
 20
928.079980
 30
0.0
 10
1453.919800
 20
952.079980
 30
0.0
 10
1441.919800
 20
952.079980
 30
0.0
 10
1441.919800
 20
1000.079970
 30
0.0
 10
1453.919800
 20
1000.079970
 30
0.0
 10
1453.919800
 20
1024.079970
 30
0.0
 10
1441.919800
 20
1024.079970
 30
0.0
 10
1441.919800
 20
1084.079970
 30
0.0
 10
1345.920000
 20
1084.079970
 30
0.0
 10
1345.920000
 20
1060.559950
 30
0.0
 10
1381.919800
 20
1060.559950
 30
0.0
 10
1381.919800
 20
978.479960
 30
0.0
 10
1345.920000
 20
978.479960
 30
0.0
 10
1345.920000
 20
963.839980
 30
0.0
 10
1333.920000
 20
963.839980
 30
0.0
 10
1333.920000
 20
916.319960
 30
0.0
  0
SPLINE
  5
15e
100
AcDbEntity
  8
0
 62
7
100
AcDbSpline
 70
8
 71
3
 72
8
 73
4
 74
0
 40
0
 40
0
 40
0
 40
0
 40
1
 40
1
 40
1
 40
1
 10
1050.816700
 20
864.321580
 30
0.0
 10
1050.376033
 20
864.824787
 30
0.0
 10
1050.032733
 20
865.449633
 30
0.0
 10
1049.786800
 20
866.196120
 30
0.0
  0
SPLINE
  5
15f
100
AcDbEntity
  8
0
 62
7
100
AcDbSpline
 70
8
 71
3
 72
8
 73
4
 74
0
 40
0
 40
0
 40
0
 40
0
 40
1
 40
1
 40
1
 40
1
 10
1049.786800
 20
866.196120
 30
0.0
 10
1049.540867
 20
866.942607
 30
0.0
 10
1049.415600
 20
867.795373
 30
0.0
 10
1049.411000
 20
868.754420
 30
0.0
  0
SPLINE
  5
160
100
AcDbEntity
  8
0
 62
7
100
AcDbSpline
 70
8
 71
3
 72
8
 73
4
 74
0
 40
0
 40
0
 40
0
 40
0
 40
1
 40
1
 40
1
 40
1
 10
1049.411000
 20
868.754420
 30
0.0
 10
1049.404333
 20
869.687693
 30
0.0
 10
1049.518900
 20
870.531300
 30
0.0
 10
1049.754700
 20
871.285240
 30
0.0
  0
SPLINE
  5
161
100
AcDbEntity
  8
0
 62
7
100
AcDbSpline
 70
8
 71
3
 72
8
 73
4
 74
0
 40
0
 40
0
 40
0
 40
0
 40
1
 40
1
 40
1
 40
1
 10
1049.754700
 20
871.285240
 30
0.0
 10
1049.988300
 20
872.039180
 30
0.0
 10
1050.328167
 20
872.672457
 30
0.0
 10
1050.774300
 20
873.185070
 30
0.0
  0
SPLINE
  5
162
100
AcDbEntity
  8
0
 62
7
100
AcDbSpline
 70
8
 71
3
 72
8
 73
4
 74
0
 40
0
 40
0
 40
0
 40
0
 40
1
 40
1
 40
1
 40
1
 10
1050.774300
 20
873.185070
 30
0.0
 10
1051.240967
 20
873.723557
 30
0.0
 10
1051.788200
 20
874.123213
 30
0.0
 10
1052.416000
 20
874.384040
 30
0.0
  0
SPLINE
  5
163
100
AcDbEntity
  8
0
 62
7
100
AcDbSpline
 70
8
 71
3
 72
8
 73
4
 74
0
 40
0
 40
0
 40
0
 40
0
 40
1
 40
1
 40
1
 40
1
 10
1052.416000
 20
874.384040
 30
0.0
 10
1053.038667
 20
874.639680
 30
0.0
 10
1053.726400
 20
874.769303
 30
0.0
 10
1054.479200
 20
874.772910
 30
0.0
  0
SPLINE
  5
164
100
AcDbEntity
  8
0
 62
7
100
AcDbSpline
 70
8
 71
3
 72
8
 73
4
 74
0
 40
0
 40
0
 40
0
 40
0
 40
1
 40
1
 40
1
 40
1
 10
1054.479200
 20
874.772910
 30
0.0
 10
1055.257800
 20
874.776910
 30
0.0
 10
1055.959667
 20
874.648787
 30
0.0
 10
1056.584800
 20
874.388540
 30
0.0
  0
SPLINE
  5
165
100
AcDbEntity
  8
0
 62
7
100
AcDbSpline
 70
8
 71
3
 72
8
 73
4
 74
0
 40
0
 40
0
 40
0
 40
0
 40
1
 40
1
 40
1
 40
1
 10
1056.584800
 20
874.388540
 30
0.0
 10
1057.210000
 20
874.128560
 30
0.0
 10
1057.748133
 20
873.739257
 30
0.0
 10
1058.199200
 20
873.220630
 30
0.0
  0
SPLINE
  5
166
100
AcDbEntity
  8
0
 62
7
100
AcDbSpline
 70
8
 71
3
 72
8
 73
4
 74
0
 40
0
 40
0
 40
0
 40
0
 40
1
 40
1
 40
1
 40
1
 10
1058.199200
 20
873.220630
 30
0.0
 10
1058.645067
 20
872.712290
 30
0.0
 10
1058.988400
 20
872.084867
 30
0.0
 10
1059.229200
 20
871.338360
 30
0.0
  0
SPLINE
  5
167
100
AcDbEntity
  8
0
 62
7
100
AcDbSpline
 70
8
 71
3
 72
8
 73
4
 74
0
 40
0
 40
0
 40
0
 40
0
 40
1
 40
1
 40
1
 40
1
 10
1059.229200
 20
871.338360
 30
0.0
 10
1059.469933
 20
870.591847
 30
0.0
 10
1059.592567
 20
869.746800
 30
0.0
 10
1059.597100
 20
868.803220
 30
0.0
  0
SPLINE
  5
168
100
AcDbEntity
  8
0
 62
7
100
AcDbSpline
 70
8
 71
3
 72
8
 73
4
 74
0
 40
0
 40
0
 40
0
 40
0
 40
1
 40
1
 40
1
 40
1
 10
1059.597100
 20
868.803220
 30
0.0
 10
1059.603767
 20
867.833853
 30
0.0
 10
1059.489233
 20
866.982513
 30
0.0
 10
1059.253500
 20
866.249200
 30
0.0
  0
SPLINE
  5
169
100
AcDbEntity
  8
0
 62
7
100
AcDbSpline
 70
8
 71
3
 72
8
 73
4
 74
0
 40
0
 40
0
 40
0
 40
0
 40
1
 40
1
 40
1
 40
1
 10
1059.253500
 20
866.249200
 30
0.0
 10
1059.014700
 20
865.515860
 30
0.0
 10
1058.674833
 20
864.885160
 30
0.0
 10
1058.233900
 20
864.357100
 30
0.0
  0
SPLINE
  5
16a
100
AcDbEntity
  8
0
 62
7
100
AcDbSpline
 70
8
 71
3
 72
8
 73
4
 74
0
 40
0
 40
0
 40
0
 40
0
 40
1
 40
1
 40
1
 40
1
 10
1058.233900
 20
864.357100
 30
0.0
 10
1057.792900
 20
863.844513
 30
0.0
 10
1057.261100
 20
863.455243
 30
0.0
 10
1056.638500
 20
863.189290
 30
0.0
  0
SPLINE
  5
16b
100
AcDbEntity
  8
0
 62
7
100
AcDbSpline
 70
8
 71
3
 72
8
 73
4
 74
0
 40
0
 40
0
 40
0
 40
0
 40
1
 40
1
 40
1
 40
1
 10
1056.638500
 20
863.189290
 30
0.0
 10
1056.010700
 20
862.918157
 30
0.0
 10
1055.310100
 20
862.780737
 30
0.0
 10
1054.536700
 20
862.777030
 30
0.0
  0
SPLINE
  5
16c
100
AcDbEntity
  8
0
 62
7
100
AcDbSpline
 70
8
 71
3
 72
8
 73
4
 74
0
 40
0
 40
0
 40
0
 40
0
 40
1
 40
1
 40
1
 40
1
 10
1054.536700
 20
862.777030
 30
0.0
 10
1053.752967
 20
862.773030
 30
0.0
 10
1053.045900
 20
862.906287
 30
0.0
 10
1052.415500
 20
863.176800
 30
0.0
  0
SPLINE
  5
16d
100
AcDbEntity
  8
0
 62
7
100
AcDbSpline
 70
8
 71
3
 72
8
 73
4
 74
0
 40
0
 40
0
 40
0
 40
0
 40
1
 40
1
 40
1
 40
1
 10
1052.415500
 20
863.176800
 30
0.0
 10
1051.785167
 20
863.447067
 30
0.0
 10
1051.252233
 20
863.828660
 30
0.0
 10
1050.816700
 20
864.321580
 30
0.0
  0
LWPOLYLINE
  5
16e
100
AcDbEntity
  8
0
 62
1
100
AcDbPolyline
 90
20
 70
1
 10
935.999980
 20
1249.919970
 30
0.0
 10
839.999980
 20
1249.919970
 30
0.0
 10
839.999980
 20
1153.919970
 30
0.0
 10
877.679990
 20
1153.919970
 30
0.0
 10
877.679990
 20
1211.519980
 30
0.0
 10
997.679990
 20
1211.519980
 30
0.0
 10
997.679990
 20
1153.919970
 30
0.0
 10
1008.000000
 20
1153.919970
 30
0.0
 10
1008.000000
 20
1141.919970
 30
0.0
 10
1104.000000
 20
1141.919970
 30
0.0
 10
1104.000000
 20
1153.919970
 30
0.0
 10
1272.000000
 20
1153.919970
 30
0.0
 10
1272.000000
 20
1249.919970
 30
0.0
 10
1176.000000
 20
1249.919970
 30
0.0
 10
1176.000000
 20
1261.919970
 30
0.0
 10
1128.000000
 20
1261.919970
 30
0.0
 10
1128.000000
 20
1249.919970
 30
0.0
 10
983.999980
 20
1249.919970
 30
0.0
 10
983.999980
 20
1261.919970
 30
0.0
 10
935.999980
 20
1261.919970
 30
0.0
  0
SPLINE
  5
16f
100
AcDbEntity
  8
0
 62
7
100
AcDbSpline
 70
8
 71
3
 72
8
 73
4
 74
0
 40
0
 40
0
 40
0
 40
0
 40
1
 40
1
 40
1
 40
1
 10
1051.004300
 20
868.762060
 30
0.0
 10
1051.010967
 20
867.998940
 30
0.0
 10
1051.096700
 20
867.323873
 30
0.0
 10
1051.261500
 20
866.736860
 30
0.0
  0
SPLINE
  5
170
100
AcDbEntity
  8
0
 62
7
100
AcDbSpline
 70
8
 71
3
 72
8
 73
4
 74
0
 40
0
 40
0
 40
0
 40
0
 40
1
 40
1
 40
1
 40
1
 10
1051.261500
 20
866.736860
 30
0.0
 10
1051.429300
 20
866.149847
 30
0.0
 10
1051.663667
 20
865.663697
 30
0.0
 10
1051.964600
 20
865.278410
 30
0.0
  0
SPLINE
  5
171
100
AcDbEntity
  8
0
 62
7
100
AcDbSpline
 70
8
 71
3
 72
8
 73
4
 74
0
 40
0
 40
0
 40
0
 40
0
 40
1
 40
1
 40
1
 40
1
 10
1051.964600
 20
865.278410
 30
0.0
 10
1052.270733
 20
864.882843
 30
0.0
 10
1052.640833
 20
864.588130
 30
0.0
 10
1053.074900
 20
864.394270
 30
0.0
  0
SPLINE
  5
172
100
AcDbEntity
  8
0
 62
7
100
AcDbSpline
 70
8
 71
3
 72
8
 73
4
 74
0
 40
0
 40
0
 40
0
 40
0
 40
1
 40
1
 40
1
 40
1
 10
1053.074900
 20
864.394270
 30
0.0
 10
1053.503833
 20
864.195230
 30
0.0
 10
1053.986400
 20
864.096993
 30
0.0
 10
1054.522600
 20
864.099560
 30
0.0
  0
SPLINE
  5
173
100
AcDbEntity
  8
0
 62
7
100
AcDbSpline
 70
8
 71
3
 72
8
 73
4
 74
0
 40
0
 40
0
 40
0
 40
0
 40
1
 40
1
 40
1
 40
1
 10
1054.522600
 20
864.099560
 30
0.0
 10
1055.079467
 20
864.102227
 30
0.0
 10
1055.566267
 20
864.202527
 30
0.0
 10
1055.983000
 20
864.400460
 30
0.0
  0
SPLINE
  5
174
100
AcDbEntity
  8
0
 62
7
100
AcDbSpline
 70
8
 71
3
 72
8
 73
4
 74
0
 40
0
 40
0
 40
0
 40
0
 40
1
 40
1
 40
1
 40
1
 10
1055.983000
 20
864.400460
 30
0.0
 10
1056.394600
 20
864.593220
 30
0.0
 10
1056.759267
 20
864.894033
 30
0.0
 10
1057.077000
 20
865.302900
 30
0.0
  0
SPLINE
  5
175
100
AcDbEntity
  8
0
 62
7
100
AcDbSpline
 70
8
 71
3
 72
8
 73
4
 74
0
 40
0
 40
0
 40
0
 40
0
 40
1
 40
1
 40
1
 40
1
 10
1057.077000
 20
865.302900
 30
0.0
 10
1057.379333
 20
865.696227
 30
0.0
 10
1057.611567
 20
866.189767
 30
0.0
 10
1057.773700
 20
866.783520
 30
0.0
  0
SPLINE
  5
176
100
AcDbEntity
  8
0
 62
7
100
AcDbSpline
 70
8
 71
3
 72
8
 73
4
 74
0
 40
0
 40
0
 40
0
 40
0
 40
1
 40
1
 40
1
 40
1
 10
1057.773700
 20
866.783520
 30
0.0
 10
1057.930700
 20
867.377247
 30
0.0
 10
1058.007400
 20
868.047933
 30
0.0
 10
1058.003800
 20
868.795580
 30
0.0
  0
SPLINE
  5
177
100
AcDbEntity
  8
0
 62
7
100
AcDbSpline
 70
8
 71
3
 72
8
 73
4
 74
0
 40
0
 40
0
 40
0
 40
0
 40
1
 40
1
 40
1
 40
1
 10
1058.003800
 20
868.795580
 30
0.0
 10
1057.996467
 20
870.306347
 30
0.0
 10
1057.673833
 20
871.462393
 30
0.0
 10
1057.035900
 20
872.263720
 30
0.0
  0
SPLINE
  5
178
100
AcDbEntity
  8
0
 62
7
100
AcDbSpline
 70
8
 71
3
 72
8
 73
4
 74
0
 40
0
 40
0
 40
0
 40
0
 40
1
 40
1
 40
1
 40
1
 10
1057.035900
 20
872.263720
 30
0.0
 10
1056.397833
 20
873.059893
 30
0.0
 10
1055.545133
 20
873.455423
 30
0.0
 10
1054.477800
 20
873.450310
 30
0.0
  0
SPLINE
  5
179
100
AcDbEntity
  8
0
 62
7
100
AcDbSpline
 70
8
 71
3
 72
8
 73
4
 74
0
 40
0
 40
0
 40
0
 40
0
 40
1
 40
1
 40
1
 40
1
 10
1054.477800
 20
873.450310
 30
0.0
 10
1053.410467
 20
873.444977
 30
0.0
 10
1052.564200
 20
873.041310
 30
0.0
 10
1051.939000
 20
872.239310
 30
0.0
  0
SPLINE
  5
17a
100
AcDbEntity
  8
0
 62
7
100
AcDbSpline
 70
8
 71
3
 72
8
 73
4
 74
0
 40
0
 40
0
 40
0
 40
0
 40
1
 40
1
 40
1
 40
1
 10
1051.939000
 20
872.239310
 30
0.0
 10
1051.308667
 20
871.431903
 30
0.0
 10
1050.997100
 20
870.272820
 30
0.0
 10
1051.004300
 20
868.762060
 30
0.0
  0
LWPOLYLINE
  5
17b
100
AcDbEntity
  8
0
 62
7
100
AcDbPolyline
 90
1
 70
1
 10
1050.816700
 20
864.321580
 30
0.0
  0
SPLINE
  5
17c
100
AcDbEntity
  8
0
 62
7
100
AcDbSpline
 70
8
 71
3
 72
8
 73
4
 74
0
 40
0
 40
0
 40
0
 40
0
 40
1
 40
1
 40
1
 40
1
 10
1040.640400
 20
866.475890
 30
0.0
 10
1040.640400
 20
866.976043
 30
0.0
 10
1040.728367
 20
867.450847
 30
0.0
 10
1040.904300
 20
867.900300
 30
0.0
  0
SPLINE
  5
17d
100
AcDbEntity
  8
0
 62
7
100
AcDbSpline
 70
8
 71
3
 72
8
 73
4
 74
0
 40
0
 40
0
 40
0
 40
0
 40
1
 40
1
 40
1
 40
1
 10
1040.904300
 20
867.900300
 30
0.0
 10
1041.077500
 20
868.344573
 30
0.0
 10
1041.320600
 20
868.724727
 30
0.0
 10
1041.633600
 20
869.040760
 30
0.0
  0
SPLINE
  5
17e
100
AcDbEntity
  8
0
 62
7
100
AcDbSpline
 70
8
 71
3
 72
8
 73
4
 74
0
 40
0
 40
0
 40
0
 40
0
 40
1
 40
1
 40
1
 40
1
 10
1041.633600
 20
869.040760
 30
0.0
 10
1042.028733
 20
869.434533
 30
0.0
 10
1042.493967
 20
869.733250
 30
0.0
 10
1043.029300
 20
869.936910
 30
0.0
  0
SPLINE
  5
17f
100
AcDbEntity
  8
0
 62
7
100
AcDbSpline
 70
8
 71
3
 72
8
 73
4
 74
0
 40
0
 40
0
 40
0
 40
0
 40
1
 40
1
 40
1
 40
1
 10
1043.029300
 20
869.936910
 30
0.0
 10
1043.564567
 20
870.140570
 30
0.0
 10
1044.242100
 20
870.244363
 30
0.0
 10
1045.061900
 20
870.248290
 30
0.0
  0
LWPOLYLINE
  5
180
100
AcDbEntity
  8
0
 62
7
100
AcDbPolyline
 90
1
 70
1
 10
1051.004300
 20
868.762060
 30
0.0
  0
SPLINE
  5
181
100
AcDbEntity
  8
0
 62
7
100
AcDbSpline
 70
8
 71
3
 72
8
 73
4
 74
0
 40
0
 40
0
 40
0
 40
0
 40
1
 40
1
 40
1
 40
1
 10
1045.034100
 20
863.023660
 30
0.0
 10
1044.353433
 20
863.020327
 30
0.0
 10
1043.773067
 20
863.074267
 30
0.0
 10
1043.293000
 20
863.185480
 30
0.0
  0
SPLINE
  5
182
100
AcDbEntity
  8
0
 62
7
100
AcDbSpline
 70
8
 71
3
 72
8
 73
4
 74
0
 40
0
 40
0
 40
0
 40
0
 40
1
 40
1
 40
1
 40
1
 10
1043.293000
 20
863.185480
 30
0.0
 10
1042.812933
 20
863.296620
 30
0.0
 10
1042.389267
 20
863.477640
 30
0.0
 10
1042.022000
 20
863.728540
 30
0.0
  0
SPLINE
  5
183
100
AcDbEntity
  8
0
 62
7
100
AcDbSpline
 70
8
 71
3
 72
8
 73
4
 74
0
 40
0
 40
0
 40
0
 40
0
 40
1
 40
1
 40
1
 40
1
 10
1042.022000
 20
863.728540
 30
0.0
 10
1041.592600
 20
864.020387
 30
0.0
 10
1041.255667
 20
864.392603
 30
0.0
 10
1041.011200
 20
864.845190
 30
0.0
  0
SPLINE
  5
184
100
AcDbEntity
  8
0
 62
7
100
AcDbSpline
 70
8
 71
3
 72
8
 73
4
 74
0
 40
0
 40
0
 40
0
 40
0
 40
1
 40
1
 40
1
 40
1
 10
1041.011200
 20
864.845190
 30
0.0
 10
1040.766667
 20
865.292617
 30
0.0
 10
1040.642867
 20
865.836013
 30
0.0
 10
1040.639800
 20
866.475380
 30
0.0
  0
LWPOLYLINE
  5
185
100
AcDbEntity
  8
0
 62
7
100
AcDbPolyline
 90
6
 70
0
 10
1045.061900
 20
870.248290
 30
0.0
 10
1046.361300
 20
870.254290
 30
0.0
 10
1046.340300
 20
874.546820
 30
0.0
 10
1047.871700
 20
874.553820
 30
0.0
 10
1047.926700
 20
863.037460
 30
0.0
 10
1045.034100
 20
863.023660
 30
0.0
  0
SPLINE
  5
186
100
AcDbEntity
  8
0
 62
7
100
AcDbSpline
 70
8
 71
3
 72
8
 73
4
 74
0
 40
0
 40
0
 40
0
 40
0
 40
1
 40
1
 40
1
 40
1
 10
1042.233500
 20
866.522190
 30
0.0
 10
1042.233500
 20
866.125163
 30
0.0
 10
1042.304767
 20
865.780030
 30
0.0
 10
1042.447300
 20
865.486790
 30
0.0
  0
SPLINE
  5
187
100
AcDbEntity
  8
0
 62
7
100
AcDbSpline
 70
8
 71
3
 72
8
 73
4
 74
0
 40
0
 40
0
 40
0
 40
0
 40
1
 40
1
 40
1
 40
1
 10
1042.447300
 20
865.486790
 30
0.0
 10
1042.582767
 20
865.193530
 30
0.0
 10
1042.790167
 20
864.954757
 30
0.0
 10
1043.069500
 20
864.770470
 30
0.0
  0
SPLINE
  5
188
100
AcDbEntity
  8
0
 62
7
100
AcDbSpline
 70
8
 71
3
 72
8
 73
4
 74
0
 40
0
 40
0
 40
0
 40
0
 40
1
 40
1
 40
1
 40
1
 10
1043.069500
 20
864.770470
 30
0.0
 10
1043.312567
 20
864.611790
 30
0.0
 10
1043.596700
 20
864.499710
 30
0.0
 10
1043.921900
 20
864.434230
 30
0.0
  0
SPLINE
  5
189
100
AcDbEntity
  8
0
 62
7
100
AcDbSpline
 70
8
 71
3
 72
8
 73
4
 74
0
 40
0
 40
0
 40
0
 40
0
 40
1
 40
1
 40
1
 40
1
 10
1043.921900
 20
864.434230
 30
0.0
 10
1044.241900
 20
864.368763
 30
0.0
 10
1044.641667
 20
864.337163
 30
0.0
 10
1045.121200
 20
864.339430
 30
0.0
  0
LWPOLYLINE
  5
18a
100
AcDbEntity
  8
0
 62
7
100
AcDbPolyline
 90
2
 70
0
 10
1040.639800
 20
866.475380
 30
0.0
 10
1040.640400
 20
866.475890
 30
0.0
  0
SPLINE
  5
18b
100
AcDbEntity
  8
0
 62
7
100
AcDbSpline
 70
8
 71
3
 72
8
 73
4
 74
0
 40
0
 40
0
 40
0
 40
0
 40
1
 40
1
 40
1
 40
1
 10
1045.323400
 20
868.942330
 30
0.0
 10
1044.704667
 20
868.939663
 30
0.0
 10
1044.204767
 20
868.888283
 30
0.0
 10
1043.823700
 20
868.788190
 30
0.0
  0
SPLINE
  5
18c
100
AcDbEntity
  8
0
 62
7
100
AcDbSpline
 70
8
 71
3
 72
8
 73
4
 74
0
 40
0
 40
0
 40
0
 40
0
 40
1
 40
1
 40
1
 40
1
 10
1043.823700
 20
868.788190
 30
0.0
 10
1043.442633
 20
868.683237
 30
0.0
 10
1043.126400
 20
868.501250
 30
0.0
 10
1042.875000
 20
868.242230
 30
0.0
  0
SPLINE
  5
18d
100
AcDbEntity
  8
0
 62
7
100
AcDbSpline
 70
8
 71
3
 72
8
 73
4
 74
0
 40
0
 40
0
 40
0
 40
0
 40
1
 40
1
 40
1
 40
1
 10
1042.875000
 20
868.242230
 30
0.0
 10
1042.649200
 20
868.009117
 30
0.0
 10
1042.485400
 20
867.755673
 30
0.0
 10
1042.383600
 20
867.481900
 30
0.0
  0
SPLINE
  5
18e
100
AcDbEntity
  8
0
 62
7
100
AcDbSpline
 70
8
 71
3
 72
8
 73
4
 74
0
 40
0
 40
0
 40
0
 40
0
 40
1
 40
1
 40
1
 40
1
 10
1042.383600
 20
867.481900
 30
0.0
 10
1042.281800
 20
867.208127
 30
0.0
 10
1042.231767
 20
866.888197
 30
0.0
 10
1042.233500
 20
866.522110
 30
0.0
  0
LWPOLYLINE
  5
18f
100
AcDbEntity
  8
0
 62
7
100
AcDbPolyline
 90
4
 70
0
 10
1045.121200
 20
864.339430
 30
0.0
 10
1046.389600
 20
864.345430
 30
0.0
 10
1046.367600
 20
868.947330
 30
0.0
 10
1045.323400
 20
868.942330
 30
0.0
  0
LWPOLYLINE
  5
190
100
AcDbEntity
  8
0
 62
7
100
AcDbPolyline
 90
1
 70
1
 10
1042.233500
 20
866.522110
 30
0.0
  0
SPLINE
  5
191
100
AcDbEntity
  8
0
 62
7
100
AcDbSpline
 70
8
 71
3
 72
8
 73
4
 74
0
 40
0
 40
0
 40
0
 40
0
 40
1
 40
1
 40
1
 40
1
 10
1021.776700
 20
864.321580
 30
0.0
 10
1021.336033
 20
864.824787
 30
0.0
 10
1020.992733
 20
865.449633
 30
0.0
 10
1020.746800
 20
866.196120
 30
0.0
  0
SPLINE
  5
192
100
AcDbEntity
  8
0
 62
7
100
AcDbSpline
 70
8
 71
3
 72
8
 73
4
 74
0
 40
0
 40
0
 40
0
 40
0
 40
1
 40
1
 40
1
 40
1
 10
1020.746800
 20
866.196120
 30
0.0
 10
1020.500867
 20
866.942607
 30
0.0
 10
1020.375600
 20
867.795373
 30
0.0
 10
1020.371000
 20
868.754420
 30
0.0
  0
SPLINE
  5
193
100
AcDbEntity
  8
0
 62
7
100
AcDbSpline
 70
8
 71
3
 72
8
 73
4
 74
0
 40
0
 40
0
 40
0
 40
0
 40
1
 40
1
 40
1
 40
1
 10
1020.371000
 20
868.754420
 30
0.0
 10
1020.364333
 20
869.687693
 30
0.0
 10
1020.478900
 20
870.531300
 30
0.0
 10
1020.714700
 20
871.285240
 30
0.0
  0
SPLINE
  5
194
100
AcDbEntity
  8
0
 62
7
100
AcDbSpline
 70
8
 71
3
 72
8
 73
4
 74
0
 40
0
 40
0
 40
0
 40
0
 40
1
 40
1
 40
1
 40
1
 10
1020.714700
 20
871.285240
 30
0.0
 10
1020.948300
 20
872.039180
 30
0.0
 10
1021.288167
 20
872.672457
 30
0.0
 10
1021.734300
 20
873.185070
 30
0.0
  0
SPLINE
  5
195
100
AcDbEntity
  8
0
 62
7
100
AcDbSpline
 70
8
 71
3
 72
8
 73
4
 74
0
 40
0
 40
0
 40
0
 40
0
 40
1
 40
1
 40
1
 40
1
 10
1021.734300
 20
873.185070
 30
0.0
 10
1022.200967
 20
873.723557
 30
0.0
 10
1022.748200
 20
874.123213
 30
0.0
 10
1023.376000
 20
874.384040
 30
0.0
  0
SPLINE
  5
196
100
AcDbEntity
  8
0
 62
7
100
AcDbSpline
 70
8
 71
3
 72
8
 73
4
 74
0
 40
0
 40
0
 40
0
 40
0
 40
1
 40
1
 40
1
 40
1
 10
1023.376000
 20
874.384040
 30
0.0
 10
1023.998667
 20
874.639680
 30
0.0
 10
1024.686400
 20
874.769303
 30
0.0
 10
1025.439200
 20
874.772910
 30
0.0
  0
SPLINE
  5
197
100
AcDbEntity
  8
0
 62
7
100
AcDbSpline
 70
8
 71
3
 72
8
 73
4
 74
0
 40
0
 40
0
 40
0
 40
0
 40
1
 40
1
 40
1
 40
1
 10
1025.439200
 20
874.772910
 30
0.0
 10
1026.217800
 20
874.776910
 30
0.0
 10
1026.919667
 20
874.648787
 30
0.0
 10
1027.544800
 20
874.388540
 30
0.0
  0
SPLINE
  5
198
100
AcDbEntity
  8
0
 62
7
100
AcDbSpline
 70
8
 71
3
 72
8
 73
4
 74
0
 40
0
 40
0
 40
0
 40
0
 40
1
 40
1
 40
1
 40
1
 10
1027.544800
 20
874.388540
 30
0.0
 10
1028.170000
 20
874.128560
 30
0.0
 10
1028.708133
 20
873.739257
 30
0.0
 10
1029.159200
 20
873.220630
 30
0.0
  0
SPLINE
  5
199
100
AcDbEntity
  8
0
 62
7
100
AcDbSpline
 70
8
 71
3
 72
8
 73
4
 74
0
 40
0
 40
0
 40
0
 40
0
 40
1
 40
1
 40
1
 40
1
 10
1029.159200
 20
873.220630
 30
0.0
 10
1029.605067
 20
872.712290
 30
0.0
 10
1029.948400
 20
872.084867
 30
0.0
 10
1030.189200
 20
871.338360
 30
0.0
  0
SPLINE
  5
19a
100
AcDbEntity
  8
0
 62
7
100
AcDbSpline
 70
8
 71
3
 72
8
 73
4
 74
0
 40
0
 40
0
 40
0
 40
0
 40
1
 40
1
 40
1
 40
1
 10
1030.189200
 20
871.338360
 30
0.0
 10
1030.429933
 20
870.591847
 30
0.0
 10
1030.552567
 20
869.746800
 30
0.0
 10
1030.557100
 20
868.803220
 30
0.0
  0
SPLINE
  5
19b
100
AcDbEntity
  8
0
 62
7
100
AcDbSpline
 70
8
 71
3
 72
8
 73
4
 74
0
 40
0
 40
0
 40
0
 40
0
 40
1
 40
1
 40
1
 40
1
 10
1030.557100
 20
868.803220
 30
0.0
 10
1030.563767
 20
867.833853
 30
0.0
 10
1030.449233
 20
866.982513
 30
0.0
 10
1030.213500
 20
866.249200
 30
0.0
  0
SPLINE
  5
19c
100
AcDbEntity
  8
0
 62
7
100
AcDbSpline
 70
8
 71
3
 72
8
 73
4
 74
0
 40
0
 40
0
 40
0
 40
0
 40
1
 40
1
 40
1
 40
1
 10
1030.213500
 20
866.249200
 30
0.0
 10
1029.974700
 20
865.515860
 30
0.0
 10
1029.634833
 20
864.885160
 30
0.0
 10
1029.193900
 20
864.357100
 30
0.0
  0
SPLINE
  5
19d
100
AcDbEntity
  8
0
 62
7
100
AcDbSpline
 70
8
 71
3
 72
8
 73
4
 74
0
 40
0
 40
0
 40
0
 40
0
 40
1
 40
1
 40
1
 40
1
 10
1029.193900
 20
864.357100
 30
0.0
 10
1028.752900
 20
863.844513
 30
0.0
 10
1028.221100
 20
863.455243
 30
0.0
 10
1027.598500
 20
863.189290
 30
0.0
  0
SPLINE
  5
19e
100
AcDbEntity
  8
0
 62
7
100
AcDbSpline
 70
8
 71
3
 72
8
 73
4
 74
0
 40
0
 40
0
 40
0
 40
0
 40
1
 40
1
 40
1
 40
1
 10
1027.598500
 20
863.189290
 30
0.0
 10
1026.970700
 20
862.918157
 30
0.0
 10
1026.270100
 20
862.780737
 30
0.0
 10
1025.496700
 20
862.777030
 30
0.0
  0
SPLINE
  5
19f
100
AcDbEntity
  8
0
 62
7
100
AcDbSpline
 70
8
 71
3
 72
8
 73
4
 74
0
 40
0
 40
0
 40
0
 40
0
 40
1
 40
1
 40
1
 40
1
 10
1025.496700
 20
862.777030
 30
0.0
 10
1024.712967
 20
862.773030
 30
0.0
 10
1024.005900
 20
862.906287
 30
0.0
 10
1023.375500
 20
863.176800
 30
0.0
  0
SPLINE
  5
1a0
100
AcDbEntity
  8
0
 62
7
100
AcDbSpline
 70
8
 71
3
 72
8
 73
4
 74
0
 40
0
 40
0
 40
0
 40
0
 40
1
 40
1
 40
1
 40
1
 10
1023.375500
 20
863.176800
 30
0.0
 10
1022.745167
 20
863.447067
 30
0.0
 10
1022.212233
 20
863.828660
 30
0.0
 10
1021.776700
 20
864.321580
 30
0.0
  0
LWPOLYLINE
  5
1a1
100
AcDbEntity
  8
0
 62
7
100
AcDbPolyline
 90
8
 70
1
 10
1036.300600
 20
874.541480
 30
0.0
 10
1036.349600
 20
864.386370
 30
0.0
 10
1040.216800
 20
864.404870
 30
0.0
 10
1040.226800
 20
863.043630
 30
0.0
 10
1030.961100
 20
862.999230
 30
0.0
 10
1030.951100
 20
864.360470
 30
0.0
 10
1034.818200
 20
864.378970
 30
0.0
 10
1034.769200
 20
874.534090
 30
0.0
  0
SPLINE
  5
1a2
100
AcDbEntity
  8
0
 62
7
100
AcDbSpline
 70
8
 71
3
 72
8
 73
4
 74
0
 40
0
 40
0
 40
0
 40
0
 40
1
 40
1
 40
1
 40
1
 10
1021.964300
 20
868.762060
 30
0.0
 10
1021.970967
 20
867.998940
 30
0.0
 10
1022.056700
 20
867.323873
 30
0.0
 10
1022.221500
 20
866.736860
 30
0.0
  0
SPLINE
  5
1a3
100
AcDbEntity
  8
0
 62
7
100
AcDbSpline
 70
8
 71
3
 72
8
 73
4
 74
0
 40
0
 40
0
 40
0
 40
0
 40
1
 40
1
 40
1
 40
1
 10
1022.221500
 20
866.736860
 30
0.0
 10
1022.389300
 20
866.149847
 30
0.0
 10
1022.623667
 20
865.663697
 30
0.0
 10
1022.924600
 20
865.278410
 30
0.0
  0
SPLINE
  5
1a4
100
AcDbEntity
  8
0
 62
7
100
AcDbSpline
 70
8
 71
3
 72
8
 73
4
 74
0
 40
0
 40
0
 40
0
 40
0
 40
1
 40
1
 40
1
 40
1
 10
1022.924600
 20
865.278410
 30
0.0
 10
1023.230733
 20
864.882843
 30
0.0
 10
1023.600833
 20
864.588130
 30
0.0
 10
1024.034900
 20
864.394270
 30
0.0
  0
SPLINE
  5
1a5
100
AcDbEntity
  8
0
 62
7
100
AcDbSpline
 70
8
 71
3
 72
8
 73
4
 74
0
 40
0
 40
0
 40
0
 40
0
 40
1
 40
1
 40
1
 40
1
 10
1024.034900
 20
864.394270
 30
0.0
 10
1024.463833
 20
864.195230
 30
0.0
 10
1024.946400
 20
864.096993
 30
0.0
 10
1025.482600
 20
864.099560
 30
0.0
  0
SPLINE
  5
1a6
100
AcDbEntity
  8
0
 62
7
100
AcDbSpline
 70
8
 71
3
 72
8
 73
4
 74
0
 40
0
 40
0
 40
0
 40
0
 40
1
 40
1
 40
1
 40
1
 10
1025.482600
 20
864.099560
 30
0.0
 10
1026.039467
 20
864.102227
 30
0.0
 10
1026.526267
 20
864.202527
 30
0.0
 10
1026.943000
 20
864.400460
 30
0.0
  0
SPLINE
  5
1a7
100
AcDbEntity
  8
0
 62
7
100
AcDbSpline
 70
8
 71
3
 72
8
 73
4
 74
0
 40
0
 40
0
 40
0
 40
0
 40
1
 40
1
 40
1
 40
1
 10
1026.943000
 20
864.400460
 30
0.0
 10
1027.354600
 20
864.593220
 30
0.0
 10
1027.719267
 20
864.894033
 30
0.0
 10
1028.037000
 20
865.302900
 30
0.0
  0
SPLINE
  5
1a8
100
AcDbEntity
  8
0
 62
7
100
AcDbSpline
 70
8
 71
3
 72
8
 73
4
 74
0
 40
0
 40
0
 40
0
 40
0
 40
1
 40
1
 40
1
 40
1
 10
1028.037000
 20
865.302900
 30
0.0
 10
1028.339333
 20
865.696227
 30
0.0
 10
1028.571567
 20
866.189767
 30
0.0
 10
1028.733700
 20
866.783520
 30
0.0
  0
SPLINE
  5
1a9
100
AcDbEntity
  8
0
 62
7
100
AcDbSpline
 70
8
 71
3
 72
8
 73
4
 74
0
 40
0
 40
0
 40
0
 40
0
 40
1
 40
1
 40
1
 40
1
 10
1028.733700
 20
866.783520
 30
0.0
 10
1028.890700
 20
867.377247
 30
0.0
 10
1028.967400
 20
868.047933
 30
0.0
 10
1028.963800
 20
868.795580
 30
0.0
  0
SPLINE
  5
1aa
100
AcDbEntity
  8
0
 62
7
100
AcDbSpline
 70
8
 71
3
 72
8
 73
4
 74
0
 40
0
 40
0
 40
0
 40
0
 40
1
 40
1
 40
1
 40
1
 10
1028.963800
 20
868.795580
 30
0.0
 10
1028.956467
 20
870.306347
 30
0.0
 10
1028.633833
 20
871.462393
 30
0.0
 10
1027.995900
 20
872.263720
 30
0.0
  0
SPLINE
  5
1ab
100
AcDbEntity
  8
0
 62
7
100
AcDbSpline
 70
8
 71
3
 72
8
 73
4
 74
0
 40
0
 40
0
 40
0
 40
0
 40
1
 40
1
 40
1
 40
1
 10
1027.995900
 20
872.263720
 30
0.0
 10
1027.357833
 20
873.059893
 30
0.0
 10
1026.505133
 20
873.455423
 30
0.0
 10
1025.437800
 20
873.450310
 30
0.0
  0
SPLINE
  5
1ac
100
AcDbEntity
  8
0
 62
7
100
AcDbSpline
 70
8
 71
3
 72
8
 73
4
 74
0
 40
0
 40
0
 40
0
 40
0
 40
1
 40
1
 40
1
 40
1
 10
1025.437800
 20
873.450310
 30
0.0
 10
1024.370467
 20
873.444977
 30
0.0
 10
1023.524200
 20
873.041310
 30
0.0
 10
1022.899000
 20
872.239310
 30
0.0
  0
SPLINE
  5
1ad
100
AcDbEntity
  8
0
 62
7
100
AcDbSpline
 70
8
 71
3
 72
8
 73
4
 74
0
 40
0
 40
0
 40
0
 40
0
 40
1
 40
1
 40
1
 40
1
 10
1022.899000
 20
872.239310
 30
0.0
 10
1022.268667
 20
871.431903
 30
0.0
 10
1021.957100
 20
870.272820
 30
0.0
 10
1021.964300
 20
868.762060
 30
0.0
  0
LWPOLYLINE
  5
1ae
100
AcDbEntity
  8
0
 62
7
100
AcDbPolyline
 90
1
 70
1
 10
1021.776700
 20
864.321580
 30
0.0
  0
SPLINE
  5
1af
100
AcDbEntity
  8
0
 62
7
100
AcDbSpline
 70
8
 71
3
 72
8
 73
4
 74
0
 40
0
 40
0
 40
0
 40
0
 40
1
 40
1
 40
1
 40
1
 10
1006.320400
 20
866.475890
 30
0.0
 10
1006.320400
 20
866.976043
 30
0.0
 10
1006.408367
 20
867.450847
 30
0.0
 10
1006.584300
 20
867.900300
 30
0.0
  0
SPLINE
  5
1b0
100
AcDbEntity
  8
0
 62
7
100
AcDbSpline
 70
8
 71
3
 72
8
 73
4
 74
0
 40
0
 40
0
 40
0
 40
0
 40
1
 40
1
 40
1
 40
1
 10
1006.584300
 20
867.900300
 30
0.0
 10
1006.757500
 20
868.344573
 30
0.0
 10
1007.000600
 20
868.724727
 30
0.0
 10
1007.313600
 20
869.040760
 30
0.0
  0
SPLINE
  5
1b1
100
AcDbEntity
  8
0
 62
7
100
AcDbSpline
 70
8
 71
3
 72
8
 73
4
 74
0
 40
0
 40
0
 40
0
 40
0
 40
1
 40
1
 40
1
 40
1
 10
1007.313600
 20
869.040760
 30
0.0
 10
1007.708733
 20
869.434533
 30
0.0
 10
1008.173967
 20
869.733250
 30
0.0
 10
1008.709300
 20
869.936910
 30
0.0
  0
SPLINE
  5
1b2
100
AcDbEntity
  8
0
 62
7
100
AcDbSpline
 70
8
 71
3
 72
8
 73
4
 74
0
 40
0
 40
0
 40
0
 40
0
 40
1
 40
1
 40
1
 40
1
 10
1008.709300
 20
869.936910
 30
0.0
 10
1009.244567
 20
870.140570
 30
0.0
 10
1009.922100
 20
870.244363
 30
0.0
 10
1010.741900
 20
870.248290
 30
0.0
  0
LWPOLYLINE
  5
1b3
100
AcDbEntity
  8
0
 62
7
100
AcDbPolyline
 90
1
 70
1
 10
1021.964300
 20
868.762060
 30
0.0
  0
SPLINE
  5
1b4
100
AcDbEntity
  8
0
 62
7
100
AcDbSpline
 70
8
 71
3
 72
8
 73
4
 74
0
 40
0
 40
0
 40
0
 40
0
 40
1
 40
1
 40
1
 40
1
 10
1010.714100
 20
863.023660
 30
0.0
 10
1010.033433
 20
863.020327
 30
0.0
 10
1009.453067
 20
863.074267
 30
0.0
 10
1008.973000
 20
863.185480
 30
0.0
  0
SPLINE
  5
1b5
100
AcDbEntity
  8
0
 62
7
100
AcDbSpline
 70
8
 71
3
 72
8
 73
4
 74
0
 40
0
 40
0
 40
0
 40
0
 40
1
 40
1
 40
1
 40
1
 10
1008.973000
 20
863.185480
 30
0.0
 10
1008.492933
 20
863.296620
 30
0.0
 10
1008.069267
 20
863.477640
 30
0.0
 10
1007.702000
 20
863.728540
 30
0.0
  0
SPLINE
  5
1b6
100
AcDbEntity
  8
0
 62
7
100
AcDbSpline
 70
8
 71
3
 72
8
 73
4
 74
0
 40
0
 40
0
 40
0
 40
0
 40
1
 40
1
 40
1
 40
1
 10
1007.702000
 20
863.728540
 30
0.0
 10
1007.272600
 20
864.020387
 30
0.0
 10
1006.935667
 20
864.392603
 30
0.0
 10
1006.691200
 20
864.845190
 30
0.0
  0
SPLINE
  5
1b7
100
AcDbEntity
  8
0
 62
7
100
AcDbSpline
 70
8
 71
3
 72
8
 73
4
 74
0
 40
0
 40
0
 40
0
 40
0
 40
1
 40
1
 40
1
 40
1
 10
1006.691200
 20
864.845190
 30
0.0
 10
1006.446667
 20
865.292617
 30
0.0
 10
1006.322867
 20
865.836013
 30
0.0
 10
1006.319800
 20
866.475380
 30
0.0
  0
LWPOLYLINE
  5
1b8
100
AcDbEntity
  8
0
 62
7
100
AcDbPolyline
 90
6
 70
0
 10
1010.741900
 20
870.248290
 30
0.0
 10
1012.041300
 20
870.254290
 30
0.0
 10
1012.020300
 20
874.546820
 30
0.0
 10
1013.551700
 20
874.553820
 30
0.0
 10
1013.606700
 20
863.037460
 30
0.0
 10
1010.714100
 20
863.023660
 30
0.0
  0
SPLINE
  5
1b9
100
AcDbEntity
  8
0
 62
7
100
AcDbSpline
 70
8
 71
3
 72
8
 73
4
 74
0
 40
0
 40
0
 40
0
 40
0
 40
1
 40
1
 40
1
 40
1
 10
1007.913500
 20
866.522190
 30
0.0
 10
1007.913500
 20
866.125163
 30
0.0
 10
1007.984767
 20
865.780030
 30
0.0
 10
1008.127300
 20
865.486790
 30
0.0
  0
SPLINE
  5
1ba
100
AcDbEntity
  8
0
 62
7
100
AcDbSpline
 70
8
 71
3
 72
8
 73
4
 74
0
 40
0
 40
0
 40
0
 40
0
 40
1
 40
1
 40
1
 40
1
 10
1008.127300
 20
865.486790
 30
0.0
 10
1008.262767
 20
865.193530
 30
0.0
 10
1008.470167
 20
864.954757
 30
0.0
 10
1008.749500
 20
864.770470
 30
0.0
  0
SPLINE
  5
1bb
100
AcDbEntity
  8
0
 62
7
100
AcDbSpline
 70
8
 71
3
 72
8
 73
4
 74
0
 40
0
 40
0
 40
0
 40
0
 40
1
 40
1
 40
1
 40
1
 10
1008.749500
 20
864.770470
 30
0.0
 10
1008.992567
 20
864.611790
 30
0.0
 10
1009.276700
 20
864.499710
 30
0.0
 10
1009.601900
 20
864.434230
 30
0.0
  0
SPLINE
  5
1bc
100
AcDbEntity
  8
0
 62
7
100
AcDbSpline
 70
8
 71
3
 72
8
 73
4
 74
0
 40
0
 40
0
 40
0
 40
0
 40
1
 40
1
 40
1
 40
1
 10
1009.601900
 20
864.434230
 30
0.0
 10
1009.921900
 20
864.368763
 30
0.0
 10
1010.321667
 20
864.337163
 30
0.0
 10
1010.801200
 20
864.339430
 30
0.0
  0
LWPOLYLINE
  5
1bd
100
AcDbEntity
  8
0
 62
7
100
AcDbPolyline
 90
2
 70
0
 10
1006.319800
 20
866.475380
 30
0.0
 10
1006.320400
 20
866.475890
 30
0.0
  0
SPLINE
  5
1be
100
AcDbEntity
  8
0
 62
7
100
AcDbSpline
 70
8
 71
3
 72
8
 73
4
 74
0
 40
0
 40
0
 40
0
 40
0
 40
1
 40
1
 40
1
 40
1
 10
1011.003400
 20
868.942330
 30
0.0
 10
1010.384667
 20
868.939663
 30
0.0
 10
1009.884767
 20
868.888283
 30
0.0
 10
1009.503700
 20
868.788190
 30
0.0
  0
SPLINE
  5
1bf
100
AcDbEntity
  8
0
 62
7
100
AcDbSpline
 70
8
 71
3
 72
8
 73
4
 74
0
 40
0
 40
0
 40
0
 40
0
 40
1
 40
1
 40
1
 40
1
 10
1009.503700
 20
868.788190
 30
0.0
 10
1009.122633
 20
868.683237
 30
0.0
 10
1008.806400
 20
868.501250
 30
0.0
 10
1008.555000
 20
868.242230
 30
0.0
  0
SPLINE
  5
1c0
100
AcDbEntity
  8
0
 62
7
100
AcDbSpline
 70
8
 71
3
 72
8
 73
4
 74
0
 40
0
 40
0
 40
0
 40
0
 40
1
 40
1
 40
1
 40
1
 10
1008.555000
 20
868.242230
 30
0.0
 10
1008.329200
 20
868.009117
 30
0.0
 10
1008.165400
 20
867.755673
 30
0.0
 10
1008.063600
 20
867.481900
 30
0.0
  0
SPLINE
  5
1c1
100
AcDbEntity
  8
0
 62
7
100
AcDbSpline
 70
8
 71
3
 72
8
 73
4
 74
0
 40
0
 40
0
 40
0
 40
0
 40
1
 40
1
 40
1
 40
1
 10
1008.063600
 20
867.481900
 30
0.0
 10
1007.961800
 20
867.208127
 30
0.0
 10
1007.911767
 20
866.888197
 30
0.0
 10
1007.913500
 20
866.522110
 30
0.0
  0
LWPOLYLINE
  5
1c2
100
AcDbEntity
  8
0
 62
7
100
AcDbPolyline
 90
4
 70
0
 10
1010.801200
 20
864.339430
 30
0.0
 10
1012.069600
 20
864.345430
 30
0.0
 10
1012.047600
 20
868.947330
 30
0.0
 10
1011.003400
 20
868.942330
 30
0.0
  0
LWPOLYLINE
  5
1c3
100
AcDbEntity
  8
0
 62
7
100
AcDbPolyline
 90
1
 70
1
 10
1007.913500
 20
866.522110
 30
0.0
  0
LWPOLYLINE
  5
1c4
100
AcDbEntity
  8
0
 62
7
100
AcDbPolyline
 90
13
 70
1
 10
992.051030
 20
862.976150
 30
0.0
 10
994.888490
 20
874.506360
 30
0.0
 10
996.613230
 20
874.514360
 30
0.0
 10
999.002510
 20
864.966010
 30
0.0
 10
1001.246100
 20
874.536560
 30
0.0
 10
1002.932100
 20
874.544560
 30
0.0
 10
1005.934100
 20
863.042320
 30
0.0
 10
1004.364000
 20
863.034320
 30
0.0
 10
1001.997900
 20
872.598260
 30
0.0
 10
999.738910
 20
863.012170
 30
0.0
 10
998.184320
 20
863.005170
 30
0.0
 10
995.809990
 20
872.661880
 30
0.0
 10
993.551480
 20
862.982980
 30
0.0
  0
SPLINE
  5
1c5
100
AcDbEntity
  8
0
 62
7
100
AcDbSpline
 70
8
 71
3
 72
8
 73
4
 74
0
 40
0
 40
0
 40
0
 40
0
 40
1
 40
1
 40
1
 40
1
 10
987.597400
 20
863.023590
 30
0.0
 10
986.937407
 20
863.020257
 30
0.0
 10
986.385520
 20
863.053707
 30
0.0
 10
985.941740
 20
863.123940
 30
0.0
  0
SPLINE
  5
1c6
100
AcDbEntity
  8
0
 62
7
100
AcDbSpline
 70
8
 71
3
 72
8
 73
4
 74
0
 40
0
 40
0
 40
0
 40
0
 40
1
 40
1
 40
1
 40
1
 10
985.941740
 20
863.123940
 30
0.0
 10
985.492807
 20
863.193980
 30
0.0
 10
985.066620
 20
863.359520
 30
0.0
 10
984.663180
 20
863.620560
 30
0.0
  0
SPLINE
  5
1c7
100
AcDbEntity
  8
0
 62
7
100
AcDbSpline
 70
8
 71
3
 72
8
 73
4
 74
0
 40
0
 40
0
 40
0
 40
0
 40
1
 40
1
 40
1
 40
1
 10
984.663180
 20
863.620560
 30
0.0
 10
984.259760
 20
863.876440
 30
0.0
 10
983.941060
 20
864.207493
 30
0.0
 10
983.707080
 20
864.613720
 30
0.0
  0
SPLINE
  5
1c8
100
AcDbEntity
  8
0
 62
7
100
AcDbSpline
 70
8
 71
3
 72
8
 73
4
 74
0
 40
0
 40
0
 40
0
 40
0
 40
1
 40
1
 40
1
 40
1
 10
983.707080
 20
864.613720
 30
0.0
 10
983.467947
 20
865.019927
 30
0.0
 10
983.346933
 20
865.524667
 30
0.0
 10
983.344040
 20
866.127940
 30
0.0
  0
SPLINE
  5
1c9
100
AcDbEntity
  8
0
 62
7
100
AcDbSpline
 70
8
 71
3
 72
8
 73
4
 74
0
 40
0
 40
0
 40
0
 40
0
 40
1
 40
1
 40
1
 40
1
 10
983.344040
 20
866.127940
 30
0.0
 10
983.340040
 20
866.973553
 30
0.0
 10
983.550640
 20
867.680977
 30
0.0
 10
983.975840
 20
868.250210
 30
0.0
  0
SPLINE
  5
1ca
100
AcDbEntity
  8
0
 62
7
100
AcDbSpline
 70
8
 71
3
 72
8
 73
4
 74
0
 40
0
 40
0
 40
0
 40
0
 40
1
 40
1
 40
1
 40
1
 10
983.975840
 20
868.250210
 30
0.0
 10
984.401087
 20
868.819437
 30
0.0
 10
984.981723
 20
869.242457
 30
0.0
 10
985.717750
 20
869.519270
 30
0.0
  0
LWPOLYLINE
  5
1cb
100
AcDbEntity
  8
0
 62
7
100
AcDbPolyline
 90
8
 70
0
 10
981.594500
 20
874.511660
 30
0.0
 10
983.582210
 20
874.521660
 30
0.0
 10
987.254730
 20
869.960450
 30
0.0
 10
989.002680
 20
869.968450
 30
0.0
 10
988.980780
 20
874.547150
 30
0.0
 10
990.512170
 20
874.554150
 30
0.0
 10
990.567370
 20
863.037790
 30
0.0
 10
987.597400
 20
863.023590
 30
0.0
  0
SPLINE
  5
1cc
100
AcDbEntity
  8
0
 62
7
100
AcDbSpline
 70
8
 71
3
 72
8
 73
4
 74
0
 40
0
 40
0
 40
0
 40
0
 40
1
 40
1
 40
1
 40
1
 10
984.944420
 20
866.251830
 30
0.0
 10
984.945753
 20
865.916677
 30
0.0
 10
985.006470
 20
865.620480
 30
0.0
 10
985.126570
 20
865.363240
 30
0.0
  0
SPLINE
  5
1cd
100
AcDbEntity
  8
0
 62
7
100
AcDbSpline
 70
8
 71
3
 72
8
 73
4
 74
0
 40
0
 40
0
 40
0
 40
0
 40
1
 40
1
 40
1
 40
1
 10
985.126570
 20
865.363240
 30
0.0
 10
985.246417
 20
865.100840
 30
0.0
 10
985.430483
 20
864.887733
 30
0.0
 10
985.678770
 20
864.723920
 30
0.0
  0
SPLINE
  5
1ce
100
AcDbEntity
  8
0
 62
7
100
AcDbSpline
 70
8
 71
3
 72
8
 73
4
 74
0
 40
0
 40
0
 40
0
 40
0
 40
1
 40
1
 40
1
 40
1
 10
985.678770
 20
864.723920
 30
0.0
 10
985.896023
 20
864.580587
 30
0.0
 10
986.149160
 20
864.481253
 30
0.0
 10
986.438180
 20
864.425920
 30
0.0
  0
SPLINE
  5
1cf
100
AcDbEntity
  8
0
 62
7
100
AcDbSpline
 70
8
 71
3
 72
8
 73
4
 74
0
 40
0
 40
0
 40
0
 40
0
 40
1
 40
1
 40
1
 40
1
 10
986.438180
 20
864.425920
 30
0.0
 10
986.727220
 20
864.365453
 30
0.0
 10
987.085723
 20
864.336220
 30
0.0
 10
987.513690
 20
864.338220
 30
0.0
  0
LWPOLYLINE
  5
1d0
100
AcDbEntity
  8
0
 62
7
100
AcDbPolyline
 90
2
 70
0
 10
985.717750
 20
869.519270
 30
0.0
 10
981.594500
 20
874.511660
 30
0.0
  0
SPLINE
  5
1d1
100
AcDbEntity
  8
0
 62
7
100
AcDbSpline
 70
8
 71
3
 72
8
 73
4
 74
0
 40
0
 40
0
 40
0
 40
0
 40
1
 40
1
 40
1
 40
1
 10
987.663040
 20
868.685890
 30
0.0
 10
987.224767
 20
868.683890
 30
0.0
 10
986.830503
 20
868.643330
 30
0.0
 10
986.480250
 20
868.564210
 30
0.0
  0
SPLINE
  5
1d2
100
AcDbEntity
  8
0
 62
7
100
AcDbSpline
 70
8
 71
3
 72
8
 73
4
 74
0
 40
0
 40
0
 40
0
 40
0
 40
1
 40
1
 40
1
 40
1
 10
986.480250
 20
868.564210
 30
0.0
 10
986.130003
 20
868.485183
 30
0.0
 10
985.831710
 20
868.323907
 30
0.0
 10
985.585370
 20
868.080380
 30
0.0
  0
SPLINE
  5
1d3
100
AcDbEntity
  8
0
 62
7
100
AcDbSpline
 70
8
 71
3
 72
8
 73
4
 74
0
 40
0
 40
0
 40
0
 40
0
 40
1
 40
1
 40
1
 40
1
 10
985.585370
 20
868.080380
 30
0.0
 10
985.364690
 20
867.862760
 30
0.0
 10
985.203507
 20
867.604173
 30
0.0
 10
985.101820
 20
867.304620
 30
0.0
  0
SPLINE
  5
1d4
100
AcDbEntity
  8
0
 62
7
100
AcDbSpline
 70
8
 71
3
 72
8
 73
4
 74
0
 40
0
 40
0
 40
0
 40
0
 40
1
 40
1
 40
1
 40
1
 10
985.101820
 20
867.304620
 30
0.0
 10
984.994973
 20
867.005040
 30
0.0
 10
984.942513
 20
866.654160
 30
0.0
 10
984.944440
 20
866.251980
 30
0.0
  0
LWPOLYLINE
  5
1d5
100
AcDbEntity
  8
0
 62
7
100
AcDbPolyline
 90
4
 70
0
 10
987.513690
 20
864.338220
 30
0.0
 10
989.029610
 20
864.345220
 30
0.0
 10
989.008810
 20
868.691890
 30
0.0
 10
987.663040
 20
868.685890
 30
0.0
  0
LWPOLYLINE
  5
1d6
100
AcDbEntity
  8
0
 62
7
100
AcDbPolyline
 90
2
 70
0
 10
984.944440
 20
866.251980
 30
0.0
 10
984.944420
 20
866.251830
 30
0.0
  0
LWPOLYLINE
  5
1d7
100
AcDbEntity
  8
0
 62
7
100
AcDbPolyline
 90
8
 70
1
 10
1263.350700
 20
1030.780530
 30
0.0
 10
1273.505900
 20
1030.756130
 30
0.0
 10
1273.515900
 20
1034.623300
 30
0.0
 10
1274.877200
 20
1034.620300
 30
0.0
 10
1274.855200
 20
1025.354550
 30
0.0
 10
1273.494000
 20
1025.357550
 30
0.0
 10
1273.504000
 20
1029.224720
 30
0.0
 10
1263.348800
 20
1029.249120
 30
0.0
  0
LWPOLYLINE
  5
1d8
100
AcDbEntity
  8
0
 62
7
100
AcDbPolyline
 90
12
 70
1
 10
1263.357200
 20
1024.112140
 30
0.0
 10
1274.873600
 20
1024.084540
 30
0.0
 10
1274.856600
 20
1016.883860
 30
0.0
 10
1273.495300
 20
1016.886860
 30
0.0
 10
1273.509300
 20
1022.556140
 30
0.0
 10
1270.353700
 20
1022.564140
 30
0.0
 10
1270.340700
 20
1017.281580
 30
0.0
 10
1268.979500
 20
1017.284580
 30
0.0
 10
1268.992500
 20
1022.567140
 30
0.0
 10
1264.715400
 20
1022.577440
 30
0.0
 10
1264.701400
 20
1016.908160
 30
0.0
 10
1263.340100
 20
1016.911160
 30
0.0
  0
SPLINE
  5
1d9
100
AcDbEntity
  8
0
 62
7
100
AcDbSpline
 70
8
 71
3
 72
8
 73
4
 74
0
 40
0
 40
0
 40
0
 40
0
 40
1
 40
1
 40
1
 40
1
 10
1271.383500
 20
995.942510
 30
0.0
 10
1270.883300
 20
995.943843
 30
0.0
 10
1270.409133
 20
996.035213
 30
0.0
 10
1269.961000
 20
996.216620
 30
0.0
  0
SPLINE
  5
1da
100
AcDbEntity
  8
0
 62
7
100
AcDbSpline
 70
8
 71
3
 72
8
 73
4
 74
0
 40
0
 40
0
 40
0
 40
0
 40
1
 40
1
 40
1
 40
1
 10
1269.961000
 20
996.216620
 30
0.0
 10
1269.518000
 20
996.393000
 30
0.0
 10
1269.139600
 20
996.638833
 30
0.0
 10
1268.825800
 20
996.954120
 30
0.0
  0
SPLINE
  5
1db
100
AcDbEntity
  8
0
 62
7
100
AcDbSpline
 70
8
 71
3
 72
8
 73
4
 74
0
 40
0
 40
0
 40
0
 40
0
 40
1
 40
1
 40
1
 40
1
 10
1268.825800
 20
996.954120
 30
0.0
 10
1268.434867
 20
997.352087
 30
0.0
 10
1268.139500
 20
997.819437
 30
0.0
 10
1267.939700
 20
998.356170
 30
0.0
  0
SPLINE
  5
1dc
100
AcDbEntity
  8
0
 62
7
100
AcDbSpline
 70
8
 71
3
 72
8
 73
4
 74
0
 40
0
 40
0
 40
0
 40
0
 40
1
 40
1
 40
1
 40
1
 10
1267.939700
 20
998.356170
 30
0.0
 10
1267.739900
 20
998.892903
 30
0.0
 10
1267.641000
 20
999.571190
 30
0.0
 10
1267.643000
 20
1000.391030
 30
0.0
  0
LWPOLYLINE
  5
1dd
100
AcDbEntity
  8
0
 62
7
100
AcDbPolyline
 90
13
 70
1
 10
1263.333500
 20
1005.363070
 30
0.0
 10
1263.333500
 20
1006.894470
 30
0.0
 10
1273.256700
 20
1006.870670
 30
0.0
 10
1266.511800
 20
1009.887810
 30
0.0
 10
1266.511800
 20
1010.815930
 30
0.0
 10
1273.271000
 20
1013.777450
 30
0.0
 10
1263.347900
 20
1013.801250
 30
0.0
 10
1263.347900
 20
1015.232100
 30
0.0
 10
1274.864300
 20
1015.204500
 30
0.0
 10
1274.864300
 20
1013.116230
 30
0.0
 10
1268.445700
 20
1010.254440
 30
0.0
 10
1274.850800
 20
1007.462420
 30
0.0
 10
1274.840800
 20
1005.335470
 30
0.0
  0
SPLINE
  5
1de
100
AcDbEntity
  8
0
 62
7
100
AcDbSpline
 70
8
 71
3
 72
8
 73
4
 74
0
 40
0
 40
0
 40
0
 40
0
 40
1
 40
1
 40
1
 40
1
 10
1274.856800
 20
1000.311860
 30
0.0
 10
1274.856800
 20
999.631233
 30
0.0
 10
1274.798700
 20
999.051290
 30
0.0
 10
1274.682500
 20
998.572030
 30
0.0
  0
SPLINE
  5
1df
100
AcDbEntity
  8
0
 62
7
100
AcDbSpline
 70
8
 71
3
 72
8
 73
4
 74
0
 40
0
 40
0
 40
0
 40
0
 40
1
 40
1
 40
1
 40
1
 10
1274.682500
 20
998.572030
 30
0.0
 10
1274.567900
 20
998.092777
 30
0.0
 10
1274.383833
 20
997.670407
 30
0.0
 10
1274.130300
 20
997.304920
 30
0.0
  0
SPLINE
  5
1e0
100
AcDbEntity
  8
0
 62
7
100
AcDbSpline
 70
8
 71
3
 72
8
 73
4
 74
0
 40
0
 40
0
 40
0
 40
0
 40
1
 40
1
 40
1
 40
1
 10
1274.130300
 20
997.304920
 30
0.0
 10
1273.835367
 20
996.877660
 30
0.0
 10
1273.460733
 20
996.543400
 30
0.0
 10
1273.006400
 20
996.302140
 30
0.0
  0
SPLINE
  5
1e1
100
AcDbEntity
  8
0
 62
7
100
AcDbSpline
 70
8
 71
3
 72
8
 73
4
 74
0
 40
0
 40
0
 40
0
 40
0
 40
1
 40
1
 40
1
 40
1
 10
1273.006400
 20
996.302140
 30
0.0
 10
1272.557200
 20
996.060873
 30
0.0
 10
1272.012933
 20
995.941010
 30
0.0
 10
1271.373600
 20
995.942550
 30
0.0
  0
LWPOLYLINE
  5
1e2
100
AcDbEntity
  8
0
 62
7
100
AcDbPolyline
 90
6
 70
0
 10
1267.643000
 20
1000.391030
 30
0.0
 10
1267.643000
 20
1001.690400
 30
0.0
 10
1263.350400
 20
1001.700700
 30
0.0
 10
1263.350400
 20
1003.232100
 30
0.0
 10
1274.866800
 20
1003.204500
 30
0.0
 10
1274.856800
 20
1000.311860
 30
0.0
  0
SPLINE
  5
1e3
100
AcDbEntity
  8
0
 62
7
100
AcDbSpline
 70
8
 71
3
 72
8
 73
4
 74
0
 40
0
 40
0
 40
0
 40
0
 40
1
 40
1
 40
1
 40
1
 10
1271.348500
 20
997.535880
 30
0.0
 10
1271.745567
 20
997.535213
 30
0.0
 10
1272.091200
 20
997.603993
 30
0.0
 10
1272.385400
 20
997.742220
 30
0.0
  0
SPLINE
  5
1e4
100
AcDbEntity
  8
0
 62
7
100
AcDbSpline
 70
8
 71
3
 72
8
 73
4
 74
0
 40
0
 40
0
 40
0
 40
0
 40
1
 40
1
 40
1
 40
1
 10
1272.385400
 20
997.742220
 30
0.0
 10
1272.679667
 20
997.875573
 30
0.0
 10
1272.919933
 20
998.081247
 30
0.0
 10
1273.106200
 20
998.359240
 30
0.0
  0
SPLINE
  5
1e5
100
AcDbEntity
  8
0
 62
7
100
AcDbSpline
 70
8
 71
3
 72
8
 73
4
 74
0
 40
0
 40
0
 40
0
 40
0
 40
1
 40
1
 40
1
 40
1
 10
1273.106200
 20
998.359240
 30
0.0
 10
1273.266600
 20
998.601200
 30
0.0
 10
1273.380733
 20
998.884520
 30
0.0
 10
1273.448600
 20
999.209200
 30
0.0
  0
SPLINE
  5
1e6
100
AcDbEntity
  8
0
 62
7
100
AcDbSpline
 70
8
 71
3
 72
8
 73
4
 74
0
 40
0
 40
0
 40
0
 40
0
 40
1
 40
1
 40
1
 40
1
 10
1273.448600
 20
999.209200
 30
0.0
 10
1273.516400
 20
999.528727
 30
0.0
 10
1273.550867
 20
999.928253
 30
0.0
 10
1273.552000
 20
1000.407780
 30
0.0
  0
LWPOLYLINE
  5
1e7
100
AcDbEntity
  8
0
 62
7
100
AcDbPolyline
 90
2
 70
0
 10
1271.373600
 20
995.942550
 30
0.0
 10
1271.383500
 20
995.942510
 30
0.0
  0
SPLINE
  5
1e8
100
AcDbEntity
  8
0
 62
7
100
AcDbSpline
 70
8
 71
3
 72
8
 73
4
 74
0
 40
0
 40
0
 40
0
 40
0
 40
1
 40
1
 40
1
 40
1
 10
1268.950100
 20
1000.643080
 30
0.0
 10
1268.950100
 20
1000.024333
 30
0.0
 10
1268.997867
 20
999.524063
 30
0.0
 10
1269.093400
 20
999.142270
 30
0.0
  0
SPLINE
  5
1e9
100
AcDbEntity
  8
0
 62
7
100
AcDbSpline
 70
8
 71
3
 72
8
 73
4
 74
0
 40
0
 40
0
 40
0
 40
0
 40
1
 40
1
 40
1
 40
1
 10
1269.093400
 20
999.142270
 30
0.0
 10
1269.195667
 20
998.760457
 30
0.0
 10
1269.375400
 20
998.442913
 30
0.0
 10
1269.632600
 20
998.189640
 30
0.0
  0
SPLINE
  5
1ea
100
AcDbEntity
  8
0
 62
7
100
AcDbSpline
 70
8
 71
3
 72
8
 73
4
 74
0
 40
0
 40
0
 40
0
 40
0
 40
1
 40
1
 40
1
 40
1
 10
1269.632600
 20
998.189640
 30
0.0
 10
1269.864067
 20
997.962213
 30
0.0
 10
1270.116300
 20
997.796607
 30
0.0
 10
1270.389300
 20
997.692820
 30
0.0
  0
SPLINE
  5
1eb
100
AcDbEntity
  8
0
 62
7
100
AcDbSpline
 70
8
 71
3
 72
8
 73
4
 74
0
 40
0
 40
0
 40
0
 40
0
 40
1
 40
1
 40
1
 40
1
 10
1270.389300
 20
997.692820
 30
0.0
 10
1270.662367
 20
997.589040
 30
0.0
 10
1270.981933
 20
997.536713
 30
0.0
 10
1271.348000
 20
997.535840
 30
0.0
  0
LWPOLYLINE
  5
1ec
100
AcDbEntity
  8
0
 62
7
100
AcDbPolyline
 90
4
 70
0
 10
1273.552000
 20
1000.407780
 30
0.0
 10
1273.552000
 20
1001.676220
 30
0.0
 10
1268.950100
 20
1001.687220
 30
0.0
 10
1268.950100
 20
1000.643080
 30
0.0
  0
SPLINE
  5
1ed
100
AcDbEntity
  8
0
 62
7
100
AcDbSpline
 70
8
 71
3
 72
8
 73
4
 74
0
 40
0
 40
0
 40
0
 40
0
 40
1
 40
1
 40
1
 40
1
 10
1263.137600
 20
984.811210
 30
0.0
 10
1263.137600
 20
985.564023
 30
0.0
 10
1263.265567
 20
986.257233
 30
0.0
 10
1263.521500
 20
986.890840
 30
0.0
  0
SPLINE
  5
1ee
100
AcDbEntity
  8
0
 62
7
100
AcDbSpline
 70
8
 71
3
 72
8
 73
4
 74
0
 40
0
 40
0
 40
0
 40
0
 40
1
 40
1
 40
1
 40
1
 10
1263.521500
 20
986.890840
 30
0.0
 10
1263.775700
 20
987.519293
 30
0.0
 10
1264.153433
 20
988.062373
 30
0.0
 10
1264.654700
 20
988.520080
 30
0.0
  0
SPLINE
  5
1ef
100
AcDbEntity
  8
0
 62
7
100
AcDbSpline
 70
8
 71
3
 72
8
 73
4
 74
0
 40
0
 40
0
 40
0
 40
0
 40
1
 40
1
 40
1
 40
1
 10
1264.654700
 20
988.520080
 30
0.0
 10
1265.155967
 20
988.977787
 30
0.0
 10
1265.780700
 20
989.332070
 30
0.0
 10
1266.528900
 20
989.582930
 30
0.0
  0
SPLINE
  5
1f0
100
AcDbEntity
  8
0
 62
7
100
AcDbSpline
 70
8
 71
3
 72
8
 73
4
 74
0
 40
0
 40
0
 40
0
 40
0
 40
1
 40
1
 40
1
 40
1
 10
1266.528900
 20
989.582930
 30
0.0
 10
1267.277167
 20
989.833790
 30
0.0
 10
1268.136000
 20
989.958057
 30
0.0
 10
1269.105400
 20
989.955730
 30
0.0
  0
SPLINE
  5
1f1
100
AcDbEntity
  8
0
 62
7
100
AcDbSpline
 70
8
 71
3
 72
8
 73
4
 74
0
 40
0
 40
0
 40
0
 40
0
 40
1
 40
1
 40
1
 40
1
 10
1269.105400
 20
989.955730
 30
0.0
 10
1270.069600
 20
989.953730
 30
0.0
 10
1270.909767
 20
989.830540
 30
0.0
 10
1271.625900
 20
989.586160
 30
0.0
  0
SPLINE
  5
1f2
100
AcDbEntity
  8
0
 62
7
100
AcDbSpline
 70
8
 71
3
 72
8
 73
4
 74
0
 40
0
 40
0
 40
0
 40
0
 40
1
 40
1
 40
1
 40
1
 10
1271.625900
 20
989.586160
 30
0.0
 10
1272.342033
 20
989.336947
 30
0.0
 10
1272.965100
 20
988.977093
 30
0.0
 10
1273.495100
 20
988.506600
 30
0.0
  0
SPLINE
  5
1f3
100
AcDbEntity
  8
0
 62
7
100
AcDbSpline
 70
8
 71
3
 72
8
 73
4
 74
0
 40
0
 40
0
 40
0
 40
0
 40
1
 40
1
 40
1
 40
1
 10
1273.495100
 20
988.506600
 30
0.0
 10
1274.009567
 20
988.046453
 30
0.0
 10
1274.400133
 20
987.501530
 30
0.0
 10
1274.666800
 20
986.871830
 30
0.0
  0
SPLINE
  5
1f4
100
AcDbEntity
  8
0
 62
7
100
AcDbSpline
 70
8
 71
3
 72
8
 73
4
 74
0
 40
0
 40
0
 40
0
 40
0
 40
1
 40
1
 40
1
 40
1
 10
1274.666800
 20
986.871830
 30
0.0
 10
1274.938533
 20
986.242110
 30
0.0
 10
1275.073467
 20
985.537957
 30
0.0
 10
1275.071600
 20
984.759370
 30
0.0
  0
SPLINE
  5
1f5
100
AcDbEntity
  8
0
 62
7
100
AcDbSpline
 70
8
 71
3
 72
8
 73
4
 74
0
 40
0
 40
0
 40
0
 40
0
 40
1
 40
1
 40
1
 40
1
 10
1275.071600
 20
984.759370
 30
0.0
 10
1275.071600
 20
984.372650
 30
0.0
 10
1275.042267
 20
984.011780
 30
0.0
 10
1274.983600
 20
983.676760
 30
0.0
  0
SPLINE
  5
1f6
100
AcDbEntity
  8
0
 62
7
100
AcDbSpline
 70
8
 71
3
 72
8
 73
4
 74
0
 40
0
 40
0
 40
0
 40
0
 40
1
 40
1
 40
1
 40
1
 10
1274.983600
 20
983.676760
 30
0.0
 10
1274.926267
 20
983.336587
 30
0.0
 10
1274.853333
 20
983.022230
 30
0.0
 10
1274.764800
 20
982.733690
 30
0.0
  0
SPLINE
  5
1f7
100
AcDbEntity
  8
0
 62
7
100
AcDbSpline
 70
8
 71
3
 72
8
 73
4
 74
0
 40
0
 40
0
 40
0
 40
0
 40
1
 40
1
 40
1
 40
1
 10
1274.764800
 20
982.733690
 30
0.0
 10
1274.686867
 20
982.486377
 30
0.0
 10
1274.588300
 20
982.233957
 30
0.0
 10
1274.469100
 20
981.976430
 30
0.0
  0
SPLINE
  5
1f8
100
AcDbEntity
  8
0
 62
7
100
AcDbSpline
 70
8
 71
3
 72
8
 73
4
 74
0
 40
0
 40
0
 40
0
 40
0
 40
1
 40
1
 40
1
 40
1
 10
1274.469100
 20
981.976430
 30
0.0
 10
1274.355033
 20
981.713730
 30
0.0
 10
1274.228067
 20
981.456220
 30
0.0
 10
1274.088200
 20
981.203900
 30
0.0
  0
LWPOLYLINE
  5
1f9
100
AcDbEntity
  8
0
 62
7
100
AcDbPolyline
 90
2
 70
0
 10
1271.348000
 20
997.535840
 30
0.0
 10
1271.348500
 20
997.535880
 30
0.0
  0
SPLINE
  5
1fa
100
AcDbEntity
  8
0
 62
7
100
AcDbSpline
 70
8
 71
3
 72
8
 73
4
 74
0
 40
0
 40
0
 40
0
 40
0
 40
1
 40
1
 40
1
 40
1
 10
1272.240000
 20
981.331650
 30
0.0
 10
1272.364067
 20
981.465417
 30
0.0
 10
1272.514033
 20
981.637790
 30
0.0
 10
1272.689900
 20
981.848770
 30
0.0
  0
SPLINE
  5
1fb
100
AcDbEntity
  8
0
 62
7
100
AcDbSpline
 70
8
 71
3
 72
8
 73
4
 74
0
 40
0
 40
0
 40
0
 40
0
 40
1
 40
1
 40
1
 40
1
 10
1272.689900
 20
981.848770
 30
0.0
 10
1272.865700
 20
982.059757
 30
0.0
 10
1273.039033
 20
982.317153
 30
0.0
 10
1273.209900
 20
982.620960
 30
0.0
  0
SPLINE
  5
1fc
100
AcDbEntity
  8
0
 62
7
100
AcDbSpline
 70
8
 71
3
 72
8
 73
4
 74
0
 40
0
 40
0
 40
0
 40
0
 40
1
 40
1
 40
1
 40
1
 10
1273.209900
 20
982.620960
 30
0.0
 10
1273.370500
 20
982.914487
 30
0.0
 10
1273.502767
 20
983.233860
 30
0.0
 10
1273.606700
 20
983.579080
 30
0.0
  0
SPLINE
  5
1fd
100
AcDbEntity
  8
0
 62
7
100
AcDbSpline
 70
8
 71
3
 72
8
 73
4
 74
0
 40
0
 40
0
 40
0
 40
0
 40
1
 40
1
 40
1
 40
1
 10
1273.606700
 20
983.579080
 30
0.0
 10
1273.710633
 20
983.924300
 30
0.0
 10
1273.763133
 20
984.323783
 30
0.0
 10
1273.764200
 20
984.777530
 30
0.0
  0
SPLINE
  5
1fe
100
AcDbEntity
  8
0
 62
7
100
AcDbSpline
 70
8
 71
3
 72
8
 73
4
 74
0
 40
0
 40
0
 40
0
 40
0
 40
1
 40
1
 40
1
 40
1
 10
1273.764200
 20
984.777530
 30
0.0
 10
1273.764200
 20
985.267370
 30
0.0
 10
1273.664767
 20
985.731673
 30
0.0
 10
1273.465900
 20
986.170440
 30
0.0
  0
SPLINE
  5
1ff
100
AcDbEntity
  8
0
 62
7
100
AcDbSpline
 70
8
 71
3
 72
8
 73
4
 74
0
 40
0
 40
0
 40
0
 40
0
 40
1
 40
1
 40
1
 40
1
 10
1273.465900
 20
986.170440
 30
0.0
 10
1273.265900
 20
986.609200
 30
0.0
 10
1272.970367
 20
986.994050
 30
0.0
 10
1272.579300
 20
987.324990
 30
0.0
  0
SPLINE
  5
200
100
AcDbEntity
  8
0
 62
7
100
AcDbSpline
 70
8
 71
3
 72
8
 73
4
 74
0
 40
0
 40
0
 40
0
 40
0
 40
1
 40
1
 40
1
 40
1
 10
1272.579300
 20
987.324990
 30
0.0
 10
1272.188167
 20
987.650777
 30
0.0
 10
1271.696333
 20
987.904613
 30
0.0
 10
1271.103800
 20
988.086500
 30
0.0
  0
SPLINE
  5
201
100
AcDbEntity
  8
0
 62
7
100
AcDbSpline
 70
8
 71
3
 72
8
 73
4
 74
0
 40
0
 40
0
 40
0
 40
0
 40
1
 40
1
 40
1
 40
1
 10
1271.103800
 20
988.086500
 30
0.0
 10
1270.511267
 20
988.268393
 30
0.0
 10
1269.843767
 20
988.360230
 30
0.0
 10
1269.101300
 20
988.362010
 30
0.0
  0
SPLINE
  5
202
100
AcDbEntity
  8
0
 62
7
100
AcDbSpline
 70
8
 71
3
 72
8
 73
4
 74
0
 40
0
 40
0
 40
0
 40
0
 40
1
 40
1
 40
1
 40
1
 10
1269.101300
 20
988.362010
 30
0.0
 10
1268.312367
 20
988.364010
 30
0.0
 10
1267.631500
 20
988.270253
 30
0.0
 10
1267.058700
 20
988.080740
 30
0.0
  0
SPLINE
  5
203
100
AcDbEntity
  8
0
 62
7
100
AcDbSpline
 70
8
 71
3
 72
8
 73
4
 74
0
 40
0
 40
0
 40
0
 40
0
 40
1
 40
1
 40
1
 40
1
 10
1267.058700
 20
988.080740
 30
0.0
 10
1266.491100
 20
987.891320
 30
0.0
 10
1266.010967
 20
987.632083
 30
0.0
 10
1265.618300
 20
987.303030
 30
0.0
  0
SPLINE
  5
204
100
AcDbEntity
  8
0
 62
7
100
AcDbSpline
 70
8
 71
3
 72
8
 73
4
 74
0
 40
0
 40
0
 40
0
 40
0
 40
1
 40
1
 40
1
 40
1
 10
1265.618300
 20
987.303030
 30
0.0
 10
1265.235967
 20
986.984257
 30
0.0
 10
1264.946300
 20
986.608543
 30
0.0
 10
1264.749300
 20
986.175890
 30
0.0
  0
SPLINE
  5
205
100
AcDbEntity
  8
0
 62
7
100
AcDbSpline
 70
8
 71
3
 72
8
 73
4
 74
0
 40
0
 40
0
 40
0
 40
0
 40
1
 40
1
 40
1
 40
1
 10
1264.749300
 20
986.175890
 30
0.0
 10
1264.557500
 20
985.743223
 30
0.0
 10
1264.461000
 20
985.284547
 30
0.0
 10
1264.459800
 20
984.799860
 30
0.0
  0
SPLINE
  5
206
100
AcDbEntity
  8
0
 62
7
100
AcDbSpline
 70
8
 71
3
 72
8
 73
4
 74
0
 40
0
 40
0
 40
0
 40
0
 40
1
 40
1
 40
1
 40
1
 10
1264.459800
 20
984.799860
 30
0.0
 10
1264.459800
 20
984.356427
 30
0.0
 10
1264.512967
 20
983.946377
 30
0.0
 10
1264.619300
 20
983.569710
 30
0.0
  0
SPLINE
  5
207
100
AcDbEntity
  8
0
 62
7
100
AcDbSpline
 70
8
 71
3
 72
8
 73
4
 74
0
 40
0
 40
0
 40
0
 40
0
 40
1
 40
1
 40
1
 40
1
 10
1264.619300
 20
983.569710
 30
0.0
 10
1264.726700
 20
983.193043
 30
0.0
 10
1264.862533
 20
982.857560
 30
0.0
 10
1265.026800
 20
982.563260
 30
0.0
  0
SPLINE
  5
208
100
AcDbEntity
  8
0
 62
7
100
AcDbSpline
 70
8
 71
3
 72
8
 73
4
 74
0
 40
0
 40
0
 40
0
 40
0
 40
1
 40
1
 40
1
 40
1
 10
1265.026800
 20
982.563260
 30
0.0
 10
1265.185933
 20
982.279287
 30
0.0
 10
1265.347767
 20
982.033977
 30
0.0
 10
1265.512300
 20
981.827330
 30
0.0
  0
SPLINE
  5
209
100
AcDbEntity
  8
0
 62
7
100
AcDbSpline
 70
8
 71
3
 72
8
 73
4
 74
0
 40
0
 40
0
 40
0
 40
0
 40
1
 40
1
 40
1
 40
1
 10
1265.512300
 20
981.827330
 30
0.0
 10
1265.681967
 20
981.620670
 30
0.0
 10
1265.825967
 20
981.457900
 30
0.0
 10
1265.944300
 20
981.339020
 30
0.0
  0
LWPOLYLINE
  5
20a
100
AcDbEntity
  8
0
 62
7
100
AcDbPolyline
 90
3
 70
0
 10
1274.088200
 20
981.203900
 30
0.0
 10
1272.239700
 20
981.207900
 30
0.0
 10
1272.240000
 20
981.331650
 30
0.0
  0
SPLINE
  5
20b
100
AcDbEntity
  8
0
 62
7
100
AcDbSpline
 70
8
 71
3
 72
8
 73
4
 74
0
 40
0
 40
0
 40
0
 40
0
 40
1
 40
1
 40
1
 40
1
 10
1264.118700
 20
981.227010
 30
0.0
 10
1264.000700
 20
981.479950
 30
0.0
 10
1263.887833
 20
981.719987
 30
0.0
 10
1263.780100
 20
981.947120
 30
0.0
  0
SPLINE
  5
20c
100
AcDbEntity
  8
0
 62
7
100
AcDbSpline
 70
8
 71
3
 72
8
 73
4
 74
0
 40
0
 40
0
 40
0
 40
0
 40
1
 40
1
 40
1
 40
1
 10
1263.780100
 20
981.947120
 30
0.0
 10
1263.672367
 20
982.169100
 30
0.0
 10
1263.567300
 20
982.440057
 30
0.0
 10
1263.464900
 20
982.759990
 30
0.0
  0
SPLINE
  5
20d
100
AcDbEntity
  8
0
 62
7
100
AcDbSpline
 70
8
 71
3
 72
8
 73
4
 74
0
 40
0
 40
0
 40
0
 40
0
 40
1
 40
1
 40
1
 40
1
 10
1263.464900
 20
982.759990
 30
0.0
 10
1263.357433
 20
983.095403
 30
0.0
 10
1263.275700
 20
983.407553
 30
0.0
 10
1263.219700
 20
983.696440
 30
0.0
  0
SPLINE
  5
20e
100
AcDbEntity
  8
0
 62
7
100
AcDbSpline
 70
8
 71
3
 72
8
 73
4
 74
0
 40
0
 40
0
 40
0
 40
0
 40
1
 40
1
 40
1
 40
1
 10
1263.219700
 20
983.696440
 30
0.0
 10
1263.163700
 20
983.980167
 30
0.0
 10
1263.136367
 20
984.351483
 30
0.0
 10
1263.137700
 20
984.810390
 30
0.0
  0
LWPOLYLINE
  5
20f
100
AcDbEntity
  8
0
 62
7
100
AcDbPolyline
 90
3
 70
0
 10
1265.944300
 20
981.339020
 30
0.0
 10
1265.944000
 20
981.223010
 30
0.0
 10
1264.118700
 20
981.227010
 30
0.0
  0
LWPOLYLINE
  5
210
100
AcDbEntity
  8
0
 62
7
100
AcDbPolyline
 90
2
 70
0
 10
1263.137700
 20
984.810390
 30
0.0
 10
1263.137600
 20
984.811210
 30
0.0
  0
LWPOLYLINE
  5
211
100
AcDbEntity
  8
0
 62
7
100
AcDbPolyline
 90
8
 70
1
 10
1263.350700
 20
977.260600
 30
0.0
 10
1273.505900
 20
977.236200
 30
0.0
 10
1273.515900
 20
981.103370
 30
0.0
 10
1274.877200
 20
981.100370
 30
0.0
 10
1274.855200
 20
971.834620
 30
0.0
 10
1273.494000
 20
971.837620
 30
0.0
 10
1273.504000
 20
975.704790
 30
0.0
 10
1263.348800
 20
975.729190
 30
0.0
  0
SPLINE
  5
212
100
AcDbEntity
  8
0
 62
7
100
AcDbSpline
 70
8
 71
3
 72
8
 73
4
 74
0
 40
0
 40
0
 40
0
 40
0
 40
1
 40
1
 40
1
 40
1
 10
1274.850900
 20
967.594540
 30
0.0
 10
1274.850900
 20
966.934540
 30
0.0
 10
1274.813500
 20
966.382910
 30
0.0
 10
1274.738700
 20
965.939650
 30
0.0
  0
SPLINE
  5
213
100
AcDbEntity
  8
0
 62
7
100
AcDbSpline
 70
8
 71
3
 72
8
 73
4
 74
0
 40
0
 40
0
 40
0
 40
0
 40
1
 40
1
 40
1
 40
1
 10
1274.738700
 20
965.939650
 30
0.0
 10
1274.665433
 20
965.491230
 30
0.0
 10
1274.496833
 20
965.066243
 30
0.0
 10
1274.232900
 20
964.664690
 30
0.0
  0
SPLINE
  5
214
100
AcDbEntity
  8
0
 62
7
100
AcDbSpline
 70
8
 71
3
 72
8
 73
4
 74
0
 40
0
 40
0
 40
0
 40
0
 40
1
 40
1
 40
1
 40
1
 10
1274.232900
 20
964.664690
 30
0.0
 10
1273.974100
 20
964.263123
 30
0.0
 10
1273.640767
 20
963.946813
 30
0.0
 10
1273.232900
 20
963.715760
 30
0.0
  0
SPLINE
  5
215
100
AcDbEntity
  8
0
 62
7
100
AcDbSpline
 70
8
 71
3
 72
8
 73
4
 74
0
 40
0
 40
0
 40
0
 40
0
 40
1
 40
1
 40
1
 40
1
 10
1273.232900
 20
963.715760
 30
0.0
 10
1272.824967
 20
963.479547
 30
0.0
 10
1272.319367
 20
963.362167
 30
0.0
 10
1271.716100
 20
963.363620
 30
0.0
  0
SPLINE
  5
216
100
AcDbEntity
  8
0
 62
7
100
AcDbSpline
 70
8
 71
3
 72
8
 73
4
 74
0
 40
0
 40
0
 40
0
 40
0
 40
1
 40
1
 40
1
 40
1
 10
1271.716100
 20
963.363620
 30
0.0
 10
1270.870433
 20
963.365620
 30
0.0
 10
1270.164533
 20
963.581297
 30
0.0
 10
1269.598400
 20
964.010650
 30
0.0
  0
SPLINE
  5
217
100
AcDbEntity
  8
0
 62
7
100
AcDbSpline
 70
8
 71
3
 72
8
 73
4
 74
0
 40
0
 40
0
 40
0
 40
0
 40
1
 40
1
 40
1
 40
1
 10
1269.598400
 20
964.010650
 30
0.0
 10
1269.032267
 20
964.439983
 30
0.0
 10
1268.613433
 20
965.023647
 30
0.0
 10
1268.341900
 20
965.761640
 30
0.0
  0
LWPOLYLINE
  5
218
100
AcDbEntity
  8
0
 62
7
100
AcDbPolyline
 90
8
 70
0
 10
1263.335800
 20
961.674410
 30
0.0
 10
1263.335800
 20
963.662140
 30
0.0
 10
1267.923300
 20
967.301770
 30
0.0
 10
1267.923300
 20
969.049730
 30
0.0
 10
1263.344500
 20
969.060730
 30
0.0
 10
1263.344500
 20
970.592130
 30
0.0
 10
1274.860900
 20
970.564530
 30
0.0
 10
1274.850900
 20
967.594540
 30
0.0
  0
SPLINE
  5
219
100
AcDbEntity
  8
0
 62
7
100
AcDbSpline
 70
8
 71
3
 72
8
 73
4
 74
0
 40
0
 40
0
 40
0
 40
0
 40
1
 40
1
 40
1
 40
1
 10
1271.619500
 20
964.964860
 30
0.0
 10
1271.954633
 20
964.964193
 30
0.0
 10
1272.251267
 20
965.022777
 30
0.0
 10
1272.509400
 20
965.140610
 30
0.0
  0
SPLINE
  5
21a
100
AcDbEntity
  8
0
 62
7
100
AcDbSpline
 70
8
 71
3
 72
8
 73
4
 74
0
 40
0
 40
0
 40
0
 40
0
 40
1
 40
1
 40
1
 40
1
 10
1272.509400
 20
965.140610
 30
0.0
 10
1272.772667
 20
965.258570
 30
0.0
 10
1272.987067
 20
965.441103
 30
0.0
 10
1273.152600
 20
965.688210
 30
0.0
  0
SPLINE
  5
21b
100
AcDbEntity
  8
0
 62
7
100
AcDbSpline
 70
8
 71
3
 72
8
 73
4
 74
0
 40
0
 40
0
 40
0
 40
0
 40
1
 40
1
 40
1
 40
1
 10
1273.152600
 20
965.688210
 30
0.0
 10
1273.297533
 20
965.904423
 30
0.0
 10
1273.398700
 20
966.156837
 30
0.0
 10
1273.456100
 20
966.445450
 30
0.0
  0
SPLINE
  5
21c
100
AcDbEntity
  8
0
 62
7
100
AcDbSpline
 70
8
 71
3
 72
8
 73
4
 74
0
 40
0
 40
0
 40
0
 40
0
 40
1
 40
1
 40
1
 40
1
 10
1273.456100
 20
966.445450
 30
0.0
 10
1273.518767
 20
966.734050
 30
0.0
 10
1273.550433
 20
967.092333
 30
0.0
 10
1273.551100
 20
967.520300
 30
0.0
  0
LWPOLYLINE
  5
21d
100
AcDbEntity
  8
0
 62
7
100
AcDbPolyline
 90
2
 70
0
 10
1268.341900
 20
965.761640
 30
0.0
 10
1263.335800
 20
961.674410
 30
0.0
  0
SPLINE
  5
21e
100
AcDbEntity
  8
0
 62
7
100
AcDbSpline
 70
8
 71
3
 72
8
 73
4
 74
0
 40
0
 40
0
 40
0
 40
0
 40
1
 40
1
 40
1
 40
1
 10
1269.204400
 20
967.700860
 30
0.0
 10
1269.204400
 20
967.262580
 30
0.0
 10
1269.242133
 20
966.868037
 30
0.0
 10
1269.317600
 20
966.517230
 30
0.0
  0
SPLINE
  5
21f
100
AcDbEntity
  8
0
 62
7
100
AcDbSpline
 70
8
 71
3
 72
8
 73
4
 74
0
 40
0
 40
0
 40
0
 40
0
 40
1
 40
1
 40
1
 40
1
 10
1269.317600
 20
966.517230
 30
0.0
 10
1269.394067
 20
966.166417
 30
0.0
 10
1269.553167
 20
965.866970
 30
0.0
 10
1269.794900
 20
965.618890
 30
0.0
  0
SPLINE
  5
220
100
AcDbEntity
  8
0
 62
7
100
AcDbSpline
 70
8
 71
3
 72
8
 73
4
 74
0
 40
0
 40
0
 40
0
 40
0
 40
1
 40
1
 40
1
 40
1
 10
1269.794900
 20
965.618890
 30
0.0
 10
1270.010967
 20
965.396650
 30
0.0
 10
1270.268400
 20
965.233610
 30
0.0
 10
1270.567200
 20
965.129770
 30
0.0
  0
SPLINE
  5
221
100
AcDbEntity
  8
0
 62
7
100
AcDbSpline
 70
8
 71
3
 72
8
 73
4
 74
0
 40
0
 40
0
 40
0
 40
0
 40
1
 40
1
 40
1
 40
1
 10
1270.567200
 20
965.129770
 30
0.0
 10
1270.866000
 20
965.020770
 30
0.0
 10
1271.216500
 20
964.965790
 30
0.0
 10
1271.618700
 20
964.964830
 30
0.0
  0
LWPOLYLINE
  5
222
100
AcDbEntity
  8
0
 62
7
100
AcDbPolyline
 90
4
 70
0
 10
1273.551100
 20
967.520300
 30
0.0
 10
1273.551100
 20
969.036240
 30
0.0
 10
1269.204400
 20
969.046640
 30
0.0
 10
1269.204400
 20
967.700860
 30
0.0
  0
LWPOLYLINE
  5
223
100
AcDbEntity
  8
0
 62
7
100
AcDbPolyline
 90
2
 70
0
 10
1271.618700
 20
964.964830
 30
0.0
 10
1271.619500
 20
964.964860
 30
0.0
  0
LWPOLYLINE
  5
224
100
AcDbEntity
  8
0
 62
7
100
AcDbPolyline
 90
6
 70
1
 10
1263.341200
 20
954.077370
 30
0.0
 10
1263.357200
 20
960.752110
 30
0.0
 10
1274.873600
 20
960.724510
 30
0.0
 10
1274.873600
 20
959.193110
 30
0.0
 10
1264.718400
 20
959.217510
 30
0.0
 10
1264.706400
 20
954.074170
 30
0.0
  0
LWPOLYLINE
  5
225
100
AcDbEntity
  8
0
 62
7
100
AcDbPolyline
 90
12
 70
1
 10
923.269880
 20
768.104070
 30
0.0
 10
919.364020
 20
768.104070
 30
0.0
 10
919.364020
 20
764.198210
 30
0.0
 10
918.080120
 20
764.198210
 30
0.0
 10
918.080120
 20
768.104070
 30
0.0
 10
914.174260
 20
768.104070
 30
0.0
 10
914.174260
 20
769.341570
 30
0.0
 10
918.080120
 20
769.341570
 30
0.0
 10
918.080120
 20
773.247430
 30
0.0
 10
919.364020
 20
773.247430
 30
0.0
 10
919.364020
 20
769.341570
 30
0.0
 10
923.269880
 20
769.341570
 30
0.0
  0
SPLINE
  5
226
100
AcDbEntity
  8
0
 62
7
100
AcDbSpline
 70
8
 71
3
 72
8
 73
4
 74
0
 40
0
 40
0
 40
0
 40
0
 40
1
 40
1
 40
1
 40
1
 10
926.227960
 20
773.626420
 30
0.0
 10
927.016867
 20
773.626420
 30
0.0
 10
927.596943
 20
773.737277
 30
0.0
 10
927.968190
 20
773.958990
 30
0.0
  0
SPLINE
  5
227
100
AcDbEntity
  8
0
 62
7
100
AcDbSpline
 70
8
 71
3
 72
8
 73
4
 74
0
 40
0
 40
0
 40
0
 40
0
 40
1
 40
1
 40
1
 40
1
 10
927.968190
 20
773.958990
 30
0.0
 10
928.344597
 20
774.185870
 30
0.0
 10
928.556003
 20
774.611263
 30
0.0
 10
928.602410
 20
775.235170
 30
0.0
  0
LWPOLYLINE
  5
228
100
AcDbEntity
  8
0
 62
7
100
AcDbPolyline
 90
7
 70
0
 10
931.843110
 20
763.680010
 30
0.0
 10
926.227960
 20
763.680010
 30
0.0
 10
926.227960
 20
764.855630
 30
0.0
 10
928.316240
 20
764.855630
 30
0.0
 10
928.316240
 20
772.574540
 30
0.0
 10
926.227960
 20
772.574540
 30
0.0
 10
926.227960
 20
773.626420
 30
0.0
  0
LWPOLYLINE
  5
229
100
AcDbEntity
  8
0
 62
7
100
AcDbPolyline
 90
5
 70
0
 10
928.602410
 20
775.235170
 30
0.0
 10
929.801240
 20
775.235170
 30
0.0
 10
929.801240
 20
764.855630
 30
0.0
 10
931.843110
 20
764.855630
 30
0.0
 10
931.843110
 20
763.680010
 30
0.0
  0
SPLINE
  5
22a
100
AcDbEntity
  8
0
 62
7
100
AcDbSpline
 70
8
 71
3
 72
8
 73
4
 74
0
 40
0
 40
0
 40
0
 40
0
 40
1
 40
1
 40
1
 40
1
 10
933.963090
 20
765.296490
 30
0.0
 10
934.473557
 20
765.781183
 30
0.0
 10
934.955667
 20
766.245247
 30
0.0
 10
935.409420
 20
766.688680
 30
0.0
  0
SPLINE
  5
22b
100
AcDbEntity
  8
0
 62
7
100
AcDbSpline
 70
8
 71
3
 72
8
 73
4
 74
0
 40
0
 40
0
 40
0
 40
0
 40
1
 40
1
 40
1
 40
1
 10
935.409420
 20
766.688680
 30
0.0
 10
935.863167
 20
767.132120
 30
0.0
 10
936.306603
 20
767.593603
 30
0.0
 10
936.739730
 20
768.073130
 30
0.0
  0
SPLINE
  5
22c
100
AcDbEntity
  8
0
 62
7
100
AcDbSpline
 70
8
 71
3
 72
8
 73
4
 74
0
 40
0
 40
0
 40
0
 40
0
 40
1
 40
1
 40
1
 40
1
 10
936.739730
 20
768.073130
 30
0.0
 10
937.616290
 20
769.037350
 30
0.0
 10
938.214413
 20
769.808210
 30
0.0
 10
938.534100
 20
770.385710
 30
0.0
  0
SPLINE
  5
22d
100
AcDbEntity
  8
0
 62
7
100
AcDbSpline
 70
8
 71
3
 72
8
 73
4
 74
0
 40
0
 40
0
 40
0
 40
0
 40
1
 40
1
 40
1
 40
1
 10
938.534100
 20
770.385710
 30
0.0
 10
938.853787
 20
770.968370
 30
0.0
 10
939.013630
 20
771.569073
 30
0.0
 10
939.013630
 20
772.187820
 30
0.0
  0
SPLINE
  5
22e
100
AcDbEntity
  8
0
 62
7
100
AcDbSpline
 70
8
 71
3
 72
8
 73
4
 74
0
 40
0
 40
0
 40
0
 40
0
 40
1
 40
1
 40
1
 40
1
 10
939.013630
 20
772.187820
 30
0.0
 10
939.013630
 20
772.507507
 30
0.0
 10
938.962070
 20
772.788523
 30
0.0
 10
938.858950
 20
773.030870
 30
0.0
  0
SPLINE
  5
22f
100
AcDbEntity
  8
0
 62
7
100
AcDbSpline
 70
8
 71
3
 72
8
 73
4
 74
0
 40
0
 40
0
 40
0
 40
0
 40
1
 40
1
 40
1
 40
1
 10
938.858950
 20
773.030870
 30
0.0
 10
938.760977
 20
773.273210
 30
0.0
 10
938.624333
 20
773.474303
 30
0.0
 10
938.449020
 20
773.634150
 30
0.0
  0
SPLINE
  5
230
100
AcDbEntity
  8
0
 62
7
100
AcDbSpline
 70
8
 71
3
 72
8
 73
4
 74
0
 40
0
 40
0
 40
0
 40
0
 40
1
 40
1
 40
1
 40
1
 10
938.449020
 20
773.634150
 30
0.0
 10
938.268553
 20
773.788837
 30
0.0
 10
938.059727
 20
773.904853
 30
0.0
 10
937.822540
 20
773.982200
 30
0.0
  0
SPLINE
  5
231
100
AcDbEntity
  8
0
 62
7
100
AcDbSpline
 70
8
 71
3
 72
8
 73
4
 74
0
 40
0
 40
0
 40
0
 40
0
 40
1
 40
1
 40
1
 40
1
 10
937.822540
 20
773.982200
 30
0.0
 10
937.585353
 20
774.059540
 30
0.0
 10
937.324963
 20
774.098210
 30
0.0
 10
937.041370
 20
774.098210
 30
0.0
  0
SPLINE
  5
232
100
AcDbEntity
  8
0
 62
7
100
AcDbSpline
 70
8
 71
3
 72
8
 73
4
 74
0
 40
0
 40
0
 40
0
 40
0
 40
1
 40
1
 40
1
 40
1
 10
937.041370
 20
774.098210
 30
0.0
 10
936.768090
 20
774.098210
 30
0.0
 10
936.489653
 20
774.062117
 30
0.0
 10
936.206060
 20
773.989930
 30
0.0
  0
SPLINE
  5
233
100
AcDbEntity
  8
0
 62
7
100
AcDbSpline
 70
8
 71
3
 72
8
 73
4
 74
0
 40
0
 40
0
 40
0
 40
0
 40
1
 40
1
 40
1
 40
1
 10
936.206060
 20
773.989930
 30
0.0
 10
935.927620
 20
773.922903
 30
0.0
 10
935.659493
 20
773.837827
 30
0.0
 10
935.401680
 20
773.734700
 30
0.0
  0
SPLINE
  5
234
100
AcDbEntity
  8
0
 62
7
100
AcDbSpline
 70
8
 71
3
 72
8
 73
4
 74
0
 40
0
 40
0
 40
0
 40
0
 40
1
 40
1
 40
1
 40
1
 10
935.401680
 20
773.734700
 30
0.0
 10
935.185120
 20
773.647040
 30
0.0
 10
934.976293
 20
773.541337
 30
0.0
 10
934.775200
 20
773.417590
 30
0.0
  0
SPLINE
  5
235
100
AcDbEntity
  8
0
 62
7
100
AcDbSpline
 70
8
 71
3
 72
8
 73
4
 74
0
 40
0
 40
0
 40
0
 40
0
 40
1
 40
1
 40
1
 40
1
 10
934.775200
 20
773.417590
 30
0.0
 10
934.574107
 20
773.293837
 30
0.0
 10
934.411683
 20
773.188133
 30
0.0
 10
934.287930
 20
773.100480
 30
0.0
  0
LWPOLYLINE
  5
236
100
AcDbEntity
  8
0
 62
7
100
AcDbPolyline
 90
3
 70
0
 10
941.070980
 20
763.680010
 30
0.0
 10
933.963090
 20
763.680010
 30
0.0
 10
933.963090
 20
765.296490
 30
0.0
  0
SPLINE
  5
237
100
AcDbEntity
  8
0
 62
7
100
AcDbSpline
 70
8
 71
3
 72
8
 73
4
 74
0
 40
0
 40
0
 40
0
 40
0
 40
1
 40
1
 40
1
 40
1
 10
934.202830
 20
774.740170
 30
0.0
 10
934.522517
 20
774.900010
 30
0.0
 10
934.965957
 20
775.054697
 30
0.0
 10
935.533150
 20
775.204230
 30
0.0
  0
SPLINE
  5
238
100
AcDbEntity
  8
0
 62
7
100
AcDbSpline
 70
8
 71
3
 72
8
 73
4
 74
0
 40
0
 40
0
 40
0
 40
0
 40
1
 40
1
 40
1
 40
1
 10
935.533150
 20
775.204230
 30
0.0
 10
936.105490
 20
775.358917
 30
0.0
 10
936.646893
 20
775.436260
 30
0.0
 10
937.157360
 20
775.436260
 30
0.0
  0
SPLINE
  5
239
100
AcDbEntity
  8
0
 62
7
100
AcDbSpline
 70
8
 71
3
 72
8
 73
4
 74
0
 40
0
 40
0
 40
0
 40
0
 40
1
 40
1
 40
1
 40
1
 10
937.157360
 20
775.436260
 30
0.0
 10
938.229860
 20
775.436260
 30
0.0
 10
939.070330
 20
775.150087
 30
0.0
 10
939.678770
 20
774.577740
 30
0.0
  0
SPLINE
  5
23a
100
AcDbEntity
  8
0
 62
7
100
AcDbSpline
 70
8
 71
3
 72
8
 73
4
 74
0
 40
0
 40
0
 40
0
 40
0
 40
1
 40
1
 40
1
 40
1
 10
939.678770
 20
774.577740
 30
0.0
 10
940.287210
 20
774.010553
 30
0.0
 10
940.591430
 20
773.239697
 30
0.0
 10
940.591430
 20
772.265170
 30
0.0
  0
SPLINE
  5
23b
100
AcDbEntity
  8
0
 62
7
100
AcDbSpline
 70
8
 71
3
 72
8
 73
4
 74
0
 40
0
 40
0
 40
0
 40
0
 40
1
 40
1
 40
1
 40
1
 10
940.591430
 20
772.265170
 30
0.0
 10
940.591430
 20
771.816577
 30
0.0
 10
940.537287
 20
771.401497
 30
0.0
 10
940.429000
 20
771.019930
 30
0.0
  0
SPLINE
  5
23c
100
AcDbEntity
  8
0
 62
7
100
AcDbSpline
 70
8
 71
3
 72
8
 73
4
 74
0
 40
0
 40
0
 40
0
 40
0
 40
1
 40
1
 40
1
 40
1
 10
940.429000
 20
771.019930
 30
0.0
 10
940.325880
 20
770.638370
 30
0.0
 10
940.181507
 20
770.285167
 30
0.0
 10
939.995880
 20
769.960320
 30
0.0
  0
SPLINE
  5
23d
100
AcDbEntity
  8
0
 62
7
100
AcDbSpline
 70
8
 71
3
 72
8
 73
4
 74
0
 40
0
 40
0
 40
0
 40
0
 40
1
 40
1
 40
1
 40
1
 10
939.995880
 20
769.960320
 30
0.0
 10
939.805100
 20
769.625167
 30
0.0
 10
939.575647
 20
769.292590
 30
0.0
 10
939.307520
 20
768.962590
 30
0.0
  0
SPLINE
  5
23e
100
AcDbEntity
  8
0
 62
7
100
AcDbSpline
 70
8
 71
3
 72
8
 73
4
 74
0
 40
0
 40
0
 40
0
 40
0
 40
1
 40
1
 40
1
 40
1
 10
939.307520
 20
768.962590
 30
0.0
 10
939.039393
 20
768.632590
 30
0.0
 10
938.755800
 20
768.307747
 30
0.0
 10
938.456740
 20
767.988060
 30
0.0
  0
SPLINE
  5
23f
100
AcDbEntity
  8
0
 62
7
100
AcDbSpline
 70
8
 71
3
 72
8
 73
4
 74
0
 40
0
 40
0
 40
0
 40
0
 40
1
 40
1
 40
1
 40
1
 10
938.456740
 20
767.988060
 30
0.0
 10
937.972053
 20
767.462120
 30
0.0
 10
937.430647
 20
766.915557
 30
0.0
 10
936.832520
 20
766.348370
 30
0.0
  0
SPLINE
  5
240
100
AcDbEntity
  8
0
 62
7
100
AcDbSpline
 70
8
 71
3
 72
8
 73
4
 74
0
 40
0
 40
0
 40
0
 40
0
 40
1
 40
1
 40
1
 40
1
 10
936.832520
 20
766.348370
 30
0.0
 10
936.239553
 20
765.781183
 30
0.0
 10
935.765180
 20
765.332590
 30
0.0
 10
935.409400
 20
765.002590
 30
0.0
  0
LWPOLYLINE
  5
241
100
AcDbEntity
  8
0
 62
7
100
AcDbPolyline
 90
3
 70
0
 10
934.287930
 20
773.100480
 30
0.0
 10
934.202830
 20
773.100480
 30
0.0
 10
934.202830
 20
774.740170
 30
0.0
  0
LWPOLYLINE
  5
242
100
AcDbEntity
  8
0
 62
7
100
AcDbPolyline
 90
3
 70
0
 10
935.409400
 20
765.002590
 30
0.0
 10
941.070960
 20
765.002590
 30
0.0
 10
941.070980
 20
763.680010
 30
0.0
  0
SPLINE
  5
243
100
AcDbEntity
  8
0
 62
7
100
AcDbSpline
 70
8
 71
3
 72
8
 73
4
 74
0
 40
0
 40
0
 40
0
 40
0
 40
1
 40
1
 40
1
 40
1
 10
1088.736700
 20
899.601610
 30
0.0
 10
1088.296033
 20
900.104817
 30
0.0
 10
1087.952733
 20
900.729663
 30
0.0
 10
1087.706800
 20
901.476150
 30
0.0
  0
SPLINE
  5
244
100
AcDbEntity
  8
0
 62
7
100
AcDbSpline
 70
8
 71
3
 72
8
 73
4
 74
0
 40
0
 40
0
 40
0
 40
0
 40
1
 40
1
 40
1
 40
1
 10
1087.706800
 20
901.476150
 30
0.0
 10
1087.460867
 20
902.222637
 30
0.0
 10
1087.335600
 20
903.075403
 30
0.0
 10
1087.331000
 20
904.034450
 30
0.0
  0
SPLINE
  5
245
100
AcDbEntity
  8
0
 62
7
100
AcDbSpline
 70
8
 71
3
 72
8
 73
4
 74
0
 40
0
 40
0
 40
0
 40
0
 40
1
 40
1
 40
1
 40
1
 10
1087.331000
 20
904.034450
 30
0.0
 10
1087.324333
 20
904.967723
 30
0.0
 10
1087.438900
 20
905.811330
 30
0.0
 10
1087.674700
 20
906.565270
 30
0.0
  0
SPLINE
  5
246
100
AcDbEntity
  8
0
 62
7
100
AcDbSpline
 70
8
 71
3
 72
8
 73
4
 74
0
 40
0
 40
0
 40
0
 40
0
 40
1
 40
1
 40
1
 40
1
 10
1087.674700
 20
906.565270
 30
0.0
 10
1087.908300
 20
907.319210
 30
0.0
 10
1088.248167
 20
907.952487
 30
0.0
 10
1088.694300
 20
908.465100
 30
0.0
  0
SPLINE
  5
247
100
AcDbEntity
  8
0
 62
7
100
AcDbSpline
 70
8
 71
3
 72
8
 73
4
 74
0
 40
0
 40
0
 40
0
 40
0
 40
1
 40
1
 40
1
 40
1
 10
1088.694300
 20
908.465100
 30
0.0
 10
1089.160967
 20
909.003587
 30
0.0
 10
1089.708200
 20
909.403243
 30
0.0
 10
1090.336000
 20
909.664070
 30
0.0
  0
SPLINE
  5
248
100
AcDbEntity
  8
0
 62
7
100
AcDbSpline
 70
8
 71
3
 72
8
 73
4
 74
0
 40
0
 40
0
 40
0
 40
0
 40
1
 40
1
 40
1
 40
1
 10
1090.336000
 20
909.664070
 30
0.0
 10
1090.958667
 20
909.919710
 30
0.0
 10
1091.646400
 20
910.049333
 30
0.0
 10
1092.399200
 20
910.052940
 30
0.0
  0
SPLINE
  5
249
100
AcDbEntity
  8
0
 62
7
100
AcDbSpline
 70
8
 71
3
 72
8
 73
4
 74
0
 40
0
 40
0
 40
0
 40
0
 40
1
 40
1
 40
1
 40
1
 10
1092.399200
 20
910.052940
 30
0.0
 10
1093.177800
 20
910.056940
 30
0.0
 10
1093.879667
 20
909.928817
 30
0.0
 10
1094.504800
 20
909.668570
 30
0.0
  0
SPLINE
  5
24a
100
AcDbEntity
  8
0
 62
7
100
AcDbSpline
 70
8
 71
3
 72
8
 73
4
 74
0
 40
0
 40
0
 40
0
 40
0
 40
1
 40
1
 40
1
 40
1
 10
1094.504800
 20
909.668570
 30
0.0
 10
1095.130000
 20
909.408590
 30
0.0
 10
1095.668133
 20
909.019287
 30
0.0
 10
1096.119200
 20
908.500660
 30
0.0
  0
SPLINE
  5
24b
100
AcDbEntity
  8
0
 62
7
100
AcDbSpline
 70
8
 71
3
 72
8
 73
4
 74
0
 40
0
 40
0
 40
0
 40
0
 40
1
 40
1
 40
1
 40
1
 10
1096.119200
 20
908.500660
 30
0.0
 10
1096.565067
 20
907.992320
 30
0.0
 10
1096.908400
 20
907.364897
 30
0.0
 10
1097.149200
 20
906.618390
 30
0.0
  0
SPLINE
  5
24c
100
AcDbEntity
  8
0
 62
7
100
AcDbSpline
 70
8
 71
3
 72
8
 73
4
 74
0
 40
0
 40
0
 40
0
 40
0
 40
1
 40
1
 40
1
 40
1
 10
1097.149200
 20
906.618390
 30
0.0
 10
1097.389933
 20
905.871877
 30
0.0
 10
1097.512567
 20
905.026830
 30
0.0
 10
1097.517100
 20
904.083250
 30
0.0
  0
SPLINE
  5
24d
100
AcDbEntity
  8
0
 62
7
100
AcDbSpline
 70
8
 71
3
 72
8
 73
4
 74
0
 40
0
 40
0
 40
0
 40
0
 40
1
 40
1
 40
1
 40
1
 10
1097.517100
 20
904.083250
 30
0.0
 10
1097.523767
 20
903.113883
 30
0.0
 10
1097.409233
 20
902.262543
 30
0.0
 10
1097.173500
 20
901.529230
 30
0.0
  0
SPLINE
  5
24e
100
AcDbEntity
  8
0
 62
7
100
AcDbSpline
 70
8
 71
3
 72
8
 73
4
 74
0
 40
0
 40
0
 40
0
 40
0
 40
1
 40
1
 40
1
 40
1
 10
1097.173500
 20
901.529230
 30
0.0
 10
1096.934700
 20
900.795890
 30
0.0
 10
1096.594833
 20
900.165190
 30
0.0
 10
1096.153900
 20
899.637130
 30
0.0
  0
SPLINE
  5
24f
100
AcDbEntity
  8
0
 62
7
100
AcDbSpline
 70
8
 71
3
 72
8
 73
4
 74
0
 40
0
 40
0
 40
0
 40
0
 40
1
 40
1
 40
1
 40
1
 10
1096.153900
 20
899.637130
 30
0.0
 10
1095.712900
 20
899.124543
 30
0.0
 10
1095.181100
 20
898.735273
 30
0.0
 10
1094.558500
 20
898.469320
 30
0.0
  0
SPLINE
  5
250
100
AcDbEntity
  8
0
 62
7
100
AcDbSpline
 70
8
 71
3
 72
8
 73
4
 74
0
 40
0
 40
0
 40
0
 40
0
 40
1
 40
1
 40
1
 40
1
 10
1094.558500
 20
898.469320
 30
0.0
 10
1093.930700
 20
898.198187
 30
0.0
 10
1093.230100
 20
898.060767
 30
0.0
 10
1092.456700
 20
898.057060
 30
0.0
  0
SPLINE
  5
251
100
AcDbEntity
  8
0
 62
7
100
AcDbSpline
 70
8
 71
3
 72
8
 73
4
 74
0
 40
0
 40
0
 40
0
 40
0
 40
1
 40
1
 40
1
 40
1
 10
1092.456700
 20
898.057060
 30
0.0
 10
1091.672967
 20
898.053060
 30
0.0
 10
1090.965900
 20
898.186317
 30
0.0
 10
1090.335500
 20
898.456830
 30
0.0
  0
SPLINE
  5
252
100
AcDbEntity
  8
0
 62
7
100
AcDbSpline
 70
8
 71
3
 72
8
 73
4
 74
0
 40
0
 40
0
 40
0
 40
0
 40
1
 40
1
 40
1
 40
1
 10
1090.335500
 20
898.456830
 30
0.0
 10
1089.705167
 20
898.727097
 30
0.0
 10
1089.172233
 20
899.108690
 30
0.0
 10
1088.736700
 20
899.601610
 30
0.0
  0
LWPOLYLINE
  5
253
100
AcDbEntity
  8
0
 62
7
100
AcDbPolyline
 90
7
 70
1
 10
951.273290
 20
775.196490
 30
0.0
 10
947.313290
 20
763.680010
 30
0.0
 10
945.658130
 20
763.680010
 30
0.0
 10
941.698140
 20
775.196490
 30
0.0
 10
943.337820
 20
775.196490
 30
0.0
 10
946.524380
 20
765.636810
 30
0.0
 10
949.710950
 20
775.196490
 30
0.0
  0
SPLINE
  5
254
100
AcDbEntity
  8
0
 62
7
100
AcDbSpline
 70
8
 71
3
 72
8
 73
4
 74
0
 40
0
 40
0
 40
0
 40
0
 40
1
 40
1
 40
1
 40
1
 10
1088.924300
 20
904.042090
 30
0.0
 10
1088.930967
 20
903.278970
 30
0.0
 10
1089.016700
 20
902.603903
 30
0.0
 10
1089.181500
 20
902.016890
 30
0.0
  0
SPLINE
  5
255
100
AcDbEntity
  8
0
 62
7
100
AcDbSpline
 70
8
 71
3
 72
8
 73
4
 74
0
 40
0
 40
0
 40
0
 40
0
 40
1
 40
1
 40
1
 40
1
 10
1089.181500
 20
902.016890
 30
0.0
 10
1089.349300
 20
901.429877
 30
0.0
 10
1089.583667
 20
900.943727
 30
0.0
 10
1089.884600
 20
900.558440
 30
0.0
  0
SPLINE
  5
256
100
AcDbEntity
  8
0
 62
7
100
AcDbSpline
 70
8
 71
3
 72
8
 73
4
 74
0
 40
0
 40
0
 40
0
 40
0
 40
1
 40
1
 40
1
 40
1
 10
1089.884600
 20
900.558440
 30
0.0
 10
1090.190733
 20
900.162873
 30
0.0
 10
1090.560833
 20
899.868160
 30
0.0
 10
1090.994900
 20
899.674300
 30
0.0
  0
SPLINE
  5
257
100
AcDbEntity
  8
0
 62
7
100
AcDbSpline
 70
8
 71
3
 72
8
 73
4
 74
0
 40
0
 40
0
 40
0
 40
0
 40
1
 40
1
 40
1
 40
1
 10
1090.994900
 20
899.674300
 30
0.0
 10
1091.423833
 20
899.475260
 30
0.0
 10
1091.906400
 20
899.377023
 30
0.0
 10
1092.442600
 20
899.379590
 30
0.0
  0
SPLINE
  5
258
100
AcDbEntity
  8
0
 62
7
100
AcDbSpline
 70
8
 71
3
 72
8
 73
4
 74
0
 40
0
 40
0
 40
0
 40
0
 40
1
 40
1
 40
1
 40
1
 10
1092.442600
 20
899.379590
 30
0.0
 10
1092.999467
 20
899.382257
 30
0.0
 10
1093.486267
 20
899.482557
 30
0.0
 10
1093.903000
 20
899.680490
 30
0.0
  0
SPLINE
  5
259
100
AcDbEntity
  8
0
 62
7
100
AcDbSpline
 70
8
 71
3
 72
8
 73
4
 74
0
 40
0
 40
0
 40
0
 40
0
 40
1
 40
1
 40
1
 40
1
 10
1093.903000
 20
899.680490
 30
0.0
 10
1094.314600
 20
899.873250
 30
0.0
 10
1094.679267
 20
900.174063
 30
0.0
 10
1094.997000
 20
900.582930
 30
0.0
  0
SPLINE
  5
25a
100
AcDbEntity
  8
0
 62
7
100
AcDbSpline
 70
8
 71
3
 72
8
 73
4
 74
0
 40
0
 40
0
 40
0
 40
0
 40
1
 40
1
 40
1
 40
1
 10
1094.997000
 20
900.582930
 30
0.0
 10
1095.299333
 20
900.976257
 30
0.0
 10
1095.531567
 20
901.469797
 30
0.0
 10
1095.693700
 20
902.063550
 30
0.0
  0
SPLINE
  5
25b
100
AcDbEntity
  8
0
 62
7
100
AcDbSpline
 70
8
 71
3
 72
8
 73
4
 74
0
 40
0
 40
0
 40
0
 40
0
 40
1
 40
1
 40
1
 40
1
 10
1095.693700
 20
902.063550
 30
0.0
 10
1095.850700
 20
902.657277
 30
0.0
 10
1095.927400
 20
903.327963
 30
0.0
 10
1095.923800
 20
904.075610
 30
0.0
  0
SPLINE
  5
25c
100
AcDbEntity
  8
0
 62
7
100
AcDbSpline
 70
8
 71
3
 72
8
 73
4
 74
0
 40
0
 40
0
 40
0
 40
0
 40
1
 40
1
 40
1
 40
1
 10
1095.923800
 20
904.075610
 30
0.0
 10
1095.916467
 20
905.586377
 30
0.0
 10
1095.593833
 20
906.742423
 30
0.0
 10
1094.955900
 20
907.543750
 30
0.0
  0
SPLINE
  5
25d
100
AcDbEntity
  8
0
 62
7
100
AcDbSpline
 70
8
 71
3
 72
8
 73
4
 74
0
 40
0
 40
0
 40
0
 40
0
 40
1
 40
1
 40
1
 40
1
 10
1094.955900
 20
907.543750
 30
0.0
 10
1094.317833
 20
908.339923
 30
0.0
 10
1093.465133
 20
908.735453
 30
0.0
 10
1092.397800
 20
908.730340
 30
0.0
  0
SPLINE
  5
25e
100
AcDbEntity
  8
0
 62
7
100
AcDbSpline
 70
8
 71
3
 72
8
 73
4
 74
0
 40
0
 40
0
 40
0
 40
0
 40
1
 40
1
 40
1
 40
1
 10
1092.397800
 20
908.730340
 30
0.0
 10
1091.330467
 20
908.725007
 30
0.0
 10
1090.484200
 20
908.321340
 30
0.0
 10
1089.859000
 20
907.519340
 30
0.0
  0
SPLINE
  5
25f
100
AcDbEntity
  8
0
 62
7
100
AcDbSpline
 70
8
 71
3
 72
8
 73
4
 74
0
 40
0
 40
0
 40
0
 40
0
 40
1
 40
1
 40
1
 40
1
 10
1089.859000
 20
907.519340
 30
0.0
 10
1089.228667
 20
906.711933
 30
0.0
 10
1088.917100
 20
905.552850
 30
0.0
 10
1088.924300
 20
904.042090
 30
0.0
  0
LWPOLYLINE
  5
260
100
AcDbEntity
  8
0
 62
7
100
AcDbPolyline
 90
1
 70
1
 10
1088.736700
 20
899.601610
 30
0.0
  0
LWPOLYLINE
  5
261
100
AcDbEntity
  8
0
 62
7
100
AcDbPolyline
 90
1
 70
1
 10
1088.924300
 20
904.042090
 30
0.0
  0
SPLINE
  5
262
100
AcDbEntity
  8
0
 62
7
100
AcDbSpline
 70
8
 71
3
 72
8
 73
4
 74
0
 40
0
 40
0
 40
0
 40
0
 40
1
 40
1
 40
1
 40
1
 10
953.616710
 20
899.601610
 30
0.0
 10
953.176010
 20
900.104817
 30
0.0
 10
952.832700
 20
900.729663
 30
0.0
 10
952.586780
 20
901.476150
 30
0.0
  0
SPLINE
  5
263
100
AcDbEntity
  8
0
 62
7
100
AcDbSpline
 70
8
 71
3
 72
8
 73
4
 74
0
 40
0
 40
0
 40
0
 40
0
 40
1
 40
1
 40
1
 40
1
 10
952.586780
 20
901.476150
 30
0.0
 10
952.340860
 20
902.222637
 30
0.0
 10
952.215603
 20
903.075403
 30
0.0
 10
952.211010
 20
904.034450
 30
0.0
  0
SPLINE
  5
264
100
AcDbEntity
  8
0
 62
7
100
AcDbSpline
 70
8
 71
3
 72
8
 73
4
 74
0
 40
0
 40
0
 40
0
 40
0
 40
1
 40
1
 40
1
 40
1
 10
952.211010
 20
904.034450
 30
0.0
 10
952.206343
 20
904.967723
 30
0.0
 10
952.320897
 20
905.811330
 30
0.0
 10
952.554670
 20
906.565270
 30
0.0
  0
SPLINE
  5
265
100
AcDbEntity
  8
0
 62
7
100
AcDbSpline
 70
8
 71
3
 72
8
 73
4
 74
0
 40
0
 40
0
 40
0
 40
0
 40
1
 40
1
 40
1
 40
1
 10
952.554670
 20
906.565270
 30
0.0
 10
952.788250
 20
907.319210
 30
0.0
 10
953.128110
 20
907.952487
 30
0.0
 10
953.574250
 20
908.465100
 30
0.0
  0
SPLINE
  5
266
100
AcDbEntity
  8
0
 62
7
100
AcDbSpline
 70
8
 71
3
 72
8
 73
4
 74
0
 40
0
 40
0
 40
0
 40
0
 40
1
 40
1
 40
1
 40
1
 10
953.574250
 20
908.465100
 30
0.0
 10
954.040897
 20
909.003587
 30
0.0
 10
954.588130
 20
909.403243
 30
0.0
 10
955.215950
 20
909.664070
 30
0.0
  0
SPLINE
  5
267
100
AcDbEntity
  8
0
 62
7
100
AcDbSpline
 70
8
 71
3
 72
8
 73
4
 74
0
 40
0
 40
0
 40
0
 40
0
 40
1
 40
1
 40
1
 40
1
 10
955.215950
 20
909.664070
 30
0.0
 10
955.838637
 20
909.919710
 30
0.0
 10
956.526383
 20
910.049333
 30
0.0
 10
957.279190
 20
910.052940
 30
0.0
  0
SPLINE
  5
268
100
AcDbEntity
  8
0
 62
7
100
AcDbSpline
 70
8
 71
3
 72
8
 73
4
 74
0
 40
0
 40
0
 40
0
 40
0
 40
1
 40
1
 40
1
 40
1
 10
957.279190
 20
910.052940
 30
0.0
 10
958.057777
 20
910.056940
 30
0.0
 10
958.759647
 20
909.928817
 30
0.0
 10
959.384800
 20
909.668570
 30
0.0
  0
SPLINE
  5
269
100
AcDbEntity
  8
0
 62
7
100
AcDbSpline
 70
8
 71
3
 72
8
 73
4
 74
0
 40
0
 40
0
 40
0
 40
0
 40
1
 40
1
 40
1
 40
1
 10
959.384800
 20
909.668570
 30
0.0
 10
960.009960
 20
909.408590
 30
0.0
 10
960.548083
 20
909.019287
 30
0.0
 10
960.999170
 20
908.500660
 30
0.0
  0
SPLINE
  5
26a
100
AcDbEntity
  8
0
 62
7
100
AcDbSpline
 70
8
 71
3
 72
8
 73
4
 74
0
 40
0
 40
0
 40
0
 40
0
 40
1
 40
1
 40
1
 40
1
 10
960.999170
 20
908.500660
 30
0.0
 10
961.445043
 20
907.992320
 30
0.0
 10
961.788363
 20
907.364897
 30
0.0
 10
962.029130
 20
906.618390
 30
0.0
  0
SPLINE
  5
26b
100
AcDbEntity
  8
0
 62
7
100
AcDbSpline
 70
8
 71
3
 72
8
 73
4
 74
0
 40
0
 40
0
 40
0
 40
0
 40
1
 40
1
 40
1
 40
1
 10
962.029130
 20
906.618390
 30
0.0
 10
962.269897
 20
905.871877
 30
0.0
 10
962.392540
 20
905.026830
 30
0.0
 10
962.397060
 20
904.083250
 30
0.0
  0
SPLINE
  5
26c
100
AcDbEntity
  8
0
 62
7
100
AcDbSpline
 70
8
 71
3
 72
8
 73
4
 74
0
 40
0
 40
0
 40
0
 40
0
 40
1
 40
1
 40
1
 40
1
 10
962.397060
 20
904.083250
 30
0.0
 10
962.401727
 20
903.113883
 30
0.0
 10
962.287210
 20
902.262543
 30
0.0
 10
962.053510
 20
901.529230
 30
0.0
  0
SPLINE
  5
26d
100
AcDbEntity
  8
0
 62
7
100
AcDbSpline
 70
8
 71
3
 72
8
 73
4
 74
0
 40
0
 40
0
 40
0
 40
0
 40
1
 40
1
 40
1
 40
1
 10
962.053510
 20
901.529230
 30
0.0
 10
961.814677
 20
900.795890
 30
0.0
 10
961.474803
 20
900.165190
 30
0.0
 10
961.033890
 20
899.637130
 30
0.0
  0
SPLINE
  5
26e
100
AcDbEntity
  8
0
 62
7
100
AcDbSpline
 70
8
 71
3
 72
8
 73
4
 74
0
 40
0
 40
0
 40
0
 40
0
 40
1
 40
1
 40
1
 40
1
 10
961.033890
 20
899.637130
 30
0.0
 10
960.592903
 20
899.124543
 30
0.0
 10
960.061090
 20
898.735273
 30
0.0
 10
959.438450
 20
898.469320
 30
0.0
  0
SPLINE
  5
26f
100
AcDbEntity
  8
0
 62
7
100
AcDbSpline
 70
8
 71
3
 72
8
 73
4
 74
0
 40
0
 40
0
 40
0
 40
0
 40
1
 40
1
 40
1
 40
1
 10
959.438450
 20
898.469320
 30
0.0
 10
958.810677
 20
898.198187
 30
0.0
 10
958.110077
 20
898.060767
 30
0.0
 10
957.336650
 20
898.057060
 30
0.0
  0
SPLINE
  5
270
100
AcDbEntity
  8
0
 62
7
100
AcDbSpline
 70
8
 71
3
 72
8
 73
4
 74
0
 40
0
 40
0
 40
0
 40
0
 40
1
 40
1
 40
1
 40
1
 10
957.336650
 20
898.057060
 30
0.0
 10
956.552910
 20
898.053060
 30
0.0
 10
955.845857
 20
898.186317
 30
0.0
 10
955.215490
 20
898.456830
 30
0.0
  0
SPLINE
  5
271
100
AcDbEntity
  8
0
 62
7
100
AcDbSpline
 70
8
 71
3
 72
8
 73
4
 74
0
 40
0
 40
0
 40
0
 40
0
 40
1
 40
1
 40
1
 40
1
 10
955.215490
 20
898.456830
 30
0.0
 10
954.585123
 20
898.727097
 30
0.0
 10
954.052197
 20
899.108690
 30
0.0
 10
953.616710
 20
899.601610
 30
0.0
  0
LWPOLYLINE
  5
272
100
AcDbEntity
  8
0
 62
7
100
AcDbPolyline
 90
10
 70
1
 10
1077.555100
 20
909.794950
 30
0.0
 10
1079.272100
 20
909.802950
 30
0.0
 10
1084.408800
 20
899.896510
 30
0.0
 10
1084.361800
 20
909.827330
 30
0.0
 10
1085.792600
 20
909.834330
 30
0.0
 10
1085.847600
 20
898.317970
 30
0.0
 10
1083.674300
 20
898.307570
 30
0.0
 10
1078.997700
 20
907.404110
 30
0.0
 10
1079.041700
 20
898.285380
 30
0.0
 10
1077.610900
 20
898.278380
 30
0.0
  0
SPLINE
  5
273
100
AcDbEntity
  8
0
 62
7
100
AcDbSpline
 70
8
 71
3
 72
8
 73
4
 74
0
 40
0
 40
0
 40
0
 40
0
 40
1
 40
1
 40
1
 40
1
 10
953.804270
 20
904.042090
 30
0.0
 10
953.807603
 20
903.278970
 30
0.0
 10
953.893337
 20
902.603903
 30
0.0
 10
954.061470
 20
902.016890
 30
0.0
  0
SPLINE
  5
274
100
AcDbEntity
  8
0
 62
7
100
AcDbSpline
 70
8
 71
3
 72
8
 73
4
 74
0
 40
0
 40
0
 40
0
 40
0
 40
1
 40
1
 40
1
 40
1
 10
954.061470
 20
902.016890
 30
0.0
 10
954.229283
 20
901.429877
 30
0.0
 10
954.463647
 20
900.943727
 30
0.0
 10
954.764560
 20
900.558440
 30
0.0
  0
SPLINE
  5
275
100
AcDbEntity
  8
0
 62
7
100
AcDbSpline
 70
8
 71
3
 72
8
 73
4
 74
0
 40
0
 40
0
 40
0
 40
0
 40
1
 40
1
 40
1
 40
1
 10
954.764560
 20
900.558440
 30
0.0
 10
955.070680
 20
900.162873
 30
0.0
 10
955.440767
 20
899.868160
 30
0.0
 10
955.874820
 20
899.674300
 30
0.0
  0
SPLINE
  5
276
100
AcDbEntity
  8
0
 62
7
100
AcDbSpline
 70
8
 71
3
 72
8
 73
4
 74
0
 40
0
 40
0
 40
0
 40
0
 40
1
 40
1
 40
1
 40
1
 10
955.874820
 20
899.674300
 30
0.0
 10
956.303747
 20
899.475260
 30
0.0
 10
956.786333
 20
899.377023
 30
0.0
 10
957.322580
 20
899.379590
 30
0.0
  0
SPLINE
  5
277
100
AcDbEntity
  8
0
 62
7
100
AcDbSpline
 70
8
 71
3
 72
8
 73
4
 74
0
 40
0
 40
0
 40
0
 40
0
 40
1
 40
1
 40
1
 40
1
 10
957.322580
 20
899.379590
 30
0.0
 10
957.879447
 20
899.382257
 30
0.0
 10
958.366237
 20
899.482557
 30
0.0
 10
958.782950
 20
899.680490
 30
0.0
  0
SPLINE
  5
278
100
AcDbEntity
  8
0
 62
7
100
AcDbSpline
 70
8
 71
3
 72
8
 73
4
 74
0
 40
0
 40
0
 40
0
 40
0
 40
1
 40
1
 40
1
 40
1
 10
958.782950
 20
899.680490
 30
0.0
 10
959.194530
 20
899.873250
 30
0.0
 10
959.559187
 20
900.174063
 30
0.0
 10
959.876920
 20
900.582930
 30
0.0
  0
SPLINE
  5
279
100
AcDbEntity
  8
0
 62
7
100
AcDbSpline
 70
8
 71
3
 72
8
 73
4
 74
0
 40
0
 40
0
 40
0
 40
0
 40
1
 40
1
 40
1
 40
1
 10
959.876920
 20
900.582930
 30
0.0
 10
960.179260
 20
900.976257
 30
0.0
 10
960.411510
 20
901.469797
 30
0.0
 10
960.573670
 20
902.063550
 30
0.0
  0
SPLINE
  5
27a
100
AcDbEntity
  8
0
 62
7
100
AcDbSpline
 70
8
 71
3
 72
8
 73
4
 74
0
 40
0
 40
0
 40
0
 40
0
 40
1
 40
1
 40
1
 40
1
 10
960.573670
 20
902.063550
 30
0.0
 10
960.730670
 20
902.657277
 30
0.0
 10
960.807380
 20
903.327963
 30
0.0
 10
960.803800
 20
904.075610
 30
0.0
  0
SPLINE
  5
27b
100
AcDbEntity
  8
0
 62
7
100
AcDbSpline
 70
8
 71
3
 72
8
 73
4
 74
0
 40
0
 40
0
 40
0
 40
0
 40
1
 40
1
 40
1
 40
1
 10
960.803800
 20
904.075610
 30
0.0
 10
960.796533
 20
905.586377
 30
0.0
 10
960.473883
 20
906.742423
 30
0.0
 10
959.835850
 20
907.543750
 30
0.0
  0
SPLINE
  5
27c
100
AcDbEntity
  8
0
 62
7
100
AcDbSpline
 70
8
 71
3
 72
8
 73
4
 74
0
 40
0
 40
0
 40
0
 40
0
 40
1
 40
1
 40
1
 40
1
 10
959.835850
 20
907.543750
 30
0.0
 10
959.197810
 20
908.339923
 30
0.0
 10
958.345123
 20
908.735453
 30
0.0
 10
957.277790
 20
908.730340
 30
0.0
  0
SPLINE
  5
27d
100
AcDbEntity
  8
0
 62
7
100
AcDbSpline
 70
8
 71
3
 72
8
 73
4
 74
0
 40
0
 40
0
 40
0
 40
0
 40
1
 40
1
 40
1
 40
1
 10
957.277790
 20
908.730340
 30
0.0
 10
956.210457
 20
908.725007
 30
0.0
 10
955.364177
 20
908.321340
 30
0.0
 10
954.738950
 20
907.519340
 30
0.0
  0
SPLINE
  5
27e
100
AcDbEntity
  8
0
 62
7
100
AcDbSpline
 70
8
 71
3
 72
8
 73
4
 74
0
 40
0
 40
0
 40
0
 40
0
 40
1
 40
1
 40
1
 40
1
 10
954.738950
 20
907.519340
 30
0.0
 10
954.108590
 20
906.711933
 30
0.0
 10
953.797030
 20
905.552850
 30
0.0
 10
953.804270
 20
904.042090
 30
0.0
  0
LWPOLYLINE
  5
27f
100
AcDbEntity
  8
0
 62
7
100
AcDbPolyline
 90
1
 70
1
 10
953.616710
 20
899.601610
 30
0.0
  0
LWPOLYLINE
  5
280
100
AcDbEntity
  8
0
 62
7
100
AcDbPolyline
 90
1
 70
1
 10
953.804270
 20
904.042090
 30
0.0
  0
LWPOLYLINE
  5
281
100
AcDbEntity
  8
0
 62
7
100
AcDbPolyline
 90
10
 70
1
 10
943.589530
 20
899.646280
 30
0.0
 10
948.949390
 20
899.671980
 30
0.0
 10
948.933790
 20
902.920380
 30
0.0
 10
943.798220
 20
902.895780
 30
0.0
 10
943.791220
 20
904.257020
 30
0.0
 10
948.926790
 20
904.281620
 30
0.0
 10
948.900190
 20
909.827100
 30
0.0
 10
950.431580
 20
909.834100
 30
0.0
 10
950.486780
 20
898.317740
 30
0.0
 10
943.595530
 20
898.284740
 30
0.0
  0
LWPOLYLINE
  5
282
100
AcDbEntity
  8
0
 62
7
100
AcDbPolyline
 90
10
 70
1
 10
935.189550
 20
899.646280
 30
0.0
 10
940.549410
 20
899.671980
 30
0.0
 10
940.533810
 20
902.920380
 30
0.0
 10
935.398240
 20
902.895780
 30
0.0
 10
935.391240
 20
904.257020
 30
0.0
 10
940.526810
 20
904.281620
 30
0.0
 10
940.500210
 20
909.827100
 30
0.0
 10
942.031600
 20
909.834100
 30
0.0
 10
942.086800
 20
898.317740
 30
0.0
 10
935.195550
 20
898.284740
 30
0.0
  0
ENDSEC
  0
SECTION
  2
OBJECTS
  0
DICTIONARY
  5
C
330
0
100
AcDbDictionary
  3
ACAD_GROUP
350
D
  3
ACAD_MLINESTYLE
350
17
  0
DICTIONARY
  5
D
330
C
100
AcDbDictionary
  0
DICTIONARY
  5
1A
330
C
100
AcDbDictionary
  0
DICTIONARY
  5
17
330
C
100
AcDbDictionary
  3
STANDARD
350
18
  0
DICTIONARY
  5
19
330
C
100
AcDbDictionary
  0
ENDSEC
  0
EOF
