ISO-10303-21;
HEADER;
FILE_DESCRIPTION(('FreeCAD Model'),'2;1');
FILE_NAME('Open CASCADE Shape Model','2026-06-25T19:17:58',(''),(''),
  'Open CASCADE STEP processor 7.9','FreeCAD','Unknown');
FILE_SCHEMA(('AUTOMOTIVE_DESIGN { 1 0 10303 214 1 1 1 1 }'));
ENDSEC;
DATA;
#1 = APPLICATION_PROTOCOL_DEFINITION('international standard',
  'automotive_design',2000,#2);
#2 = APPLICATION_CONTEXT(
  'core data for automotive mechanical design processes');
#3 = SHAPE_DEFINITION_REPRESENTATION(#4,#10);
#4 = PRODUCT_DEFINITION_SHAPE('','',#5);
#5 = PRODUCT_DEFINITION('design','',#6,#9);
#6 = PRODUCT_DEFINITION_FORMATION('','',#7);
#7 = PRODUCT('Bottom','Bottom','',(#8));
#8 = PRODUCT_CONTEXT('',#2,'mechanical');
#9 = PRODUCT_DEFINITION_CONTEXT('part definition',#2,'design');
#10 = ADVANCED_BREP_SHAPE_REPRESENTATION('',(#11,#15),#997);
#11 = AXIS2_PLACEMENT_3D('',#12,#13,#14);
#12 = CARTESIAN_POINT('',(0.,0.,0.));
#13 = DIRECTION('',(0.,0.,1.));
#14 = DIRECTION('',(1.,0.,-0.));
#15 = MANIFOLD_SOLID_BREP('',#16);
#16 = CLOSED_SHELL('',(#17,#170,#201,#226,#251,#275,#299,#324,#349,#366,
    #392,#418,#443,#469,#494,#519,#545,#638,#663,#688,#708,#733,#753,
    #773,#798,#823,#848,#865,#890,#907,#924,#949,#961,#973,#985));
#17 = ADVANCED_FACE('',(#18,#88,#99,#110,#121,#132,#143,#154),#165,.T.);
#18 = FACE_BOUND('',#19,.T.);
#19 = EDGE_LOOP('',(#20,#30,#39,#47,#56,#64,#73,#81));
#20 = ORIENTED_EDGE('',*,*,#21,.T.);
#21 = EDGE_CURVE('',#22,#24,#26,.T.);
#22 = VERTEX_POINT('',#23);
#23 = CARTESIAN_POINT('',(-40.,19.499999998067,0.));
#24 = VERTEX_POINT('',#25);
#25 = CARTESIAN_POINT('',(-40.,-19.49999999659,0.));
#26 = LINE('',#27,#28);
#27 = CARTESIAN_POINT('',(-40.,19.499999998067,0.));
#28 = VECTOR('',#29,1.);
#29 = DIRECTION('',(0.,-1.,0.));
#30 = ORIENTED_EDGE('',*,*,#31,.T.);
#31 = EDGE_CURVE('',#24,#32,#34,.T.);
#32 = VERTEX_POINT('',#33);
#33 = CARTESIAN_POINT('',(-39.49999999659,-19.99999999999,0.));
#34 = CIRCLE('',#35,0.500000003404);
#35 = AXIS2_PLACEMENT_3D('',#36,#37,#38);
#36 = CARTESIAN_POINT('',(-39.49999999659,-19.49999999659,0.));
#37 = DIRECTION('',(0.,0.,1.));
#38 = DIRECTION('',(1.,0.,0.));
#39 = ORIENTED_EDGE('',*,*,#40,.T.);
#40 = EDGE_CURVE('',#32,#41,#43,.T.);
#41 = VERTEX_POINT('',#42);
#42 = CARTESIAN_POINT('',(39.499999996596,-19.99999999999,0.));
#43 = LINE('',#44,#45);
#44 = CARTESIAN_POINT('',(-39.49999999659,-19.99999999999,0.));
#45 = VECTOR('',#46,1.);
#46 = DIRECTION('',(1.,0.,0.));
#47 = ORIENTED_EDGE('',*,*,#48,.T.);
#48 = EDGE_CURVE('',#41,#49,#51,.T.);
#49 = VERTEX_POINT('',#50);
#50 = CARTESIAN_POINT('',(40.,-19.49999999659,0.));
#51 = CIRCLE('',#52,0.500000003404);
#52 = AXIS2_PLACEMENT_3D('',#53,#54,#55);
#53 = CARTESIAN_POINT('',(39.499999996596,-19.49999999659,0.));
#54 = DIRECTION('',(0.,0.,1.));
#55 = DIRECTION('',(1.,0.,0.));
#56 = ORIENTED_EDGE('',*,*,#57,.T.);
#57 = EDGE_CURVE('',#49,#58,#60,.T.);
#58 = VERTEX_POINT('',#59);
#59 = CARTESIAN_POINT('',(40.,19.499999999997,0.));
#60 = LINE('',#61,#62);
#61 = CARTESIAN_POINT('',(40.,-19.49999999659,0.));
#62 = VECTOR('',#63,1.);
#63 = DIRECTION('',(0.,1.,0.));
#64 = ORIENTED_EDGE('',*,*,#65,.T.);
#65 = EDGE_CURVE('',#58,#66,#68,.T.);
#66 = VERTEX_POINT('',#67);
#67 = CARTESIAN_POINT('',(39.499999999999,19.999999999999,0.));
#68 = CIRCLE('',#69,0.500000000001);
#69 = AXIS2_PLACEMENT_3D('',#70,#71,#72);
#70 = CARTESIAN_POINT('',(39.499999999999,19.499999999998,0.));
#71 = DIRECTION('',(0.,0.,1.));
#72 = DIRECTION('',(1.,0.,0.));
#73 = ORIENTED_EDGE('',*,*,#74,.T.);
#74 = EDGE_CURVE('',#66,#75,#77,.T.);
#75 = VERTEX_POINT('',#76);
#76 = CARTESIAN_POINT('',(-39.49999999806,20.,0.));
#77 = LINE('',#78,#79);
#78 = CARTESIAN_POINT('',(39.499999999999,19.999999999999,0.));
#79 = VECTOR('',#80,1.);
#80 = DIRECTION('',(-1.,0.,0.));
#81 = ORIENTED_EDGE('',*,*,#82,.T.);
#82 = EDGE_CURVE('',#75,#22,#83,.T.);
#83 = CIRCLE('',#84,0.500000001934);
#84 = AXIS2_PLACEMENT_3D('',#85,#86,#87);
#85 = CARTESIAN_POINT('',(-39.49999999806,19.499999998067,0.));
#86 = DIRECTION('',(0.,0.,1.));
#87 = DIRECTION('',(1.,0.,0.));
#88 = FACE_BOUND('',#89,.T.);
#89 = EDGE_LOOP('',(#90));
#90 = ORIENTED_EDGE('',*,*,#91,.F.);
#91 = EDGE_CURVE('',#92,#92,#94,.T.);
#92 = VERTEX_POINT('',#93);
#93 = CARTESIAN_POINT('',(-19.28,-15.88,0.));
#94 = CIRCLE('',#95,3.4);
#95 = AXIS2_PLACEMENT_3D('',#96,#97,#98);
#96 = CARTESIAN_POINT('',(-15.88,-15.88,0.));
#97 = DIRECTION('',(0.,0.,1.));
#98 = DIRECTION('',(-1.,0.,0.));
#99 = FACE_BOUND('',#100,.T.);
#100 = EDGE_LOOP('',(#101));
#101 = ORIENTED_EDGE('',*,*,#102,.F.);
#102 = EDGE_CURVE('',#103,#103,#105,.T.);
#103 = VERTEX_POINT('',#104);
#104 = CARTESIAN_POINT('',(15.88,-19.28,0.));
#105 = CIRCLE('',#106,3.4);
#106 = AXIS2_PLACEMENT_3D('',#107,#108,#109);
#107 = CARTESIAN_POINT('',(15.88,-15.88,0.));
#108 = DIRECTION('',(-0.,0.,1.));
#109 = DIRECTION('',(0.,-1.,0.));
#110 = FACE_BOUND('',#111,.T.);
#111 = EDGE_LOOP('',(#112));
#112 = ORIENTED_EDGE('',*,*,#113,.F.);
#113 = EDGE_CURVE('',#114,#114,#116,.T.);
#114 = VERTEX_POINT('',#115);
#115 = CARTESIAN_POINT('',(-28.95,0.,0.));
#116 = CIRCLE('',#117,3.55);
#117 = AXIS2_PLACEMENT_3D('',#118,#119,#120);
#118 = CARTESIAN_POINT('',(-25.4,0.,0.));
#119 = DIRECTION('',(0.,-0.,1.));
#120 = DIRECTION('',(-1.,0.,0.));
#121 = FACE_BOUND('',#122,.T.);
#122 = EDGE_LOOP('',(#123));
#123 = ORIENTED_EDGE('',*,*,#124,.F.);
#124 = EDGE_CURVE('',#125,#125,#127,.T.);
#125 = VERTEX_POINT('',#126);
#126 = CARTESIAN_POINT('',(-15.88,19.28,0.));
#127 = CIRCLE('',#128,3.4);
#128 = AXIS2_PLACEMENT_3D('',#129,#130,#131);
#129 = CARTESIAN_POINT('',(-15.88,15.88,0.));
#130 = DIRECTION('',(0.,-0.,1.));
#131 = DIRECTION('',(0.,1.,0.));
#132 = FACE_BOUND('',#133,.T.);
#133 = EDGE_LOOP('',(#134));
#134 = ORIENTED_EDGE('',*,*,#135,.F.);
#135 = EDGE_CURVE('',#136,#136,#138,.T.);
#136 = VERTEX_POINT('',#137);
#137 = CARTESIAN_POINT('',(-3.55,0.,0.));
#138 = CIRCLE('',#139,3.55);
#139 = AXIS2_PLACEMENT_3D('',#140,#141,#142);
#140 = CARTESIAN_POINT('',(0.,0.,0.));
#141 = DIRECTION('',(0.,0.,1.));
#142 = DIRECTION('',(-1.,0.,0.));
#143 = FACE_BOUND('',#144,.T.);
#144 = EDGE_LOOP('',(#145));
#145 = ORIENTED_EDGE('',*,*,#146,.F.);
#146 = EDGE_CURVE('',#147,#147,#149,.T.);
#147 = VERTEX_POINT('',#148);
#148 = CARTESIAN_POINT('',(21.85,0.,0.));
#149 = CIRCLE('',#150,3.55);
#150 = AXIS2_PLACEMENT_3D('',#151,#152,#153);
#151 = CARTESIAN_POINT('',(25.4,0.,0.));
#152 = DIRECTION('',(0.,0.,1.));
#153 = DIRECTION('',(-1.,0.,0.));
#154 = FACE_BOUND('',#155,.T.);
#155 = EDGE_LOOP('',(#156));
#156 = ORIENTED_EDGE('',*,*,#157,.F.);
#157 = EDGE_CURVE('',#158,#158,#160,.T.);
#158 = VERTEX_POINT('',#159);
#159 = CARTESIAN_POINT('',(19.28,15.88,0.));
#160 = CIRCLE('',#161,3.4);
#161 = AXIS2_PLACEMENT_3D('',#162,#163,#164);
#162 = CARTESIAN_POINT('',(15.88,15.88,0.));
#163 = DIRECTION('',(0.,0.,1.));
#164 = DIRECTION('',(1.,0.,0.));
#165 = PLANE('',#166);
#166 = AXIS2_PLACEMENT_3D('',#167,#168,#169);
#167 = CARTESIAN_POINT('',(1.44896250359E-10,1.838017496134E-10,0.));
#168 = DIRECTION('',(0.,0.,1.));
#169 = DIRECTION('',(1.,0.,0.));
#170 = ADVANCED_FACE('',(#171),#196,.T.);
#171 = FACE_BOUND('',#172,.T.);
#172 = EDGE_LOOP('',(#173,#181,#189,#195));
#173 = ORIENTED_EDGE('',*,*,#174,.T.);
#174 = EDGE_CURVE('',#22,#175,#177,.T.);
#175 = VERTEX_POINT('',#176);
#176 = CARTESIAN_POINT('',(-40.,19.499999998067,-12.7));
#177 = LINE('',#178,#179);
#178 = CARTESIAN_POINT('',(-40.,19.499999998067,0.));
#179 = VECTOR('',#180,1.);
#180 = DIRECTION('',(-0.,-0.,-1.));
#181 = ORIENTED_EDGE('',*,*,#182,.T.);
#182 = EDGE_CURVE('',#175,#183,#185,.T.);
#183 = VERTEX_POINT('',#184);
#184 = CARTESIAN_POINT('',(-40.,-19.49999999659,-12.7));
#185 = LINE('',#186,#187);
#186 = CARTESIAN_POINT('',(-40.,19.499999998067,-12.7));
#187 = VECTOR('',#188,1.);
#188 = DIRECTION('',(0.,-1.,0.));
#189 = ORIENTED_EDGE('',*,*,#190,.F.);
#190 = EDGE_CURVE('',#24,#183,#191,.T.);
#191 = LINE('',#192,#193);
#192 = CARTESIAN_POINT('',(-40.,-19.49999999659,0.));
#193 = VECTOR('',#194,1.);
#194 = DIRECTION('',(-0.,-0.,-1.));
#195 = ORIENTED_EDGE('',*,*,#21,.F.);
#196 = PLANE('',#197);
#197 = AXIS2_PLACEMENT_3D('',#198,#199,#200);
#198 = CARTESIAN_POINT('',(-40.,19.499999998067,0.));
#199 = DIRECTION('',(-1.,0.,0.));
#200 = DIRECTION('',(0.,-1.,0.));
#201 = ADVANCED_FACE('',(#202),#221,.T.);
#202 = FACE_BOUND('',#203,.T.);
#203 = EDGE_LOOP('',(#204,#212,#219,#220));
#204 = ORIENTED_EDGE('',*,*,#205,.T.);
#205 = EDGE_CURVE('',#75,#206,#208,.T.);
#206 = VERTEX_POINT('',#207);
#207 = CARTESIAN_POINT('',(-39.49999999806,20.,-12.7));
#208 = LINE('',#209,#210);
#209 = CARTESIAN_POINT('',(-39.49999999806,20.,0.));
#210 = VECTOR('',#211,1.);
#211 = DIRECTION('',(-0.,-0.,-1.));
#212 = ORIENTED_EDGE('',*,*,#213,.T.);
#213 = EDGE_CURVE('',#206,#175,#214,.T.);
#214 = CIRCLE('',#215,0.500000001934);
#215 = AXIS2_PLACEMENT_3D('',#216,#217,#218);
#216 = CARTESIAN_POINT('',(-39.49999999806,19.499999998067,-12.7));
#217 = DIRECTION('',(0.,0.,1.));
#218 = DIRECTION('',(1.,0.,0.));
#219 = ORIENTED_EDGE('',*,*,#174,.F.);
#220 = ORIENTED_EDGE('',*,*,#82,.F.);
#221 = CYLINDRICAL_SURFACE('',#222,0.500000001934);
#222 = AXIS2_PLACEMENT_3D('',#223,#224,#225);
#223 = CARTESIAN_POINT('',(-39.49999999806,19.499999998067,0.));
#224 = DIRECTION('',(0.,0.,1.));
#225 = DIRECTION('',(1.,0.,0.));
#226 = ADVANCED_FACE('',(#227),#246,.T.);
#227 = FACE_BOUND('',#228,.T.);
#228 = EDGE_LOOP('',(#229,#230,#239,#245));
#229 = ORIENTED_EDGE('',*,*,#190,.T.);
#230 = ORIENTED_EDGE('',*,*,#231,.T.);
#231 = EDGE_CURVE('',#183,#232,#234,.T.);
#232 = VERTEX_POINT('',#233);
#233 = CARTESIAN_POINT('',(-39.49999999659,-19.99999999999,-12.7));
#234 = CIRCLE('',#235,0.500000003404);
#235 = AXIS2_PLACEMENT_3D('',#236,#237,#238);
#236 = CARTESIAN_POINT('',(-39.49999999659,-19.49999999659,-12.7));
#237 = DIRECTION('',(0.,0.,1.));
#238 = DIRECTION('',(1.,0.,0.));
#239 = ORIENTED_EDGE('',*,*,#240,.F.);
#240 = EDGE_CURVE('',#32,#232,#241,.T.);
#241 = LINE('',#242,#243);
#242 = CARTESIAN_POINT('',(-39.49999999659,-19.99999999999,0.));
#243 = VECTOR('',#244,1.);
#244 = DIRECTION('',(-0.,-0.,-1.));
#245 = ORIENTED_EDGE('',*,*,#31,.F.);
#246 = CYLINDRICAL_SURFACE('',#247,0.500000003404);
#247 = AXIS2_PLACEMENT_3D('',#248,#249,#250);
#248 = CARTESIAN_POINT('',(-39.49999999659,-19.49999999659,0.));
#249 = DIRECTION('',(0.,0.,1.));
#250 = DIRECTION('',(1.,0.,0.));
#251 = ADVANCED_FACE('',(#252),#270,.T.);
#252 = FACE_BOUND('',#253,.T.);
#253 = EDGE_LOOP('',(#254,#262,#268,#269));
#254 = ORIENTED_EDGE('',*,*,#255,.T.);
#255 = EDGE_CURVE('',#66,#256,#258,.T.);
#256 = VERTEX_POINT('',#257);
#257 = CARTESIAN_POINT('',(39.499999999999,19.999999999999,-12.7));
#258 = LINE('',#259,#260);
#259 = CARTESIAN_POINT('',(39.499999999999,19.999999999999,0.));
#260 = VECTOR('',#261,1.);
#261 = DIRECTION('',(-0.,-0.,-1.));
#262 = ORIENTED_EDGE('',*,*,#263,.T.);
#263 = EDGE_CURVE('',#256,#206,#264,.T.);
#264 = LINE('',#265,#266);
#265 = CARTESIAN_POINT('',(39.499999999999,19.999999999999,-12.7));
#266 = VECTOR('',#267,1.);
#267 = DIRECTION('',(-1.,0.,0.));
#268 = ORIENTED_EDGE('',*,*,#205,.F.);
#269 = ORIENTED_EDGE('',*,*,#74,.F.);
#270 = PLANE('',#271);
#271 = AXIS2_PLACEMENT_3D('',#272,#273,#274);
#272 = CARTESIAN_POINT('',(39.499999999999,19.999999999999,0.));
#273 = DIRECTION('',(0.,1.,0.));
#274 = DIRECTION('',(-1.,0.,0.));
#275 = ADVANCED_FACE('',(#276),#294,.T.);
#276 = FACE_BOUND('',#277,.T.);
#277 = EDGE_LOOP('',(#278,#279,#287,#293));
#278 = ORIENTED_EDGE('',*,*,#240,.T.);
#279 = ORIENTED_EDGE('',*,*,#280,.T.);
#280 = EDGE_CURVE('',#232,#281,#283,.T.);
#281 = VERTEX_POINT('',#282);
#282 = CARTESIAN_POINT('',(39.499999996596,-19.99999999999,-12.7));
#283 = LINE('',#284,#285);
#284 = CARTESIAN_POINT('',(-39.49999999659,-19.99999999999,-12.7));
#285 = VECTOR('',#286,1.);
#286 = DIRECTION('',(1.,0.,0.));
#287 = ORIENTED_EDGE('',*,*,#288,.F.);
#288 = EDGE_CURVE('',#41,#281,#289,.T.);
#289 = LINE('',#290,#291);
#290 = CARTESIAN_POINT('',(39.499999996596,-19.99999999999,0.));
#291 = VECTOR('',#292,1.);
#292 = DIRECTION('',(-0.,-0.,-1.));
#293 = ORIENTED_EDGE('',*,*,#40,.F.);
#294 = PLANE('',#295);
#295 = AXIS2_PLACEMENT_3D('',#296,#297,#298);
#296 = CARTESIAN_POINT('',(-39.49999999659,-19.99999999999,0.));
#297 = DIRECTION('',(0.,-1.,0.));
#298 = DIRECTION('',(1.,0.,0.));
#299 = ADVANCED_FACE('',(#300),#319,.T.);
#300 = FACE_BOUND('',#301,.T.);
#301 = EDGE_LOOP('',(#302,#310,#317,#318));
#302 = ORIENTED_EDGE('',*,*,#303,.T.);
#303 = EDGE_CURVE('',#58,#304,#306,.T.);
#304 = VERTEX_POINT('',#305);
#305 = CARTESIAN_POINT('',(40.,19.499999999997,-12.7));
#306 = LINE('',#307,#308);
#307 = CARTESIAN_POINT('',(40.,19.499999999997,0.));
#308 = VECTOR('',#309,1.);
#309 = DIRECTION('',(-0.,-0.,-1.));
#310 = ORIENTED_EDGE('',*,*,#311,.T.);
#311 = EDGE_CURVE('',#304,#256,#312,.T.);
#312 = CIRCLE('',#313,0.500000000001);
#313 = AXIS2_PLACEMENT_3D('',#314,#315,#316);
#314 = CARTESIAN_POINT('',(39.499999999999,19.499999999998,-12.7));
#315 = DIRECTION('',(0.,0.,1.));
#316 = DIRECTION('',(1.,0.,0.));
#317 = ORIENTED_EDGE('',*,*,#255,.F.);
#318 = ORIENTED_EDGE('',*,*,#65,.F.);
#319 = CYLINDRICAL_SURFACE('',#320,0.500000000001);
#320 = AXIS2_PLACEMENT_3D('',#321,#322,#323);
#321 = CARTESIAN_POINT('',(39.499999999999,19.499999999998,0.));
#322 = DIRECTION('',(0.,0.,1.));
#323 = DIRECTION('',(1.,0.,0.));
#324 = ADVANCED_FACE('',(#325),#344,.T.);
#325 = FACE_BOUND('',#326,.T.);
#326 = EDGE_LOOP('',(#327,#328,#337,#343));
#327 = ORIENTED_EDGE('',*,*,#288,.T.);
#328 = ORIENTED_EDGE('',*,*,#329,.T.);
#329 = EDGE_CURVE('',#281,#330,#332,.T.);
#330 = VERTEX_POINT('',#331);
#331 = CARTESIAN_POINT('',(40.,-19.49999999659,-12.7));
#332 = CIRCLE('',#333,0.500000003404);
#333 = AXIS2_PLACEMENT_3D('',#334,#335,#336);
#334 = CARTESIAN_POINT('',(39.499999996596,-19.49999999659,-12.7));
#335 = DIRECTION('',(0.,0.,1.));
#336 = DIRECTION('',(1.,0.,0.));
#337 = ORIENTED_EDGE('',*,*,#338,.F.);
#338 = EDGE_CURVE('',#49,#330,#339,.T.);
#339 = LINE('',#340,#341);
#340 = CARTESIAN_POINT('',(40.,-19.49999999659,0.));
#341 = VECTOR('',#342,1.);
#342 = DIRECTION('',(-0.,-0.,-1.));
#343 = ORIENTED_EDGE('',*,*,#48,.F.);
#344 = CYLINDRICAL_SURFACE('',#345,0.500000003404);
#345 = AXIS2_PLACEMENT_3D('',#346,#347,#348);
#346 = CARTESIAN_POINT('',(39.499999996596,-19.49999999659,0.));
#347 = DIRECTION('',(0.,0.,1.));
#348 = DIRECTION('',(1.,0.,0.));
#349 = ADVANCED_FACE('',(#350),#361,.T.);
#350 = FACE_BOUND('',#351,.T.);
#351 = EDGE_LOOP('',(#352,#353,#359,#360));
#352 = ORIENTED_EDGE('',*,*,#338,.T.);
#353 = ORIENTED_EDGE('',*,*,#354,.T.);
#354 = EDGE_CURVE('',#330,#304,#355,.T.);
#355 = LINE('',#356,#357);
#356 = CARTESIAN_POINT('',(40.,-19.49999999659,-12.7));
#357 = VECTOR('',#358,1.);
#358 = DIRECTION('',(0.,1.,0.));
#359 = ORIENTED_EDGE('',*,*,#303,.F.);
#360 = ORIENTED_EDGE('',*,*,#57,.F.);
#361 = PLANE('',#362);
#362 = AXIS2_PLACEMENT_3D('',#363,#364,#365);
#363 = CARTESIAN_POINT('',(40.,-19.49999999659,0.));
#364 = DIRECTION('',(1.,0.,0.));
#365 = DIRECTION('',(0.,1.,0.));
#366 = ADVANCED_FACE('',(#367),#387,.T.);
#367 = FACE_BOUND('',#368,.T.);
#368 = EDGE_LOOP('',(#369,#378,#379,#380));
#369 = ORIENTED_EDGE('',*,*,#370,.F.);
#370 = EDGE_CURVE('',#92,#371,#373,.T.);
#371 = VERTEX_POINT('',#372);
#372 = CARTESIAN_POINT('',(-18.78,-15.88,-0.5));
#373 = CIRCLE('',#374,0.5);
#374 = AXIS2_PLACEMENT_3D('',#375,#376,#377);
#375 = CARTESIAN_POINT('',(-19.28,-15.88,-0.5));
#376 = DIRECTION('',(0.,1.,-0.));
#377 = DIRECTION('',(-1.,0.,0.));
#378 = ORIENTED_EDGE('',*,*,#91,.T.);
#379 = ORIENTED_EDGE('',*,*,#370,.T.);
#380 = ORIENTED_EDGE('',*,*,#381,.F.);
#381 = EDGE_CURVE('',#371,#371,#382,.T.);
#382 = CIRCLE('',#383,2.9);
#383 = AXIS2_PLACEMENT_3D('',#384,#385,#386);
#384 = CARTESIAN_POINT('',(-15.88,-15.88,-0.5));
#385 = DIRECTION('',(0.,0.,1.));
#386 = DIRECTION('',(-1.,0.,0.));
#387 = TOROIDAL_SURFACE('',#388,3.4,0.5);
#388 = AXIS2_PLACEMENT_3D('',#389,#390,#391);
#389 = CARTESIAN_POINT('',(-15.88,-15.88,-0.5));
#390 = DIRECTION('',(0.,0.,1.));
#391 = DIRECTION('',(-1.,0.,0.));
#392 = ADVANCED_FACE('',(#393),#413,.T.);
#393 = FACE_BOUND('',#394,.T.);
#394 = EDGE_LOOP('',(#395,#404,#405,#406));
#395 = ORIENTED_EDGE('',*,*,#396,.F.);
#396 = EDGE_CURVE('',#103,#397,#399,.T.);
#397 = VERTEX_POINT('',#398);
#398 = CARTESIAN_POINT('',(15.88,-18.78,-0.5));
#399 = CIRCLE('',#400,0.5);
#400 = AXIS2_PLACEMENT_3D('',#401,#402,#403);
#401 = CARTESIAN_POINT('',(15.88,-19.28,-0.5));
#402 = DIRECTION('',(-1.,0.,0.));
#403 = DIRECTION('',(0.,-1.,0.));
#404 = ORIENTED_EDGE('',*,*,#102,.T.);
#405 = ORIENTED_EDGE('',*,*,#396,.T.);
#406 = ORIENTED_EDGE('',*,*,#407,.F.);
#407 = EDGE_CURVE('',#397,#397,#408,.T.);
#408 = CIRCLE('',#409,2.9);
#409 = AXIS2_PLACEMENT_3D('',#410,#411,#412);
#410 = CARTESIAN_POINT('',(15.88,-15.88,-0.5));
#411 = DIRECTION('',(-0.,0.,1.));
#412 = DIRECTION('',(0.,-1.,0.));
#413 = TOROIDAL_SURFACE('',#414,3.4,0.5);
#414 = AXIS2_PLACEMENT_3D('',#415,#416,#417);
#415 = CARTESIAN_POINT('',(15.88,-15.88,-0.5));
#416 = DIRECTION('',(0.,0.,1.));
#417 = DIRECTION('',(0.,-1.,0.));
#418 = ADVANCED_FACE('',(#419),#438,.F.);
#419 = FACE_BOUND('',#420,.T.);
#420 = EDGE_LOOP('',(#421,#429,#436,#437));
#421 = ORIENTED_EDGE('',*,*,#422,.F.);
#422 = EDGE_CURVE('',#423,#114,#425,.T.);
#423 = VERTEX_POINT('',#424);
#424 = CARTESIAN_POINT('',(-28.95,0.,-6.2));
#425 = LINE('',#426,#427);
#426 = CARTESIAN_POINT('',(-28.95,0.,-6.2));
#427 = VECTOR('',#428,1.);
#428 = DIRECTION('',(4.800964430811E-17,0.,1.));
#429 = ORIENTED_EDGE('',*,*,#430,.T.);
#430 = EDGE_CURVE('',#423,#423,#431,.T.);
#431 = CIRCLE('',#432,3.55);
#432 = AXIS2_PLACEMENT_3D('',#433,#434,#435);
#433 = CARTESIAN_POINT('',(-25.4,0.,-6.2));
#434 = DIRECTION('',(0.,0.,-1.));
#435 = DIRECTION('',(-1.,0.,0.));
#436 = ORIENTED_EDGE('',*,*,#422,.T.);
#437 = ORIENTED_EDGE('',*,*,#113,.T.);
#438 = CYLINDRICAL_SURFACE('',#439,3.55);
#439 = AXIS2_PLACEMENT_3D('',#440,#441,#442);
#440 = CARTESIAN_POINT('',(-25.4,0.,-6.2));
#441 = DIRECTION('',(0.,0.,1.));
#442 = DIRECTION('',(-1.,0.,0.));
#443 = ADVANCED_FACE('',(#444),#464,.T.);
#444 = FACE_BOUND('',#445,.T.);
#445 = EDGE_LOOP('',(#446,#455,#456,#457));
#446 = ORIENTED_EDGE('',*,*,#447,.F.);
#447 = EDGE_CURVE('',#125,#448,#450,.T.);
#448 = VERTEX_POINT('',#449);
#449 = CARTESIAN_POINT('',(-15.88,18.78,-0.5));
#450 = CIRCLE('',#451,0.5);
#451 = AXIS2_PLACEMENT_3D('',#452,#453,#454);
#452 = CARTESIAN_POINT('',(-15.88,19.28,-0.5));
#453 = DIRECTION('',(1.,0.,0.));
#454 = DIRECTION('',(0.,1.,0.));
#455 = ORIENTED_EDGE('',*,*,#124,.T.);
#456 = ORIENTED_EDGE('',*,*,#447,.T.);
#457 = ORIENTED_EDGE('',*,*,#458,.F.);
#458 = EDGE_CURVE('',#448,#448,#459,.T.);
#459 = CIRCLE('',#460,2.9);
#460 = AXIS2_PLACEMENT_3D('',#461,#462,#463);
#461 = CARTESIAN_POINT('',(-15.88,15.88,-0.5));
#462 = DIRECTION('',(0.,-0.,1.));
#463 = DIRECTION('',(0.,1.,0.));
#464 = TOROIDAL_SURFACE('',#465,3.4,0.5);
#465 = AXIS2_PLACEMENT_3D('',#466,#467,#468);
#466 = CARTESIAN_POINT('',(-15.88,15.88,-0.5));
#467 = DIRECTION('',(0.,0.,1.));
#468 = DIRECTION('',(0.,1.,0.));
#469 = ADVANCED_FACE('',(#470),#489,.F.);
#470 = FACE_BOUND('',#471,.T.);
#471 = EDGE_LOOP('',(#472,#480,#487,#488));
#472 = ORIENTED_EDGE('',*,*,#473,.F.);
#473 = EDGE_CURVE('',#474,#136,#476,.T.);
#474 = VERTEX_POINT('',#475);
#475 = CARTESIAN_POINT('',(-3.55,0.,-6.2));
#476 = LINE('',#477,#478);
#477 = CARTESIAN_POINT('',(-3.55,0.,-6.2));
#478 = VECTOR('',#479,1.);
#479 = DIRECTION('',(4.800964430811E-17,0.,1.));
#480 = ORIENTED_EDGE('',*,*,#481,.T.);
#481 = EDGE_CURVE('',#474,#474,#482,.T.);
#482 = CIRCLE('',#483,3.55);
#483 = AXIS2_PLACEMENT_3D('',#484,#485,#486);
#484 = CARTESIAN_POINT('',(0.,0.,-6.2));
#485 = DIRECTION('',(0.,0.,-1.));
#486 = DIRECTION('',(-1.,0.,0.));
#487 = ORIENTED_EDGE('',*,*,#473,.T.);
#488 = ORIENTED_EDGE('',*,*,#135,.T.);
#489 = CYLINDRICAL_SURFACE('',#490,3.55);
#490 = AXIS2_PLACEMENT_3D('',#491,#492,#493);
#491 = CARTESIAN_POINT('',(0.,0.,-6.2));
#492 = DIRECTION('',(0.,0.,1.));
#493 = DIRECTION('',(-1.,0.,0.));
#494 = ADVANCED_FACE('',(#495),#514,.F.);
#495 = FACE_BOUND('',#496,.T.);
#496 = EDGE_LOOP('',(#497,#505,#512,#513));
#497 = ORIENTED_EDGE('',*,*,#498,.F.);
#498 = EDGE_CURVE('',#499,#147,#501,.T.);
#499 = VERTEX_POINT('',#500);
#500 = CARTESIAN_POINT('',(21.85,0.,-6.2));
#501 = LINE('',#502,#503);
#502 = CARTESIAN_POINT('',(21.85,0.,-6.2));
#503 = VECTOR('',#504,1.);
#504 = DIRECTION('',(4.800964430811E-17,0.,1.));
#505 = ORIENTED_EDGE('',*,*,#506,.T.);
#506 = EDGE_CURVE('',#499,#499,#507,.T.);
#507 = CIRCLE('',#508,3.55);
#508 = AXIS2_PLACEMENT_3D('',#509,#510,#511);
#509 = CARTESIAN_POINT('',(25.4,0.,-6.2));
#510 = DIRECTION('',(0.,0.,-1.));
#511 = DIRECTION('',(-1.,0.,0.));
#512 = ORIENTED_EDGE('',*,*,#498,.T.);
#513 = ORIENTED_EDGE('',*,*,#146,.T.);
#514 = CYLINDRICAL_SURFACE('',#515,3.55);
#515 = AXIS2_PLACEMENT_3D('',#516,#517,#518);
#516 = CARTESIAN_POINT('',(25.4,0.,-6.2));
#517 = DIRECTION('',(0.,0.,1.));
#518 = DIRECTION('',(-1.,0.,0.));
#519 = ADVANCED_FACE('',(#520),#540,.T.);
#520 = FACE_BOUND('',#521,.T.);
#521 = EDGE_LOOP('',(#522,#531,#532,#533));
#522 = ORIENTED_EDGE('',*,*,#523,.F.);
#523 = EDGE_CURVE('',#158,#524,#526,.T.);
#524 = VERTEX_POINT('',#525);
#525 = CARTESIAN_POINT('',(18.78,15.88,-0.5));
#526 = CIRCLE('',#527,0.5);
#527 = AXIS2_PLACEMENT_3D('',#528,#529,#530);
#528 = CARTESIAN_POINT('',(19.28,15.88,-0.5));
#529 = DIRECTION('',(0.,-1.,0.));
#530 = DIRECTION('',(1.,0.,0.));
#531 = ORIENTED_EDGE('',*,*,#157,.T.);
#532 = ORIENTED_EDGE('',*,*,#523,.T.);
#533 = ORIENTED_EDGE('',*,*,#534,.F.);
#534 = EDGE_CURVE('',#524,#524,#535,.T.);
#535 = CIRCLE('',#536,2.9);
#536 = AXIS2_PLACEMENT_3D('',#537,#538,#539);
#537 = CARTESIAN_POINT('',(15.88,15.88,-0.5));
#538 = DIRECTION('',(0.,0.,1.));
#539 = DIRECTION('',(1.,0.,0.));
#540 = TOROIDAL_SURFACE('',#541,3.4,0.5);
#541 = AXIS2_PLACEMENT_3D('',#542,#543,#544);
#542 = CARTESIAN_POINT('',(15.88,15.88,-0.5));
#543 = DIRECTION('',(0.,0.,1.));
#544 = DIRECTION('',(1.,0.,0.));
#545 = ADVANCED_FACE('',(#546,#556,#567,#578,#589,#600,#611,#622),#633,
  .F.);
#546 = FACE_BOUND('',#547,.F.);
#547 = EDGE_LOOP('',(#548,#549,#550,#551,#552,#553,#554,#555));
#548 = ORIENTED_EDGE('',*,*,#182,.T.);
#549 = ORIENTED_EDGE('',*,*,#231,.T.);
#550 = ORIENTED_EDGE('',*,*,#280,.T.);
#551 = ORIENTED_EDGE('',*,*,#329,.T.);
#552 = ORIENTED_EDGE('',*,*,#354,.T.);
#553 = ORIENTED_EDGE('',*,*,#311,.T.);
#554 = ORIENTED_EDGE('',*,*,#263,.T.);
#555 = ORIENTED_EDGE('',*,*,#213,.T.);
#556 = FACE_BOUND('',#557,.F.);
#557 = EDGE_LOOP('',(#558));
#558 = ORIENTED_EDGE('',*,*,#559,.F.);
#559 = EDGE_CURVE('',#560,#560,#562,.T.);
#560 = VERTEX_POINT('',#561);
#561 = CARTESIAN_POINT('',(-17.58,-15.88,-12.7));
#562 = CIRCLE('',#563,1.7);
#563 = AXIS2_PLACEMENT_3D('',#564,#565,#566);
#564 = CARTESIAN_POINT('',(-15.88,-15.88,-12.7));
#565 = DIRECTION('',(0.,0.,1.));
#566 = DIRECTION('',(-1.,1.224646799147E-16,0.));
#567 = FACE_BOUND('',#568,.F.);
#568 = EDGE_LOOP('',(#569));
#569 = ORIENTED_EDGE('',*,*,#570,.F.);
#570 = EDGE_CURVE('',#571,#571,#573,.T.);
#571 = VERTEX_POINT('',#572);
#572 = CARTESIAN_POINT('',(15.88,-17.58,-12.7));
#573 = CIRCLE('',#574,1.7);
#574 = AXIS2_PLACEMENT_3D('',#575,#576,#577);
#575 = CARTESIAN_POINT('',(15.88,-15.88,-12.7));
#576 = DIRECTION('',(0.,0.,1.));
#577 = DIRECTION('',(-2.22044604925E-16,-1.,0.));
#578 = FACE_BOUND('',#579,.F.);
#579 = EDGE_LOOP('',(#580));
#580 = ORIENTED_EDGE('',*,*,#581,.T.);
#581 = EDGE_CURVE('',#582,#582,#584,.T.);
#582 = VERTEX_POINT('',#583);
#583 = CARTESIAN_POINT('',(-31.08,0.,-12.7));
#584 = CIRCLE('',#585,5.68);
#585 = AXIS2_PLACEMENT_3D('',#586,#587,#588);
#586 = CARTESIAN_POINT('',(-25.4,0.,-12.7));
#587 = DIRECTION('',(0.,0.,-1.));
#588 = DIRECTION('',(-1.,0.,0.));
#589 = FACE_BOUND('',#590,.F.);
#590 = EDGE_LOOP('',(#591));
#591 = ORIENTED_EDGE('',*,*,#592,.F.);
#592 = EDGE_CURVE('',#593,#593,#595,.T.);
#593 = VERTEX_POINT('',#594);
#594 = CARTESIAN_POINT('',(-15.88,17.58,-12.7));
#595 = CIRCLE('',#596,1.7);
#596 = AXIS2_PLACEMENT_3D('',#597,#598,#599);
#597 = CARTESIAN_POINT('',(-15.88,15.88,-12.7));
#598 = DIRECTION('',(0.,-0.,1.));
#599 = DIRECTION('',(1.110223024625E-16,1.,0.));
#600 = FACE_BOUND('',#601,.F.);
#601 = EDGE_LOOP('',(#602));
#602 = ORIENTED_EDGE('',*,*,#603,.T.);
#603 = EDGE_CURVE('',#604,#604,#606,.T.);
#604 = VERTEX_POINT('',#605);
#605 = CARTESIAN_POINT('',(-5.68,0.,-12.7));
#606 = CIRCLE('',#607,5.68);
#607 = AXIS2_PLACEMENT_3D('',#608,#609,#610);
#608 = CARTESIAN_POINT('',(0.,0.,-12.7));
#609 = DIRECTION('',(0.,0.,-1.));
#610 = DIRECTION('',(-1.,0.,0.));
#611 = FACE_BOUND('',#612,.F.);
#612 = EDGE_LOOP('',(#613));
#613 = ORIENTED_EDGE('',*,*,#614,.T.);
#614 = EDGE_CURVE('',#615,#615,#617,.T.);
#615 = VERTEX_POINT('',#616);
#616 = CARTESIAN_POINT('',(19.72,0.,-12.7));
#617 = CIRCLE('',#618,5.68);
#618 = AXIS2_PLACEMENT_3D('',#619,#620,#621);
#619 = CARTESIAN_POINT('',(25.4,0.,-12.7));
#620 = DIRECTION('',(0.,0.,-1.));
#621 = DIRECTION('',(-1.,0.,0.));
#622 = FACE_BOUND('',#623,.F.);
#623 = EDGE_LOOP('',(#624));
#624 = ORIENTED_EDGE('',*,*,#625,.F.);
#625 = EDGE_CURVE('',#626,#626,#628,.T.);
#626 = VERTEX_POINT('',#627);
#627 = CARTESIAN_POINT('',(17.58,15.88,-12.7));
#628 = CIRCLE('',#629,1.7);
#629 = AXIS2_PLACEMENT_3D('',#630,#631,#632);
#630 = CARTESIAN_POINT('',(15.88,15.88,-12.7));
#631 = DIRECTION('',(0.,0.,1.));
#632 = DIRECTION('',(1.,0.,0.));
#633 = PLANE('',#634);
#634 = AXIS2_PLACEMENT_3D('',#635,#636,#637);
#635 = CARTESIAN_POINT('',(1.44896250359E-10,1.838017496134E-10,-12.7));
#636 = DIRECTION('',(0.,0.,1.));
#637 = DIRECTION('',(1.,0.,0.));
#638 = ADVANCED_FACE('',(#639),#658,.F.);
#639 = FACE_BOUND('',#640,.F.);
#640 = EDGE_LOOP('',(#641,#649,#656,#657));
#641 = ORIENTED_EDGE('',*,*,#642,.T.);
#642 = EDGE_CURVE('',#371,#643,#645,.T.);
#643 = VERTEX_POINT('',#644);
#644 = CARTESIAN_POINT('',(-18.78,-15.88,-3.));
#645 = LINE('',#646,#647);
#646 = CARTESIAN_POINT('',(-18.78,-15.88,0.));
#647 = VECTOR('',#648,1.);
#648 = DIRECTION('',(0.,0.,-1.));
#649 = ORIENTED_EDGE('',*,*,#650,.T.);
#650 = EDGE_CURVE('',#643,#643,#651,.T.);
#651 = CIRCLE('',#652,2.9);
#652 = AXIS2_PLACEMENT_3D('',#653,#654,#655);
#653 = CARTESIAN_POINT('',(-15.88,-15.88,-3.));
#654 = DIRECTION('',(0.,0.,1.));
#655 = DIRECTION('',(-1.,1.224646799147E-16,0.));
#656 = ORIENTED_EDGE('',*,*,#642,.F.);
#657 = ORIENTED_EDGE('',*,*,#381,.F.);
#658 = CYLINDRICAL_SURFACE('',#659,2.9);
#659 = AXIS2_PLACEMENT_3D('',#660,#661,#662);
#660 = CARTESIAN_POINT('',(-15.88,-15.88,0.));
#661 = DIRECTION('',(0.,0.,1.));
#662 = DIRECTION('',(-1.,1.224646799147E-16,0.));
#663 = ADVANCED_FACE('',(#664),#683,.F.);
#664 = FACE_BOUND('',#665,.F.);
#665 = EDGE_LOOP('',(#666,#674,#681,#682));
#666 = ORIENTED_EDGE('',*,*,#667,.T.);
#667 = EDGE_CURVE('',#397,#668,#670,.T.);
#668 = VERTEX_POINT('',#669);
#669 = CARTESIAN_POINT('',(15.88,-18.78,-3.));
#670 = LINE('',#671,#672);
#671 = CARTESIAN_POINT('',(15.88,-18.78,0.));
#672 = VECTOR('',#673,1.);
#673 = DIRECTION('',(0.,0.,-1.));
#674 = ORIENTED_EDGE('',*,*,#675,.T.);
#675 = EDGE_CURVE('',#668,#668,#676,.T.);
#676 = CIRCLE('',#677,2.9);
#677 = AXIS2_PLACEMENT_3D('',#678,#679,#680);
#678 = CARTESIAN_POINT('',(15.88,-15.88,-3.));
#679 = DIRECTION('',(0.,0.,1.));
#680 = DIRECTION('',(-2.22044604925E-16,-1.,0.));
#681 = ORIENTED_EDGE('',*,*,#667,.F.);
#682 = ORIENTED_EDGE('',*,*,#407,.F.);
#683 = CYLINDRICAL_SURFACE('',#684,2.9);
#684 = AXIS2_PLACEMENT_3D('',#685,#686,#687);
#685 = CARTESIAN_POINT('',(15.88,-15.88,0.));
#686 = DIRECTION('',(0.,0.,1.));
#687 = DIRECTION('',(-2.22044604925E-16,-1.,0.));
#688 = ADVANCED_FACE('',(#689,#700),#703,.T.);
#689 = FACE_BOUND('',#690,.T.);
#690 = EDGE_LOOP('',(#691));
#691 = ORIENTED_EDGE('',*,*,#692,.T.);
#692 = EDGE_CURVE('',#693,#693,#695,.T.);
#693 = VERTEX_POINT('',#694);
#694 = CARTESIAN_POINT('',(-31.08,0.,-6.2));
#695 = CIRCLE('',#696,5.68);
#696 = AXIS2_PLACEMENT_3D('',#697,#698,#699);
#697 = CARTESIAN_POINT('',(-25.4,0.,-6.2));
#698 = DIRECTION('',(0.,0.,-1.));
#699 = DIRECTION('',(-1.,0.,0.));
#700 = FACE_BOUND('',#701,.T.);
#701 = EDGE_LOOP('',(#702));
#702 = ORIENTED_EDGE('',*,*,#430,.F.);
#703 = PLANE('',#704);
#704 = AXIS2_PLACEMENT_3D('',#705,#706,#707);
#705 = CARTESIAN_POINT('',(-25.4,0.,-6.2));
#706 = DIRECTION('',(0.,0.,-1.));
#707 = DIRECTION('',(-1.,0.,0.));
#708 = ADVANCED_FACE('',(#709),#728,.F.);
#709 = FACE_BOUND('',#710,.F.);
#710 = EDGE_LOOP('',(#711,#719,#726,#727));
#711 = ORIENTED_EDGE('',*,*,#712,.T.);
#712 = EDGE_CURVE('',#448,#713,#715,.T.);
#713 = VERTEX_POINT('',#714);
#714 = CARTESIAN_POINT('',(-15.88,18.78,-3.));
#715 = LINE('',#716,#717);
#716 = CARTESIAN_POINT('',(-15.88,18.78,0.));
#717 = VECTOR('',#718,1.);
#718 = DIRECTION('',(0.,-0.,-1.));
#719 = ORIENTED_EDGE('',*,*,#720,.T.);
#720 = EDGE_CURVE('',#713,#713,#721,.T.);
#721 = CIRCLE('',#722,2.9);
#722 = AXIS2_PLACEMENT_3D('',#723,#724,#725);
#723 = CARTESIAN_POINT('',(-15.88,15.88,-3.));
#724 = DIRECTION('',(0.,-0.,1.));
#725 = DIRECTION('',(1.110223024625E-16,1.,0.));
#726 = ORIENTED_EDGE('',*,*,#712,.F.);
#727 = ORIENTED_EDGE('',*,*,#458,.F.);
#728 = CYLINDRICAL_SURFACE('',#729,2.9);
#729 = AXIS2_PLACEMENT_3D('',#730,#731,#732);
#730 = CARTESIAN_POINT('',(-15.88,15.88,0.));
#731 = DIRECTION('',(0.,0.,1.));
#732 = DIRECTION('',(1.110223024625E-16,1.,0.));
#733 = ADVANCED_FACE('',(#734,#745),#748,.T.);
#734 = FACE_BOUND('',#735,.T.);
#735 = EDGE_LOOP('',(#736));
#736 = ORIENTED_EDGE('',*,*,#737,.T.);
#737 = EDGE_CURVE('',#738,#738,#740,.T.);
#738 = VERTEX_POINT('',#739);
#739 = CARTESIAN_POINT('',(-5.68,0.,-6.2));
#740 = CIRCLE('',#741,5.68);
#741 = AXIS2_PLACEMENT_3D('',#742,#743,#744);
#742 = CARTESIAN_POINT('',(0.,0.,-6.2));
#743 = DIRECTION('',(0.,0.,-1.));
#744 = DIRECTION('',(-1.,0.,0.));
#745 = FACE_BOUND('',#746,.T.);
#746 = EDGE_LOOP('',(#747));
#747 = ORIENTED_EDGE('',*,*,#481,.F.);
#748 = PLANE('',#749);
#749 = AXIS2_PLACEMENT_3D('',#750,#751,#752);
#750 = CARTESIAN_POINT('',(0.,0.,-6.2));
#751 = DIRECTION('',(0.,0.,-1.));
#752 = DIRECTION('',(-1.,0.,0.));
#753 = ADVANCED_FACE('',(#754,#765),#768,.T.);
#754 = FACE_BOUND('',#755,.T.);
#755 = EDGE_LOOP('',(#756));
#756 = ORIENTED_EDGE('',*,*,#757,.T.);
#757 = EDGE_CURVE('',#758,#758,#760,.T.);
#758 = VERTEX_POINT('',#759);
#759 = CARTESIAN_POINT('',(19.72,0.,-6.2));
#760 = CIRCLE('',#761,5.68);
#761 = AXIS2_PLACEMENT_3D('',#762,#763,#764);
#762 = CARTESIAN_POINT('',(25.4,0.,-6.2));
#763 = DIRECTION('',(0.,0.,-1.));
#764 = DIRECTION('',(-1.,0.,0.));
#765 = FACE_BOUND('',#766,.T.);
#766 = EDGE_LOOP('',(#767));
#767 = ORIENTED_EDGE('',*,*,#506,.F.);
#768 = PLANE('',#769);
#769 = AXIS2_PLACEMENT_3D('',#770,#771,#772);
#770 = CARTESIAN_POINT('',(25.4,0.,-6.2));
#771 = DIRECTION('',(0.,0.,-1.));
#772 = DIRECTION('',(-1.,0.,0.));
#773 = ADVANCED_FACE('',(#774),#793,.F.);
#774 = FACE_BOUND('',#775,.F.);
#775 = EDGE_LOOP('',(#776,#784,#791,#792));
#776 = ORIENTED_EDGE('',*,*,#777,.T.);
#777 = EDGE_CURVE('',#524,#778,#780,.T.);
#778 = VERTEX_POINT('',#779);
#779 = CARTESIAN_POINT('',(18.78,15.88,-3.));
#780 = LINE('',#781,#782);
#781 = CARTESIAN_POINT('',(18.78,15.88,0.));
#782 = VECTOR('',#783,1.);
#783 = DIRECTION('',(-0.,-0.,-1.));
#784 = ORIENTED_EDGE('',*,*,#785,.T.);
#785 = EDGE_CURVE('',#778,#778,#786,.T.);
#786 = CIRCLE('',#787,2.9);
#787 = AXIS2_PLACEMENT_3D('',#788,#789,#790);
#788 = CARTESIAN_POINT('',(15.88,15.88,-3.));
#789 = DIRECTION('',(0.,0.,1.));
#790 = DIRECTION('',(1.,0.,0.));
#791 = ORIENTED_EDGE('',*,*,#777,.F.);
#792 = ORIENTED_EDGE('',*,*,#534,.F.);
#793 = CYLINDRICAL_SURFACE('',#794,2.9);
#794 = AXIS2_PLACEMENT_3D('',#795,#796,#797);
#795 = CARTESIAN_POINT('',(15.88,15.88,0.));
#796 = DIRECTION('',(0.,0.,1.));
#797 = DIRECTION('',(1.,0.,0.));
#798 = ADVANCED_FACE('',(#799),#818,.F.);
#799 = FACE_BOUND('',#800,.F.);
#800 = EDGE_LOOP('',(#801,#810,#816,#817));
#801 = ORIENTED_EDGE('',*,*,#802,.F.);
#802 = EDGE_CURVE('',#803,#803,#805,.T.);
#803 = VERTEX_POINT('',#804);
#804 = CARTESIAN_POINT('',(-17.58,-15.88,-3.));
#805 = CIRCLE('',#806,1.7);
#806 = AXIS2_PLACEMENT_3D('',#807,#808,#809);
#807 = CARTESIAN_POINT('',(-15.88,-15.88,-3.));
#808 = DIRECTION('',(0.,0.,1.));
#809 = DIRECTION('',(-1.,1.224646799147E-16,0.));
#810 = ORIENTED_EDGE('',*,*,#811,.T.);
#811 = EDGE_CURVE('',#803,#560,#812,.T.);
#812 = LINE('',#813,#814);
#813 = CARTESIAN_POINT('',(-17.58,-15.88,0.));
#814 = VECTOR('',#815,1.);
#815 = DIRECTION('',(0.,0.,-1.));
#816 = ORIENTED_EDGE('',*,*,#559,.T.);
#817 = ORIENTED_EDGE('',*,*,#811,.F.);
#818 = CYLINDRICAL_SURFACE('',#819,1.7);
#819 = AXIS2_PLACEMENT_3D('',#820,#821,#822);
#820 = CARTESIAN_POINT('',(-15.88,-15.88,0.));
#821 = DIRECTION('',(0.,0.,1.));
#822 = DIRECTION('',(-1.,1.224646799147E-16,0.));
#823 = ADVANCED_FACE('',(#824),#843,.F.);
#824 = FACE_BOUND('',#825,.F.);
#825 = EDGE_LOOP('',(#826,#835,#841,#842));
#826 = ORIENTED_EDGE('',*,*,#827,.F.);
#827 = EDGE_CURVE('',#828,#828,#830,.T.);
#828 = VERTEX_POINT('',#829);
#829 = CARTESIAN_POINT('',(15.88,-17.58,-3.));
#830 = CIRCLE('',#831,1.7);
#831 = AXIS2_PLACEMENT_3D('',#832,#833,#834);
#832 = CARTESIAN_POINT('',(15.88,-15.88,-3.));
#833 = DIRECTION('',(0.,0.,1.));
#834 = DIRECTION('',(-2.22044604925E-16,-1.,0.));
#835 = ORIENTED_EDGE('',*,*,#836,.T.);
#836 = EDGE_CURVE('',#828,#571,#837,.T.);
#837 = LINE('',#838,#839);
#838 = CARTESIAN_POINT('',(15.88,-17.58,0.));
#839 = VECTOR('',#840,1.);
#840 = DIRECTION('',(0.,0.,-1.));
#841 = ORIENTED_EDGE('',*,*,#570,.T.);
#842 = ORIENTED_EDGE('',*,*,#836,.F.);
#843 = CYLINDRICAL_SURFACE('',#844,1.7);
#844 = AXIS2_PLACEMENT_3D('',#845,#846,#847);
#845 = CARTESIAN_POINT('',(15.88,-15.88,0.));
#846 = DIRECTION('',(0.,0.,1.));
#847 = DIRECTION('',(-2.22044604925E-16,-1.,0.));
#848 = ADVANCED_FACE('',(#849),#860,.F.);
#849 = FACE_BOUND('',#850,.T.);
#850 = EDGE_LOOP('',(#851,#857,#858,#859));
#851 = ORIENTED_EDGE('',*,*,#852,.F.);
#852 = EDGE_CURVE('',#582,#693,#853,.T.);
#853 = LINE('',#854,#855);
#854 = CARTESIAN_POINT('',(-31.08,0.,-12.7));
#855 = VECTOR('',#856,1.);
#856 = DIRECTION('',(0.,0.,1.));
#857 = ORIENTED_EDGE('',*,*,#581,.T.);
#858 = ORIENTED_EDGE('',*,*,#852,.T.);
#859 = ORIENTED_EDGE('',*,*,#692,.F.);
#860 = CYLINDRICAL_SURFACE('',#861,5.68);
#861 = AXIS2_PLACEMENT_3D('',#862,#863,#864);
#862 = CARTESIAN_POINT('',(-25.4,0.,-12.7));
#863 = DIRECTION('',(0.,0.,1.));
#864 = DIRECTION('',(-1.,0.,0.));
#865 = ADVANCED_FACE('',(#866),#885,.F.);
#866 = FACE_BOUND('',#867,.F.);
#867 = EDGE_LOOP('',(#868,#877,#883,#884));
#868 = ORIENTED_EDGE('',*,*,#869,.F.);
#869 = EDGE_CURVE('',#870,#870,#872,.T.);
#870 = VERTEX_POINT('',#871);
#871 = CARTESIAN_POINT('',(-15.88,17.58,-3.));
#872 = CIRCLE('',#873,1.7);
#873 = AXIS2_PLACEMENT_3D('',#874,#875,#876);
#874 = CARTESIAN_POINT('',(-15.88,15.88,-3.));
#875 = DIRECTION('',(0.,-0.,1.));
#876 = DIRECTION('',(1.110223024625E-16,1.,0.));
#877 = ORIENTED_EDGE('',*,*,#878,.T.);
#878 = EDGE_CURVE('',#870,#593,#879,.T.);
#879 = LINE('',#880,#881);
#880 = CARTESIAN_POINT('',(-15.88,17.58,0.));
#881 = VECTOR('',#882,1.);
#882 = DIRECTION('',(0.,-0.,-1.));
#883 = ORIENTED_EDGE('',*,*,#592,.T.);
#884 = ORIENTED_EDGE('',*,*,#878,.F.);
#885 = CYLINDRICAL_SURFACE('',#886,1.7);
#886 = AXIS2_PLACEMENT_3D('',#887,#888,#889);
#887 = CARTESIAN_POINT('',(-15.88,15.88,0.));
#888 = DIRECTION('',(0.,0.,1.));
#889 = DIRECTION('',(1.110223024625E-16,1.,0.));
#890 = ADVANCED_FACE('',(#891),#902,.F.);
#891 = FACE_BOUND('',#892,.T.);
#892 = EDGE_LOOP('',(#893,#899,#900,#901));
#893 = ORIENTED_EDGE('',*,*,#894,.F.);
#894 = EDGE_CURVE('',#604,#738,#895,.T.);
#895 = LINE('',#896,#897);
#896 = CARTESIAN_POINT('',(-5.68,0.,-12.7));
#897 = VECTOR('',#898,1.);
#898 = DIRECTION('',(0.,0.,1.));
#899 = ORIENTED_EDGE('',*,*,#603,.T.);
#900 = ORIENTED_EDGE('',*,*,#894,.T.);
#901 = ORIENTED_EDGE('',*,*,#737,.F.);
#902 = CYLINDRICAL_SURFACE('',#903,5.68);
#903 = AXIS2_PLACEMENT_3D('',#904,#905,#906);
#904 = CARTESIAN_POINT('',(0.,0.,-12.7));
#905 = DIRECTION('',(0.,0.,1.));
#906 = DIRECTION('',(-1.,0.,0.));
#907 = ADVANCED_FACE('',(#908),#919,.F.);
#908 = FACE_BOUND('',#909,.T.);
#909 = EDGE_LOOP('',(#910,#916,#917,#918));
#910 = ORIENTED_EDGE('',*,*,#911,.F.);
#911 = EDGE_CURVE('',#615,#758,#912,.T.);
#912 = LINE('',#913,#914);
#913 = CARTESIAN_POINT('',(19.72,0.,-12.7));
#914 = VECTOR('',#915,1.);
#915 = DIRECTION('',(0.,0.,1.));
#916 = ORIENTED_EDGE('',*,*,#614,.T.);
#917 = ORIENTED_EDGE('',*,*,#911,.T.);
#918 = ORIENTED_EDGE('',*,*,#757,.F.);
#919 = CYLINDRICAL_SURFACE('',#920,5.68);
#920 = AXIS2_PLACEMENT_3D('',#921,#922,#923);
#921 = CARTESIAN_POINT('',(25.4,0.,-12.7));
#922 = DIRECTION('',(0.,0.,1.));
#923 = DIRECTION('',(-1.,0.,0.));
#924 = ADVANCED_FACE('',(#925),#944,.F.);
#925 = FACE_BOUND('',#926,.F.);
#926 = EDGE_LOOP('',(#927,#936,#942,#943));
#927 = ORIENTED_EDGE('',*,*,#928,.F.);
#928 = EDGE_CURVE('',#929,#929,#931,.T.);
#929 = VERTEX_POINT('',#930);
#930 = CARTESIAN_POINT('',(17.58,15.88,-3.));
#931 = CIRCLE('',#932,1.7);
#932 = AXIS2_PLACEMENT_3D('',#933,#934,#935);
#933 = CARTESIAN_POINT('',(15.88,15.88,-3.));
#934 = DIRECTION('',(0.,0.,1.));
#935 = DIRECTION('',(1.,0.,0.));
#936 = ORIENTED_EDGE('',*,*,#937,.T.);
#937 = EDGE_CURVE('',#929,#626,#938,.T.);
#938 = LINE('',#939,#940);
#939 = CARTESIAN_POINT('',(17.58,15.88,0.));
#940 = VECTOR('',#941,1.);
#941 = DIRECTION('',(-0.,-0.,-1.));
#942 = ORIENTED_EDGE('',*,*,#625,.T.);
#943 = ORIENTED_EDGE('',*,*,#937,.F.);
#944 = CYLINDRICAL_SURFACE('',#945,1.7);
#945 = AXIS2_PLACEMENT_3D('',#946,#947,#948);
#946 = CARTESIAN_POINT('',(15.88,15.88,0.));
#947 = DIRECTION('',(0.,0.,1.));
#948 = DIRECTION('',(1.,0.,0.));
#949 = ADVANCED_FACE('',(#950,#953),#956,.T.);
#950 = FACE_BOUND('',#951,.T.);
#951 = EDGE_LOOP('',(#952));
#952 = ORIENTED_EDGE('',*,*,#650,.T.);
#953 = FACE_BOUND('',#954,.T.);
#954 = EDGE_LOOP('',(#955));
#955 = ORIENTED_EDGE('',*,*,#802,.F.);
#956 = PLANE('',#957);
#957 = AXIS2_PLACEMENT_3D('',#958,#959,#960);
#958 = CARTESIAN_POINT('',(-15.88,-15.88,-3.));
#959 = DIRECTION('',(0.,0.,1.));
#960 = DIRECTION('',(-1.,1.224646799147E-16,0.));
#961 = ADVANCED_FACE('',(#962,#965),#968,.T.);
#962 = FACE_BOUND('',#963,.T.);
#963 = EDGE_LOOP('',(#964));
#964 = ORIENTED_EDGE('',*,*,#675,.T.);
#965 = FACE_BOUND('',#966,.T.);
#966 = EDGE_LOOP('',(#967));
#967 = ORIENTED_EDGE('',*,*,#827,.F.);
#968 = PLANE('',#969);
#969 = AXIS2_PLACEMENT_3D('',#970,#971,#972);
#970 = CARTESIAN_POINT('',(15.88,-15.88,-3.));
#971 = DIRECTION('',(0.,0.,1.));
#972 = DIRECTION('',(-2.22044604925E-16,-1.,0.));
#973 = ADVANCED_FACE('',(#974,#977),#980,.T.);
#974 = FACE_BOUND('',#975,.T.);
#975 = EDGE_LOOP('',(#976));
#976 = ORIENTED_EDGE('',*,*,#720,.T.);
#977 = FACE_BOUND('',#978,.T.);
#978 = EDGE_LOOP('',(#979));
#979 = ORIENTED_EDGE('',*,*,#869,.F.);
#980 = PLANE('',#981);
#981 = AXIS2_PLACEMENT_3D('',#982,#983,#984);
#982 = CARTESIAN_POINT('',(-15.88,15.88,-3.));
#983 = DIRECTION('',(0.,0.,1.));
#984 = DIRECTION('',(1.110223024625E-16,1.,0.));
#985 = ADVANCED_FACE('',(#986,#989),#992,.T.);
#986 = FACE_BOUND('',#987,.T.);
#987 = EDGE_LOOP('',(#988));
#988 = ORIENTED_EDGE('',*,*,#785,.T.);
#989 = FACE_BOUND('',#990,.T.);
#990 = EDGE_LOOP('',(#991));
#991 = ORIENTED_EDGE('',*,*,#928,.F.);
#992 = PLANE('',#993);
#993 = AXIS2_PLACEMENT_3D('',#994,#995,#996);
#994 = CARTESIAN_POINT('',(15.88,15.88,-3.));
#995 = DIRECTION('',(0.,0.,1.));
#996 = DIRECTION('',(1.,0.,0.));
#997 = ( GEOMETRIC_REPRESENTATION_CONTEXT(3) 
GLOBAL_UNCERTAINTY_ASSIGNED_CONTEXT((#1001)) 
GLOBAL_UNIT_ASSIGNED_CONTEXT((#998,#999,#1000)) REPRESENTATION_CONTEXT(
  'Context #1','3D Context with UNIT and UNCERTAINTY') );
#998 = ( LENGTH_UNIT() NAMED_UNIT(*) SI_UNIT(.MILLI.,.METRE.) );
#999 = ( NAMED_UNIT(*) PLANE_ANGLE_UNIT() SI_UNIT($,.RADIAN.) );
#1000 = ( NAMED_UNIT(*) SI_UNIT($,.STERADIAN.) SOLID_ANGLE_UNIT() );
#1001 = UNCERTAINTY_MEASURE_WITH_UNIT(LENGTH_MEASURE(1.E-07),#998,
  'distance_accuracy_value','confusion accuracy');
#1002 = PRODUCT_RELATED_PRODUCT_CATEGORY('part',$,(#7));
#1003 = MECHANICAL_DESIGN_GEOMETRIC_PRESENTATION_REPRESENTATION('',(
    #1004),#997);
#1004 = STYLED_ITEM('color',(#1005),#15);
#1005 = PRESENTATION_STYLE_ASSIGNMENT((#1006,#1012));
#1006 = SURFACE_STYLE_USAGE(.BOTH.,#1007);
#1007 = SURFACE_SIDE_STYLE('',(#1008));
#1008 = SURFACE_STYLE_FILL_AREA(#1009);
#1009 = FILL_AREA_STYLE('',(#1010));
#1010 = FILL_AREA_STYLE_COLOUR('',#1011);
#1011 = COLOUR_RGB('',0.800000010877,0.800000010877,0.901960800373);
#1012 = CURVE_STYLE('',#1013,POSITIVE_LENGTH_MEASURE(0.1),#1014);
#1013 = DRAUGHTING_PRE_DEFINED_CURVE_FONT('continuous');
#1014 = COLOUR_RGB('',9.803921802644E-02,9.803921802644E-02,
  9.803921802644E-02);
ENDSEC;
END-ISO-10303-21;
