<?xml version="1.0" encoding="UTF-8" standalone="no"?>
<svg
   width="12in"
   height="12in"
   viewBox="0 0 304.8 304.79999"
   version="1.1"
   id="svg490"
   sodipodi:docname="MicroManipulator_off-center.svg"
   inkscape:version="1.2.2 (b0a8486541, 2022-12-01)"
   xmlns:inkscape="http://www.inkscape.org/namespaces/inkscape"
   xmlns:sodipodi="http://sodipodi.sourceforge.net/DTD/sodipodi-0.dtd"
   xmlns="http://www.w3.org/2000/svg"
   xmlns:svg="http://www.w3.org/2000/svg">
  <defs
     id="defs494" />
  <sodipodi:namedview
     id="namedview492"
     pagecolor="#ffffff"
     bordercolor="#cccccc"
     borderopacity="1"
     inkscape:showpageshadow="0"
     inkscape:pageopacity="1"
     inkscape:pagecheckerboard="0"
     inkscape:deskcolor="#d1d1d1"
     inkscape:document-units="mm"
     showgrid="false"
     inkscape:zoom="1"
     inkscape:cx="388"
     inkscape:cy="236.5"
     inkscape:window-width="1192"
     inkscape:window-height="1865"
     inkscape:window-x="724"
     inkscape:window-y="291"
     inkscape:window-maximized="1"
     inkscape:current-layer="svg490" />
  <g
     id="g1687">
    <path
       id="Shape2DView_nwe0000"
       d="m 89.341291,2.971987 a 10,10 0 0 1 10,10"
       stroke="#191919"
       stroke-width="0.35 px"
       style="fill:none;fill-opacity:1;fill-rule:evenodd;stroke-width:0.35;stroke-linecap:square;stroke-miterlimit:4;stroke-dasharray:none" />
    <path
       id="Shape2DView_nwe0001"
       d="m 99.341291,38.371987 v -25.4"
       stroke="#191919"
       stroke-width="0.35 px"
       style="fill:none;fill-opacity:1;fill-rule:evenodd;stroke-width:0.35;stroke-linecap:square;stroke-miterlimit:4;stroke-dasharray:none" />
    <path
       id="Shape2DView_nwe0002"
       d="m 99.341291,38.371987 a 10,10 0 0 1 -10,10"
       stroke="#191919"
       stroke-width="0.35 px"
       style="fill:none;fill-opacity:1;fill-rule:evenodd;stroke-width:0.35;stroke-linecap:square;stroke-miterlimit:4;stroke-dasharray:none" />
    <path
       id="Shape2DView_nwe0003"
       d="m 13.141291,48.371987 h 76.2"
       stroke="#191919"
       stroke-width="0.35 px"
       style="fill:none;fill-opacity:1;fill-rule:evenodd;stroke-width:0.35;stroke-linecap:square;stroke-miterlimit:4;stroke-dasharray:none" />
    <path
       id="Shape2DView_nwe0004"
       d="m 13.141291,48.371987 a 10,10 0 0 1 -10.0000004,-10"
       stroke="#191919"
       stroke-width="0.35 px"
       style="fill:none;fill-opacity:1;fill-rule:evenodd;stroke-width:0.35;stroke-linecap:square;stroke-miterlimit:4;stroke-dasharray:none" />
    <path
       id="Shape2DView_nwe0005"
       d="m 3.1412906,12.971987 v 25.4"
       stroke="#191919"
       stroke-width="0.35 px"
       style="fill:none;fill-opacity:1;fill-rule:evenodd;stroke-width:0.35;stroke-linecap:square;stroke-miterlimit:4;stroke-dasharray:none" />
    <path
       id="Shape2DView_nwe0006"
       d="m 3.1412906,12.971987 a 10,10 0 0 1 10.0000004,-10"
       stroke="#191919"
       stroke-width="0.35 px"
       style="fill:none;fill-opacity:1;fill-rule:evenodd;stroke-width:0.35;stroke-linecap:square;stroke-miterlimit:4;stroke-dasharray:none" />
    <path
       id="Shape2DView_nwe0007"
       d="m 89.341291,2.971987 h -76.2"
       stroke="#191919"
       stroke-width="0.35 px"
       style="fill:none;fill-opacity:1;fill-rule:evenodd;stroke-width:0.35;stroke-linecap:square;stroke-miterlimit:4;stroke-dasharray:none" />
    <path
       id="circle471"
       style="fill:none;stroke:#191919;stroke-width:0.35;stroke-linecap:square"
       d="m 92.591288,38.371987 a 3.25,3.25 0 0 0 -3.25,-3.25 3.25,3.25 0 0 0 -3.25,3.25 3.25,3.25 0 0 0 3.25,3.25 3.25,3.25 0 0 0 3.25,-3.25 z" />
    <path
       id="circle473"
       style="fill:none;stroke:#191919;stroke-width:0.35;stroke-linecap:square"
       d="m 16.391291,38.371987 a 3.25,3.25 0 0 0 -3.25,-3.25 3.25,3.25 0 0 0 -3.2500004,3.25 3.25,3.25 0 0 0 3.2500004,3.25 3.25,3.25 0 0 0 3.25,-3.25 z" />
    <path
       id="circle475"
       style="fill:none;stroke:#191919;stroke-width:0.35;stroke-linecap:square"
       d="m 16.391291,12.971985 a 3.25,3.25 0 0 0 -3.25,-3.25 3.25,3.25 0 0 0 -3.2500004,3.25 3.25,3.25 0 0 0 3.2500004,3.25 3.25,3.25 0 0 0 3.25,-3.25 z" />
    <path
       id="circle477"
       style="fill:none;stroke:#191919;stroke-width:0.35;stroke-linecap:square"
       d="m 92.591288,12.971985 a 3.25,3.25 0 0 0 -3.25,-3.25 3.25,3.25 0 0 0 -3.25,3.25 3.25,3.25 0 0 0 3.25,3.25 3.25,3.25 0 0 0 3.25,-3.25 z" />
    <path
       id="circle479"
       style="fill:none;stroke:#191919;stroke-width:0.35;stroke-linecap:square"
       d="m 61.003785,41.671987 a 1.7,1.7 0 0 0 -1.700001,-1.7 1.7,1.7 0 0 0 -1.7,1.7 1.7,1.7 0 0 0 1.7,1.7 1.7,1.7 0 0 0 1.700001,-1.7 z" />
    <path
       id="circle481"
       style="fill:none;stroke:#191919;stroke-width:0.35;stroke-linecap:square"
       d="m 29.003785,41.671987 a 1.7,1.7 0 0 0 -1.700001,-1.7 1.7,1.7 0 0 0 -1.7,1.7 1.7,1.7 0 0 0 1.7,1.7 1.7,1.7 0 0 0 1.700001,-1.7 z" />
    <path
       id="circle483"
       style="fill:none;stroke:#191919;stroke-width:0.35;stroke-linecap:square"
       d="m 29.003785,9.671986 a 1.7,1.7 0 0 0 -1.700001,-1.7 1.7,1.7 0 0 0 -1.7,1.7 1.7,1.7 0 0 0 1.7,1.7 1.7,1.7 0 0 0 1.700001,-1.7 z" />
    <path
       id="circle485"
       style="fill:none;stroke:#191919;stroke-width:0.35;stroke-linecap:square"
       d="m 61.003785,9.671986 a 1.7,1.7 0 0 0 -1.700001,-1.7 1.7,1.7 0 0 0 -1.7,1.7 1.7,1.7 0 0 0 1.7,1.7 1.7,1.7 0 0 0 1.700001,-1.7 z" />
  </g>
</svg>
