<?xml version="1.0" encoding="UTF-8" standalone="no"?>
<!-- Created with Inkscape (http://www.inkscape.org/) -->

<svg
   xmlns:dc="http://purl.org/dc/elements/1.1/"
   xmlns:cc="http://creativecommons.org/ns#"
   xmlns:rdf="http://www.w3.org/1999/02/22-rdf-syntax-ns#"
   xmlns:svg="http://www.w3.org/2000/svg"
   xmlns="http://www.w3.org/2000/svg"
   xmlns:sodipodi="http://sodipodi.sourceforge.net/DTD/sodipodi-0.dtd"
   xmlns:inkscape="http://www.inkscape.org/namespaces/inkscape"
   width="304.79999mm"
   height="304.79999mm"
   viewBox="0 0 304.79999 304.79999"
   version="1.1"
   id="svg8"
   inkscape:version="0.92.4 5da689c313, 2019-01-14"
   sodipodi:docname="RedPlate-Departments.svg">
  <defs
     id="defs2" />
  <sodipodi:namedview
     id="base"
     pagecolor="#ffffff"
     bordercolor="#666666"
     borderopacity="1.0"
     inkscape:pageopacity="0.0"
     inkscape:pageshadow="2"
     inkscape:zoom="0.7"
     inkscape:cx="631.22176"
     inkscape:cy="441.77858"
     inkscape:document-units="mm"
     inkscape:current-layer="layer1"
     showgrid="false"
     units="mm"
     inkscape:window-width="1920"
     inkscape:window-height="1036"
     inkscape:window-x="0"
     inkscape:window-y="25"
     inkscape:window-maximized="1" />
  <metadata
     id="metadata5">
    <rdf:RDF>
      <cc:Work
         rdf:about="">
        <dc:format>image/svg+xml</dc:format>
        <dc:type
           rdf:resource="http://purl.org/dc/dcmitype/StillImage" />
        <dc:title />
      </cc:Work>
    </rdf:RDF>
  </metadata>
  <g
     inkscape:label="Layer 1"
     inkscape:groupmode="layer"
     id="layer1"
     transform="translate(0,7.7999993)">
    <path
       style="fill:none;fill-opacity:1;stroke:#b90000;stroke-width:0.96000005;stroke-miterlimit:4;stroke-dasharray:none;stroke-dashoffset:0;stroke-opacity:1"
       d="M 7.5585938 0 C 3.3708772 0 1.1842379e-15 3.3708772 0 7.5585938 L 0 1144.4414 C 5.9211894e-16 1148.6291 3.3708772 1152 7.5585938 1152 L 1144.4414 1152 C 1148.6291 1152 1152 1148.6291 1152 1144.4414 L 1152 38.451172 L 1132.8008 38.451172 L 1132.8008 41.285156 C 1132.8008 43.379015 1131.1153 45.066406 1129.0215 45.066406 L 1098.7852 45.066406 C 1096.6913 45.066406 1095.0059 43.379015 1095.0059 41.285156 L 1095.0059 22.388672 C 1095.0059 20.294814 1096.6913 18.609375 1098.7852 18.609375 L 1129.0215 18.609375 C 1131.1153 18.609375 1132.8008 20.294814 1132.8008 22.388672 L 1132.8008 25.222656 L 1152 25.222656 L 1152 7.5585938 C 1152 3.3708772 1148.6291 1.1842379e-15 1144.4414 0 L 7.5585938 0 z "
       transform="matrix(0.26458333,0,0,0.26458333,0,-7.7999993)"
       id="rect815" />
    <rect
       style="fill:none;fill-opacity:1;stroke:#b90000;stroke-width:0.25400001;stroke-miterlimit:4;stroke-dasharray:none;stroke-dashoffset:0;stroke-opacity:1"
       id="rect817"
       width="90"
       height="90"
       x="8.6749992"
       y="199.38335"
       rx="2"
       ry="2.0000012" />
    <rect
       style="fill:none;fill-opacity:1;stroke:#b90000;stroke-width:0.25400001;stroke-miterlimit:4;stroke-dasharray:none;stroke-dashoffset:0;stroke-opacity:1"
       id="rect817-3"
       width="90"
       height="90"
       x="8.6749992"
       y="103.38332"
       rx="2"
       ry="2.0000012" />
    <rect
       style="fill:none;fill-opacity:1;stroke:#b90000;stroke-width:0.25400001;stroke-miterlimit:4;stroke-dasharray:none;stroke-dashoffset:0;stroke-opacity:1"
       id="rect817-6"
       width="90"
       height="90"
       x="8.6749992"
       y="7.3833227"
       rx="2"
       ry="2.0000012" />
    <rect
       style="fill:none;fill-opacity:1;stroke:#b90000;stroke-width:0.25400001;stroke-miterlimit:4;stroke-dasharray:none;stroke-dashoffset:0;stroke-opacity:1"
       id="rect817-7"
       width="90"
       height="90"
       x="104.67499"
       y="7.3833227"
       rx="2"
       ry="2.0000012" />
    <rect
       style="fill:none;fill-opacity:1;stroke:#b90000;stroke-width:0.25400001;stroke-miterlimit:4;stroke-dasharray:none;stroke-dashoffset:0;stroke-opacity:1"
       id="rect817-5"
       width="90"
       height="90"
       x="200.67496"
       y="7.3833227"
       rx="2"
       ry="2.0000012" />
    <rect
       style="fill:none;fill-opacity:1;stroke:#b90000;stroke-width:0.25400001;stroke-miterlimit:4;stroke-dasharray:none;stroke-dashoffset:0;stroke-opacity:1"
       id="rect817-35"
       width="90"
       height="90"
       x="200.67496"
       y="103.38332"
       rx="2"
       ry="2.0000012" />
    <rect
       style="fill:none;fill-opacity:1;stroke:#b90000;stroke-width:0.25400001;stroke-miterlimit:4;stroke-dasharray:none;stroke-dashoffset:0;stroke-opacity:1"
       id="rect817-62"
       width="90"
       height="90"
       x="104.67499"
       y="103.38332"
       rx="2"
       ry="2.0000012" />
    <rect
       style="fill:none;fill-opacity:1;stroke:#b90000;stroke-width:0.25400001;stroke-miterlimit:4;stroke-dasharray:none;stroke-dashoffset:0;stroke-opacity:1"
       id="rect817-9"
       width="90"
       height="90"
       x="104.67499"
       y="199.38335"
       rx="2"
       ry="2.0000012" />
    <rect
       style="fill:none;fill-opacity:1;stroke:#b90000;stroke-width:0.25400001;stroke-miterlimit:4;stroke-dasharray:none;stroke-dashoffset:0;stroke-opacity:1"
       id="rect817-1"
       width="90"
       height="90"
       x="200.67496"
       y="199.38335"
       rx="2"
       ry="2.0000012" />
    <g
       aria-label="a"
       style="font-style:normal;font-variant:normal;font-weight:normal;font-stretch:normal;font-size:8.46666622px;line-height:1.25;font-family:'Source Code Pro';-inkscape-font-specification:'Source Code Pro';letter-spacing:0px;word-spacing:0px;fill:none;fill-opacity:1;stroke:#00f100;stroke-width:0.245;stroke-miterlimit:4;stroke-dasharray:none;stroke-opacity:1"
       id="text2845"
       transform="translate(169.83642,3.0238111)">
      <path
         d="m -116.60172,0.76826674 c 0.5842,0 1.1684,-0.30479998 1.6256,-0.66039996 h 0.0254 l 0.0593,0.55879997 h 0.56727 V -1.8563998 c 0,-1.0244666 -0.54187,-1.6933332 -1.66794,-1.6933332 -0.71966,0 -1.41393,0.3217333 -1.8288,0.5926666 l 0.27094,0.4741333 c 0.381,-0.2370666 0.90593,-0.4910666 1.43933,-0.4910666 0.79587,0 1.07527,0.4741333 1.0922,1.0329332 -2.12513,0.1693334 -2.98027,0.6180667 -2.98027,1.5409333 0,0.73659996 0.62654,1.16839994 1.397,1.16839994 z m 0.18627,-0.55879997 c -0.47413,0 -0.90593,-0.19473332 -0.90593,-0.66039997 0,-0.54186663 0.54186,-0.8889999 2.30293,-1.0329333 v 1.0837333 c -0.46567,0.38946665 -0.93133,0.60959997 -1.397,0.60959997 z"
         style="font-style:normal;font-variant:normal;font-weight:normal;font-stretch:normal;font-size:8.46666622px;font-family:'Source Code Pro';-inkscape-font-specification:'Source Code Pro';fill:none;stroke:#00f100;stroke-width:0.245;stroke-miterlimit:4;stroke-dasharray:none;stroke-opacity:1"
         id="path2882"
         inkscape:connector-curvature="0" />
    </g>
    <g
       aria-label="b"
       style="font-style:normal;font-variant:normal;font-weight:normal;font-stretch:normal;font-size:8.46666622px;line-height:1.25;font-family:'Source Code Pro';-inkscape-font-specification:'Source Code Pro';letter-spacing:0px;word-spacing:0px;fill:#00f000;fill-opacity:1;stroke:#00f100;stroke-width:0.245;stroke-miterlimit:4;stroke-dasharray:none;stroke-opacity:1"
       id="text2849"
       transform="translate(136.41195,36.05772)">
      <path
         d="m 13.292666,-31.359709 c 0.982133,0 1.862667,-0.821267 1.862667,-2.226734 0,-1.27 -0.601134,-2.091266 -1.710267,-2.091266 -0.4826,0 -1.007533,0.245533 -1.380066,0.626533 h -0.0254 l 0.0254,-0.795867 v -1.642533 h -0.694267 v 6.028267 h 0.5588 l 0.05927,-0.4572 h 0.0254 c 0.389466,0.347133 0.880533,0.5588 1.278466,0.5588 z m -0.110066,-0.5842 c -0.296334,0 -0.728134,-0.135467 -1.1176,-0.4826 v -2.048934 c 0.423333,-0.423333 0.846666,-0.618066 1.210733,-0.618066 0.821266,0 1.159933,0.6096 1.159933,1.515533 0,1.016 -0.5334,1.634067 -1.253066,1.634067 z"
         style="font-style:normal;font-variant:normal;font-weight:normal;font-stretch:normal;font-size:8.46666622px;font-family:'Source Code Pro';-inkscape-font-specification:'Source Code Pro';fill:#00f000;fill-opacity:1;stroke:#00f100;stroke-width:0.245;stroke-miterlimit:4;stroke-dasharray:none;stroke-opacity:1"
         id="path2879"
         inkscape:connector-curvature="0" />
    </g>
    <g
       aria-label="c"
       style="font-style:normal;font-variant:normal;font-weight:normal;font-stretch:normal;font-size:8.46666622px;line-height:1.25;font-family:'Source Code Pro';-inkscape-font-specification:'Source Code Pro';letter-spacing:0px;word-spacing:0px;fill:none;fill-opacity:1;stroke:#00f100;stroke-width:0.245;stroke-miterlimit:4;stroke-dasharray:none;stroke-opacity:1"
       id="text2853"
       transform="translate(128.12963,34.77381)">
      <path
         d="m 117.83421,-30.981732 c 0.6096,0 1.17687,-0.237067 1.63407,-0.643467 l -0.31327,-0.448733 c -0.33866,0.287867 -0.762,0.516467 -1.27,0.516467 -0.94826,0 -1.58326,-0.635 -1.58326,-1.5748 0,-0.948267 0.65193,-1.591734 1.6002,-1.591734 0.4318,0 0.7874,0.1778 1.12606,0.474134 l 0.34714,-0.448734 c -0.33867,-0.3302 -0.82974,-0.601133 -1.4986,-0.601133 -1.2446,0 -2.29447,0.7874 -2.29447,2.167467 0,1.363133 0.9652,2.150533 2.25213,2.150533 z"
         style="font-style:normal;font-variant:normal;font-weight:normal;font-stretch:normal;font-size:8.46666622px;font-family:'Source Code Pro';-inkscape-font-specification:'Source Code Pro';fill:none;stroke:#00f100;stroke-width:0.245;stroke-miterlimit:4;stroke-dasharray:none;stroke-opacity:1"
         id="path2876"
         inkscape:connector-curvature="0" />
    </g>
    <g
       aria-label="1"
       style="font-style:normal;font-variant:normal;font-weight:normal;font-stretch:normal;font-size:8.46666622px;line-height:1.25;font-family:'Source Code Pro';-inkscape-font-specification:'Source Code Pro';letter-spacing:0px;word-spacing:0px;fill:none;fill-opacity:1;stroke:#00f100;stroke-width:0.245;stroke-miterlimit:4;stroke-dasharray:none;stroke-opacity:1"
       id="text2857"
       transform="translate(373.22034,122.44135)">
      <path
         d="m -79.309684,124.64286 h 3.666066 v -0.57573 h -1.413933 v -4.826 h -0.516467 c -0.347133,0.18626 -0.753533,0.31326 -1.388533,0.39793 v 0.44873 h 1.210733 v 3.97934 h -1.557866 z"
         style="font-style:normal;font-variant:normal;font-weight:normal;font-stretch:normal;font-size:8.46666622px;font-family:'Source Code Pro';-inkscape-font-specification:'Source Code Pro';fill:none;stroke:#00f100;stroke-width:0.245;stroke-miterlimit:4;stroke-dasharray:none;stroke-opacity:1"
         id="path2867"
         inkscape:connector-curvature="0" />
    </g>
    <g
       aria-label="2"
       style="font-style:normal;font-variant:normal;font-weight:normal;font-stretch:normal;font-size:8.46666622px;line-height:1.25;font-family:'Source Code Pro';-inkscape-font-specification:'Source Code Pro';letter-spacing:0px;word-spacing:0px;fill:#00ff00;fill-opacity:1;stroke:#00f100;stroke-width:0.245;stroke-miterlimit:4;stroke-dasharray:none;stroke-opacity:1"
       id="text2861"
       transform="translate(371.48286,63.155826)">
      <path
         d="m -77.623007,87.979164 h 3.801533 v -0.601133 h -1.778 c -0.321733,0 -0.668866,0.0254 -1.007533,0.0508 1.4732,-1.337733 2.4892,-2.345267 2.4892,-3.361267 0,-0.956733 -0.677333,-1.591733 -1.761067,-1.591733 -0.762,0 -1.2954,0.3302 -1.778,0.821267 l 0.397934,0.397933 c 0.347133,-0.364067 0.7874,-0.651933 1.2954,-0.651933 0.795866,0 1.176866,0.440266 1.176866,1.058333 0,0.897467 -1.007533,1.845733 -2.836333,3.462866 z"
         style="font-style:normal;font-variant:normal;font-weight:normal;font-stretch:normal;font-size:8.46666622px;font-family:'Source Code Pro';-inkscape-font-specification:'Source Code Pro';fill:#00ff00;fill-opacity:1;stroke:#00f100;stroke-width:0.245;stroke-miterlimit:4;stroke-dasharray:none;stroke-opacity:1"
         id="path2870"
         inkscape:connector-curvature="0" />
    </g>
    <g
       aria-label="3"
       style="font-style:normal;font-variant:normal;font-weight:normal;font-stretch:normal;font-size:8.46666622px;line-height:1.25;font-family:'Source Code Pro';-inkscape-font-specification:'Source Code Pro';letter-spacing:0px;word-spacing:0px;fill:none;fill-opacity:1;stroke:#00f100;stroke-width:0.245;stroke-miterlimit:4;stroke-dasharray:none;stroke-opacity:1"
       id="text2865"
       transform="translate(358.6994,-5.6806903)">
      <path
         d="m -62.959944,60.866481 c 1.075266,0 1.9558,-0.5842 1.9558,-1.540933 0,-0.745067 -0.618067,-1.2192 -1.337733,-1.3716 v -0.03387 c 0.668866,-0.220133 1.151466,-0.635 1.151466,-1.286933 0,-0.872067 -0.770466,-1.3716 -1.786466,-1.3716 -0.694267,0 -1.278467,0.287867 -1.7272,0.677333 l 0.372533,0.440267 c 0.3556,-0.321733 0.821267,-0.550333 1.329267,-0.550333 0.6604,0 1.100666,0.3302 1.100666,0.855133 0,0.567267 -0.491066,1.007533 -1.769533,1.007533 v 0.5334 c 1.4224,0 1.964266,0.4318 1.964266,1.075267 0,0.601133 -0.558799,0.9906 -1.295399,0.9906 -0.694267,0 -1.1938,-0.3048 -1.5494,-0.643467 l -0.3556,0.4572 c 0.397933,0.397933 1.016,0.762 1.947333,0.762 z"
         style="font-style:normal;font-variant:normal;font-weight:normal;font-stretch:normal;font-size:8.46666622px;font-family:'Source Code Pro';-inkscape-font-specification:'Source Code Pro';fill:none;stroke:#00f100;stroke-width:0.245;stroke-miterlimit:4;stroke-dasharray:none;stroke-opacity:1"
         id="path2873"
         inkscape:connector-curvature="0" />
    </g>
  </g>
</svg>
