ISO-10303-21;
HEADER;
/* Generated by software containing ST-Developer
 * from STEP Tools, Inc. (www.steptools.com) 
 */

FILE_DESCRIPTION(
/* description */ (''),
/* implementation_level */ '2;1');

FILE_NAME(
/* name */ '90degRailSlider.stp',
/* time_stamp */ '2026-07-06T16:17:50-04:00',
/* author */ ('labadmin'),
/* organization */ (''),
/* preprocessor_version */ 'ST-DEVELOPER v20',
/* originating_system */ 'Autodesk Inventor 2025',
/* authorisation */ '');

FILE_SCHEMA (('AUTOMOTIVE_DESIGN { 1 0 10303 214 3 1 1 }'));
ENDSEC;

DATA;
#10=MECHANICAL_DESIGN_GEOMETRIC_PRESENTATION_REPRESENTATION('',(#13),#1419);
#11=SHAPE_REPRESENTATION_RELATIONSHIP('SRR','None',#1430,#12);
#12=ADVANCED_BREP_SHAPE_REPRESENTATION('',(#14),#1418);
#13=STYLED_ITEM('',(#1439),#14);
#14=MANIFOLD_SOLID_BREP('Solid1',#841);
#15=ELLIPSE('',#908,0.353553390593274,0.25);
#16=ELLIPSE('',#911,0.353553390593274,0.25);
#17=ELLIPSE('',#913,0.288675134594813,0.25);
#18=ELLIPSE('',#914,0.288675134594813,0.25);
#19=FACE_BOUND('',#101,.T.);
#20=FACE_BOUND('',#104,.T.);
#21=FACE_BOUND('',#108,.T.);
#22=FACE_BOUND('',#117,.T.);
#23=FACE_BOUND('',#121,.T.);
#24=FACE_BOUND('',#135,.T.);
#25=FACE_BOUND('',#141,.T.);
#26=FACE_BOUND('',#144,.T.);
#27=FACE_BOUND('',#147,.T.);
#28=PLANE('',#866);
#29=PLANE('',#869);
#30=PLANE('',#874);
#31=PLANE('',#883);
#32=PLANE('',#884);
#33=PLANE('',#889);
#34=PLANE('',#890);
#35=PLANE('',#891);
#36=PLANE('',#892);
#37=PLANE('',#893);
#38=PLANE('',#894);
#39=PLANE('',#895);
#40=PLANE('',#899);
#41=PLANE('',#900);
#42=PLANE('',#904);
#43=PLANE('',#915);
#44=PLANE('',#916);
#45=PLANE('',#917);
#46=PLANE('',#918);
#47=PLANE('',#919);
#48=PLANE('',#920);
#49=PLANE('',#921);
#50=PLANE('',#922);
#51=PLANE('',#930);
#52=PLANE('',#933);
#53=PLANE('',#935);
#54=PLANE('',#937);
#55=FACE_OUTER_BOUND('',#98,.T.);
#56=FACE_OUTER_BOUND('',#99,.T.);
#57=FACE_OUTER_BOUND('',#100,.T.);
#58=FACE_OUTER_BOUND('',#102,.T.);
#59=FACE_OUTER_BOUND('',#103,.T.);
#60=FACE_OUTER_BOUND('',#105,.T.);
#61=FACE_OUTER_BOUND('',#106,.T.);
#62=FACE_OUTER_BOUND('',#107,.T.);
#63=FACE_OUTER_BOUND('',#109,.T.);
#64=FACE_OUTER_BOUND('',#110,.T.);
#65=FACE_OUTER_BOUND('',#111,.T.);
#66=FACE_OUTER_BOUND('',#112,.T.);
#67=FACE_OUTER_BOUND('',#113,.T.);
#68=FACE_OUTER_BOUND('',#114,.T.);
#69=FACE_OUTER_BOUND('',#115,.T.);
#70=FACE_OUTER_BOUND('',#116,.T.);
#71=FACE_OUTER_BOUND('',#118,.T.);
#72=FACE_OUTER_BOUND('',#119,.T.);
#73=FACE_OUTER_BOUND('',#120,.T.);
#74=FACE_OUTER_BOUND('',#122,.T.);
#75=FACE_OUTER_BOUND('',#123,.T.);
#76=FACE_OUTER_BOUND('',#124,.T.);
#77=FACE_OUTER_BOUND('',#125,.T.);
#78=FACE_OUTER_BOUND('',#126,.T.);
#79=FACE_OUTER_BOUND('',#127,.T.);
#80=FACE_OUTER_BOUND('',#128,.T.);
#81=FACE_OUTER_BOUND('',#129,.T.);
#82=FACE_OUTER_BOUND('',#130,.T.);
#83=FACE_OUTER_BOUND('',#131,.T.);
#84=FACE_OUTER_BOUND('',#132,.T.);
#85=FACE_OUTER_BOUND('',#133,.T.);
#86=FACE_OUTER_BOUND('',#134,.T.);
#87=FACE_OUTER_BOUND('',#136,.T.);
#88=FACE_OUTER_BOUND('',#137,.T.);
#89=FACE_OUTER_BOUND('',#138,.T.);
#90=FACE_OUTER_BOUND('',#139,.T.);
#91=FACE_OUTER_BOUND('',#140,.T.);
#92=FACE_OUTER_BOUND('',#142,.T.);
#93=FACE_OUTER_BOUND('',#143,.T.);
#94=FACE_OUTER_BOUND('',#145,.T.);
#95=FACE_OUTER_BOUND('',#146,.T.);
#96=FACE_OUTER_BOUND('',#148,.T.);
#97=FACE_OUTER_BOUND('',#149,.T.);
#98=EDGE_LOOP('',(#546,#547,#548,#549));
#99=EDGE_LOOP('',(#550,#551,#552,#553,#554,#555,#556,#557,#558,#559,#560,
#561,#562,#563,#564,#565));
#100=EDGE_LOOP('',(#566,#567,#568,#569,#570,#571));
#101=EDGE_LOOP('',(#572));
#102=EDGE_LOOP('',(#573,#574,#575,#576));
#103=EDGE_LOOP('',(#577,#578,#579,#580,#581,#582,#583,#584,#585,#586,#587,
#588));
#104=EDGE_LOOP('',(#589));
#105=EDGE_LOOP('',(#590,#591,#592,#593));
#106=EDGE_LOOP('',(#594,#595,#596,#597));
#107=EDGE_LOOP('',(#598,#599,#600,#601,#602,#603));
#108=EDGE_LOOP('',(#604));
#109=EDGE_LOOP('',(#605,#606,#607,#608));
#110=EDGE_LOOP('',(#609,#610,#611,#612));
#111=EDGE_LOOP('',(#613,#614,#615,#616));
#112=EDGE_LOOP('',(#617,#618,#619,#620));
#113=EDGE_LOOP('',(#621,#622,#623,#624));
#114=EDGE_LOOP('',(#625,#626,#627,#628));
#115=EDGE_LOOP('',(#629,#630,#631,#632));
#116=EDGE_LOOP('',(#633,#634,#635,#636,#637,#638));
#117=EDGE_LOOP('',(#639));
#118=EDGE_LOOP('',(#640,#641,#642,#643));
#119=EDGE_LOOP('',(#644,#645,#646,#647));
#120=EDGE_LOOP('',(#648,#649,#650,#651,#652,#653));
#121=EDGE_LOOP('',(#654));
#122=EDGE_LOOP('',(#655,#656,#657,#658));
#123=EDGE_LOOP('',(#659,#660,#661,#662,#663,#664,#665,#666));
#124=EDGE_LOOP('',(#667,#668,#669,#670));
#125=EDGE_LOOP('',(#671,#672,#673,#674));
#126=EDGE_LOOP('',(#675,#676,#677,#678,#679,#680,#681,#682));
#127=EDGE_LOOP('',(#683,#684,#685,#686));
#128=EDGE_LOOP('',(#687,#688,#689,#690,#691));
#129=EDGE_LOOP('',(#692,#693,#694,#695));
#130=EDGE_LOOP('',(#696,#697,#698,#699));
#131=EDGE_LOOP('',(#700,#701,#702,#703,#704));
#132=EDGE_LOOP('',(#705,#706,#707,#708));
#133=EDGE_LOOP('',(#709,#710,#711,#712));
#134=EDGE_LOOP('',(#713,#714,#715,#716,#717,#718));
#135=EDGE_LOOP('',(#719));
#136=EDGE_LOOP('',(#720,#721,#722,#723));
#137=EDGE_LOOP('',(#724,#725,#726,#727));
#138=EDGE_LOOP('',(#728,#729,#730,#731));
#139=EDGE_LOOP('',(#732,#733,#734,#735));
#140=EDGE_LOOP('',(#736,#737,#738,#739,#740,#741));
#141=EDGE_LOOP('',(#742));
#142=EDGE_LOOP('',(#743,#744,#745,#746));
#143=EDGE_LOOP('',(#747,#748,#749,#750,#751,#752,#753,#754,#755,#756));
#144=EDGE_LOOP('',(#757,#758,#759,#760,#761,#762));
#145=EDGE_LOOP('',(#763,#764,#765,#766));
#146=EDGE_LOOP('',(#767,#768,#769,#770,#771,#772));
#147=EDGE_LOOP('',(#773));
#148=EDGE_LOOP('',(#774,#775,#776,#777));
#149=EDGE_LOOP('',(#778,#779,#780,#781));
#150=LINE('',#1182,#236);
#151=LINE('',#1185,#237);
#152=LINE('',#1188,#238);
#153=LINE('',#1192,#239);
#154=LINE('',#1194,#240);
#155=LINE('',#1196,#241);
#156=LINE('',#1200,#242);
#157=LINE('',#1202,#243);
#158=LINE('',#1204,#244);
#159=LINE('',#1206,#245);
#160=LINE('',#1208,#246);
#161=LINE('',#1210,#247);
#162=LINE('',#1212,#248);
#163=LINE('',#1214,#249);
#164=LINE('',#1215,#250);
#165=LINE('',#1218,#251);
#166=LINE('',#1222,#252);
#167=LINE('',#1223,#253);
#168=LINE('',#1230,#254);
#169=LINE('',#1231,#255);
#170=LINE('',#1234,#256);
#171=LINE('',#1238,#257);
#172=LINE('',#1242,#258);
#173=LINE('',#1246,#259);
#174=LINE('',#1248,#260);
#175=LINE('',#1250,#261);
#176=LINE('',#1258,#262);
#177=LINE('',#1262,#263);
#178=LINE('',#1264,#264);
#179=LINE('',#1265,#265);
#180=LINE('',#1267,#266);
#181=LINE('',#1276,#267);
#182=LINE('',#1278,#268);
#183=LINE('',#1280,#269);
#184=LINE('',#1281,#270);
#185=LINE('',#1284,#271);
#186=LINE('',#1286,#272);
#187=LINE('',#1287,#273);
#188=LINE('',#1290,#274);
#189=LINE('',#1292,#275);
#190=LINE('',#1293,#276);
#191=LINE('',#1296,#277);
#192=LINE('',#1298,#278);
#193=LINE('',#1299,#279);
#194=LINE('',#1302,#280);
#195=LINE('',#1304,#281);
#196=LINE('',#1305,#282);
#197=LINE('',#1307,#283);
#198=LINE('',#1308,#284);
#199=LINE('',#1314,#285);
#200=LINE('',#1317,#286);
#201=LINE('',#1320,#287);
#202=LINE('',#1321,#288);
#203=LINE('',#1324,#289);
#204=LINE('',#1326,#290);
#205=LINE('',#1328,#291);
#206=LINE('',#1333,#292);
#207=LINE('',#1338,#293);
#208=LINE('',#1339,#294);
#209=LINE('',#1340,#295);
#210=LINE('',#1344,#296);
#211=LINE('',#1347,#297);
#212=LINE('',#1353,#298);
#213=LINE('',#1358,#299);
#214=LINE('',#1361,#300);
#215=LINE('',#1363,#301);
#216=LINE('',#1366,#302);
#217=LINE('',#1368,#303);
#218=LINE('',#1369,#304);
#219=LINE('',#1372,#305);
#220=LINE('',#1373,#306);
#221=LINE('',#1376,#307);
#222=LINE('',#1377,#308);
#223=LINE('',#1380,#309);
#224=LINE('',#1381,#310);
#225=LINE('',#1384,#311);
#226=LINE('',#1385,#312);
#227=LINE('',#1387,#313);
#228=LINE('',#1392,#314);
#229=LINE('',#1396,#315);
#230=LINE('',#1398,#316);
#231=LINE('',#1402,#317);
#232=LINE('',#1405,#318);
#233=LINE('',#1406,#319);
#234=LINE('',#1410,#320);
#235=LINE('',#1413,#321);
#236=VECTOR('',#944,0.393700787401575);
#237=VECTOR('',#947,0.393700787401575);
#238=VECTOR('',#950,0.393700787401575);
#239=VECTOR('',#953,0.393700787401575);
#240=VECTOR('',#954,0.393700787401575);
#241=VECTOR('',#955,0.393700787401575);
#242=VECTOR('',#958,0.393700787401575);
#243=VECTOR('',#959,0.393700787401575);
#244=VECTOR('',#960,0.393700787401575);
#245=VECTOR('',#961,0.393700787401575);
#246=VECTOR('',#962,0.393700787401575);
#247=VECTOR('',#963,0.393700787401575);
#248=VECTOR('',#964,0.393700787401575);
#249=VECTOR('',#965,0.393700787401575);
#250=VECTOR('',#966,0.393700787401575);
#251=VECTOR('',#969,0.393700787401575);
#252=VECTOR('',#972,0.393700787401575);
#253=VECTOR('',#973,0.393700787401575);
#254=VECTOR('',#980,0.393700787401575);
#255=VECTOR('',#981,0.393700787401575);
#256=VECTOR('',#984,0.393700787401575);
#257=VECTOR('',#987,0.393700787401575);
#258=VECTOR('',#990,0.393700787401575);
#259=VECTOR('',#993,0.393700787401575);
#260=VECTOR('',#994,0.393700787401575);
#261=VECTOR('',#995,0.393700787401575);
#262=VECTOR('',#1004,0.393700787401575);
#263=VECTOR('',#1009,0.393700787401575);
#264=VECTOR('',#1010,0.393700787401575);
#265=VECTOR('',#1011,0.393700787401575);
#266=VECTOR('',#1014,0.393700787401575);
#267=VECTOR('',#1025,0.393700787401575);
#268=VECTOR('',#1026,0.393700787401575);
#269=VECTOR('',#1027,0.393700787401575);
#270=VECTOR('',#1028,0.393700787401575);
#271=VECTOR('',#1031,0.393700787401575);
#272=VECTOR('',#1032,0.393700787401575);
#273=VECTOR('',#1033,0.393700787401575);
#274=VECTOR('',#1036,0.393700787401575);
#275=VECTOR('',#1037,0.393700787401575);
#276=VECTOR('',#1038,0.393700787401575);
#277=VECTOR('',#1041,0.393700787401575);
#278=VECTOR('',#1042,0.393700787401575);
#279=VECTOR('',#1043,0.393700787401575);
#280=VECTOR('',#1046,0.393700787401575);
#281=VECTOR('',#1047,0.393700787401575);
#282=VECTOR('',#1048,0.393700787401575);
#283=VECTOR('',#1051,0.393700787401575);
#284=VECTOR('',#1052,0.393700787401575);
#285=VECTOR('',#1059,0.393700787401575);
#286=VECTOR('',#1062,0.393700787401575);
#287=VECTOR('',#1065,0.393700787401575);
#288=VECTOR('',#1066,0.393700787401575);
#289=VECTOR('',#1069,0.393700787401575);
#290=VECTOR('',#1070,0.393700787401575);
#291=VECTOR('',#1071,0.393700787401575);
#292=VECTOR('',#1078,0.393700787401575);
#293=VECTOR('',#1083,0.393700787401575);
#294=VECTOR('',#1084,0.393700787401575);
#295=VECTOR('',#1085,0.393700787401575);
#296=VECTOR('',#1088,0.393700787401575);
#297=VECTOR('',#1091,0.393700787401575);
#298=VECTOR('',#1098,0.393700787401575);
#299=VECTOR('',#1105,0.393700787401575);
#300=VECTOR('',#1108,0.393700787401575);
#301=VECTOR('',#1111,0.393700787401575);
#302=VECTOR('',#1114,0.393700787401575);
#303=VECTOR('',#1115,0.393700787401575);
#304=VECTOR('',#1116,0.393700787401575);
#305=VECTOR('',#1119,0.393700787401575);
#306=VECTOR('',#1120,0.393700787401575);
#307=VECTOR('',#1123,0.393700787401575);
#308=VECTOR('',#1124,0.393700787401575);
#309=VECTOR('',#1127,0.393700787401575);
#310=VECTOR('',#1128,0.393700787401575);
#311=VECTOR('',#1131,0.393700787401575);
#312=VECTOR('',#1132,0.393700787401575);
#313=VECTOR('',#1135,0.393700787401575);
#314=VECTOR('',#1142,0.097);
#315=VECTOR('',#1147,0.097);
#316=VECTOR('',#1150,0.097);
#317=VECTOR('',#1155,0.097);
#318=VECTOR('',#1158,0.393700787401575);
#319=VECTOR('',#1159,0.393700787401575);
#320=VECTOR('',#1166,0.393700787401575);
#321=VECTOR('',#1171,0.393700787401575);
#322=CIRCLE('',#864,0.25);
#323=CIRCLE('',#865,0.25);
#324=CIRCLE('',#867,0.3125);
#325=CIRCLE('',#868,0.375);
#326=CIRCLE('',#870,0.25);
#327=CIRCLE('',#871,0.097);
#328=CIRCLE('',#873,0.25);
#329=CIRCLE('',#875,0.25);
#330=CIRCLE('',#876,0.25);
#331=CIRCLE('',#877,0.375);
#332=CIRCLE('',#878,0.3125);
#333=CIRCLE('',#879,0.097);
#334=CIRCLE('',#881,0.25);
#335=CIRCLE('',#882,0.25);
#336=CIRCLE('',#885,0.25);
#337=CIRCLE('',#886,0.097);
#338=CIRCLE('',#888,0.25);
#339=CIRCLE('',#896,0.097);
#340=CIRCLE('',#898,0.25);
#341=CIRCLE('',#901,0.25);
#342=CIRCLE('',#902,0.097);
#343=CIRCLE('',#905,0.1925);
#344=CIRCLE('',#907,0.25);
#345=CIRCLE('',#910,0.25);
#346=CIRCLE('',#923,0.097);
#347=CIRCLE('',#926,0.097);
#348=CIRCLE('',#929,0.097);
#349=CIRCLE('',#932,0.1925);
#350=VERTEX_POINT('',#1178);
#351=VERTEX_POINT('',#1179);
#352=VERTEX_POINT('',#1181);
#353=VERTEX_POINT('',#1183);
#354=VERTEX_POINT('',#1187);
#355=VERTEX_POINT('',#1189);
#356=VERTEX_POINT('',#1191);
#357=VERTEX_POINT('',#1193);
#358=VERTEX_POINT('',#1195);
#359=VERTEX_POINT('',#1197);
#360=VERTEX_POINT('',#1199);
#361=VERTEX_POINT('',#1201);
#362=VERTEX_POINT('',#1203);
#363=VERTEX_POINT('',#1205);
#364=VERTEX_POINT('',#1207);
#365=VERTEX_POINT('',#1209);
#366=VERTEX_POINT('',#1211);
#367=VERTEX_POINT('',#1213);
#368=VERTEX_POINT('',#1217);
#369=VERTEX_POINT('',#1219);
#370=VERTEX_POINT('',#1221);
#371=VERTEX_POINT('',#1224);
#372=VERTEX_POINT('',#1227);
#373=VERTEX_POINT('',#1228);
#374=VERTEX_POINT('',#1233);
#375=VERTEX_POINT('',#1235);
#376=VERTEX_POINT('',#1237);
#377=VERTEX_POINT('',#1239);
#378=VERTEX_POINT('',#1241);
#379=VERTEX_POINT('',#1243);
#380=VERTEX_POINT('',#1245);
#381=VERTEX_POINT('',#1247);
#382=VERTEX_POINT('',#1249);
#383=VERTEX_POINT('',#1252);
#384=VERTEX_POINT('',#1255);
#385=VERTEX_POINT('',#1257);
#386=VERTEX_POINT('',#1261);
#387=VERTEX_POINT('',#1263);
#388=VERTEX_POINT('',#1269);
#389=VERTEX_POINT('',#1274);
#390=VERTEX_POINT('',#1275);
#391=VERTEX_POINT('',#1277);
#392=VERTEX_POINT('',#1279);
#393=VERTEX_POINT('',#1283);
#394=VERTEX_POINT('',#1285);
#395=VERTEX_POINT('',#1289);
#396=VERTEX_POINT('',#1291);
#397=VERTEX_POINT('',#1295);
#398=VERTEX_POINT('',#1297);
#399=VERTEX_POINT('',#1301);
#400=VERTEX_POINT('',#1303);
#401=VERTEX_POINT('',#1310);
#402=VERTEX_POINT('',#1313);
#403=VERTEX_POINT('',#1315);
#404=VERTEX_POINT('',#1319);
#405=VERTEX_POINT('',#1323);
#406=VERTEX_POINT('',#1325);
#407=VERTEX_POINT('',#1327);
#408=VERTEX_POINT('',#1330);
#409=VERTEX_POINT('',#1335);
#410=VERTEX_POINT('',#1337);
#411=VERTEX_POINT('',#1342);
#412=VERTEX_POINT('',#1343);
#413=VERTEX_POINT('',#1345);
#414=VERTEX_POINT('',#1350);
#415=VERTEX_POINT('',#1352);
#416=VERTEX_POINT('',#1356);
#417=VERTEX_POINT('',#1359);
#418=VERTEX_POINT('',#1365);
#419=VERTEX_POINT('',#1367);
#420=VERTEX_POINT('',#1371);
#421=VERTEX_POINT('',#1375);
#422=VERTEX_POINT('',#1379);
#423=VERTEX_POINT('',#1383);
#424=VERTEX_POINT('',#1389);
#425=VERTEX_POINT('',#1394);
#426=VERTEX_POINT('',#1400);
#427=VERTEX_POINT('',#1404);
#428=EDGE_CURVE('',#350,#351,#322,.T.);
#429=EDGE_CURVE('',#351,#352,#150,.T.);
#430=EDGE_CURVE('',#352,#353,#323,.T.);
#431=EDGE_CURVE('',#353,#350,#151,.T.);
#432=EDGE_CURVE('',#353,#354,#152,.T.);
#433=EDGE_CURVE('',#354,#355,#324,.T.);
#434=EDGE_CURVE('',#355,#356,#153,.T.);
#435=EDGE_CURVE('',#357,#356,#154,.T.);
#436=EDGE_CURVE('',#357,#358,#155,.T.);
#437=EDGE_CURVE('',#358,#359,#325,.T.);
#438=EDGE_CURVE('',#359,#360,#156,.T.);
#439=EDGE_CURVE('',#361,#360,#157,.T.);
#440=EDGE_CURVE('',#361,#362,#158,.T.);
#441=EDGE_CURVE('',#362,#363,#159,.T.);
#442=EDGE_CURVE('',#363,#364,#160,.T.);
#443=EDGE_CURVE('',#364,#365,#161,.T.);
#444=EDGE_CURVE('',#365,#366,#162,.T.);
#445=EDGE_CURVE('',#367,#366,#163,.T.);
#446=EDGE_CURVE('',#367,#350,#164,.T.);
#447=EDGE_CURVE('',#368,#352,#165,.T.);
#448=EDGE_CURVE('',#369,#368,#326,.T.);
#449=EDGE_CURVE('',#369,#370,#166,.T.);
#450=EDGE_CURVE('',#370,#354,#167,.T.);
#451=EDGE_CURVE('',#371,#371,#327,.T.);
#452=EDGE_CURVE('',#372,#373,#328,.T.);
#453=EDGE_CURVE('',#373,#369,#168,.T.);
#454=EDGE_CURVE('',#368,#372,#169,.T.);
#455=EDGE_CURVE('',#374,#373,#170,.T.);
#456=EDGE_CURVE('',#375,#374,#329,.T.);
#457=EDGE_CURVE('',#376,#375,#171,.T.);
#458=EDGE_CURVE('',#377,#376,#330,.T.);
#459=EDGE_CURVE('',#378,#377,#172,.T.);
#460=EDGE_CURVE('',#379,#378,#331,.T.);
#461=EDGE_CURVE('',#380,#379,#173,.T.);
#462=EDGE_CURVE('',#381,#380,#174,.T.);
#463=EDGE_CURVE('',#382,#381,#175,.T.);
#464=EDGE_CURVE('',#370,#382,#332,.T.);
#465=EDGE_CURVE('',#383,#383,#333,.T.);
#466=EDGE_CURVE('',#380,#384,#334,.T.);
#467=EDGE_CURVE('',#384,#385,#176,.T.);
#468=EDGE_CURVE('',#385,#381,#335,.T.);
#469=EDGE_CURVE('',#384,#386,#177,.T.);
#470=EDGE_CURVE('',#387,#386,#178,.T.);
#471=EDGE_CURVE('',#385,#387,#179,.T.);
#472=EDGE_CURVE('',#379,#358,#180,.T.);
#473=EDGE_CURVE('',#386,#357,#336,.T.);
#474=EDGE_CURVE('',#388,#388,#337,.T.);
#475=EDGE_CURVE('',#356,#387,#338,.T.);
#476=EDGE_CURVE('',#389,#390,#181,.T.);
#477=EDGE_CURVE('',#389,#391,#182,.T.);
#478=EDGE_CURVE('',#391,#392,#183,.T.);
#479=EDGE_CURVE('',#390,#392,#184,.T.);
#480=EDGE_CURVE('',#393,#389,#185,.T.);
#481=EDGE_CURVE('',#393,#394,#186,.T.);
#482=EDGE_CURVE('',#394,#391,#187,.T.);
#483=EDGE_CURVE('',#395,#393,#188,.T.);
#484=EDGE_CURVE('',#395,#396,#189,.T.);
#485=EDGE_CURVE('',#396,#394,#190,.T.);
#486=EDGE_CURVE('',#397,#395,#191,.T.);
#487=EDGE_CURVE('',#397,#398,#192,.T.);
#488=EDGE_CURVE('',#398,#396,#193,.T.);
#489=EDGE_CURVE('',#399,#397,#194,.T.);
#490=EDGE_CURVE('',#399,#400,#195,.T.);
#491=EDGE_CURVE('',#400,#398,#196,.T.);
#492=EDGE_CURVE('',#390,#399,#197,.T.);
#493=EDGE_CURVE('',#392,#400,#198,.T.);
#494=EDGE_CURVE('',#401,#401,#339,.T.);
#495=EDGE_CURVE('',#374,#402,#199,.T.);
#496=EDGE_CURVE('',#402,#403,#340,.T.);
#497=EDGE_CURVE('',#403,#375,#200,.T.);
#498=EDGE_CURVE('',#403,#404,#201,.T.);
#499=EDGE_CURVE('',#376,#404,#202,.T.);
#500=EDGE_CURVE('',#405,#402,#203,.T.);
#501=EDGE_CURVE('',#406,#405,#204,.T.);
#502=EDGE_CURVE('',#407,#406,#205,.T.);
#503=EDGE_CURVE('',#404,#407,#341,.T.);
#504=EDGE_CURVE('',#408,#408,#342,.T.);
#505=EDGE_CURVE('',#407,#377,#206,.T.);
#506=EDGE_CURVE('',#406,#409,#343,.T.);
#507=EDGE_CURVE('',#409,#410,#207,.T.);
#508=EDGE_CURVE('',#360,#410,#208,.T.);
#509=EDGE_CURVE('',#378,#359,#209,.T.);
#510=EDGE_CURVE('',#411,#412,#210,.T.);
#511=EDGE_CURVE('',#412,#413,#344,.T.);
#512=EDGE_CURVE('',#413,#367,#211,.T.);
#513=EDGE_CURVE('',#367,#411,#15,.T.);
#514=EDGE_CURVE('',#410,#414,#345,.T.);
#515=EDGE_CURVE('',#414,#415,#212,.T.);
#516=EDGE_CURVE('',#415,#360,#16,.T.);
#517=EDGE_CURVE('',#416,#361,#17,.T.);
#518=EDGE_CURVE('',#415,#411,#213,.T.);
#519=EDGE_CURVE('',#366,#417,#18,.T.);
#520=EDGE_CURVE('',#417,#416,#214,.T.);
#521=EDGE_CURVE('',#414,#412,#215,.T.);
#522=EDGE_CURVE('',#416,#418,#216,.T.);
#523=EDGE_CURVE('',#418,#419,#217,.T.);
#524=EDGE_CURVE('',#362,#419,#218,.T.);
#525=EDGE_CURVE('',#419,#420,#219,.T.);
#526=EDGE_CURVE('',#363,#420,#220,.T.);
#527=EDGE_CURVE('',#417,#421,#221,.T.);
#528=EDGE_CURVE('',#421,#418,#222,.T.);
#529=EDGE_CURVE('',#365,#422,#223,.T.);
#530=EDGE_CURVE('',#422,#421,#224,.T.);
#531=EDGE_CURVE('',#364,#423,#225,.T.);
#532=EDGE_CURVE('',#423,#422,#226,.T.);
#533=EDGE_CURVE('',#420,#423,#227,.T.);
#534=EDGE_CURVE('',#424,#424,#346,.T.);
#535=EDGE_CURVE('',#383,#408,#228,.T.);
#536=EDGE_CURVE('',#425,#425,#347,.T.);
#537=EDGE_CURVE('',#425,#424,#229,.T.);
#538=EDGE_CURVE('',#371,#401,#230,.T.);
#539=EDGE_CURVE('',#426,#426,#348,.T.);
#540=EDGE_CURVE('',#426,#388,#231,.T.);
#541=EDGE_CURVE('',#427,#409,#232,.T.);
#542=EDGE_CURVE('',#413,#427,#233,.T.);
#543=EDGE_CURVE('',#427,#405,#349,.T.);
#544=EDGE_CURVE('',#372,#351,#234,.T.);
#545=EDGE_CURVE('',#382,#355,#235,.T.);
#546=ORIENTED_EDGE('',*,*,#428,.T.);
#547=ORIENTED_EDGE('',*,*,#429,.T.);
#548=ORIENTED_EDGE('',*,*,#430,.T.);
#549=ORIENTED_EDGE('',*,*,#431,.T.);
#550=ORIENTED_EDGE('',*,*,#431,.F.);
#551=ORIENTED_EDGE('',*,*,#432,.T.);
#552=ORIENTED_EDGE('',*,*,#433,.T.);
#553=ORIENTED_EDGE('',*,*,#434,.T.);
#554=ORIENTED_EDGE('',*,*,#435,.F.);
#555=ORIENTED_EDGE('',*,*,#436,.T.);
#556=ORIENTED_EDGE('',*,*,#437,.T.);
#557=ORIENTED_EDGE('',*,*,#438,.T.);
#558=ORIENTED_EDGE('',*,*,#439,.F.);
#559=ORIENTED_EDGE('',*,*,#440,.T.);
#560=ORIENTED_EDGE('',*,*,#441,.T.);
#561=ORIENTED_EDGE('',*,*,#442,.T.);
#562=ORIENTED_EDGE('',*,*,#443,.T.);
#563=ORIENTED_EDGE('',*,*,#444,.T.);
#564=ORIENTED_EDGE('',*,*,#445,.F.);
#565=ORIENTED_EDGE('',*,*,#446,.T.);
#566=ORIENTED_EDGE('',*,*,#430,.F.);
#567=ORIENTED_EDGE('',*,*,#447,.F.);
#568=ORIENTED_EDGE('',*,*,#448,.F.);
#569=ORIENTED_EDGE('',*,*,#449,.T.);
#570=ORIENTED_EDGE('',*,*,#450,.T.);
#571=ORIENTED_EDGE('',*,*,#432,.F.);
#572=ORIENTED_EDGE('',*,*,#451,.T.);
#573=ORIENTED_EDGE('',*,*,#452,.T.);
#574=ORIENTED_EDGE('',*,*,#453,.T.);
#575=ORIENTED_EDGE('',*,*,#448,.T.);
#576=ORIENTED_EDGE('',*,*,#454,.T.);
#577=ORIENTED_EDGE('',*,*,#453,.F.);
#578=ORIENTED_EDGE('',*,*,#455,.F.);
#579=ORIENTED_EDGE('',*,*,#456,.F.);
#580=ORIENTED_EDGE('',*,*,#457,.F.);
#581=ORIENTED_EDGE('',*,*,#458,.F.);
#582=ORIENTED_EDGE('',*,*,#459,.F.);
#583=ORIENTED_EDGE('',*,*,#460,.F.);
#584=ORIENTED_EDGE('',*,*,#461,.F.);
#585=ORIENTED_EDGE('',*,*,#462,.F.);
#586=ORIENTED_EDGE('',*,*,#463,.F.);
#587=ORIENTED_EDGE('',*,*,#464,.F.);
#588=ORIENTED_EDGE('',*,*,#449,.F.);
#589=ORIENTED_EDGE('',*,*,#465,.T.);
#590=ORIENTED_EDGE('',*,*,#466,.T.);
#591=ORIENTED_EDGE('',*,*,#467,.T.);
#592=ORIENTED_EDGE('',*,*,#468,.T.);
#593=ORIENTED_EDGE('',*,*,#462,.T.);
#594=ORIENTED_EDGE('',*,*,#467,.F.);
#595=ORIENTED_EDGE('',*,*,#469,.T.);
#596=ORIENTED_EDGE('',*,*,#470,.F.);
#597=ORIENTED_EDGE('',*,*,#471,.F.);
#598=ORIENTED_EDGE('',*,*,#466,.F.);
#599=ORIENTED_EDGE('',*,*,#461,.T.);
#600=ORIENTED_EDGE('',*,*,#472,.T.);
#601=ORIENTED_EDGE('',*,*,#436,.F.);
#602=ORIENTED_EDGE('',*,*,#473,.F.);
#603=ORIENTED_EDGE('',*,*,#469,.F.);
#604=ORIENTED_EDGE('',*,*,#474,.T.);
#605=ORIENTED_EDGE('',*,*,#473,.T.);
#606=ORIENTED_EDGE('',*,*,#435,.T.);
#607=ORIENTED_EDGE('',*,*,#475,.T.);
#608=ORIENTED_EDGE('',*,*,#470,.T.);
#609=ORIENTED_EDGE('',*,*,#476,.F.);
#610=ORIENTED_EDGE('',*,*,#477,.T.);
#611=ORIENTED_EDGE('',*,*,#478,.T.);
#612=ORIENTED_EDGE('',*,*,#479,.F.);
#613=ORIENTED_EDGE('',*,*,#480,.F.);
#614=ORIENTED_EDGE('',*,*,#481,.T.);
#615=ORIENTED_EDGE('',*,*,#482,.T.);
#616=ORIENTED_EDGE('',*,*,#477,.F.);
#617=ORIENTED_EDGE('',*,*,#483,.F.);
#618=ORIENTED_EDGE('',*,*,#484,.T.);
#619=ORIENTED_EDGE('',*,*,#485,.T.);
#620=ORIENTED_EDGE('',*,*,#481,.F.);
#621=ORIENTED_EDGE('',*,*,#486,.F.);
#622=ORIENTED_EDGE('',*,*,#487,.T.);
#623=ORIENTED_EDGE('',*,*,#488,.T.);
#624=ORIENTED_EDGE('',*,*,#484,.F.);
#625=ORIENTED_EDGE('',*,*,#489,.F.);
#626=ORIENTED_EDGE('',*,*,#490,.T.);
#627=ORIENTED_EDGE('',*,*,#491,.T.);
#628=ORIENTED_EDGE('',*,*,#487,.F.);
#629=ORIENTED_EDGE('',*,*,#492,.F.);
#630=ORIENTED_EDGE('',*,*,#479,.T.);
#631=ORIENTED_EDGE('',*,*,#493,.T.);
#632=ORIENTED_EDGE('',*,*,#490,.F.);
#633=ORIENTED_EDGE('',*,*,#493,.F.);
#634=ORIENTED_EDGE('',*,*,#478,.F.);
#635=ORIENTED_EDGE('',*,*,#482,.F.);
#636=ORIENTED_EDGE('',*,*,#485,.F.);
#637=ORIENTED_EDGE('',*,*,#488,.F.);
#638=ORIENTED_EDGE('',*,*,#491,.F.);
#639=ORIENTED_EDGE('',*,*,#494,.F.);
#640=ORIENTED_EDGE('',*,*,#456,.T.);
#641=ORIENTED_EDGE('',*,*,#495,.T.);
#642=ORIENTED_EDGE('',*,*,#496,.T.);
#643=ORIENTED_EDGE('',*,*,#497,.T.);
#644=ORIENTED_EDGE('',*,*,#497,.F.);
#645=ORIENTED_EDGE('',*,*,#498,.T.);
#646=ORIENTED_EDGE('',*,*,#499,.F.);
#647=ORIENTED_EDGE('',*,*,#457,.T.);
#648=ORIENTED_EDGE('',*,*,#496,.F.);
#649=ORIENTED_EDGE('',*,*,#500,.F.);
#650=ORIENTED_EDGE('',*,*,#501,.F.);
#651=ORIENTED_EDGE('',*,*,#502,.F.);
#652=ORIENTED_EDGE('',*,*,#503,.F.);
#653=ORIENTED_EDGE('',*,*,#498,.F.);
#654=ORIENTED_EDGE('',*,*,#504,.T.);
#655=ORIENTED_EDGE('',*,*,#458,.T.);
#656=ORIENTED_EDGE('',*,*,#499,.T.);
#657=ORIENTED_EDGE('',*,*,#503,.T.);
#658=ORIENTED_EDGE('',*,*,#505,.T.);
#659=ORIENTED_EDGE('',*,*,#505,.F.);
#660=ORIENTED_EDGE('',*,*,#502,.T.);
#661=ORIENTED_EDGE('',*,*,#506,.T.);
#662=ORIENTED_EDGE('',*,*,#507,.T.);
#663=ORIENTED_EDGE('',*,*,#508,.F.);
#664=ORIENTED_EDGE('',*,*,#438,.F.);
#665=ORIENTED_EDGE('',*,*,#509,.F.);
#666=ORIENTED_EDGE('',*,*,#459,.T.);
#667=ORIENTED_EDGE('',*,*,#510,.T.);
#668=ORIENTED_EDGE('',*,*,#511,.T.);
#669=ORIENTED_EDGE('',*,*,#512,.T.);
#670=ORIENTED_EDGE('',*,*,#513,.T.);
#671=ORIENTED_EDGE('',*,*,#508,.T.);
#672=ORIENTED_EDGE('',*,*,#514,.T.);
#673=ORIENTED_EDGE('',*,*,#515,.T.);
#674=ORIENTED_EDGE('',*,*,#516,.T.);
#675=ORIENTED_EDGE('',*,*,#517,.T.);
#676=ORIENTED_EDGE('',*,*,#439,.T.);
#677=ORIENTED_EDGE('',*,*,#516,.F.);
#678=ORIENTED_EDGE('',*,*,#518,.T.);
#679=ORIENTED_EDGE('',*,*,#513,.F.);
#680=ORIENTED_EDGE('',*,*,#445,.T.);
#681=ORIENTED_EDGE('',*,*,#519,.T.);
#682=ORIENTED_EDGE('',*,*,#520,.T.);
#683=ORIENTED_EDGE('',*,*,#510,.F.);
#684=ORIENTED_EDGE('',*,*,#518,.F.);
#685=ORIENTED_EDGE('',*,*,#515,.F.);
#686=ORIENTED_EDGE('',*,*,#521,.T.);
#687=ORIENTED_EDGE('',*,*,#517,.F.);
#688=ORIENTED_EDGE('',*,*,#522,.T.);
#689=ORIENTED_EDGE('',*,*,#523,.T.);
#690=ORIENTED_EDGE('',*,*,#524,.F.);
#691=ORIENTED_EDGE('',*,*,#440,.F.);
#692=ORIENTED_EDGE('',*,*,#441,.F.);
#693=ORIENTED_EDGE('',*,*,#524,.T.);
#694=ORIENTED_EDGE('',*,*,#525,.T.);
#695=ORIENTED_EDGE('',*,*,#526,.F.);
#696=ORIENTED_EDGE('',*,*,#520,.F.);
#697=ORIENTED_EDGE('',*,*,#527,.T.);
#698=ORIENTED_EDGE('',*,*,#528,.T.);
#699=ORIENTED_EDGE('',*,*,#522,.F.);
#700=ORIENTED_EDGE('',*,*,#519,.F.);
#701=ORIENTED_EDGE('',*,*,#444,.F.);
#702=ORIENTED_EDGE('',*,*,#529,.T.);
#703=ORIENTED_EDGE('',*,*,#530,.T.);
#704=ORIENTED_EDGE('',*,*,#527,.F.);
#705=ORIENTED_EDGE('',*,*,#443,.F.);
#706=ORIENTED_EDGE('',*,*,#531,.T.);
#707=ORIENTED_EDGE('',*,*,#532,.T.);
#708=ORIENTED_EDGE('',*,*,#529,.F.);
#709=ORIENTED_EDGE('',*,*,#442,.F.);
#710=ORIENTED_EDGE('',*,*,#526,.T.);
#711=ORIENTED_EDGE('',*,*,#533,.T.);
#712=ORIENTED_EDGE('',*,*,#531,.F.);
#713=ORIENTED_EDGE('',*,*,#533,.F.);
#714=ORIENTED_EDGE('',*,*,#525,.F.);
#715=ORIENTED_EDGE('',*,*,#523,.F.);
#716=ORIENTED_EDGE('',*,*,#528,.F.);
#717=ORIENTED_EDGE('',*,*,#530,.F.);
#718=ORIENTED_EDGE('',*,*,#532,.F.);
#719=ORIENTED_EDGE('',*,*,#534,.F.);
#720=ORIENTED_EDGE('',*,*,#465,.F.);
#721=ORIENTED_EDGE('',*,*,#535,.T.);
#722=ORIENTED_EDGE('',*,*,#504,.F.);
#723=ORIENTED_EDGE('',*,*,#535,.F.);
#724=ORIENTED_EDGE('',*,*,#536,.F.);
#725=ORIENTED_EDGE('',*,*,#537,.T.);
#726=ORIENTED_EDGE('',*,*,#534,.T.);
#727=ORIENTED_EDGE('',*,*,#537,.F.);
#728=ORIENTED_EDGE('',*,*,#451,.F.);
#729=ORIENTED_EDGE('',*,*,#538,.T.);
#730=ORIENTED_EDGE('',*,*,#494,.T.);
#731=ORIENTED_EDGE('',*,*,#538,.F.);
#732=ORIENTED_EDGE('',*,*,#539,.F.);
#733=ORIENTED_EDGE('',*,*,#540,.T.);
#734=ORIENTED_EDGE('',*,*,#474,.F.);
#735=ORIENTED_EDGE('',*,*,#540,.F.);
#736=ORIENTED_EDGE('',*,*,#511,.F.);
#737=ORIENTED_EDGE('',*,*,#521,.F.);
#738=ORIENTED_EDGE('',*,*,#514,.F.);
#739=ORIENTED_EDGE('',*,*,#507,.F.);
#740=ORIENTED_EDGE('',*,*,#541,.F.);
#741=ORIENTED_EDGE('',*,*,#542,.F.);
#742=ORIENTED_EDGE('',*,*,#536,.T.);
#743=ORIENTED_EDGE('',*,*,#506,.F.);
#744=ORIENTED_EDGE('',*,*,#501,.T.);
#745=ORIENTED_EDGE('',*,*,#543,.F.);
#746=ORIENTED_EDGE('',*,*,#541,.T.);
#747=ORIENTED_EDGE('',*,*,#428,.F.);
#748=ORIENTED_EDGE('',*,*,#446,.F.);
#749=ORIENTED_EDGE('',*,*,#512,.F.);
#750=ORIENTED_EDGE('',*,*,#542,.T.);
#751=ORIENTED_EDGE('',*,*,#543,.T.);
#752=ORIENTED_EDGE('',*,*,#500,.T.);
#753=ORIENTED_EDGE('',*,*,#495,.F.);
#754=ORIENTED_EDGE('',*,*,#455,.T.);
#755=ORIENTED_EDGE('',*,*,#452,.F.);
#756=ORIENTED_EDGE('',*,*,#544,.T.);
#757=ORIENTED_EDGE('',*,*,#476,.T.);
#758=ORIENTED_EDGE('',*,*,#492,.T.);
#759=ORIENTED_EDGE('',*,*,#489,.T.);
#760=ORIENTED_EDGE('',*,*,#486,.T.);
#761=ORIENTED_EDGE('',*,*,#483,.T.);
#762=ORIENTED_EDGE('',*,*,#480,.T.);
#763=ORIENTED_EDGE('',*,*,#460,.T.);
#764=ORIENTED_EDGE('',*,*,#509,.T.);
#765=ORIENTED_EDGE('',*,*,#437,.F.);
#766=ORIENTED_EDGE('',*,*,#472,.F.);
#767=ORIENTED_EDGE('',*,*,#468,.F.);
#768=ORIENTED_EDGE('',*,*,#471,.T.);
#769=ORIENTED_EDGE('',*,*,#475,.F.);
#770=ORIENTED_EDGE('',*,*,#434,.F.);
#771=ORIENTED_EDGE('',*,*,#545,.F.);
#772=ORIENTED_EDGE('',*,*,#463,.T.);
#773=ORIENTED_EDGE('',*,*,#539,.T.);
#774=ORIENTED_EDGE('',*,*,#464,.T.);
#775=ORIENTED_EDGE('',*,*,#545,.T.);
#776=ORIENTED_EDGE('',*,*,#433,.F.);
#777=ORIENTED_EDGE('',*,*,#450,.F.);
#778=ORIENTED_EDGE('',*,*,#429,.F.);
#779=ORIENTED_EDGE('',*,*,#544,.F.);
#780=ORIENTED_EDGE('',*,*,#454,.F.);
#781=ORIENTED_EDGE('',*,*,#447,.T.);
#782=CYLINDRICAL_SURFACE('',#863,0.25);
#783=CYLINDRICAL_SURFACE('',#872,0.25);
#784=CYLINDRICAL_SURFACE('',#880,0.25);
#785=CYLINDRICAL_SURFACE('',#887,0.25);
#786=CYLINDRICAL_SURFACE('',#897,0.25);
#787=CYLINDRICAL_SURFACE('',#903,0.25);
#788=CYLINDRICAL_SURFACE('',#906,0.25);
#789=CYLINDRICAL_SURFACE('',#909,0.25);
#790=CYLINDRICAL_SURFACE('',#912,0.25);
#791=CYLINDRICAL_SURFACE('',#924,0.097);
#792=CYLINDRICAL_SURFACE('',#925,0.097);
#793=CYLINDRICAL_SURFACE('',#927,0.097);
#794=CYLINDRICAL_SURFACE('',#928,0.097);
#795=CYLINDRICAL_SURFACE('',#931,0.1925);
#796=CYLINDRICAL_SURFACE('',#934,0.375);
#797=CYLINDRICAL_SURFACE('',#936,0.3125);
#798=ADVANCED_FACE('',(#55),#782,.T.);
#799=ADVANCED_FACE('',(#56),#28,.T.);
#800=ADVANCED_FACE('',(#57,#19),#29,.T.);
#801=ADVANCED_FACE('',(#58),#783,.T.);
#802=ADVANCED_FACE('',(#59,#20),#30,.F.);
#803=ADVANCED_FACE('',(#60),#784,.T.);
#804=ADVANCED_FACE('',(#61),#31,.T.);
#805=ADVANCED_FACE('',(#62,#21),#32,.T.);
#806=ADVANCED_FACE('',(#63),#785,.T.);
#807=ADVANCED_FACE('',(#64),#33,.F.);
#808=ADVANCED_FACE('',(#65),#34,.F.);
#809=ADVANCED_FACE('',(#66),#35,.F.);
#810=ADVANCED_FACE('',(#67),#36,.F.);
#811=ADVANCED_FACE('',(#68),#37,.F.);
#812=ADVANCED_FACE('',(#69),#38,.F.);
#813=ADVANCED_FACE('',(#70,#22),#39,.F.);
#814=ADVANCED_FACE('',(#71),#786,.T.);
#815=ADVANCED_FACE('',(#72),#40,.T.);
#816=ADVANCED_FACE('',(#73,#23),#41,.F.);
#817=ADVANCED_FACE('',(#74),#787,.T.);
#818=ADVANCED_FACE('',(#75),#42,.T.);
#819=ADVANCED_FACE('',(#76),#788,.T.);
#820=ADVANCED_FACE('',(#77),#789,.T.);
#821=ADVANCED_FACE('',(#78),#790,.T.);
#822=ADVANCED_FACE('',(#79),#43,.T.);
#823=ADVANCED_FACE('',(#80),#44,.F.);
#824=ADVANCED_FACE('',(#81),#45,.F.);
#825=ADVANCED_FACE('',(#82),#46,.F.);
#826=ADVANCED_FACE('',(#83),#47,.F.);
#827=ADVANCED_FACE('',(#84),#48,.F.);
#828=ADVANCED_FACE('',(#85),#49,.F.);
#829=ADVANCED_FACE('',(#86,#24),#50,.F.);
#830=ADVANCED_FACE('',(#87),#791,.F.);
#831=ADVANCED_FACE('',(#88),#792,.F.);
#832=ADVANCED_FACE('',(#89),#793,.F.);
#833=ADVANCED_FACE('',(#90),#794,.F.);
#834=ADVANCED_FACE('',(#91,#25),#51,.F.);
#835=ADVANCED_FACE('',(#92),#795,.F.);
#836=ADVANCED_FACE('',(#93,#26),#52,.T.);
#837=ADVANCED_FACE('',(#94),#796,.T.);
#838=ADVANCED_FACE('',(#95,#27),#53,.T.);
#839=ADVANCED_FACE('',(#96),#797,.F.);
#840=ADVANCED_FACE('',(#97),#54,.T.);
#841=CLOSED_SHELL('',(#798,#799,#800,#801,#802,#803,#804,#805,#806,#807,
#808,#809,#810,#811,#812,#813,#814,#815,#816,#817,#818,#819,#820,#821,#822,
#823,#824,#825,#826,#827,#828,#829,#830,#831,#832,#833,#834,#835,#836,#837,
#838,#839,#840));
#842=DERIVED_UNIT_ELEMENT(#844,1.);
#843=DERIVED_UNIT_ELEMENT(#1424,-3.);
#844=(
CONVERSION_BASED_UNIT('gram',#846)
MASS_UNIT()
NAMED_UNIT(#1421)
);
#845=(
MASS_UNIT()
NAMED_UNIT(*)
SI_UNIT(.KILO.,.GRAM.)
);
#846=MASS_MEASURE_WITH_UNIT(MASS_MEASURE(0.001),#845);
#847=DERIVED_UNIT((#842,#843));
#848=MEASURE_REPRESENTATION_ITEM('density measure',
POSITIVE_RATIO_MEASURE(1.),#847);
#849=PROPERTY_DEFINITION_REPRESENTATION(#854,#851);
#850=PROPERTY_DEFINITION_REPRESENTATION(#855,#852);
#851=REPRESENTATION('material name',(#853),#1418);
#852=REPRESENTATION('density',(#848),#1418);
#853=DESCRIPTIVE_REPRESENTATION_ITEM('Generic','Generic');
#854=PROPERTY_DEFINITION('material property','material name',#1432);
#855=PROPERTY_DEFINITION('material property','density of part',#1432);
#856=DATE_TIME_ROLE('creation_date');
#857=APPLIED_DATE_AND_TIME_ASSIGNMENT(#858,#856,(#1432));
#858=DATE_AND_TIME(#859,#860);
#859=CALENDAR_DATE(2026,22,6);
#860=LOCAL_TIME(0,0,0.,#861);
#861=COORDINATED_UNIVERSAL_TIME_OFFSET(0,0,.BEHIND.);
#862=AXIS2_PLACEMENT_3D('',#1176,#938,#939);
#863=AXIS2_PLACEMENT_3D('',#1177,#940,#941);
#864=AXIS2_PLACEMENT_3D('',#1180,#942,#943);
#865=AXIS2_PLACEMENT_3D('',#1184,#945,#946);
#866=AXIS2_PLACEMENT_3D('',#1186,#948,#949);
#867=AXIS2_PLACEMENT_3D('',#1190,#951,#952);
#868=AXIS2_PLACEMENT_3D('',#1198,#956,#957);
#869=AXIS2_PLACEMENT_3D('',#1216,#967,#968);
#870=AXIS2_PLACEMENT_3D('',#1220,#970,#971);
#871=AXIS2_PLACEMENT_3D('',#1225,#974,#975);
#872=AXIS2_PLACEMENT_3D('',#1226,#976,#977);
#873=AXIS2_PLACEMENT_3D('',#1229,#978,#979);
#874=AXIS2_PLACEMENT_3D('',#1232,#982,#983);
#875=AXIS2_PLACEMENT_3D('',#1236,#985,#986);
#876=AXIS2_PLACEMENT_3D('',#1240,#988,#989);
#877=AXIS2_PLACEMENT_3D('',#1244,#991,#992);
#878=AXIS2_PLACEMENT_3D('',#1251,#996,#997);
#879=AXIS2_PLACEMENT_3D('',#1253,#998,#999);
#880=AXIS2_PLACEMENT_3D('',#1254,#1000,#1001);
#881=AXIS2_PLACEMENT_3D('',#1256,#1002,#1003);
#882=AXIS2_PLACEMENT_3D('',#1259,#1005,#1006);
#883=AXIS2_PLACEMENT_3D('',#1260,#1007,#1008);
#884=AXIS2_PLACEMENT_3D('',#1266,#1012,#1013);
#885=AXIS2_PLACEMENT_3D('',#1268,#1015,#1016);
#886=AXIS2_PLACEMENT_3D('',#1270,#1017,#1018);
#887=AXIS2_PLACEMENT_3D('',#1271,#1019,#1020);
#888=AXIS2_PLACEMENT_3D('',#1272,#1021,#1022);
#889=AXIS2_PLACEMENT_3D('',#1273,#1023,#1024);
#890=AXIS2_PLACEMENT_3D('',#1282,#1029,#1030);
#891=AXIS2_PLACEMENT_3D('',#1288,#1034,#1035);
#892=AXIS2_PLACEMENT_3D('',#1294,#1039,#1040);
#893=AXIS2_PLACEMENT_3D('',#1300,#1044,#1045);
#894=AXIS2_PLACEMENT_3D('',#1306,#1049,#1050);
#895=AXIS2_PLACEMENT_3D('',#1309,#1053,#1054);
#896=AXIS2_PLACEMENT_3D('',#1311,#1055,#1056);
#897=AXIS2_PLACEMENT_3D('',#1312,#1057,#1058);
#898=AXIS2_PLACEMENT_3D('',#1316,#1060,#1061);
#899=AXIS2_PLACEMENT_3D('',#1318,#1063,#1064);
#900=AXIS2_PLACEMENT_3D('',#1322,#1067,#1068);
#901=AXIS2_PLACEMENT_3D('',#1329,#1072,#1073);
#902=AXIS2_PLACEMENT_3D('',#1331,#1074,#1075);
#903=AXIS2_PLACEMENT_3D('',#1332,#1076,#1077);
#904=AXIS2_PLACEMENT_3D('',#1334,#1079,#1080);
#905=AXIS2_PLACEMENT_3D('',#1336,#1081,#1082);
#906=AXIS2_PLACEMENT_3D('',#1341,#1086,#1087);
#907=AXIS2_PLACEMENT_3D('',#1346,#1089,#1090);
#908=AXIS2_PLACEMENT_3D('',#1348,#1092,#1093);
#909=AXIS2_PLACEMENT_3D('',#1349,#1094,#1095);
#910=AXIS2_PLACEMENT_3D('',#1351,#1096,#1097);
#911=AXIS2_PLACEMENT_3D('',#1354,#1099,#1100);
#912=AXIS2_PLACEMENT_3D('',#1355,#1101,#1102);
#913=AXIS2_PLACEMENT_3D('',#1357,#1103,#1104);
#914=AXIS2_PLACEMENT_3D('',#1360,#1106,#1107);
#915=AXIS2_PLACEMENT_3D('',#1362,#1109,#1110);
#916=AXIS2_PLACEMENT_3D('',#1364,#1112,#1113);
#917=AXIS2_PLACEMENT_3D('',#1370,#1117,#1118);
#918=AXIS2_PLACEMENT_3D('',#1374,#1121,#1122);
#919=AXIS2_PLACEMENT_3D('',#1378,#1125,#1126);
#920=AXIS2_PLACEMENT_3D('',#1382,#1129,#1130);
#921=AXIS2_PLACEMENT_3D('',#1386,#1133,#1134);
#922=AXIS2_PLACEMENT_3D('',#1388,#1136,#1137);
#923=AXIS2_PLACEMENT_3D('',#1390,#1138,#1139);
#924=AXIS2_PLACEMENT_3D('',#1391,#1140,#1141);
#925=AXIS2_PLACEMENT_3D('',#1393,#1143,#1144);
#926=AXIS2_PLACEMENT_3D('',#1395,#1145,#1146);
#927=AXIS2_PLACEMENT_3D('',#1397,#1148,#1149);
#928=AXIS2_PLACEMENT_3D('',#1399,#1151,#1152);
#929=AXIS2_PLACEMENT_3D('',#1401,#1153,#1154);
#930=AXIS2_PLACEMENT_3D('',#1403,#1156,#1157);
#931=AXIS2_PLACEMENT_3D('',#1407,#1160,#1161);
#932=AXIS2_PLACEMENT_3D('',#1408,#1162,#1163);
#933=AXIS2_PLACEMENT_3D('',#1409,#1164,#1165);
#934=AXIS2_PLACEMENT_3D('',#1411,#1167,#1168);
#935=AXIS2_PLACEMENT_3D('',#1412,#1169,#1170);
#936=AXIS2_PLACEMENT_3D('',#1414,#1172,#1173);
#937=AXIS2_PLACEMENT_3D('',#1415,#1174,#1175);
#938=DIRECTION('axis',(0.,0.,1.));
#939=DIRECTION('refdir',(1.,0.,0.));
#940=DIRECTION('center_axis',(-1.,0.,0.));
#941=DIRECTION('ref_axis',(0.,0.707106781186547,0.707106781186548));
#942=DIRECTION('center_axis',(-1.,2.0004378900974E-16,0.));
#943=DIRECTION('ref_axis',(0.,0.707106781186547,0.707106781186548));
#944=DIRECTION('',(-1.,0.,0.));
#945=DIRECTION('center_axis',(1.,-4.26622783767375E-16,0.));
#946=DIRECTION('ref_axis',(0.,0.707106781186547,0.707106781186548));
#947=DIRECTION('',(1.,0.,0.));
#948=DIRECTION('center_axis',(0.,0.,1.));
#949=DIRECTION('ref_axis',(1.,0.,0.));
#950=DIRECTION('',(-4.26622783767375E-16,-1.,0.));
#951=DIRECTION('center_axis',(0.,0.,-1.));
#952=DIRECTION('ref_axis',(0.0800000000000002,-0.996794863550169,0.));
#953=DIRECTION('',(-4.26622783767375E-16,1.,0.));
#954=DIRECTION('',(1.,0.,0.));
#955=DIRECTION('',(1.0283504280501E-15,-1.,0.));
#956=DIRECTION('center_axis',(0.,0.,1.));
#957=DIRECTION('ref_axis',(-0.4,0.916515138991168,0.));
#958=DIRECTION('',(1.79957049902861E-16,-1.,0.));
#959=DIRECTION('',(-1.,0.,0.));
#960=DIRECTION('',(-0.499999999999999,0.866025403784439,0.));
#961=DIRECTION('',(0.5,0.866025403784438,0.));
#962=DIRECTION('',(1.,0.,0.));
#963=DIRECTION('',(0.499999999999999,-0.866025403784439,0.));
#964=DIRECTION('',(-0.5,-0.866025403784439,0.));
#965=DIRECTION('',(-1.,0.,0.));
#966=DIRECTION('',(2.0004378900974E-16,1.,0.));
#967=DIRECTION('center_axis',(-1.,4.26622783767375E-16,0.));
#968=DIRECTION('ref_axis',(-4.26622783767375E-16,-1.,0.));
#969=DIRECTION('',(0.,0.,1.));
#970=DIRECTION('center_axis',(1.,-4.26622783767375E-16,0.));
#971=DIRECTION('ref_axis',(0.,0.707106781186547,-0.707106781186548));
#972=DIRECTION('',(-4.26622783767375E-16,-1.,0.));
#973=DIRECTION('',(0.,0.,1.));
#974=DIRECTION('center_axis',(1.,-4.26622783767375E-16,0.));
#975=DIRECTION('ref_axis',(0.,1.,0.));
#976=DIRECTION('center_axis',(-1.,0.,0.));
#977=DIRECTION('ref_axis',(0.,0.707106781186547,-0.707106781186548));
#978=DIRECTION('center_axis',(-1.,2.0004378900974E-16,0.));
#979=DIRECTION('ref_axis',(0.,0.707106781186547,-0.707106781186548));
#980=DIRECTION('',(-1.,0.,0.));
#981=DIRECTION('',(1.,0.,0.));
#982=DIRECTION('center_axis',(0.,0.,1.));
#983=DIRECTION('ref_axis',(1.,0.,0.));
#984=DIRECTION('',(2.0004378900974E-16,1.,0.));
#985=DIRECTION('center_axis',(0.,0.,1.));
#986=DIRECTION('ref_axis',(0.707106781186548,-0.707106781186547,0.));
#987=DIRECTION('',(1.,0.,0.));
#988=DIRECTION('center_axis',(0.,0.,1.));
#989=DIRECTION('ref_axis',(-0.707106781186547,-0.707106781186548,0.));
#990=DIRECTION('',(1.79957049902861E-16,-1.,0.));
#991=DIRECTION('center_axis',(0.,0.,1.));
#992=DIRECTION('ref_axis',(-0.4,0.916515138991168,0.));
#993=DIRECTION('',(1.0283504280501E-15,-1.,0.));
#994=DIRECTION('',(-1.,0.,0.));
#995=DIRECTION('',(-4.26622783767375E-16,1.,0.));
#996=DIRECTION('center_axis',(0.,0.,-1.));
#997=DIRECTION('ref_axis',(0.0800000000000002,-0.996794863550169,0.));
#998=DIRECTION('center_axis',(0.,0.,1.));
#999=DIRECTION('ref_axis',(1.,0.,0.));
#1000=DIRECTION('center_axis',(-1.,0.,0.));
#1001=DIRECTION('ref_axis',(0.,0.707106781186547,-0.707106781186548));
#1002=DIRECTION('center_axis',(1.,1.0283504280501E-15,0.));
#1003=DIRECTION('ref_axis',(0.,0.707106781186547,-0.707106781186548));
#1004=DIRECTION('',(1.,0.,0.));
#1005=DIRECTION('center_axis',(-1.,-4.26622783767375E-16,0.));
#1006=DIRECTION('ref_axis',(0.,0.707106781186547,-0.707106781186548));
#1007=DIRECTION('center_axis',(0.,1.,0.));
#1008=DIRECTION('ref_axis',(-1.,0.,0.));
#1009=DIRECTION('',(0.,0.,1.));
#1010=DIRECTION('',(-1.,0.,0.));
#1011=DIRECTION('',(0.,0.,1.));
#1012=DIRECTION('center_axis',(-1.,-1.0283504280501E-15,0.));
#1013=DIRECTION('ref_axis',(1.0283504280501E-15,-1.,0.));
#1014=DIRECTION('',(0.,0.,1.));
#1015=DIRECTION('center_axis',(1.,1.0283504280501E-15,0.));
#1016=DIRECTION('ref_axis',(0.,0.707106781186547,0.707106781186548));
#1017=DIRECTION('center_axis',(1.,1.0283504280501E-15,0.));
#1018=DIRECTION('ref_axis',(0.,1.,0.));
#1019=DIRECTION('center_axis',(-1.,0.,0.));
#1020=DIRECTION('ref_axis',(0.,0.707106781186547,0.707106781186548));
#1021=DIRECTION('center_axis',(-1.,-4.26622783767375E-16,0.));
#1022=DIRECTION('ref_axis',(0.,0.707106781186547,0.707106781186548));
#1023=DIRECTION('center_axis',(0.,1.,-1.10121858053583E-16));
#1024=DIRECTION('ref_axis',(-2.20291937378315E-32,-1.10121858053583E-16,
-1.));
#1025=DIRECTION('',(-2.20291937378315E-32,-1.10121858053583E-16,-1.));
#1026=DIRECTION('',(-1.,0.,0.));
#1027=DIRECTION('',(-2.20291937378315E-32,-1.10121858053583E-16,-1.));
#1028=DIRECTION('',(-1.,0.,0.));
#1029=DIRECTION('center_axis',(0.,0.500000000000001,0.866025403784438));
#1030=DIRECTION('ref_axis',(1.73243003151729E-16,0.866025403784438,-0.5));
#1031=DIRECTION('',(1.73243003151729E-16,0.866025403784438,-0.5));
#1032=DIRECTION('',(-1.,0.,0.));
#1033=DIRECTION('',(1.73243003151729E-16,0.866025403784438,-0.5));
#1034=DIRECTION('center_axis',(0.,-0.500000000000001,0.866025403784438));
#1035=DIRECTION('ref_axis',(1.73243003151729E-16,0.866025403784438,0.500000000000001));
#1036=DIRECTION('',(1.73243003151729E-16,0.866025403784438,0.500000000000001));
#1037=DIRECTION('',(-1.,0.,0.));
#1038=DIRECTION('',(1.73243003151729E-16,0.866025403784438,0.500000000000001));
#1039=DIRECTION('center_axis',(0.,-1.,1.76194972885733E-15));
#1040=DIRECTION('ref_axis',(3.52467099805305E-31,1.76194972885733E-15,1.));
#1041=DIRECTION('',(3.52467099805305E-31,1.76194972885733E-15,1.));
#1042=DIRECTION('',(-1.,0.,0.));
#1043=DIRECTION('',(3.52467099805305E-31,1.76194972885733E-15,1.));
#1044=DIRECTION('center_axis',(0.,-0.500000000000001,-0.866025403784438));
#1045=DIRECTION('ref_axis',(-1.73243003151729E-16,-0.866025403784438,0.500000000000001));
#1046=DIRECTION('',(-1.73243003151729E-16,-0.866025403784438,0.500000000000001));
#1047=DIRECTION('',(-1.,0.,0.));
#1048=DIRECTION('',(-1.73243003151729E-16,-0.866025403784438,0.500000000000001));
#1049=DIRECTION('center_axis',(0.,0.5,-0.866025403784438));
#1050=DIRECTION('ref_axis',(-1.73243003151729E-16,-0.866025403784438,-0.5));
#1051=DIRECTION('',(-1.73243003151729E-16,-0.866025403784438,-0.5));
#1052=DIRECTION('',(-1.73243003151729E-16,-0.866025403784438,-0.5));
#1053=DIRECTION('center_axis',(-1.,0.,0.));
#1054=DIRECTION('ref_axis',(0.,0.,1.));
#1055=DIRECTION('center_axis',(1.,0.,0.));
#1056=DIRECTION('ref_axis',(0.,1.,0.));
#1057=DIRECTION('center_axis',(0.,0.,1.));
#1058=DIRECTION('ref_axis',(0.707106781186548,-0.707106781186547,0.));
#1059=DIRECTION('',(0.,0.,1.));
#1060=DIRECTION('center_axis',(0.,1.0423643732412E-15,-1.));
#1061=DIRECTION('ref_axis',(0.707106781186548,-0.707106781186547,0.));
#1062=DIRECTION('',(0.,0.,-1.));
#1063=DIRECTION('center_axis',(0.,-1.,0.));
#1064=DIRECTION('ref_axis',(1.,0.,0.));
#1065=DIRECTION('',(-1.,0.,0.));
#1066=DIRECTION('',(0.,0.,1.));
#1067=DIRECTION('center_axis',(0.,1.0423643732412E-15,-1.));
#1068=DIRECTION('ref_axis',(0.,1.,1.0423643732412E-15));
#1069=DIRECTION('',(-2.0004378900974E-16,-1.,-1.0423643732412E-15));
#1070=DIRECTION('',(1.,0.,0.));
#1071=DIRECTION('',(-1.79957049902861E-16,1.,1.0423643732412E-15));
#1072=DIRECTION('center_axis',(0.,1.0423643732412E-15,-1.));
#1073=DIRECTION('ref_axis',(-0.707106781186547,-0.707106781186548,0.));
#1074=DIRECTION('center_axis',(0.,1.0423643732412E-15,-1.));
#1075=DIRECTION('ref_axis',(1.,0.,0.));
#1076=DIRECTION('center_axis',(0.,0.,1.));
#1077=DIRECTION('ref_axis',(-0.707106781186547,-0.707106781186548,0.));
#1078=DIRECTION('',(0.,0.,-1.));
#1079=DIRECTION('center_axis',(-1.,-1.79957049902861E-16,0.));
#1080=DIRECTION('ref_axis',(1.79957049902861E-16,-1.,0.));
#1081=DIRECTION('center_axis',(1.,1.79957049902861E-16,0.));
#1082=DIRECTION('ref_axis',(0.,-0.99153101281176,-0.12987012987013));
#1083=DIRECTION('',(1.79957049902861E-16,-1.,-3.20727499458832E-16));
#1084=DIRECTION('',(0.,0.,-1.));
#1085=DIRECTION('',(0.,0.,1.));
#1086=DIRECTION('center_axis',(0.,0.,1.));
#1087=DIRECTION('ref_axis',(0.707106781186548,-0.707106781186547,0.));
#1088=DIRECTION('',(0.,0.,-1.));
#1089=DIRECTION('center_axis',(0.,-3.20727499458832E-16,1.));
#1090=DIRECTION('ref_axis',(0.707106781186548,-0.707106781186547,0.));
#1091=DIRECTION('',(0.,0.,1.));
#1092=DIRECTION('center_axis',(0.707106781186548,0.,-0.707106781186548));
#1093=DIRECTION('ref_axis',(-0.707106781186547,0.,-0.707106781186547));
#1094=DIRECTION('center_axis',(0.,0.,1.));
#1095=DIRECTION('ref_axis',(-0.707106781186547,-0.707106781186548,0.));
#1096=DIRECTION('center_axis',(0.,-3.20727499458832E-16,1.));
#1097=DIRECTION('ref_axis',(-0.707106781186547,-0.707106781186548,0.));
#1098=DIRECTION('',(0.,0.,1.));
#1099=DIRECTION('center_axis',(-0.707106781186548,0.,-0.707106781186548));
#1100=DIRECTION('ref_axis',(0.707106781186547,0.,-0.707106781186547));
#1101=DIRECTION('center_axis',(1.,0.,0.));
#1102=DIRECTION('ref_axis',(0.,-0.707106781186548,0.707106781186548));
#1103=DIRECTION('center_axis',(-0.866025403784439,-0.499999999999999,0.));
#1104=DIRECTION('ref_axis',(0.499999999999999,-0.866025403784439,0.));
#1105=DIRECTION('',(1.,0.,0.));
#1106=DIRECTION('center_axis',(0.866025403784439,-0.5,0.));
#1107=DIRECTION('ref_axis',(-0.5,-0.866025403784438,0.));
#1108=DIRECTION('',(-1.,0.,0.));
#1109=DIRECTION('center_axis',(0.,-1.,0.));
#1110=DIRECTION('ref_axis',(1.,0.,0.));
#1111=DIRECTION('',(1.,0.,0.));
#1112=DIRECTION('center_axis',(-0.866025403784439,-0.499999999999999,0.));
#1113=DIRECTION('ref_axis',(-0.499999999999999,0.866025403784439,-1.26178653962176E-16));
#1114=DIRECTION('',(0.,0.,-1.));
#1115=DIRECTION('',(-0.499999999999999,0.866025403784439,-1.26178653962176E-16));
#1116=DIRECTION('',(0.,0.,-1.));
#1117=DIRECTION('center_axis',(-0.866025403784439,0.5,0.));
#1118=DIRECTION('ref_axis',(0.5,0.866025403784438,-1.26178653962176E-16));
#1119=DIRECTION('',(0.5,0.866025403784438,-1.26178653962176E-16));
#1120=DIRECTION('',(0.,0.,-1.));
#1121=DIRECTION('center_axis',(-2.20243716107166E-16,-1.,0.));
#1122=DIRECTION('ref_axis',(-1.,2.20243716107166E-16,-3.20891922114413E-32));
#1123=DIRECTION('',(0.,0.,-1.));
#1124=DIRECTION('',(-1.,2.20243716107166E-16,-3.20891922114413E-32));
#1125=DIRECTION('center_axis',(0.866025403784439,-0.5,0.));
#1126=DIRECTION('ref_axis',(-0.5,-0.866025403784439,1.26178653962176E-16));
#1127=DIRECTION('',(0.,0.,-1.));
#1128=DIRECTION('',(-0.5,-0.866025403784439,1.26178653962176E-16));
#1129=DIRECTION('center_axis',(0.866025403784439,0.499999999999999,0.));
#1130=DIRECTION('ref_axis',(0.499999999999999,-0.866025403784439,1.26178653962176E-16));
#1131=DIRECTION('',(0.,0.,-1.));
#1132=DIRECTION('',(0.499999999999999,-0.866025403784439,1.26178653962176E-16));
#1133=DIRECTION('center_axis',(0.,1.,0.));
#1134=DIRECTION('ref_axis',(1.,0.,0.));
#1135=DIRECTION('',(1.,0.,0.));
#1136=DIRECTION('center_axis',(0.,0.,-1.));
#1137=DIRECTION('ref_axis',(-1.,0.,0.));
#1138=DIRECTION('center_axis',(0.,0.,1.));
#1139=DIRECTION('ref_axis',(1.,0.,0.));
#1140=DIRECTION('center_axis',(0.,0.,1.));
#1141=DIRECTION('ref_axis',(1.,0.,0.));
#1142=DIRECTION('',(0.,0.,1.));
#1143=DIRECTION('center_axis',(0.,0.,1.));
#1144=DIRECTION('ref_axis',(1.,0.,0.));
#1145=DIRECTION('center_axis',(0.,-3.20727499458832E-16,1.));
#1146=DIRECTION('ref_axis',(1.,0.,0.));
#1147=DIRECTION('',(0.,0.,1.));
#1148=DIRECTION('center_axis',(1.,0.,0.));
#1149=DIRECTION('ref_axis',(0.,1.,0.));
#1150=DIRECTION('',(1.,0.,0.));
#1151=DIRECTION('center_axis',(1.,0.,0.));
#1152=DIRECTION('ref_axis',(0.,1.,0.));
#1153=DIRECTION('center_axis',(-1.,-4.26622783767375E-16,0.));
#1154=DIRECTION('ref_axis',(0.,1.,0.));
#1155=DIRECTION('',(-1.,0.,0.));
#1156=DIRECTION('center_axis',(0.,-3.20727499458832E-16,1.));
#1157=DIRECTION('ref_axis',(0.,-1.,-3.20727499458832E-16));
#1158=DIRECTION('',(-1.,0.,0.));
#1159=DIRECTION('',(2.0004378900974E-16,1.,3.20727499458832E-16));
#1160=DIRECTION('center_axis',(1.,0.,0.));
#1161=DIRECTION('ref_axis',(0.,1.,2.83828362978105E-17));
#1162=DIRECTION('center_axis',(-1.,2.0004378900974E-16,0.));
#1163=DIRECTION('ref_axis',(0.,-0.99153101281176,-0.12987012987013));
#1164=DIRECTION('center_axis',(1.,-2.0004378900974E-16,0.));
#1165=DIRECTION('ref_axis',(2.0004378900974E-16,1.,0.));
#1166=DIRECTION('',(0.,0.,1.));
#1167=DIRECTION('center_axis',(0.,0.,1.));
#1168=DIRECTION('ref_axis',(-0.4,0.916515138991168,0.));
#1169=DIRECTION('center_axis',(1.,4.26622783767375E-16,0.));
#1170=DIRECTION('ref_axis',(-4.26622783767375E-16,1.,0.));
#1171=DIRECTION('',(0.,0.,1.));
#1172=DIRECTION('center_axis',(0.,0.,1.));
#1173=DIRECTION('ref_axis',(0.0800000000000002,-0.996794863550169,0.));
#1174=DIRECTION('center_axis',(0.,1.,0.));
#1175=DIRECTION('ref_axis',(-1.,0.,0.));
#1176=CARTESIAN_POINT('',(0.,0.,0.));
#1177=CARTESIAN_POINT('Origin',(0.1875,1.,0.375));
#1178=CARTESIAN_POINT('',(0.375,1.,0.625));
#1179=CARTESIAN_POINT('',(0.375,1.25,0.375));
#1180=CARTESIAN_POINT('Origin',(0.375,1.,0.375));
#1181=CARTESIAN_POINT('',(0.0250000000000003,1.25,0.375));
#1182=CARTESIAN_POINT('',(0.1875,1.25,0.375));
#1183=CARTESIAN_POINT('',(0.0250000000000002,1.,0.625));
#1184=CARTESIAN_POINT('Origin',(0.0250000000000003,1.,0.375));
#1185=CARTESIAN_POINT('',(0.1875,1.,0.625));
#1186=CARTESIAN_POINT('Origin',(0.,0.157,0.625));
#1187=CARTESIAN_POINT('',(0.025,0.686498394859428,0.625));
#1188=CARTESIAN_POINT('',(0.0250000000000003,1.25,0.625));
#1189=CARTESIAN_POINT('',(-0.025,0.686498394859428,0.625));
#1190=CARTESIAN_POINT('Origin',(0.,0.375,0.625));
#1191=CARTESIAN_POINT('',(-0.0250000000000002,1.,0.625));
#1192=CARTESIAN_POINT('',(-0.0250000000000001,0.686498394859428,0.625));
#1193=CARTESIAN_POINT('',(-0.15,1.,0.625));
#1194=CARTESIAN_POINT('',(-0.0125000000000001,1.,0.625));
#1195=CARTESIAN_POINT('',(-0.15,0.718693177121688,0.625));
#1196=CARTESIAN_POINT('',(-0.15,1.25,0.625));
#1197=CARTESIAN_POINT('',(-0.375,0.375,0.625));
#1198=CARTESIAN_POINT('Origin',(0.,0.375,0.625));
#1199=CARTESIAN_POINT('',(-0.375,-0.686,0.625));
#1200=CARTESIAN_POINT('',(-0.375,1.25,0.625));
#1201=CARTESIAN_POINT('',(-0.169592486540519,-0.686,0.625));
#1202=CARTESIAN_POINT('',(-0.1875,-0.686,0.625));
#1203=CARTESIAN_POINT('',(-0.19846,-0.636,0.625));
#1204=CARTESIAN_POINT('',(-0.295727036300265,-0.467528551226294,0.625));
#1205=CARTESIAN_POINT('',(-0.0992299999999999,-0.46412859836494,0.625));
#1206=CARTESIAN_POINT('',(-0.00196296369973488,-0.295657149591235,0.625));
#1207=CARTESIAN_POINT('',(0.0992300000000002,-0.46412859836494,0.625));
#1208=CARTESIAN_POINT('',(-0.049615,-0.46412859836494,0.625));
#1209=CARTESIAN_POINT('',(0.19846,-0.636,0.625));
#1210=CARTESIAN_POINT('',(-0.0476520363002645,-0.209721448773705,0.625));
#1211=CARTESIAN_POINT('',(0.169592486540519,-0.686,0.625));
#1212=CARTESIAN_POINT('',(0.345342036300265,-0.381592850408765,0.625));
#1213=CARTESIAN_POINT('',(0.375,-0.686,0.625));
#1214=CARTESIAN_POINT('',(-0.1875,-0.686,0.625));
#1215=CARTESIAN_POINT('',(0.375,-0.936,0.625));
#1216=CARTESIAN_POINT('Origin',(0.0250000000000003,1.25,0.));
#1217=CARTESIAN_POINT('',(0.0250000000000003,1.25,0.25));
#1218=CARTESIAN_POINT('',(0.0250000000000003,1.25,0.));
#1219=CARTESIAN_POINT('',(0.0250000000000002,1.,0.));
#1220=CARTESIAN_POINT('Origin',(0.0250000000000003,1.,0.25));
#1221=CARTESIAN_POINT('',(0.0250000000000001,0.686498394859428,0.));
#1222=CARTESIAN_POINT('',(0.0250000000000003,1.25,0.));
#1223=CARTESIAN_POINT('',(0.0250000000000001,0.686498394859428,0.));
#1224=CARTESIAN_POINT('',(0.0250000000000001,0.889498394859428,0.3125));
#1225=CARTESIAN_POINT('Origin',(0.0250000000000001,0.986498394859428,0.3125));
#1226=CARTESIAN_POINT('Origin',(0.1875,1.,0.25));
#1227=CARTESIAN_POINT('',(0.375,1.25,0.25));
#1228=CARTESIAN_POINT('',(0.375,1.,0.));
#1229=CARTESIAN_POINT('Origin',(0.375,1.,0.25));
#1230=CARTESIAN_POINT('',(0.1875,1.,0.));
#1231=CARTESIAN_POINT('',(0.1875,1.25,0.25));
#1232=CARTESIAN_POINT('Origin',(0.,0.157,0.));
#1233=CARTESIAN_POINT('',(0.375,-0.686,0.));
#1234=CARTESIAN_POINT('',(0.375,-0.936,0.));
#1235=CARTESIAN_POINT('',(0.125,-0.936,0.));
#1236=CARTESIAN_POINT('Origin',(0.125,-0.686,0.));
#1237=CARTESIAN_POINT('',(-0.125,-0.936,0.));
#1238=CARTESIAN_POINT('',(-0.375,-0.936,0.));
#1239=CARTESIAN_POINT('',(-0.375,-0.686,0.));
#1240=CARTESIAN_POINT('Origin',(-0.125,-0.686,0.));
#1241=CARTESIAN_POINT('',(-0.375,0.375,0.));
#1242=CARTESIAN_POINT('',(-0.375,1.25,0.));
#1243=CARTESIAN_POINT('',(-0.15,0.718693177121688,0.));
#1244=CARTESIAN_POINT('Origin',(0.,0.375,0.));
#1245=CARTESIAN_POINT('',(-0.15,1.,0.));
#1246=CARTESIAN_POINT('',(-0.15,1.25,0.));
#1247=CARTESIAN_POINT('',(-0.0250000000000002,1.,0.));
#1248=CARTESIAN_POINT('',(-0.0125000000000001,1.,0.));
#1249=CARTESIAN_POINT('',(-0.0250000000000001,0.686498394859428,0.));
#1250=CARTESIAN_POINT('',(-0.0250000000000001,0.686498394859428,0.));
#1251=CARTESIAN_POINT('Origin',(0.,0.375,0.));
#1252=CARTESIAN_POINT('',(-0.097,-0.636,0.));
#1253=CARTESIAN_POINT('Origin',(0.,-0.636,0.));
#1254=CARTESIAN_POINT('Origin',(-0.0125000000000001,1.,0.25));
#1255=CARTESIAN_POINT('',(-0.15,1.25,0.25));
#1256=CARTESIAN_POINT('Origin',(-0.15,1.,0.25));
#1257=CARTESIAN_POINT('',(-0.0250000000000003,1.25,0.25));
#1258=CARTESIAN_POINT('',(-0.0125000000000001,1.25,0.25));
#1259=CARTESIAN_POINT('Origin',(-0.0250000000000001,1.,0.25));
#1260=CARTESIAN_POINT('Origin',(-0.0250000000000003,1.25,0.));
#1261=CARTESIAN_POINT('',(-0.15,1.25,0.375));
#1262=CARTESIAN_POINT('',(-0.15,1.25,0.));
#1263=CARTESIAN_POINT('',(-0.0250000000000003,1.25,0.375));
#1264=CARTESIAN_POINT('',(-0.0125000000000001,1.25,0.375));
#1265=CARTESIAN_POINT('',(-0.0250000000000003,1.25,0.));
#1266=CARTESIAN_POINT('Origin',(-0.15,1.25,0.));
#1267=CARTESIAN_POINT('',(-0.15,0.718693177121688,0.));
#1268=CARTESIAN_POINT('Origin',(-0.15,1.,0.375));
#1269=CARTESIAN_POINT('',(-0.15,0.889498394859428,0.3125));
#1270=CARTESIAN_POINT('Origin',(-0.15,0.986498394859428,0.3125));
#1271=CARTESIAN_POINT('Origin',(-0.0125000000000001,1.,0.375));
#1272=CARTESIAN_POINT('Origin',(-0.0250000000000001,1.,0.375));
#1273=CARTESIAN_POINT('Origin',(0.375,1.15836979649449,0.41173));
#1274=CARTESIAN_POINT('',(0.375,1.15836979649449,0.41173));
#1275=CARTESIAN_POINT('',(0.375,1.15836979649449,0.21327));
#1276=CARTESIAN_POINT('',(0.375,1.15836979649449,0.205865));
#1277=CARTESIAN_POINT('',(0.175,1.15836979649449,0.41173));
#1278=CARTESIAN_POINT('',(0.375,1.15836979649449,0.41173));
#1279=CARTESIAN_POINT('',(0.175,1.15836979649449,0.21327));
#1280=CARTESIAN_POINT('',(0.175,1.15836979649449,0.41173));
#1281=CARTESIAN_POINT('',(0.375,1.15836979649449,0.21327));
#1282=CARTESIAN_POINT('Origin',(0.375,0.986498394859428,0.51096));
#1283=CARTESIAN_POINT('',(0.375,0.986498394859428,0.51096));
#1284=CARTESIAN_POINT('',(0.375,0.376187581866567,0.863323112170768));
#1285=CARTESIAN_POINT('',(0.175,0.986498394859428,0.51096));
#1286=CARTESIAN_POINT('',(0.375,0.986498394859428,0.51096));
#1287=CARTESIAN_POINT('',(0.175,0.986498394859428,0.51096));
#1288=CARTESIAN_POINT('Origin',(0.375,0.814626993224368,0.41173));
#1289=CARTESIAN_POINT('',(0.375,0.814626993224368,0.41173));
#1290=CARTESIAN_POINT('',(0.375,0.0689997108901889,-0.0187581121707683));
#1291=CARTESIAN_POINT('',(0.175,0.814626993224368,0.41173));
#1292=CARTESIAN_POINT('',(0.375,0.814626993224368,0.41173));
#1293=CARTESIAN_POINT('',(0.175,0.814626993224368,0.41173));
#1294=CARTESIAN_POINT('Origin',(0.375,0.814626993224368,0.21327));
#1295=CARTESIAN_POINT('',(0.375,0.814626993224368,0.21327));
#1296=CARTESIAN_POINT('',(0.375,0.814626993224368,0.106634999999999));
#1297=CARTESIAN_POINT('',(0.175,0.814626993224368,0.21327));
#1298=CARTESIAN_POINT('',(0.375,0.814626993224368,0.21327));
#1299=CARTESIAN_POINT('',(0.175,0.814626993224368,0.21327));
#1300=CARTESIAN_POINT('Origin',(0.375,0.986498394859427,0.11404));
#1301=CARTESIAN_POINT('',(0.375,0.986498394859427,0.11404));
#1302=CARTESIAN_POINT('',(0.375,0.290251881049037,0.516018112170768));
#1303=CARTESIAN_POINT('',(0.175,0.986498394859427,0.11404));
#1304=CARTESIAN_POINT('',(0.375,0.986498394859427,0.11404));
#1305=CARTESIAN_POINT('',(0.175,0.986498394859427,0.11404));
#1306=CARTESIAN_POINT('Origin',(0.375,1.15836979649449,0.21327));
#1307=CARTESIAN_POINT('',(0.375,0.326806813342778,-0.266833112170768));
#1308=CARTESIAN_POINT('',(0.175,1.15836979649449,0.21327));
#1309=CARTESIAN_POINT('Origin',(0.175,0.986498394859427,0.3125));
#1310=CARTESIAN_POINT('',(0.175,0.889498394859428,0.3125));
#1311=CARTESIAN_POINT('Origin',(0.175,0.986498394859428,0.3125));
#1312=CARTESIAN_POINT('Origin',(0.125,-0.686,0.));
#1313=CARTESIAN_POINT('',(0.375,-0.686,0.2875));
#1314=CARTESIAN_POINT('',(0.375,-0.686,0.));
#1315=CARTESIAN_POINT('',(0.125,-0.936,0.287499999999999));
#1316=CARTESIAN_POINT('Origin',(0.125,-0.686,0.287499999999999));
#1317=CARTESIAN_POINT('',(0.125,-0.936,0.));
#1318=CARTESIAN_POINT('Origin',(-0.375,-0.936,0.));
#1319=CARTESIAN_POINT('',(-0.125,-0.936,0.287499999999999));
#1320=CARTESIAN_POINT('',(-0.1875,-0.936,0.287499999999999));
#1321=CARTESIAN_POINT('',(-0.125,-0.936,0.));
#1322=CARTESIAN_POINT('Origin',(0.,-0.936,0.287499999999999));
#1323=CARTESIAN_POINT('',(0.375,-0.390869719966264,0.2875));
#1324=CARTESIAN_POINT('',(0.375,-0.936,0.287499999999999));
#1325=CARTESIAN_POINT('',(-0.375,-0.390869719966264,0.2875));
#1326=CARTESIAN_POINT('',(0.,-0.390869719966264,0.2875));
#1327=CARTESIAN_POINT('',(-0.375,-0.686,0.2875));
#1328=CARTESIAN_POINT('',(-0.375,-0.2805,0.2875));
#1329=CARTESIAN_POINT('Origin',(-0.125,-0.686,0.287499999999999));
#1330=CARTESIAN_POINT('',(-0.097,-0.636,0.287499999999999));
#1331=CARTESIAN_POINT('Origin',(0.,-0.636,0.287499999999999));
#1332=CARTESIAN_POINT('Origin',(-0.125,-0.686,0.));
#1333=CARTESIAN_POINT('',(-0.375,-0.686,0.));
#1334=CARTESIAN_POINT('Origin',(-0.375,0.375,0.));
#1335=CARTESIAN_POINT('',(-0.375,-0.390869719966264,0.3375));
#1336=CARTESIAN_POINT('Origin',(-0.375,-0.2,0.3125));
#1337=CARTESIAN_POINT('',(-0.375,-0.686,0.3375));
#1338=CARTESIAN_POINT('',(-0.375,-0.00793485998313212,0.3375));
#1339=CARTESIAN_POINT('',(-0.375,-0.686,0.));
#1340=CARTESIAN_POINT('',(-0.375,0.375,0.));
#1341=CARTESIAN_POINT('Origin',(0.125,-0.686,0.));
#1342=CARTESIAN_POINT('',(0.125,-0.936,0.375));
#1343=CARTESIAN_POINT('',(0.125,-0.936,0.3375));
#1344=CARTESIAN_POINT('',(0.125,-0.936,0.));
#1345=CARTESIAN_POINT('',(0.375,-0.686,0.3375));
#1346=CARTESIAN_POINT('Origin',(0.125,-0.686,0.3375));
#1347=CARTESIAN_POINT('',(0.375,-0.686,0.));
#1348=CARTESIAN_POINT('Origin',(0.125,-0.686,0.375));
#1349=CARTESIAN_POINT('Origin',(-0.125,-0.686,0.));
#1350=CARTESIAN_POINT('',(-0.125,-0.936,0.3375));
#1351=CARTESIAN_POINT('Origin',(-0.125,-0.686,0.3375));
#1352=CARTESIAN_POINT('',(-0.125,-0.936,0.375));
#1353=CARTESIAN_POINT('',(-0.125,-0.936,0.));
#1354=CARTESIAN_POINT('Origin',(-0.125,-0.686,0.375));
#1355=CARTESIAN_POINT('Origin',(-0.1875,-0.686,0.375));
#1356=CARTESIAN_POINT('',(-0.0992300000000001,-0.80787140163506,0.593282755763038));
#1357=CARTESIAN_POINT('Origin',(-0.169592486540519,-0.686,0.375));
#1358=CARTESIAN_POINT('',(-0.1875,-0.936,0.375));
#1359=CARTESIAN_POINT('',(0.09923,-0.80787140163506,0.593282755763038));
#1360=CARTESIAN_POINT('Origin',(0.169592486540519,-0.686,0.375));
#1361=CARTESIAN_POINT('',(-0.1875,-0.80787140163506,0.593282755763038));
#1362=CARTESIAN_POINT('Origin',(-0.375,-0.936,0.));
#1363=CARTESIAN_POINT('',(-0.1875,-0.936,0.3375));
#1364=CARTESIAN_POINT('Origin',(-0.0992300000000001,-0.80787140163506,0.625));
#1365=CARTESIAN_POINT('',(-0.0992300000000001,-0.80787140163506,0.5));
#1366=CARTESIAN_POINT('',(-0.0992300000000001,-0.80787140163506,0.625));
#1367=CARTESIAN_POINT('',(-0.19846,-0.636,0.5));
#1368=CARTESIAN_POINT('',(-0.0992300000000001,-0.80787140163506,0.5));
#1369=CARTESIAN_POINT('',(-0.19846,-0.636,0.625));
#1370=CARTESIAN_POINT('Origin',(-0.19846,-0.636,0.625));
#1371=CARTESIAN_POINT('',(-0.0992299999999999,-0.46412859836494,0.5));
#1372=CARTESIAN_POINT('',(-0.19846,-0.636,0.5));
#1373=CARTESIAN_POINT('',(-0.0992299999999999,-0.46412859836494,0.625));
#1374=CARTESIAN_POINT('Origin',(0.0992299999999999,-0.80787140163506,0.625));
#1375=CARTESIAN_POINT('',(0.0992299999999999,-0.80787140163506,0.5));
#1376=CARTESIAN_POINT('',(0.0992299999999999,-0.80787140163506,0.625));
#1377=CARTESIAN_POINT('',(0.0992299999999999,-0.80787140163506,0.5));
#1378=CARTESIAN_POINT('Origin',(0.19846,-0.636,0.625));
#1379=CARTESIAN_POINT('',(0.19846,-0.636,0.5));
#1380=CARTESIAN_POINT('',(0.19846,-0.636,0.625));
#1381=CARTESIAN_POINT('',(0.19846,-0.636,0.5));
#1382=CARTESIAN_POINT('Origin',(0.0992300000000002,-0.46412859836494,0.625));
#1383=CARTESIAN_POINT('',(0.0992300000000002,-0.46412859836494,0.5));
#1384=CARTESIAN_POINT('',(0.0992300000000002,-0.46412859836494,0.625));
#1385=CARTESIAN_POINT('',(0.0992300000000002,-0.46412859836494,0.5));
#1386=CARTESIAN_POINT('Origin',(-0.0992299999999999,-0.46412859836494,0.625));
#1387=CARTESIAN_POINT('',(-0.0992299999999999,-0.46412859836494,0.5));
#1388=CARTESIAN_POINT('Origin',(-2.18547839493141E-17,-0.636,0.5));
#1389=CARTESIAN_POINT('',(-0.097,-0.636,0.5));
#1390=CARTESIAN_POINT('Origin',(0.,-0.636,0.5));
#1391=CARTESIAN_POINT('Origin',(0.,-0.636,2.39410129276102));
#1392=CARTESIAN_POINT('',(-0.097,-0.636,2.39410129276102));
#1393=CARTESIAN_POINT('Origin',(0.,-0.636,2.39410129276102));
#1394=CARTESIAN_POINT('',(-0.097,-0.636,0.3375));
#1395=CARTESIAN_POINT('Origin',(0.,-0.636,0.3375));
#1396=CARTESIAN_POINT('',(-0.097,-0.636,2.39410129276102));
#1397=CARTESIAN_POINT('Origin',(2.39410129276102,0.986498394859428,0.3125));
#1398=CARTESIAN_POINT('',(2.39410129276102,0.889498394859428,0.3125));
#1399=CARTESIAN_POINT('Origin',(-2.39410129276102,0.986498394859428,0.3125));
#1400=CARTESIAN_POINT('',(-0.0250000000000001,0.889498394859428,0.3125));
#1401=CARTESIAN_POINT('Origin',(-0.0250000000000001,0.986498394859428,0.3125));
#1402=CARTESIAN_POINT('',(-2.39410129276102,0.889498394859428,0.3125));
#1403=CARTESIAN_POINT('Origin',(0.,-0.390869719966264,0.3375));
#1404=CARTESIAN_POINT('',(0.375,-0.390869719966264,0.3375));
#1405=CARTESIAN_POINT('',(0.,-0.390869719966264,0.3375));
#1406=CARTESIAN_POINT('',(0.375,-0.663434859983132,0.3375));
#1407=CARTESIAN_POINT('Origin',(0.,-0.2,0.3125));
#1408=CARTESIAN_POINT('Origin',(0.375,-0.2,0.3125));
#1409=CARTESIAN_POINT('Origin',(0.375,-0.936,0.));
#1410=CARTESIAN_POINT('',(0.375,1.25,0.));
#1411=CARTESIAN_POINT('Origin',(0.,0.375,0.));
#1412=CARTESIAN_POINT('Origin',(-0.0250000000000001,0.686498394859428,0.));
#1413=CARTESIAN_POINT('',(-0.0250000000000001,0.686498394859428,0.));
#1414=CARTESIAN_POINT('Origin',(0.,0.375,0.));
#1415=CARTESIAN_POINT('Origin',(0.375,1.25,0.));
#1416=UNCERTAINTY_MEASURE_WITH_UNIT(LENGTH_MEASURE(0.000393700787401575),
#1422,'DISTANCE_ACCURACY_VALUE',
'Maximum model space distance between geometric entities at asserted c
onnectivities');
#1417=UNCERTAINTY_MEASURE_WITH_UNIT(LENGTH_MEASURE(0.000393700787401575),
#1422,'DISTANCE_ACCURACY_VALUE',
'Maximum model space distance between geometric entities at asserted c
onnectivities');
#1418=(
GEOMETRIC_REPRESENTATION_CONTEXT(3)
GLOBAL_UNCERTAINTY_ASSIGNED_CONTEXT((#1416))
GLOBAL_UNIT_ASSIGNED_CONTEXT((#1422,#1426,#1427))
REPRESENTATION_CONTEXT('','3D')
);
#1419=(
GEOMETRIC_REPRESENTATION_CONTEXT(3)
GLOBAL_UNCERTAINTY_ASSIGNED_CONTEXT((#1417))
GLOBAL_UNIT_ASSIGNED_CONTEXT((#1422,#1426,#1427))
REPRESENTATION_CONTEXT('','3D')
);
#1420=DIMENSIONAL_EXPONENTS(1.,0.,0.,0.,0.,0.,0.);
#1421=DIMENSIONAL_EXPONENTS(0.,1.,0.,0.,0.,0.,0.);
#1422=(
CONVERSION_BASED_UNIT('inch',#1425)
LENGTH_UNIT()
NAMED_UNIT(#1420)
);
#1423=(
LENGTH_UNIT()
NAMED_UNIT(*)
SI_UNIT(.MILLI.,.METRE.)
);
#1424=(
LENGTH_UNIT()
NAMED_UNIT(*)
SI_UNIT(.CENTI.,.METRE.)
);
#1425=LENGTH_MEASURE_WITH_UNIT(LENGTH_MEASURE(25.4),#1423);
#1426=(
NAMED_UNIT(*)
PLANE_ANGLE_UNIT()
SI_UNIT($,.RADIAN.)
);
#1427=(
NAMED_UNIT(*)
SI_UNIT($,.STERADIAN.)
SOLID_ANGLE_UNIT()
);
#1428=SHAPE_DEFINITION_REPRESENTATION(#1429,#1430);
#1429=PRODUCT_DEFINITION_SHAPE('',$,#1432);
#1430=SHAPE_REPRESENTATION('',(#862),#1418);
#1431=PRODUCT_DEFINITION_CONTEXT('part definition',#1436,'design');
#1432=PRODUCT_DEFINITION('90degRailSlider','90degRailSlider',#1433,#1431);
#1433=PRODUCT_DEFINITION_FORMATION('0',$,#1438);
#1434=PRODUCT_RELATED_PRODUCT_CATEGORY('90degRailSlider',
'90degRailSlider',(#1438));
#1435=APPLICATION_PROTOCOL_DEFINITION('international standard',
'automotive_design',2009,#1436);
#1436=APPLICATION_CONTEXT(
'Core Data for Automotive Mechanical Design Process');
#1437=PRODUCT_CONTEXT('part definition',#1436,'mechanical');
#1438=PRODUCT('90degRailSlider','90degRailSlider',$,(#1437));
#1439=PRESENTATION_STYLE_ASSIGNMENT((#1440));
#1440=SURFACE_STYLE_USAGE(.BOTH.,#1443);
#1441=SURFACE_STYLE_RENDERING_WITH_PROPERTIES($,#1447,(#1442));
#1442=SURFACE_STYLE_TRANSPARENT(0.);
#1443=SURFACE_SIDE_STYLE('',(#1444,#1441));
#1444=SURFACE_STYLE_FILL_AREA(#1445);
#1445=FILL_AREA_STYLE('',(#1446));
#1446=FILL_AREA_STYLE_COLOUR('',#1447);
#1447=COLOUR_RGB('',0.749019607843137,0.749019607843137,0.749019607843137);
ENDSEC;
END-ISO-10303-21;
