ISO-10303-21;
HEADER;
/* Generated by software containing ST-Developer
 * from STEP Tools, Inc. (www.steptools.com) 
 */

FILE_DESCRIPTION(
/* description */ (''),
/* implementation_level */ '2;1');

FILE_NAME(
/* name */ 'optostim-light-rail-holder.stp',
/* time_stamp */ '2026-07-02T13:30:59-04:00',
/* author */ ('labadmin'),
/* organization */ (''),
/* preprocessor_version */ 'ST-DEVELOPER v20',
/* originating_system */ 'Autodesk Inventor 2025',
/* authorisation */ '');

FILE_SCHEMA (('AUTOMOTIVE_DESIGN { 1 0 10303 214 3 1 1 }'));
ENDSEC;

DATA;
#10=MECHANICAL_DESIGN_GEOMETRIC_PRESENTATION_REPRESENTATION('',(#13),#1164);
#11=SHAPE_REPRESENTATION_RELATIONSHIP('SRR','None',#1175,#12);
#12=ADVANCED_BREP_SHAPE_REPRESENTATION('',(#14),#1163);
#13=STYLED_ITEM('',(#1184),#14);
#14=MANIFOLD_SOLID_BREP('Solid1',#554);
#15=TOROIDAL_SURFACE('',#604,0.3625,0.05);
#16=ELLIPSE('',#590,0.441941738241592,0.3125);
#17=ELLIPSE('',#591,0.360843918243516,0.3125);
#18=ELLIPSE('',#592,0.360843918243516,0.3125);
#19=ELLIPSE('',#593,0.441941738241592,0.3125);
#20=CYLINDRICAL_SURFACE('',#587,0.3125);
#21=CYLINDRICAL_SURFACE('',#610,0.25);
#22=CYLINDRICAL_SURFACE('',#616,0.25);
#23=CYLINDRICAL_SURFACE('',#618,0.097);
#24=CYLINDRICAL_SURFACE('',#620,0.097);
#25=CYLINDRICAL_SURFACE('',#621,0.097);
#26=CYLINDRICAL_SURFACE('',#624,0.3125);
#27=CYLINDRICAL_SURFACE('',#625,0.1925);
#28=FACE_BOUND('',#164,.T.);
#29=FACE_BOUND('',#170,.T.);
#30=FACE_BOUND('',#177,.T.);
#31=FACE_BOUND('',#180,.T.);
#32=FACE_BOUND('',#184,.T.);
#33=FACE_BOUND('',#192,.T.);
#34=LINE('',#865,#75);
#35=LINE('',#868,#76);
#36=LINE('',#870,#77);
#37=LINE('',#871,#78);
#38=LINE('',#967,#79);
#39=LINE('',#969,#80);
#40=LINE('',#970,#81);
#41=LINE('',#973,#82);
#42=LINE('',#975,#83);
#43=LINE('',#976,#84);
#44=LINE('',#980,#85);
#45=LINE('',#984,#86);
#46=LINE('',#988,#87);
#47=LINE('',#991,#88);
#48=LINE('',#1031,#89);
#49=LINE('',#1033,#90);
#50=LINE('',#1038,#91);
#51=LINE('',#1078,#92);
#52=LINE('',#1082,#93);
#53=LINE('',#1083,#94);
#54=LINE('',#1089,#95);
#55=LINE('',#1090,#96);
#56=LINE('',#1093,#97);
#57=LINE('',#1094,#98);
#58=LINE('',#1097,#99);
#59=LINE('',#1098,#100);
#60=LINE('',#1100,#101);
#61=LINE('',#1118,#102);
#62=LINE('',#1122,#103);
#63=LINE('',#1125,#104);
#64=LINE('',#1130,#105);
#65=LINE('',#1133,#106);
#66=LINE('',#1135,#107);
#67=LINE('',#1138,#108);
#68=LINE('',#1141,#109);
#69=LINE('',#1145,#110);
#70=LINE('',#1146,#111);
#71=LINE('',#1149,#112);
#72=LINE('',#1152,#113);
#73=LINE('',#1156,#114);
#74=LINE('',#1158,#115);
#75=VECTOR('',#636,0.393700787401575);
#76=VECTOR('',#639,0.393700787401575);
#77=VECTOR('',#640,0.393700787401575);
#78=VECTOR('',#641,0.393700787401575);
#79=VECTOR('',#652,0.393700787401575);
#80=VECTOR('',#653,0.393700787401575);
#81=VECTOR('',#654,0.393700787401575);
#82=VECTOR('',#657,0.393700787401575);
#83=VECTOR('',#658,0.393700787401575);
#84=VECTOR('',#659,0.393700787401575);
#85=VECTOR('',#662,0.393700787401575);
#86=VECTOR('',#665,0.393700787401575);
#87=VECTOR('',#668,0.3125);
#88=VECTOR('',#671,0.393700787401575);
#89=VECTOR('',#672,0.393700787401575);
#90=VECTOR('',#673,0.393700787401575);
#91=VECTOR('',#678,0.393700787401575);
#92=VECTOR('',#679,0.393700787401575);
#93=VECTOR('',#686,0.393700787401575);
#94=VECTOR('',#687,0.393700787401575);
#95=VECTOR('',#694,0.393700787401575);
#96=VECTOR('',#695,0.393700787401575);
#97=VECTOR('',#698,0.393700787401575);
#98=VECTOR('',#699,0.393700787401575);
#99=VECTOR('',#702,0.393700787401575);
#100=VECTOR('',#703,0.393700787401575);
#101=VECTOR('',#706,0.393700787401575);
#102=VECTOR('',#717,0.393700787401575);
#103=VECTOR('',#720,0.393700787401575);
#104=VECTOR('',#723,0.393700787401575);
#105=VECTOR('',#728,0.393700787401575);
#106=VECTOR('',#731,0.393700787401575);
#107=VECTOR('',#734,0.393700787401575);
#108=VECTOR('',#737,0.393700787401575);
#109=VECTOR('',#740,0.393700787401575);
#110=VECTOR('',#745,0.393700787401575);
#111=VECTOR('',#746,0.393700787401575);
#112=VECTOR('',#751,0.097);
#113=VECTOR('',#756,0.097);
#114=VECTOR('',#761,0.097);
#115=VECTOR('',#764,0.393700787401575);
#116=PLANE('',#579);
#117=PLANE('',#580);
#118=PLANE('',#585);
#119=PLANE('',#586);
#120=PLANE('',#595);
#121=PLANE('',#597);
#122=PLANE('',#598);
#123=PLANE('',#599);
#124=PLANE('',#600);
#125=PLANE('',#601);
#126=PLANE('',#602);
#127=PLANE('',#606);
#128=PLANE('',#612);
#129=PLANE('',#613);
#130=PLANE('',#617);
#131=PLANE('',#619);
#132=PLANE('',#623);
#133=FACE_OUTER_BOUND('',#161,.T.);
#134=FACE_OUTER_BOUND('',#162,.T.);
#135=FACE_OUTER_BOUND('',#163,.T.);
#136=FACE_OUTER_BOUND('',#165,.T.);
#137=FACE_OUTER_BOUND('',#166,.T.);
#138=FACE_OUTER_BOUND('',#167,.T.);
#139=FACE_OUTER_BOUND('',#168,.T.);
#140=FACE_OUTER_BOUND('',#169,.T.);
#141=FACE_OUTER_BOUND('',#171,.T.);
#142=FACE_OUTER_BOUND('',#172,.T.);
#143=FACE_OUTER_BOUND('',#173,.T.);
#144=FACE_OUTER_BOUND('',#174,.T.);
#145=FACE_OUTER_BOUND('',#175,.T.);
#146=FACE_OUTER_BOUND('',#176,.T.);
#147=FACE_OUTER_BOUND('',#178,.T.);
#148=FACE_OUTER_BOUND('',#179,.T.);
#149=FACE_OUTER_BOUND('',#181,.T.);
#150=FACE_OUTER_BOUND('',#182,.T.);
#151=FACE_OUTER_BOUND('',#183,.T.);
#152=FACE_OUTER_BOUND('',#185,.T.);
#153=FACE_OUTER_BOUND('',#186,.T.);
#154=FACE_OUTER_BOUND('',#187,.T.);
#155=FACE_OUTER_BOUND('',#188,.T.);
#156=FACE_OUTER_BOUND('',#189,.T.);
#157=FACE_OUTER_BOUND('',#190,.T.);
#158=FACE_OUTER_BOUND('',#191,.T.);
#159=FACE_OUTER_BOUND('',#193,.T.);
#160=FACE_OUTER_BOUND('',#194,.T.);
#161=EDGE_LOOP('',(#364,#365,#366,#367,#368,#369));
#162=EDGE_LOOP('',(#370,#371));
#163=EDGE_LOOP('',(#372,#373,#374,#375,#376,#377));
#164=EDGE_LOOP('',(#378));
#165=EDGE_LOOP('',(#379,#380,#381,#382,#383,#384,#385,#386,#387));
#166=EDGE_LOOP('',(#388,#389,#390,#391));
#167=EDGE_LOOP('',(#392,#393,#394,#395,#396));
#168=EDGE_LOOP('',(#397,#398,#399,#400,#401,#402,#403,#404,#405,#406,#407,
#408,#409,#410,#411,#412,#413,#414,#415,#416,#417,#418,#419,#420,#421,#422,
#423));
#169=EDGE_LOOP('',(#424,#425,#426,#427,#428,#429));
#170=EDGE_LOOP('',(#430));
#171=EDGE_LOOP('',(#431,#432));
#172=EDGE_LOOP('',(#433,#434,#435,#436));
#173=EDGE_LOOP('',(#437,#438,#439,#440,#441));
#174=EDGE_LOOP('',(#442,#443,#444,#445));
#175=EDGE_LOOP('',(#446,#447,#448,#449));
#176=EDGE_LOOP('',(#450,#451,#452,#453,#454,#455));
#177=EDGE_LOOP('',(#456));
#178=EDGE_LOOP('',(#457,#458,#459,#460,#461));
#179=EDGE_LOOP('',(#462,#463,#464,#465,#466,#467));
#180=EDGE_LOOP('',(#468));
#181=EDGE_LOOP('',(#469,#470,#471,#472));
#182=EDGE_LOOP('',(#473,#474,#475,#476,#477));
#183=EDGE_LOOP('',(#478,#479,#480,#481,#482,#483));
#184=EDGE_LOOP('',(#484));
#185=EDGE_LOOP('',(#485,#486,#487,#488));
#186=EDGE_LOOP('',(#489,#490,#491,#492,#493));
#187=EDGE_LOOP('',(#494,#495,#496,#497));
#188=EDGE_LOOP('',(#498,#499,#500,#501));
#189=EDGE_LOOP('',(#502,#503,#504,#505));
#190=EDGE_LOOP('',(#506,#507,#508,#509));
#191=EDGE_LOOP('',(#510,#511,#512,#513));
#192=EDGE_LOOP('',(#514));
#193=EDGE_LOOP('',(#515,#516,#517));
#194=EDGE_LOOP('',(#518,#519,#520,#521,#522,#523));
#195=CIRCLE('',#576,0.1125);
#196=CIRCLE('',#577,0.3125);
#197=CIRCLE('',#578,0.3125);
#198=CIRCLE('',#581,0.097);
#199=CIRCLE('',#582,0.1125);
#200=CIRCLE('',#583,0.3125);
#201=CIRCLE('',#584,0.3125);
#202=CIRCLE('',#588,0.3125);
#203=CIRCLE('',#589,0.3125);
#204=CIRCLE('',#594,0.3125);
#205=CIRCLE('',#596,0.097);
#206=CIRCLE('',#603,0.097);
#207=CIRCLE('',#605,0.3625);
#208=CIRCLE('',#607,0.25);
#209=CIRCLE('',#608,0.25);
#210=CIRCLE('',#609,0.097);
#211=CIRCLE('',#611,0.25);
#212=CIRCLE('',#614,0.25);
#213=CIRCLE('',#615,0.097);
#214=CIRCLE('',#622,0.097);
#215=B_SPLINE_CURVE_WITH_KNOTS('',3,(#787,#788,#789,#790,#791,#792,#793,
#794,#795,#796,#797,#798,#799,#800,#801,#802,#803,#804),.UNSPECIFIED.,.F.,
 .F.,(4,2,2,2,2,2,2,2,4),(1.02380577620785,1.11763111374316,1.21145645127848,
1.305430942463,1.39940543364752,1.49377917693684,1.58815292022617,1.68406767145856,
1.77998242269096),.UNSPECIFIED.);
#216=B_SPLINE_CURVE_WITH_KNOTS('',3,(#808,#809,#810,#811,#812,#813,#814,
#815,#816,#817,#818,#819,#820,#821,#822,#823,#824,#825),.UNSPECIFIED.,.F.,
 .F.,(4,2,2,2,2,2,2,2,4),(2.31524068214043,2.41115543337283,2.50707018460523,
2.60144392789455,2.69581767118388,2.7897921623684,2.88376665355292,2.97759199108823,
3.07141732862355),.UNSPECIFIED.);
#217=B_SPLINE_CURVE_WITH_KNOTS('',3,(#829,#830,#831,#832,#833,#834,#835,
#836,#837,#838,#839,#840,#841,#842,#843,#844,#845,#846,#847,#848,#849,#850,
#851,#852,#853,#854,#855,#856,#857,#858,#859,#860,#861,#862),
 .UNSPECIFIED.,.F.,.F.,(4,2,2,2,2,2,2,2,2,2,2,2,2,2,2,2,4),(0.90997400940003,
0.985745637604542,1.06151726580905,1.14084796902558,1.22017867224211,1.31137884342774,
1.40257901461336,1.61126351670671,1.81994801880006,2.02863252089341,2.23731702298676,
2.32851719417238,2.41971736535801,2.49904806857454,2.57837877179106,2.65415039999558,
2.72992202820009),.UNSPECIFIED.);
#218=B_SPLINE_CURVE_WITH_KNOTS('',3,(#891,#892,#893,#894,#895,#896,#897,
#898,#899,#900,#901,#902,#903,#904,#905,#906,#907,#908),.UNSPECIFIED.,.F.,
 .F.,(4,2,2,2,2,2,2,2,4),(1.02380577620785,1.11763111374316,1.21145645127848,
1.305430942463,1.39940543364752,1.49377917693684,1.58815292022617,1.68406767145856,
1.77998242269096),.UNSPECIFIED.);
#219=B_SPLINE_CURVE_WITH_KNOTS('',3,(#912,#913,#914,#915,#916,#917,#918,
#919,#920,#921,#922,#923,#924,#925,#926,#927,#928,#929),.UNSPECIFIED.,.F.,
 .F.,(4,2,2,2,2,2,2,2,4),(2.31524068214043,2.41115543337283,2.50707018460523,
2.60144392789455,2.69581767118388,2.7897921623684,2.88376665355292,2.97759199108823,
3.07141732862355),.UNSPECIFIED.);
#220=B_SPLINE_CURVE_WITH_KNOTS('',3,(#933,#934,#935,#936),.UNSPECIFIED.,
 .F.,.F.,(4,4),(0.86949981966976,0.988277037709826),.UNSPECIFIED.);
#221=B_SPLINE_CURVE_WITH_KNOTS('',3,(#938,#939,#940,#941,#942,#943,#944,
#945,#946,#947),.UNSPECIFIED.,.F.,.F.,(4,2,2,2,4),(0.759375658809928,0.779881840914355,
0.942036115398178,1.10097666001698,1.25150806856499),.UNSPECIFIED.);
#222=B_SPLINE_CURVE_WITH_KNOTS('',3,(#949,#950,#951,#952,#953,#954,#955,
#956,#957,#958),.UNSPECIFIED.,.F.,.F.,(4,2,2,2,4),(2.61532001672734,2.76585142527535,
2.92479196989415,3.08694624437797,3.10745242648241),.UNSPECIFIED.);
#223=B_SPLINE_CURVE_WITH_KNOTS('',3,(#960,#961,#962,#963),.UNSPECIFIED.,
 .F.,.F.,(4,4),(2.48972224096922,2.60849945900928),.UNSPECIFIED.);
#224=B_SPLINE_CURVE_WITH_KNOTS('',3,(#993,#994,#995,#996,#997,#998,#999,
#1000,#1001,#1002,#1003,#1004,#1005,#1006,#1007,#1008,#1009,#1010,#1011),
 .UNSPECIFIED.,.F.,.F.,(4,2,2,2,3,2,2,2,4),(-0.761642499849567,-0.571934157521203,
-0.38222581519284,-0.19111290759642,0.,0.19111290759642,0.38222581519284,
0.571934157521204,0.698835623636022),.UNSPECIFIED.);
#225=B_SPLINE_CURVE_WITH_KNOTS('',3,(#1013,#1014,#1015,#1016,#1017,#1018,
#1019,#1020,#1021,#1022,#1023,#1024,#1025,#1026,#1027,#1028,#1029,#1030),
 .UNSPECIFIED.,.F.,.F.,(4,2,2,2,2,2,2,2,4),(0.824449376063112,0.95135084217793,
1.14105918450629,1.33217209210271,1.52328499969913,1.71439790729555,1.90551081489197,
2.09521915722034,2.2849274995487),.UNSPECIFIED.);
#226=B_SPLINE_CURVE_WITH_KNOTS('',3,(#1040,#1041,#1042,#1043,#1044,#1045,
#1046,#1047,#1048,#1049,#1050,#1051,#1052,#1053,#1054,#1055,#1056,#1057),
 .UNSPECIFIED.,.F.,.F.,(4,2,2,2,2,2,2,2,4),(0.761642499849567,0.95135084217793,
1.14105918450629,1.33217209210271,1.52328499969913,1.71439790729555,1.90551081489197,
2.09521915722034,2.22212062333516),.UNSPECIFIED.);
#227=B_SPLINE_CURVE_WITH_KNOTS('',3,(#1058,#1059,#1060,#1061,#1062,#1063,
#1064,#1065,#1066,#1067,#1068,#1069,#1070,#1071,#1072,#1073,#1074,#1075,
#1076),.UNSPECIFIED.,.F.,.F.,(4,2,2,2,3,2,2,2,4),(-0.698835623636022,-0.571934157521203,
-0.38222581519284,-0.19111290759642,0.,0.19111290759642,0.38222581519284,
0.571934157521204,0.761642499849567),.UNSPECIFIED.);
#228=B_SPLINE_CURVE_WITH_KNOTS('',3,(#1106,#1107,#1108,#1109),
 .UNSPECIFIED.,.F.,.F.,(4,4),(0.,0.460697393492643),.UNSPECIFIED.);
#229=B_SPLINE_CURVE_WITH_KNOTS('',3,(#1112,#1113,#1114,#1115),
 .UNSPECIFIED.,.F.,.F.,(4,4),(0.98312051599579,1.44381790948843),
 .UNSPECIFIED.);
#230=VERTEX_POINT('',#785);
#231=VERTEX_POINT('',#786);
#232=VERTEX_POINT('',#805);
#233=VERTEX_POINT('',#807);
#234=VERTEX_POINT('',#826);
#235=VERTEX_POINT('',#828);
#236=VERTEX_POINT('',#867);
#237=VERTEX_POINT('',#869);
#238=VERTEX_POINT('',#872);
#239=VERTEX_POINT('',#889);
#240=VERTEX_POINT('',#890);
#241=VERTEX_POINT('',#909);
#242=VERTEX_POINT('',#911);
#243=VERTEX_POINT('',#930);
#244=VERTEX_POINT('',#932);
#245=VERTEX_POINT('',#937);
#246=VERTEX_POINT('',#948);
#247=VERTEX_POINT('',#959);
#248=VERTEX_POINT('',#966);
#249=VERTEX_POINT('',#968);
#250=VERTEX_POINT('',#972);
#251=VERTEX_POINT('',#974);
#252=VERTEX_POINT('',#978);
#253=VERTEX_POINT('',#979);
#254=VERTEX_POINT('',#981);
#255=VERTEX_POINT('',#983);
#256=VERTEX_POINT('',#985);
#257=VERTEX_POINT('',#987);
#258=VERTEX_POINT('',#989);
#259=VERTEX_POINT('',#992);
#260=VERTEX_POINT('',#1012);
#261=VERTEX_POINT('',#1032);
#262=VERTEX_POINT('',#1034);
#263=VERTEX_POINT('',#1037);
#264=VERTEX_POINT('',#1039);
#265=VERTEX_POINT('',#1077);
#266=VERTEX_POINT('',#1084);
#267=VERTEX_POINT('',#1088);
#268=VERTEX_POINT('',#1092);
#269=VERTEX_POINT('',#1096);
#270=VERTEX_POINT('',#1102);
#271=VERTEX_POINT('',#1105);
#272=VERTEX_POINT('',#1110);
#273=VERTEX_POINT('',#1117);
#274=VERTEX_POINT('',#1119);
#275=VERTEX_POINT('',#1121);
#276=VERTEX_POINT('',#1123);
#277=VERTEX_POINT('',#1126);
#278=VERTEX_POINT('',#1129);
#279=VERTEX_POINT('',#1131);
#280=VERTEX_POINT('',#1137);
#281=VERTEX_POINT('',#1139);
#282=VERTEX_POINT('',#1142);
#283=VERTEX_POINT('',#1154);
#284=EDGE_CURVE('',#230,#231,#215,.T.);
#285=EDGE_CURVE('',#231,#232,#195,.T.);
#286=EDGE_CURVE('',#232,#233,#216,.T.);
#287=EDGE_CURVE('',#233,#234,#196,.T.);
#288=EDGE_CURVE('',#234,#235,#217,.T.);
#289=EDGE_CURVE('',#230,#235,#197,.T.);
#290=EDGE_CURVE('',#231,#232,#34,.T.);
#291=EDGE_CURVE('',#230,#236,#35,.T.);
#292=EDGE_CURVE('',#236,#237,#36,.T.);
#293=EDGE_CURVE('',#237,#233,#37,.T.);
#294=EDGE_CURVE('',#238,#238,#198,.T.);
#295=EDGE_CURVE('',#239,#240,#218,.T.);
#296=EDGE_CURVE('',#240,#241,#199,.T.);
#297=EDGE_CURVE('',#241,#242,#219,.T.);
#298=EDGE_CURVE('',#242,#243,#200,.T.);
#299=EDGE_CURVE('',#243,#244,#220,.T.);
#300=EDGE_CURVE('',#244,#245,#221,.T.);
#301=EDGE_CURVE('',#245,#246,#222,.T.);
#302=EDGE_CURVE('',#246,#247,#223,.T.);
#303=EDGE_CURVE('',#247,#239,#201,.T.);
#304=EDGE_CURVE('',#244,#248,#38,.T.);
#305=EDGE_CURVE('',#248,#249,#39,.T.);
#306=EDGE_CURVE('',#245,#249,#40,.T.);
#307=EDGE_CURVE('',#250,#243,#41,.T.);
#308=EDGE_CURVE('',#250,#251,#42,.T.);
#309=EDGE_CURVE('',#251,#248,#43,.T.);
#310=EDGE_CURVE('',#252,#253,#44,.T.);
#311=EDGE_CURVE('',#254,#253,#202,.T.);
#312=EDGE_CURVE('',#255,#254,#45,.T.);
#313=EDGE_CURVE('',#256,#255,#203,.T.);
#314=EDGE_CURVE('',#256,#257,#46,.T.);
#315=EDGE_CURVE('',#258,#257,#16,.T.);
#316=EDGE_CURVE('',#234,#258,#47,.T.);
#317=EDGE_CURVE('',#259,#237,#224,.T.);
#318=EDGE_CURVE('',#260,#259,#225,.T.);
#319=EDGE_CURVE('',#239,#260,#48,.T.);
#320=EDGE_CURVE('',#247,#261,#49,.T.);
#321=EDGE_CURVE('',#261,#262,#17,.T.);
#322=EDGE_CURVE('',#262,#250,#18,.T.);
#323=EDGE_CURVE('',#263,#242,#50,.T.);
#324=EDGE_CURVE('',#264,#263,#226,.T.);
#325=EDGE_CURVE('',#236,#264,#227,.T.);
#326=EDGE_CURVE('',#265,#235,#51,.T.);
#327=EDGE_CURVE('',#257,#265,#19,.T.);
#328=EDGE_CURVE('',#252,#256,#204,.T.);
#329=EDGE_CURVE('',#241,#240,#52,.T.);
#330=EDGE_CURVE('',#263,#260,#53,.T.);
#331=EDGE_CURVE('',#266,#266,#205,.T.);
#332=EDGE_CURVE('',#249,#267,#54,.T.);
#333=EDGE_CURVE('',#246,#267,#55,.T.);
#334=EDGE_CURVE('',#267,#268,#56,.T.);
#335=EDGE_CURVE('',#261,#268,#57,.T.);
#336=EDGE_CURVE('',#262,#269,#58,.T.);
#337=EDGE_CURVE('',#269,#251,#59,.T.);
#338=EDGE_CURVE('',#268,#269,#60,.T.);
#339=EDGE_CURVE('',#270,#270,#206,.T.);
#340=EDGE_CURVE('',#255,#271,#228,.T.);
#341=EDGE_CURVE('',#271,#272,#207,.T.);
#342=EDGE_CURVE('',#272,#252,#229,.T.);
#343=EDGE_CURVE('',#271,#273,#61,.T.);
#344=EDGE_CURVE('',#274,#273,#208,.T.);
#345=EDGE_CURVE('',#274,#275,#62,.T.);
#346=EDGE_CURVE('',#276,#275,#209,.T.);
#347=EDGE_CURVE('',#276,#272,#63,.T.);
#348=EDGE_CURVE('',#277,#277,#210,.T.);
#349=EDGE_CURVE('',#275,#278,#64,.T.);
#350=EDGE_CURVE('',#278,#279,#211,.T.);
#351=EDGE_CURVE('',#279,#276,#65,.T.);
#352=EDGE_CURVE('',#253,#279,#66,.T.);
#353=EDGE_CURVE('',#278,#280,#67,.T.);
#354=EDGE_CURVE('',#281,#280,#212,.T.);
#355=EDGE_CURVE('',#281,#254,#68,.T.);
#356=EDGE_CURVE('',#282,#282,#213,.T.);
#357=EDGE_CURVE('',#273,#281,#69,.T.);
#358=EDGE_CURVE('',#280,#274,#70,.T.);
#359=EDGE_CURVE('',#277,#282,#71,.T.);
#360=EDGE_CURVE('',#266,#270,#72,.T.);
#361=EDGE_CURVE('',#283,#283,#214,.T.);
#362=EDGE_CURVE('',#283,#238,#73,.T.);
#363=EDGE_CURVE('',#265,#258,#74,.T.);
#364=ORIENTED_EDGE('',*,*,#284,.T.);
#365=ORIENTED_EDGE('',*,*,#285,.T.);
#366=ORIENTED_EDGE('',*,*,#286,.T.);
#367=ORIENTED_EDGE('',*,*,#287,.T.);
#368=ORIENTED_EDGE('',*,*,#288,.T.);
#369=ORIENTED_EDGE('',*,*,#289,.F.);
#370=ORIENTED_EDGE('',*,*,#285,.F.);
#371=ORIENTED_EDGE('',*,*,#290,.T.);
#372=ORIENTED_EDGE('',*,*,#286,.F.);
#373=ORIENTED_EDGE('',*,*,#290,.F.);
#374=ORIENTED_EDGE('',*,*,#284,.F.);
#375=ORIENTED_EDGE('',*,*,#291,.T.);
#376=ORIENTED_EDGE('',*,*,#292,.T.);
#377=ORIENTED_EDGE('',*,*,#293,.T.);
#378=ORIENTED_EDGE('',*,*,#294,.T.);
#379=ORIENTED_EDGE('',*,*,#295,.T.);
#380=ORIENTED_EDGE('',*,*,#296,.T.);
#381=ORIENTED_EDGE('',*,*,#297,.T.);
#382=ORIENTED_EDGE('',*,*,#298,.T.);
#383=ORIENTED_EDGE('',*,*,#299,.T.);
#384=ORIENTED_EDGE('',*,*,#300,.T.);
#385=ORIENTED_EDGE('',*,*,#301,.T.);
#386=ORIENTED_EDGE('',*,*,#302,.T.);
#387=ORIENTED_EDGE('',*,*,#303,.T.);
#388=ORIENTED_EDGE('',*,*,#300,.F.);
#389=ORIENTED_EDGE('',*,*,#304,.T.);
#390=ORIENTED_EDGE('',*,*,#305,.T.);
#391=ORIENTED_EDGE('',*,*,#306,.F.);
#392=ORIENTED_EDGE('',*,*,#299,.F.);
#393=ORIENTED_EDGE('',*,*,#307,.F.);
#394=ORIENTED_EDGE('',*,*,#308,.T.);
#395=ORIENTED_EDGE('',*,*,#309,.T.);
#396=ORIENTED_EDGE('',*,*,#304,.F.);
#397=ORIENTED_EDGE('',*,*,#310,.T.);
#398=ORIENTED_EDGE('',*,*,#311,.F.);
#399=ORIENTED_EDGE('',*,*,#312,.F.);
#400=ORIENTED_EDGE('',*,*,#313,.F.);
#401=ORIENTED_EDGE('',*,*,#314,.T.);
#402=ORIENTED_EDGE('',*,*,#315,.F.);
#403=ORIENTED_EDGE('',*,*,#316,.F.);
#404=ORIENTED_EDGE('',*,*,#287,.F.);
#405=ORIENTED_EDGE('',*,*,#293,.F.);
#406=ORIENTED_EDGE('',*,*,#317,.F.);
#407=ORIENTED_EDGE('',*,*,#318,.F.);
#408=ORIENTED_EDGE('',*,*,#319,.F.);
#409=ORIENTED_EDGE('',*,*,#303,.F.);
#410=ORIENTED_EDGE('',*,*,#320,.T.);
#411=ORIENTED_EDGE('',*,*,#321,.T.);
#412=ORIENTED_EDGE('',*,*,#322,.T.);
#413=ORIENTED_EDGE('',*,*,#307,.T.);
#414=ORIENTED_EDGE('',*,*,#298,.F.);
#415=ORIENTED_EDGE('',*,*,#323,.F.);
#416=ORIENTED_EDGE('',*,*,#324,.F.);
#417=ORIENTED_EDGE('',*,*,#325,.F.);
#418=ORIENTED_EDGE('',*,*,#291,.F.);
#419=ORIENTED_EDGE('',*,*,#289,.T.);
#420=ORIENTED_EDGE('',*,*,#326,.F.);
#421=ORIENTED_EDGE('',*,*,#327,.F.);
#422=ORIENTED_EDGE('',*,*,#314,.F.);
#423=ORIENTED_EDGE('',*,*,#328,.F.);
#424=ORIENTED_EDGE('',*,*,#297,.F.);
#425=ORIENTED_EDGE('',*,*,#329,.T.);
#426=ORIENTED_EDGE('',*,*,#295,.F.);
#427=ORIENTED_EDGE('',*,*,#319,.T.);
#428=ORIENTED_EDGE('',*,*,#330,.F.);
#429=ORIENTED_EDGE('',*,*,#323,.T.);
#430=ORIENTED_EDGE('',*,*,#331,.T.);
#431=ORIENTED_EDGE('',*,*,#296,.F.);
#432=ORIENTED_EDGE('',*,*,#329,.F.);
#433=ORIENTED_EDGE('',*,*,#301,.F.);
#434=ORIENTED_EDGE('',*,*,#306,.T.);
#435=ORIENTED_EDGE('',*,*,#332,.T.);
#436=ORIENTED_EDGE('',*,*,#333,.F.);
#437=ORIENTED_EDGE('',*,*,#302,.F.);
#438=ORIENTED_EDGE('',*,*,#333,.T.);
#439=ORIENTED_EDGE('',*,*,#334,.T.);
#440=ORIENTED_EDGE('',*,*,#335,.F.);
#441=ORIENTED_EDGE('',*,*,#320,.F.);
#442=ORIENTED_EDGE('',*,*,#322,.F.);
#443=ORIENTED_EDGE('',*,*,#336,.T.);
#444=ORIENTED_EDGE('',*,*,#337,.T.);
#445=ORIENTED_EDGE('',*,*,#308,.F.);
#446=ORIENTED_EDGE('',*,*,#321,.F.);
#447=ORIENTED_EDGE('',*,*,#335,.T.);
#448=ORIENTED_EDGE('',*,*,#338,.T.);
#449=ORIENTED_EDGE('',*,*,#336,.F.);
#450=ORIENTED_EDGE('',*,*,#338,.F.);
#451=ORIENTED_EDGE('',*,*,#334,.F.);
#452=ORIENTED_EDGE('',*,*,#332,.F.);
#453=ORIENTED_EDGE('',*,*,#305,.F.);
#454=ORIENTED_EDGE('',*,*,#309,.F.);
#455=ORIENTED_EDGE('',*,*,#337,.F.);
#456=ORIENTED_EDGE('',*,*,#339,.F.);
#457=ORIENTED_EDGE('',*,*,#340,.T.);
#458=ORIENTED_EDGE('',*,*,#341,.T.);
#459=ORIENTED_EDGE('',*,*,#342,.T.);
#460=ORIENTED_EDGE('',*,*,#328,.T.);
#461=ORIENTED_EDGE('',*,*,#313,.T.);
#462=ORIENTED_EDGE('',*,*,#341,.F.);
#463=ORIENTED_EDGE('',*,*,#343,.T.);
#464=ORIENTED_EDGE('',*,*,#344,.F.);
#465=ORIENTED_EDGE('',*,*,#345,.T.);
#466=ORIENTED_EDGE('',*,*,#346,.F.);
#467=ORIENTED_EDGE('',*,*,#347,.T.);
#468=ORIENTED_EDGE('',*,*,#348,.T.);
#469=ORIENTED_EDGE('',*,*,#346,.T.);
#470=ORIENTED_EDGE('',*,*,#349,.T.);
#471=ORIENTED_EDGE('',*,*,#350,.T.);
#472=ORIENTED_EDGE('',*,*,#351,.T.);
#473=ORIENTED_EDGE('',*,*,#351,.F.);
#474=ORIENTED_EDGE('',*,*,#352,.F.);
#475=ORIENTED_EDGE('',*,*,#310,.F.);
#476=ORIENTED_EDGE('',*,*,#342,.F.);
#477=ORIENTED_EDGE('',*,*,#347,.F.);
#478=ORIENTED_EDGE('',*,*,#350,.F.);
#479=ORIENTED_EDGE('',*,*,#353,.T.);
#480=ORIENTED_EDGE('',*,*,#354,.F.);
#481=ORIENTED_EDGE('',*,*,#355,.T.);
#482=ORIENTED_EDGE('',*,*,#311,.T.);
#483=ORIENTED_EDGE('',*,*,#352,.T.);
#484=ORIENTED_EDGE('',*,*,#356,.T.);
#485=ORIENTED_EDGE('',*,*,#344,.T.);
#486=ORIENTED_EDGE('',*,*,#357,.T.);
#487=ORIENTED_EDGE('',*,*,#354,.T.);
#488=ORIENTED_EDGE('',*,*,#358,.T.);
#489=ORIENTED_EDGE('',*,*,#357,.F.);
#490=ORIENTED_EDGE('',*,*,#343,.F.);
#491=ORIENTED_EDGE('',*,*,#340,.F.);
#492=ORIENTED_EDGE('',*,*,#312,.T.);
#493=ORIENTED_EDGE('',*,*,#355,.F.);
#494=ORIENTED_EDGE('',*,*,#348,.F.);
#495=ORIENTED_EDGE('',*,*,#359,.T.);
#496=ORIENTED_EDGE('',*,*,#356,.F.);
#497=ORIENTED_EDGE('',*,*,#359,.F.);
#498=ORIENTED_EDGE('',*,*,#349,.F.);
#499=ORIENTED_EDGE('',*,*,#345,.F.);
#500=ORIENTED_EDGE('',*,*,#358,.F.);
#501=ORIENTED_EDGE('',*,*,#353,.F.);
#502=ORIENTED_EDGE('',*,*,#331,.F.);
#503=ORIENTED_EDGE('',*,*,#360,.T.);
#504=ORIENTED_EDGE('',*,*,#339,.T.);
#505=ORIENTED_EDGE('',*,*,#360,.F.);
#506=ORIENTED_EDGE('',*,*,#361,.F.);
#507=ORIENTED_EDGE('',*,*,#362,.T.);
#508=ORIENTED_EDGE('',*,*,#294,.F.);
#509=ORIENTED_EDGE('',*,*,#362,.F.);
#510=ORIENTED_EDGE('',*,*,#288,.F.);
#511=ORIENTED_EDGE('',*,*,#316,.T.);
#512=ORIENTED_EDGE('',*,*,#363,.F.);
#513=ORIENTED_EDGE('',*,*,#326,.T.);
#514=ORIENTED_EDGE('',*,*,#361,.T.);
#515=ORIENTED_EDGE('',*,*,#327,.T.);
#516=ORIENTED_EDGE('',*,*,#363,.T.);
#517=ORIENTED_EDGE('',*,*,#315,.T.);
#518=ORIENTED_EDGE('',*,*,#324,.T.);
#519=ORIENTED_EDGE('',*,*,#330,.T.);
#520=ORIENTED_EDGE('',*,*,#318,.T.);
#521=ORIENTED_EDGE('',*,*,#317,.T.);
#522=ORIENTED_EDGE('',*,*,#292,.F.);
#523=ORIENTED_EDGE('',*,*,#325,.T.);
#524=(
BOUNDED_SURFACE()
B_SPLINE_SURFACE(2,2,((#770,#771,#772,#773,#774),(#775,#776,#777,#778,#779),
(#780,#781,#782,#783,#784)),.UNSPECIFIED.,.F.,.F.,.F.)
B_SPLINE_SURFACE_WITH_KNOTS((3,3),(3,2,3),(-4.37095678986282E-16,1.5707963267949),
(0.0800855800336586,1.5707963267949,3.06150707355613),.UNSPECIFIED.)
GEOMETRIC_REPRESENTATION_ITEM()
RATIONAL_B_SPLINE_SURFACE(((1.,0.734846922834953,1.,0.734846922834953,1.),
(0.707106781186548,0.519615242270663,0.707106781186548,0.519615242270663,
0.707106781186548),(1.,0.734846922834953,1.,0.734846922834953,1.)))
REPRESENTATION_ITEM('')
SURFACE()
);
#525=(
BOUNDED_SURFACE()
B_SPLINE_SURFACE(2,2,((#874,#875,#876,#877,#878),(#879,#880,#881,#882,#883),
(#884,#885,#886,#887,#888)),.UNSPECIFIED.,.F.,.F.,.F.)
B_SPLINE_SURFACE_WITH_KNOTS((3,3),(3,2,3),(-4.37095678986282E-16,1.5707963267949),
(-3.06150707355613,-1.5707963267949,-0.0800855800336591),.UNSPECIFIED.)
GEOMETRIC_REPRESENTATION_ITEM()
RATIONAL_B_SPLINE_SURFACE(((1.,0.734846922834953,1.,0.734846922834953,1.),
(0.707106781186548,0.519615242270663,0.707106781186548,0.519615242270663,
0.707106781186548),(1.,0.734846922834953,1.,0.734846922834953,1.)))
REPRESENTATION_ITEM('')
SURFACE()
);
#526=ADVANCED_FACE('',(#133),#524,.F.);
#527=ADVANCED_FACE('',(#134),#116,.T.);
#528=ADVANCED_FACE('',(#135,#28),#117,.T.);
#529=ADVANCED_FACE('',(#136),#525,.F.);
#530=ADVANCED_FACE('',(#137),#118,.F.);
#531=ADVANCED_FACE('',(#138),#119,.F.);
#532=ADVANCED_FACE('',(#139),#20,.T.);
#533=ADVANCED_FACE('',(#140,#29),#120,.T.);
#534=ADVANCED_FACE('',(#141),#121,.T.);
#535=ADVANCED_FACE('',(#142),#122,.F.);
#536=ADVANCED_FACE('',(#143),#123,.F.);
#537=ADVANCED_FACE('',(#144),#124,.F.);
#538=ADVANCED_FACE('',(#145),#125,.F.);
#539=ADVANCED_FACE('',(#146,#30),#126,.F.);
#540=ADVANCED_FACE('',(#147),#15,.F.);
#541=ADVANCED_FACE('',(#148,#31),#127,.F.);
#542=ADVANCED_FACE('',(#149),#21,.T.);
#543=ADVANCED_FACE('',(#150),#128,.T.);
#544=ADVANCED_FACE('',(#151,#32),#129,.F.);
#545=ADVANCED_FACE('',(#152),#22,.T.);
#546=ADVANCED_FACE('',(#153),#130,.T.);
#547=ADVANCED_FACE('',(#154),#23,.F.);
#548=ADVANCED_FACE('',(#155),#131,.T.);
#549=ADVANCED_FACE('',(#156),#24,.F.);
#550=ADVANCED_FACE('',(#157),#25,.F.);
#551=ADVANCED_FACE('',(#158,#33),#132,.T.);
#552=ADVANCED_FACE('',(#159),#26,.T.);
#553=ADVANCED_FACE('',(#160),#27,.F.);
#554=CLOSED_SHELL('',(#526,#527,#528,#529,#530,#531,#532,#533,#534,#535,
#536,#537,#538,#539,#540,#541,#542,#543,#544,#545,#546,#547,#548,#549,#550,
#551,#552,#553));
#555=DERIVED_UNIT_ELEMENT(#557,1.);
#556=DERIVED_UNIT_ELEMENT(#1169,-3.);
#557=(
CONVERSION_BASED_UNIT('gram',#559)
MASS_UNIT()
NAMED_UNIT(#1166)
);
#558=(
MASS_UNIT()
NAMED_UNIT(*)
SI_UNIT(.KILO.,.GRAM.)
);
#559=MASS_MEASURE_WITH_UNIT(MASS_MEASURE(0.001),#558);
#560=DERIVED_UNIT((#555,#556));
#561=MEASURE_REPRESENTATION_ITEM('density measure',
POSITIVE_RATIO_MEASURE(1.),#560);
#562=PROPERTY_DEFINITION_REPRESENTATION(#567,#564);
#563=PROPERTY_DEFINITION_REPRESENTATION(#568,#565);
#564=REPRESENTATION('material name',(#566),#1163);
#565=REPRESENTATION('density',(#561),#1163);
#566=DESCRIPTIVE_REPRESENTATION_ITEM('Generic','Generic');
#567=PROPERTY_DEFINITION('material property','material name',#1177);
#568=PROPERTY_DEFINITION('material property','density of part',#1177);
#569=DATE_TIME_ROLE('creation_date');
#570=APPLIED_DATE_AND_TIME_ASSIGNMENT(#571,#569,(#1177));
#571=DATE_AND_TIME(#572,#573);
#572=CALENDAR_DATE(2026,22,6);
#573=LOCAL_TIME(0,0,0.,#574);
#574=COORDINATED_UNIVERSAL_TIME_OFFSET(0,0,.BEHIND.);
#575=AXIS2_PLACEMENT_3D('',#769,#626,#627);
#576=AXIS2_PLACEMENT_3D('',#806,#628,#629);
#577=AXIS2_PLACEMENT_3D('',#827,#630,#631);
#578=AXIS2_PLACEMENT_3D('',#863,#632,#633);
#579=AXIS2_PLACEMENT_3D('',#864,#634,#635);
#580=AXIS2_PLACEMENT_3D('',#866,#637,#638);
#581=AXIS2_PLACEMENT_3D('',#873,#642,#643);
#582=AXIS2_PLACEMENT_3D('',#910,#644,#645);
#583=AXIS2_PLACEMENT_3D('',#931,#646,#647);
#584=AXIS2_PLACEMENT_3D('',#964,#648,#649);
#585=AXIS2_PLACEMENT_3D('',#965,#650,#651);
#586=AXIS2_PLACEMENT_3D('',#971,#655,#656);
#587=AXIS2_PLACEMENT_3D('',#977,#660,#661);
#588=AXIS2_PLACEMENT_3D('',#982,#663,#664);
#589=AXIS2_PLACEMENT_3D('',#986,#666,#667);
#590=AXIS2_PLACEMENT_3D('',#990,#669,#670);
#591=AXIS2_PLACEMENT_3D('',#1035,#674,#675);
#592=AXIS2_PLACEMENT_3D('',#1036,#676,#677);
#593=AXIS2_PLACEMENT_3D('',#1079,#680,#681);
#594=AXIS2_PLACEMENT_3D('',#1080,#682,#683);
#595=AXIS2_PLACEMENT_3D('',#1081,#684,#685);
#596=AXIS2_PLACEMENT_3D('',#1085,#688,#689);
#597=AXIS2_PLACEMENT_3D('',#1086,#690,#691);
#598=AXIS2_PLACEMENT_3D('',#1087,#692,#693);
#599=AXIS2_PLACEMENT_3D('',#1091,#696,#697);
#600=AXIS2_PLACEMENT_3D('',#1095,#700,#701);
#601=AXIS2_PLACEMENT_3D('',#1099,#704,#705);
#602=AXIS2_PLACEMENT_3D('',#1101,#707,#708);
#603=AXIS2_PLACEMENT_3D('',#1103,#709,#710);
#604=AXIS2_PLACEMENT_3D('',#1104,#711,#712);
#605=AXIS2_PLACEMENT_3D('',#1111,#713,#714);
#606=AXIS2_PLACEMENT_3D('',#1116,#715,#716);
#607=AXIS2_PLACEMENT_3D('',#1120,#718,#719);
#608=AXIS2_PLACEMENT_3D('',#1124,#721,#722);
#609=AXIS2_PLACEMENT_3D('',#1127,#724,#725);
#610=AXIS2_PLACEMENT_3D('',#1128,#726,#727);
#611=AXIS2_PLACEMENT_3D('',#1132,#729,#730);
#612=AXIS2_PLACEMENT_3D('',#1134,#732,#733);
#613=AXIS2_PLACEMENT_3D('',#1136,#735,#736);
#614=AXIS2_PLACEMENT_3D('',#1140,#738,#739);
#615=AXIS2_PLACEMENT_3D('',#1143,#741,#742);
#616=AXIS2_PLACEMENT_3D('',#1144,#743,#744);
#617=AXIS2_PLACEMENT_3D('',#1147,#747,#748);
#618=AXIS2_PLACEMENT_3D('',#1148,#749,#750);
#619=AXIS2_PLACEMENT_3D('',#1150,#752,#753);
#620=AXIS2_PLACEMENT_3D('',#1151,#754,#755);
#621=AXIS2_PLACEMENT_3D('',#1153,#757,#758);
#622=AXIS2_PLACEMENT_3D('',#1155,#759,#760);
#623=AXIS2_PLACEMENT_3D('',#1157,#762,#763);
#624=AXIS2_PLACEMENT_3D('',#1159,#765,#766);
#625=AXIS2_PLACEMENT_3D('',#1160,#767,#768);
#626=DIRECTION('axis',(0.,0.,1.));
#627=DIRECTION('refdir',(1.,0.,0.));
#628=DIRECTION('center_axis',(0.,-1.,0.));
#629=DIRECTION('ref_axis',(0.286306895855352,0.,0.958137965736497));
#630=DIRECTION('center_axis',(0.,1.,0.));
#631=DIRECTION('ref_axis',(0.286306895855352,0.,0.958137965736497));
#632=DIRECTION('center_axis',(0.,-1.,0.));
#633=DIRECTION('ref_axis',(-1.,0.,0.));
#634=DIRECTION('center_axis',(0.,1.,0.));
#635=DIRECTION('ref_axis',(-1.,0.,0.));
#636=DIRECTION('',(0.,0.,1.));
#637=DIRECTION('center_axis',(-1.,-1.2294621909448E-16,0.));
#638=DIRECTION('ref_axis',(1.2294621909448E-16,-1.,0.));
#639=DIRECTION('',(0.,-1.,0.));
#640=DIRECTION('',(0.,0.,1.));
#641=DIRECTION('',(0.,1.,0.));
#642=DIRECTION('center_axis',(1.,1.2294621909448E-16,0.));
#643=DIRECTION('ref_axis',(0.,0.,-1.));
#644=DIRECTION('center_axis',(0.,-1.,0.));
#645=DIRECTION('ref_axis',(-1.,0.,-1.22464679914735E-16));
#646=DIRECTION('center_axis',(0.,1.,0.));
#647=DIRECTION('ref_axis',(-1.,0.,-1.22464679914735E-16));
#648=DIRECTION('center_axis',(0.,1.,0.));
#649=DIRECTION('ref_axis',(-1.,0.,-1.22464679914735E-16));
#650=DIRECTION('center_axis',(0.,0.86602540378444,-0.499999999999998));
#651=DIRECTION('ref_axis',(0.,0.499999999999998,0.86602540378444));
#652=DIRECTION('',(1.,0.,0.));
#653=DIRECTION('',(0.,0.499999999999998,0.86602540378444));
#654=DIRECTION('',(1.,0.,0.));
#655=DIRECTION('center_axis',(0.,0.,-1.));
#656=DIRECTION('ref_axis',(0.,1.,0.));
#657=DIRECTION('',(0.,1.,0.));
#658=DIRECTION('',(1.,0.,0.));
#659=DIRECTION('',(0.,1.,0.));
#660=DIRECTION('center_axis',(0.,-1.,0.));
#661=DIRECTION('ref_axis',(-1.,0.,0.));
#662=DIRECTION('',(0.,-1.,0.));
#663=DIRECTION('center_axis',(0.,-1.,0.));
#664=DIRECTION('ref_axis',(-1.,0.,0.));
#665=DIRECTION('',(0.,-1.,0.));
#666=DIRECTION('center_axis',(0.,-1.,0.));
#667=DIRECTION('ref_axis',(1.,0.,1.22464679914735E-16));
#668=DIRECTION('',(0.,1.,0.));
#669=DIRECTION('center_axis',(0.,0.707106781186548,-0.707106781186547));
#670=DIRECTION('ref_axis',(0.,-0.707106781186547,-0.707106781186547));
#671=DIRECTION('',(0.,-1.,0.));
#672=DIRECTION('',(0.,-1.,0.));
#673=DIRECTION('',(0.,-1.,0.));
#674=DIRECTION('center_axis',(0.,-0.866025403784439,0.499999999999999));
#675=DIRECTION('ref_axis',(0.,-0.499999999999999,-0.866025403784439));
#676=DIRECTION('center_axis',(0.,-0.866025403784438,-0.500000000000001));
#677=DIRECTION('ref_axis',(0.,0.500000000000001,-0.866025403784438));
#678=DIRECTION('',(0.,1.,0.));
#679=DIRECTION('',(0.,1.,0.));
#680=DIRECTION('center_axis',(0.,0.707106781186548,0.707106781186548));
#681=DIRECTION('ref_axis',(0.,0.707106781186547,-0.707106781186547));
#682=DIRECTION('center_axis',(0.,-1.,0.));
#683=DIRECTION('ref_axis',(1.,0.,1.22464679914735E-16));
#684=DIRECTION('center_axis',(1.,2.4589243818896E-16,0.));
#685=DIRECTION('ref_axis',(-2.4589243818896E-16,1.,0.));
#686=DIRECTION('',(0.,0.,1.));
#687=DIRECTION('',(0.,0.,1.));
#688=DIRECTION('center_axis',(-1.,-2.4589243818896E-16,0.));
#689=DIRECTION('ref_axis',(0.,0.,-1.));
#690=DIRECTION('center_axis',(0.,1.,0.));
#691=DIRECTION('ref_axis',(-1.,0.,0.));
#692=DIRECTION('center_axis',(0.,0.866025403784439,0.499999999999999));
#693=DIRECTION('ref_axis',(0.,-0.499999999999999,0.866025403784439));
#694=DIRECTION('',(0.,-0.499999999999999,0.866025403784439));
#695=DIRECTION('',(1.,0.,0.));
#696=DIRECTION('center_axis',(0.,0.,1.));
#697=DIRECTION('ref_axis',(0.,-1.,0.));
#698=DIRECTION('',(0.,-1.,0.));
#699=DIRECTION('',(1.,0.,0.));
#700=DIRECTION('center_axis',(0.,-0.866025403784438,-0.500000000000001));
#701=DIRECTION('ref_axis',(0.,0.500000000000001,-0.866025403784438));
#702=DIRECTION('',(1.,0.,0.));
#703=DIRECTION('',(0.,0.500000000000001,-0.866025403784438));
#704=DIRECTION('center_axis',(0.,-0.866025403784439,0.499999999999999));
#705=DIRECTION('ref_axis',(0.,-0.499999999999999,-0.866025403784439));
#706=DIRECTION('',(0.,-0.499999999999999,-0.866025403784439));
#707=DIRECTION('center_axis',(1.,0.,0.));
#708=DIRECTION('ref_axis',(0.,0.,-1.));
#709=DIRECTION('center_axis',(-1.,0.,0.));
#710=DIRECTION('ref_axis',(0.,0.,-1.));
#711=DIRECTION('center_axis',(0.,1.,0.));
#712=DIRECTION('ref_axis',(0.,0.,1.));
#713=DIRECTION('center_axis',(0.,1.,0.));
#714=DIRECTION('ref_axis',(1.,0.,1.22464679914735E-16));
#715=DIRECTION('center_axis',(0.,-1.,0.));
#716=DIRECTION('ref_axis',(0.,0.,-1.));
#717=DIRECTION('',(1.,0.,0.));
#718=DIRECTION('center_axis',(0.,-1.,0.));
#719=DIRECTION('ref_axis',(0.707106781186548,0.,0.707106781186547));
#720=DIRECTION('',(0.,0.,-1.));
#721=DIRECTION('center_axis',(0.,-1.,0.));
#722=DIRECTION('ref_axis',(0.707106781186547,0.,-0.707106781186548));
#723=DIRECTION('',(-1.,0.,-8.74191357972564E-17));
#724=DIRECTION('center_axis',(0.,-1.,0.));
#725=DIRECTION('ref_axis',(1.,0.,0.));
#726=DIRECTION('center_axis',(0.,1.,0.));
#727=DIRECTION('ref_axis',(0.707106781186547,0.,-0.707106781186548));
#728=DIRECTION('',(0.,-1.,0.));
#729=DIRECTION('center_axis',(0.,1.,0.));
#730=DIRECTION('ref_axis',(0.707106781186547,0.,-0.707106781186548));
#731=DIRECTION('',(0.,1.,0.));
#732=DIRECTION('center_axis',(8.74191357972564E-17,0.,-1.));
#733=DIRECTION('ref_axis',(-1.,0.,-8.74191357972564E-17));
#734=DIRECTION('',(1.,0.,8.74191357972564E-17));
#735=DIRECTION('center_axis',(0.,1.,0.));
#736=DIRECTION('ref_axis',(0.,0.,1.));
#737=DIRECTION('',(0.,0.,1.));
#738=DIRECTION('center_axis',(0.,1.,0.));
#739=DIRECTION('ref_axis',(0.707106781186548,0.,0.707106781186547));
#740=DIRECTION('',(-1.,0.,0.));
#741=DIRECTION('center_axis',(0.,1.,0.));
#742=DIRECTION('ref_axis',(1.,0.,0.));
#743=DIRECTION('center_axis',(0.,1.,0.));
#744=DIRECTION('ref_axis',(0.707106781186548,0.,0.707106781186547));
#745=DIRECTION('',(0.,-1.,0.));
#746=DIRECTION('',(0.,1.,0.));
#747=DIRECTION('center_axis',(0.,0.,1.));
#748=DIRECTION('ref_axis',(1.,0.,0.));
#749=DIRECTION('center_axis',(0.,1.,0.));
#750=DIRECTION('ref_axis',(1.,0.,0.));
#751=DIRECTION('',(0.,-1.,0.));
#752=DIRECTION('center_axis',(1.,0.,0.));
#753=DIRECTION('ref_axis',(0.,0.,-1.));
#754=DIRECTION('center_axis',(1.,9.71323731080627E-17,0.));
#755=DIRECTION('ref_axis',(0.,0.,-1.));
#756=DIRECTION('',(-1.,-9.71323731080627E-17,0.));
#757=DIRECTION('center_axis',(1.,9.71323731080627E-17,0.));
#758=DIRECTION('ref_axis',(0.,0.,-1.));
#759=DIRECTION('center_axis',(-1.,-9.71323731080627E-17,0.));
#760=DIRECTION('ref_axis',(0.,0.,-1.));
#761=DIRECTION('',(-1.,-9.71323731080627E-17,0.));
#762=DIRECTION('center_axis',(1.,9.71323731080627E-17,0.));
#763=DIRECTION('ref_axis',(-9.71323731080627E-17,1.,0.));
#764=DIRECTION('',(0.,0.,1.));
#765=DIRECTION('center_axis',(0.,0.,1.));
#766=DIRECTION('ref_axis',(-0.48,0.877268487978452,0.));
#767=DIRECTION('center_axis',(0.,0.,1.));
#768=DIRECTION('ref_axis',(3.82856869892695E-16,-1.,0.));
#769=CARTESIAN_POINT('',(0.,0.,0.));
#770=CARTESIAN_POINT('Ctrl Pts',(0.0249999999999999,0.716646402493266,0.311498394859428));
#771=CARTESIAN_POINT('Ctrl Pts',(0.3125,0.716646402493266,0.288424439684655));
#772=CARTESIAN_POINT('Ctrl Pts',(0.3125,0.716646402493266,0.));
#773=CARTESIAN_POINT('Ctrl Pts',(0.3125,0.716646402493266,-0.288424439684655));
#774=CARTESIAN_POINT('Ctrl Pts',(0.025,0.716646402493266,-0.311498394859428));
#775=CARTESIAN_POINT('Ctrl Pts',(0.0249999999999999,0.916646402493266,0.311498394859428));
#776=CARTESIAN_POINT('Ctrl Pts',(0.3125,0.916646402493266,0.288424439684655));
#777=CARTESIAN_POINT('Ctrl Pts',(0.3125,0.916646402493266,0.));
#778=CARTESIAN_POINT('Ctrl Pts',(0.3125,0.916646402493266,-0.288424439684655));
#779=CARTESIAN_POINT('Ctrl Pts',(0.025,0.916646402493266,-0.311498394859428));
#780=CARTESIAN_POINT('Ctrl Pts',(0.00899999999999995,0.916646402493266,
0.112139422149394));
#781=CARTESIAN_POINT('Ctrl Pts',(0.1125,0.916646402493266,0.103832798286476));
#782=CARTESIAN_POINT('Ctrl Pts',(0.1125,0.916646402493266,0.));
#783=CARTESIAN_POINT('Ctrl Pts',(0.1125,0.916646402493266,-0.103832798286476));
#784=CARTESIAN_POINT('Ctrl Pts',(0.00899999999999999,0.916646402493266,
-0.112139422149394));
#785=CARTESIAN_POINT('',(0.025,0.716646402493266,-0.311498394859428));
#786=CARTESIAN_POINT('',(0.0249999999999999,0.916646402493266,-0.109687054842401));
#787=CARTESIAN_POINT('Ctrl Pts',(0.0249999999999999,0.716646402493266,-0.311498394859428));
#788=CARTESIAN_POINT('Ctrl Pts',(0.0249999999999999,0.728959438915224,-0.311498394859428));
#789=CARTESIAN_POINT('Ctrl Pts',(0.0249999999999999,0.742406682832886,-0.310282424025737));
#790=CARTESIAN_POINT('Ctrl Pts',(0.0249999999999999,0.768741598832002,-0.305039464128884));
#791=CARTESIAN_POINT('Ctrl Pts',(0.0249999999999999,0.781629276400434,-0.301012502626355));
#792=CARTESIAN_POINT('Ctrl Pts',(0.0249999999999999,0.804396219253038,-0.291574588661483));
#793=CARTESIAN_POINT('Ctrl Pts',(0.0249999999999999,0.816371068075356,-0.285290707403886));
#794=CARTESIAN_POINT('Ctrl Pts',(0.0249999999999999,0.838724163783774,-0.270335989230021));
#795=CARTESIAN_POINT('Ctrl Pts',(0.0249999999999999,0.849102470374022,-0.26166524155485));
#796=CARTESIAN_POINT('Ctrl Pts',(0.0249999999999999,0.866568922900622,-0.244175713818157));
#797=CARTESIAN_POINT('Ctrl Pts',(0.0249999999999999,0.875258314738311,-0.233738758131944));
#798=CARTESIAN_POINT('Ctrl Pts',(0.0249999999999999,0.890237304241792,-0.211264337430641));
#799=CARTESIAN_POINT('Ctrl Pts',(0.0249999999999999,0.896527140282395,-0.199227031291027));
#800=CARTESIAN_POINT('Ctrl Pts',(0.0249999999999999,0.906061885613578,-0.176146702639178));
#801=CARTESIAN_POINT('Ctrl Pts',(0.0249999999999999,0.910146788534403,-0.162963623203804));
#802=CARTESIAN_POINT('Ctrl Pts',(0.0249999999999999,0.91543887386864,-0.136027384142549));
#803=CARTESIAN_POINT('Ctrl Pts',(0.0249999999999999,0.916646402493266,-0.122274292536942));
#804=CARTESIAN_POINT('Ctrl Pts',(0.0249999999999999,0.916646402493266,-0.109687054842401));
#805=CARTESIAN_POINT('',(0.0249999999999999,0.916646402493266,0.109687054842401));
#806=CARTESIAN_POINT('Origin',(0.,0.916646402493266,0.));
#807=CARTESIAN_POINT('',(0.025,0.716646402493266,0.311498394859428));
#808=CARTESIAN_POINT('Ctrl Pts',(0.0249999999999999,0.916646402493267,0.109687054842401));
#809=CARTESIAN_POINT('Ctrl Pts',(0.0249999999999999,0.916646402493267,0.122274292536942));
#810=CARTESIAN_POINT('Ctrl Pts',(0.0249999999999999,0.91543887386864,0.136027384142549));
#811=CARTESIAN_POINT('Ctrl Pts',(0.0249999999999999,0.910146788534403,0.162963623203805));
#812=CARTESIAN_POINT('Ctrl Pts',(0.0249999999999999,0.906061885613578,0.176146702639178));
#813=CARTESIAN_POINT('Ctrl Pts',(0.0249999999999999,0.896527140282395,0.199227031291027));
#814=CARTESIAN_POINT('Ctrl Pts',(0.0249999999999999,0.890237304241792,0.211264337430641));
#815=CARTESIAN_POINT('Ctrl Pts',(0.0249999999999999,0.875258314738311,0.233738758131944));
#816=CARTESIAN_POINT('Ctrl Pts',(0.0249999999999999,0.866568922900622,0.244175713818157));
#817=CARTESIAN_POINT('Ctrl Pts',(0.0249999999999999,0.849102470374022,0.26166524155485));
#818=CARTESIAN_POINT('Ctrl Pts',(0.0249999999999999,0.838724163783774,0.270335989230021));
#819=CARTESIAN_POINT('Ctrl Pts',(0.0249999999999999,0.816371068075356,0.285290707403886));
#820=CARTESIAN_POINT('Ctrl Pts',(0.0249999999999999,0.804396219253038,0.291574588661483));
#821=CARTESIAN_POINT('Ctrl Pts',(0.0249999999999999,0.781629276400434,0.301012502626355));
#822=CARTESIAN_POINT('Ctrl Pts',(0.0249999999999999,0.768741598832002,0.305039464128884));
#823=CARTESIAN_POINT('Ctrl Pts',(0.0249999999999999,0.742406682832886,0.310282424025737));
#824=CARTESIAN_POINT('Ctrl Pts',(0.0249999999999999,0.728959438915224,0.311498394859428));
#825=CARTESIAN_POINT('Ctrl Pts',(0.0249999999999999,0.716646402493266,0.311498394859428));
#826=CARTESIAN_POINT('',(0.15,0.716646402493266,0.274146402493266));
#827=CARTESIAN_POINT('Origin',(0.,0.716646402493266,0.));
#828=CARTESIAN_POINT('',(0.15,0.716646402493266,-0.274146402493266));
#829=CARTESIAN_POINT('Ctrl Pts',(0.15,0.716646402493266,0.274146402493266));
#830=CARTESIAN_POINT('Ctrl Pts',(0.15,0.726590185722205,0.274146402493266));
#831=CARTESIAN_POINT('Ctrl Pts',(0.15,0.737462255549832,0.273244558263997));
#832=CARTESIAN_POINT('Ctrl Pts',(0.15,0.758826921276559,0.269351180027267));
#833=CARTESIAN_POINT('Ctrl Pts',(0.15,0.769319648517986,0.266360366786945));
#834=CARTESIAN_POINT('Ctrl Pts',(0.15,0.788376404702332,0.259208354645261));
#835=CARTESIAN_POINT('Ctrl Pts',(0.15,0.798687279472389,0.254299830884069));
#836=CARTESIAN_POINT('Ctrl Pts',(0.15,0.818152850536036,0.242556437581667));
#837=CARTESIAN_POINT('Ctrl Pts',(0.15,0.827308987162632,0.235723955667915));
#838=CARTESIAN_POINT('Ctrl Pts',(0.15,0.84411613815867,0.220947071099617));
#839=CARTESIAN_POINT('Ctrl Pts',(0.15,0.853128424595708,0.211411178080639));
#840=CARTESIAN_POINT('Ctrl Pts',(0.15,0.86903465985495,0.190691671065676));
#841=CARTESIAN_POINT('Ctrl Pts',(0.15,0.875935547810091,0.179513385121939));
#842=CARTESIAN_POINT('Ctrl Pts',(0.15,0.893938594004066,0.144517643309968));
#843=CARTESIAN_POINT('Ctrl Pts',(0.15,0.902497553193213,0.116095296836527));
#844=CARTESIAN_POINT('Ctrl Pts',(0.15,0.911863136888454,0.0574949535288393));
#845=CARTESIAN_POINT('Ctrl Pts',(0.15,0.913099323062038,0.0273864175975522));
#846=CARTESIAN_POINT('Ctrl Pts',(0.15,0.913099323062038,-0.0273864175975522));
#847=CARTESIAN_POINT('Ctrl Pts',(0.15,0.911863136888454,-0.0574949535288394));
#848=CARTESIAN_POINT('Ctrl Pts',(0.15,0.902497553193213,-0.116095296836527));
#849=CARTESIAN_POINT('Ctrl Pts',(0.15,0.893938594004066,-0.144517643309968));
#850=CARTESIAN_POINT('Ctrl Pts',(0.15,0.875935547810091,-0.179513385121939));
#851=CARTESIAN_POINT('Ctrl Pts',(0.15,0.86903465985495,-0.190691671065677));
#852=CARTESIAN_POINT('Ctrl Pts',(0.15,0.853128424595708,-0.211411178080639));
#853=CARTESIAN_POINT('Ctrl Pts',(0.15,0.84411613815867,-0.220947071099617));
#854=CARTESIAN_POINT('Ctrl Pts',(0.15,0.827308987162632,-0.235723955667915));
#855=CARTESIAN_POINT('Ctrl Pts',(0.15,0.818152850536036,-0.242556437581667));
#856=CARTESIAN_POINT('Ctrl Pts',(0.15,0.798687279472389,-0.254299830884069));
#857=CARTESIAN_POINT('Ctrl Pts',(0.15,0.788376404702332,-0.259208354645261));
#858=CARTESIAN_POINT('Ctrl Pts',(0.15,0.769319648517986,-0.266360366786945));
#859=CARTESIAN_POINT('Ctrl Pts',(0.15,0.758826921276559,-0.269351180027267));
#860=CARTESIAN_POINT('Ctrl Pts',(0.15,0.737462255549832,-0.273244558263997));
#861=CARTESIAN_POINT('Ctrl Pts',(0.15,0.726590185722205,-0.274146402493266));
#862=CARTESIAN_POINT('Ctrl Pts',(0.15,0.716646402493266,-0.274146402493266));
#863=CARTESIAN_POINT('Origin',(0.,0.716646402493266,0.));
#864=CARTESIAN_POINT('Origin',(0.15,0.916646402493266,0.));
#865=CARTESIAN_POINT('',(0.0249999999999999,0.916646402493266,0.));
#866=CARTESIAN_POINT('Origin',(0.0249999999999999,0.916646402493266,0.));
#867=CARTESIAN_POINT('',(0.0249999999999999,0.383369719966264,-0.311498394859428));
#868=CARTESIAN_POINT('',(0.025,0.,-0.311498394859428));
#869=CARTESIAN_POINT('',(0.0249999999999999,0.383369719966264,0.311498394859428));
#870=CARTESIAN_POINT('',(0.0249999999999999,0.383369719966264,0.));
#871=CARTESIAN_POINT('',(0.025,0.,0.311498394859428));
#872=CARTESIAN_POINT('',(0.0249999999999998,0.666646402493266,0.097));
#873=CARTESIAN_POINT('Origin',(0.0249999999999998,0.666646402493266,0.));
#874=CARTESIAN_POINT('Ctrl Pts',(-0.025,0.716646402493266,-0.311498394859428));
#875=CARTESIAN_POINT('Ctrl Pts',(-0.3125,0.716646402493266,-0.288424439684655));
#876=CARTESIAN_POINT('Ctrl Pts',(-0.3125,0.716646402493266,0.));
#877=CARTESIAN_POINT('Ctrl Pts',(-0.3125,0.716646402493266,0.288424439684655));
#878=CARTESIAN_POINT('Ctrl Pts',(-0.0249999999999999,0.716646402493266,
0.311498394859428));
#879=CARTESIAN_POINT('Ctrl Pts',(-0.025,0.916646402493266,-0.311498394859428));
#880=CARTESIAN_POINT('Ctrl Pts',(-0.3125,0.916646402493266,-0.288424439684655));
#881=CARTESIAN_POINT('Ctrl Pts',(-0.3125,0.916646402493266,0.));
#882=CARTESIAN_POINT('Ctrl Pts',(-0.3125,0.916646402493266,0.288424439684655));
#883=CARTESIAN_POINT('Ctrl Pts',(-0.0249999999999999,0.916646402493266,
0.311498394859428));
#884=CARTESIAN_POINT('Ctrl Pts',(-0.00899999999999999,0.916646402493266,
-0.112139422149394));
#885=CARTESIAN_POINT('Ctrl Pts',(-0.1125,0.916646402493266,-0.103832798286476));
#886=CARTESIAN_POINT('Ctrl Pts',(-0.1125,0.916646402493266,0.));
#887=CARTESIAN_POINT('Ctrl Pts',(-0.1125,0.916646402493266,0.103832798286476));
#888=CARTESIAN_POINT('Ctrl Pts',(-0.00899999999999997,0.916646402493266,
0.112139422149394));
#889=CARTESIAN_POINT('',(-0.025,0.716646402493266,0.311498394859428));
#890=CARTESIAN_POINT('',(-0.0250000000000002,0.916646402493266,0.109687054842401));
#891=CARTESIAN_POINT('Ctrl Pts',(-0.0250000000000001,0.716646402493266,
0.311498394859428));
#892=CARTESIAN_POINT('Ctrl Pts',(-0.0250000000000002,0.728959438915224,
0.311498394859428));
#893=CARTESIAN_POINT('Ctrl Pts',(-0.0250000000000002,0.742406682832886,
0.310282424025737));
#894=CARTESIAN_POINT('Ctrl Pts',(-0.0250000000000002,0.768741598832002,
0.305039464128884));
#895=CARTESIAN_POINT('Ctrl Pts',(-0.0250000000000002,0.781629276400434,
0.301012502626355));
#896=CARTESIAN_POINT('Ctrl Pts',(-0.0250000000000002,0.804396219253038,
0.291574588661483));
#897=CARTESIAN_POINT('Ctrl Pts',(-0.0250000000000002,0.816371068075356,
0.285290707403886));
#898=CARTESIAN_POINT('Ctrl Pts',(-0.0250000000000002,0.838724163783774,
0.270335989230021));
#899=CARTESIAN_POINT('Ctrl Pts',(-0.0250000000000002,0.849102470374022,
0.26166524155485));
#900=CARTESIAN_POINT('Ctrl Pts',(-0.0250000000000002,0.866568922900622,
0.244175713818157));
#901=CARTESIAN_POINT('Ctrl Pts',(-0.0250000000000002,0.875258314738311,
0.233738758131944));
#902=CARTESIAN_POINT('Ctrl Pts',(-0.0250000000000002,0.890237304241792,
0.211264337430641));
#903=CARTESIAN_POINT('Ctrl Pts',(-0.0250000000000002,0.896527140282395,
0.199227031291027));
#904=CARTESIAN_POINT('Ctrl Pts',(-0.0250000000000002,0.906061885613578,
0.176146702639178));
#905=CARTESIAN_POINT('Ctrl Pts',(-0.0250000000000002,0.910146788534403,
0.162963623203804));
#906=CARTESIAN_POINT('Ctrl Pts',(-0.0250000000000002,0.91543887386864,0.136027384142549));
#907=CARTESIAN_POINT('Ctrl Pts',(-0.0250000000000002,0.916646402493267,
0.122274292536942));
#908=CARTESIAN_POINT('Ctrl Pts',(-0.0250000000000002,0.916646402493267,
0.109687054842401));
#909=CARTESIAN_POINT('',(-0.0250000000000002,0.916646402493266,-0.109687054842401));
#910=CARTESIAN_POINT('Origin',(0.,0.916646402493266,0.));
#911=CARTESIAN_POINT('',(-0.025,0.716646402493266,-0.311498394859428));
#912=CARTESIAN_POINT('Ctrl Pts',(-0.0250000000000002,0.916646402493266,
-0.109687054842401));
#913=CARTESIAN_POINT('Ctrl Pts',(-0.0250000000000002,0.916646402493266,
-0.122274292536942));
#914=CARTESIAN_POINT('Ctrl Pts',(-0.0250000000000002,0.91543887386864,-0.136027384142549));
#915=CARTESIAN_POINT('Ctrl Pts',(-0.0250000000000002,0.910146788534403,
-0.162963623203804));
#916=CARTESIAN_POINT('Ctrl Pts',(-0.0250000000000002,0.906061885613578,
-0.176146702639178));
#917=CARTESIAN_POINT('Ctrl Pts',(-0.0250000000000002,0.896527140282395,
-0.199227031291027));
#918=CARTESIAN_POINT('Ctrl Pts',(-0.0250000000000002,0.890237304241792,
-0.211264337430641));
#919=CARTESIAN_POINT('Ctrl Pts',(-0.0250000000000002,0.875258314738311,
-0.233738758131944));
#920=CARTESIAN_POINT('Ctrl Pts',(-0.0250000000000002,0.866568922900622,
-0.244175713818157));
#921=CARTESIAN_POINT('Ctrl Pts',(-0.0250000000000002,0.849102470374022,
-0.26166524155485));
#922=CARTESIAN_POINT('Ctrl Pts',(-0.0250000000000002,0.838724163783774,
-0.270335989230021));
#923=CARTESIAN_POINT('Ctrl Pts',(-0.0250000000000002,0.816371068075356,
-0.285290707403886));
#924=CARTESIAN_POINT('Ctrl Pts',(-0.0250000000000002,0.804396219253038,
-0.291574588661483));
#925=CARTESIAN_POINT('Ctrl Pts',(-0.0250000000000002,0.781629276400434,
-0.301012502626355));
#926=CARTESIAN_POINT('Ctrl Pts',(-0.0250000000000002,0.768741598832002,
-0.305039464128884));
#927=CARTESIAN_POINT('Ctrl Pts',(-0.0250000000000001,0.742406682832886,
-0.310282424025737));
#928=CARTESIAN_POINT('Ctrl Pts',(-0.0250000000000002,0.728959438915224,
-0.311498394859428));
#929=CARTESIAN_POINT('Ctrl Pts',(-0.0250000000000001,0.716646402493266,
-0.311498394859428));
#930=CARTESIAN_POINT('',(-0.260991324185307,0.716646402493266,-0.17187140163506));
#931=CARTESIAN_POINT('Origin',(0.,0.716646402493266,0.));
#932=CARTESIAN_POINT('',(-0.253590825881109,0.765876402493266,-0.17187140163506));
#933=CARTESIAN_POINT('Ctrl Pts',(-0.260991324185307,0.716646402493266,-0.17187140163506));
#934=CARTESIAN_POINT('Ctrl Pts',(-0.260991324185307,0.732233963915847,-0.17187140163506));
#935=CARTESIAN_POINT('Ctrl Pts',(-0.258378066832988,0.750272475620631,-0.17187140163506));
#936=CARTESIAN_POINT('Ctrl Pts',(-0.253590825881109,0.765876402493266,-0.17187140163506));
#937=CARTESIAN_POINT('',(-0.246513538122087,0.865106402493266,1.24152781019235E-16));
#938=CARTESIAN_POINT('Ctrl Pts',(-0.253590825881109,0.765876402493266,-0.17187140163506));
#939=CARTESIAN_POINT('Ctrl Pts',(-0.254706070476314,0.767162577508643,-0.169643681161002));
#940=CARTESIAN_POINT('Ctrl Pts',(-0.255757811349261,0.768436335968505,-0.16743746679195));
#941=CARTESIAN_POINT('Ctrl Pts',(-0.264543283707736,0.779587942970572,-0.14812231687833));
#942=CARTESIAN_POINT('Ctrl Pts',(-0.270491520472801,0.792004778317791,-0.126615727187728));
#943=CARTESIAN_POINT('Ctrl Pts',(-0.274190500682329,0.812992659551698,-0.0902636505473807));
#944=CARTESIAN_POINT('Ctrl Pts',(-0.272757670970321,0.825487140841123,-0.0686225741398779));
#945=CARTESIAN_POINT('Ctrl Pts',(-0.264313145616996,0.845349890407547,-0.0342192827128141));
#946=CARTESIAN_POINT('Ctrl Pts',(-0.256085427005699,0.856465942464947,-0.0149657157698171));
#947=CARTESIAN_POINT('Ctrl Pts',(-0.246513538122087,0.865106402493266,2.32207079461462E-17));
#948=CARTESIAN_POINT('',(-0.253590825881109,0.765876402493266,0.17187140163506));
#949=CARTESIAN_POINT('Ctrl Pts',(-0.246513538122087,0.865106402493266,8.19554398099279E-18));
#950=CARTESIAN_POINT('Ctrl Pts',(-0.256085427005698,0.856465942464947,0.0149657157698169));
#951=CARTESIAN_POINT('Ctrl Pts',(-0.264313145616995,0.845349890407547,0.0342192827128136));
#952=CARTESIAN_POINT('Ctrl Pts',(-0.27275767097032,0.825487140841123,0.0686225741398769));
#953=CARTESIAN_POINT('Ctrl Pts',(-0.274190500682329,0.812992659551698,0.0902636505473795));
#954=CARTESIAN_POINT('Ctrl Pts',(-0.270491520472801,0.792004778317792,0.126615727187726));
#955=CARTESIAN_POINT('Ctrl Pts',(-0.264543283707737,0.779587942970572,0.148122316878328));
#956=CARTESIAN_POINT('Ctrl Pts',(-0.255757811349261,0.768436335968506,0.167437466791949));
#957=CARTESIAN_POINT('Ctrl Pts',(-0.254706070476314,0.767162577508643,0.169643681161001));
#958=CARTESIAN_POINT('Ctrl Pts',(-0.253590825881109,0.765876402493266,0.17187140163506));
#959=CARTESIAN_POINT('',(-0.260991324185307,0.716646402493266,0.17187140163506));
#960=CARTESIAN_POINT('Ctrl Pts',(-0.253590825881109,0.765876402493266,0.17187140163506));
#961=CARTESIAN_POINT('Ctrl Pts',(-0.258378066832988,0.750272475620631,0.17187140163506));
#962=CARTESIAN_POINT('Ctrl Pts',(-0.260991324185307,0.732233963915847,0.17187140163506));
#963=CARTESIAN_POINT('Ctrl Pts',(-0.260991324185307,0.716646402493266,0.17187140163506));
#964=CARTESIAN_POINT('Origin',(0.,0.716646402493266,0.));
#965=CARTESIAN_POINT('Origin',(-0.3125,0.765876402493266,-0.17187140163506));
#966=CARTESIAN_POINT('',(-0.1875,0.765876402493266,-0.17187140163506));
#967=CARTESIAN_POINT('',(-0.3125,0.765876402493266,-0.17187140163506));
#968=CARTESIAN_POINT('',(-0.1875,0.865106402493266,1.24152781019235E-16));
#969=CARTESIAN_POINT('',(-0.1875,0.865106402493266,1.24152781019235E-16));
#970=CARTESIAN_POINT('',(-0.3125,0.865106402493266,1.24152781019235E-16));
#971=CARTESIAN_POINT('Origin',(-0.3125,0.567416402493267,-0.17187140163506));
#972=CARTESIAN_POINT('',(-0.260991324185307,0.567416402493267,-0.17187140163506));
#973=CARTESIAN_POINT('',(-0.260991324185307,0.,-0.17187140163506));
#974=CARTESIAN_POINT('',(-0.1875,0.567416402493267,-0.17187140163506));
#975=CARTESIAN_POINT('',(-0.3125,0.567416402493267,-0.17187140163506));
#976=CARTESIAN_POINT('',(-0.1875,0.765876402493266,-0.17187140163506));
#977=CARTESIAN_POINT('Origin',(0.,0.,0.));
#978=CARTESIAN_POINT('',(-1.19836203290401E-17,-1.2,-0.3125));
#979=CARTESIAN_POINT('',(5.74053187100322E-17,-1.5,-0.3125));
#980=CARTESIAN_POINT('',(0.,0.,-0.3125));
#981=CARTESIAN_POINT('',(-5.74053187100322E-17,-1.5,0.3125));
#982=CARTESIAN_POINT('Origin',(0.,-1.5,0.));
#983=CARTESIAN_POINT('',(-1.91351062366774E-17,-1.2,0.3125));
#984=CARTESIAN_POINT('',(0.,0.,0.3125));
#985=CARTESIAN_POINT('',(0.3125,-1.2,3.82702124733548E-17));
#986=CARTESIAN_POINT('Origin',(0.,-1.2,0.));
#987=CARTESIAN_POINT('',(0.3125,0.1925,0.));
#988=CARTESIAN_POINT('',(0.3125,0.,3.82702124733548E-17));
#989=CARTESIAN_POINT('',(0.15,0.466646402493266,0.274146402493266));
#990=CARTESIAN_POINT('Origin',(0.,0.1925,0.));
#991=CARTESIAN_POINT('',(0.15,0.,0.274146402493266));
#992=CARTESIAN_POINT('',(-2.18547839493141E-17,0.,0.3125));
#993=CARTESIAN_POINT('Ctrl Pts',(-4.37095678986282E-17,1.63910879619856E-17,
0.3125));
#994=CARTESIAN_POINT('Ctrl Pts',(0.024896107917108,1.3627064738673E-17,
0.3125));
#995=CARTESIAN_POINT('Ctrl Pts',(0.0510027049609139,0.00511744701825451,
0.309268821817812));
#996=CARTESIAN_POINT('Ctrl Pts',(0.0982657596560001,0.0249967608303672,
0.297644619680157));
#997=CARTESIAN_POINT('Ctrl Pts',(0.119461892596733,0.0397257818399123,0.289357036631248));
#998=CARTESIAN_POINT('Ctrl Pts',(0.152897537290154,0.0731614265333332,0.273177726490297));
#999=CARTESIAN_POINT('Ctrl Pts',(0.167541624999236,0.0943251083181764,0.264065784653893));
#1000=CARTESIAN_POINT('Ctrl Pts',(0.187344870090317,0.141408098310858,0.250405376446147));
#1001=CARTESIAN_POINT('Ctrl Pts',(0.1925,0.167419565932228,0.246170672501823));
#1002=CARTESIAN_POINT('Ctrl Pts',(0.1925,0.1925,0.246170672501823));
#1003=CARTESIAN_POINT('Ctrl Pts',(0.1925,0.217580434067772,0.246170672501823));
#1004=CARTESIAN_POINT('Ctrl Pts',(0.187344870090317,0.243591901689142,0.250405376446147));
#1005=CARTESIAN_POINT('Ctrl Pts',(0.167541624999236,0.290674891681824,0.264065784653893));
#1006=CARTESIAN_POINT('Ctrl Pts',(0.152897537290154,0.311838573466667,0.273177726490297));
#1007=CARTESIAN_POINT('Ctrl Pts',(0.119461892596733,0.345274218160088,0.289357036631248));
#1008=CARTESIAN_POINT('Ctrl Pts',(0.098265759656,0.360003239169633,0.297644619680157));
#1009=CARTESIAN_POINT('Ctrl Pts',(0.0588264115762249,0.376591823679904,
0.307344605371186));
#1010=CARTESIAN_POINT('Ctrl Pts',(0.0419254094663492,0.381152840113695,
0.310140008287806));
#1011=CARTESIAN_POINT('Ctrl Pts',(0.0249999999999999,0.383369719966264,
0.311498394859428));
#1012=CARTESIAN_POINT('',(-0.0250000000000001,0.383369719966264,0.311498394859428));
#1013=CARTESIAN_POINT('Ctrl Pts',(-0.0250000000000001,0.383369719966264,
0.311498394859428));
#1014=CARTESIAN_POINT('Ctrl Pts',(-0.0419254094663494,0.381152840113695,
0.310140008287806));
#1015=CARTESIAN_POINT('Ctrl Pts',(-0.0588264115762251,0.376591823679904,
0.307344605371186));
#1016=CARTESIAN_POINT('Ctrl Pts',(-0.0982657596560002,0.360003239169633,
0.297644619680157));
#1017=CARTESIAN_POINT('Ctrl Pts',(-0.119461892596733,0.345274218160088,
0.289357036631248));
#1018=CARTESIAN_POINT('Ctrl Pts',(-0.152897537290154,0.311838573466667,
0.273177726490296));
#1019=CARTESIAN_POINT('Ctrl Pts',(-0.167541624999236,0.290674891681823,
0.264065784653893));
#1020=CARTESIAN_POINT('Ctrl Pts',(-0.187344870090317,0.243591901689141,
0.250405376446147));
#1021=CARTESIAN_POINT('Ctrl Pts',(-0.1925,0.217580434067772,0.246170672501823));
#1022=CARTESIAN_POINT('Ctrl Pts',(-0.1925,0.167419565932228,0.246170672501823));
#1023=CARTESIAN_POINT('Ctrl Pts',(-0.187344870090317,0.141408098310858,
0.250405376446147));
#1024=CARTESIAN_POINT('Ctrl Pts',(-0.167541624999236,0.0943251083181764,
0.264065784653893));
#1025=CARTESIAN_POINT('Ctrl Pts',(-0.152897537290154,0.0731614265333332,
0.273177726490296));
#1026=CARTESIAN_POINT('Ctrl Pts',(-0.119461892596733,0.0397257818399123,
0.289357036631248));
#1027=CARTESIAN_POINT('Ctrl Pts',(-0.0982657596560002,0.0249967608303671,
0.297644619680157));
#1028=CARTESIAN_POINT('Ctrl Pts',(-0.0510027049609139,0.00511744701825452,
0.309268821817812));
#1029=CARTESIAN_POINT('Ctrl Pts',(-0.0248961079171081,1.50010325429172E-17,
0.3125));
#1030=CARTESIAN_POINT('Ctrl Pts',(-3.82458719112997E-17,1.70740499604016E-17,
0.3125));
#1031=CARTESIAN_POINT('',(-0.025,0.,0.311498394859428));
#1032=CARTESIAN_POINT('',(-0.260991324185307,0.567416402493266,0.17187140163506));
#1033=CARTESIAN_POINT('',(-0.260991324185307,0.,0.17187140163506));
#1034=CARTESIAN_POINT('',(-0.3125,0.468186402493266,-2.23536963628944E-16));
#1035=CARTESIAN_POINT('Origin',(0.,0.468186402493266,0.));
#1036=CARTESIAN_POINT('Origin',(0.,0.468186402493266,0.));
#1037=CARTESIAN_POINT('',(-0.0250000000000001,0.383369719966264,-0.311498394859428));
#1038=CARTESIAN_POINT('',(-0.025,0.,-0.311498394859428));
#1039=CARTESIAN_POINT('',(-2.18547839493141E-17,0.,-0.3125));
#1040=CARTESIAN_POINT('Ctrl Pts',(-3.27821759239712E-17,1.16103539730731E-17,
-0.3125));
#1041=CARTESIAN_POINT('Ctrl Pts',(-0.0248961079171081,1.02283423614168E-17,
-0.3125));
#1042=CARTESIAN_POINT('Ctrl Pts',(-0.0510027049609138,0.00511744701825449,
-0.309268821817812));
#1043=CARTESIAN_POINT('Ctrl Pts',(-0.0982657596560001,0.0249967608303671,
-0.297644619680157));
#1044=CARTESIAN_POINT('Ctrl Pts',(-0.119461892596733,0.0397257818399123,
-0.289357036631248));
#1045=CARTESIAN_POINT('Ctrl Pts',(-0.152897537290154,0.0731614265333332,
-0.273177726490296));
#1046=CARTESIAN_POINT('Ctrl Pts',(-0.167541624999236,0.0943251083181764,
-0.264065784653893));
#1047=CARTESIAN_POINT('Ctrl Pts',(-0.187344870090317,0.141408098310858,
-0.250405376446147));
#1048=CARTESIAN_POINT('Ctrl Pts',(-0.1925,0.167419565932228,-0.246170672501823));
#1049=CARTESIAN_POINT('Ctrl Pts',(-0.1925,0.217580434067772,-0.246170672501823));
#1050=CARTESIAN_POINT('Ctrl Pts',(-0.187344870090317,0.243591901689141,
-0.250405376446147));
#1051=CARTESIAN_POINT('Ctrl Pts',(-0.167541624999236,0.290674891681823,
-0.264065784653893));
#1052=CARTESIAN_POINT('Ctrl Pts',(-0.152897537290154,0.311838573466667,
-0.273177726490296));
#1053=CARTESIAN_POINT('Ctrl Pts',(-0.119461892596733,0.345274218160088,
-0.289357036631248));
#1054=CARTESIAN_POINT('Ctrl Pts',(-0.0982657596560002,0.360003239169633,
-0.297644619680157));
#1055=CARTESIAN_POINT('Ctrl Pts',(-0.0588264115762251,0.376591823679904,
-0.307344605371186));
#1056=CARTESIAN_POINT('Ctrl Pts',(-0.0419254094663494,0.381152840113695,
-0.310140008287806));
#1057=CARTESIAN_POINT('Ctrl Pts',(-0.025,0.383369719966264,-0.311498394859428));
#1058=CARTESIAN_POINT('Ctrl Pts',(0.0249999999999999,0.383369719966264,
-0.311498394859428));
#1059=CARTESIAN_POINT('Ctrl Pts',(0.0419254094663493,0.381152840113695,
-0.310140008287806));
#1060=CARTESIAN_POINT('Ctrl Pts',(0.0588264115762251,0.376591823679904,
-0.307344605371186));
#1061=CARTESIAN_POINT('Ctrl Pts',(0.0982657596560001,0.360003239169633,
-0.297644619680157));
#1062=CARTESIAN_POINT('Ctrl Pts',(0.119461892596733,0.345274218160088,-0.289357036631248));
#1063=CARTESIAN_POINT('Ctrl Pts',(0.152897537290154,0.311838573466667,-0.273177726490297));
#1064=CARTESIAN_POINT('Ctrl Pts',(0.167541624999236,0.290674891681824,-0.264065784653893));
#1065=CARTESIAN_POINT('Ctrl Pts',(0.187344870090317,0.243591901689142,-0.250405376446147));
#1066=CARTESIAN_POINT('Ctrl Pts',(0.1925,0.217580434067772,-0.246170672501823));
#1067=CARTESIAN_POINT('Ctrl Pts',(0.1925,0.1925,-0.246170672501823));
#1068=CARTESIAN_POINT('Ctrl Pts',(0.1925,0.167419565932228,-0.246170672501823));
#1069=CARTESIAN_POINT('Ctrl Pts',(0.187344870090317,0.141408098310858,-0.250405376446147));
#1070=CARTESIAN_POINT('Ctrl Pts',(0.167541624999236,0.0943251083181764,
-0.264065784653893));
#1071=CARTESIAN_POINT('Ctrl Pts',(0.152897537290154,0.0731614265333332,
-0.273177726490297));
#1072=CARTESIAN_POINT('Ctrl Pts',(0.119461892596733,0.0397257818399123,
-0.289357036631248));
#1073=CARTESIAN_POINT('Ctrl Pts',(0.0982657596560001,0.0249967608303671,
-0.297644619680157));
#1074=CARTESIAN_POINT('Ctrl Pts',(0.0510027049609138,0.00511744701825449,
-0.309268821817812));
#1075=CARTESIAN_POINT('Ctrl Pts',(0.024896107917108,8.83024313493635E-18,
-0.3125));
#1076=CARTESIAN_POINT('Ctrl Pts',(-4.37095678986282E-17,1.29762779699052E-17,
-0.3125));
#1077=CARTESIAN_POINT('',(0.15,0.466646402493266,-0.274146402493266));
#1078=CARTESIAN_POINT('',(0.15,0.,-0.274146402493266));
#1079=CARTESIAN_POINT('Origin',(0.,0.1925,0.));
#1080=CARTESIAN_POINT('Origin',(0.,-1.2,0.));
#1081=CARTESIAN_POINT('Origin',(-0.0250000000000001,0.383369719966264,0.));
#1082=CARTESIAN_POINT('',(-0.0250000000000002,0.916646402493266,0.));
#1083=CARTESIAN_POINT('',(-0.0250000000000001,0.383369719966264,0.));
#1084=CARTESIAN_POINT('',(-0.0250000000000001,0.666646402493266,0.097));
#1085=CARTESIAN_POINT('Origin',(-0.0250000000000001,0.666646402493266,0.));
#1086=CARTESIAN_POINT('Origin',(-0.0250000000000002,0.916646402493266,0.));
#1087=CARTESIAN_POINT('Origin',(-0.3125,0.865106402493266,1.09273919746571E-16));
#1088=CARTESIAN_POINT('',(-0.1875,0.765876402493266,0.17187140163506));
#1089=CARTESIAN_POINT('',(-0.1875,0.765876402493266,0.17187140163506));
#1090=CARTESIAN_POINT('',(-0.3125,0.765876402493266,0.17187140163506));
#1091=CARTESIAN_POINT('Origin',(-0.3125,0.765876402493266,0.17187140163506));
#1092=CARTESIAN_POINT('',(-0.1875,0.567416402493266,0.17187140163506));
#1093=CARTESIAN_POINT('',(-0.1875,0.567416402493266,0.17187140163506));
#1094=CARTESIAN_POINT('',(-0.3125,0.567416402493266,0.17187140163506));
#1095=CARTESIAN_POINT('Origin',(-0.3125,0.468186402493266,-2.18547839493141E-16));
#1096=CARTESIAN_POINT('',(-0.1875,0.468186402493266,-2.23536963628944E-16));
#1097=CARTESIAN_POINT('',(-0.3125,0.468186402493266,-2.23536963628944E-16));
#1098=CARTESIAN_POINT('',(-0.1875,0.567416402493267,-0.17187140163506));
#1099=CARTESIAN_POINT('Origin',(-0.3125,0.567416402493266,0.17187140163506));
#1100=CARTESIAN_POINT('',(-0.1875,0.468186402493266,-2.23536963628944E-16));
#1101=CARTESIAN_POINT('Origin',(-0.1875,0.666646402493266,4.37095678986282E-17));
#1102=CARTESIAN_POINT('',(-0.1875,0.666646402493266,0.097));
#1103=CARTESIAN_POINT('Origin',(-0.1875,0.666646402493266,0.));
#1104=CARTESIAN_POINT('Origin',(0.,-1.2,0.));
#1105=CARTESIAN_POINT('',(0.183711730708738,-1.25,0.3125));
#1106=CARTESIAN_POINT('Ctrl Pts',(0.,-1.2,0.3125));
#1107=CARTESIAN_POINT('Ctrl Pts',(0.0561347495288075,-1.22245389981152,
0.3125));
#1108=CARTESIAN_POINT('Ctrl Pts',(0.123252755184769,-1.25,0.3125));
#1109=CARTESIAN_POINT('Ctrl Pts',(0.183711730708738,-1.25,0.3125));
#1110=CARTESIAN_POINT('',(0.183711730708738,-1.25,-0.3125));
#1111=CARTESIAN_POINT('Origin',(0.,-1.25,0.));
#1112=CARTESIAN_POINT('Ctrl Pts',(0.183711730708738,-1.25,-0.3125));
#1113=CARTESIAN_POINT('Ctrl Pts',(0.123252755184769,-1.25,-0.3125));
#1114=CARTESIAN_POINT('Ctrl Pts',(0.0561347495288076,-1.22245389981152,
-0.3125));
#1115=CARTESIAN_POINT('Ctrl Pts',(2.73184799366426E-17,-1.2,-0.3125));
#1116=CARTESIAN_POINT('Origin',(0.5,-1.25,0.));
#1117=CARTESIAN_POINT('',(0.75,-1.25,0.3125));
#1118=CARTESIAN_POINT('',(1.,-1.25,0.3125));
#1119=CARTESIAN_POINT('',(1.,-1.25,0.0624999999999999));
#1120=CARTESIAN_POINT('Origin',(0.75,-1.25,0.0624999999999999));
#1121=CARTESIAN_POINT('',(1.,-1.25,-0.0624999999999998));
#1122=CARTESIAN_POINT('',(1.,-1.25,-0.3125));
#1123=CARTESIAN_POINT('',(0.75,-1.25,-0.3125));
#1124=CARTESIAN_POINT('Origin',(0.75,-1.25,-0.0624999999999999));
#1125=CARTESIAN_POINT('',(0.,-1.25,-0.3125));
#1126=CARTESIAN_POINT('',(0.528,-1.25,1.18790739517293E-17));
#1127=CARTESIAN_POINT('Origin',(0.625,-1.25,0.));
#1128=CARTESIAN_POINT('Origin',(0.75,-1.5,-0.0624999999999999));
#1129=CARTESIAN_POINT('',(1.,-1.5,-0.0624999999999998));
#1130=CARTESIAN_POINT('',(1.,-1.5,-0.0624999999999999));
#1131=CARTESIAN_POINT('',(0.75,-1.5,-0.3125));
#1132=CARTESIAN_POINT('Origin',(0.75,-1.5,-0.0624999999999999));
#1133=CARTESIAN_POINT('',(0.75,-1.5,-0.3125));
#1134=CARTESIAN_POINT('Origin',(1.,-1.5,-0.3125));
#1135=CARTESIAN_POINT('',(0.,-1.5,-0.3125));
#1136=CARTESIAN_POINT('Origin',(0.,-1.5,0.));
#1137=CARTESIAN_POINT('',(1.,-1.5,0.0624999999999999));
#1138=CARTESIAN_POINT('',(1.,-1.5,-0.3125));
#1139=CARTESIAN_POINT('',(0.75,-1.5,0.3125));
#1140=CARTESIAN_POINT('Origin',(0.75,-1.5,0.0624999999999999));
#1141=CARTESIAN_POINT('',(1.,-1.5,0.3125));
#1142=CARTESIAN_POINT('',(0.528,-1.5,1.18790739517293E-17));
#1143=CARTESIAN_POINT('Origin',(0.625,-1.5,0.));
#1144=CARTESIAN_POINT('Origin',(0.75,-1.5,0.0624999999999999));
#1145=CARTESIAN_POINT('',(0.75,-1.5,0.3125));
#1146=CARTESIAN_POINT('',(1.,-1.5,0.0624999999999999));
#1147=CARTESIAN_POINT('Origin',(0.,-1.5,0.3125));
#1148=CARTESIAN_POINT('Origin',(0.625,-4.07027611683024,0.));
#1149=CARTESIAN_POINT('',(0.528,-4.07027611683024,1.18790739517293E-17));
#1150=CARTESIAN_POINT('Origin',(1.,-1.5,0.3125));
#1151=CARTESIAN_POINT('Origin',(-2.42327512610817,0.666646402493266,0.));
#1152=CARTESIAN_POINT('',(-2.42327512610817,0.666646402493266,0.097));
#1153=CARTESIAN_POINT('Origin',(-2.42327512610817,0.666646402493266,0.));
#1154=CARTESIAN_POINT('',(0.15,0.666646402493266,0.097));
#1155=CARTESIAN_POINT('Origin',(0.15,0.666646402493266,0.));
#1156=CARTESIAN_POINT('',(-2.42327512610817,0.666646402493266,0.097));
#1157=CARTESIAN_POINT('Origin',(0.15,0.466646402493266,0.));
#1158=CARTESIAN_POINT('',(0.15,0.466646402493266,0.));
#1159=CARTESIAN_POINT('Origin',(-3.53616763253798E-17,0.1925,0.));
#1160=CARTESIAN_POINT('Origin',(-3.53616763253798E-17,0.1925,0.));
#1161=UNCERTAINTY_MEASURE_WITH_UNIT(LENGTH_MEASURE(0.000393700787401575),
#1167,'DISTANCE_ACCURACY_VALUE',
'Maximum model space distance between geometric entities at asserted c
onnectivities');
#1162=UNCERTAINTY_MEASURE_WITH_UNIT(LENGTH_MEASURE(0.000393700787401575),
#1167,'DISTANCE_ACCURACY_VALUE',
'Maximum model space distance between geometric entities at asserted c
onnectivities');
#1163=(
GEOMETRIC_REPRESENTATION_CONTEXT(3)
GLOBAL_UNCERTAINTY_ASSIGNED_CONTEXT((#1161))
GLOBAL_UNIT_ASSIGNED_CONTEXT((#1167,#1171,#1172))
REPRESENTATION_CONTEXT('','3D')
);
#1164=(
GEOMETRIC_REPRESENTATION_CONTEXT(3)
GLOBAL_UNCERTAINTY_ASSIGNED_CONTEXT((#1162))
GLOBAL_UNIT_ASSIGNED_CONTEXT((#1167,#1171,#1172))
REPRESENTATION_CONTEXT('','3D')
);
#1165=DIMENSIONAL_EXPONENTS(1.,0.,0.,0.,0.,0.,0.);
#1166=DIMENSIONAL_EXPONENTS(0.,1.,0.,0.,0.,0.,0.);
#1167=(
CONVERSION_BASED_UNIT('inch',#1170)
LENGTH_UNIT()
NAMED_UNIT(#1165)
);
#1168=(
LENGTH_UNIT()
NAMED_UNIT(*)
SI_UNIT(.MILLI.,.METRE.)
);
#1169=(
LENGTH_UNIT()
NAMED_UNIT(*)
SI_UNIT(.CENTI.,.METRE.)
);
#1170=LENGTH_MEASURE_WITH_UNIT(LENGTH_MEASURE(25.4),#1168);
#1171=(
NAMED_UNIT(*)
PLANE_ANGLE_UNIT()
SI_UNIT($,.RADIAN.)
);
#1172=(
NAMED_UNIT(*)
SI_UNIT($,.STERADIAN.)
SOLID_ANGLE_UNIT()
);
#1173=SHAPE_DEFINITION_REPRESENTATION(#1174,#1175);
#1174=PRODUCT_DEFINITION_SHAPE('',$,#1177);
#1175=SHAPE_REPRESENTATION('',(#575),#1163);
#1176=PRODUCT_DEFINITION_CONTEXT('part definition',#1181,'design');
#1177=PRODUCT_DEFINITION('optostim-light-rail-holder.iam',
'optostim-light-rail-holder.iam',#1178,#1176);
#1178=PRODUCT_DEFINITION_FORMATION('0',$,#1183);
#1179=PRODUCT_RELATED_PRODUCT_CATEGORY('optostim-light-rail-holder.iam',
'optostim-light-rail-holder.iam',(#1183));
#1180=APPLICATION_PROTOCOL_DEFINITION('international standard',
'automotive_design',2009,#1181);
#1181=APPLICATION_CONTEXT(
'Core Data for Automotive Mechanical Design Process');
#1182=PRODUCT_CONTEXT('part definition',#1181,'mechanical');
#1183=PRODUCT('optostim-light-rail-holder.iam',
'optostim-light-rail-holder.iam',$,(#1182));
#1184=PRESENTATION_STYLE_ASSIGNMENT((#1185));
#1185=SURFACE_STYLE_USAGE(.BOTH.,#1188);
#1186=SURFACE_STYLE_RENDERING_WITH_PROPERTIES($,#1192,(#1187));
#1187=SURFACE_STYLE_TRANSPARENT(0.);
#1188=SURFACE_SIDE_STYLE('',(#1189,#1186));
#1189=SURFACE_STYLE_FILL_AREA(#1190);
#1190=FILL_AREA_STYLE('',(#1191));
#1191=FILL_AREA_STYLE_COLOUR('',#1192);
#1192=COLOUR_RGB('',0.749019607843137,0.749019607843137,0.749019607843137);
ENDSEC;
END-ISO-10303-21;
