ISO-10303-21;
HEADER;
/* Generated by software containing ST-Developer
 * from STEP Tools, Inc. (www.steptools.com) 
 */

FILE_DESCRIPTION(
/* description */ (''),
/* implementation_level */ '2;1');

FILE_NAME(
/* name */ 'optostim-light-guide.stp',
/* time_stamp */ '2026-07-01T17:11:35-04:00',
/* author */ ('labadmin'),
/* organization */ (''),
/* preprocessor_version */ 'ST-DEVELOPER v20',
/* originating_system */ 'Autodesk Inventor 2025',
/* authorisation */ '');

FILE_SCHEMA (('AUTOMOTIVE_DESIGN { 1 0 10303 214 3 1 1 }'));
ENDSEC;

DATA;
#10=MECHANICAL_DESIGN_GEOMETRIC_PRESENTATION_REPRESENTATION('',(#13),#646);
#11=SHAPE_REPRESENTATION_RELATIONSHIP('SRR','None',#657,#12);
#12=ADVANCED_BREP_SHAPE_REPRESENTATION('',(#14),#645);
#13=STYLED_ITEM('',(#666),#14);
#14=MANIFOLD_SOLID_BREP('Solid1',#355);
#15=(
BOUNDED_SURFACE()
B_SPLINE_SURFACE(2,2,((#615,#616,#617),(#618,#619,#620),(#621,#622,#623),
(#624,#625,#626),(#627,#628,#629),(#630,#631,#632),(#633,#634,#635),(#636,
#637,#638),(#639,#640,#641)),.UNSPECIFIED.,.F.,.F.,.F.)
B_SPLINE_SURFACE_WITH_KNOTS((3,2,2,2,3),(3,3),(-2.49809154479651,-1.24904577239825,
0.,1.24904577239825,2.49809154479651),(1.5707963267949,2.35619449019234),
 .UNSPECIFIED.)
GEOMETRIC_REPRESENTATION_ITEM()
RATIONAL_B_SPLINE_SURFACE(((1.,0.923879532511287,1.),(0.811242185175561,
0.749490050793432,0.811242185175561),(1.,0.923879532511287,1.),(0.811242185175558,
0.74949005079343,0.811242185175558),(1.,0.923879532511287,1.),(0.811242185175558,
0.74949005079343,0.811242185175558),(1.,0.923879532511287,1.),(0.811242185175561,
0.749490050793432,0.811242185175561),(1.,0.923879532511287,1.)))
REPRESENTATION_ITEM('')
SURFACE()
);
#16=ELLIPSE('',#405,0.338247562591373,0.3125);
#17=TOROIDAL_SURFACE('',#396,0.25,0.2);
#18=CYLINDRICAL_SURFACE('',#387,0.2);
#19=CYLINDRICAL_SURFACE('',#394,0.2);
#20=CYLINDRICAL_SURFACE('',#400,0.2);
#21=CYLINDRICAL_SURFACE('',#402,0.3125);
#22=CYLINDRICAL_SURFACE('',#408,0.3125);
#23=FACE_BOUND('',#72,.T.);
#24=FACE_BOUND('',#76,.T.);
#25=FACE_BOUND('',#81,.T.);
#26=FACE_BOUND('',#83,.T.);
#27=FACE_BOUND('',#87,.T.);
#28=CIRCLE('',#385,0.3125);
#29=CIRCLE('',#386,0.2);
#30=CIRCLE('',#388,0.2);
#31=CIRCLE('',#389,0.2);
#32=CIRCLE('',#392,0.3125);
#33=CIRCLE('',#393,0.2);
#34=CIRCLE('',#395,0.2);
#35=CIRCLE('',#397,0.2);
#36=CIRCLE('',#398,0.2);
#37=CIRCLE('',#399,0.0499999999999999);
#38=CIRCLE('',#401,0.2);
#39=CIRCLE('',#403,0.3125);
#40=CIRCLE('',#404,0.3125);
#41=CIRCLE('',#406,0.3125);
#42=CIRCLE('',#409,0.3125);
#43=CIRCLE('',#410,0.3125);
#44=CIRCLE('',#411,0.3125);
#45=FACE_OUTER_BOUND('',#64,.T.);
#46=FACE_OUTER_BOUND('',#65,.T.);
#47=FACE_OUTER_BOUND('',#66,.T.);
#48=FACE_OUTER_BOUND('',#67,.T.);
#49=FACE_OUTER_BOUND('',#68,.T.);
#50=FACE_OUTER_BOUND('',#69,.T.);
#51=FACE_OUTER_BOUND('',#70,.T.);
#52=FACE_OUTER_BOUND('',#71,.T.);
#53=FACE_OUTER_BOUND('',#73,.T.);
#54=FACE_OUTER_BOUND('',#74,.T.);
#55=FACE_OUTER_BOUND('',#75,.T.);
#56=FACE_OUTER_BOUND('',#77,.T.);
#57=FACE_OUTER_BOUND('',#78,.T.);
#58=FACE_OUTER_BOUND('',#79,.T.);
#59=FACE_OUTER_BOUND('',#80,.T.);
#60=FACE_OUTER_BOUND('',#82,.T.);
#61=FACE_OUTER_BOUND('',#84,.T.);
#62=FACE_OUTER_BOUND('',#85,.T.);
#63=FACE_OUTER_BOUND('',#86,.T.);
#64=EDGE_LOOP('',(#228,#229,#230,#231));
#65=EDGE_LOOP('',(#232,#233,#234,#235));
#66=EDGE_LOOP('',(#236,#237,#238,#239));
#67=EDGE_LOOP('',(#240,#241,#242,#243));
#68=EDGE_LOOP('',(#244,#245,#246,#247));
#69=EDGE_LOOP('',(#248,#249,#250,#251));
#70=EDGE_LOOP('',(#252,#253,#254,#255));
#71=EDGE_LOOP('',(#256,#257,#258,#259,#260,#261,#262,#263,#264));
#72=EDGE_LOOP('',(#265));
#73=EDGE_LOOP('',(#266,#267,#268,#269,#270));
#74=EDGE_LOOP('',(#271,#272,#273,#274));
#75=EDGE_LOOP('',(#275,#276,#277,#278,#279,#280,#281,#282,#283));
#76=EDGE_LOOP('',(#284));
#77=EDGE_LOOP('',(#285,#286,#287,#288));
#78=EDGE_LOOP('',(#289,#290,#291,#292,#293,#294));
#79=EDGE_LOOP('',(#295,#296,#297,#298,#299));
#80=EDGE_LOOP('',(#300,#301,#302,#303,#304,#305));
#81=EDGE_LOOP('',(#306,#307,#308,#309));
#82=EDGE_LOOP('',(#310));
#83=EDGE_LOOP('',(#311));
#84=EDGE_LOOP('',(#312,#313,#314,#315,#316,#317));
#85=EDGE_LOOP('',(#318,#319,#320,#321));
#86=EDGE_LOOP('',(#322));
#87=EDGE_LOOP('',(#323));
#88=LINE('',#521,#118);
#89=LINE('',#523,#119);
#90=LINE('',#525,#120);
#91=LINE('',#526,#121);
#92=LINE('',#530,#122);
#93=LINE('',#532,#123);
#94=LINE('',#534,#124);
#95=LINE('',#535,#125);
#96=LINE('',#538,#126);
#97=LINE('',#540,#127);
#98=LINE('',#541,#128);
#99=LINE('',#544,#129);
#100=LINE('',#546,#130);
#101=LINE('',#547,#131);
#102=LINE('',#549,#132);
#103=LINE('',#550,#133);
#104=LINE('',#554,#134);
#105=LINE('',#555,#135);
#106=LINE('',#556,#136);
#107=LINE('',#559,#137);
#108=LINE('',#561,#138);
#109=LINE('',#562,#139);
#110=LINE('',#565,#140);
#111=LINE('',#573,#141);
#112=LINE('',#577,#142);
#113=LINE('',#578,#143);
#114=LINE('',#585,#144);
#115=LINE('',#596,#145);
#116=LINE('',#601,#146);
#117=LINE('',#613,#147);
#118=VECTOR('',#417,0.393700787401575);
#119=VECTOR('',#418,0.393700787401575);
#120=VECTOR('',#419,0.393700787401575);
#121=VECTOR('',#420,0.393700787401575);
#122=VECTOR('',#423,0.393700787401575);
#123=VECTOR('',#424,0.393700787401575);
#124=VECTOR('',#425,0.393700787401575);
#125=VECTOR('',#426,0.393700787401575);
#126=VECTOR('',#429,0.393700787401575);
#127=VECTOR('',#430,0.393700787401575);
#128=VECTOR('',#431,0.393700787401575);
#129=VECTOR('',#434,0.393700787401575);
#130=VECTOR('',#435,0.393700787401575);
#131=VECTOR('',#436,0.393700787401575);
#132=VECTOR('',#439,0.393700787401575);
#133=VECTOR('',#440,0.393700787401575);
#134=VECTOR('',#443,0.393700787401575);
#135=VECTOR('',#444,0.393700787401575);
#136=VECTOR('',#445,0.393700787401575);
#137=VECTOR('',#448,0.393700787401575);
#138=VECTOR('',#449,0.393700787401575);
#139=VECTOR('',#450,0.393700787401575);
#140=VECTOR('',#453,0.393700787401575);
#141=VECTOR('',#462,0.2);
#142=VECTOR('',#467,0.393700787401575);
#143=VECTOR('',#468,0.393700787401575);
#144=VECTOR('',#477,0.2);
#145=VECTOR('',#492,0.2);
#146=VECTOR('',#497,0.3125);
#147=VECTOR('',#512,0.3125);
#148=VERTEX_POINT('',#519);
#149=VERTEX_POINT('',#520);
#150=VERTEX_POINT('',#522);
#151=VERTEX_POINT('',#524);
#152=VERTEX_POINT('',#528);
#153=VERTEX_POINT('',#529);
#154=VERTEX_POINT('',#531);
#155=VERTEX_POINT('',#533);
#156=VERTEX_POINT('',#537);
#157=VERTEX_POINT('',#539);
#158=VERTEX_POINT('',#543);
#159=VERTEX_POINT('',#545);
#160=VERTEX_POINT('',#552);
#161=VERTEX_POINT('',#553);
#162=VERTEX_POINT('',#558);
#163=VERTEX_POINT('',#560);
#164=VERTEX_POINT('',#564);
#165=VERTEX_POINT('',#567);
#166=VERTEX_POINT('',#570);
#167=VERTEX_POINT('',#571);
#168=VERTEX_POINT('',#576);
#169=VERTEX_POINT('',#581);
#170=VERTEX_POINT('',#584);
#171=VERTEX_POINT('',#588);
#172=VERTEX_POINT('',#589);
#173=VERTEX_POINT('',#594);
#174=VERTEX_POINT('',#598);
#175=VERTEX_POINT('',#600);
#176=VERTEX_POINT('',#602);
#177=VERTEX_POINT('',#604);
#178=VERTEX_POINT('',#609);
#179=VERTEX_POINT('',#612);
#180=EDGE_CURVE('',#148,#149,#88,.T.);
#181=EDGE_CURVE('',#148,#150,#89,.T.);
#182=EDGE_CURVE('',#151,#150,#90,.T.);
#183=EDGE_CURVE('',#151,#149,#91,.T.);
#184=EDGE_CURVE('',#152,#153,#92,.T.);
#185=EDGE_CURVE('',#153,#154,#93,.T.);
#186=EDGE_CURVE('',#154,#155,#94,.T.);
#187=EDGE_CURVE('',#152,#155,#95,.T.);
#188=EDGE_CURVE('',#153,#156,#96,.T.);
#189=EDGE_CURVE('',#156,#157,#97,.T.);
#190=EDGE_CURVE('',#157,#154,#98,.T.);
#191=EDGE_CURVE('',#156,#158,#99,.T.);
#192=EDGE_CURVE('',#158,#159,#100,.T.);
#193=EDGE_CURVE('',#159,#157,#101,.T.);
#194=EDGE_CURVE('',#158,#151,#102,.T.);
#195=EDGE_CURVE('',#150,#159,#103,.T.);
#196=EDGE_CURVE('',#160,#161,#104,.T.);
#197=EDGE_CURVE('',#160,#152,#105,.T.);
#198=EDGE_CURVE('',#155,#161,#106,.T.);
#199=EDGE_CURVE('',#149,#162,#107,.T.);
#200=EDGE_CURVE('',#163,#162,#108,.T.);
#201=EDGE_CURVE('',#148,#163,#109,.T.);
#202=EDGE_CURVE('',#160,#164,#110,.T.);
#203=EDGE_CURVE('',#162,#164,#28,.T.);
#204=EDGE_CURVE('',#165,#165,#29,.T.);
#205=EDGE_CURVE('',#166,#167,#30,.T.);
#206=EDGE_CURVE('',#166,#165,#111,.T.);
#207=EDGE_CURVE('',#167,#166,#31,.T.);
#208=EDGE_CURVE('',#161,#168,#112,.T.);
#209=EDGE_CURVE('',#164,#168,#113,.T.);
#210=EDGE_CURVE('',#168,#163,#32,.T.);
#211=EDGE_CURVE('',#169,#169,#33,.T.);
#212=EDGE_CURVE('',#169,#170,#114,.T.);
#213=EDGE_CURVE('',#170,#170,#34,.T.);
#214=EDGE_CURVE('',#171,#172,#35,.T.);
#215=EDGE_CURVE('',#172,#171,#36,.T.);
#216=EDGE_CURVE('',#172,#167,#37,.T.);
#217=EDGE_CURVE('',#173,#173,#38,.T.);
#218=EDGE_CURVE('',#173,#171,#115,.T.);
#219=EDGE_CURVE('',#174,#174,#39,.T.);
#220=EDGE_CURVE('',#174,#175,#116,.T.);
#221=EDGE_CURVE('',#175,#176,#40,.T.);
#222=EDGE_CURVE('',#177,#176,#16,.T.);
#223=EDGE_CURVE('',#177,#175,#41,.T.);
#224=EDGE_CURVE('',#177,#178,#42,.T.);
#225=EDGE_CURVE('',#178,#176,#43,.T.);
#226=EDGE_CURVE('',#178,#179,#117,.T.);
#227=EDGE_CURVE('',#179,#179,#44,.T.);
#228=ORIENTED_EDGE('',*,*,#180,.F.);
#229=ORIENTED_EDGE('',*,*,#181,.T.);
#230=ORIENTED_EDGE('',*,*,#182,.F.);
#231=ORIENTED_EDGE('',*,*,#183,.T.);
#232=ORIENTED_EDGE('',*,*,#184,.T.);
#233=ORIENTED_EDGE('',*,*,#185,.T.);
#234=ORIENTED_EDGE('',*,*,#186,.T.);
#235=ORIENTED_EDGE('',*,*,#187,.F.);
#236=ORIENTED_EDGE('',*,*,#188,.T.);
#237=ORIENTED_EDGE('',*,*,#189,.T.);
#238=ORIENTED_EDGE('',*,*,#190,.T.);
#239=ORIENTED_EDGE('',*,*,#185,.F.);
#240=ORIENTED_EDGE('',*,*,#191,.T.);
#241=ORIENTED_EDGE('',*,*,#192,.T.);
#242=ORIENTED_EDGE('',*,*,#193,.T.);
#243=ORIENTED_EDGE('',*,*,#189,.F.);
#244=ORIENTED_EDGE('',*,*,#194,.T.);
#245=ORIENTED_EDGE('',*,*,#182,.T.);
#246=ORIENTED_EDGE('',*,*,#195,.T.);
#247=ORIENTED_EDGE('',*,*,#192,.F.);
#248=ORIENTED_EDGE('',*,*,#196,.F.);
#249=ORIENTED_EDGE('',*,*,#197,.T.);
#250=ORIENTED_EDGE('',*,*,#187,.T.);
#251=ORIENTED_EDGE('',*,*,#198,.T.);
#252=ORIENTED_EDGE('',*,*,#180,.T.);
#253=ORIENTED_EDGE('',*,*,#199,.T.);
#254=ORIENTED_EDGE('',*,*,#200,.F.);
#255=ORIENTED_EDGE('',*,*,#201,.F.);
#256=ORIENTED_EDGE('',*,*,#183,.F.);
#257=ORIENTED_EDGE('',*,*,#194,.F.);
#258=ORIENTED_EDGE('',*,*,#191,.F.);
#259=ORIENTED_EDGE('',*,*,#188,.F.);
#260=ORIENTED_EDGE('',*,*,#184,.F.);
#261=ORIENTED_EDGE('',*,*,#197,.F.);
#262=ORIENTED_EDGE('',*,*,#202,.T.);
#263=ORIENTED_EDGE('',*,*,#203,.F.);
#264=ORIENTED_EDGE('',*,*,#199,.F.);
#265=ORIENTED_EDGE('',*,*,#204,.F.);
#266=ORIENTED_EDGE('',*,*,#205,.F.);
#267=ORIENTED_EDGE('',*,*,#206,.T.);
#268=ORIENTED_EDGE('',*,*,#204,.T.);
#269=ORIENTED_EDGE('',*,*,#206,.F.);
#270=ORIENTED_EDGE('',*,*,#207,.F.);
#271=ORIENTED_EDGE('',*,*,#196,.T.);
#272=ORIENTED_EDGE('',*,*,#208,.T.);
#273=ORIENTED_EDGE('',*,*,#209,.F.);
#274=ORIENTED_EDGE('',*,*,#202,.F.);
#275=ORIENTED_EDGE('',*,*,#201,.T.);
#276=ORIENTED_EDGE('',*,*,#210,.F.);
#277=ORIENTED_EDGE('',*,*,#208,.F.);
#278=ORIENTED_EDGE('',*,*,#198,.F.);
#279=ORIENTED_EDGE('',*,*,#186,.F.);
#280=ORIENTED_EDGE('',*,*,#190,.F.);
#281=ORIENTED_EDGE('',*,*,#193,.F.);
#282=ORIENTED_EDGE('',*,*,#195,.F.);
#283=ORIENTED_EDGE('',*,*,#181,.F.);
#284=ORIENTED_EDGE('',*,*,#211,.F.);
#285=ORIENTED_EDGE('',*,*,#211,.T.);
#286=ORIENTED_EDGE('',*,*,#212,.T.);
#287=ORIENTED_EDGE('',*,*,#213,.F.);
#288=ORIENTED_EDGE('',*,*,#212,.F.);
#289=ORIENTED_EDGE('',*,*,#214,.F.);
#290=ORIENTED_EDGE('',*,*,#215,.F.);
#291=ORIENTED_EDGE('',*,*,#216,.T.);
#292=ORIENTED_EDGE('',*,*,#207,.T.);
#293=ORIENTED_EDGE('',*,*,#205,.T.);
#294=ORIENTED_EDGE('',*,*,#216,.F.);
#295=ORIENTED_EDGE('',*,*,#217,.F.);
#296=ORIENTED_EDGE('',*,*,#218,.T.);
#297=ORIENTED_EDGE('',*,*,#214,.T.);
#298=ORIENTED_EDGE('',*,*,#215,.T.);
#299=ORIENTED_EDGE('',*,*,#218,.F.);
#300=ORIENTED_EDGE('',*,*,#219,.F.);
#301=ORIENTED_EDGE('',*,*,#220,.T.);
#302=ORIENTED_EDGE('',*,*,#221,.T.);
#303=ORIENTED_EDGE('',*,*,#222,.F.);
#304=ORIENTED_EDGE('',*,*,#223,.T.);
#305=ORIENTED_EDGE('',*,*,#220,.F.);
#306=ORIENTED_EDGE('',*,*,#209,.T.);
#307=ORIENTED_EDGE('',*,*,#210,.T.);
#308=ORIENTED_EDGE('',*,*,#200,.T.);
#309=ORIENTED_EDGE('',*,*,#203,.T.);
#310=ORIENTED_EDGE('',*,*,#219,.T.);
#311=ORIENTED_EDGE('',*,*,#213,.T.);
#312=ORIENTED_EDGE('',*,*,#224,.F.);
#313=ORIENTED_EDGE('',*,*,#222,.T.);
#314=ORIENTED_EDGE('',*,*,#225,.F.);
#315=ORIENTED_EDGE('',*,*,#226,.T.);
#316=ORIENTED_EDGE('',*,*,#227,.T.);
#317=ORIENTED_EDGE('',*,*,#226,.F.);
#318=ORIENTED_EDGE('',*,*,#224,.T.);
#319=ORIENTED_EDGE('',*,*,#225,.T.);
#320=ORIENTED_EDGE('',*,*,#221,.F.);
#321=ORIENTED_EDGE('',*,*,#223,.F.);
#322=ORIENTED_EDGE('',*,*,#227,.F.);
#323=ORIENTED_EDGE('',*,*,#217,.T.);
#324=PLANE('',#377);
#325=PLANE('',#378);
#326=PLANE('',#379);
#327=PLANE('',#380);
#328=PLANE('',#381);
#329=PLANE('',#382);
#330=PLANE('',#383);
#331=PLANE('',#384);
#332=PLANE('',#390);
#333=PLANE('',#391);
#334=PLANE('',#407);
#335=PLANE('',#412);
#336=ADVANCED_FACE('',(#45),#324,.F.);
#337=ADVANCED_FACE('',(#46),#325,.F.);
#338=ADVANCED_FACE('',(#47),#326,.F.);
#339=ADVANCED_FACE('',(#48),#327,.F.);
#340=ADVANCED_FACE('',(#49),#328,.F.);
#341=ADVANCED_FACE('',(#50),#329,.F.);
#342=ADVANCED_FACE('',(#51),#330,.F.);
#343=ADVANCED_FACE('',(#52,#23),#331,.F.);
#344=ADVANCED_FACE('',(#53),#18,.F.);
#345=ADVANCED_FACE('',(#54),#332,.F.);
#346=ADVANCED_FACE('',(#55,#24),#333,.F.);
#347=ADVANCED_FACE('',(#56),#19,.F.);
#348=ADVANCED_FACE('',(#57),#17,.F.);
#349=ADVANCED_FACE('',(#58),#20,.F.);
#350=ADVANCED_FACE('',(#59,#25),#21,.T.);
#351=ADVANCED_FACE('',(#60,#26),#334,.T.);
#352=ADVANCED_FACE('',(#61),#22,.T.);
#353=ADVANCED_FACE('',(#62),#15,.F.);
#354=ADVANCED_FACE('',(#63,#27),#335,.F.);
#355=CLOSED_SHELL('',(#336,#337,#338,#339,#340,#341,#342,#343,#344,#345,
#346,#347,#348,#349,#350,#351,#352,#353,#354));
#356=DERIVED_UNIT_ELEMENT(#358,1.);
#357=DERIVED_UNIT_ELEMENT(#651,-3.);
#358=(
CONVERSION_BASED_UNIT('gram',#360)
MASS_UNIT()
NAMED_UNIT(#648)
);
#359=(
MASS_UNIT()
NAMED_UNIT(*)
SI_UNIT(.KILO.,.GRAM.)
);
#360=MASS_MEASURE_WITH_UNIT(MASS_MEASURE(0.001),#359);
#361=DERIVED_UNIT((#356,#357));
#362=MEASURE_REPRESENTATION_ITEM('density measure',
POSITIVE_RATIO_MEASURE(1.),#361);
#363=PROPERTY_DEFINITION_REPRESENTATION(#368,#365);
#364=PROPERTY_DEFINITION_REPRESENTATION(#369,#366);
#365=REPRESENTATION('material name',(#367),#645);
#366=REPRESENTATION('density',(#362),#645);
#367=DESCRIPTIVE_REPRESENTATION_ITEM('Generic','Generic');
#368=PROPERTY_DEFINITION('material property','material name',#659);
#369=PROPERTY_DEFINITION('material property','density of part',#659);
#370=DATE_TIME_ROLE('creation_date');
#371=APPLIED_DATE_AND_TIME_ASSIGNMENT(#372,#370,(#659));
#372=DATE_AND_TIME(#373,#374);
#373=CALENDAR_DATE(2026,18,6);
#374=LOCAL_TIME(0,0,0.,#375);
#375=COORDINATED_UNIVERSAL_TIME_OFFSET(0,0,.BEHIND.);
#376=AXIS2_PLACEMENT_3D('',#517,#413,#414);
#377=AXIS2_PLACEMENT_3D('',#518,#415,#416);
#378=AXIS2_PLACEMENT_3D('',#527,#421,#422);
#379=AXIS2_PLACEMENT_3D('',#536,#427,#428);
#380=AXIS2_PLACEMENT_3D('',#542,#432,#433);
#381=AXIS2_PLACEMENT_3D('',#548,#437,#438);
#382=AXIS2_PLACEMENT_3D('',#551,#441,#442);
#383=AXIS2_PLACEMENT_3D('',#557,#446,#447);
#384=AXIS2_PLACEMENT_3D('',#563,#451,#452);
#385=AXIS2_PLACEMENT_3D('',#566,#454,#455);
#386=AXIS2_PLACEMENT_3D('',#568,#456,#457);
#387=AXIS2_PLACEMENT_3D('',#569,#458,#459);
#388=AXIS2_PLACEMENT_3D('',#572,#460,#461);
#389=AXIS2_PLACEMENT_3D('',#574,#463,#464);
#390=AXIS2_PLACEMENT_3D('',#575,#465,#466);
#391=AXIS2_PLACEMENT_3D('',#579,#469,#470);
#392=AXIS2_PLACEMENT_3D('',#580,#471,#472);
#393=AXIS2_PLACEMENT_3D('',#582,#473,#474);
#394=AXIS2_PLACEMENT_3D('',#583,#475,#476);
#395=AXIS2_PLACEMENT_3D('',#586,#478,#479);
#396=AXIS2_PLACEMENT_3D('',#587,#480,#481);
#397=AXIS2_PLACEMENT_3D('',#590,#482,#483);
#398=AXIS2_PLACEMENT_3D('',#591,#484,#485);
#399=AXIS2_PLACEMENT_3D('',#592,#486,#487);
#400=AXIS2_PLACEMENT_3D('',#593,#488,#489);
#401=AXIS2_PLACEMENT_3D('',#595,#490,#491);
#402=AXIS2_PLACEMENT_3D('',#597,#493,#494);
#403=AXIS2_PLACEMENT_3D('',#599,#495,#496);
#404=AXIS2_PLACEMENT_3D('',#603,#498,#499);
#405=AXIS2_PLACEMENT_3D('',#605,#500,#501);
#406=AXIS2_PLACEMENT_3D('',#606,#502,#503);
#407=AXIS2_PLACEMENT_3D('',#607,#504,#505);
#408=AXIS2_PLACEMENT_3D('',#608,#506,#507);
#409=AXIS2_PLACEMENT_3D('',#610,#508,#509);
#410=AXIS2_PLACEMENT_3D('',#611,#510,#511);
#411=AXIS2_PLACEMENT_3D('',#614,#513,#514);
#412=AXIS2_PLACEMENT_3D('',#642,#515,#516);
#413=DIRECTION('axis',(0.,0.,1.));
#414=DIRECTION('refdir',(1.,0.,0.));
#415=DIRECTION('center_axis',(-0.5,0.612372435695794,0.612372435695795));
#416=DIRECTION('ref_axis',(-0.866025403784438,-0.353553390593274,-0.353553390593274));
#417=DIRECTION('',(-3.36227445374063E-16,0.707106781186548,-0.707106781186547));
#418=DIRECTION('',(-0.866025403784438,-0.353553390593274,-0.353553390593274));
#419=DIRECTION('',(1.23259516440783E-32,-0.707106781186548,0.707106781186547));
#420=DIRECTION('',(0.866025403784438,0.353553390593274,0.353553390593274));
#421=DIRECTION('center_axis',(1.,-4.1908246595056E-16,-4.19082465950561E-16));
#422=DIRECTION('ref_axis',(5.92672107100044E-16,0.707106781186548,0.707106781186547));
#423=DIRECTION('',(-5.92672107100044E-16,-0.707106781186548,-0.707106781186547));
#424=DIRECTION('',(1.23259516440783E-32,-0.707106781186548,0.707106781186547));
#425=DIRECTION('',(5.92672107100044E-16,0.707106781186548,0.707106781186547));
#426=DIRECTION('',(1.23259516440783E-32,-0.707106781186548,0.707106781186547));
#427=DIRECTION('center_axis',(0.5,-0.612372435695794,-0.612372435695795));
#428=DIRECTION('ref_axis',(0.866025403784438,0.353553390593274,0.353553390593274));
#429=DIRECTION('',(-0.866025403784439,-0.353553390593274,-0.353553390593274));
#430=DIRECTION('',(1.23259516440783E-32,-0.707106781186548,0.707106781186547));
#431=DIRECTION('',(0.866025403784439,0.353553390593274,0.353553390593274));
#432=DIRECTION('center_axis',(-0.5,-0.612372435695794,-0.612372435695795));
#433=DIRECTION('ref_axis',(0.866025403784439,-0.353553390593274,-0.353553390593274));
#434=DIRECTION('',(-0.866025403784439,0.353553390593274,0.353553390593274));
#435=DIRECTION('',(1.23259516440783E-32,-0.707106781186548,0.707106781186547));
#436=DIRECTION('',(0.866025403784439,-0.353553390593274,-0.353553390593274));
#437=DIRECTION('center_axis',(-1.,4.38726956541993E-16,4.38726956541993E-16));
#438=DIRECTION('ref_axis',(-6.20453612120358E-16,-0.707106781186548,-0.707106781186547));
#439=DIRECTION('',(6.20453612120358E-16,0.707106781186548,0.707106781186547));
#440=DIRECTION('',(-6.20453612120358E-16,-0.707106781186548,-0.707106781186547));
#441=DIRECTION('center_axis',(0.5,0.612372435695794,0.612372435695795));
#442=DIRECTION('ref_axis',(-0.866025403784438,0.353553390593274,0.353553390593274));
#443=DIRECTION('',(-3.36227445374063E-16,-0.707106781186548,0.707106781186547));
#444=DIRECTION('',(0.866025403784438,-0.353553390593274,-0.353553390593274));
#445=DIRECTION('',(-0.866025403784438,0.353553390593274,0.353553390593274));
#446=DIRECTION('center_axis',(-1.,-1.82359041692645E-16,2.93138371597414E-16));
#447=DIRECTION('ref_axis',(3.36227445374063E-16,-0.707106781186548,0.707106781186548));
#448=DIRECTION('',(7.8332815390964E-17,0.707106781186548,0.707106781186547));
#449=DIRECTION('',(0.,0.707106781186548,-0.707106781186548));
#450=DIRECTION('',(7.8332815390964E-17,0.707106781186548,0.707106781186547));
#451=DIRECTION('center_axis',(-1.23259516440783E-32,0.707106781186547,-0.707106781186548));
#452=DIRECTION('ref_axis',(-1.,4.32978028117747E-17,4.32978028117747E-17));
#453=DIRECTION('',(7.8332815390964E-17,0.707106781186548,0.707106781186547));
#454=DIRECTION('center_axis',(-1.23259516440783E-32,0.707106781186547,-0.707106781186548));
#455=DIRECTION('ref_axis',(1.,0.,0.));
#456=DIRECTION('center_axis',(1.23259516440783E-32,-0.707106781186547,0.707106781186548));
#457=DIRECTION('ref_axis',(-1.,0.,0.));
#458=DIRECTION('center_axis',(0.,-0.707106781186548,0.707106781186548));
#459=DIRECTION('ref_axis',(-1.,0.,0.));
#460=DIRECTION('center_axis',(0.,-0.707106781186548,0.707106781186548));
#461=DIRECTION('ref_axis',(-1.,0.,0.));
#462=DIRECTION('',(0.,-0.707106781186547,0.707106781186547));
#463=DIRECTION('center_axis',(0.,-0.707106781186548,0.707106781186548));
#464=DIRECTION('ref_axis',(-1.,0.,0.));
#465=DIRECTION('center_axis',(1.,-2.93138371597414E-16,1.82359041692645E-16));
#466=DIRECTION('ref_axis',(3.36227445374063E-16,0.707106781186548,-0.707106781186548));
#467=DIRECTION('',(7.8332815390964E-17,0.707106781186548,0.707106781186547));
#468=DIRECTION('',(0.,-0.707106781186547,0.707106781186547));
#469=DIRECTION('center_axis',(6.16297582203915E-33,-0.707106781186547,0.707106781186548));
#470=DIRECTION('ref_axis',(1.,-4.32978028117747E-17,-4.32978028117747E-17));
#471=DIRECTION('center_axis',(6.16297582203915E-33,-0.707106781186547,0.707106781186548));
#472=DIRECTION('ref_axis',(1.,0.,0.));
#473=DIRECTION('center_axis',(-6.16297582203915E-33,0.707106781186547,-0.707106781186548));
#474=DIRECTION('ref_axis',(-1.,0.,0.));
#475=DIRECTION('center_axis',(0.,-0.707106781186548,0.707106781186548));
#476=DIRECTION('ref_axis',(-1.,0.,0.));
#477=DIRECTION('',(0.,-0.707106781186547,0.707106781186547));
#478=DIRECTION('center_axis',(0.,0.707106781186548,-0.707106781186548));
#479=DIRECTION('ref_axis',(-1.,0.,0.));
#480=DIRECTION('center_axis',(1.,0.,0.));
#481=DIRECTION('ref_axis',(0.,0.,-1.));
#482=DIRECTION('center_axis',(0.,0.,1.));
#483=DIRECTION('ref_axis',(-1.,0.,0.));
#484=DIRECTION('center_axis',(0.,0.,1.));
#485=DIRECTION('ref_axis',(-1.,0.,0.));
#486=DIRECTION('center_axis',(1.,0.,0.));
#487=DIRECTION('ref_axis',(0.,0.,-1.));
#488=DIRECTION('center_axis',(0.,0.,1.));
#489=DIRECTION('ref_axis',(-1.,0.,0.));
#490=DIRECTION('center_axis',(0.,0.,1.));
#491=DIRECTION('ref_axis',(-1.,0.,0.));
#492=DIRECTION('',(0.,0.,1.));
#493=DIRECTION('center_axis',(0.,-0.707106781186548,0.707106781186548));
#494=DIRECTION('ref_axis',(1.,0.,0.));
#495=DIRECTION('center_axis',(0.,-0.707106781186548,0.707106781186548));
#496=DIRECTION('ref_axis',(1.,0.,0.));
#497=DIRECTION('',(0.,0.707106781186547,-0.707106781186547));
#498=DIRECTION('center_axis',(0.,-0.707106781186548,0.707106781186548));
#499=DIRECTION('ref_axis',(1.,0.,0.));
#500=DIRECTION('center_axis',(0.,0.382683432365091,-0.923879532511286));
#501=DIRECTION('ref_axis',(0.,0.923879532511286,0.382683432365091));
#502=DIRECTION('center_axis',(0.,-0.707106781186548,0.707106781186548));
#503=DIRECTION('ref_axis',(1.,0.,0.));
#504=DIRECTION('center_axis',(0.,-0.707106781186548,0.707106781186548));
#505=DIRECTION('ref_axis',(1.,0.,0.));
#506=DIRECTION('center_axis',(0.,0.,1.));
#507=DIRECTION('ref_axis',(1.,0.,0.));
#508=DIRECTION('center_axis',(0.,0.,1.));
#509=DIRECTION('ref_axis',(1.,0.,0.));
#510=DIRECTION('center_axis',(0.,0.,1.));
#511=DIRECTION('ref_axis',(1.,0.,0.));
#512=DIRECTION('',(0.,0.,-1.));
#513=DIRECTION('center_axis',(0.,0.,1.));
#514=DIRECTION('ref_axis',(1.,0.,0.));
#515=DIRECTION('center_axis',(0.,0.,1.));
#516=DIRECTION('ref_axis',(1.,0.,0.));
#517=CARTESIAN_POINT('',(0.,0.,0.));
#518=CARTESIAN_POINT('Origin',(0.,0.0505203820042823,2.36667261889578));
#519=CARTESIAN_POINT('',(-0.255,-0.145506813618254,2.35449318638175));
#520=CARTESIAN_POINT('',(-0.255,-0.0535829320640028,2.2625693048275));
#521=CARTESIAN_POINT('',(-0.255,-0.0535829320640028,2.2625693048275));
#522=CARTESIAN_POINT('',(-0.255477494116409,-0.145701749774985,2.35429825022502));
#523=CARTESIAN_POINT('',(-0.255477494116409,-0.145701749774984,2.35429825022502));
#524=CARTESIAN_POINT('',(-0.255477494116409,-0.0537778682207335,2.26237436867076));
#525=CARTESIAN_POINT('',(-0.255477494116409,-0.0537778682207335,2.26237436867076));
#526=CARTESIAN_POINT('',(-0.255477494116409,-0.0537778682207335,2.26237436867076));
#527=CARTESIAN_POINT('Origin',(0.255477494116409,-0.262374368670765,2.05377786822073));
#528=CARTESIAN_POINT('',(0.255477494116409,-0.0537778682207335,2.26237436867076));
#529=CARTESIAN_POINT('',(0.255477494116409,-0.262374368670765,2.05377786822073));
#530=CARTESIAN_POINT('',(0.255477494116409,-0.0537778682207335,2.26237436867076));
#531=CARTESIAN_POINT('',(0.255477494116409,-0.354298250225016,2.14570174977498));
#532=CARTESIAN_POINT('',(0.255477494116409,-0.262374368670765,2.05377786822073));
#533=CARTESIAN_POINT('',(0.255477494116409,-0.145701749774985,2.35429825022502));
#534=CARTESIAN_POINT('',(0.255477494116409,-0.145701749774984,2.35429825022502));
#535=CARTESIAN_POINT('',(0.255477494116409,-0.0537778682207335,2.26237436867076));
#536=CARTESIAN_POINT('Origin',(4.37095678986282E-17,-0.366672618895781,
1.94947961799572));
#537=CARTESIAN_POINT('',(0.,-0.366672618895781,1.94947961799572));
#538=CARTESIAN_POINT('',(0.255477494116409,-0.262374368670765,2.05377786822073));
#539=CARTESIAN_POINT('',(1.60237371373018E-33,-0.458596500450032,2.04140349954997));
#540=CARTESIAN_POINT('',(0.,-0.366672618895781,1.94947961799572));
#541=CARTESIAN_POINT('',(0.255477494116409,-0.354298250225016,2.14570174977498));
#542=CARTESIAN_POINT('Origin',(-0.255477494116409,-0.262374368670765,2.05377786822073));
#543=CARTESIAN_POINT('',(-0.255477494116409,-0.262374368670765,2.05377786822073));
#544=CARTESIAN_POINT('',(0.,-0.366672618895781,1.94947961799572));
#545=CARTESIAN_POINT('',(-0.255477494116409,-0.354298250225016,2.14570174977498));
#546=CARTESIAN_POINT('',(-0.255477494116409,-0.262374368670765,2.05377786822073));
#547=CARTESIAN_POINT('',(1.60237371373018E-33,-0.458596500450032,2.04140349954997));
#548=CARTESIAN_POINT('Origin',(-0.255477494116409,-0.0537778682207334,2.26237436867076));
#549=CARTESIAN_POINT('',(-0.255477494116409,-0.262374368670765,2.05377786822073));
#550=CARTESIAN_POINT('',(-0.255477494116409,-0.354298250225016,2.14570174977499));
#551=CARTESIAN_POINT('Origin',(0.255477494116409,-0.0537778682207335,2.26237436867076));
#552=CARTESIAN_POINT('',(0.255,-0.053582932064003,2.2625693048275));
#553=CARTESIAN_POINT('',(0.255,-0.145506813618254,2.35449318638175));
#554=CARTESIAN_POINT('',(0.255,-0.0995448728411285,2.30853124560462));
#555=CARTESIAN_POINT('',(0.,0.0505203820042823,2.36667261889578));
#556=CARTESIAN_POINT('',(1.60237371373018E-33,-0.0414034995499687,2.45859650045003));
#557=CARTESIAN_POINT('Origin',(-0.255,-0.158076118445749,2.15807611844575));
#558=CARTESIAN_POINT('',(-0.255,-0.0303434875325797,2.28580874935892));
#559=CARTESIAN_POINT('',(-0.255,-0.158076118445749,2.15807611844575));
#560=CARTESIAN_POINT('',(-0.255,-0.122267369086831,2.37773263091317));
#561=CARTESIAN_POINT('',(-0.255,0.0545093262098065,2.20095593561653));
#562=CARTESIAN_POINT('',(-0.255,-0.25,2.25));
#563=CARTESIAN_POINT('Origin',(0.255,-0.158076118445749,2.15807611844575));
#564=CARTESIAN_POINT('',(0.255,-0.0303434875325798,2.28580874935892));
#565=CARTESIAN_POINT('',(0.255,-0.158076118445749,2.15807611844575));
#566=CARTESIAN_POINT('Origin',(0.,-0.158076118445749,2.15807611844575));
#567=CARTESIAN_POINT('',(0.2,-0.158076118445749,2.15807611844575));
#568=CARTESIAN_POINT('Origin',(0.,-0.158076118445749,2.15807611844575));
#569=CARTESIAN_POINT('Origin',(0.,-0.0732233047033631,2.07322330470336));
#570=CARTESIAN_POINT('',(0.2,-0.0732233047033631,2.07322330470336));
#571=CARTESIAN_POINT('',(-2.44929359829471E-17,-0.214644660940673,1.93180194846605));
#572=CARTESIAN_POINT('Origin',(0.,-0.0732233047033631,2.07322330470336));
#573=CARTESIAN_POINT('',(0.2,-0.0732233047033631,2.07322330470336));
#574=CARTESIAN_POINT('Origin',(0.,-0.0732233047033631,2.07322330470336));
#575=CARTESIAN_POINT('Origin',(0.255,-0.25,2.25));
#576=CARTESIAN_POINT('',(0.255,-0.122267369086831,2.37773263091317));
#577=CARTESIAN_POINT('',(0.255,-0.25,2.25));
#578=CARTESIAN_POINT('',(0.255,0.0545093262098063,2.20095593561653));
#579=CARTESIAN_POINT('Origin',(-0.255,-0.25,2.25));
#580=CARTESIAN_POINT('Origin',(0.,-0.250000000000001,2.25));
#581=CARTESIAN_POINT('',(0.2,-0.25,2.25));
#582=CARTESIAN_POINT('Origin',(0.,-0.250000000000001,2.25));
#583=CARTESIAN_POINT('Origin',(0.,-0.0732233047033631,2.07322330470336));
#584=CARTESIAN_POINT('',(0.2,-0.426776695296637,2.42677669529664));
#585=CARTESIAN_POINT('',(0.2,-0.0732233047033631,2.07322330470336));
#586=CARTESIAN_POINT('Origin',(0.,-0.426776695296637,2.42677669529664));
#587=CARTESIAN_POINT('Origin',(0.,-0.25,1.89644660940673));
#588=CARTESIAN_POINT('',(0.2,2.44929359829471E-17,1.89644660940673));
#589=CARTESIAN_POINT('',(-2.44929359829471E-17,-0.2,1.89644660940673));
#590=CARTESIAN_POINT('Origin',(0.,0.,1.89644660940673));
#591=CARTESIAN_POINT('Origin',(0.,0.,1.89644660940673));
#592=CARTESIAN_POINT('Origin',(-2.44929359829471E-17,-0.25,1.89644660940673));
#593=CARTESIAN_POINT('Origin',(0.,0.,0.));
#594=CARTESIAN_POINT('',(0.2,2.44929359829471E-17,0.));
#595=CARTESIAN_POINT('Origin',(0.,0.,0.));
#596=CARTESIAN_POINT('',(0.2,2.44929359829471E-17,0.));
#597=CARTESIAN_POINT('Origin',(0.,-0.0732233047033631,2.07322330470336));
#598=CARTESIAN_POINT('',(-0.3125,-0.426776695296637,2.42677669529664));
#599=CARTESIAN_POINT('Origin',(0.,-0.426776695296637,2.42677669529664));
#600=CARTESIAN_POINT('',(-0.3125,-0.0732233047033628,2.07322330470336));
#601=CARTESIAN_POINT('',(-0.3125,-0.0732233047033631,2.07322330470336));
#602=CARTESIAN_POINT('',(-0.1875,-0.25,1.89644660940673));
#603=CARTESIAN_POINT('Origin',(0.,-0.0732233047033631,2.07322330470336));
#604=CARTESIAN_POINT('',(0.1875,-0.25,1.89644660940673));
#605=CARTESIAN_POINT('Origin',(0.,0.,2.));
#606=CARTESIAN_POINT('Origin',(0.,-0.0732233047033631,2.07322330470336));
#607=CARTESIAN_POINT('Origin',(0.,-0.426776695296637,2.42677669529664));
#608=CARTESIAN_POINT('Origin',(0.,0.,0.));
#609=CARTESIAN_POINT('',(-0.3125,-3.82702124733548E-17,1.89644660940673));
#610=CARTESIAN_POINT('Origin',(0.,0.,1.89644660940673));
#611=CARTESIAN_POINT('Origin',(0.,0.,1.89644660940673));
#612=CARTESIAN_POINT('',(-0.3125,-3.82702124733548E-17,0.));
#613=CARTESIAN_POINT('',(-0.3125,-3.82702124733548E-17,0.));
#614=CARTESIAN_POINT('Origin',(0.,0.,0.));
#615=CARTESIAN_POINT('Ctrl Pts',(-0.1875,-0.25,1.89644660940673));
#616=CARTESIAN_POINT('Ctrl Pts',(-0.1875,-0.25,1.89644660940673));
#617=CARTESIAN_POINT('Ctrl Pts',(-0.1875,-0.25,1.89644660940673));
#618=CARTESIAN_POINT('Ctrl Pts',(-0.367689805014032,-0.114857646239476,
1.89644660940673));
#619=CARTESIAN_POINT('Ctrl Pts',(-0.367689805014032,-0.114857646239476,
1.95242440518536));
#620=CARTESIAN_POINT('Ctrl Pts',(-0.367689805014032,-0.154439925230422,
1.9920066841763));
#621=CARTESIAN_POINT('Ctrl Pts',(-0.296463530640786,0.0988211768802618,
1.89644660940673));
#622=CARTESIAN_POINT('Ctrl Pts',(-0.296463530640786,0.0988211768802618,
2.04093307171347));
#623=CARTESIAN_POINT('Ctrl Pts',(-0.296463530640786,-0.00334618040649469,
2.14310042900023));
#624=CARTESIAN_POINT('Ctrl Pts',(-0.225237256267539,0.3125,1.89644660940673));
#625=CARTESIAN_POINT('Ctrl Pts',(-0.225237256267539,0.3125,2.12944173824159));
#626=CARTESIAN_POINT('Ctrl Pts',(-0.225237256267539,0.147747564417433,2.29419417382416));
#627=CARTESIAN_POINT('Ctrl Pts',(0.,0.3125,1.89644660940673));
#628=CARTESIAN_POINT('Ctrl Pts',(0.,0.3125,2.12944173824159));
#629=CARTESIAN_POINT('Ctrl Pts',(0.,0.147747564417433,2.29419417382416));
#630=CARTESIAN_POINT('Ctrl Pts',(0.225237256267539,0.3125,1.89644660940673));
#631=CARTESIAN_POINT('Ctrl Pts',(0.225237256267539,0.3125,2.12944173824159));
#632=CARTESIAN_POINT('Ctrl Pts',(0.225237256267539,0.147747564417433,2.29419417382416));
#633=CARTESIAN_POINT('Ctrl Pts',(0.296463530640786,0.0988211768802618,1.89644660940673));
#634=CARTESIAN_POINT('Ctrl Pts',(0.296463530640786,0.0988211768802618,2.04093307171347));
#635=CARTESIAN_POINT('Ctrl Pts',(0.296463530640786,-0.00334618040649469,
2.14310042900023));
#636=CARTESIAN_POINT('Ctrl Pts',(0.367689805014032,-0.114857646239476,1.89644660940673));
#637=CARTESIAN_POINT('Ctrl Pts',(0.367689805014032,-0.114857646239476,1.95242440518536));
#638=CARTESIAN_POINT('Ctrl Pts',(0.367689805014032,-0.154439925230422,1.9920066841763));
#639=CARTESIAN_POINT('Ctrl Pts',(0.1875,-0.25,1.89644660940673));
#640=CARTESIAN_POINT('Ctrl Pts',(0.1875,-0.25,1.89644660940673));
#641=CARTESIAN_POINT('Ctrl Pts',(0.1875,-0.25,1.89644660940673));
#642=CARTESIAN_POINT('Origin',(0.,0.,0.));
#643=UNCERTAINTY_MEASURE_WITH_UNIT(LENGTH_MEASURE(0.000393700787401575),
#649,'DISTANCE_ACCURACY_VALUE',
'Maximum model space distance between geometric entities at asserted c
onnectivities');
#644=UNCERTAINTY_MEASURE_WITH_UNIT(LENGTH_MEASURE(0.000393700787401575),
#649,'DISTANCE_ACCURACY_VALUE',
'Maximum model space distance between geometric entities at asserted c
onnectivities');
#645=(
GEOMETRIC_REPRESENTATION_CONTEXT(3)
GLOBAL_UNCERTAINTY_ASSIGNED_CONTEXT((#643))
GLOBAL_UNIT_ASSIGNED_CONTEXT((#649,#653,#654))
REPRESENTATION_CONTEXT('','3D')
);
#646=(
GEOMETRIC_REPRESENTATION_CONTEXT(3)
GLOBAL_UNCERTAINTY_ASSIGNED_CONTEXT((#644))
GLOBAL_UNIT_ASSIGNED_CONTEXT((#649,#653,#654))
REPRESENTATION_CONTEXT('','3D')
);
#647=DIMENSIONAL_EXPONENTS(1.,0.,0.,0.,0.,0.,0.);
#648=DIMENSIONAL_EXPONENTS(0.,1.,0.,0.,0.,0.,0.);
#649=(
CONVERSION_BASED_UNIT('inch',#652)
LENGTH_UNIT()
NAMED_UNIT(#647)
);
#650=(
LENGTH_UNIT()
NAMED_UNIT(*)
SI_UNIT(.MILLI.,.METRE.)
);
#651=(
LENGTH_UNIT()
NAMED_UNIT(*)
SI_UNIT(.CENTI.,.METRE.)
);
#652=LENGTH_MEASURE_WITH_UNIT(LENGTH_MEASURE(25.4),#650);
#653=(
NAMED_UNIT(*)
PLANE_ANGLE_UNIT()
SI_UNIT($,.RADIAN.)
);
#654=(
NAMED_UNIT(*)
SI_UNIT($,.STERADIAN.)
SOLID_ANGLE_UNIT()
);
#655=SHAPE_DEFINITION_REPRESENTATION(#656,#657);
#656=PRODUCT_DEFINITION_SHAPE('',$,#659);
#657=SHAPE_REPRESENTATION('',(#376),#645);
#658=PRODUCT_DEFINITION_CONTEXT('part definition',#663,'design');
#659=PRODUCT_DEFINITION('optostim-light-guide','optostim-light-guide',#660,
#658);
#660=PRODUCT_DEFINITION_FORMATION('0',$,#665);
#661=PRODUCT_RELATED_PRODUCT_CATEGORY('optostim-light-guide',
'optostim-light-guide',(#665));
#662=APPLICATION_PROTOCOL_DEFINITION('international standard',
'automotive_design',2009,#663);
#663=APPLICATION_CONTEXT(
'Core Data for Automotive Mechanical Design Process');
#664=PRODUCT_CONTEXT('part definition',#663,'mechanical');
#665=PRODUCT('optostim-light-guide','optostim-light-guide',$,(#664));
#666=PRESENTATION_STYLE_ASSIGNMENT((#667));
#667=SURFACE_STYLE_USAGE(.BOTH.,#670);
#668=SURFACE_STYLE_RENDERING_WITH_PROPERTIES($,#674,(#669));
#669=SURFACE_STYLE_TRANSPARENT(0.);
#670=SURFACE_SIDE_STYLE('',(#671,#668));
#671=SURFACE_STYLE_FILL_AREA(#672);
#672=FILL_AREA_STYLE('',(#673));
#673=FILL_AREA_STYLE_COLOUR('',#674);
#674=COLOUR_RGB('',0.749019607843137,0.749019607843137,0.749019607843137);
ENDSEC;
END-ISO-10303-21;
