ISO-10303-21;
HEADER;
/* Generated by software containing ST-Developer
 * from STEP Tools, Inc. (www.steptools.com) 
 */

FILE_DESCRIPTION(
/* description */ (''),
/* implementation_level */ '2;1');

FILE_NAME(
/* name */ 'Friction-Mount-Arm-L.stp',
/* time_stamp */ '2026-07-01T14:02:37-04:00',
/* author */ ('labadmin'),
/* organization */ (''),
/* preprocessor_version */ 'ST-DEVELOPER v20',
/* originating_system */ 'Autodesk Inventor 2025',
/* authorisation */ '');

FILE_SCHEMA (('AUTOMOTIVE_DESIGN { 1 0 10303 214 3 1 1 }'));
ENDSEC;

DATA;
#10=MECHANICAL_DESIGN_GEOMETRIC_PRESENTATION_REPRESENTATION('',(#13),#1267);
#11=SHAPE_REPRESENTATION_RELATIONSHIP('SRR','None',#1274,#12);
#12=ADVANCED_BREP_SHAPE_REPRESENTATION('',(#14),#1266);
#13=STYLED_ITEM('',(#1283),#14);
#14=MANIFOLD_SOLID_BREP('Solid1',#585);
#15=B_SPLINE_SURFACE_WITH_KNOTS('',3,3,((#976,#977,#978,#979,#980,#981,
#982,#983,#984,#985,#986,#987,#988,#989),(#990,#991,#992,#993,#994,#995,
#996,#997,#998,#999,#1000,#1001,#1002,#1003),(#1004,#1005,#1006,#1007,#1008,
#1009,#1010,#1011,#1012,#1013,#1014,#1015,#1016,#1017),(#1018,#1019,#1020,
#1021,#1022,#1023,#1024,#1025,#1026,#1027,#1028,#1029,#1030,#1031)),
 .UNSPECIFIED.,.F.,.F.,.F.,(4,4),(4,1,1,1,1,1,1,1,1,1,1,4),(0.,1.),(0.,
0.0714285714285714,0.142857142857143,0.214285714285714,0.285714285714286,
0.428571428571429,0.571428571428571,0.714285714285714,0.785714285714286,
0.857142857142857,0.928571428571429,1.),.UNSPECIFIED.);
#16=B_SPLINE_SURFACE_WITH_KNOTS('',3,3,((#1060,#1061,#1062,#1063,#1064,
#1065,#1066,#1067,#1068,#1069,#1070,#1071,#1072,#1073),(#1074,#1075,#1076,
#1077,#1078,#1079,#1080,#1081,#1082,#1083,#1084,#1085,#1086,#1087),(#1088,
#1089,#1090,#1091,#1092,#1093,#1094,#1095,#1096,#1097,#1098,#1099,#1100,
#1101),(#1102,#1103,#1104,#1105,#1106,#1107,#1108,#1109,#1110,#1111,#1112,
#1113,#1114,#1115)),.UNSPECIFIED.,.F.,.F.,.F.,(4,4),(4,1,1,1,1,1,1,1,1,
1,1,4),(0.,1.),(0.,0.0714285714285714,0.142857142857143,0.214285714285714,
0.285714285714286,0.428571428571429,0.571428571428571,0.714285714285714,
0.785714285714286,0.857142857142857,0.928571428571429,1.),.UNSPECIFIED.);
#17=B_SPLINE_SURFACE_WITH_KNOTS('',3,3,((#1130,#1131,#1132,#1133,#1134,
#1135,#1136,#1137,#1138,#1139,#1140,#1141,#1142,#1143),(#1144,#1145,#1146,
#1147,#1148,#1149,#1150,#1151,#1152,#1153,#1154,#1155,#1156,#1157),(#1158,
#1159,#1160,#1161,#1162,#1163,#1164,#1165,#1166,#1167,#1168,#1169,#1170,
#1171),(#1172,#1173,#1174,#1175,#1176,#1177,#1178,#1179,#1180,#1181,#1182,
#1183,#1184,#1185)),.UNSPECIFIED.,.F.,.F.,.F.,(4,4),(4,1,1,1,1,1,1,1,1,
1,1,4),(0.,1.),(0.,0.0714285714285714,0.142857142857143,0.214285714285714,
0.285714285714286,0.428571428571429,0.571428571428571,0.714285714285714,
0.785714285714286,0.857142857142857,0.928571428571429,1.),.UNSPECIFIED.);
#18=B_SPLINE_SURFACE_WITH_KNOTS('',3,3,((#1203,#1204,#1205,#1206,#1207,
#1208,#1209,#1210,#1211,#1212,#1213,#1214,#1215,#1216),(#1217,#1218,#1219,
#1220,#1221,#1222,#1223,#1224,#1225,#1226,#1227,#1228,#1229,#1230),(#1231,
#1232,#1233,#1234,#1235,#1236,#1237,#1238,#1239,#1240,#1241,#1242,#1243,
#1244),(#1245,#1246,#1247,#1248,#1249,#1250,#1251,#1252,#1253,#1254,#1255,
#1256,#1257,#1258)),.UNSPECIFIED.,.F.,.F.,.F.,(4,4),(4,1,1,1,1,1,1,1,1,
1,1,4),(0.,1.),(0.,0.0714285714285714,0.142857142857143,0.214285714285714,
0.285714285714286,0.428571428571429,0.571428571428571,0.714285714285714,
0.785714285714286,0.857142857142857,0.928571428571429,1.),.UNSPECIFIED.);
#19=FACE_BOUND('',#112,.T.);
#20=FACE_BOUND('',#115,.T.);
#21=FACE_BOUND('',#117,.T.);
#22=FACE_BOUND('',#120,.T.);
#23=FACE_BOUND('',#125,.T.);
#24=FACE_BOUND('',#128,.T.);
#25=B_SPLINE_CURVE_WITH_KNOTS('',1,(#884,#885),.UNSPECIFIED.,.F.,.F.,(2,
2),(-2.99999999999999,-1.49880108324396E-15),.UNSPECIFIED.);
#26=B_SPLINE_CURVE_WITH_KNOTS('',3,(#1032,#1033,#1034,#1035,#1036,#1037,
#1038,#1039,#1040,#1041,#1042,#1043,#1044,#1045),.UNSPECIFIED.,.F.,.F.,
(4,1,1,1,1,1,1,1,1,1,1,4),(0.,0.0714285714285714,0.142857142857143,0.214285714285714,
0.285714285714286,0.428571428571429,0.571428571428571,0.714285714285714,
0.785714285714286,0.857142857142857,0.928571428571429,1.),.UNSPECIFIED.);
#27=B_SPLINE_CURVE_WITH_KNOTS('',3,(#1046,#1047,#1048,#1049,#1050,#1051,
#1052,#1053,#1054,#1055,#1056,#1057,#1058,#1059),.UNSPECIFIED.,.F.,.F.,
(4,1,1,1,1,1,1,1,1,1,1,4),(0.,0.0714285714285714,0.142857142857143,0.214285714285714,
0.285714285714286,0.428571428571429,0.571428571428571,0.714285714285714,
0.785714285714286,0.857142857142857,0.928571428571429,1.),.UNSPECIFIED.);
#28=B_SPLINE_CURVE_WITH_KNOTS('',3,(#1116,#1117,#1118,#1119,#1120,#1121,
#1122,#1123,#1124,#1125,#1126,#1127,#1128,#1129),.UNSPECIFIED.,.F.,.F.,
(4,1,1,1,1,1,1,1,1,1,1,4),(0.,0.0714285714285714,0.142857142857143,0.214285714285714,
0.285714285714286,0.428571428571429,0.571428571428571,0.714285714285714,
0.785714285714286,0.857142857142857,0.928571428571429,1.),.UNSPECIFIED.);
#29=B_SPLINE_CURVE_WITH_KNOTS('',3,(#1188,#1189,#1190,#1191,#1192,#1193,
#1194,#1195,#1196,#1197,#1198,#1199,#1200,#1201),.UNSPECIFIED.,.F.,.F.,
(4,1,1,1,1,1,1,1,1,1,1,4),(0.,0.0714285714285714,0.142857142857143,0.214285714285714,
0.285714285714286,0.428571428571429,0.571428571428571,0.714285714285714,
0.785714285714286,0.857142857142857,0.928571428571429,1.),.UNSPECIFIED.);
#30=(
BOUNDED_SURFACE()
B_SPLINE_SURFACE(1,2,((#864,#865,#866,#867,#868,#869,#870,#871,#872),(#873,
#874,#875,#876,#877,#878,#879,#880,#881)),.UNSPECIFIED.,.F.,.T.,.F.)
B_SPLINE_SURFACE_WITH_KNOTS((2,2),(3,2,2,2,3),(-0.181433860007875,3.18143386000788),
(-3.14159265358979,-1.5707963267949,0.,1.5707963267949,3.14159265358979),
 .UNSPECIFIED.)
GEOMETRIC_REPRESENTATION_ITEM()
RATIONAL_B_SPLINE_SURFACE(((1.,0.707106781186548,1.,0.707106781186548,1.,
0.707106781186548,1.,0.707106781186548,1.),(1.,0.707106781186548,1.,0.707106781186548,
1.,0.707106781186548,1.,0.707106781186548,1.)))
REPRESENTATION_ITEM('')
SURFACE()
);
#31=CIRCLE('',#616,2.);
#32=CIRCLE('',#617,2.);
#33=CIRCLE('',#618,2.);
#34=CIRCLE('',#621,2.);
#35=CIRCLE('',#624,2.);
#36=CIRCLE('',#627,1.8);
#37=CIRCLE('',#628,1.8);
#38=CIRCLE('',#630,1.8);
#39=CIRCLE('',#631,1.8);
#40=CIRCLE('',#633,1.8);
#41=CIRCLE('',#634,1.8);
#42=CIRCLE('',#636,5.);
#43=CIRCLE('',#639,5.);
#44=CIRCLE('',#641,5.);
#45=CIRCLE('',#644,5.);
#46=CIRCLE('',#647,5.);
#47=CIRCLE('',#650,5.);
#48=PLANE('',#611);
#49=PLANE('',#615);
#50=PLANE('',#619);
#51=PLANE('',#622);
#52=PLANE('',#623);
#53=PLANE('',#625);
#54=PLANE('',#635);
#55=PLANE('',#637);
#56=PLANE('',#638);
#57=PLANE('',#640);
#58=PLANE('',#642);
#59=PLANE('',#643);
#60=PLANE('',#645);
#61=PLANE('',#649);
#62=PLANE('',#652);
#63=PLANE('',#653);
#64=PLANE('',#654);
#65=PLANE('',#655);
#66=FACE_OUTER_BOUND('',#98,.T.);
#67=FACE_OUTER_BOUND('',#99,.T.);
#68=FACE_OUTER_BOUND('',#100,.T.);
#69=FACE_OUTER_BOUND('',#101,.T.);
#70=FACE_OUTER_BOUND('',#102,.T.);
#71=FACE_OUTER_BOUND('',#103,.T.);
#72=FACE_OUTER_BOUND('',#104,.T.);
#73=FACE_OUTER_BOUND('',#105,.T.);
#74=FACE_OUTER_BOUND('',#106,.T.);
#75=FACE_OUTER_BOUND('',#107,.T.);
#76=FACE_OUTER_BOUND('',#108,.T.);
#77=FACE_OUTER_BOUND('',#109,.T.);
#78=FACE_OUTER_BOUND('',#110,.T.);
#79=FACE_OUTER_BOUND('',#111,.T.);
#80=FACE_OUTER_BOUND('',#113,.T.);
#81=FACE_OUTER_BOUND('',#114,.T.);
#82=FACE_OUTER_BOUND('',#116,.T.);
#83=FACE_OUTER_BOUND('',#118,.T.);
#84=FACE_OUTER_BOUND('',#119,.T.);
#85=FACE_OUTER_BOUND('',#121,.T.);
#86=FACE_OUTER_BOUND('',#122,.T.);
#87=FACE_OUTER_BOUND('',#123,.T.);
#88=FACE_OUTER_BOUND('',#124,.T.);
#89=FACE_OUTER_BOUND('',#126,.T.);
#90=FACE_OUTER_BOUND('',#127,.T.);
#91=FACE_OUTER_BOUND('',#129,.T.);
#92=FACE_OUTER_BOUND('',#130,.T.);
#93=FACE_OUTER_BOUND('',#131,.T.);
#94=FACE_OUTER_BOUND('',#132,.T.);
#95=FACE_OUTER_BOUND('',#133,.T.);
#96=FACE_OUTER_BOUND('',#134,.T.);
#97=FACE_OUTER_BOUND('',#135,.T.);
#98=EDGE_LOOP('',(#382,#383,#384,#385));
#99=EDGE_LOOP('',(#386,#387,#388,#389,#390));
#100=EDGE_LOOP('',(#391,#392,#393,#394));
#101=EDGE_LOOP('',(#395,#396,#397,#398,#399,#400,#401,#402,#403,#404,#405,
#406));
#102=EDGE_LOOP('',(#407,#408,#409,#410));
#103=EDGE_LOOP('',(#411,#412,#413,#414));
#104=EDGE_LOOP('',(#415,#416,#417,#418));
#105=EDGE_LOOP('',(#419,#420,#421,#422));
#106=EDGE_LOOP('',(#423,#424,#425,#426,#427));
#107=EDGE_LOOP('',(#428));
#108=EDGE_LOOP('',(#429,#430,#431,#432));
#109=EDGE_LOOP('',(#433,#434,#435,#436));
#110=EDGE_LOOP('',(#437,#438,#439,#440));
#111=EDGE_LOOP('',(#441,#442,#443,#444));
#112=EDGE_LOOP('',(#445));
#113=EDGE_LOOP('',(#446,#447,#448,#449));
#114=EDGE_LOOP('',(#450,#451,#452,#453));
#115=EDGE_LOOP('',(#454));
#116=EDGE_LOOP('',(#455,#456,#457,#458));
#117=EDGE_LOOP('',(#459));
#118=EDGE_LOOP('',(#460,#461,#462,#463));
#119=EDGE_LOOP('',(#464,#465,#466,#467));
#120=EDGE_LOOP('',(#468));
#121=EDGE_LOOP('',(#469,#470,#471,#472,#473,#474,#475,#476,#477,#478,#479,
#480));
#122=EDGE_LOOP('',(#481,#482,#483,#484));
#123=EDGE_LOOP('',(#485,#486,#487,#488));
#124=EDGE_LOOP('',(#489,#490,#491,#492));
#125=EDGE_LOOP('',(#493));
#126=EDGE_LOOP('',(#494,#495,#496,#497));
#127=EDGE_LOOP('',(#498,#499,#500,#501));
#128=EDGE_LOOP('',(#502));
#129=EDGE_LOOP('',(#503,#504,#505,#506));
#130=EDGE_LOOP('',(#507,#508,#509,#510));
#131=EDGE_LOOP('',(#511,#512,#513,#514));
#132=EDGE_LOOP('',(#515,#516,#517,#518));
#133=EDGE_LOOP('',(#519,#520,#521,#522));
#134=EDGE_LOOP('',(#523,#524,#525,#526,#527,#528,#529,#530,#531));
#135=EDGE_LOOP('',(#532,#533,#534,#535,#536,#537,#538,#539,#540,#541,#542,
#543));
#136=LINE('',#815,#191);
#137=LINE('',#818,#192);
#138=LINE('',#821,#193);
#139=LINE('',#823,#194);
#140=LINE('',#825,#195);
#141=LINE('',#826,#196);
#142=LINE('',#831,#197);
#143=LINE('',#835,#198);
#144=LINE('',#839,#199);
#145=LINE('',#841,#200);
#146=LINE('',#843,#201);
#147=LINE('',#844,#202);
#148=LINE('',#850,#203);
#149=LINE('',#851,#204);
#150=LINE('',#855,#205);
#151=LINE('',#858,#206);
#152=LINE('',#859,#207);
#153=LINE('',#862,#208);
#154=LINE('',#863,#209);
#155=LINE('',#891,#210);
#156=LINE('',#897,#211);
#157=LINE('',#903,#212);
#158=LINE('',#908,#213);
#159=LINE('',#910,#214);
#160=LINE('',#912,#215);
#161=LINE('',#916,#216);
#162=LINE('',#918,#217);
#163=LINE('',#919,#218);
#164=LINE('',#922,#219);
#165=LINE('',#925,#220);
#166=LINE('',#929,#221);
#167=LINE('',#931,#222);
#168=LINE('',#933,#223);
#169=LINE('',#937,#224);
#170=LINE('',#939,#225);
#171=LINE('',#940,#226);
#172=LINE('',#943,#227);
#173=LINE('',#946,#228);
#174=LINE('',#948,#229);
#175=LINE('',#950,#230);
#176=LINE('',#952,#231);
#177=LINE('',#954,#232);
#178=LINE('',#956,#233);
#179=LINE('',#957,#234);
#180=LINE('',#960,#235);
#181=LINE('',#963,#236);
#182=LINE('',#968,#237);
#183=LINE('',#969,#238);
#184=LINE('',#971,#239);
#185=LINE('',#974,#240);
#186=LINE('',#975,#241);
#187=LINE('',#1187,#242);
#188=LINE('',#1202,#243);
#189=LINE('',#1259,#244);
#190=LINE('',#1261,#245);
#191=VECTOR('',#662,10.);
#192=VECTOR('',#665,10.);
#193=VECTOR('',#668,10.);
#194=VECTOR('',#669,10.);
#195=VECTOR('',#670,10.);
#196=VECTOR('',#671,10.);
#197=VECTOR('',#676,10.);
#198=VECTOR('',#681,10.);
#199=VECTOR('',#684,10.);
#200=VECTOR('',#685,10.);
#201=VECTOR('',#686,10.);
#202=VECTOR('',#687,10.);
#203=VECTOR('',#694,10.);
#204=VECTOR('',#695,10.);
#205=VECTOR('',#700,10.);
#206=VECTOR('',#703,10.);
#207=VECTOR('',#704,10.);
#208=VECTOR('',#707,10.);
#209=VECTOR('',#708,10.);
#210=VECTOR('',#717,1.8);
#211=VECTOR('',#724,1.8);
#212=VECTOR('',#731,1.8);
#213=VECTOR('',#736,10.);
#214=VECTOR('',#737,10.);
#215=VECTOR('',#738,10.);
#216=VECTOR('',#743,10.);
#217=VECTOR('',#744,10.);
#218=VECTOR('',#745,10.);
#219=VECTOR('',#748,10.);
#220=VECTOR('',#751,10.);
#221=VECTOR('',#754,10.);
#222=VECTOR('',#755,10.);
#223=VECTOR('',#756,10.);
#224=VECTOR('',#761,10.);
#225=VECTOR('',#762,10.);
#226=VECTOR('',#763,10.);
#227=VECTOR('',#766,10.);
#228=VECTOR('',#769,10.);
#229=VECTOR('',#772,10.);
#230=VECTOR('',#773,10.);
#231=VECTOR('',#774,10.);
#232=VECTOR('',#775,10.);
#233=VECTOR('',#776,10.);
#234=VECTOR('',#777,10.);
#235=VECTOR('',#780,10.);
#236=VECTOR('',#785,10.);
#237=VECTOR('',#790,10.);
#238=VECTOR('',#791,10.);
#239=VECTOR('',#794,10.);
#240=VECTOR('',#797,10.);
#241=VECTOR('',#798,10.);
#242=VECTOR('',#799,10.);
#243=VECTOR('',#800,10.);
#244=VECTOR('',#801,10.);
#245=VECTOR('',#804,10.);
#246=ELLIPSE('',#609,2.03085322377149,2.);
#247=ELLIPSE('',#610,2.03085322377149,2.);
#248=ELLIPSE('',#613,2.03085322377149,2.);
#249=ELLIPSE('',#614,2.03085322377149,2.);
#250=VERTEX_POINT('',#811);
#251=VERTEX_POINT('',#812);
#252=VERTEX_POINT('',#814);
#253=VERTEX_POINT('',#816);
#254=VERTEX_POINT('',#820);
#255=VERTEX_POINT('',#822);
#256=VERTEX_POINT('',#824);
#257=VERTEX_POINT('',#828);
#258=VERTEX_POINT('',#830);
#259=VERTEX_POINT('',#834);
#260=VERTEX_POINT('',#836);
#261=VERTEX_POINT('',#838);
#262=VERTEX_POINT('',#840);
#263=VERTEX_POINT('',#842);
#264=VERTEX_POINT('',#845);
#265=VERTEX_POINT('',#849);
#266=VERTEX_POINT('',#853);
#267=VERTEX_POINT('',#857);
#268=VERTEX_POINT('',#861);
#269=VERTEX_POINT('',#882);
#270=VERTEX_POINT('',#888);
#271=VERTEX_POINT('',#890);
#272=VERTEX_POINT('',#894);
#273=VERTEX_POINT('',#896);
#274=VERTEX_POINT('',#900);
#275=VERTEX_POINT('',#902);
#276=VERTEX_POINT('',#906);
#277=VERTEX_POINT('',#907);
#278=VERTEX_POINT('',#909);
#279=VERTEX_POINT('',#911);
#280=VERTEX_POINT('',#915);
#281=VERTEX_POINT('',#917);
#282=VERTEX_POINT('',#921);
#283=VERTEX_POINT('',#923);
#284=VERTEX_POINT('',#927);
#285=VERTEX_POINT('',#928);
#286=VERTEX_POINT('',#930);
#287=VERTEX_POINT('',#932);
#288=VERTEX_POINT('',#936);
#289=VERTEX_POINT('',#938);
#290=VERTEX_POINT('',#942);
#291=VERTEX_POINT('',#944);
#292=VERTEX_POINT('',#949);
#293=VERTEX_POINT('',#951);
#294=VERTEX_POINT('',#953);
#295=VERTEX_POINT('',#955);
#296=VERTEX_POINT('',#959);
#297=VERTEX_POINT('',#965);
#298=VERTEX_POINT('',#967);
#299=VERTEX_POINT('',#973);
#300=VERTEX_POINT('',#1186);
#301=EDGE_CURVE('',#250,#251,#246,.T.);
#302=EDGE_CURVE('',#251,#252,#136,.T.);
#303=EDGE_CURVE('',#252,#253,#247,.T.);
#304=EDGE_CURVE('',#253,#250,#137,.T.);
#305=EDGE_CURVE('',#254,#251,#138,.T.);
#306=EDGE_CURVE('',#255,#254,#139,.T.);
#307=EDGE_CURVE('',#256,#255,#140,.T.);
#308=EDGE_CURVE('',#252,#256,#141,.T.);
#309=EDGE_CURVE('',#254,#257,#248,.T.);
#310=EDGE_CURVE('',#257,#258,#142,.T.);
#311=EDGE_CURVE('',#258,#255,#249,.T.);
#312=EDGE_CURVE('',#259,#258,#143,.T.);
#313=EDGE_CURVE('',#260,#259,#31,.T.);
#314=EDGE_CURVE('',#261,#260,#144,.T.);
#315=EDGE_CURVE('',#261,#262,#145,.T.);
#316=EDGE_CURVE('',#263,#262,#146,.T.);
#317=EDGE_CURVE('',#263,#253,#147,.T.);
#318=EDGE_CURVE('',#256,#264,#32,.T.);
#319=EDGE_CURVE('',#264,#256,#33,.T.);
#320=EDGE_CURVE('',#257,#265,#148,.T.);
#321=EDGE_CURVE('',#259,#265,#149,.T.);
#322=EDGE_CURVE('',#265,#266,#34,.T.);
#323=EDGE_CURVE('',#266,#260,#150,.T.);
#324=EDGE_CURVE('',#267,#263,#151,.T.);
#325=EDGE_CURVE('',#250,#267,#152,.T.);
#326=EDGE_CURVE('',#262,#268,#153,.T.);
#327=EDGE_CURVE('',#268,#267,#154,.T.);
#328=EDGE_CURVE('',#269,#269,#35,.T.);
#329=EDGE_CURVE('',#269,#264,#25,.T.);
#330=EDGE_CURVE('',#270,#270,#36,.T.);
#331=EDGE_CURVE('',#270,#271,#155,.T.);
#332=EDGE_CURVE('',#271,#271,#37,.T.);
#333=EDGE_CURVE('',#272,#272,#38,.T.);
#334=EDGE_CURVE('',#272,#273,#156,.T.);
#335=EDGE_CURVE('',#273,#273,#39,.T.);
#336=EDGE_CURVE('',#274,#274,#40,.T.);
#337=EDGE_CURVE('',#274,#275,#157,.T.);
#338=EDGE_CURVE('',#275,#275,#41,.T.);
#339=EDGE_CURVE('',#276,#277,#158,.T.);
#340=EDGE_CURVE('',#278,#276,#159,.T.);
#341=EDGE_CURVE('',#279,#278,#160,.T.);
#342=EDGE_CURVE('',#277,#279,#42,.T.);
#343=EDGE_CURVE('',#280,#276,#161,.T.);
#344=EDGE_CURVE('',#280,#281,#162,.T.);
#345=EDGE_CURVE('',#278,#281,#163,.T.);
#346=EDGE_CURVE('',#282,#280,#164,.T.);
#347=EDGE_CURVE('',#283,#282,#43,.T.);
#348=EDGE_CURVE('',#281,#283,#165,.T.);
#349=EDGE_CURVE('',#284,#285,#166,.T.);
#350=EDGE_CURVE('',#286,#284,#167,.T.);
#351=EDGE_CURVE('',#287,#286,#168,.T.);
#352=EDGE_CURVE('',#285,#287,#44,.T.);
#353=EDGE_CURVE('',#288,#284,#169,.T.);
#354=EDGE_CURVE('',#288,#289,#170,.T.);
#355=EDGE_CURVE('',#286,#289,#171,.T.);
#356=EDGE_CURVE('',#290,#288,#172,.T.);
#357=EDGE_CURVE('',#291,#290,#45,.T.);
#358=EDGE_CURVE('',#289,#291,#173,.T.);
#359=EDGE_CURVE('',#287,#283,#174,.T.);
#360=EDGE_CURVE('',#292,#291,#175,.T.);
#361=EDGE_CURVE('',#292,#293,#176,.T.);
#362=EDGE_CURVE('',#293,#294,#177,.T.);
#363=EDGE_CURVE('',#294,#295,#178,.T.);
#364=EDGE_CURVE('',#279,#295,#179,.T.);
#365=EDGE_CURVE('',#290,#296,#180,.T.);
#366=EDGE_CURVE('',#296,#292,#46,.T.);
#367=EDGE_CURVE('',#282,#285,#181,.T.);
#368=EDGE_CURVE('',#295,#297,#47,.T.);
#369=EDGE_CURVE('',#298,#294,#182,.T.);
#370=EDGE_CURVE('',#297,#298,#183,.T.);
#371=EDGE_CURVE('',#297,#277,#184,.T.);
#372=EDGE_CURVE('',#299,#296,#185,.T.);
#373=EDGE_CURVE('',#299,#293,#186,.T.);
#374=EDGE_CURVE('',#262,#294,#26,.T.);
#375=EDGE_CURVE('',#268,#293,#27,.T.);
#376=EDGE_CURVE('',#261,#298,#28,.T.);
#377=EDGE_CURVE('',#300,#261,#187,.T.);
#378=EDGE_CURVE('',#300,#299,#29,.T.);
#379=EDGE_CURVE('',#298,#299,#188,.T.);
#380=EDGE_CURVE('',#300,#268,#189,.T.);
#381=EDGE_CURVE('',#266,#300,#190,.T.);
#382=ORIENTED_EDGE('',*,*,#301,.T.);
#383=ORIENTED_EDGE('',*,*,#302,.T.);
#384=ORIENTED_EDGE('',*,*,#303,.T.);
#385=ORIENTED_EDGE('',*,*,#304,.T.);
#386=ORIENTED_EDGE('',*,*,#302,.F.);
#387=ORIENTED_EDGE('',*,*,#305,.F.);
#388=ORIENTED_EDGE('',*,*,#306,.F.);
#389=ORIENTED_EDGE('',*,*,#307,.F.);
#390=ORIENTED_EDGE('',*,*,#308,.F.);
#391=ORIENTED_EDGE('',*,*,#309,.T.);
#392=ORIENTED_EDGE('',*,*,#310,.T.);
#393=ORIENTED_EDGE('',*,*,#311,.T.);
#394=ORIENTED_EDGE('',*,*,#306,.T.);
#395=ORIENTED_EDGE('',*,*,#311,.F.);
#396=ORIENTED_EDGE('',*,*,#312,.F.);
#397=ORIENTED_EDGE('',*,*,#313,.F.);
#398=ORIENTED_EDGE('',*,*,#314,.F.);
#399=ORIENTED_EDGE('',*,*,#315,.T.);
#400=ORIENTED_EDGE('',*,*,#316,.F.);
#401=ORIENTED_EDGE('',*,*,#317,.T.);
#402=ORIENTED_EDGE('',*,*,#303,.F.);
#403=ORIENTED_EDGE('',*,*,#308,.T.);
#404=ORIENTED_EDGE('',*,*,#318,.T.);
#405=ORIENTED_EDGE('',*,*,#319,.T.);
#406=ORIENTED_EDGE('',*,*,#307,.T.);
#407=ORIENTED_EDGE('',*,*,#310,.F.);
#408=ORIENTED_EDGE('',*,*,#320,.T.);
#409=ORIENTED_EDGE('',*,*,#321,.F.);
#410=ORIENTED_EDGE('',*,*,#312,.T.);
#411=ORIENTED_EDGE('',*,*,#322,.T.);
#412=ORIENTED_EDGE('',*,*,#323,.T.);
#413=ORIENTED_EDGE('',*,*,#313,.T.);
#414=ORIENTED_EDGE('',*,*,#321,.T.);
#415=ORIENTED_EDGE('',*,*,#304,.F.);
#416=ORIENTED_EDGE('',*,*,#317,.F.);
#417=ORIENTED_EDGE('',*,*,#324,.F.);
#418=ORIENTED_EDGE('',*,*,#325,.F.);
#419=ORIENTED_EDGE('',*,*,#324,.T.);
#420=ORIENTED_EDGE('',*,*,#316,.T.);
#421=ORIENTED_EDGE('',*,*,#326,.T.);
#422=ORIENTED_EDGE('',*,*,#327,.T.);
#423=ORIENTED_EDGE('',*,*,#328,.F.);
#424=ORIENTED_EDGE('',*,*,#329,.T.);
#425=ORIENTED_EDGE('',*,*,#318,.F.);
#426=ORIENTED_EDGE('',*,*,#319,.F.);
#427=ORIENTED_EDGE('',*,*,#329,.F.);
#428=ORIENTED_EDGE('',*,*,#328,.T.);
#429=ORIENTED_EDGE('',*,*,#330,.F.);
#430=ORIENTED_EDGE('',*,*,#331,.T.);
#431=ORIENTED_EDGE('',*,*,#332,.F.);
#432=ORIENTED_EDGE('',*,*,#331,.F.);
#433=ORIENTED_EDGE('',*,*,#333,.F.);
#434=ORIENTED_EDGE('',*,*,#334,.T.);
#435=ORIENTED_EDGE('',*,*,#335,.F.);
#436=ORIENTED_EDGE('',*,*,#334,.F.);
#437=ORIENTED_EDGE('',*,*,#336,.F.);
#438=ORIENTED_EDGE('',*,*,#337,.T.);
#439=ORIENTED_EDGE('',*,*,#338,.F.);
#440=ORIENTED_EDGE('',*,*,#337,.F.);
#441=ORIENTED_EDGE('',*,*,#339,.F.);
#442=ORIENTED_EDGE('',*,*,#340,.F.);
#443=ORIENTED_EDGE('',*,*,#341,.F.);
#444=ORIENTED_EDGE('',*,*,#342,.F.);
#445=ORIENTED_EDGE('',*,*,#338,.T.);
#446=ORIENTED_EDGE('',*,*,#343,.F.);
#447=ORIENTED_EDGE('',*,*,#344,.T.);
#448=ORIENTED_EDGE('',*,*,#345,.F.);
#449=ORIENTED_EDGE('',*,*,#340,.T.);
#450=ORIENTED_EDGE('',*,*,#346,.F.);
#451=ORIENTED_EDGE('',*,*,#347,.F.);
#452=ORIENTED_EDGE('',*,*,#348,.F.);
#453=ORIENTED_EDGE('',*,*,#344,.F.);
#454=ORIENTED_EDGE('',*,*,#333,.T.);
#455=ORIENTED_EDGE('',*,*,#349,.F.);
#456=ORIENTED_EDGE('',*,*,#350,.F.);
#457=ORIENTED_EDGE('',*,*,#351,.F.);
#458=ORIENTED_EDGE('',*,*,#352,.F.);
#459=ORIENTED_EDGE('',*,*,#335,.T.);
#460=ORIENTED_EDGE('',*,*,#353,.F.);
#461=ORIENTED_EDGE('',*,*,#354,.T.);
#462=ORIENTED_EDGE('',*,*,#355,.F.);
#463=ORIENTED_EDGE('',*,*,#350,.T.);
#464=ORIENTED_EDGE('',*,*,#356,.F.);
#465=ORIENTED_EDGE('',*,*,#357,.F.);
#466=ORIENTED_EDGE('',*,*,#358,.F.);
#467=ORIENTED_EDGE('',*,*,#354,.F.);
#468=ORIENTED_EDGE('',*,*,#330,.T.);
#469=ORIENTED_EDGE('',*,*,#341,.T.);
#470=ORIENTED_EDGE('',*,*,#345,.T.);
#471=ORIENTED_EDGE('',*,*,#348,.T.);
#472=ORIENTED_EDGE('',*,*,#359,.F.);
#473=ORIENTED_EDGE('',*,*,#351,.T.);
#474=ORIENTED_EDGE('',*,*,#355,.T.);
#475=ORIENTED_EDGE('',*,*,#358,.T.);
#476=ORIENTED_EDGE('',*,*,#360,.F.);
#477=ORIENTED_EDGE('',*,*,#361,.T.);
#478=ORIENTED_EDGE('',*,*,#362,.T.);
#479=ORIENTED_EDGE('',*,*,#363,.T.);
#480=ORIENTED_EDGE('',*,*,#364,.F.);
#481=ORIENTED_EDGE('',*,*,#357,.T.);
#482=ORIENTED_EDGE('',*,*,#365,.T.);
#483=ORIENTED_EDGE('',*,*,#366,.T.);
#484=ORIENTED_EDGE('',*,*,#360,.T.);
#485=ORIENTED_EDGE('',*,*,#347,.T.);
#486=ORIENTED_EDGE('',*,*,#367,.T.);
#487=ORIENTED_EDGE('',*,*,#352,.T.);
#488=ORIENTED_EDGE('',*,*,#359,.T.);
#489=ORIENTED_EDGE('',*,*,#368,.F.);
#490=ORIENTED_EDGE('',*,*,#363,.F.);
#491=ORIENTED_EDGE('',*,*,#369,.F.);
#492=ORIENTED_EDGE('',*,*,#370,.F.);
#493=ORIENTED_EDGE('',*,*,#336,.T.);
#494=ORIENTED_EDGE('',*,*,#342,.T.);
#495=ORIENTED_EDGE('',*,*,#364,.T.);
#496=ORIENTED_EDGE('',*,*,#368,.T.);
#497=ORIENTED_EDGE('',*,*,#371,.T.);
#498=ORIENTED_EDGE('',*,*,#366,.F.);
#499=ORIENTED_EDGE('',*,*,#372,.F.);
#500=ORIENTED_EDGE('',*,*,#373,.T.);
#501=ORIENTED_EDGE('',*,*,#361,.F.);
#502=ORIENTED_EDGE('',*,*,#332,.T.);
#503=ORIENTED_EDGE('',*,*,#326,.F.);
#504=ORIENTED_EDGE('',*,*,#374,.T.);
#505=ORIENTED_EDGE('',*,*,#362,.F.);
#506=ORIENTED_EDGE('',*,*,#375,.F.);
#507=ORIENTED_EDGE('',*,*,#315,.F.);
#508=ORIENTED_EDGE('',*,*,#376,.T.);
#509=ORIENTED_EDGE('',*,*,#369,.T.);
#510=ORIENTED_EDGE('',*,*,#374,.F.);
#511=ORIENTED_EDGE('',*,*,#377,.F.);
#512=ORIENTED_EDGE('',*,*,#378,.T.);
#513=ORIENTED_EDGE('',*,*,#379,.F.);
#514=ORIENTED_EDGE('',*,*,#376,.F.);
#515=ORIENTED_EDGE('',*,*,#380,.T.);
#516=ORIENTED_EDGE('',*,*,#375,.T.);
#517=ORIENTED_EDGE('',*,*,#373,.F.);
#518=ORIENTED_EDGE('',*,*,#378,.F.);
#519=ORIENTED_EDGE('',*,*,#323,.F.);
#520=ORIENTED_EDGE('',*,*,#381,.T.);
#521=ORIENTED_EDGE('',*,*,#377,.T.);
#522=ORIENTED_EDGE('',*,*,#314,.T.);
#523=ORIENTED_EDGE('',*,*,#309,.F.);
#524=ORIENTED_EDGE('',*,*,#305,.T.);
#525=ORIENTED_EDGE('',*,*,#301,.F.);
#526=ORIENTED_EDGE('',*,*,#325,.T.);
#527=ORIENTED_EDGE('',*,*,#327,.F.);
#528=ORIENTED_EDGE('',*,*,#380,.F.);
#529=ORIENTED_EDGE('',*,*,#381,.F.);
#530=ORIENTED_EDGE('',*,*,#322,.F.);
#531=ORIENTED_EDGE('',*,*,#320,.F.);
#532=ORIENTED_EDGE('',*,*,#339,.T.);
#533=ORIENTED_EDGE('',*,*,#371,.F.);
#534=ORIENTED_EDGE('',*,*,#370,.T.);
#535=ORIENTED_EDGE('',*,*,#379,.T.);
#536=ORIENTED_EDGE('',*,*,#372,.T.);
#537=ORIENTED_EDGE('',*,*,#365,.F.);
#538=ORIENTED_EDGE('',*,*,#356,.T.);
#539=ORIENTED_EDGE('',*,*,#353,.T.);
#540=ORIENTED_EDGE('',*,*,#349,.T.);
#541=ORIENTED_EDGE('',*,*,#367,.F.);
#542=ORIENTED_EDGE('',*,*,#346,.T.);
#543=ORIENTED_EDGE('',*,*,#343,.T.);
#544=CYLINDRICAL_SURFACE('',#608,2.);
#545=CYLINDRICAL_SURFACE('',#612,2.);
#546=CYLINDRICAL_SURFACE('',#620,2.);
#547=CYLINDRICAL_SURFACE('',#626,1.8);
#548=CYLINDRICAL_SURFACE('',#629,1.8);
#549=CYLINDRICAL_SURFACE('',#632,1.8);
#550=CYLINDRICAL_SURFACE('',#646,5.);
#551=CYLINDRICAL_SURFACE('',#648,5.);
#552=CYLINDRICAL_SURFACE('',#651,5.);
#553=ADVANCED_FACE('',(#66),#544,.F.);
#554=ADVANCED_FACE('',(#67),#48,.F.);
#555=ADVANCED_FACE('',(#68),#545,.T.);
#556=ADVANCED_FACE('',(#69),#49,.T.);
#557=ADVANCED_FACE('',(#70),#50,.T.);
#558=ADVANCED_FACE('',(#71),#546,.T.);
#559=ADVANCED_FACE('',(#72),#51,.F.);
#560=ADVANCED_FACE('',(#73),#52,.T.);
#561=ADVANCED_FACE('',(#74),#30,.F.);
#562=ADVANCED_FACE('',(#75),#53,.T.);
#563=ADVANCED_FACE('',(#76),#547,.F.);
#564=ADVANCED_FACE('',(#77),#548,.F.);
#565=ADVANCED_FACE('',(#78),#549,.F.);
#566=ADVANCED_FACE('',(#79,#19),#54,.F.);
#567=ADVANCED_FACE('',(#80),#55,.F.);
#568=ADVANCED_FACE('',(#81,#20),#56,.F.);
#569=ADVANCED_FACE('',(#82,#21),#57,.F.);
#570=ADVANCED_FACE('',(#83),#58,.F.);
#571=ADVANCED_FACE('',(#84,#22),#59,.F.);
#572=ADVANCED_FACE('',(#85),#60,.T.);
#573=ADVANCED_FACE('',(#86),#550,.T.);
#574=ADVANCED_FACE('',(#87),#551,.T.);
#575=ADVANCED_FACE('',(#88,#23),#61,.T.);
#576=ADVANCED_FACE('',(#89),#552,.T.);
#577=ADVANCED_FACE('',(#90,#24),#62,.T.);
#578=ADVANCED_FACE('',(#91),#15,.T.);
#579=ADVANCED_FACE('',(#92),#16,.T.);
#580=ADVANCED_FACE('',(#93),#17,.T.);
#581=ADVANCED_FACE('',(#94),#18,.T.);
#582=ADVANCED_FACE('',(#95),#63,.T.);
#583=ADVANCED_FACE('',(#96),#64,.T.);
#584=ADVANCED_FACE('',(#97),#65,.T.);
#585=CLOSED_SHELL('',(#553,#554,#555,#556,#557,#558,#559,#560,#561,#562,
#563,#564,#565,#566,#567,#568,#569,#570,#571,#572,#573,#574,#575,#576,#577,
#578,#579,#580,#581,#582,#583,#584));
#586=DERIVED_UNIT_ELEMENT(#589,1.);
#587=DERIVED_UNIT_ELEMENT(#1269,-3.);
#588=DIMENSIONAL_EXPONENTS(0.,1.,0.,0.,0.,0.,0.);
#589=(
CONVERSION_BASED_UNIT('gram',#591)
MASS_UNIT()
NAMED_UNIT(#588)
);
#590=(
MASS_UNIT()
NAMED_UNIT(*)
SI_UNIT(.KILO.,.GRAM.)
);
#591=MASS_MEASURE_WITH_UNIT(MASS_MEASURE(0.001),#590);
#592=DERIVED_UNIT((#586,#587));
#593=MEASURE_REPRESENTATION_ITEM('density measure',
POSITIVE_RATIO_MEASURE(1.06),#592);
#594=PROPERTY_DEFINITION_REPRESENTATION(#599,#596);
#595=PROPERTY_DEFINITION_REPRESENTATION(#600,#597);
#596=REPRESENTATION('material name',(#598),#1266);
#597=REPRESENTATION('density',(#593),#1266);
#598=DESCRIPTIVE_REPRESENTATION_ITEM('ABS, BLACK','ABS, BLACK');
#599=PROPERTY_DEFINITION('material property','material name',#1276);
#600=PROPERTY_DEFINITION('material property','density of part',#1276);
#601=DATE_TIME_ROLE('creation_date');
#602=APPLIED_DATE_AND_TIME_ASSIGNMENT(#603,#601,(#1276));
#603=DATE_AND_TIME(#604,#605);
#604=CALENDAR_DATE(2026,2,6);
#605=LOCAL_TIME(0,0,0.,#606);
#606=COORDINATED_UNIVERSAL_TIME_OFFSET(0,0,.BEHIND.);
#607=AXIS2_PLACEMENT_3D('',#809,#656,#657);
#608=AXIS2_PLACEMENT_3D('',#810,#658,#659);
#609=AXIS2_PLACEMENT_3D('',#813,#660,#661);
#610=AXIS2_PLACEMENT_3D('',#817,#663,#664);
#611=AXIS2_PLACEMENT_3D('',#819,#666,#667);
#612=AXIS2_PLACEMENT_3D('',#827,#672,#673);
#613=AXIS2_PLACEMENT_3D('',#829,#674,#675);
#614=AXIS2_PLACEMENT_3D('',#832,#677,#678);
#615=AXIS2_PLACEMENT_3D('',#833,#679,#680);
#616=AXIS2_PLACEMENT_3D('',#837,#682,#683);
#617=AXIS2_PLACEMENT_3D('',#846,#688,#689);
#618=AXIS2_PLACEMENT_3D('',#847,#690,#691);
#619=AXIS2_PLACEMENT_3D('',#848,#692,#693);
#620=AXIS2_PLACEMENT_3D('',#852,#696,#697);
#621=AXIS2_PLACEMENT_3D('',#854,#698,#699);
#622=AXIS2_PLACEMENT_3D('',#856,#701,#702);
#623=AXIS2_PLACEMENT_3D('',#860,#705,#706);
#624=AXIS2_PLACEMENT_3D('',#883,#709,#710);
#625=AXIS2_PLACEMENT_3D('',#886,#711,#712);
#626=AXIS2_PLACEMENT_3D('',#887,#713,#714);
#627=AXIS2_PLACEMENT_3D('',#889,#715,#716);
#628=AXIS2_PLACEMENT_3D('',#892,#718,#719);
#629=AXIS2_PLACEMENT_3D('',#893,#720,#721);
#630=AXIS2_PLACEMENT_3D('',#895,#722,#723);
#631=AXIS2_PLACEMENT_3D('',#898,#725,#726);
#632=AXIS2_PLACEMENT_3D('',#899,#727,#728);
#633=AXIS2_PLACEMENT_3D('',#901,#729,#730);
#634=AXIS2_PLACEMENT_3D('',#904,#732,#733);
#635=AXIS2_PLACEMENT_3D('',#905,#734,#735);
#636=AXIS2_PLACEMENT_3D('',#913,#739,#740);
#637=AXIS2_PLACEMENT_3D('',#914,#741,#742);
#638=AXIS2_PLACEMENT_3D('',#920,#746,#747);
#639=AXIS2_PLACEMENT_3D('',#924,#749,#750);
#640=AXIS2_PLACEMENT_3D('',#926,#752,#753);
#641=AXIS2_PLACEMENT_3D('',#934,#757,#758);
#642=AXIS2_PLACEMENT_3D('',#935,#759,#760);
#643=AXIS2_PLACEMENT_3D('',#941,#764,#765);
#644=AXIS2_PLACEMENT_3D('',#945,#767,#768);
#645=AXIS2_PLACEMENT_3D('',#947,#770,#771);
#646=AXIS2_PLACEMENT_3D('',#958,#778,#779);
#647=AXIS2_PLACEMENT_3D('',#961,#781,#782);
#648=AXIS2_PLACEMENT_3D('',#962,#783,#784);
#649=AXIS2_PLACEMENT_3D('',#964,#786,#787);
#650=AXIS2_PLACEMENT_3D('',#966,#788,#789);
#651=AXIS2_PLACEMENT_3D('',#970,#792,#793);
#652=AXIS2_PLACEMENT_3D('',#972,#795,#796);
#653=AXIS2_PLACEMENT_3D('',#1260,#802,#803);
#654=AXIS2_PLACEMENT_3D('',#1262,#805,#806);
#655=AXIS2_PLACEMENT_3D('',#1263,#807,#808);
#656=DIRECTION('axis',(0.,0.,1.));
#657=DIRECTION('refdir',(1.,0.,0.));
#658=DIRECTION('center_axis',(-8.61705130490099E-16,-0.984807753012208,
0.173648177666931));
#659=DIRECTION('ref_axis',(0.707106781186548,-0.122787803968974,-0.696364240320019));
#660=DIRECTION('center_axis',(2.01858731750029E-16,1.,0.));
#661=DIRECTION('ref_axis',(3.28006872667055E-15,-5.31067807477458E-31,-1.));
#662=DIRECTION('',(-8.61705130490099E-16,-0.984807753012208,0.173648177666931));
#663=DIRECTION('center_axis',(-8.07434927000115E-16,-1.,0.));
#664=DIRECTION('ref_axis',(3.28006872667055E-15,-2.18496469362154E-30,-1.));
#665=DIRECTION('',(8.61705130490099E-16,0.984807753012208,-0.173648177666931));
#666=DIRECTION('center_axis',(-1.40209603658201E-16,-0.173648177666931,
-0.984807753012208));
#667=DIRECTION('ref_axis',(-1.,0.,1.4237256279649E-16));
#668=DIRECTION('',(1.,-2.01858731750029E-16,-1.06779422097368E-16));
#669=DIRECTION('',(5.83123329185876E-16,0.984807753012208,-0.173648177666931));
#670=DIRECTION('',(-1.,8.07434927000115E-16,0.));
#671=DIRECTION('',(-1.,8.07434927000115E-16,0.));
#672=DIRECTION('center_axis',(5.83123329185876E-16,0.984807753012208,-0.173648177666931));
#673=DIRECTION('ref_axis',(-0.707106781186548,0.122787803968971,0.696364240320019));
#674=DIRECTION('center_axis',(-2.01858731750029E-16,-1.,0.));
#675=DIRECTION('ref_axis',(-3.89508161292128E-15,5.31067807477458E-31,1.));
#676=DIRECTION('',(-5.83123329185876E-16,-0.984807753012208,0.173648177666931));
#677=DIRECTION('center_axis',(8.07434927000115E-16,1.,0.));
#678=DIRECTION('ref_axis',(-1.16169100736249E-15,0.,1.));
#679=DIRECTION('center_axis',(-8.07434927000115E-16,-1.,0.));
#680=DIRECTION('ref_axis',(1.,-8.07434927000115E-16,0.));
#681=DIRECTION('',(0.,0.,1.));
#682=DIRECTION('center_axis',(8.07434927000115E-16,1.,0.));
#683=DIRECTION('ref_axis',(-0.707106781186548,0.,-0.707106781186547));
#684=DIRECTION('',(-1.,8.07434927000115E-16,0.));
#685=DIRECTION('',(0.,0.,1.));
#686=DIRECTION('',(1.,-8.07434927000115E-16,0.));
#687=DIRECTION('',(-8.9132556148114E-18,7.19687389667861E-33,-1.));
#688=DIRECTION('center_axis',(8.07434927000115E-16,1.,0.));
#689=DIRECTION('ref_axis',(1.,-8.07434927000115E-16,0.));
#690=DIRECTION('center_axis',(8.07434927000115E-16,1.,0.));
#691=DIRECTION('ref_axis',(1.,-8.07434927000115E-16,0.));
#692=DIRECTION('center_axis',(-1.,5.9211894646675E-16,0.));
#693=DIRECTION('ref_axis',(-5.9211894646675E-16,-1.,0.));
#694=DIRECTION('',(0.,0.,-1.));
#695=DIRECTION('',(5.9211894646675E-16,1.,0.));
#696=DIRECTION('center_axis',(5.9211894646675E-16,1.,0.));
#697=DIRECTION('ref_axis',(-0.707106781186548,0.,-0.707106781186547));
#698=DIRECTION('center_axis',(-2.01858731750029E-16,-1.,0.));
#699=DIRECTION('ref_axis',(-0.707106781186548,0.,-0.707106781186547));
#700=DIRECTION('',(-5.9211894646675E-16,-1.,0.));
#701=DIRECTION('center_axis',(1.,-8.76569968548967E-16,-8.9132556148114E-18));
#702=DIRECTION('ref_axis',(8.61705130490099E-16,0.984807753012208,-0.173648177666931));
#703=DIRECTION('',(-8.76569968548967E-16,-1.,0.));
#704=DIRECTION('',(8.9132556148114E-18,-1.79921847416965E-33,1.));
#705=DIRECTION('center_axis',(0.,0.,1.));
#706=DIRECTION('ref_axis',(1.,0.,0.));
#707=DIRECTION('',(5.9211894646675E-16,1.,0.));
#708=DIRECTION('',(-1.,2.01858731750029E-16,0.));
#709=DIRECTION('center_axis',(-8.07434927000115E-16,-1.,0.));
#710=DIRECTION('ref_axis',(1.,-8.07434927000115E-16,0.));
#711=DIRECTION('center_axis',(-8.07434927000115E-16,-1.,0.));
#712=DIRECTION('ref_axis',(0.,0.,-1.));
#713=DIRECTION('center_axis',(0.,1.,0.));
#714=DIRECTION('ref_axis',(-1.,0.,0.));
#715=DIRECTION('center_axis',(-3.70074341541719E-16,1.,0.));
#716=DIRECTION('ref_axis',(-1.,0.,0.));
#717=DIRECTION('',(0.,1.,0.));
#718=DIRECTION('center_axis',(-1.30614473485313E-16,-1.,0.));
#719=DIRECTION('ref_axis',(-1.,0.,0.));
#720=DIRECTION('center_axis',(0.,1.,0.));
#721=DIRECTION('ref_axis',(-1.,0.,0.));
#722=DIRECTION('center_axis',(-1.8503717077086E-16,1.,0.));
#723=DIRECTION('ref_axis',(-1.,0.,0.));
#724=DIRECTION('',(0.,1.,0.));
#725=DIRECTION('center_axis',(1.8503717077086E-16,-1.,0.));
#726=DIRECTION('ref_axis',(-1.,0.,0.));
#727=DIRECTION('center_axis',(0.,1.,0.));
#728=DIRECTION('ref_axis',(-1.,0.,0.));
#729=DIRECTION('center_axis',(-4.64035826600595E-32,1.,0.));
#730=DIRECTION('ref_axis',(-1.,0.,0.));
#731=DIRECTION('',(0.,1.,0.));
#732=DIRECTION('center_axis',(2.77555756156289E-16,-1.,0.));
#733=DIRECTION('ref_axis',(-1.,0.,0.));
#734=DIRECTION('center_axis',(2.77555756156289E-16,-1.,0.));
#735=DIRECTION('ref_axis',(1.,2.77555756156289E-16,0.));
#736=DIRECTION('',(1.,2.77555756156289E-16,0.));
#737=DIRECTION('',(0.,0.,-1.));
#738=DIRECTION('',(-1.,-2.77555756156289E-16,0.));
#739=DIRECTION('center_axis',(2.77555756156289E-16,-1.,0.));
#740=DIRECTION('ref_axis',(0.707106781186547,0.,0.707106781186547));
#741=DIRECTION('center_axis',(-1.,0.,0.));
#742=DIRECTION('ref_axis',(0.,-1.,0.));
#743=DIRECTION('',(0.,-1.,0.));
#744=DIRECTION('',(0.,0.,1.));
#745=DIRECTION('',(0.,1.,0.));
#746=DIRECTION('center_axis',(-1.8503717077086E-16,1.,0.));
#747=DIRECTION('ref_axis',(-1.,-1.8503717077086E-16,0.));
#748=DIRECTION('',(-1.,-1.8503717077086E-16,0.));
#749=DIRECTION('center_axis',(-1.8503717077086E-16,1.,0.));
#750=DIRECTION('ref_axis',(0.707106781186547,0.,0.707106781186547));
#751=DIRECTION('',(1.,1.8503717077086E-16,0.));
#752=DIRECTION('center_axis',(1.8503717077086E-16,-1.,0.));
#753=DIRECTION('ref_axis',(1.,1.8503717077086E-16,0.));
#754=DIRECTION('',(1.,1.8503717077086E-16,0.));
#755=DIRECTION('',(0.,0.,-1.));
#756=DIRECTION('',(-1.,-1.8503717077086E-16,0.));
#757=DIRECTION('center_axis',(1.8503717077086E-16,-1.,0.));
#758=DIRECTION('ref_axis',(0.707106781186547,0.,0.707106781186547));
#759=DIRECTION('center_axis',(-1.,0.,0.));
#760=DIRECTION('ref_axis',(0.,-1.,0.));
#761=DIRECTION('',(0.,-1.,0.));
#762=DIRECTION('',(0.,0.,1.));
#763=DIRECTION('',(0.,1.,0.));
#764=DIRECTION('center_axis',(-3.70074341541719E-16,1.,0.));
#765=DIRECTION('ref_axis',(-1.,-3.70074341541719E-16,0.));
#766=DIRECTION('',(-1.,-3.70074341541719E-16,0.));
#767=DIRECTION('center_axis',(-3.70074341541719E-16,1.,0.));
#768=DIRECTION('ref_axis',(0.707106781186547,0.,0.707106781186547));
#769=DIRECTION('',(1.,3.70074341541719E-16,0.));
#770=DIRECTION('center_axis',(0.,0.,1.));
#771=DIRECTION('ref_axis',(1.,0.,0.));
#772=DIRECTION('',(0.,-1.,0.));
#773=DIRECTION('',(0.,-1.,0.));
#774=DIRECTION('',(-1.,1.30614473485313E-16,0.));
#775=DIRECTION('',(5.9211894646675E-16,-1.,0.));
#776=DIRECTION('',(1.,4.64035826600595E-32,0.));
#777=DIRECTION('',(0.,-1.,0.));
#778=DIRECTION('center_axis',(0.,1.,0.));
#779=DIRECTION('ref_axis',(0.707106781186547,0.,0.707106781186547));
#780=DIRECTION('',(0.,1.,0.));
#781=DIRECTION('center_axis',(-1.30614473485313E-16,-1.,0.));
#782=DIRECTION('ref_axis',(0.707106781186547,0.,0.707106781186547));
#783=DIRECTION('center_axis',(0.,1.,0.));
#784=DIRECTION('ref_axis',(0.707106781186547,0.,0.707106781186547));
#785=DIRECTION('',(0.,1.,0.));
#786=DIRECTION('center_axis',(4.64035826600595E-32,-1.,0.));
#787=DIRECTION('ref_axis',(1.,4.64035826600595E-32,0.));
#788=DIRECTION('center_axis',(-4.64035826600595E-32,1.,0.));
#789=DIRECTION('ref_axis',(0.707106781186547,0.,-0.707106781186547));
#790=DIRECTION('',(0.,0.,1.));
#791=DIRECTION('',(-1.,-4.64035826600595E-32,0.));
#792=DIRECTION('center_axis',(0.,1.,0.));
#793=DIRECTION('ref_axis',(0.707106781186547,0.,0.707106781186547));
#794=DIRECTION('',(0.,1.,0.));
#795=DIRECTION('center_axis',(1.30614473485313E-16,1.,0.));
#796=DIRECTION('ref_axis',(-1.,1.30614473485313E-16,0.));
#797=DIRECTION('',(1.,-1.30614473485313E-16,0.));
#798=DIRECTION('',(0.,0.,1.));
#799=DIRECTION('',(-5.9211894646675E-16,-1.,0.));
#800=DIRECTION('',(-5.9211894646675E-16,1.,0.));
#801=DIRECTION('',(0.,0.,1.));
#802=DIRECTION('center_axis',(0.,0.,-1.));
#803=DIRECTION('ref_axis',(-1.,0.,0.));
#804=DIRECTION('',(1.,-2.01858731750029E-16,0.));
#805=DIRECTION('center_axis',(2.01858731750029E-16,1.,0.));
#806=DIRECTION('ref_axis',(-1.,2.01858731750029E-16,0.));
#807=DIRECTION('center_axis',(0.,0.,-1.));
#808=DIRECTION('ref_axis',(-1.,0.,0.));
#809=CARTESIAN_POINT('',(0.,0.,0.));
#810=CARTESIAN_POINT('Origin',(-12.,-41.6929970113796,4.15304729442804));
#811=CARTESIAN_POINT('',(-9.99999999999995,-26.,1.38594851314451));
#812=CARTESIAN_POINT('',(-11.9999999999999,-26.,-0.64490471062698));
#813=CARTESIAN_POINT('Origin',(-11.9999999999999,-26.,1.38594851314451));
#814=CARTESIAN_POINT('',(-12.,-41.,2.));
#815=CARTESIAN_POINT('',(-12.,-42.0402933667134,2.18343178840362));
#816=CARTESIAN_POINT('',(-9.99999999999996,-41.,4.03085322377149));
#817=CARTESIAN_POINT('Origin',(-12.,-41.,4.03085322377149));
#818=CARTESIAN_POINT('',(-9.99999999999996,-41.6929970113796,4.15304729442804));
#819=CARTESIAN_POINT('Origin',(-16.,-33.8241354941927,0.73470147771796));
#820=CARTESIAN_POINT('',(-20.,-26.,-0.644904710626979));
#821=CARTESIAN_POINT('',(-7.99999999999997,-26.,-0.64490471062698));
#822=CARTESIAN_POINT('',(-20.,-41.,2.));
#823=CARTESIAN_POINT('',(-20.,-29.9672103474864,0.0546215117806742));
#824=CARTESIAN_POINT('',(-17.,-41.,2.));
#825=CARTESIAN_POINT('',(-19.,-41.,2.));
#826=CARTESIAN_POINT('',(-19.,-41.,2.));
#827=CARTESIAN_POINT('Origin',(-20.,-30.3145067028202,-1.91499399424374));
#828=CARTESIAN_POINT('',(-22.,-26.,-2.67575793439847));
#829=CARTESIAN_POINT('Origin',(-20.,-26.,-2.67575793439847));
#830=CARTESIAN_POINT('',(-22.,-41.,-0.0308532237714898));
#831=CARTESIAN_POINT('',(-22.,-30.3145067028202,-1.91499399424374));
#832=CARTESIAN_POINT('Origin',(-20.,-41.,-0.0308532237714892));
#833=CARTESIAN_POINT('Origin',(-22.,-41.,0.));
#834=CARTESIAN_POINT('',(-22.,-41.,-3.));
#835=CARTESIAN_POINT('',(-22.,-41.,0.));
#836=CARTESIAN_POINT('',(-20.,-41.,-5.));
#837=CARTESIAN_POINT('Origin',(-20.,-41.,-3.));
#838=CARTESIAN_POINT('',(0.,-41.,-5.));
#839=CARTESIAN_POINT('',(-22.,-41.,-5.));
#840=CARTESIAN_POINT('',(0.,-41.,5.));
#841=CARTESIAN_POINT('',(0.,-41.,0.));
#842=CARTESIAN_POINT('',(-9.99999999999996,-41.,5.));
#843=CARTESIAN_POINT('',(-22.,-41.,5.));
#844=CARTESIAN_POINT('',(-9.99999999999996,-41.,1.81608104954464));
#845=CARTESIAN_POINT('',(-19.,-41.,-1.0375738927528E-16));
#846=CARTESIAN_POINT('Origin',(-17.,-41.,7.11862813982452E-16));
#847=CARTESIAN_POINT('Origin',(-17.,-41.,7.11862813982452E-16));
#848=CARTESIAN_POINT('Origin',(-22.,-26.,0.));
#849=CARTESIAN_POINT('',(-22.,-26.,-3.));
#850=CARTESIAN_POINT('',(-22.,-26.,0.));
#851=CARTESIAN_POINT('',(-22.,-29.75,-3.));
#852=CARTESIAN_POINT('Origin',(-20.,-29.75,-3.));
#853=CARTESIAN_POINT('',(-20.,-26.,-5.));
#854=CARTESIAN_POINT('Origin',(-20.,-26.,-3.));
#855=CARTESIAN_POINT('',(-20.,-29.75,-5.));
#856=CARTESIAN_POINT('Origin',(-9.99999999999997,-50.2564512392341,3.63216209908928));
#857=CARTESIAN_POINT('',(-9.99999999999995,-26.,5.));
#858=CARTESIAN_POINT('',(-9.99999999999996,-41.8782256196171,5.));
#859=CARTESIAN_POINT('',(-9.99999999999995,-26.,1.81608104954464));
#860=CARTESIAN_POINT('Origin',(-11.,-33.5,5.));
#861=CARTESIAN_POINT('',(8.88178419700125E-15,-26.,5.));
#862=CARTESIAN_POINT('',(0.,-41.,5.));
#863=CARTESIAN_POINT('',(8.88178419700126E-15,-26.,5.));
#864=CARTESIAN_POINT('Ctrl Pts',(-19.,-40.6426450560106,-0.0630113183148897));
#865=CARTESIAN_POINT('Ctrl Pts',(-19.,-40.9846651993363,-2.0027039391008));
#866=CARTESIAN_POINT('Ctrl Pts',(-17.,-40.9846651993363,-2.0027039391008));
#867=CARTESIAN_POINT('Ctrl Pts',(-15.,-40.9846651993363,-2.0027039391008));
#868=CARTESIAN_POINT('Ctrl Pts',(-15.,-40.6426450560106,-0.0630113183148891));
#869=CARTESIAN_POINT('Ctrl Pts',(-15.,-40.300624912685,1.87668130247102));
#870=CARTESIAN_POINT('Ctrl Pts',(-17.,-40.300624912685,1.87668130247102));
#871=CARTESIAN_POINT('Ctrl Pts',(-19.,-40.300624912685,1.87668130247102));
#872=CARTESIAN_POINT('Ctrl Pts',(-19.,-40.6426450560106,-0.0630113183148897));
#873=CARTESIAN_POINT('Ctrl Pts',(-19.,-47.2662014620626,1.10490038431647));
#874=CARTESIAN_POINT('Ctrl Pts',(-19.,-47.6082216053883,-0.834792236469433));
#875=CARTESIAN_POINT('Ctrl Pts',(-17.,-47.6082216053883,-0.834792236469434));
#876=CARTESIAN_POINT('Ctrl Pts',(-15.,-47.6082216053883,-0.834792236469434));
#877=CARTESIAN_POINT('Ctrl Pts',(-15.,-47.2662014620626,1.10490038431647));
#878=CARTESIAN_POINT('Ctrl Pts',(-15.,-46.924181318737,3.04459300510238));
#879=CARTESIAN_POINT('Ctrl Pts',(-17.,-46.924181318737,3.04459300510238));
#880=CARTESIAN_POINT('Ctrl Pts',(-19.,-46.924181318737,3.04459300510238));
#881=CARTESIAN_POINT('Ctrl Pts',(-19.,-47.2662014620626,1.10490038431647));
#882=CARTESIAN_POINT('',(-19.,-46.9088465180732,1.04188906600158));
#883=CARTESIAN_POINT('Origin',(-17.,-46.9088465180732,1.04188906600158));
#884=CARTESIAN_POINT('Ctrl Pts',(-19.,-46.9088465180732,1.04188906600158));
#885=CARTESIAN_POINT('Ctrl Pts',(-19.,-41.,-2.70616862252382E-16));
#886=CARTESIAN_POINT('Origin',(-17.,-46.9088465180732,1.04188906600158));
#887=CARTESIAN_POINT('Origin',(122.,157.625878113752,0.));
#888=CARTESIAN_POINT('',(123.8,12.,-2.20436423846524E-16));
#889=CARTESIAN_POINT('Origin',(122.,12.,0.));
#890=CARTESIAN_POINT('',(123.8,15.,2.20436423846524E-16));
#891=CARTESIAN_POINT('',(123.8,157.625878113752,-2.20436423846524E-16));
#892=CARTESIAN_POINT('Origin',(122.,15.,0.));
#893=CARTESIAN_POINT('Origin',(122.,157.625878113752,0.));
#894=CARTESIAN_POINT('',(123.8,6.,-2.20436423846524E-16));
#895=CARTESIAN_POINT('Origin',(122.,6.,0.));
#896=CARTESIAN_POINT('',(123.8,9.,2.20436423846524E-16));
#897=CARTESIAN_POINT('',(123.8,157.625878113752,-2.20436423846524E-16));
#898=CARTESIAN_POINT('Origin',(122.,9.,0.));
#899=CARTESIAN_POINT('Origin',(122.,157.625878113752,0.));
#900=CARTESIAN_POINT('',(123.8,0.,-2.20436423846524E-16));
#901=CARTESIAN_POINT('Origin',(122.,0.,0.));
#902=CARTESIAN_POINT('',(123.8,2.99999999999999,2.20436423846524E-16));
#903=CARTESIAN_POINT('',(123.8,157.625878113752,-2.20436423846524E-16));
#904=CARTESIAN_POINT('Origin',(122.,2.99999999999999,0.));
#905=CARTESIAN_POINT('Origin',(119.,3.,0.));
#906=CARTESIAN_POINT('',(119.,3.,-5.));
#907=CARTESIAN_POINT('',(120.,3.,-5.));
#908=CARTESIAN_POINT('',(100.75,2.99999999999999,-5.));
#909=CARTESIAN_POINT('',(119.,3.,5.));
#910=CARTESIAN_POINT('',(119.,3.,0.));
#911=CARTESIAN_POINT('',(120.,3.,5.));
#912=CARTESIAN_POINT('',(100.75,2.99999999999999,5.));
#913=CARTESIAN_POINT('Origin',(120.,3.,0.));
#914=CARTESIAN_POINT('Origin',(119.,6.,0.));
#915=CARTESIAN_POINT('',(119.,6.,-5.));
#916=CARTESIAN_POINT('',(119.,6.75,-5.));
#917=CARTESIAN_POINT('',(119.,6.,5.));
#918=CARTESIAN_POINT('',(119.,6.,0.));
#919=CARTESIAN_POINT('',(119.,6.75,5.));
#920=CARTESIAN_POINT('Origin',(125.,6.,0.));
#921=CARTESIAN_POINT('',(120.,6.,-5.));
#922=CARTESIAN_POINT('',(103.75,5.99999999999999,-5.));
#923=CARTESIAN_POINT('',(120.,6.,5.));
#924=CARTESIAN_POINT('Origin',(120.,6.,0.));
#925=CARTESIAN_POINT('',(103.75,5.99999999999999,5.));
#926=CARTESIAN_POINT('Origin',(119.,9.,0.));
#927=CARTESIAN_POINT('',(119.,9.,-5.));
#928=CARTESIAN_POINT('',(120.,9.,-5.));
#929=CARTESIAN_POINT('',(100.75,8.99999999999999,-5.));
#930=CARTESIAN_POINT('',(119.,9.,5.));
#931=CARTESIAN_POINT('',(119.,9.,0.));
#932=CARTESIAN_POINT('',(120.,9.,5.));
#933=CARTESIAN_POINT('',(100.75,8.99999999999999,5.));
#934=CARTESIAN_POINT('Origin',(120.,9.,0.));
#935=CARTESIAN_POINT('Origin',(119.,12.,0.));
#936=CARTESIAN_POINT('',(119.,12.,-5.));
#937=CARTESIAN_POINT('',(119.,9.75,-5.));
#938=CARTESIAN_POINT('',(119.,12.,5.));
#939=CARTESIAN_POINT('',(119.,12.,0.));
#940=CARTESIAN_POINT('',(119.,9.75,5.));
#941=CARTESIAN_POINT('Origin',(125.,12.,0.));
#942=CARTESIAN_POINT('',(120.,12.,-5.));
#943=CARTESIAN_POINT('',(103.75,12.,-5.));
#944=CARTESIAN_POINT('',(120.,12.,5.));
#945=CARTESIAN_POINT('Origin',(120.,12.,0.));
#946=CARTESIAN_POINT('',(103.75,12.,5.));
#947=CARTESIAN_POINT('Origin',(82.5,7.50000000000001,5.));
#948=CARTESIAN_POINT('',(120.,3.75,5.));
#949=CARTESIAN_POINT('',(120.,15.,5.));
#950=CARTESIAN_POINT('',(120.,3.75,5.));
#951=CARTESIAN_POINT('',(40.,15.,5.));
#952=CARTESIAN_POINT('',(125.,15.,5.));
#953=CARTESIAN_POINT('',(40.,-3.94430452610506E-30,5.));
#954=CARTESIAN_POINT('',(40.,15.,5.));
#955=CARTESIAN_POINT('',(120.,-2.32017913300298E-31,5.));
#956=CARTESIAN_POINT('',(40.,-3.94430452610506E-30,5.));
#957=CARTESIAN_POINT('',(120.,3.75,5.));
#958=CARTESIAN_POINT('Origin',(120.,3.75,0.));
#959=CARTESIAN_POINT('',(120.,15.,-5.));
#960=CARTESIAN_POINT('',(120.,3.75,-5.));
#961=CARTESIAN_POINT('Origin',(120.,15.,0.));
#962=CARTESIAN_POINT('Origin',(120.,3.75,0.));
#963=CARTESIAN_POINT('',(120.,3.75,-5.));
#964=CARTESIAN_POINT('Origin',(40.,-3.94430452610506E-30,0.));
#965=CARTESIAN_POINT('',(120.,-2.32017913300298E-31,-5.));
#966=CARTESIAN_POINT('Origin',(120.,0.,0.));
#967=CARTESIAN_POINT('',(40.,-3.94430452610506E-30,-5.));
#968=CARTESIAN_POINT('',(40.,-3.94430452610506E-30,0.));
#969=CARTESIAN_POINT('',(40.,-3.94430452610506E-30,-5.));
#970=CARTESIAN_POINT('Origin',(120.,3.75,0.));
#971=CARTESIAN_POINT('',(120.,3.75,-5.));
#972=CARTESIAN_POINT('Origin',(125.,15.,0.));
#973=CARTESIAN_POINT('',(40.,15.,-5.));
#974=CARTESIAN_POINT('',(125.,15.,-5.));
#975=CARTESIAN_POINT('',(40.,15.,0.));
#976=CARTESIAN_POINT('Ctrl Pts',(8.88178419700126E-15,-26.,5.));
#977=CARTESIAN_POINT('Ctrl Pts',(0.903132356447871,-26.,5.));
#978=CARTESIAN_POINT('Ctrl Pts',(2.54507629657368,-25.7832560124129,5.));
#979=CARTESIAN_POINT('Ctrl Pts',(4.48597764267678,-24.8294616231357,5.));
#980=CARTESIAN_POINT('Ctrl Pts',(5.99508434665735,-23.3700875842071,5.));
#981=CARTESIAN_POINT('Ctrl Pts',(8.10944725811688,-20.5095915777181,5.));
#982=CARTESIAN_POINT('Ctrl Pts',(11.2442019206203,-14.5117851417596,5.));
#983=CARTESIAN_POINT('Ctrl Pts',(14.9909287446683,-5.54098908907266,5.));
#984=CARTESIAN_POINT('Ctrl Pts',(18.8733232982741,2.19222160560138,5.));
#985=CARTESIAN_POINT('Ctrl Pts',(23.3457402584375,7.93815157498448,5.));
#986=CARTESIAN_POINT('Ctrl Pts',(27.7548523837401,11.7247267765196,5.));
#987=CARTESIAN_POINT('Ctrl Pts',(33.41010443462,14.3926525501628,5.));
#988=CARTESIAN_POINT('Ctrl Pts',(37.7640837397946,15.,5.));
#989=CARTESIAN_POINT('Ctrl Pts',(40.,15.,5.));
#990=CARTESIAN_POINT('Ctrl Pts',(5.92118946466751E-15,-31.,5.));
#991=CARTESIAN_POINT('Ctrl Pts',(1.34739365770038,-31.,5.));
#992=CARTESIAN_POINT('Ctrl Pts',(3.81108070905049,-30.6488404395118,5.));
#993=CARTESIAN_POINT('Ctrl Pts',(6.87919498619585,-29.1953404632999,5.));
#994=CARTESIAN_POINT('Ctrl Pts',(9.4255348449799,-26.9756462987202,5.));
#995=CARTESIAN_POINT('Ctrl Pts',(12.4516958074675,-23.0736539467029,5.));
#996=CARTESIAN_POINT('Ctrl Pts',(15.8315663784893,-16.4922665730064,5.));
#997=CARTESIAN_POINT('Ctrl Pts',(19.5801438432736,-7.52532483727105,5.));
#998=CARTESIAN_POINT('Ctrl Pts',(23.2092277113295,-0.365469377335978,5.));
#999=CARTESIAN_POINT('Ctrl Pts',(27.0214066900517,4.49833429564595,5.));
#1000=CARTESIAN_POINT('Ctrl Pts',(30.5344150226098,7.49376218109448,5.));
#1001=CARTESIAN_POINT('Ctrl Pts',(34.8406462013474,9.51863928542841,5.));
#1002=CARTESIAN_POINT('Ctrl Pts',(38.2083450410471,10.,5.));
#1003=CARTESIAN_POINT('Ctrl Pts',(40.,10.,5.));
#1004=CARTESIAN_POINT('Ctrl Pts',(2.96059473233375E-15,-36.,5.));
#1005=CARTESIAN_POINT('Ctrl Pts',(1.79165495895288,-36.,5.));
#1006=CARTESIAN_POINT('Ctrl Pts',(5.07708512152726,-35.5144248666107,5.));
#1007=CARTESIAN_POINT('Ctrl Pts',(9.2724123297149,-33.561219303464,5.));
#1008=CARTESIAN_POINT('Ctrl Pts',(12.8559853433024,-30.5812050132332,5.));
#1009=CARTESIAN_POINT('Ctrl Pts',(16.7939443568181,-25.6377163156878,5.));
#1010=CARTESIAN_POINT('Ctrl Pts',(20.4189308363582,-18.4727480042531,5.));
#1011=CARTESIAN_POINT('Ctrl Pts',(24.169358941879,-9.50966058546946,5.));
#1012=CARTESIAN_POINT('Ctrl Pts',(27.5451321243849,-2.92316036027334,5.));
#1013=CARTESIAN_POINT('Ctrl Pts',(30.697073121666,1.05851701630742,5.));
#1014=CARTESIAN_POINT('Ctrl Pts',(33.3139776614795,3.26279758566939,5.));
#1015=CARTESIAN_POINT('Ctrl Pts',(36.2711879680749,4.64462602069405,5.));
#1016=CARTESIAN_POINT('Ctrl Pts',(38.6526063422996,5.,5.));
#1017=CARTESIAN_POINT('Ctrl Pts',(40.,5.,5.));
#1018=CARTESIAN_POINT('Ctrl Pts',(0.,-41.,5.));
#1019=CARTESIAN_POINT('Ctrl Pts',(2.23591626020538,-41.,5.));
#1020=CARTESIAN_POINT('Ctrl Pts',(6.34308953400406,-40.3800092937096,5.));
#1021=CARTESIAN_POINT('Ctrl Pts',(11.665629673234,-37.9270981436281,5.));
#1022=CARTESIAN_POINT('Ctrl Pts',(16.286435841625,-34.1867637277463,5.));
#1023=CARTESIAN_POINT('Ctrl Pts',(21.1361929061687,-28.2017786846726,5.));
#1024=CARTESIAN_POINT('Ctrl Pts',(25.0062952942272,-20.4532294354999,5.));
#1025=CARTESIAN_POINT('Ctrl Pts',(28.7585740404843,-11.4939963336679,5.));
#1026=CARTESIAN_POINT('Ctrl Pts',(31.8810365374404,-5.4808513432107,5.));
#1027=CARTESIAN_POINT('Ctrl Pts',(34.3727395532802,-2.38130026303111,5.));
#1028=CARTESIAN_POINT('Ctrl Pts',(36.0935403003492,-0.968167009755698,5.));
#1029=CARTESIAN_POINT('Ctrl Pts',(37.7017297348023,-0.229387244040311,5.));
#1030=CARTESIAN_POINT('Ctrl Pts',(39.0968676435522,-4.04814371085904E-15,
5.));
#1031=CARTESIAN_POINT('Ctrl Pts',(40.,-5.55111512312578E-15,5.));
#1032=CARTESIAN_POINT('Ctrl Pts',(0.,-41.,5.));
#1033=CARTESIAN_POINT('Ctrl Pts',(2.23591626020538,-41.,5.));
#1034=CARTESIAN_POINT('Ctrl Pts',(6.34312868752629,-40.3800311655471,5.));
#1035=CARTESIAN_POINT('Ctrl Pts',(11.6656696856952,-37.9271336374157,5.));
#1036=CARTESIAN_POINT('Ctrl Pts',(16.2865057044593,-34.1868389766864,5.));
#1037=CARTESIAN_POINT('Ctrl Pts',(21.1362224794967,-28.2018057285993,5.));
#1038=CARTESIAN_POINT('Ctrl Pts',(25.006269198104,-20.4531481588417,5.));
#1039=CARTESIAN_POINT('Ctrl Pts',(28.75857952673,-11.4939699742163,5.));
#1040=CARTESIAN_POINT('Ctrl Pts',(31.8809452399307,-5.48080856393248,5.));
#1041=CARTESIAN_POINT('Ctrl Pts',(34.3726938039889,-2.38128773663937,5.));
#1042=CARTESIAN_POINT('Ctrl Pts',(36.0934927197469,-0.968152462189467,5.));
#1043=CARTESIAN_POINT('Ctrl Pts',(37.7016980380705,-0.229387565981905,5.));
#1044=CARTESIAN_POINT('Ctrl Pts',(39.0968676435521,9.66761283731551E-16,
5.));
#1045=CARTESIAN_POINT('Ctrl Pts',(40.,0.,5.));
#1046=CARTESIAN_POINT('Ctrl Pts',(8.88178419700126E-15,-26.,5.));
#1047=CARTESIAN_POINT('Ctrl Pts',(0.903132356447871,-26.,5.));
#1048=CARTESIAN_POINT('Ctrl Pts',(2.5450771208788,-25.7832564796288,5.));
#1049=CARTESIAN_POINT('Ctrl Pts',(4.4859785011077,-24.8294623825534,5.));
#1050=CARTESIAN_POINT('Ctrl Pts',(5.99508582424357,-23.3700891637253,5.));
#1051=CARTESIAN_POINT('Ctrl Pts',(8.10944789218084,-20.5095921442097,5.));
#1052=CARTESIAN_POINT('Ctrl Pts',(11.2442013839077,-14.5117834321223,5.));
#1053=CARTESIAN_POINT('Ctrl Pts',(14.9909288195623,-5.54098850553732,5.));
#1054=CARTESIAN_POINT('Ctrl Pts',(18.873321363625,2.19222251651318,5.));
#1055=CARTESIAN_POINT('Ctrl Pts',(23.3457392586644,7.93815186118255,5.));
#1056=CARTESIAN_POINT('Ctrl Pts',(27.7548513651284,11.7247270922409,5.));
#1057=CARTESIAN_POINT('Ctrl Pts',(33.4101037595916,14.3926525535704,5.));
#1058=CARTESIAN_POINT('Ctrl Pts',(37.7640837397946,15.,5.));
#1059=CARTESIAN_POINT('Ctrl Pts',(40.,15.,5.));
#1060=CARTESIAN_POINT('Ctrl Pts',(0.,-41.,5.));
#1061=CARTESIAN_POINT('Ctrl Pts',(2.23591626020538,-41.,5.));
#1062=CARTESIAN_POINT('Ctrl Pts',(6.34312868752629,-40.3800311655471,5.));
#1063=CARTESIAN_POINT('Ctrl Pts',(11.6656696856952,-37.9271336374157,5.));
#1064=CARTESIAN_POINT('Ctrl Pts',(16.2865057044593,-34.1868389766864,5.));
#1065=CARTESIAN_POINT('Ctrl Pts',(21.1362224794967,-28.2018057285993,5.));
#1066=CARTESIAN_POINT('Ctrl Pts',(25.006269198104,-20.4531481588417,5.));
#1067=CARTESIAN_POINT('Ctrl Pts',(28.75857952673,-11.4939699742163,5.));
#1068=CARTESIAN_POINT('Ctrl Pts',(31.8809452399307,-5.48080856393248,5.));
#1069=CARTESIAN_POINT('Ctrl Pts',(34.3726938039889,-2.38128773663937,5.));
#1070=CARTESIAN_POINT('Ctrl Pts',(36.0934927197469,-0.968152462189467,5.));
#1071=CARTESIAN_POINT('Ctrl Pts',(37.7016980380705,-0.229387565981905,5.));
#1072=CARTESIAN_POINT('Ctrl Pts',(39.0968676435521,9.66761283731551E-16,
5.));
#1073=CARTESIAN_POINT('Ctrl Pts',(40.,0.,5.));
#1074=CARTESIAN_POINT('Ctrl Pts',(0.,-41.,1.66666666666667));
#1075=CARTESIAN_POINT('Ctrl Pts',(2.23591626020539,-41.,1.66666666666667));
#1076=CARTESIAN_POINT('Ctrl Pts',(6.34312868752629,-40.3800311655471,1.66666666666667));
#1077=CARTESIAN_POINT('Ctrl Pts',(11.6656696856952,-37.9271336374157,1.66666666666667));
#1078=CARTESIAN_POINT('Ctrl Pts',(16.2865057044593,-34.1868389766864,1.66666666666667));
#1079=CARTESIAN_POINT('Ctrl Pts',(21.1362224794967,-28.2018057285993,1.66666666666667));
#1080=CARTESIAN_POINT('Ctrl Pts',(25.0062691981039,-20.4531481588417,1.66666666666667));
#1081=CARTESIAN_POINT('Ctrl Pts',(28.75857952673,-11.4939699742163,1.66666666666667));
#1082=CARTESIAN_POINT('Ctrl Pts',(31.8809452399307,-5.48080856393248,1.66666666666667));
#1083=CARTESIAN_POINT('Ctrl Pts',(34.3726938039889,-2.38128773663937,1.66666666666667));
#1084=CARTESIAN_POINT('Ctrl Pts',(36.0934927197469,-0.968152462189467,1.66666666666667));
#1085=CARTESIAN_POINT('Ctrl Pts',(37.7016980380705,-0.229387565981905,1.66666666666667));
#1086=CARTESIAN_POINT('Ctrl Pts',(39.0968676435521,9.66761283731551E-16,
1.66666666666667));
#1087=CARTESIAN_POINT('Ctrl Pts',(40.,0.,1.66666666666667));
#1088=CARTESIAN_POINT('Ctrl Pts',(0.,-41.,-1.66666666666667));
#1089=CARTESIAN_POINT('Ctrl Pts',(2.23591626020538,-41.,-1.66666666666667));
#1090=CARTESIAN_POINT('Ctrl Pts',(6.34312868752629,-40.3800311655471,-1.66666666666667));
#1091=CARTESIAN_POINT('Ctrl Pts',(11.6656696856952,-37.9271336374157,-1.66666666666667));
#1092=CARTESIAN_POINT('Ctrl Pts',(16.2865057044593,-34.1868389766864,-1.66666666666667));
#1093=CARTESIAN_POINT('Ctrl Pts',(21.1362224794967,-28.2018057285993,-1.66666666666667));
#1094=CARTESIAN_POINT('Ctrl Pts',(25.006269198104,-20.4531481588417,-1.66666666666667));
#1095=CARTESIAN_POINT('Ctrl Pts',(28.75857952673,-11.4939699742163,-1.66666666666667));
#1096=CARTESIAN_POINT('Ctrl Pts',(31.8809452399307,-5.48080856393248,-1.66666666666667));
#1097=CARTESIAN_POINT('Ctrl Pts',(34.3726938039889,-2.38128773663937,-1.66666666666667));
#1098=CARTESIAN_POINT('Ctrl Pts',(36.0934927197469,-0.968152462189468,-1.66666666666667));
#1099=CARTESIAN_POINT('Ctrl Pts',(37.7016980380705,-0.229387565981905,-1.66666666666667));
#1100=CARTESIAN_POINT('Ctrl Pts',(39.0968676435521,9.66761283731551E-16,
-1.66666666666667));
#1101=CARTESIAN_POINT('Ctrl Pts',(40.,0.,-1.66666666666667));
#1102=CARTESIAN_POINT('Ctrl Pts',(0.,-41.,-5.));
#1103=CARTESIAN_POINT('Ctrl Pts',(2.23591626020538,-41.,-5.));
#1104=CARTESIAN_POINT('Ctrl Pts',(6.34312868752628,-40.3800311655471,-5.));
#1105=CARTESIAN_POINT('Ctrl Pts',(11.6656696856952,-37.9271336374157,-5.));
#1106=CARTESIAN_POINT('Ctrl Pts',(16.2865057044593,-34.1868389766864,-5.));
#1107=CARTESIAN_POINT('Ctrl Pts',(21.1362224794967,-28.2018057285993,-5.));
#1108=CARTESIAN_POINT('Ctrl Pts',(25.006269198104,-20.4531481588417,-5.));
#1109=CARTESIAN_POINT('Ctrl Pts',(28.75857952673,-11.4939699742163,-5.));
#1110=CARTESIAN_POINT('Ctrl Pts',(31.8809452399307,-5.48080856393248,-5.));
#1111=CARTESIAN_POINT('Ctrl Pts',(34.3726938039889,-2.38128773663937,-5.));
#1112=CARTESIAN_POINT('Ctrl Pts',(36.0934927197469,-0.968152462189467,-5.));
#1113=CARTESIAN_POINT('Ctrl Pts',(37.7016980380705,-0.229387565981905,-5.));
#1114=CARTESIAN_POINT('Ctrl Pts',(39.0968676435521,9.66761283731551E-16,
-5.));
#1115=CARTESIAN_POINT('Ctrl Pts',(40.,0.,-5.));
#1116=CARTESIAN_POINT('Ctrl Pts',(0.,-41.,-5.));
#1117=CARTESIAN_POINT('Ctrl Pts',(2.23591626020538,-41.,-5.));
#1118=CARTESIAN_POINT('Ctrl Pts',(6.34308953400406,-40.3800092937096,-5.));
#1119=CARTESIAN_POINT('Ctrl Pts',(11.665629673234,-37.9270981436281,-5.));
#1120=CARTESIAN_POINT('Ctrl Pts',(16.286435841625,-34.1867637277463,-5.));
#1121=CARTESIAN_POINT('Ctrl Pts',(21.1361929061687,-28.2017786846726,-5.));
#1122=CARTESIAN_POINT('Ctrl Pts',(25.0062952942272,-20.4532294354999,-5.));
#1123=CARTESIAN_POINT('Ctrl Pts',(28.7585740404843,-11.4939963336679,-5.));
#1124=CARTESIAN_POINT('Ctrl Pts',(31.8810365374404,-5.4808513432107,-5.));
#1125=CARTESIAN_POINT('Ctrl Pts',(34.3727395532802,-2.38130026303111,-5.));
#1126=CARTESIAN_POINT('Ctrl Pts',(36.0935403003492,-0.968167009755697,-5.));
#1127=CARTESIAN_POINT('Ctrl Pts',(37.7017297348023,-0.229387244040309,-5.));
#1128=CARTESIAN_POINT('Ctrl Pts',(39.0968676435522,-1.88056542468612E-15,
-5.));
#1129=CARTESIAN_POINT('Ctrl Pts',(40.,-3.33066907387547E-15,-5.));
#1130=CARTESIAN_POINT('Ctrl Pts',(0.,-41.,-5.));
#1131=CARTESIAN_POINT('Ctrl Pts',(2.23591626020538,-41.,-5.));
#1132=CARTESIAN_POINT('Ctrl Pts',(6.34308953400406,-40.3800092937096,-5.));
#1133=CARTESIAN_POINT('Ctrl Pts',(11.665629673234,-37.9270981436281,-5.));
#1134=CARTESIAN_POINT('Ctrl Pts',(16.286435841625,-34.1867637277463,-5.));
#1135=CARTESIAN_POINT('Ctrl Pts',(21.1361929061687,-28.2017786846726,-5.));
#1136=CARTESIAN_POINT('Ctrl Pts',(25.0062952942272,-20.4532294354999,-5.));
#1137=CARTESIAN_POINT('Ctrl Pts',(28.7585740404843,-11.4939963336679,-5.));
#1138=CARTESIAN_POINT('Ctrl Pts',(31.8810365374404,-5.4808513432107,-5.));
#1139=CARTESIAN_POINT('Ctrl Pts',(34.3727395532802,-2.38130026303111,-5.));
#1140=CARTESIAN_POINT('Ctrl Pts',(36.0935403003492,-0.968167009755697,-5.));
#1141=CARTESIAN_POINT('Ctrl Pts',(37.7017297348023,-0.229387244040309,-5.));
#1142=CARTESIAN_POINT('Ctrl Pts',(39.0968676435522,-1.88056542468612E-15,
-5.));
#1143=CARTESIAN_POINT('Ctrl Pts',(40.,-3.33066907387547E-15,-5.));
#1144=CARTESIAN_POINT('Ctrl Pts',(2.96059473233375E-15,-36.,-5.));
#1145=CARTESIAN_POINT('Ctrl Pts',(1.79165495895288,-36.,-5.));
#1146=CARTESIAN_POINT('Ctrl Pts',(5.07708512152727,-35.5144248666107,-5.));
#1147=CARTESIAN_POINT('Ctrl Pts',(9.27241232971491,-33.561219303464,-5.));
#1148=CARTESIAN_POINT('Ctrl Pts',(12.8559853433024,-30.5812050132332,-5.));
#1149=CARTESIAN_POINT('Ctrl Pts',(16.7939443568181,-25.6377163156877,-5.));
#1150=CARTESIAN_POINT('Ctrl Pts',(20.4189308363582,-18.4727480042531,-5.));
#1151=CARTESIAN_POINT('Ctrl Pts',(24.169358941879,-9.50966058546946,-5.));
#1152=CARTESIAN_POINT('Ctrl Pts',(27.5451321243849,-2.92316036027334,-5.));
#1153=CARTESIAN_POINT('Ctrl Pts',(30.697073121666,1.05851701630742,-5.));
#1154=CARTESIAN_POINT('Ctrl Pts',(33.3139776614795,3.26279758566939,-5.));
#1155=CARTESIAN_POINT('Ctrl Pts',(36.2711879680749,4.64462602069405,-5.));
#1156=CARTESIAN_POINT('Ctrl Pts',(38.6526063422996,5.,-5.));
#1157=CARTESIAN_POINT('Ctrl Pts',(40.,5.,-5.));
#1158=CARTESIAN_POINT('Ctrl Pts',(5.92118946466751E-15,-31.,-5.));
#1159=CARTESIAN_POINT('Ctrl Pts',(1.34739365770038,-31.,-5.));
#1160=CARTESIAN_POINT('Ctrl Pts',(3.81108070905048,-30.6488404395118,-5.));
#1161=CARTESIAN_POINT('Ctrl Pts',(6.87919498619584,-29.1953404632999,-5.));
#1162=CARTESIAN_POINT('Ctrl Pts',(9.4255348449799,-26.9756462987202,-5.));
#1163=CARTESIAN_POINT('Ctrl Pts',(12.4516958074675,-23.0736539467029,-5.));
#1164=CARTESIAN_POINT('Ctrl Pts',(15.8315663784893,-16.4922665730064,-5.));
#1165=CARTESIAN_POINT('Ctrl Pts',(19.5801438432736,-7.52532483727105,-5.));
#1166=CARTESIAN_POINT('Ctrl Pts',(23.2092277113295,-0.365469377335981,-5.));
#1167=CARTESIAN_POINT('Ctrl Pts',(27.0214066900517,4.49833429564595,-5.));
#1168=CARTESIAN_POINT('Ctrl Pts',(30.5344150226098,7.49376218109447,-5.));
#1169=CARTESIAN_POINT('Ctrl Pts',(34.8406462013474,9.51863928542841,-5.));
#1170=CARTESIAN_POINT('Ctrl Pts',(38.2083450410471,10.,-5.));
#1171=CARTESIAN_POINT('Ctrl Pts',(40.,10.,-5.));
#1172=CARTESIAN_POINT('Ctrl Pts',(8.88178419700126E-15,-26.,-5.));
#1173=CARTESIAN_POINT('Ctrl Pts',(0.903132356447871,-26.,-5.));
#1174=CARTESIAN_POINT('Ctrl Pts',(2.54507629657368,-25.7832560124129,-5.));
#1175=CARTESIAN_POINT('Ctrl Pts',(4.48597764267678,-24.8294616231357,-5.));
#1176=CARTESIAN_POINT('Ctrl Pts',(5.99508434665735,-23.3700875842071,-5.));
#1177=CARTESIAN_POINT('Ctrl Pts',(8.10944725811688,-20.5095915777181,-5.));
#1178=CARTESIAN_POINT('Ctrl Pts',(11.2442019206203,-14.5117851417596,-5.));
#1179=CARTESIAN_POINT('Ctrl Pts',(14.9909287446683,-5.54098908907266,-5.));
#1180=CARTESIAN_POINT('Ctrl Pts',(18.8733232982741,2.19222160560138,-5.));
#1181=CARTESIAN_POINT('Ctrl Pts',(23.3457402584375,7.93815157498447,-5.));
#1182=CARTESIAN_POINT('Ctrl Pts',(27.7548523837401,11.7247267765196,-5.));
#1183=CARTESIAN_POINT('Ctrl Pts',(33.41010443462,14.3926525501628,-5.));
#1184=CARTESIAN_POINT('Ctrl Pts',(37.7640837397946,15.,-5.));
#1185=CARTESIAN_POINT('Ctrl Pts',(40.,15.,-5.));
#1186=CARTESIAN_POINT('',(8.88178419700125E-15,-26.,-5.));
#1187=CARTESIAN_POINT('',(0.,-41.,-5.));
#1188=CARTESIAN_POINT('Ctrl Pts',(8.88178419700126E-15,-26.,-5.));
#1189=CARTESIAN_POINT('Ctrl Pts',(0.903132356447871,-26.,-5.));
#1190=CARTESIAN_POINT('Ctrl Pts',(2.5450771208788,-25.7832564796288,-5.));
#1191=CARTESIAN_POINT('Ctrl Pts',(4.4859785011077,-24.8294623825534,-5.));
#1192=CARTESIAN_POINT('Ctrl Pts',(5.99508582424357,-23.3700891637253,-5.));
#1193=CARTESIAN_POINT('Ctrl Pts',(8.10944789218084,-20.5095921442097,-5.));
#1194=CARTESIAN_POINT('Ctrl Pts',(11.2442013839077,-14.5117834321223,-5.));
#1195=CARTESIAN_POINT('Ctrl Pts',(14.9909288195623,-5.54098850553732,-5.));
#1196=CARTESIAN_POINT('Ctrl Pts',(18.873321363625,2.19222251651318,-5.));
#1197=CARTESIAN_POINT('Ctrl Pts',(23.3457392586644,7.93815186118255,-5.));
#1198=CARTESIAN_POINT('Ctrl Pts',(27.7548513651284,11.7247270922409,-5.));
#1199=CARTESIAN_POINT('Ctrl Pts',(33.4101037595916,14.3926525535704,-5.));
#1200=CARTESIAN_POINT('Ctrl Pts',(37.7640837397946,15.,-5.));
#1201=CARTESIAN_POINT('Ctrl Pts',(40.,15.,-5.));
#1202=CARTESIAN_POINT('',(40.,15.,-5.));
#1203=CARTESIAN_POINT('Ctrl Pts',(8.88178419700126E-15,-26.,-5.));
#1204=CARTESIAN_POINT('Ctrl Pts',(0.903132356447871,-26.,-5.));
#1205=CARTESIAN_POINT('Ctrl Pts',(2.5450771208788,-25.7832564796288,-5.));
#1206=CARTESIAN_POINT('Ctrl Pts',(4.4859785011077,-24.8294623825534,-5.));
#1207=CARTESIAN_POINT('Ctrl Pts',(5.99508582424357,-23.3700891637253,-5.));
#1208=CARTESIAN_POINT('Ctrl Pts',(8.10944789218084,-20.5095921442097,-5.));
#1209=CARTESIAN_POINT('Ctrl Pts',(11.2442013839077,-14.5117834321223,-5.));
#1210=CARTESIAN_POINT('Ctrl Pts',(14.9909288195623,-5.54098850553732,-5.));
#1211=CARTESIAN_POINT('Ctrl Pts',(18.873321363625,2.19222251651318,-5.));
#1212=CARTESIAN_POINT('Ctrl Pts',(23.3457392586644,7.93815186118255,-5.));
#1213=CARTESIAN_POINT('Ctrl Pts',(27.7548513651284,11.7247270922409,-5.));
#1214=CARTESIAN_POINT('Ctrl Pts',(33.4101037595916,14.3926525535704,-5.));
#1215=CARTESIAN_POINT('Ctrl Pts',(37.7640837397946,15.,-5.));
#1216=CARTESIAN_POINT('Ctrl Pts',(40.,15.,-5.));
#1217=CARTESIAN_POINT('Ctrl Pts',(8.88178419700126E-15,-26.,-1.66666666666667));
#1218=CARTESIAN_POINT('Ctrl Pts',(0.90313235644787,-26.,-1.66666666666667));
#1219=CARTESIAN_POINT('Ctrl Pts',(2.5450771208788,-25.7832564796288,-1.66666666666667));
#1220=CARTESIAN_POINT('Ctrl Pts',(4.4859785011077,-24.8294623825534,-1.66666666666667));
#1221=CARTESIAN_POINT('Ctrl Pts',(5.99508582424357,-23.3700891637253,-1.66666666666667));
#1222=CARTESIAN_POINT('Ctrl Pts',(8.10944789218084,-20.5095921442097,-1.66666666666667));
#1223=CARTESIAN_POINT('Ctrl Pts',(11.2442013839077,-14.5117834321223,-1.66666666666667));
#1224=CARTESIAN_POINT('Ctrl Pts',(14.9909288195623,-5.54098850553732,-1.66666666666667));
#1225=CARTESIAN_POINT('Ctrl Pts',(18.873321363625,2.19222251651318,-1.66666666666667));
#1226=CARTESIAN_POINT('Ctrl Pts',(23.3457392586644,7.93815186118255,-1.66666666666667));
#1227=CARTESIAN_POINT('Ctrl Pts',(27.7548513651284,11.7247270922409,-1.66666666666667));
#1228=CARTESIAN_POINT('Ctrl Pts',(33.4101037595916,14.3926525535704,-1.66666666666667));
#1229=CARTESIAN_POINT('Ctrl Pts',(37.7640837397946,15.,-1.66666666666667));
#1230=CARTESIAN_POINT('Ctrl Pts',(40.,15.,-1.66666666666667));
#1231=CARTESIAN_POINT('Ctrl Pts',(8.88178419700126E-15,-26.,1.66666666666667));
#1232=CARTESIAN_POINT('Ctrl Pts',(0.903132356447872,-26.,1.66666666666667));
#1233=CARTESIAN_POINT('Ctrl Pts',(2.5450771208788,-25.7832564796288,1.66666666666667));
#1234=CARTESIAN_POINT('Ctrl Pts',(4.4859785011077,-24.8294623825534,1.66666666666667));
#1235=CARTESIAN_POINT('Ctrl Pts',(5.99508582424357,-23.3700891637253,1.66666666666667));
#1236=CARTESIAN_POINT('Ctrl Pts',(8.10944789218084,-20.5095921442097,1.66666666666667));
#1237=CARTESIAN_POINT('Ctrl Pts',(11.2442013839077,-14.5117834321223,1.66666666666667));
#1238=CARTESIAN_POINT('Ctrl Pts',(14.9909288195623,-5.54098850553732,1.66666666666667));
#1239=CARTESIAN_POINT('Ctrl Pts',(18.8733213636249,2.19222251651318,1.66666666666667));
#1240=CARTESIAN_POINT('Ctrl Pts',(23.3457392586644,7.93815186118255,1.66666666666667));
#1241=CARTESIAN_POINT('Ctrl Pts',(27.7548513651284,11.7247270922409,1.66666666666667));
#1242=CARTESIAN_POINT('Ctrl Pts',(33.4101037595916,14.3926525535704,1.66666666666667));
#1243=CARTESIAN_POINT('Ctrl Pts',(37.7640837397946,15.,1.66666666666667));
#1244=CARTESIAN_POINT('Ctrl Pts',(40.,15.,1.66666666666667));
#1245=CARTESIAN_POINT('Ctrl Pts',(8.88178419700126E-15,-26.,5.));
#1246=CARTESIAN_POINT('Ctrl Pts',(0.903132356447871,-26.,5.));
#1247=CARTESIAN_POINT('Ctrl Pts',(2.5450771208788,-25.7832564796288,5.));
#1248=CARTESIAN_POINT('Ctrl Pts',(4.4859785011077,-24.8294623825534,5.));
#1249=CARTESIAN_POINT('Ctrl Pts',(5.99508582424357,-23.3700891637253,5.));
#1250=CARTESIAN_POINT('Ctrl Pts',(8.10944789218084,-20.5095921442097,5.));
#1251=CARTESIAN_POINT('Ctrl Pts',(11.2442013839077,-14.5117834321223,5.));
#1252=CARTESIAN_POINT('Ctrl Pts',(14.9909288195623,-5.54098850553732,5.));
#1253=CARTESIAN_POINT('Ctrl Pts',(18.873321363625,2.19222251651318,5.));
#1254=CARTESIAN_POINT('Ctrl Pts',(23.3457392586644,7.93815186118255,5.));
#1255=CARTESIAN_POINT('Ctrl Pts',(27.7548513651284,11.7247270922409,5.));
#1256=CARTESIAN_POINT('Ctrl Pts',(33.4101037595916,14.3926525535704,5.));
#1257=CARTESIAN_POINT('Ctrl Pts',(37.7640837397946,15.,5.));
#1258=CARTESIAN_POINT('Ctrl Pts',(40.,15.,5.));
#1259=CARTESIAN_POINT('',(8.88178419700126E-15,-26.,0.));
#1260=CARTESIAN_POINT('Origin',(-11.,-33.5,-5.));
#1261=CARTESIAN_POINT('',(8.88178419700126E-15,-26.,-5.));
#1262=CARTESIAN_POINT('Origin',(8.88178419700126E-15,-26.,0.));
#1263=CARTESIAN_POINT('Origin',(82.5,7.50000000000001,-5.));
#1264=UNCERTAINTY_MEASURE_WITH_UNIT(LENGTH_MEASURE(0.01),#1268,
'DISTANCE_ACCURACY_VALUE',
'Maximum model space distance between geometric entities at asserted c
onnectivities');
#1265=UNCERTAINTY_MEASURE_WITH_UNIT(LENGTH_MEASURE(0.01),#1268,
'DISTANCE_ACCURACY_VALUE',
'Maximum model space distance between geometric entities at asserted c
onnectivities');
#1266=(
GEOMETRIC_REPRESENTATION_CONTEXT(3)
GLOBAL_UNCERTAINTY_ASSIGNED_CONTEXT((#1264))
GLOBAL_UNIT_ASSIGNED_CONTEXT((#1268,#1270,#1271))
REPRESENTATION_CONTEXT('','3D')
);
#1267=(
GEOMETRIC_REPRESENTATION_CONTEXT(3)
GLOBAL_UNCERTAINTY_ASSIGNED_CONTEXT((#1265))
GLOBAL_UNIT_ASSIGNED_CONTEXT((#1268,#1270,#1271))
REPRESENTATION_CONTEXT('','3D')
);
#1268=(
LENGTH_UNIT()
NAMED_UNIT(*)
SI_UNIT(.MILLI.,.METRE.)
);
#1269=(
LENGTH_UNIT()
NAMED_UNIT(*)
SI_UNIT(.CENTI.,.METRE.)
);
#1270=(
NAMED_UNIT(*)
PLANE_ANGLE_UNIT()
SI_UNIT($,.RADIAN.)
);
#1271=(
NAMED_UNIT(*)
SI_UNIT($,.STERADIAN.)
SOLID_ANGLE_UNIT()
);
#1272=SHAPE_DEFINITION_REPRESENTATION(#1273,#1274);
#1273=PRODUCT_DEFINITION_SHAPE('',$,#1276);
#1274=SHAPE_REPRESENTATION('',(#607),#1266);
#1275=PRODUCT_DEFINITION_CONTEXT('part definition',#1280,'design');
#1276=PRODUCT_DEFINITION('Friction-Mount-Arm-R','Friction-Mount-Arm-R',
#1277,#1275);
#1277=PRODUCT_DEFINITION_FORMATION('0',$,#1282);
#1278=PRODUCT_RELATED_PRODUCT_CATEGORY('Friction-Mount-Arm-R',
'Friction-Mount-Arm-R',(#1282));
#1279=APPLICATION_PROTOCOL_DEFINITION('international standard',
'automotive_design',2009,#1280);
#1280=APPLICATION_CONTEXT(
'Core Data for Automotive Mechanical Design Process');
#1281=PRODUCT_CONTEXT('part definition',#1280,'mechanical');
#1282=PRODUCT('Friction-Mount-Arm-R','Friction-Mount-Arm-R',$,(#1281));
#1283=PRESENTATION_STYLE_ASSIGNMENT((#1284));
#1284=SURFACE_STYLE_USAGE(.BOTH.,#1287);
#1285=SURFACE_STYLE_RENDERING_WITH_PROPERTIES($,#1291,(#1286));
#1286=SURFACE_STYLE_TRANSPARENT(0.);
#1287=SURFACE_SIDE_STYLE('',(#1288,#1285));
#1288=SURFACE_STYLE_FILL_AREA(#1289);
#1289=FILL_AREA_STYLE('',(#1290));
#1290=FILL_AREA_STYLE_COLOUR('',#1291);
#1291=COLOUR_RGB('',0.968627450980392,0.968627450980392,0.898039215686275);
ENDSEC;
END-ISO-10303-21;
