ISO-10303-21;
HEADER;
/* Generated by software containing ST-Developer
 * from STEP Tools, Inc. (www.steptools.com) 
 */

FILE_DESCRIPTION(
/* description */ (''),
/* implementation_level */ '2;1');

FILE_NAME(
/* name */ 'Friction-Mount-Stand.stp',
/* time_stamp */ '2026-07-01T17:07:47-04:00',
/* author */ ('labadmin'),
/* organization */ (''),
/* preprocessor_version */ 'ST-DEVELOPER v20',
/* originating_system */ 'Autodesk Inventor 2025',
/* authorisation */ '');

FILE_SCHEMA (('AUTOMOTIVE_DESIGN { 1 0 10303 214 3 1 1 }'));
ENDSEC;

DATA;
#10=MECHANICAL_DESIGN_GEOMETRIC_PRESENTATION_REPRESENTATION('',(#13),#1152);
#11=SHAPE_REPRESENTATION_RELATIONSHIP('SRR','None',#1159,#12);
#12=ADVANCED_BREP_SHAPE_REPRESENTATION('',(#14),#1151);
#13=STYLED_ITEM('',(#1169),#14);
#14=MANIFOLD_SOLID_BREP('Solid1',#654);
#15=CYLINDRICAL_SURFACE('',#692,6.);
#16=CYLINDRICAL_SURFACE('',#710,2.);
#17=CYLINDRICAL_SURFACE('',#721,2.);
#18=CYLINDRICAL_SURFACE('',#723,2.);
#19=CYLINDRICAL_SURFACE('',#724,2.);
#20=CYLINDRICAL_SURFACE('',#725,1.8);
#21=CYLINDRICAL_SURFACE('',#728,1.8);
#22=CYLINDRICAL_SURFACE('',#731,1.8);
#23=CYLINDRICAL_SURFACE('',#734,1.8);
#24=CYLINDRICAL_SURFACE('',#749,1.8);
#25=CYLINDRICAL_SURFACE('',#750,1.8);
#26=CYLINDRICAL_SURFACE('',#751,1.8);
#27=CYLINDRICAL_SURFACE('',#752,1.8);
#28=FACE_BOUND('',#190,.T.);
#29=FACE_BOUND('',#191,.T.);
#30=FACE_BOUND('',#192,.T.);
#31=FACE_BOUND('',#193,.T.);
#32=FACE_BOUND('',#198,.T.);
#33=FACE_BOUND('',#199,.T.);
#34=FACE_BOUND('',#200,.T.);
#35=FACE_BOUND('',#201,.T.);
#36=FACE_BOUND('',#211,.T.);
#37=FACE_BOUND('',#214,.T.);
#38=FACE_BOUND('',#216,.T.);
#39=FACE_BOUND('',#219,.T.);
#40=FACE_BOUND('',#221,.T.);
#41=FACE_BOUND('',#225,.T.);
#42=FACE_BOUND('',#228,.T.);
#43=FACE_BOUND('',#234,.T.);
#44=LINE('',#977,#90);
#45=LINE('',#979,#91);
#46=LINE('',#983,#92);
#47=LINE('',#987,#93);
#48=LINE('',#990,#94);
#49=LINE('',#1003,#95);
#50=LINE('',#1007,#96);
#51=LINE('',#1011,#97);
#52=LINE('',#1015,#98);
#53=LINE('',#1019,#99);
#54=LINE('',#1023,#100);
#55=LINE('',#1027,#101);
#56=LINE('',#1031,#102);
#57=LINE('',#1034,#103);
#58=LINE('',#1038,#104);
#59=LINE('',#1043,#105);
#60=LINE('',#1048,#106);
#61=LINE('',#1053,#107);
#62=LINE('',#1057,#108);
#63=LINE('',#1060,#109);
#64=LINE('',#1063,#110);
#65=LINE('',#1064,#111);
#66=LINE('',#1067,#112);
#67=LINE('',#1071,#113);
#68=LINE('',#1075,#114);
#69=LINE('',#1086,#115);
#70=LINE('',#1087,#116);
#71=LINE('',#1089,#117);
#72=LINE('',#1091,#118);
#73=LINE('',#1093,#119);
#74=LINE('',#1098,#120);
#75=LINE('',#1104,#121);
#76=LINE('',#1110,#122);
#77=LINE('',#1116,#123);
#78=LINE('',#1119,#124);
#79=LINE('',#1121,#125);
#80=LINE('',#1124,#126);
#81=LINE('',#1126,#127);
#82=LINE('',#1129,#128);
#83=LINE('',#1131,#129);
#84=LINE('',#1134,#130);
#85=LINE('',#1136,#131);
#86=LINE('',#1139,#132);
#87=LINE('',#1141,#133);
#88=LINE('',#1143,#134);
#89=LINE('',#1145,#135);
#90=VECTOR('',#774,10.);
#91=VECTOR('',#775,10.);
#92=VECTOR('',#778,10.);
#93=VECTOR('',#781,10.);
#94=VECTOR('',#784,10.);
#95=VECTOR('',#797,6.);
#96=VECTOR('',#800,10.);
#97=VECTOR('',#803,6.);
#98=VECTOR('',#806,10.);
#99=VECTOR('',#809,6.);
#100=VECTOR('',#812,10.);
#101=VECTOR('',#815,6.);
#102=VECTOR('',#818,10.);
#103=VECTOR('',#821,6.);
#104=VECTOR('',#824,10.);
#105=VECTOR('',#829,10.);
#106=VECTOR('',#834,10.);
#107=VECTOR('',#839,10.);
#108=VECTOR('',#844,10.);
#109=VECTOR('',#847,10.);
#110=VECTOR('',#850,10.);
#111=VECTOR('',#851,10.);
#112=VECTOR('',#854,10.);
#113=VECTOR('',#857,10.);
#114=VECTOR('',#860,10.);
#115=VECTOR('',#873,10.);
#116=VECTOR('',#874,10.);
#117=VECTOR('',#877,10.);
#118=VECTOR('',#880,10.);
#119=VECTOR('',#883,10.);
#120=VECTOR('',#888,1.8);
#121=VECTOR('',#895,1.8);
#122=VECTOR('',#902,1.8);
#123=VECTOR('',#909,1.8);
#124=VECTOR('',#914,10.);
#125=VECTOR('',#917,10.);
#126=VECTOR('',#922,10.);
#127=VECTOR('',#925,10.);
#128=VECTOR('',#930,10.);
#129=VECTOR('',#933,10.);
#130=VECTOR('',#938,10.);
#131=VECTOR('',#941,10.);
#132=VECTOR('',#946,1.8);
#133=VECTOR('',#949,1.8);
#134=VECTOR('',#952,1.8);
#135=VECTOR('',#955,1.8);
#136=PLANE('',#683);
#137=PLANE('',#712);
#138=PLANE('',#713);
#139=PLANE('',#722);
#140=PLANE('',#737);
#141=PLANE('',#738);
#142=PLANE('',#739);
#143=PLANE('',#740);
#144=PLANE('',#741);
#145=PLANE('',#742);
#146=PLANE('',#743);
#147=PLANE('',#744);
#148=PLANE('',#745);
#149=PLANE('',#746);
#150=PLANE('',#747);
#151=PLANE('',#748);
#152=PLANE('',#753);
#153=PLANE('',#754);
#154=PLANE('',#755);
#155=FACE_OUTER_BOUND('',#188,.T.);
#156=FACE_OUTER_BOUND('',#189,.T.);
#157=FACE_OUTER_BOUND('',#194,.T.);
#158=FACE_OUTER_BOUND('',#195,.T.);
#159=FACE_OUTER_BOUND('',#196,.T.);
#160=FACE_OUTER_BOUND('',#197,.T.);
#161=FACE_OUTER_BOUND('',#202,.T.);
#162=FACE_OUTER_BOUND('',#203,.T.);
#163=FACE_OUTER_BOUND('',#204,.T.);
#164=FACE_OUTER_BOUND('',#205,.T.);
#165=FACE_OUTER_BOUND('',#206,.T.);
#166=FACE_OUTER_BOUND('',#207,.T.);
#167=FACE_OUTER_BOUND('',#208,.T.);
#168=FACE_OUTER_BOUND('',#209,.T.);
#169=FACE_OUTER_BOUND('',#210,.T.);
#170=FACE_OUTER_BOUND('',#212,.T.);
#171=FACE_OUTER_BOUND('',#213,.T.);
#172=FACE_OUTER_BOUND('',#215,.T.);
#173=FACE_OUTER_BOUND('',#217,.T.);
#174=FACE_OUTER_BOUND('',#218,.T.);
#175=FACE_OUTER_BOUND('',#220,.T.);
#176=FACE_OUTER_BOUND('',#222,.T.);
#177=FACE_OUTER_BOUND('',#223,.T.);
#178=FACE_OUTER_BOUND('',#224,.T.);
#179=FACE_OUTER_BOUND('',#226,.T.);
#180=FACE_OUTER_BOUND('',#227,.T.);
#181=FACE_OUTER_BOUND('',#229,.T.);
#182=FACE_OUTER_BOUND('',#230,.T.);
#183=FACE_OUTER_BOUND('',#231,.T.);
#184=FACE_OUTER_BOUND('',#232,.T.);
#185=FACE_OUTER_BOUND('',#233,.T.);
#186=FACE_OUTER_BOUND('',#235,.T.);
#187=FACE_OUTER_BOUND('',#236,.T.);
#188=EDGE_LOOP('',(#436,#437,#438,#439,#440,#441));
#189=EDGE_LOOP('',(#442,#443,#444,#445,#446,#447,#448,#449,#450,#451,#452));
#190=EDGE_LOOP('',(#453));
#191=EDGE_LOOP('',(#454));
#192=EDGE_LOOP('',(#455));
#193=EDGE_LOOP('',(#456));
#194=EDGE_LOOP('',(#457,#458,#459,#460,#461,#462,#463,#464,#465,#466,#467,
#468,#469,#470,#471,#472,#473,#474,#475,#476,#477,#478,#479,#480,#481,#482,
#483,#484,#485,#486,#487,#488,#489,#490,#491,#492,#493));
#195=EDGE_LOOP('',(#494,#495,#496,#497));
#196=EDGE_LOOP('',(#498,#499,#500,#501,#502));
#197=EDGE_LOOP('',(#503,#504,#505,#506,#507,#508,#509,#510));
#198=EDGE_LOOP('',(#511));
#199=EDGE_LOOP('',(#512));
#200=EDGE_LOOP('',(#513));
#201=EDGE_LOOP('',(#514));
#202=EDGE_LOOP('',(#515,#516,#517,#518));
#203=EDGE_LOOP('',(#519,#520,#521,#522));
#204=EDGE_LOOP('',(#523,#524,#525,#526));
#205=EDGE_LOOP('',(#527,#528,#529,#530));
#206=EDGE_LOOP('',(#531,#532,#533,#534));
#207=EDGE_LOOP('',(#535,#536,#537,#538));
#208=EDGE_LOOP('',(#539,#540,#541,#542));
#209=EDGE_LOOP('',(#543,#544,#545,#546));
#210=EDGE_LOOP('',(#547,#548,#549));
#211=EDGE_LOOP('',(#550));
#212=EDGE_LOOP('',(#551,#552,#553,#554));
#213=EDGE_LOOP('',(#555,#556,#557));
#214=EDGE_LOOP('',(#558));
#215=EDGE_LOOP('',(#559,#560,#561));
#216=EDGE_LOOP('',(#562));
#217=EDGE_LOOP('',(#563,#564,#565,#566));
#218=EDGE_LOOP('',(#567,#568,#569));
#219=EDGE_LOOP('',(#570));
#220=EDGE_LOOP('',(#571,#572,#573));
#221=EDGE_LOOP('',(#574));
#222=EDGE_LOOP('',(#575,#576,#577,#578));
#223=EDGE_LOOP('',(#579,#580,#581));
#224=EDGE_LOOP('',(#582,#583,#584));
#225=EDGE_LOOP('',(#585));
#226=EDGE_LOOP('',(#586,#587,#588,#589));
#227=EDGE_LOOP('',(#590,#591,#592));
#228=EDGE_LOOP('',(#593));
#229=EDGE_LOOP('',(#594,#595,#596,#597));
#230=EDGE_LOOP('',(#598,#599,#600,#601));
#231=EDGE_LOOP('',(#602,#603,#604,#605));
#232=EDGE_LOOP('',(#606,#607,#608,#609));
#233=EDGE_LOOP('',(#610));
#234=EDGE_LOOP('',(#611));
#235=EDGE_LOOP('',(#612,#613,#614,#615));
#236=EDGE_LOOP('',(#616,#617,#618,#619));
#237=CIRCLE('',#678,6.);
#238=CIRCLE('',#679,4.);
#239=CIRCLE('',#680,10.);
#240=CIRCLE('',#681,10.);
#241=CIRCLE('',#682,6.);
#242=CIRCLE('',#684,2.);
#243=CIRCLE('',#685,2.);
#244=CIRCLE('',#686,2.);
#245=CIRCLE('',#687,2.);
#246=CIRCLE('',#688,1.8);
#247=CIRCLE('',#689,1.8);
#248=CIRCLE('',#690,1.8);
#249=CIRCLE('',#691,1.8);
#250=CIRCLE('',#693,6.);
#251=CIRCLE('',#694,6.);
#252=CIRCLE('',#695,6.);
#253=CIRCLE('',#696,6.);
#254=CIRCLE('',#697,6.);
#255=CIRCLE('',#698,6.);
#256=CIRCLE('',#699,6.);
#257=CIRCLE('',#700,6.);
#258=CIRCLE('',#701,6.);
#259=CIRCLE('',#702,6.);
#260=CIRCLE('',#703,6.);
#261=CIRCLE('',#704,6.);
#262=CIRCLE('',#705,6.);
#263=CIRCLE('',#706,6.);
#264=CIRCLE('',#707,6.);
#265=CIRCLE('',#708,6.);
#266=CIRCLE('',#709,6.);
#267=CIRCLE('',#711,2.);
#268=CIRCLE('',#714,2.);
#269=CIRCLE('',#715,2.);
#270=CIRCLE('',#716,2.);
#271=CIRCLE('',#717,1.8);
#272=CIRCLE('',#718,1.8);
#273=CIRCLE('',#719,1.8);
#274=CIRCLE('',#720,1.8);
#275=CIRCLE('',#726,1.8);
#276=CIRCLE('',#727,1.8);
#277=CIRCLE('',#729,1.8);
#278=CIRCLE('',#730,1.8);
#279=CIRCLE('',#732,1.8);
#280=CIRCLE('',#733,1.8);
#281=CIRCLE('',#735,1.8);
#282=CIRCLE('',#736,1.8);
#283=VERTEX_POINT('',#964);
#284=VERTEX_POINT('',#965);
#285=VERTEX_POINT('',#967);
#286=VERTEX_POINT('',#969);
#287=VERTEX_POINT('',#974);
#288=VERTEX_POINT('',#975);
#289=VERTEX_POINT('',#978);
#290=VERTEX_POINT('',#980);
#291=VERTEX_POINT('',#982);
#292=VERTEX_POINT('',#984);
#293=VERTEX_POINT('',#986);
#294=VERTEX_POINT('',#988);
#295=VERTEX_POINT('',#991);
#296=VERTEX_POINT('',#993);
#297=VERTEX_POINT('',#995);
#298=VERTEX_POINT('',#997);
#299=VERTEX_POINT('',#1000);
#300=VERTEX_POINT('',#1002);
#301=VERTEX_POINT('',#1004);
#302=VERTEX_POINT('',#1006);
#303=VERTEX_POINT('',#1008);
#304=VERTEX_POINT('',#1010);
#305=VERTEX_POINT('',#1012);
#306=VERTEX_POINT('',#1014);
#307=VERTEX_POINT('',#1016);
#308=VERTEX_POINT('',#1018);
#309=VERTEX_POINT('',#1020);
#310=VERTEX_POINT('',#1022);
#311=VERTEX_POINT('',#1024);
#312=VERTEX_POINT('',#1026);
#313=VERTEX_POINT('',#1028);
#314=VERTEX_POINT('',#1030);
#315=VERTEX_POINT('',#1032);
#316=VERTEX_POINT('',#1035);
#317=VERTEX_POINT('',#1037);
#318=VERTEX_POINT('',#1040);
#319=VERTEX_POINT('',#1042);
#320=VERTEX_POINT('',#1045);
#321=VERTEX_POINT('',#1047);
#322=VERTEX_POINT('',#1050);
#323=VERTEX_POINT('',#1052);
#324=VERTEX_POINT('',#1056);
#325=VERTEX_POINT('',#1058);
#326=VERTEX_POINT('',#1062);
#327=VERTEX_POINT('',#1066);
#328=VERTEX_POINT('',#1068);
#329=VERTEX_POINT('',#1070);
#330=VERTEX_POINT('',#1072);
#331=VERTEX_POINT('',#1074);
#332=VERTEX_POINT('',#1077);
#333=VERTEX_POINT('',#1079);
#334=VERTEX_POINT('',#1081);
#335=VERTEX_POINT('',#1083);
#336=VERTEX_POINT('',#1095);
#337=VERTEX_POINT('',#1097);
#338=VERTEX_POINT('',#1101);
#339=VERTEX_POINT('',#1103);
#340=VERTEX_POINT('',#1107);
#341=VERTEX_POINT('',#1109);
#342=VERTEX_POINT('',#1113);
#343=VERTEX_POINT('',#1115);
#344=EDGE_CURVE('',#283,#284,#237,.T.);
#345=EDGE_CURVE('',#284,#285,#238,.T.);
#346=EDGE_CURVE('',#285,#286,#239,.T.);
#347=EDGE_CURVE('',#286,#285,#240,.T.);
#348=EDGE_CURVE('',#284,#283,#241,.T.);
#349=EDGE_CURVE('',#287,#288,#242,.T.);
#350=EDGE_CURVE('',#287,#286,#44,.T.);
#351=EDGE_CURVE('',#286,#289,#45,.T.);
#352=EDGE_CURVE('',#290,#289,#243,.T.);
#353=EDGE_CURVE('',#290,#291,#46,.T.);
#354=EDGE_CURVE('',#292,#291,#244,.T.);
#355=EDGE_CURVE('',#292,#293,#47,.T.);
#356=EDGE_CURVE('',#294,#293,#245,.T.);
#357=EDGE_CURVE('',#294,#288,#48,.T.);
#358=EDGE_CURVE('',#295,#295,#246,.T.);
#359=EDGE_CURVE('',#296,#296,#247,.T.);
#360=EDGE_CURVE('',#297,#297,#248,.T.);
#361=EDGE_CURVE('',#298,#298,#249,.T.);
#362=EDGE_CURVE('',#299,#299,#250,.T.);
#363=EDGE_CURVE('',#299,#300,#49,.T.);
#364=EDGE_CURVE('',#300,#301,#251,.T.);
#365=EDGE_CURVE('',#301,#302,#50,.T.);
#366=EDGE_CURVE('',#302,#303,#252,.T.);
#367=EDGE_CURVE('',#303,#304,#51,.T.);
#368=EDGE_CURVE('',#304,#305,#253,.T.);
#369=EDGE_CURVE('',#305,#306,#52,.T.);
#370=EDGE_CURVE('',#306,#307,#254,.T.);
#371=EDGE_CURVE('',#307,#308,#53,.T.);
#372=EDGE_CURVE('',#308,#309,#255,.T.);
#373=EDGE_CURVE('',#309,#310,#54,.T.);
#374=EDGE_CURVE('',#310,#311,#256,.T.);
#375=EDGE_CURVE('',#311,#312,#55,.T.);
#376=EDGE_CURVE('',#312,#313,#257,.T.);
#377=EDGE_CURVE('',#313,#314,#56,.T.);
#378=EDGE_CURVE('',#314,#315,#258,.T.);
#379=EDGE_CURVE('',#315,#283,#57,.T.);
#380=EDGE_CURVE('',#315,#316,#259,.T.);
#381=EDGE_CURVE('',#316,#317,#58,.T.);
#382=EDGE_CURVE('',#317,#312,#260,.T.);
#383=EDGE_CURVE('',#311,#318,#261,.T.);
#384=EDGE_CURVE('',#318,#319,#59,.T.);
#385=EDGE_CURVE('',#319,#308,#262,.T.);
#386=EDGE_CURVE('',#307,#320,#263,.T.);
#387=EDGE_CURVE('',#320,#321,#60,.T.);
#388=EDGE_CURVE('',#321,#304,#264,.T.);
#389=EDGE_CURVE('',#303,#322,#265,.T.);
#390=EDGE_CURVE('',#322,#323,#61,.T.);
#391=EDGE_CURVE('',#323,#300,#266,.T.);
#392=EDGE_CURVE('',#288,#324,#62,.T.);
#393=EDGE_CURVE('',#324,#325,#267,.T.);
#394=EDGE_CURVE('',#325,#287,#63,.T.);
#395=EDGE_CURVE('',#325,#326,#64,.T.);
#396=EDGE_CURVE('',#289,#326,#65,.T.);
#397=EDGE_CURVE('',#327,#324,#66,.T.);
#398=EDGE_CURVE('',#328,#327,#268,.T.);
#399=EDGE_CURVE('',#329,#328,#67,.T.);
#400=EDGE_CURVE('',#330,#329,#269,.T.);
#401=EDGE_CURVE('',#331,#330,#68,.T.);
#402=EDGE_CURVE('',#326,#331,#270,.T.);
#403=EDGE_CURVE('',#332,#332,#271,.T.);
#404=EDGE_CURVE('',#333,#333,#272,.T.);
#405=EDGE_CURVE('',#334,#334,#273,.T.);
#406=EDGE_CURVE('',#335,#335,#274,.T.);
#407=EDGE_CURVE('',#293,#328,#69,.T.);
#408=EDGE_CURVE('',#327,#294,#70,.T.);
#409=EDGE_CURVE('',#329,#292,#71,.T.);
#410=EDGE_CURVE('',#291,#330,#72,.T.);
#411=EDGE_CURVE('',#331,#290,#73,.T.);
#412=EDGE_CURVE('',#336,#336,#275,.T.);
#413=EDGE_CURVE('',#336,#337,#74,.T.);
#414=EDGE_CURVE('',#337,#337,#276,.T.);
#415=EDGE_CURVE('',#338,#338,#277,.T.);
#416=EDGE_CURVE('',#338,#339,#75,.T.);
#417=EDGE_CURVE('',#339,#339,#278,.T.);
#418=EDGE_CURVE('',#340,#340,#279,.T.);
#419=EDGE_CURVE('',#340,#341,#76,.T.);
#420=EDGE_CURVE('',#341,#341,#280,.T.);
#421=EDGE_CURVE('',#342,#342,#281,.T.);
#422=EDGE_CURVE('',#342,#343,#77,.T.);
#423=EDGE_CURVE('',#343,#343,#282,.T.);
#424=EDGE_CURVE('',#309,#319,#78,.T.);
#425=EDGE_CURVE('',#318,#310,#79,.T.);
#426=EDGE_CURVE('',#305,#321,#80,.T.);
#427=EDGE_CURVE('',#320,#306,#81,.T.);
#428=EDGE_CURVE('',#313,#317,#82,.T.);
#429=EDGE_CURVE('',#316,#314,#83,.T.);
#430=EDGE_CURVE('',#301,#323,#84,.T.);
#431=EDGE_CURVE('',#322,#302,#85,.T.);
#432=EDGE_CURVE('',#298,#332,#86,.T.);
#433=EDGE_CURVE('',#297,#333,#87,.T.);
#434=EDGE_CURVE('',#296,#334,#88,.T.);
#435=EDGE_CURVE('',#295,#335,#89,.T.);
#436=ORIENTED_EDGE('',*,*,#344,.T.);
#437=ORIENTED_EDGE('',*,*,#345,.T.);
#438=ORIENTED_EDGE('',*,*,#346,.T.);
#439=ORIENTED_EDGE('',*,*,#347,.T.);
#440=ORIENTED_EDGE('',*,*,#345,.F.);
#441=ORIENTED_EDGE('',*,*,#348,.T.);
#442=ORIENTED_EDGE('',*,*,#349,.F.);
#443=ORIENTED_EDGE('',*,*,#350,.T.);
#444=ORIENTED_EDGE('',*,*,#346,.F.);
#445=ORIENTED_EDGE('',*,*,#347,.F.);
#446=ORIENTED_EDGE('',*,*,#351,.T.);
#447=ORIENTED_EDGE('',*,*,#352,.F.);
#448=ORIENTED_EDGE('',*,*,#353,.T.);
#449=ORIENTED_EDGE('',*,*,#354,.F.);
#450=ORIENTED_EDGE('',*,*,#355,.T.);
#451=ORIENTED_EDGE('',*,*,#356,.F.);
#452=ORIENTED_EDGE('',*,*,#357,.T.);
#453=ORIENTED_EDGE('',*,*,#358,.T.);
#454=ORIENTED_EDGE('',*,*,#359,.T.);
#455=ORIENTED_EDGE('',*,*,#360,.T.);
#456=ORIENTED_EDGE('',*,*,#361,.T.);
#457=ORIENTED_EDGE('',*,*,#362,.F.);
#458=ORIENTED_EDGE('',*,*,#363,.T.);
#459=ORIENTED_EDGE('',*,*,#364,.T.);
#460=ORIENTED_EDGE('',*,*,#365,.T.);
#461=ORIENTED_EDGE('',*,*,#366,.T.);
#462=ORIENTED_EDGE('',*,*,#367,.T.);
#463=ORIENTED_EDGE('',*,*,#368,.T.);
#464=ORIENTED_EDGE('',*,*,#369,.T.);
#465=ORIENTED_EDGE('',*,*,#370,.T.);
#466=ORIENTED_EDGE('',*,*,#371,.T.);
#467=ORIENTED_EDGE('',*,*,#372,.T.);
#468=ORIENTED_EDGE('',*,*,#373,.T.);
#469=ORIENTED_EDGE('',*,*,#374,.T.);
#470=ORIENTED_EDGE('',*,*,#375,.T.);
#471=ORIENTED_EDGE('',*,*,#376,.T.);
#472=ORIENTED_EDGE('',*,*,#377,.T.);
#473=ORIENTED_EDGE('',*,*,#378,.T.);
#474=ORIENTED_EDGE('',*,*,#379,.T.);
#475=ORIENTED_EDGE('',*,*,#348,.F.);
#476=ORIENTED_EDGE('',*,*,#344,.F.);
#477=ORIENTED_EDGE('',*,*,#379,.F.);
#478=ORIENTED_EDGE('',*,*,#380,.T.);
#479=ORIENTED_EDGE('',*,*,#381,.T.);
#480=ORIENTED_EDGE('',*,*,#382,.T.);
#481=ORIENTED_EDGE('',*,*,#375,.F.);
#482=ORIENTED_EDGE('',*,*,#383,.T.);
#483=ORIENTED_EDGE('',*,*,#384,.T.);
#484=ORIENTED_EDGE('',*,*,#385,.T.);
#485=ORIENTED_EDGE('',*,*,#371,.F.);
#486=ORIENTED_EDGE('',*,*,#386,.T.);
#487=ORIENTED_EDGE('',*,*,#387,.T.);
#488=ORIENTED_EDGE('',*,*,#388,.T.);
#489=ORIENTED_EDGE('',*,*,#367,.F.);
#490=ORIENTED_EDGE('',*,*,#389,.T.);
#491=ORIENTED_EDGE('',*,*,#390,.T.);
#492=ORIENTED_EDGE('',*,*,#391,.T.);
#493=ORIENTED_EDGE('',*,*,#363,.F.);
#494=ORIENTED_EDGE('',*,*,#349,.T.);
#495=ORIENTED_EDGE('',*,*,#392,.T.);
#496=ORIENTED_EDGE('',*,*,#393,.T.);
#497=ORIENTED_EDGE('',*,*,#394,.T.);
#498=ORIENTED_EDGE('',*,*,#394,.F.);
#499=ORIENTED_EDGE('',*,*,#395,.T.);
#500=ORIENTED_EDGE('',*,*,#396,.F.);
#501=ORIENTED_EDGE('',*,*,#351,.F.);
#502=ORIENTED_EDGE('',*,*,#350,.F.);
#503=ORIENTED_EDGE('',*,*,#393,.F.);
#504=ORIENTED_EDGE('',*,*,#397,.F.);
#505=ORIENTED_EDGE('',*,*,#398,.F.);
#506=ORIENTED_EDGE('',*,*,#399,.F.);
#507=ORIENTED_EDGE('',*,*,#400,.F.);
#508=ORIENTED_EDGE('',*,*,#401,.F.);
#509=ORIENTED_EDGE('',*,*,#402,.F.);
#510=ORIENTED_EDGE('',*,*,#395,.F.);
#511=ORIENTED_EDGE('',*,*,#403,.T.);
#512=ORIENTED_EDGE('',*,*,#404,.T.);
#513=ORIENTED_EDGE('',*,*,#405,.T.);
#514=ORIENTED_EDGE('',*,*,#406,.T.);
#515=ORIENTED_EDGE('',*,*,#356,.T.);
#516=ORIENTED_EDGE('',*,*,#407,.T.);
#517=ORIENTED_EDGE('',*,*,#398,.T.);
#518=ORIENTED_EDGE('',*,*,#408,.T.);
#519=ORIENTED_EDGE('',*,*,#407,.F.);
#520=ORIENTED_EDGE('',*,*,#355,.F.);
#521=ORIENTED_EDGE('',*,*,#409,.F.);
#522=ORIENTED_EDGE('',*,*,#399,.T.);
#523=ORIENTED_EDGE('',*,*,#354,.T.);
#524=ORIENTED_EDGE('',*,*,#410,.T.);
#525=ORIENTED_EDGE('',*,*,#400,.T.);
#526=ORIENTED_EDGE('',*,*,#409,.T.);
#527=ORIENTED_EDGE('',*,*,#352,.T.);
#528=ORIENTED_EDGE('',*,*,#396,.T.);
#529=ORIENTED_EDGE('',*,*,#402,.T.);
#530=ORIENTED_EDGE('',*,*,#411,.T.);
#531=ORIENTED_EDGE('',*,*,#412,.F.);
#532=ORIENTED_EDGE('',*,*,#413,.T.);
#533=ORIENTED_EDGE('',*,*,#414,.F.);
#534=ORIENTED_EDGE('',*,*,#413,.F.);
#535=ORIENTED_EDGE('',*,*,#415,.F.);
#536=ORIENTED_EDGE('',*,*,#416,.T.);
#537=ORIENTED_EDGE('',*,*,#417,.F.);
#538=ORIENTED_EDGE('',*,*,#416,.F.);
#539=ORIENTED_EDGE('',*,*,#418,.F.);
#540=ORIENTED_EDGE('',*,*,#419,.T.);
#541=ORIENTED_EDGE('',*,*,#420,.F.);
#542=ORIENTED_EDGE('',*,*,#419,.F.);
#543=ORIENTED_EDGE('',*,*,#421,.F.);
#544=ORIENTED_EDGE('',*,*,#422,.T.);
#545=ORIENTED_EDGE('',*,*,#423,.F.);
#546=ORIENTED_EDGE('',*,*,#422,.F.);
#547=ORIENTED_EDGE('',*,*,#385,.F.);
#548=ORIENTED_EDGE('',*,*,#424,.F.);
#549=ORIENTED_EDGE('',*,*,#372,.F.);
#550=ORIENTED_EDGE('',*,*,#417,.T.);
#551=ORIENTED_EDGE('',*,*,#384,.F.);
#552=ORIENTED_EDGE('',*,*,#425,.T.);
#553=ORIENTED_EDGE('',*,*,#373,.F.);
#554=ORIENTED_EDGE('',*,*,#424,.T.);
#555=ORIENTED_EDGE('',*,*,#374,.F.);
#556=ORIENTED_EDGE('',*,*,#425,.F.);
#557=ORIENTED_EDGE('',*,*,#383,.F.);
#558=ORIENTED_EDGE('',*,*,#418,.T.);
#559=ORIENTED_EDGE('',*,*,#388,.F.);
#560=ORIENTED_EDGE('',*,*,#426,.F.);
#561=ORIENTED_EDGE('',*,*,#368,.F.);
#562=ORIENTED_EDGE('',*,*,#414,.T.);
#563=ORIENTED_EDGE('',*,*,#387,.F.);
#564=ORIENTED_EDGE('',*,*,#427,.T.);
#565=ORIENTED_EDGE('',*,*,#369,.F.);
#566=ORIENTED_EDGE('',*,*,#426,.T.);
#567=ORIENTED_EDGE('',*,*,#370,.F.);
#568=ORIENTED_EDGE('',*,*,#427,.F.);
#569=ORIENTED_EDGE('',*,*,#386,.F.);
#570=ORIENTED_EDGE('',*,*,#415,.T.);
#571=ORIENTED_EDGE('',*,*,#382,.F.);
#572=ORIENTED_EDGE('',*,*,#428,.F.);
#573=ORIENTED_EDGE('',*,*,#376,.F.);
#574=ORIENTED_EDGE('',*,*,#420,.T.);
#575=ORIENTED_EDGE('',*,*,#381,.F.);
#576=ORIENTED_EDGE('',*,*,#429,.T.);
#577=ORIENTED_EDGE('',*,*,#377,.F.);
#578=ORIENTED_EDGE('',*,*,#428,.T.);
#579=ORIENTED_EDGE('',*,*,#378,.F.);
#580=ORIENTED_EDGE('',*,*,#429,.F.);
#581=ORIENTED_EDGE('',*,*,#380,.F.);
#582=ORIENTED_EDGE('',*,*,#391,.F.);
#583=ORIENTED_EDGE('',*,*,#430,.F.);
#584=ORIENTED_EDGE('',*,*,#364,.F.);
#585=ORIENTED_EDGE('',*,*,#423,.T.);
#586=ORIENTED_EDGE('',*,*,#390,.F.);
#587=ORIENTED_EDGE('',*,*,#431,.T.);
#588=ORIENTED_EDGE('',*,*,#365,.F.);
#589=ORIENTED_EDGE('',*,*,#430,.T.);
#590=ORIENTED_EDGE('',*,*,#366,.F.);
#591=ORIENTED_EDGE('',*,*,#431,.F.);
#592=ORIENTED_EDGE('',*,*,#389,.F.);
#593=ORIENTED_EDGE('',*,*,#412,.T.);
#594=ORIENTED_EDGE('',*,*,#361,.F.);
#595=ORIENTED_EDGE('',*,*,#432,.T.);
#596=ORIENTED_EDGE('',*,*,#403,.F.);
#597=ORIENTED_EDGE('',*,*,#432,.F.);
#598=ORIENTED_EDGE('',*,*,#360,.F.);
#599=ORIENTED_EDGE('',*,*,#433,.T.);
#600=ORIENTED_EDGE('',*,*,#404,.F.);
#601=ORIENTED_EDGE('',*,*,#433,.F.);
#602=ORIENTED_EDGE('',*,*,#359,.F.);
#603=ORIENTED_EDGE('',*,*,#434,.T.);
#604=ORIENTED_EDGE('',*,*,#405,.F.);
#605=ORIENTED_EDGE('',*,*,#434,.F.);
#606=ORIENTED_EDGE('',*,*,#358,.F.);
#607=ORIENTED_EDGE('',*,*,#435,.T.);
#608=ORIENTED_EDGE('',*,*,#406,.F.);
#609=ORIENTED_EDGE('',*,*,#435,.F.);
#610=ORIENTED_EDGE('',*,*,#362,.T.);
#611=ORIENTED_EDGE('',*,*,#421,.T.);
#612=ORIENTED_EDGE('',*,*,#410,.F.);
#613=ORIENTED_EDGE('',*,*,#353,.F.);
#614=ORIENTED_EDGE('',*,*,#411,.F.);
#615=ORIENTED_EDGE('',*,*,#401,.T.);
#616=ORIENTED_EDGE('',*,*,#392,.F.);
#617=ORIENTED_EDGE('',*,*,#357,.F.);
#618=ORIENTED_EDGE('',*,*,#408,.F.);
#619=ORIENTED_EDGE('',*,*,#397,.T.);
#620=TOROIDAL_SURFACE('',#677,10.,4.);
#621=ADVANCED_FACE('',(#155),#620,.F.);
#622=ADVANCED_FACE('',(#156,#28,#29,#30,#31),#136,.T.);
#623=ADVANCED_FACE('',(#157),#15,.T.);
#624=ADVANCED_FACE('',(#158),#16,.T.);
#625=ADVANCED_FACE('',(#159),#137,.T.);
#626=ADVANCED_FACE('',(#160,#32,#33,#34,#35),#138,.F.);
#627=ADVANCED_FACE('',(#161),#17,.T.);
#628=ADVANCED_FACE('',(#162),#139,.T.);
#629=ADVANCED_FACE('',(#163),#18,.T.);
#630=ADVANCED_FACE('',(#164),#19,.T.);
#631=ADVANCED_FACE('',(#165),#20,.F.);
#632=ADVANCED_FACE('',(#166),#21,.F.);
#633=ADVANCED_FACE('',(#167),#22,.F.);
#634=ADVANCED_FACE('',(#168),#23,.F.);
#635=ADVANCED_FACE('',(#169,#36),#140,.F.);
#636=ADVANCED_FACE('',(#170),#141,.F.);
#637=ADVANCED_FACE('',(#171,#37),#142,.F.);
#638=ADVANCED_FACE('',(#172,#38),#143,.F.);
#639=ADVANCED_FACE('',(#173),#144,.F.);
#640=ADVANCED_FACE('',(#174,#39),#145,.F.);
#641=ADVANCED_FACE('',(#175,#40),#146,.F.);
#642=ADVANCED_FACE('',(#176),#147,.F.);
#643=ADVANCED_FACE('',(#177),#148,.F.);
#644=ADVANCED_FACE('',(#178,#41),#149,.F.);
#645=ADVANCED_FACE('',(#179),#150,.F.);
#646=ADVANCED_FACE('',(#180,#42),#151,.F.);
#647=ADVANCED_FACE('',(#181),#24,.F.);
#648=ADVANCED_FACE('',(#182),#25,.F.);
#649=ADVANCED_FACE('',(#183),#26,.F.);
#650=ADVANCED_FACE('',(#184),#27,.F.);
#651=ADVANCED_FACE('',(#185,#43),#152,.T.);
#652=ADVANCED_FACE('',(#186),#153,.T.);
#653=ADVANCED_FACE('',(#187),#154,.T.);
#654=CLOSED_SHELL('',(#621,#622,#623,#624,#625,#626,#627,#628,#629,#630,
#631,#632,#633,#634,#635,#636,#637,#638,#639,#640,#641,#642,#643,#644,#645,
#646,#647,#648,#649,#650,#651,#652,#653));
#655=DERIVED_UNIT_ELEMENT(#658,1.);
#656=DERIVED_UNIT_ELEMENT(#1154,-3.);
#657=DIMENSIONAL_EXPONENTS(0.,1.,0.,0.,0.,0.,0.);
#658=(
CONVERSION_BASED_UNIT('gram',#660)
MASS_UNIT()
NAMED_UNIT(#657)
);
#659=(
MASS_UNIT()
NAMED_UNIT(*)
SI_UNIT(.KILO.,.GRAM.)
);
#660=MASS_MEASURE_WITH_UNIT(MASS_MEASURE(0.001),#659);
#661=DERIVED_UNIT((#655,#656));
#662=MEASURE_REPRESENTATION_ITEM('density measure',
POSITIVE_RATIO_MEASURE(1.06),#661);
#663=PROPERTY_DEFINITION_REPRESENTATION(#668,#665);
#664=PROPERTY_DEFINITION_REPRESENTATION(#669,#666);
#665=REPRESENTATION('material name',(#667),#1151);
#666=REPRESENTATION('density',(#662),#1151);
#667=DESCRIPTIVE_REPRESENTATION_ITEM('ABS, BLACK','ABS, BLACK');
#668=PROPERTY_DEFINITION('material property','material name',#1161);
#669=PROPERTY_DEFINITION('material property','density of part',#1161);
#670=DATE_TIME_ROLE('creation_date');
#671=APPLIED_DATE_AND_TIME_ASSIGNMENT(#672,#670,(#1161));
#672=DATE_AND_TIME(#673,#674);
#673=CALENDAR_DATE(2026,2,6);
#674=LOCAL_TIME(0,0,0.,#675);
#675=COORDINATED_UNIVERSAL_TIME_OFFSET(0,0,.BEHIND.);
#676=AXIS2_PLACEMENT_3D('',#962,#756,#757);
#677=AXIS2_PLACEMENT_3D('',#963,#758,#759);
#678=AXIS2_PLACEMENT_3D('',#966,#760,#761);
#679=AXIS2_PLACEMENT_3D('',#968,#762,#763);
#680=AXIS2_PLACEMENT_3D('',#970,#764,#765);
#681=AXIS2_PLACEMENT_3D('',#971,#766,#767);
#682=AXIS2_PLACEMENT_3D('',#972,#768,#769);
#683=AXIS2_PLACEMENT_3D('',#973,#770,#771);
#684=AXIS2_PLACEMENT_3D('',#976,#772,#773);
#685=AXIS2_PLACEMENT_3D('',#981,#776,#777);
#686=AXIS2_PLACEMENT_3D('',#985,#779,#780);
#687=AXIS2_PLACEMENT_3D('',#989,#782,#783);
#688=AXIS2_PLACEMENT_3D('',#992,#785,#786);
#689=AXIS2_PLACEMENT_3D('',#994,#787,#788);
#690=AXIS2_PLACEMENT_3D('',#996,#789,#790);
#691=AXIS2_PLACEMENT_3D('',#998,#791,#792);
#692=AXIS2_PLACEMENT_3D('',#999,#793,#794);
#693=AXIS2_PLACEMENT_3D('',#1001,#795,#796);
#694=AXIS2_PLACEMENT_3D('',#1005,#798,#799);
#695=AXIS2_PLACEMENT_3D('',#1009,#801,#802);
#696=AXIS2_PLACEMENT_3D('',#1013,#804,#805);
#697=AXIS2_PLACEMENT_3D('',#1017,#807,#808);
#698=AXIS2_PLACEMENT_3D('',#1021,#810,#811);
#699=AXIS2_PLACEMENT_3D('',#1025,#813,#814);
#700=AXIS2_PLACEMENT_3D('',#1029,#816,#817);
#701=AXIS2_PLACEMENT_3D('',#1033,#819,#820);
#702=AXIS2_PLACEMENT_3D('',#1036,#822,#823);
#703=AXIS2_PLACEMENT_3D('',#1039,#825,#826);
#704=AXIS2_PLACEMENT_3D('',#1041,#827,#828);
#705=AXIS2_PLACEMENT_3D('',#1044,#830,#831);
#706=AXIS2_PLACEMENT_3D('',#1046,#832,#833);
#707=AXIS2_PLACEMENT_3D('',#1049,#835,#836);
#708=AXIS2_PLACEMENT_3D('',#1051,#837,#838);
#709=AXIS2_PLACEMENT_3D('',#1054,#840,#841);
#710=AXIS2_PLACEMENT_3D('',#1055,#842,#843);
#711=AXIS2_PLACEMENT_3D('',#1059,#845,#846);
#712=AXIS2_PLACEMENT_3D('',#1061,#848,#849);
#713=AXIS2_PLACEMENT_3D('',#1065,#852,#853);
#714=AXIS2_PLACEMENT_3D('',#1069,#855,#856);
#715=AXIS2_PLACEMENT_3D('',#1073,#858,#859);
#716=AXIS2_PLACEMENT_3D('',#1076,#861,#862);
#717=AXIS2_PLACEMENT_3D('',#1078,#863,#864);
#718=AXIS2_PLACEMENT_3D('',#1080,#865,#866);
#719=AXIS2_PLACEMENT_3D('',#1082,#867,#868);
#720=AXIS2_PLACEMENT_3D('',#1084,#869,#870);
#721=AXIS2_PLACEMENT_3D('',#1085,#871,#872);
#722=AXIS2_PLACEMENT_3D('',#1088,#875,#876);
#723=AXIS2_PLACEMENT_3D('',#1090,#878,#879);
#724=AXIS2_PLACEMENT_3D('',#1092,#881,#882);
#725=AXIS2_PLACEMENT_3D('',#1094,#884,#885);
#726=AXIS2_PLACEMENT_3D('',#1096,#886,#887);
#727=AXIS2_PLACEMENT_3D('',#1099,#889,#890);
#728=AXIS2_PLACEMENT_3D('',#1100,#891,#892);
#729=AXIS2_PLACEMENT_3D('',#1102,#893,#894);
#730=AXIS2_PLACEMENT_3D('',#1105,#896,#897);
#731=AXIS2_PLACEMENT_3D('',#1106,#898,#899);
#732=AXIS2_PLACEMENT_3D('',#1108,#900,#901);
#733=AXIS2_PLACEMENT_3D('',#1111,#903,#904);
#734=AXIS2_PLACEMENT_3D('',#1112,#905,#906);
#735=AXIS2_PLACEMENT_3D('',#1114,#907,#908);
#736=AXIS2_PLACEMENT_3D('',#1117,#910,#911);
#737=AXIS2_PLACEMENT_3D('',#1118,#912,#913);
#738=AXIS2_PLACEMENT_3D('',#1120,#915,#916);
#739=AXIS2_PLACEMENT_3D('',#1122,#918,#919);
#740=AXIS2_PLACEMENT_3D('',#1123,#920,#921);
#741=AXIS2_PLACEMENT_3D('',#1125,#923,#924);
#742=AXIS2_PLACEMENT_3D('',#1127,#926,#927);
#743=AXIS2_PLACEMENT_3D('',#1128,#928,#929);
#744=AXIS2_PLACEMENT_3D('',#1130,#931,#932);
#745=AXIS2_PLACEMENT_3D('',#1132,#934,#935);
#746=AXIS2_PLACEMENT_3D('',#1133,#936,#937);
#747=AXIS2_PLACEMENT_3D('',#1135,#939,#940);
#748=AXIS2_PLACEMENT_3D('',#1137,#942,#943);
#749=AXIS2_PLACEMENT_3D('',#1138,#944,#945);
#750=AXIS2_PLACEMENT_3D('',#1140,#947,#948);
#751=AXIS2_PLACEMENT_3D('',#1142,#950,#951);
#752=AXIS2_PLACEMENT_3D('',#1144,#953,#954);
#753=AXIS2_PLACEMENT_3D('',#1146,#956,#957);
#754=AXIS2_PLACEMENT_3D('',#1147,#958,#959);
#755=AXIS2_PLACEMENT_3D('',#1148,#960,#961);
#756=DIRECTION('axis',(0.,0.,1.));
#757=DIRECTION('refdir',(1.,0.,0.));
#758=DIRECTION('center_axis',(0.,-1.,0.));
#759=DIRECTION('ref_axis',(0.,0.,-1.));
#760=DIRECTION('center_axis',(0.,-1.,0.));
#761=DIRECTION('ref_axis',(-1.,0.,1.22464679914735E-16));
#762=DIRECTION('center_axis',(-1.,0.,-1.58603289232165E-16));
#763=DIRECTION('ref_axis',(-1.58603289232165E-16,0.,1.));
#764=DIRECTION('center_axis',(0.,1.,0.));
#765=DIRECTION('ref_axis',(-1.,0.,1.22464679914735E-16));
#766=DIRECTION('center_axis',(0.,1.,0.));
#767=DIRECTION('ref_axis',(-1.,0.,1.22464679914735E-16));
#768=DIRECTION('center_axis',(0.,-1.,0.));
#769=DIRECTION('ref_axis',(-1.,0.,1.22464679914735E-16));
#770=DIRECTION('center_axis',(0.,1.,0.));
#771=DIRECTION('ref_axis',(0.,0.,1.));
#772=DIRECTION('center_axis',(0.,-1.,0.));
#773=DIRECTION('ref_axis',(-0.707106781186548,0.,-0.707106781186548));
#774=DIRECTION('',(4.44089209850063E-16,0.,1.));
#775=DIRECTION('',(4.44089209850063E-16,0.,1.));
#776=DIRECTION('center_axis',(0.,-1.,0.));
#777=DIRECTION('ref_axis',(-0.707106781186548,0.,0.707106781186548));
#778=DIRECTION('',(1.,0.,-2.22044604925031E-16));
#779=DIRECTION('center_axis',(0.,-1.,0.));
#780=DIRECTION('ref_axis',(0.707106781186548,0.,0.707106781186548));
#781=DIRECTION('',(-4.44089209850063E-16,0.,-1.));
#782=DIRECTION('center_axis',(0.,-1.,0.));
#783=DIRECTION('ref_axis',(0.707106781186548,0.,-0.707106781186548));
#784=DIRECTION('',(-1.,0.,0.));
#785=DIRECTION('center_axis',(0.,-1.,0.));
#786=DIRECTION('ref_axis',(1.,0.,0.));
#787=DIRECTION('center_axis',(0.,-1.,0.));
#788=DIRECTION('ref_axis',(1.,0.,0.));
#789=DIRECTION('center_axis',(0.,-1.,0.));
#790=DIRECTION('ref_axis',(1.,0.,0.));
#791=DIRECTION('center_axis',(0.,-1.,0.));
#792=DIRECTION('ref_axis',(1.,0.,0.));
#793=DIRECTION('center_axis',(0.,1.,0.));
#794=DIRECTION('ref_axis',(1.,0.,0.));
#795=DIRECTION('center_axis',(0.,1.,0.));
#796=DIRECTION('ref_axis',(1.,0.,0.));
#797=DIRECTION('',(0.,-1.,0.));
#798=DIRECTION('center_axis',(0.,1.,0.));
#799=DIRECTION('ref_axis',(1.,0.,0.));
#800=DIRECTION('',(0.,-1.,0.));
#801=DIRECTION('center_axis',(0.,-1.,0.));
#802=DIRECTION('ref_axis',(1.,0.,0.));
#803=DIRECTION('',(0.,-1.,0.));
#804=DIRECTION('center_axis',(0.,1.,0.));
#805=DIRECTION('ref_axis',(1.,0.,0.));
#806=DIRECTION('',(0.,-1.,0.));
#807=DIRECTION('center_axis',(0.,-1.,0.));
#808=DIRECTION('ref_axis',(1.,0.,0.));
#809=DIRECTION('',(0.,-1.,0.));
#810=DIRECTION('center_axis',(0.,1.,0.));
#811=DIRECTION('ref_axis',(1.,0.,0.));
#812=DIRECTION('',(0.,-1.,0.));
#813=DIRECTION('center_axis',(0.,-1.,0.));
#814=DIRECTION('ref_axis',(1.,0.,0.));
#815=DIRECTION('',(0.,-1.,0.));
#816=DIRECTION('center_axis',(0.,1.,0.));
#817=DIRECTION('ref_axis',(1.,0.,0.));
#818=DIRECTION('',(0.,-1.,0.));
#819=DIRECTION('center_axis',(0.,-1.,0.));
#820=DIRECTION('ref_axis',(1.,0.,0.));
#821=DIRECTION('',(0.,-1.,0.));
#822=DIRECTION('center_axis',(0.,-1.,0.));
#823=DIRECTION('ref_axis',(1.,0.,0.));
#824=DIRECTION('',(0.,1.,0.));
#825=DIRECTION('center_axis',(0.,1.,0.));
#826=DIRECTION('ref_axis',(1.,0.,0.));
#827=DIRECTION('center_axis',(0.,-1.,0.));
#828=DIRECTION('ref_axis',(1.,0.,0.));
#829=DIRECTION('',(0.,1.,0.));
#830=DIRECTION('center_axis',(0.,1.,0.));
#831=DIRECTION('ref_axis',(1.,0.,0.));
#832=DIRECTION('center_axis',(0.,-1.,0.));
#833=DIRECTION('ref_axis',(1.,0.,0.));
#834=DIRECTION('',(0.,1.,0.));
#835=DIRECTION('center_axis',(0.,1.,0.));
#836=DIRECTION('ref_axis',(1.,0.,0.));
#837=DIRECTION('center_axis',(0.,-1.,0.));
#838=DIRECTION('ref_axis',(1.,0.,0.));
#839=DIRECTION('',(0.,1.,0.));
#840=DIRECTION('center_axis',(0.,1.,0.));
#841=DIRECTION('ref_axis',(1.,0.,0.));
#842=DIRECTION('center_axis',(0.,1.,0.));
#843=DIRECTION('ref_axis',(-0.707106781186548,0.,-0.707106781186548));
#844=DIRECTION('',(0.,-1.,0.));
#845=DIRECTION('center_axis',(0.,1.,0.));
#846=DIRECTION('ref_axis',(-0.707106781186548,0.,-0.707106781186548));
#847=DIRECTION('',(0.,1.,0.));
#848=DIRECTION('center_axis',(-1.,0.,4.44089209850063E-16));
#849=DIRECTION('ref_axis',(4.44089209850063E-16,0.,1.));
#850=DIRECTION('',(4.44089209850063E-16,0.,1.));
#851=DIRECTION('',(0.,-1.,0.));
#852=DIRECTION('center_axis',(0.,1.,0.));
#853=DIRECTION('ref_axis',(0.,0.,1.));
#854=DIRECTION('',(-1.,0.,0.));
#855=DIRECTION('center_axis',(0.,1.,0.));
#856=DIRECTION('ref_axis',(0.707106781186548,0.,-0.707106781186548));
#857=DIRECTION('',(-4.44089209850063E-16,0.,-1.));
#858=DIRECTION('center_axis',(0.,1.,0.));
#859=DIRECTION('ref_axis',(0.707106781186548,0.,0.707106781186548));
#860=DIRECTION('',(1.,0.,-2.22044604925031E-16));
#861=DIRECTION('center_axis',(0.,1.,0.));
#862=DIRECTION('ref_axis',(-0.707106781186548,0.,0.707106781186548));
#863=DIRECTION('center_axis',(0.,1.,0.));
#864=DIRECTION('ref_axis',(1.,0.,0.));
#865=DIRECTION('center_axis',(0.,1.,0.));
#866=DIRECTION('ref_axis',(1.,0.,0.));
#867=DIRECTION('center_axis',(0.,1.,0.));
#868=DIRECTION('ref_axis',(1.,0.,0.));
#869=DIRECTION('center_axis',(0.,1.,0.));
#870=DIRECTION('ref_axis',(1.,0.,0.));
#871=DIRECTION('center_axis',(0.,1.,0.));
#872=DIRECTION('ref_axis',(0.707106781186548,0.,-0.707106781186548));
#873=DIRECTION('',(0.,-1.,0.));
#874=DIRECTION('',(0.,1.,0.));
#875=DIRECTION('center_axis',(1.,0.,-4.44089209850063E-16));
#876=DIRECTION('ref_axis',(-4.44089209850063E-16,0.,-1.));
#877=DIRECTION('',(0.,1.,0.));
#878=DIRECTION('center_axis',(0.,1.,0.));
#879=DIRECTION('ref_axis',(0.707106781186548,0.,0.707106781186548));
#880=DIRECTION('',(0.,-1.,0.));
#881=DIRECTION('center_axis',(0.,1.,0.));
#882=DIRECTION('ref_axis',(-0.707106781186548,0.,0.707106781186548));
#883=DIRECTION('',(0.,1.,0.));
#884=DIRECTION('center_axis',(0.,1.,0.));
#885=DIRECTION('ref_axis',(1.,0.,0.));
#886=DIRECTION('center_axis',(0.,-1.,0.));
#887=DIRECTION('ref_axis',(1.,0.,0.));
#888=DIRECTION('',(0.,-1.,0.));
#889=DIRECTION('center_axis',(0.,1.,0.));
#890=DIRECTION('ref_axis',(1.,0.,0.));
#891=DIRECTION('center_axis',(0.,1.,0.));
#892=DIRECTION('ref_axis',(1.,0.,0.));
#893=DIRECTION('center_axis',(0.,-1.,0.));
#894=DIRECTION('ref_axis',(1.,0.,0.));
#895=DIRECTION('',(0.,-1.,0.));
#896=DIRECTION('center_axis',(0.,1.,0.));
#897=DIRECTION('ref_axis',(1.,0.,0.));
#898=DIRECTION('center_axis',(0.,1.,0.));
#899=DIRECTION('ref_axis',(1.,0.,0.));
#900=DIRECTION('center_axis',(0.,-1.,0.));
#901=DIRECTION('ref_axis',(1.,0.,0.));
#902=DIRECTION('',(0.,-1.,0.));
#903=DIRECTION('center_axis',(0.,1.,0.));
#904=DIRECTION('ref_axis',(1.,0.,0.));
#905=DIRECTION('center_axis',(0.,1.,0.));
#906=DIRECTION('ref_axis',(1.,0.,0.));
#907=DIRECTION('center_axis',(0.,-1.,0.));
#908=DIRECTION('ref_axis',(1.,0.,0.));
#909=DIRECTION('',(0.,-1.,0.));
#910=DIRECTION('center_axis',(0.,1.,0.));
#911=DIRECTION('ref_axis',(1.,0.,0.));
#912=DIRECTION('center_axis',(0.,1.,0.));
#913=DIRECTION('ref_axis',(-1.,0.,0.));
#914=DIRECTION('',(0.,0.,-1.));
#915=DIRECTION('center_axis',(1.,0.,0.));
#916=DIRECTION('ref_axis',(0.,1.,0.));
#917=DIRECTION('',(0.,0.,1.));
#918=DIRECTION('center_axis',(0.,-1.,0.));
#919=DIRECTION('ref_axis',(1.,0.,0.));
#920=DIRECTION('center_axis',(0.,1.,0.));
#921=DIRECTION('ref_axis',(-1.,0.,0.));
#922=DIRECTION('',(0.,0.,-1.));
#923=DIRECTION('center_axis',(1.,0.,0.));
#924=DIRECTION('ref_axis',(0.,1.,0.));
#925=DIRECTION('',(0.,0.,1.));
#926=DIRECTION('center_axis',(0.,-1.,0.));
#927=DIRECTION('ref_axis',(1.,0.,0.));
#928=DIRECTION('center_axis',(0.,1.,0.));
#929=DIRECTION('ref_axis',(-1.,0.,0.));
#930=DIRECTION('',(0.,0.,-1.));
#931=DIRECTION('center_axis',(1.,0.,0.));
#932=DIRECTION('ref_axis',(0.,1.,0.));
#933=DIRECTION('',(0.,0.,1.));
#934=DIRECTION('center_axis',(0.,-1.,0.));
#935=DIRECTION('ref_axis',(1.,0.,0.));
#936=DIRECTION('center_axis',(0.,1.,0.));
#937=DIRECTION('ref_axis',(-1.,0.,0.));
#938=DIRECTION('',(0.,0.,-1.));
#939=DIRECTION('center_axis',(1.,0.,0.));
#940=DIRECTION('ref_axis',(0.,1.,0.));
#941=DIRECTION('',(0.,0.,1.));
#942=DIRECTION('center_axis',(0.,-1.,0.));
#943=DIRECTION('ref_axis',(1.,0.,0.));
#944=DIRECTION('center_axis',(0.,1.,0.));
#945=DIRECTION('ref_axis',(1.,0.,0.));
#946=DIRECTION('',(0.,-1.,0.));
#947=DIRECTION('center_axis',(0.,1.,0.));
#948=DIRECTION('ref_axis',(1.,0.,0.));
#949=DIRECTION('',(0.,-1.,0.));
#950=DIRECTION('center_axis',(0.,1.,0.));
#951=DIRECTION('ref_axis',(1.,0.,0.));
#952=DIRECTION('',(0.,-1.,0.));
#953=DIRECTION('center_axis',(0.,1.,0.));
#954=DIRECTION('ref_axis',(1.,0.,0.));
#955=DIRECTION('',(0.,-1.,0.));
#956=DIRECTION('center_axis',(0.,1.,0.));
#957=DIRECTION('ref_axis',(0.,0.,1.));
#958=DIRECTION('center_axis',(2.22044604925031E-16,0.,1.));
#959=DIRECTION('ref_axis',(1.,0.,-2.22044604925031E-16));
#960=DIRECTION('center_axis',(0.,0.,-1.));
#961=DIRECTION('ref_axis',(-1.,0.,0.));
#962=CARTESIAN_POINT('',(0.,0.,0.));
#963=CARTESIAN_POINT('Origin',(-10.,14.,0.));
#964=CARTESIAN_POINT('',(-16.,14.,7.34788079488412E-16));
#965=CARTESIAN_POINT('',(-10.,14.,6.));
#966=CARTESIAN_POINT('Origin',(-10.,14.,0.));
#967=CARTESIAN_POINT('',(-10.,10.,10.));
#968=CARTESIAN_POINT('Origin',(-10.,14.,10.));
#969=CARTESIAN_POINT('',(-20.,10.,4.44089209850063E-15));
#970=CARTESIAN_POINT('Origin',(-10.,10.,0.));
#971=CARTESIAN_POINT('Origin',(-10.,10.,0.));
#972=CARTESIAN_POINT('Origin',(-10.,14.,0.));
#973=CARTESIAN_POINT('Origin',(0.,10.,8.88178419700125E-15));
#974=CARTESIAN_POINT('',(-20.,10.,-18.));
#975=CARTESIAN_POINT('',(-18.,10.,-20.));
#976=CARTESIAN_POINT('Origin',(-18.,10.,-18.));
#977=CARTESIAN_POINT('',(-20.,10.,-20.));
#978=CARTESIAN_POINT('',(-20.,10.,18.));
#979=CARTESIAN_POINT('',(-20.,10.,-20.));
#980=CARTESIAN_POINT('',(-18.,10.,20.));
#981=CARTESIAN_POINT('Origin',(-18.,10.,18.));
#982=CARTESIAN_POINT('',(18.,10.,20.));
#983=CARTESIAN_POINT('',(-20.,10.,20.));
#984=CARTESIAN_POINT('',(20.,10.,18.));
#985=CARTESIAN_POINT('Origin',(18.,10.,18.));
#986=CARTESIAN_POINT('',(20.,10.,-18.));
#987=CARTESIAN_POINT('',(20.,10.,20.));
#988=CARTESIAN_POINT('',(18.,10.,-20.));
#989=CARTESIAN_POINT('Origin',(18.,10.,-18.));
#990=CARTESIAN_POINT('',(20.,10.,-20.));
#991=CARTESIAN_POINT('',(-17.8,10.,-16.));
#992=CARTESIAN_POINT('Origin',(-16.,10.,-16.));
#993=CARTESIAN_POINT('',(-17.8,10.,16.));
#994=CARTESIAN_POINT('Origin',(-16.,10.,16.));
#995=CARTESIAN_POINT('',(14.2,10.,-16.));
#996=CARTESIAN_POINT('Origin',(16.,10.,-16.));
#997=CARTESIAN_POINT('',(14.2,10.,16.));
#998=CARTESIAN_POINT('Origin',(16.,10.,16.));
#999=CARTESIAN_POINT('Origin',(-10.,10.,0.));
#1000=CARTESIAN_POINT('',(-16.,90.,7.34788079488412E-16));
#1001=CARTESIAN_POINT('Origin',(-10.,90.,0.));
#1002=CARTESIAN_POINT('',(-16.,87.,7.34788079488412E-16));
#1003=CARTESIAN_POINT('',(-16.,10.,7.34788079488412E-16));
#1004=CARTESIAN_POINT('',(-10.,87.,6.));
#1005=CARTESIAN_POINT('Origin',(-10.,87.,0.));
#1006=CARTESIAN_POINT('',(-10.,84.,6.));
#1007=CARTESIAN_POINT('',(-10.,10.,6.));
#1008=CARTESIAN_POINT('',(-16.,84.,7.34788079488412E-16));
#1009=CARTESIAN_POINT('Origin',(-10.,84.,0.));
#1010=CARTESIAN_POINT('',(-16.,81.,7.34788079488412E-16));
#1011=CARTESIAN_POINT('',(-16.,10.,7.34788079488412E-16));
#1012=CARTESIAN_POINT('',(-10.,81.,6.));
#1013=CARTESIAN_POINT('Origin',(-10.,81.,0.));
#1014=CARTESIAN_POINT('',(-10.,78.,6.));
#1015=CARTESIAN_POINT('',(-10.,10.,6.));
#1016=CARTESIAN_POINT('',(-16.,78.,7.34788079488412E-16));
#1017=CARTESIAN_POINT('Origin',(-10.,78.,0.));
#1018=CARTESIAN_POINT('',(-16.,75.,7.34788079488412E-16));
#1019=CARTESIAN_POINT('',(-16.,10.,7.34788079488412E-16));
#1020=CARTESIAN_POINT('',(-10.,75.,6.));
#1021=CARTESIAN_POINT('Origin',(-10.,75.,0.));
#1022=CARTESIAN_POINT('',(-10.,72.,6.));
#1023=CARTESIAN_POINT('',(-10.,10.,6.));
#1024=CARTESIAN_POINT('',(-16.,72.,7.34788079488412E-16));
#1025=CARTESIAN_POINT('Origin',(-10.,72.,0.));
#1026=CARTESIAN_POINT('',(-16.,69.,7.34788079488412E-16));
#1027=CARTESIAN_POINT('',(-16.,10.,7.34788079488412E-16));
#1028=CARTESIAN_POINT('',(-10.,69.,6.));
#1029=CARTESIAN_POINT('Origin',(-10.,69.,0.));
#1030=CARTESIAN_POINT('',(-10.,66.,6.));
#1031=CARTESIAN_POINT('',(-10.,10.,6.));
#1032=CARTESIAN_POINT('',(-16.,66.,7.34788079488412E-16));
#1033=CARTESIAN_POINT('Origin',(-10.,66.,0.));
#1034=CARTESIAN_POINT('',(-16.,10.,7.34788079488412E-16));
#1035=CARTESIAN_POINT('',(-10.,66.,-6.));
#1036=CARTESIAN_POINT('Origin',(-10.,66.,0.));
#1037=CARTESIAN_POINT('',(-10.,69.,-6.));
#1038=CARTESIAN_POINT('',(-10.,10.,-6.));
#1039=CARTESIAN_POINT('Origin',(-10.,69.,0.));
#1040=CARTESIAN_POINT('',(-10.,72.,-6.));
#1041=CARTESIAN_POINT('Origin',(-10.,72.,0.));
#1042=CARTESIAN_POINT('',(-10.,75.,-6.));
#1043=CARTESIAN_POINT('',(-10.,10.,-6.));
#1044=CARTESIAN_POINT('Origin',(-10.,75.,0.));
#1045=CARTESIAN_POINT('',(-10.,78.,-6.));
#1046=CARTESIAN_POINT('Origin',(-10.,78.,0.));
#1047=CARTESIAN_POINT('',(-10.,81.,-6.));
#1048=CARTESIAN_POINT('',(-10.,10.,-6.));
#1049=CARTESIAN_POINT('Origin',(-10.,81.,0.));
#1050=CARTESIAN_POINT('',(-10.,84.,-6.));
#1051=CARTESIAN_POINT('Origin',(-10.,84.,0.));
#1052=CARTESIAN_POINT('',(-10.,87.,-6.));
#1053=CARTESIAN_POINT('',(-10.,10.,-6.));
#1054=CARTESIAN_POINT('Origin',(-10.,87.,0.));
#1055=CARTESIAN_POINT('Origin',(-18.,0.,-18.));
#1056=CARTESIAN_POINT('',(-18.,0.,-20.));
#1057=CARTESIAN_POINT('',(-18.,0.,-20.));
#1058=CARTESIAN_POINT('',(-20.,0.,-18.));
#1059=CARTESIAN_POINT('Origin',(-18.,0.,-18.));
#1060=CARTESIAN_POINT('',(-20.,0.,-18.));
#1061=CARTESIAN_POINT('Origin',(-20.,0.,-20.));
#1062=CARTESIAN_POINT('',(-20.,0.,18.));
#1063=CARTESIAN_POINT('',(-20.,0.,-20.));
#1064=CARTESIAN_POINT('',(-20.,0.,18.));
#1065=CARTESIAN_POINT('Origin',(0.,0.,8.88178419700125E-15));
#1066=CARTESIAN_POINT('',(18.,0.,-20.));
#1067=CARTESIAN_POINT('',(20.,0.,-20.));
#1068=CARTESIAN_POINT('',(20.,0.,-18.));
#1069=CARTESIAN_POINT('Origin',(18.,0.,-18.));
#1070=CARTESIAN_POINT('',(20.,0.,18.));
#1071=CARTESIAN_POINT('',(20.,0.,20.));
#1072=CARTESIAN_POINT('',(18.,0.,20.));
#1073=CARTESIAN_POINT('Origin',(18.,0.,18.));
#1074=CARTESIAN_POINT('',(-18.,0.,20.));
#1075=CARTESIAN_POINT('',(-20.,0.,20.));
#1076=CARTESIAN_POINT('Origin',(-18.,0.,18.));
#1077=CARTESIAN_POINT('',(14.2,0.,16.));
#1078=CARTESIAN_POINT('Origin',(16.,0.,16.));
#1079=CARTESIAN_POINT('',(14.2,0.,-16.));
#1080=CARTESIAN_POINT('Origin',(16.,0.,-16.));
#1081=CARTESIAN_POINT('',(-17.8,0.,16.));
#1082=CARTESIAN_POINT('Origin',(-16.,0.,16.));
#1083=CARTESIAN_POINT('',(-17.8,0.,-16.));
#1084=CARTESIAN_POINT('Origin',(-16.,0.,-16.));
#1085=CARTESIAN_POINT('Origin',(18.,0.,-18.));
#1086=CARTESIAN_POINT('',(20.,0.,-18.));
#1087=CARTESIAN_POINT('',(18.,0.,-20.));
#1088=CARTESIAN_POINT('Origin',(20.,0.,20.));
#1089=CARTESIAN_POINT('',(20.,0.,18.));
#1090=CARTESIAN_POINT('Origin',(18.,0.,18.));
#1091=CARTESIAN_POINT('',(18.,0.,20.));
#1092=CARTESIAN_POINT('Origin',(-18.,0.,18.));
#1093=CARTESIAN_POINT('',(-18.,0.,20.));
#1094=CARTESIAN_POINT('Origin',(-13.,-16.3014581273465,-4.95073749517421E-16));
#1095=CARTESIAN_POINT('',(-14.8,84.,-7.15510173363945E-16));
#1096=CARTESIAN_POINT('Origin',(-13.,84.,-4.95073749517421E-16));
#1097=CARTESIAN_POINT('',(-14.8,81.,-2.74637325670898E-16));
#1098=CARTESIAN_POINT('',(-14.8,-16.3014581273465,-2.74637325670898E-16));
#1099=CARTESIAN_POINT('Origin',(-13.,81.,-4.95073749517421E-16));
#1100=CARTESIAN_POINT('Origin',(-13.,-16.3014581273465,-4.95073749517421E-16));
#1101=CARTESIAN_POINT('',(-14.8,78.,-7.15510173363945E-16));
#1102=CARTESIAN_POINT('Origin',(-13.,78.,-4.95073749517421E-16));
#1103=CARTESIAN_POINT('',(-14.8,75.,-2.74637325670898E-16));
#1104=CARTESIAN_POINT('',(-14.8,-16.3014581273465,-2.74637325670898E-16));
#1105=CARTESIAN_POINT('Origin',(-13.,75.,-4.95073749517421E-16));
#1106=CARTESIAN_POINT('Origin',(-13.,-16.3014581273465,-4.95073749517421E-16));
#1107=CARTESIAN_POINT('',(-14.8,72.,-7.15510173363945E-16));
#1108=CARTESIAN_POINT('Origin',(-13.,72.,-4.95073749517421E-16));
#1109=CARTESIAN_POINT('',(-14.8,69.,-7.15510173363945E-16));
#1110=CARTESIAN_POINT('',(-14.8,-16.3014581273465,-2.74637325670898E-16));
#1111=CARTESIAN_POINT('Origin',(-13.,69.,-4.95073749517421E-16));
#1112=CARTESIAN_POINT('Origin',(-13.,-16.3014581273465,-4.95073749517421E-16));
#1113=CARTESIAN_POINT('',(-14.8,90.,-2.74637325670898E-16));
#1114=CARTESIAN_POINT('Origin',(-13.,90.,-4.95073749517421E-16));
#1115=CARTESIAN_POINT('',(-14.8,87.,-2.74637325670898E-16));
#1116=CARTESIAN_POINT('',(-14.8,-16.3014581273465,-2.74637325670898E-16));
#1117=CARTESIAN_POINT('Origin',(-13.,87.,-4.95073749517421E-16));
#1118=CARTESIAN_POINT('Origin',(-10.,75.,0.));
#1119=CARTESIAN_POINT('',(-10.,75.,0.));
#1120=CARTESIAN_POINT('Origin',(-10.,72.,0.));
#1121=CARTESIAN_POINT('',(-10.,72.,0.));
#1122=CARTESIAN_POINT('Origin',(-16.,72.,0.));
#1123=CARTESIAN_POINT('Origin',(-10.,81.,0.));
#1124=CARTESIAN_POINT('',(-10.,81.,0.));
#1125=CARTESIAN_POINT('Origin',(-10.,78.,0.));
#1126=CARTESIAN_POINT('',(-10.,78.,0.));
#1127=CARTESIAN_POINT('Origin',(-16.,78.,0.));
#1128=CARTESIAN_POINT('Origin',(-10.,69.,0.));
#1129=CARTESIAN_POINT('',(-10.,69.,0.));
#1130=CARTESIAN_POINT('Origin',(-10.,66.,0.));
#1131=CARTESIAN_POINT('',(-10.,66.,0.));
#1132=CARTESIAN_POINT('Origin',(-16.,66.,0.));
#1133=CARTESIAN_POINT('Origin',(-10.,87.,0.));
#1134=CARTESIAN_POINT('',(-10.,87.,0.));
#1135=CARTESIAN_POINT('Origin',(-10.,84.,0.));
#1136=CARTESIAN_POINT('',(-10.,84.,0.));
#1137=CARTESIAN_POINT('Origin',(-16.,84.,0.));
#1138=CARTESIAN_POINT('Origin',(16.,-96.3014581273465,16.));
#1139=CARTESIAN_POINT('',(14.2,-96.3014581273465,16.));
#1140=CARTESIAN_POINT('Origin',(16.,-96.3014581273465,-16.));
#1141=CARTESIAN_POINT('',(14.2,-96.3014581273465,-16.));
#1142=CARTESIAN_POINT('Origin',(-16.,-96.3014581273465,16.));
#1143=CARTESIAN_POINT('',(-17.8,-96.3014581273465,16.));
#1144=CARTESIAN_POINT('Origin',(-16.,-96.3014581273465,-16.));
#1145=CARTESIAN_POINT('',(-17.8,-96.3014581273465,-16.));
#1146=CARTESIAN_POINT('Origin',(-10.,90.,0.));
#1147=CARTESIAN_POINT('Origin',(-20.,0.,20.));
#1148=CARTESIAN_POINT('Origin',(20.,0.,-20.));
#1149=UNCERTAINTY_MEASURE_WITH_UNIT(LENGTH_MEASURE(0.01),#1153,
'DISTANCE_ACCURACY_VALUE',
'Maximum model space distance between geometric entities at asserted c
onnectivities');
#1150=UNCERTAINTY_MEASURE_WITH_UNIT(LENGTH_MEASURE(0.01),#1153,
'DISTANCE_ACCURACY_VALUE',
'Maximum model space distance between geometric entities at asserted c
onnectivities');
#1151=(
GEOMETRIC_REPRESENTATION_CONTEXT(3)
GLOBAL_UNCERTAINTY_ASSIGNED_CONTEXT((#1149))
GLOBAL_UNIT_ASSIGNED_CONTEXT((#1153,#1155,#1156))
REPRESENTATION_CONTEXT('','3D')
);
#1152=(
GEOMETRIC_REPRESENTATION_CONTEXT(3)
GLOBAL_UNCERTAINTY_ASSIGNED_CONTEXT((#1150))
GLOBAL_UNIT_ASSIGNED_CONTEXT((#1153,#1155,#1156))
REPRESENTATION_CONTEXT('','3D')
);
#1153=(
LENGTH_UNIT()
NAMED_UNIT(*)
SI_UNIT(.MILLI.,.METRE.)
);
#1154=(
LENGTH_UNIT()
NAMED_UNIT(*)
SI_UNIT(.CENTI.,.METRE.)
);
#1155=(
NAMED_UNIT(*)
PLANE_ANGLE_UNIT()
SI_UNIT($,.RADIAN.)
);
#1156=(
NAMED_UNIT(*)
SI_UNIT($,.STERADIAN.)
SOLID_ANGLE_UNIT()
);
#1157=SHAPE_DEFINITION_REPRESENTATION(#1158,#1159);
#1158=PRODUCT_DEFINITION_SHAPE('',$,#1161);
#1159=SHAPE_REPRESENTATION('',(#676),#1151);
#1160=PRODUCT_DEFINITION_CONTEXT('part definition',#1165,'design');
#1161=PRODUCT_DEFINITION('Friction-Mount-Stand','Friction-Mount-Stand',
#1162,#1160);
#1162=PRODUCT_DEFINITION_FORMATION('0',$,#1167);
#1163=PRODUCT_RELATED_PRODUCT_CATEGORY('Friction-Mount-Stand',
'Friction-Mount-Stand',(#1167));
#1164=APPLICATION_PROTOCOL_DEFINITION('international standard',
'automotive_design',2009,#1165);
#1165=APPLICATION_CONTEXT(
'Core Data for Automotive Mechanical Design Process');
#1166=PRODUCT_CONTEXT('part definition',#1165,'mechanical');
#1167=PRODUCT('Friction-Mount-Stand','Friction-Mount-Stand',$,(#1166));
#1168=PRESENTATION_STYLE_ASSIGNMENT((#1170));
#1169=PRESENTATION_STYLE_ASSIGNMENT((#1171));
#1170=SURFACE_STYLE_USAGE(.BOTH.,#1176);
#1171=SURFACE_STYLE_USAGE(.BOTH.,#1177);
#1172=SURFACE_STYLE_RENDERING_WITH_PROPERTIES($,#1184,(#1174));
#1173=SURFACE_STYLE_RENDERING_WITH_PROPERTIES($,#1185,(#1175));
#1174=SURFACE_STYLE_TRANSPARENT(0.);
#1175=SURFACE_STYLE_TRANSPARENT(0.);
#1176=SURFACE_SIDE_STYLE('',(#1178,#1172));
#1177=SURFACE_SIDE_STYLE('',(#1179,#1173));
#1178=SURFACE_STYLE_FILL_AREA(#1180);
#1179=SURFACE_STYLE_FILL_AREA(#1181);
#1180=FILL_AREA_STYLE('',(#1182));
#1181=FILL_AREA_STYLE('',(#1183));
#1182=FILL_AREA_STYLE_COLOUR('',#1184);
#1183=FILL_AREA_STYLE_COLOUR('',#1185);
#1184=COLOUR_RGB('',0.968627450980392,0.968627450980392,0.898039215686275);
#1185=COLOUR_RGB('',0.749019607843137,0.749019607843137,0.749019607843137);
ENDSEC;
END-ISO-10303-21;
