G04 #@! TF.GenerationSoftware,KiCad,Pcbnew,5.1.5*
G04 #@! TF.CreationDate,2020-03-22T18:40:06-04:00*
G04 #@! TF.ProjectId,M55-RJ45,4d35352d-524a-4343-952e-6b696361645f,rev?*
G04 #@! TF.SameCoordinates,Original*
G04 #@! TF.FileFunction,Copper,L2,Bot*
G04 #@! TF.FilePolarity,Positive*
%FSLAX46Y46*%
G04 Gerber Fmt 4.6, Leading zero omitted, Abs format (unit mm)*
G04 Created by KiCad (PCBNEW 5.1.5) date 2020-03-22 18:40:06*
%MOMM*%
%LPD*%
G04 APERTURE LIST*
%ADD10C,0.300000*%
%ADD11C,0.800000*%
%ADD12O,5.100000X7.100000*%
%ADD13O,7.100000X5.100000*%
%ADD14R,4.500000X8.800000*%
%ADD15R,5.000000X0.760000*%
%ADD16R,0.800000X1.100000*%
%ADD17R,1.200000X2.500000*%
%ADD18C,0.127000*%
G04 APERTURE END LIST*
D10*
X62357142Y-139278571D02*
X62357142Y-138278571D01*
X62357142Y-138421428D02*
X62285714Y-138350000D01*
X62142857Y-138278571D01*
X61928571Y-138278571D01*
X61785714Y-138350000D01*
X61714285Y-138492857D01*
X61714285Y-139278571D01*
X61714285Y-138492857D02*
X61642857Y-138350000D01*
X61500000Y-138278571D01*
X61285714Y-138278571D01*
X61142857Y-138350000D01*
X61071428Y-138492857D01*
X61071428Y-139278571D01*
X59357142Y-138278571D02*
X59000000Y-139278571D01*
X58642857Y-138278571D01*
X57785714Y-137778571D02*
X57642857Y-137778571D01*
X57500000Y-137850000D01*
X57428571Y-137921428D01*
X57357142Y-138064285D01*
X57285714Y-138350000D01*
X57285714Y-138707142D01*
X57357142Y-138992857D01*
X57428571Y-139135714D01*
X57500000Y-139207142D01*
X57642857Y-139278571D01*
X57785714Y-139278571D01*
X57928571Y-139207142D01*
X58000000Y-139135714D01*
X58071428Y-138992857D01*
X58142857Y-138707142D01*
X58142857Y-138350000D01*
X58071428Y-138064285D01*
X58000000Y-137921428D01*
X57928571Y-137850000D01*
X57785714Y-137778571D01*
X56642857Y-139135714D02*
X56571428Y-139207142D01*
X56642857Y-139278571D01*
X56714285Y-139207142D01*
X56642857Y-139135714D01*
X56642857Y-139278571D01*
X56071428Y-137778571D02*
X55142857Y-137778571D01*
X55642857Y-138350000D01*
X55428571Y-138350000D01*
X55285714Y-138421428D01*
X55214285Y-138492857D01*
X55142857Y-138635714D01*
X55142857Y-138992857D01*
X55214285Y-139135714D01*
X55285714Y-139207142D01*
X55428571Y-139278571D01*
X55857142Y-139278571D01*
X56000000Y-139207142D01*
X56071428Y-139135714D01*
X53428571Y-137921428D02*
X53357142Y-137850000D01*
X53214285Y-137778571D01*
X52857142Y-137778571D01*
X52714285Y-137850000D01*
X52642857Y-137921428D01*
X52571428Y-138064285D01*
X52571428Y-138207142D01*
X52642857Y-138421428D01*
X53500000Y-139278571D01*
X52571428Y-139278571D01*
X51642857Y-137778571D02*
X51500000Y-137778571D01*
X51357142Y-137850000D01*
X51285714Y-137921428D01*
X51214285Y-138064285D01*
X51142857Y-138350000D01*
X51142857Y-138707142D01*
X51214285Y-138992857D01*
X51285714Y-139135714D01*
X51357142Y-139207142D01*
X51500000Y-139278571D01*
X51642857Y-139278571D01*
X51785714Y-139207142D01*
X51857142Y-139135714D01*
X51928571Y-138992857D01*
X52000000Y-138707142D01*
X52000000Y-138350000D01*
X51928571Y-138064285D01*
X51857142Y-137921428D01*
X51785714Y-137850000D01*
X51642857Y-137778571D01*
X50571428Y-137921428D02*
X50500000Y-137850000D01*
X50357142Y-137778571D01*
X50000000Y-137778571D01*
X49857142Y-137850000D01*
X49785714Y-137921428D01*
X49714285Y-138064285D01*
X49714285Y-138207142D01*
X49785714Y-138421428D01*
X50642857Y-139278571D01*
X49714285Y-139278571D01*
X48785714Y-137778571D02*
X48642857Y-137778571D01*
X48500000Y-137850000D01*
X48428571Y-137921428D01*
X48357142Y-138064285D01*
X48285714Y-138350000D01*
X48285714Y-138707142D01*
X48357142Y-138992857D01*
X48428571Y-139135714D01*
X48500000Y-139207142D01*
X48642857Y-139278571D01*
X48785714Y-139278571D01*
X48928571Y-139207142D01*
X49000000Y-139135714D01*
X49071428Y-138992857D01*
X49142857Y-138707142D01*
X49142857Y-138350000D01*
X49071428Y-138064285D01*
X49000000Y-137921428D01*
X48928571Y-137850000D01*
X48785714Y-137778571D01*
X47642857Y-138707142D02*
X46500000Y-138707142D01*
X45500000Y-137778571D02*
X45357142Y-137778571D01*
X45214285Y-137850000D01*
X45142857Y-137921428D01*
X45071428Y-138064285D01*
X45000000Y-138350000D01*
X45000000Y-138707142D01*
X45071428Y-138992857D01*
X45142857Y-139135714D01*
X45214285Y-139207142D01*
X45357142Y-139278571D01*
X45500000Y-139278571D01*
X45642857Y-139207142D01*
X45714285Y-139135714D01*
X45785714Y-138992857D01*
X45857142Y-138707142D01*
X45857142Y-138350000D01*
X45785714Y-138064285D01*
X45714285Y-137921428D01*
X45642857Y-137850000D01*
X45500000Y-137778571D01*
X44500000Y-137778571D02*
X43571428Y-137778571D01*
X44071428Y-138350000D01*
X43857142Y-138350000D01*
X43714285Y-138421428D01*
X43642857Y-138492857D01*
X43571428Y-138635714D01*
X43571428Y-138992857D01*
X43642857Y-139135714D01*
X43714285Y-139207142D01*
X43857142Y-139278571D01*
X44285714Y-139278571D01*
X44428571Y-139207142D01*
X44500000Y-139135714D01*
D11*
X42677820Y-147820620D03*
X42677820Y-142620620D03*
X44677820Y-142620620D03*
X45677820Y-144120620D03*
X45677820Y-146320620D03*
X44677820Y-147820620D03*
X41677820Y-146320620D03*
X41677820Y-144120620D03*
D12*
X43677820Y-145246020D03*
D11*
X70450000Y-141270000D03*
X65250000Y-141270000D03*
X65250000Y-139270000D03*
X66750000Y-138270000D03*
X68950000Y-138270000D03*
X70450000Y-139270000D03*
X68950000Y-142270000D03*
X66750000Y-142270000D03*
D13*
X67875400Y-140270000D03*
D14*
X42910000Y-129000000D03*
D15*
X58840000Y-133445000D03*
X58840000Y-132175000D03*
X58840000Y-130905000D03*
X58840000Y-129635000D03*
X58840000Y-128365000D03*
X58840000Y-127095000D03*
X58840000Y-125825000D03*
X58840000Y-124555000D03*
D16*
X61392820Y-144680620D03*
X61392820Y-149760620D03*
X60122820Y-144680620D03*
X60122820Y-149760620D03*
X58852820Y-144680620D03*
X58852820Y-149760620D03*
X57582820Y-144680620D03*
X57582820Y-149760620D03*
X56312820Y-144680620D03*
X56312820Y-149760620D03*
X55042820Y-144680620D03*
X55042820Y-149760620D03*
X53772820Y-144680620D03*
X53772820Y-149760620D03*
X52502820Y-144680620D03*
X52502820Y-149760620D03*
X51232820Y-144680620D03*
X51232820Y-149760620D03*
X49962820Y-144680620D03*
X49962820Y-149760620D03*
D17*
X47467820Y-144845620D03*
X47467820Y-149595620D03*
X63887820Y-144845620D03*
X63887820Y-149595620D03*
D11*
X58732420Y-140850620D03*
X50975260Y-141378940D03*
X52223245Y-141264431D03*
X56255920Y-147683220D03*
X51437531Y-146244671D03*
X54032726Y-142120618D03*
X55412330Y-142120624D03*
X53576220Y-146324320D03*
X51366420Y-148470620D03*
X70485000Y-132715000D03*
X62230000Y-124460000D03*
X62230000Y-132080000D03*
X70485000Y-131445000D03*
X63005000Y-129540000D03*
X64134990Y-130669990D03*
X69215000Y-130175000D03*
X70485000Y-125730000D03*
X63005000Y-125730000D03*
D18*
X49867820Y-149665620D02*
X49962820Y-149760620D01*
X49962820Y-144680620D02*
X49962820Y-149760620D01*
X49962820Y-144680620D02*
X49962820Y-142391380D01*
X57969201Y-140087401D02*
X52266799Y-140087401D01*
X58732420Y-140850620D02*
X57969201Y-140087401D01*
X52266799Y-140087401D02*
X50975260Y-141378940D01*
X49962820Y-142391380D02*
X50975260Y-141378940D01*
X55042820Y-149760620D02*
X53772820Y-149760620D01*
X55042820Y-144680620D02*
X55042820Y-149760620D01*
X55042820Y-144680620D02*
X55042820Y-143680624D01*
X56187340Y-141610080D02*
X55841691Y-141264431D01*
X56187340Y-142536104D02*
X56187340Y-141610080D01*
X55042820Y-143680624D02*
X56187340Y-142536104D01*
X55841691Y-141264431D02*
X52223245Y-141264431D01*
X57575420Y-147683220D02*
X56255920Y-147683220D01*
X58852820Y-149760620D02*
X58852820Y-148960620D01*
X58852820Y-148960620D02*
X57575420Y-147683220D01*
X51232820Y-146039960D02*
X51437531Y-146244671D01*
X51232820Y-144680620D02*
X51232820Y-146039960D01*
X52502820Y-143650524D02*
X54032726Y-142120618D01*
X52502820Y-144680620D02*
X52502820Y-143650524D01*
X53887245Y-144566195D02*
X53772820Y-144680620D01*
X53772820Y-143760134D02*
X55412330Y-142120624D01*
X53772820Y-144680620D02*
X53772820Y-143760134D01*
X52502820Y-147397720D02*
X53576220Y-146324320D01*
X52502820Y-149760620D02*
X52502820Y-147397720D01*
X51110961Y-149638761D02*
X51232820Y-149760620D01*
X51366420Y-149627020D02*
X51232820Y-149760620D01*
X51366420Y-148470620D02*
X51366420Y-149627020D01*
X58840000Y-133445000D02*
X69755000Y-133445000D01*
X69755000Y-133445000D02*
X70485000Y-132715000D01*
X58840000Y-124555000D02*
X62135000Y-124555000D01*
X62135000Y-124555000D02*
X62230000Y-124460000D01*
X62135000Y-132175000D02*
X62230000Y-132080000D01*
X58840000Y-132175000D02*
X62135000Y-132175000D01*
X62987994Y-131445000D02*
X70485000Y-131445000D01*
X58840000Y-130905000D02*
X62447994Y-130905000D01*
X62447994Y-130905000D02*
X62987994Y-131445000D01*
X58840000Y-129635000D02*
X62910000Y-129635000D01*
X62910000Y-129635000D02*
X63005000Y-129540000D01*
X63200154Y-128365000D02*
X64134990Y-129299836D01*
X58840000Y-128365000D02*
X63200154Y-128365000D01*
X64134990Y-129299836D02*
X64134990Y-130669990D01*
X69120000Y-127095000D02*
X70485000Y-125730000D01*
X69215000Y-127000000D02*
X70485000Y-125730000D01*
X69215000Y-130175000D02*
X69215000Y-127000000D01*
X58840000Y-127095000D02*
X69120000Y-127095000D01*
X58840000Y-125825000D02*
X62910000Y-125825000D01*
X62910000Y-125825000D02*
X63005000Y-125730000D01*
G36*
X73657501Y-151007500D02*
G01*
X64761303Y-151007500D01*
X64782571Y-150967710D01*
X64800726Y-150907861D01*
X64806856Y-150845620D01*
X64806856Y-148345620D01*
X64800726Y-148283379D01*
X64782571Y-148223530D01*
X64753089Y-148168373D01*
X64713413Y-148120027D01*
X64665067Y-148080351D01*
X64609910Y-148050869D01*
X64550061Y-148032714D01*
X64487820Y-148026584D01*
X64412595Y-148026584D01*
X64490258Y-147948921D01*
X64615290Y-147761797D01*
X64701414Y-147553875D01*
X64745320Y-147333146D01*
X64745320Y-147108094D01*
X64701414Y-146887365D01*
X64615290Y-146679443D01*
X64490258Y-146492319D01*
X64412595Y-146414656D01*
X64487820Y-146414656D01*
X64550061Y-146408526D01*
X64609910Y-146390371D01*
X64665067Y-146360889D01*
X64713413Y-146321213D01*
X64753089Y-146272867D01*
X64782571Y-146217710D01*
X64800726Y-146157861D01*
X64806856Y-146095620D01*
X64806856Y-143595620D01*
X64800726Y-143533379D01*
X64782571Y-143473530D01*
X64753089Y-143418373D01*
X64713413Y-143370027D01*
X64665067Y-143330351D01*
X64609910Y-143300869D01*
X64550061Y-143282714D01*
X64487820Y-143276584D01*
X63287820Y-143276584D01*
X63225579Y-143282714D01*
X63165730Y-143300869D01*
X63110573Y-143330351D01*
X63062227Y-143370027D01*
X63022551Y-143418373D01*
X62993069Y-143473530D01*
X62974914Y-143533379D01*
X62968784Y-143595620D01*
X62968784Y-146095620D01*
X62974914Y-146157861D01*
X62993069Y-146217710D01*
X63007350Y-146244427D01*
X62874519Y-146333182D01*
X62715382Y-146492319D01*
X62590350Y-146679443D01*
X62504226Y-146887365D01*
X62460320Y-147108094D01*
X62460320Y-147333146D01*
X62504226Y-147553875D01*
X62590350Y-147761797D01*
X62715382Y-147948921D01*
X62874519Y-148108058D01*
X63007350Y-148196813D01*
X62993069Y-148223530D01*
X62974914Y-148283379D01*
X62968784Y-148345620D01*
X62968784Y-150845620D01*
X62974914Y-150907861D01*
X62993069Y-150967710D01*
X63014337Y-151007500D01*
X48341303Y-151007500D01*
X48362571Y-150967710D01*
X48380726Y-150907861D01*
X48386856Y-150845620D01*
X48386856Y-148345620D01*
X48380726Y-148283379D01*
X48362571Y-148223530D01*
X48348290Y-148196813D01*
X48481121Y-148108058D01*
X48640258Y-147948921D01*
X48765290Y-147761797D01*
X48851414Y-147553875D01*
X48895320Y-147333146D01*
X48895320Y-147108094D01*
X48851414Y-146887365D01*
X48765290Y-146679443D01*
X48640258Y-146492319D01*
X48481121Y-146333182D01*
X48348290Y-146244427D01*
X48362571Y-146217710D01*
X48380726Y-146157861D01*
X48386856Y-146095620D01*
X48386856Y-143595620D01*
X48380726Y-143533379D01*
X48362571Y-143473530D01*
X48333089Y-143418373D01*
X48293413Y-143370027D01*
X48245067Y-143330351D01*
X48189910Y-143300869D01*
X48130061Y-143282714D01*
X48067820Y-143276584D01*
X46867820Y-143276584D01*
X46805579Y-143282714D01*
X46745730Y-143300869D01*
X46690573Y-143330351D01*
X46642227Y-143370027D01*
X46602551Y-143418373D01*
X46573069Y-143473530D01*
X46554914Y-143533379D01*
X46548784Y-143595620D01*
X46548784Y-146095620D01*
X46554914Y-146157861D01*
X46573069Y-146217710D01*
X46602551Y-146272867D01*
X46642227Y-146321213D01*
X46690573Y-146360889D01*
X46745730Y-146390371D01*
X46805579Y-146408526D01*
X46867820Y-146414656D01*
X46943045Y-146414656D01*
X46865382Y-146492319D01*
X46740350Y-146679443D01*
X46654226Y-146887365D01*
X46610320Y-147108094D01*
X46610320Y-147333146D01*
X46654226Y-147553875D01*
X46740350Y-147761797D01*
X46865382Y-147948921D01*
X46943045Y-148026584D01*
X46867820Y-148026584D01*
X46805579Y-148032714D01*
X46745730Y-148050869D01*
X46690573Y-148080351D01*
X46642227Y-148120027D01*
X46602551Y-148168373D01*
X46573069Y-148223530D01*
X46554914Y-148283379D01*
X46548784Y-148345620D01*
X46548784Y-150845620D01*
X46554914Y-150907861D01*
X46573069Y-150967710D01*
X46594337Y-151007500D01*
X40342500Y-151007500D01*
X40342500Y-144105156D01*
X40810320Y-144105156D01*
X40810320Y-146386885D01*
X40851811Y-146808148D01*
X41015778Y-147348674D01*
X41282045Y-147846826D01*
X41640382Y-148283459D01*
X42077015Y-148641795D01*
X42575167Y-148908062D01*
X43115693Y-149072029D01*
X43677820Y-149127394D01*
X44239948Y-149072029D01*
X44780474Y-148908062D01*
X45278626Y-148641795D01*
X45715259Y-148283459D01*
X46073595Y-147846826D01*
X46339862Y-147348674D01*
X46503829Y-146808148D01*
X46545320Y-146386885D01*
X46545320Y-144105155D01*
X46503829Y-143683892D01*
X46339862Y-143143366D01*
X46073595Y-142645214D01*
X45715258Y-142208581D01*
X45278625Y-141850245D01*
X44780473Y-141583978D01*
X44239947Y-141420011D01*
X43677820Y-141364646D01*
X43115692Y-141420011D01*
X42575166Y-141583978D01*
X42077014Y-141850245D01*
X41640381Y-142208582D01*
X41282045Y-142645215D01*
X41015778Y-143143367D01*
X40851811Y-143683893D01*
X40810320Y-144105156D01*
X40342500Y-144105156D01*
X40342500Y-137127500D01*
X42818215Y-137127500D01*
X42818215Y-140312500D01*
X51502885Y-140312500D01*
X51136024Y-140679361D01*
X51045928Y-140661440D01*
X50904592Y-140661440D01*
X50765973Y-140689013D01*
X50635396Y-140743099D01*
X50517880Y-140821621D01*
X50417941Y-140921560D01*
X50339419Y-141039076D01*
X50285333Y-141169653D01*
X50257760Y-141308272D01*
X50257760Y-141449608D01*
X50275681Y-141539704D01*
X49706647Y-142108739D01*
X49692110Y-142120669D01*
X49680181Y-142135205D01*
X49644498Y-142178684D01*
X49609119Y-142244873D01*
X49587334Y-142316692D01*
X49579977Y-142391380D01*
X49581821Y-142410100D01*
X49581820Y-143811584D01*
X49562820Y-143811584D01*
X49500579Y-143817714D01*
X49440730Y-143835869D01*
X49385573Y-143865351D01*
X49337227Y-143905027D01*
X49297551Y-143953373D01*
X49268069Y-144008530D01*
X49249914Y-144068379D01*
X49243784Y-144130620D01*
X49243784Y-145230620D01*
X49249914Y-145292861D01*
X49268069Y-145352710D01*
X49297551Y-145407867D01*
X49337227Y-145456213D01*
X49385573Y-145495889D01*
X49440730Y-145525371D01*
X49500579Y-145543526D01*
X49562820Y-145549656D01*
X49581820Y-145549656D01*
X49581821Y-148891584D01*
X49562820Y-148891584D01*
X49500579Y-148897714D01*
X49440730Y-148915869D01*
X49385573Y-148945351D01*
X49337227Y-148985027D01*
X49297551Y-149033373D01*
X49268069Y-149088530D01*
X49249914Y-149148379D01*
X49243784Y-149210620D01*
X49243784Y-150310620D01*
X49249914Y-150372861D01*
X49268069Y-150432710D01*
X49297551Y-150487867D01*
X49337227Y-150536213D01*
X49385573Y-150575889D01*
X49440730Y-150605371D01*
X49500579Y-150623526D01*
X49562820Y-150629656D01*
X50362820Y-150629656D01*
X50425061Y-150623526D01*
X50484910Y-150605371D01*
X50540067Y-150575889D01*
X50588413Y-150536213D01*
X50597820Y-150524750D01*
X50607227Y-150536213D01*
X50655573Y-150575889D01*
X50710730Y-150605371D01*
X50770579Y-150623526D01*
X50832820Y-150629656D01*
X51632820Y-150629656D01*
X51695061Y-150623526D01*
X51754910Y-150605371D01*
X51810067Y-150575889D01*
X51858413Y-150536213D01*
X51867820Y-150524750D01*
X51877227Y-150536213D01*
X51925573Y-150575889D01*
X51980730Y-150605371D01*
X52040579Y-150623526D01*
X52102820Y-150629656D01*
X52902820Y-150629656D01*
X52965061Y-150623526D01*
X53024910Y-150605371D01*
X53080067Y-150575889D01*
X53128413Y-150536213D01*
X53137820Y-150524750D01*
X53147227Y-150536213D01*
X53195573Y-150575889D01*
X53250730Y-150605371D01*
X53310579Y-150623526D01*
X53372820Y-150629656D01*
X54172820Y-150629656D01*
X54235061Y-150623526D01*
X54294910Y-150605371D01*
X54350067Y-150575889D01*
X54398413Y-150536213D01*
X54407820Y-150524750D01*
X54417227Y-150536213D01*
X54465573Y-150575889D01*
X54520730Y-150605371D01*
X54580579Y-150623526D01*
X54642820Y-150629656D01*
X55442820Y-150629656D01*
X55505061Y-150623526D01*
X55564910Y-150605371D01*
X55620067Y-150575889D01*
X55668413Y-150536213D01*
X55677820Y-150524750D01*
X55687227Y-150536213D01*
X55735573Y-150575889D01*
X55790730Y-150605371D01*
X55850579Y-150623526D01*
X55912820Y-150629656D01*
X56712820Y-150629656D01*
X56775061Y-150623526D01*
X56834910Y-150605371D01*
X56890067Y-150575889D01*
X56938413Y-150536213D01*
X56947820Y-150524750D01*
X56957227Y-150536213D01*
X57005573Y-150575889D01*
X57060730Y-150605371D01*
X57120579Y-150623526D01*
X57182820Y-150629656D01*
X57982820Y-150629656D01*
X58045061Y-150623526D01*
X58104910Y-150605371D01*
X58160067Y-150575889D01*
X58208413Y-150536213D01*
X58217820Y-150524750D01*
X58227227Y-150536213D01*
X58275573Y-150575889D01*
X58330730Y-150605371D01*
X58390579Y-150623526D01*
X58452820Y-150629656D01*
X59252820Y-150629656D01*
X59315061Y-150623526D01*
X59374910Y-150605371D01*
X59430067Y-150575889D01*
X59478413Y-150536213D01*
X59487820Y-150524750D01*
X59497227Y-150536213D01*
X59545573Y-150575889D01*
X59600730Y-150605371D01*
X59660579Y-150623526D01*
X59722820Y-150629656D01*
X60522820Y-150629656D01*
X60585061Y-150623526D01*
X60644910Y-150605371D01*
X60700067Y-150575889D01*
X60748413Y-150536213D01*
X60757820Y-150524750D01*
X60767227Y-150536213D01*
X60815573Y-150575889D01*
X60870730Y-150605371D01*
X60930579Y-150623526D01*
X60992820Y-150629656D01*
X61792820Y-150629656D01*
X61855061Y-150623526D01*
X61914910Y-150605371D01*
X61970067Y-150575889D01*
X62018413Y-150536213D01*
X62058089Y-150487867D01*
X62087571Y-150432710D01*
X62105726Y-150372861D01*
X62111856Y-150310620D01*
X62111856Y-149210620D01*
X62105726Y-149148379D01*
X62087571Y-149088530D01*
X62058089Y-149033373D01*
X62018413Y-148985027D01*
X61970067Y-148945351D01*
X61914910Y-148915869D01*
X61855061Y-148897714D01*
X61792820Y-148891584D01*
X60992820Y-148891584D01*
X60930579Y-148897714D01*
X60870730Y-148915869D01*
X60815573Y-148945351D01*
X60767227Y-148985027D01*
X60757820Y-148996490D01*
X60748413Y-148985027D01*
X60700067Y-148945351D01*
X60644910Y-148915869D01*
X60585061Y-148897714D01*
X60522820Y-148891584D01*
X59722820Y-148891584D01*
X59660579Y-148897714D01*
X59600730Y-148915869D01*
X59545573Y-148945351D01*
X59497227Y-148985027D01*
X59487820Y-148996490D01*
X59478413Y-148985027D01*
X59430067Y-148945351D01*
X59374910Y-148915869D01*
X59315061Y-148897714D01*
X59252820Y-148891584D01*
X59228864Y-148891584D01*
X59228307Y-148885931D01*
X59206521Y-148814112D01*
X59183465Y-148770979D01*
X59171142Y-148747923D01*
X59135459Y-148704444D01*
X59123531Y-148689909D01*
X59108994Y-148677979D01*
X57858066Y-147427052D01*
X57846131Y-147412509D01*
X57788116Y-147364898D01*
X57721928Y-147329519D01*
X57650109Y-147307733D01*
X57594133Y-147302220D01*
X57594130Y-147302220D01*
X57575420Y-147300377D01*
X57556710Y-147302220D01*
X56864275Y-147302220D01*
X56813239Y-147225840D01*
X56713300Y-147125901D01*
X56595784Y-147047379D01*
X56465207Y-146993293D01*
X56326588Y-146965720D01*
X56185252Y-146965720D01*
X56046633Y-146993293D01*
X55916056Y-147047379D01*
X55798540Y-147125901D01*
X55698601Y-147225840D01*
X55620079Y-147343356D01*
X55565993Y-147473933D01*
X55538420Y-147612552D01*
X55538420Y-147753888D01*
X55565993Y-147892507D01*
X55620079Y-148023084D01*
X55698601Y-148140600D01*
X55798540Y-148240539D01*
X55916056Y-148319061D01*
X56046633Y-148373147D01*
X56185252Y-148400720D01*
X56326588Y-148400720D01*
X56465207Y-148373147D01*
X56595784Y-148319061D01*
X56713300Y-148240539D01*
X56813239Y-148140600D01*
X56864275Y-148064220D01*
X57417606Y-148064220D01*
X58290668Y-148937283D01*
X58275573Y-148945351D01*
X58227227Y-148985027D01*
X58217820Y-148996490D01*
X58208413Y-148985027D01*
X58160067Y-148945351D01*
X58104910Y-148915869D01*
X58045061Y-148897714D01*
X57982820Y-148891584D01*
X57182820Y-148891584D01*
X57120579Y-148897714D01*
X57060730Y-148915869D01*
X57005573Y-148945351D01*
X56957227Y-148985027D01*
X56947820Y-148996490D01*
X56938413Y-148985027D01*
X56890067Y-148945351D01*
X56834910Y-148915869D01*
X56775061Y-148897714D01*
X56712820Y-148891584D01*
X55912820Y-148891584D01*
X55850579Y-148897714D01*
X55790730Y-148915869D01*
X55735573Y-148945351D01*
X55687227Y-148985027D01*
X55677820Y-148996490D01*
X55668413Y-148985027D01*
X55620067Y-148945351D01*
X55564910Y-148915869D01*
X55505061Y-148897714D01*
X55442820Y-148891584D01*
X55423820Y-148891584D01*
X55423820Y-145549656D01*
X55442820Y-145549656D01*
X55505061Y-145543526D01*
X55564910Y-145525371D01*
X55620067Y-145495889D01*
X55668413Y-145456213D01*
X55677820Y-145444750D01*
X55687227Y-145456213D01*
X55735573Y-145495889D01*
X55790730Y-145525371D01*
X55850579Y-145543526D01*
X55912820Y-145549656D01*
X56712820Y-145549656D01*
X56775061Y-145543526D01*
X56834910Y-145525371D01*
X56890067Y-145495889D01*
X56938413Y-145456213D01*
X56947820Y-145444750D01*
X56957227Y-145456213D01*
X57005573Y-145495889D01*
X57060730Y-145525371D01*
X57120579Y-145543526D01*
X57182820Y-145549656D01*
X57982820Y-145549656D01*
X58045061Y-145543526D01*
X58104910Y-145525371D01*
X58160067Y-145495889D01*
X58208413Y-145456213D01*
X58217820Y-145444750D01*
X58227227Y-145456213D01*
X58275573Y-145495889D01*
X58330730Y-145525371D01*
X58390579Y-145543526D01*
X58452820Y-145549656D01*
X59252820Y-145549656D01*
X59315061Y-145543526D01*
X59374910Y-145525371D01*
X59430067Y-145495889D01*
X59478413Y-145456213D01*
X59487820Y-145444750D01*
X59497227Y-145456213D01*
X59545573Y-145495889D01*
X59600730Y-145525371D01*
X59660579Y-145543526D01*
X59722820Y-145549656D01*
X60522820Y-145549656D01*
X60585061Y-145543526D01*
X60644910Y-145525371D01*
X60700067Y-145495889D01*
X60748413Y-145456213D01*
X60757820Y-145444750D01*
X60767227Y-145456213D01*
X60815573Y-145495889D01*
X60870730Y-145525371D01*
X60930579Y-145543526D01*
X60992820Y-145549656D01*
X61792820Y-145549656D01*
X61855061Y-145543526D01*
X61914910Y-145525371D01*
X61970067Y-145495889D01*
X62018413Y-145456213D01*
X62058089Y-145407867D01*
X62087571Y-145352710D01*
X62105726Y-145292861D01*
X62111856Y-145230620D01*
X62111856Y-144130620D01*
X62105726Y-144068379D01*
X62087571Y-144008530D01*
X62058089Y-143953373D01*
X62018413Y-143905027D01*
X61970067Y-143865351D01*
X61914910Y-143835869D01*
X61855061Y-143817714D01*
X61792820Y-143811584D01*
X60992820Y-143811584D01*
X60930579Y-143817714D01*
X60870730Y-143835869D01*
X60815573Y-143865351D01*
X60767227Y-143905027D01*
X60757820Y-143916490D01*
X60748413Y-143905027D01*
X60700067Y-143865351D01*
X60644910Y-143835869D01*
X60585061Y-143817714D01*
X60522820Y-143811584D01*
X59722820Y-143811584D01*
X59660579Y-143817714D01*
X59600730Y-143835869D01*
X59545573Y-143865351D01*
X59497227Y-143905027D01*
X59487820Y-143916490D01*
X59478413Y-143905027D01*
X59430067Y-143865351D01*
X59374910Y-143835869D01*
X59315061Y-143817714D01*
X59252820Y-143811584D01*
X58452820Y-143811584D01*
X58390579Y-143817714D01*
X58330730Y-143835869D01*
X58275573Y-143865351D01*
X58227227Y-143905027D01*
X58217820Y-143916490D01*
X58208413Y-143905027D01*
X58160067Y-143865351D01*
X58104910Y-143835869D01*
X58045061Y-143817714D01*
X57982820Y-143811584D01*
X57182820Y-143811584D01*
X57120579Y-143817714D01*
X57060730Y-143835869D01*
X57005573Y-143865351D01*
X56957227Y-143905027D01*
X56947820Y-143916490D01*
X56938413Y-143905027D01*
X56890067Y-143865351D01*
X56834910Y-143835869D01*
X56775061Y-143817714D01*
X56712820Y-143811584D01*
X55912820Y-143811584D01*
X55850579Y-143817714D01*
X55790730Y-143835869D01*
X55735573Y-143865351D01*
X55687227Y-143905027D01*
X55677820Y-143916490D01*
X55668413Y-143905027D01*
X55620067Y-143865351D01*
X55564910Y-143835869D01*
X55505061Y-143817714D01*
X55449970Y-143812288D01*
X56443515Y-142818744D01*
X56458051Y-142806815D01*
X56499377Y-142756459D01*
X56505662Y-142748801D01*
X56541041Y-142682612D01*
X56552385Y-142645215D01*
X56562827Y-142610793D01*
X56568340Y-142554817D01*
X56568340Y-142554814D01*
X56570183Y-142536104D01*
X56568340Y-142517394D01*
X56568340Y-141628790D01*
X56570183Y-141610080D01*
X56568340Y-141591367D01*
X56562827Y-141535391D01*
X56541041Y-141463572D01*
X56505662Y-141397384D01*
X56469980Y-141353904D01*
X56469977Y-141353901D01*
X56458051Y-141339369D01*
X56443519Y-141327443D01*
X56124336Y-141008262D01*
X56112402Y-140993720D01*
X56054387Y-140946109D01*
X55988199Y-140910730D01*
X55916380Y-140888944D01*
X55860404Y-140883431D01*
X55860401Y-140883431D01*
X55841691Y-140881588D01*
X55822981Y-140883431D01*
X52831600Y-140883431D01*
X52780564Y-140807051D01*
X52680625Y-140707112D01*
X52563109Y-140628590D01*
X52432532Y-140574504D01*
X52337428Y-140555587D01*
X52424614Y-140468401D01*
X57811387Y-140468401D01*
X58032841Y-140689856D01*
X58014920Y-140779952D01*
X58014920Y-140921288D01*
X58042493Y-141059907D01*
X58096579Y-141190484D01*
X58175101Y-141308000D01*
X58275040Y-141407939D01*
X58392556Y-141486461D01*
X58523133Y-141540547D01*
X58661752Y-141568120D01*
X58803088Y-141568120D01*
X58941707Y-141540547D01*
X59072284Y-141486461D01*
X59189800Y-141407939D01*
X59289739Y-141308000D01*
X59368261Y-141190484D01*
X59422347Y-141059907D01*
X59449920Y-140921288D01*
X59449920Y-140779952D01*
X59422347Y-140641333D01*
X59368261Y-140510756D01*
X59289739Y-140393240D01*
X59208999Y-140312500D01*
X63181786Y-140312500D01*
X63181786Y-140270000D01*
X63994026Y-140270000D01*
X64049391Y-140832128D01*
X64213358Y-141372654D01*
X64479625Y-141870806D01*
X64837961Y-142307439D01*
X65274594Y-142665775D01*
X65772746Y-142932042D01*
X66313272Y-143096009D01*
X66734535Y-143137500D01*
X69016265Y-143137500D01*
X69437528Y-143096009D01*
X69978054Y-142932042D01*
X70476206Y-142665775D01*
X70912839Y-142307439D01*
X71271175Y-141870806D01*
X71537442Y-141372654D01*
X71701409Y-140832128D01*
X71756774Y-140270000D01*
X71701409Y-139707872D01*
X71537442Y-139167346D01*
X71271175Y-138669194D01*
X70912839Y-138232561D01*
X70476206Y-137874225D01*
X69978054Y-137607958D01*
X69437528Y-137443991D01*
X69016265Y-137402500D01*
X66734535Y-137402500D01*
X66313272Y-137443991D01*
X65772746Y-137607958D01*
X65274594Y-137874225D01*
X64837961Y-138232561D01*
X64479625Y-138669194D01*
X64213358Y-139167346D01*
X64049391Y-139707872D01*
X63994026Y-140270000D01*
X63181786Y-140270000D01*
X63181786Y-137127500D01*
X42818215Y-137127500D01*
X40342500Y-137127500D01*
X40342500Y-136082474D01*
X68707500Y-136082474D01*
X68707500Y-136307526D01*
X68751406Y-136528255D01*
X68837530Y-136736177D01*
X68962562Y-136923301D01*
X69121699Y-137082438D01*
X69308823Y-137207470D01*
X69516745Y-137293594D01*
X69737474Y-137337500D01*
X69962526Y-137337500D01*
X70183255Y-137293594D01*
X70391177Y-137207470D01*
X70578301Y-137082438D01*
X70737438Y-136923301D01*
X70862470Y-136736177D01*
X70948594Y-136528255D01*
X70992500Y-136307526D01*
X70992500Y-136082474D01*
X70948594Y-135861745D01*
X70862470Y-135653823D01*
X70737438Y-135466699D01*
X70578301Y-135307562D01*
X70391177Y-135182530D01*
X70183255Y-135096406D01*
X69962526Y-135052500D01*
X69737474Y-135052500D01*
X69516745Y-135096406D01*
X69308823Y-135182530D01*
X69121699Y-135307562D01*
X68962562Y-135466699D01*
X68837530Y-135653823D01*
X68751406Y-135861745D01*
X68707500Y-136082474D01*
X40342500Y-136082474D01*
X40342500Y-133415596D01*
X40347094Y-133462241D01*
X40365249Y-133522090D01*
X40394731Y-133577247D01*
X40434407Y-133625593D01*
X40482753Y-133665269D01*
X40537910Y-133694751D01*
X40597759Y-133712906D01*
X40660000Y-133719036D01*
X45160000Y-133719036D01*
X45222241Y-133712906D01*
X45282090Y-133694751D01*
X45337247Y-133665269D01*
X45385593Y-133625593D01*
X45425269Y-133577247D01*
X45454751Y-133522090D01*
X45472906Y-133462241D01*
X45479036Y-133400000D01*
X45479036Y-124600000D01*
X45472906Y-124537759D01*
X45454751Y-124477910D01*
X45425269Y-124422753D01*
X45385593Y-124374407D01*
X45337247Y-124334731D01*
X45282090Y-124305249D01*
X45222241Y-124287094D01*
X45160000Y-124280964D01*
X40660000Y-124280964D01*
X40597759Y-124287094D01*
X40537910Y-124305249D01*
X40482753Y-124334731D01*
X40434407Y-124374407D01*
X40394731Y-124422753D01*
X40365249Y-124477910D01*
X40347094Y-124537759D01*
X40342500Y-124584404D01*
X40342500Y-124175000D01*
X56020964Y-124175000D01*
X56020964Y-124935000D01*
X56027094Y-124997241D01*
X56045249Y-125057090D01*
X56074731Y-125112247D01*
X56114407Y-125160593D01*
X56150240Y-125190000D01*
X56114407Y-125219407D01*
X56074731Y-125267753D01*
X56045249Y-125322910D01*
X56027094Y-125382759D01*
X56020964Y-125445000D01*
X56020964Y-126205000D01*
X56027094Y-126267241D01*
X56045249Y-126327090D01*
X56074731Y-126382247D01*
X56114407Y-126430593D01*
X56150240Y-126460000D01*
X56114407Y-126489407D01*
X56074731Y-126537753D01*
X56045249Y-126592910D01*
X56027094Y-126652759D01*
X56020964Y-126715000D01*
X56020964Y-127475000D01*
X56027094Y-127537241D01*
X56045249Y-127597090D01*
X56074731Y-127652247D01*
X56114407Y-127700593D01*
X56150240Y-127730000D01*
X56114407Y-127759407D01*
X56074731Y-127807753D01*
X56045249Y-127862910D01*
X56027094Y-127922759D01*
X56020964Y-127985000D01*
X56020964Y-128745000D01*
X56027094Y-128807241D01*
X56045249Y-128867090D01*
X56074731Y-128922247D01*
X56114407Y-128970593D01*
X56150240Y-129000000D01*
X56114407Y-129029407D01*
X56074731Y-129077753D01*
X56045249Y-129132910D01*
X56027094Y-129192759D01*
X56020964Y-129255000D01*
X56020964Y-130015000D01*
X56027094Y-130077241D01*
X56045249Y-130137090D01*
X56074731Y-130192247D01*
X56114407Y-130240593D01*
X56150240Y-130270000D01*
X56114407Y-130299407D01*
X56074731Y-130347753D01*
X56045249Y-130402910D01*
X56027094Y-130462759D01*
X56020964Y-130525000D01*
X56020964Y-131285000D01*
X56027094Y-131347241D01*
X56045249Y-131407090D01*
X56074731Y-131462247D01*
X56114407Y-131510593D01*
X56150240Y-131540000D01*
X56114407Y-131569407D01*
X56074731Y-131617753D01*
X56045249Y-131672910D01*
X56027094Y-131732759D01*
X56020964Y-131795000D01*
X56020964Y-132555000D01*
X56027094Y-132617241D01*
X56045249Y-132677090D01*
X56074731Y-132732247D01*
X56114407Y-132780593D01*
X56150240Y-132810000D01*
X56114407Y-132839407D01*
X56074731Y-132887753D01*
X56045249Y-132942910D01*
X56027094Y-133002759D01*
X56020964Y-133065000D01*
X56020964Y-133825000D01*
X56027094Y-133887241D01*
X56045249Y-133947090D01*
X56074731Y-134002247D01*
X56114407Y-134050593D01*
X56162753Y-134090269D01*
X56217910Y-134119751D01*
X56277759Y-134137906D01*
X56340000Y-134144036D01*
X61340000Y-134144036D01*
X61402241Y-134137906D01*
X61462090Y-134119751D01*
X61517247Y-134090269D01*
X61565593Y-134050593D01*
X61605269Y-134002247D01*
X61634751Y-133947090D01*
X61652906Y-133887241D01*
X61658938Y-133826000D01*
X69736290Y-133826000D01*
X69755000Y-133827843D01*
X69773710Y-133826000D01*
X69773713Y-133826000D01*
X69829689Y-133820487D01*
X69901508Y-133798701D01*
X69967696Y-133763322D01*
X70025711Y-133715711D01*
X70037646Y-133701168D01*
X70324236Y-133414579D01*
X70414332Y-133432500D01*
X70555668Y-133432500D01*
X70694287Y-133404927D01*
X70824864Y-133350841D01*
X70942380Y-133272319D01*
X71042319Y-133172380D01*
X71120841Y-133054864D01*
X71174927Y-132924287D01*
X71202500Y-132785668D01*
X71202500Y-132644332D01*
X71174927Y-132505713D01*
X71120841Y-132375136D01*
X71042319Y-132257620D01*
X70942380Y-132157681D01*
X70826123Y-132080000D01*
X70942380Y-132002319D01*
X71042319Y-131902380D01*
X71120841Y-131784864D01*
X71174927Y-131654287D01*
X71202500Y-131515668D01*
X71202500Y-131374332D01*
X71174927Y-131235713D01*
X71120841Y-131105136D01*
X71042319Y-130987620D01*
X70942380Y-130887681D01*
X70824864Y-130809159D01*
X70694287Y-130755073D01*
X70555668Y-130727500D01*
X70414332Y-130727500D01*
X70275713Y-130755073D01*
X70145136Y-130809159D01*
X70027620Y-130887681D01*
X69927681Y-130987620D01*
X69876645Y-131064000D01*
X64734652Y-131064000D01*
X64770831Y-131009854D01*
X64824917Y-130879277D01*
X64852490Y-130740658D01*
X64852490Y-130599322D01*
X64824917Y-130460703D01*
X64770831Y-130330126D01*
X64692309Y-130212610D01*
X64592370Y-130112671D01*
X64515990Y-130061635D01*
X64515990Y-129318546D01*
X64517833Y-129299836D01*
X64515990Y-129281123D01*
X64510477Y-129225147D01*
X64488691Y-129153328D01*
X64453313Y-129087141D01*
X64453312Y-129087139D01*
X64417629Y-129043660D01*
X64405701Y-129029125D01*
X64391165Y-129017196D01*
X63482800Y-128108832D01*
X63470865Y-128094289D01*
X63412850Y-128046678D01*
X63346662Y-128011299D01*
X63274843Y-127989513D01*
X63218867Y-127984000D01*
X63218864Y-127984000D01*
X63200154Y-127982157D01*
X63181444Y-127984000D01*
X61658938Y-127984000D01*
X61652906Y-127922759D01*
X61634751Y-127862910D01*
X61605269Y-127807753D01*
X61565593Y-127759407D01*
X61529760Y-127730000D01*
X61565593Y-127700593D01*
X61605269Y-127652247D01*
X61634751Y-127597090D01*
X61652906Y-127537241D01*
X61658938Y-127476000D01*
X68834001Y-127476000D01*
X68834000Y-129566645D01*
X68757620Y-129617681D01*
X68657681Y-129717620D01*
X68579159Y-129835136D01*
X68525073Y-129965713D01*
X68497500Y-130104332D01*
X68497500Y-130245668D01*
X68525073Y-130384287D01*
X68579159Y-130514864D01*
X68657681Y-130632380D01*
X68757620Y-130732319D01*
X68875136Y-130810841D01*
X69005713Y-130864927D01*
X69144332Y-130892500D01*
X69285668Y-130892500D01*
X69424287Y-130864927D01*
X69554864Y-130810841D01*
X69672380Y-130732319D01*
X69772319Y-130632380D01*
X69850841Y-130514864D01*
X69904927Y-130384287D01*
X69932500Y-130245668D01*
X69932500Y-130104332D01*
X69904927Y-129965713D01*
X69850841Y-129835136D01*
X69772319Y-129717620D01*
X69672380Y-129617681D01*
X69596000Y-129566645D01*
X69596000Y-127157814D01*
X70324236Y-126429579D01*
X70414332Y-126447500D01*
X70555668Y-126447500D01*
X70694287Y-126419927D01*
X70824864Y-126365841D01*
X70942380Y-126287319D01*
X71042319Y-126187380D01*
X71120841Y-126069864D01*
X71174927Y-125939287D01*
X71202500Y-125800668D01*
X71202500Y-125659332D01*
X71174927Y-125520713D01*
X71120841Y-125390136D01*
X71042319Y-125272620D01*
X70942380Y-125172681D01*
X70824864Y-125094159D01*
X70694287Y-125040073D01*
X70555668Y-125012500D01*
X70414332Y-125012500D01*
X70275713Y-125040073D01*
X70145136Y-125094159D01*
X70027620Y-125172681D01*
X69927681Y-125272620D01*
X69849159Y-125390136D01*
X69795073Y-125520713D01*
X69767500Y-125659332D01*
X69767500Y-125800668D01*
X69785421Y-125890764D01*
X68962186Y-126714000D01*
X61658938Y-126714000D01*
X61652906Y-126652759D01*
X61634751Y-126592910D01*
X61605269Y-126537753D01*
X61565593Y-126489407D01*
X61529760Y-126460000D01*
X61565593Y-126430593D01*
X61605269Y-126382247D01*
X61634751Y-126327090D01*
X61652906Y-126267241D01*
X61658938Y-126206000D01*
X62466301Y-126206000D01*
X62547620Y-126287319D01*
X62665136Y-126365841D01*
X62795713Y-126419927D01*
X62934332Y-126447500D01*
X63075668Y-126447500D01*
X63214287Y-126419927D01*
X63344864Y-126365841D01*
X63462380Y-126287319D01*
X63562319Y-126187380D01*
X63640841Y-126069864D01*
X63694927Y-125939287D01*
X63722500Y-125800668D01*
X63722500Y-125659332D01*
X63694927Y-125520713D01*
X63640841Y-125390136D01*
X63562319Y-125272620D01*
X63462380Y-125172681D01*
X63344864Y-125094159D01*
X63214287Y-125040073D01*
X63075668Y-125012500D01*
X62934332Y-125012500D01*
X62795713Y-125040073D01*
X62665136Y-125094159D01*
X62547620Y-125172681D01*
X62447681Y-125272620D01*
X62369159Y-125390136D01*
X62346848Y-125444000D01*
X61658938Y-125444000D01*
X61652906Y-125382759D01*
X61634751Y-125322910D01*
X61605269Y-125267753D01*
X61565593Y-125219407D01*
X61529760Y-125190000D01*
X61565593Y-125160593D01*
X61605269Y-125112247D01*
X61634751Y-125057090D01*
X61652906Y-124997241D01*
X61658938Y-124936000D01*
X61691301Y-124936000D01*
X61772620Y-125017319D01*
X61890136Y-125095841D01*
X62020713Y-125149927D01*
X62159332Y-125177500D01*
X62300668Y-125177500D01*
X62439287Y-125149927D01*
X62569864Y-125095841D01*
X62687380Y-125017319D01*
X62787319Y-124917380D01*
X62865841Y-124799864D01*
X62919927Y-124669287D01*
X62947500Y-124530668D01*
X62947500Y-124389332D01*
X62919927Y-124250713D01*
X62865841Y-124120136D01*
X62787319Y-124002620D01*
X62687380Y-123902681D01*
X62569864Y-123824159D01*
X62439287Y-123770073D01*
X62300668Y-123742500D01*
X62159332Y-123742500D01*
X62020713Y-123770073D01*
X61890136Y-123824159D01*
X61772620Y-123902681D01*
X61672681Y-124002620D01*
X61636102Y-124057364D01*
X61634751Y-124052910D01*
X61605269Y-123997753D01*
X61565593Y-123949407D01*
X61517247Y-123909731D01*
X61462090Y-123880249D01*
X61402241Y-123862094D01*
X61340000Y-123855964D01*
X56340000Y-123855964D01*
X56277759Y-123862094D01*
X56217910Y-123880249D01*
X56162753Y-123909731D01*
X56114407Y-123949407D01*
X56074731Y-123997753D01*
X56045249Y-124052910D01*
X56027094Y-124112759D01*
X56020964Y-124175000D01*
X40342500Y-124175000D01*
X40342500Y-120232474D01*
X68707500Y-120232474D01*
X68707500Y-120457526D01*
X68751406Y-120678255D01*
X68837530Y-120886177D01*
X68962562Y-121073301D01*
X69121699Y-121232438D01*
X69308823Y-121357470D01*
X69516745Y-121443594D01*
X69737474Y-121487500D01*
X69962526Y-121487500D01*
X70183255Y-121443594D01*
X70391177Y-121357470D01*
X70578301Y-121232438D01*
X70737438Y-121073301D01*
X70862470Y-120886177D01*
X70948594Y-120678255D01*
X70992500Y-120457526D01*
X70992500Y-120232474D01*
X70948594Y-120011745D01*
X70862470Y-119803823D01*
X70737438Y-119616699D01*
X70578301Y-119457562D01*
X70391177Y-119332530D01*
X70183255Y-119246406D01*
X69962526Y-119202500D01*
X69737474Y-119202500D01*
X69516745Y-119246406D01*
X69308823Y-119332530D01*
X69121699Y-119457562D01*
X68962562Y-119616699D01*
X68837530Y-119803823D01*
X68751406Y-120011745D01*
X68707500Y-120232474D01*
X40342500Y-120232474D01*
X40342500Y-118342500D01*
X73657500Y-118342500D01*
X73657501Y-151007500D01*
G37*
X73657501Y-151007500D02*
X64761303Y-151007500D01*
X64782571Y-150967710D01*
X64800726Y-150907861D01*
X64806856Y-150845620D01*
X64806856Y-148345620D01*
X64800726Y-148283379D01*
X64782571Y-148223530D01*
X64753089Y-148168373D01*
X64713413Y-148120027D01*
X64665067Y-148080351D01*
X64609910Y-148050869D01*
X64550061Y-148032714D01*
X64487820Y-148026584D01*
X64412595Y-148026584D01*
X64490258Y-147948921D01*
X64615290Y-147761797D01*
X64701414Y-147553875D01*
X64745320Y-147333146D01*
X64745320Y-147108094D01*
X64701414Y-146887365D01*
X64615290Y-146679443D01*
X64490258Y-146492319D01*
X64412595Y-146414656D01*
X64487820Y-146414656D01*
X64550061Y-146408526D01*
X64609910Y-146390371D01*
X64665067Y-146360889D01*
X64713413Y-146321213D01*
X64753089Y-146272867D01*
X64782571Y-146217710D01*
X64800726Y-146157861D01*
X64806856Y-146095620D01*
X64806856Y-143595620D01*
X64800726Y-143533379D01*
X64782571Y-143473530D01*
X64753089Y-143418373D01*
X64713413Y-143370027D01*
X64665067Y-143330351D01*
X64609910Y-143300869D01*
X64550061Y-143282714D01*
X64487820Y-143276584D01*
X63287820Y-143276584D01*
X63225579Y-143282714D01*
X63165730Y-143300869D01*
X63110573Y-143330351D01*
X63062227Y-143370027D01*
X63022551Y-143418373D01*
X62993069Y-143473530D01*
X62974914Y-143533379D01*
X62968784Y-143595620D01*
X62968784Y-146095620D01*
X62974914Y-146157861D01*
X62993069Y-146217710D01*
X63007350Y-146244427D01*
X62874519Y-146333182D01*
X62715382Y-146492319D01*
X62590350Y-146679443D01*
X62504226Y-146887365D01*
X62460320Y-147108094D01*
X62460320Y-147333146D01*
X62504226Y-147553875D01*
X62590350Y-147761797D01*
X62715382Y-147948921D01*
X62874519Y-148108058D01*
X63007350Y-148196813D01*
X62993069Y-148223530D01*
X62974914Y-148283379D01*
X62968784Y-148345620D01*
X62968784Y-150845620D01*
X62974914Y-150907861D01*
X62993069Y-150967710D01*
X63014337Y-151007500D01*
X48341303Y-151007500D01*
X48362571Y-150967710D01*
X48380726Y-150907861D01*
X48386856Y-150845620D01*
X48386856Y-148345620D01*
X48380726Y-148283379D01*
X48362571Y-148223530D01*
X48348290Y-148196813D01*
X48481121Y-148108058D01*
X48640258Y-147948921D01*
X48765290Y-147761797D01*
X48851414Y-147553875D01*
X48895320Y-147333146D01*
X48895320Y-147108094D01*
X48851414Y-146887365D01*
X48765290Y-146679443D01*
X48640258Y-146492319D01*
X48481121Y-146333182D01*
X48348290Y-146244427D01*
X48362571Y-146217710D01*
X48380726Y-146157861D01*
X48386856Y-146095620D01*
X48386856Y-143595620D01*
X48380726Y-143533379D01*
X48362571Y-143473530D01*
X48333089Y-143418373D01*
X48293413Y-143370027D01*
X48245067Y-143330351D01*
X48189910Y-143300869D01*
X48130061Y-143282714D01*
X48067820Y-143276584D01*
X46867820Y-143276584D01*
X46805579Y-143282714D01*
X46745730Y-143300869D01*
X46690573Y-143330351D01*
X46642227Y-143370027D01*
X46602551Y-143418373D01*
X46573069Y-143473530D01*
X46554914Y-143533379D01*
X46548784Y-143595620D01*
X46548784Y-146095620D01*
X46554914Y-146157861D01*
X46573069Y-146217710D01*
X46602551Y-146272867D01*
X46642227Y-146321213D01*
X46690573Y-146360889D01*
X46745730Y-146390371D01*
X46805579Y-146408526D01*
X46867820Y-146414656D01*
X46943045Y-146414656D01*
X46865382Y-146492319D01*
X46740350Y-146679443D01*
X46654226Y-146887365D01*
X46610320Y-147108094D01*
X46610320Y-147333146D01*
X46654226Y-147553875D01*
X46740350Y-147761797D01*
X46865382Y-147948921D01*
X46943045Y-148026584D01*
X46867820Y-148026584D01*
X46805579Y-148032714D01*
X46745730Y-148050869D01*
X46690573Y-148080351D01*
X46642227Y-148120027D01*
X46602551Y-148168373D01*
X46573069Y-148223530D01*
X46554914Y-148283379D01*
X46548784Y-148345620D01*
X46548784Y-150845620D01*
X46554914Y-150907861D01*
X46573069Y-150967710D01*
X46594337Y-151007500D01*
X40342500Y-151007500D01*
X40342500Y-144105156D01*
X40810320Y-144105156D01*
X40810320Y-146386885D01*
X40851811Y-146808148D01*
X41015778Y-147348674D01*
X41282045Y-147846826D01*
X41640382Y-148283459D01*
X42077015Y-148641795D01*
X42575167Y-148908062D01*
X43115693Y-149072029D01*
X43677820Y-149127394D01*
X44239948Y-149072029D01*
X44780474Y-148908062D01*
X45278626Y-148641795D01*
X45715259Y-148283459D01*
X46073595Y-147846826D01*
X46339862Y-147348674D01*
X46503829Y-146808148D01*
X46545320Y-146386885D01*
X46545320Y-144105155D01*
X46503829Y-143683892D01*
X46339862Y-143143366D01*
X46073595Y-142645214D01*
X45715258Y-142208581D01*
X45278625Y-141850245D01*
X44780473Y-141583978D01*
X44239947Y-141420011D01*
X43677820Y-141364646D01*
X43115692Y-141420011D01*
X42575166Y-141583978D01*
X42077014Y-141850245D01*
X41640381Y-142208582D01*
X41282045Y-142645215D01*
X41015778Y-143143367D01*
X40851811Y-143683893D01*
X40810320Y-144105156D01*
X40342500Y-144105156D01*
X40342500Y-137127500D01*
X42818215Y-137127500D01*
X42818215Y-140312500D01*
X51502885Y-140312500D01*
X51136024Y-140679361D01*
X51045928Y-140661440D01*
X50904592Y-140661440D01*
X50765973Y-140689013D01*
X50635396Y-140743099D01*
X50517880Y-140821621D01*
X50417941Y-140921560D01*
X50339419Y-141039076D01*
X50285333Y-141169653D01*
X50257760Y-141308272D01*
X50257760Y-141449608D01*
X50275681Y-141539704D01*
X49706647Y-142108739D01*
X49692110Y-142120669D01*
X49680181Y-142135205D01*
X49644498Y-142178684D01*
X49609119Y-142244873D01*
X49587334Y-142316692D01*
X49579977Y-142391380D01*
X49581821Y-142410100D01*
X49581820Y-143811584D01*
X49562820Y-143811584D01*
X49500579Y-143817714D01*
X49440730Y-143835869D01*
X49385573Y-143865351D01*
X49337227Y-143905027D01*
X49297551Y-143953373D01*
X49268069Y-144008530D01*
X49249914Y-144068379D01*
X49243784Y-144130620D01*
X49243784Y-145230620D01*
X49249914Y-145292861D01*
X49268069Y-145352710D01*
X49297551Y-145407867D01*
X49337227Y-145456213D01*
X49385573Y-145495889D01*
X49440730Y-145525371D01*
X49500579Y-145543526D01*
X49562820Y-145549656D01*
X49581820Y-145549656D01*
X49581821Y-148891584D01*
X49562820Y-148891584D01*
X49500579Y-148897714D01*
X49440730Y-148915869D01*
X49385573Y-148945351D01*
X49337227Y-148985027D01*
X49297551Y-149033373D01*
X49268069Y-149088530D01*
X49249914Y-149148379D01*
X49243784Y-149210620D01*
X49243784Y-150310620D01*
X49249914Y-150372861D01*
X49268069Y-150432710D01*
X49297551Y-150487867D01*
X49337227Y-150536213D01*
X49385573Y-150575889D01*
X49440730Y-150605371D01*
X49500579Y-150623526D01*
X49562820Y-150629656D01*
X50362820Y-150629656D01*
X50425061Y-150623526D01*
X50484910Y-150605371D01*
X50540067Y-150575889D01*
X50588413Y-150536213D01*
X50597820Y-150524750D01*
X50607227Y-150536213D01*
X50655573Y-150575889D01*
X50710730Y-150605371D01*
X50770579Y-150623526D01*
X50832820Y-150629656D01*
X51632820Y-150629656D01*
X51695061Y-150623526D01*
X51754910Y-150605371D01*
X51810067Y-150575889D01*
X51858413Y-150536213D01*
X51867820Y-150524750D01*
X51877227Y-150536213D01*
X51925573Y-150575889D01*
X51980730Y-150605371D01*
X52040579Y-150623526D01*
X52102820Y-150629656D01*
X52902820Y-150629656D01*
X52965061Y-150623526D01*
X53024910Y-150605371D01*
X53080067Y-150575889D01*
X53128413Y-150536213D01*
X53137820Y-150524750D01*
X53147227Y-150536213D01*
X53195573Y-150575889D01*
X53250730Y-150605371D01*
X53310579Y-150623526D01*
X53372820Y-150629656D01*
X54172820Y-150629656D01*
X54235061Y-150623526D01*
X54294910Y-150605371D01*
X54350067Y-150575889D01*
X54398413Y-150536213D01*
X54407820Y-150524750D01*
X54417227Y-150536213D01*
X54465573Y-150575889D01*
X54520730Y-150605371D01*
X54580579Y-150623526D01*
X54642820Y-150629656D01*
X55442820Y-150629656D01*
X55505061Y-150623526D01*
X55564910Y-150605371D01*
X55620067Y-150575889D01*
X55668413Y-150536213D01*
X55677820Y-150524750D01*
X55687227Y-150536213D01*
X55735573Y-150575889D01*
X55790730Y-150605371D01*
X55850579Y-150623526D01*
X55912820Y-150629656D01*
X56712820Y-150629656D01*
X56775061Y-150623526D01*
X56834910Y-150605371D01*
X56890067Y-150575889D01*
X56938413Y-150536213D01*
X56947820Y-150524750D01*
X56957227Y-150536213D01*
X57005573Y-150575889D01*
X57060730Y-150605371D01*
X57120579Y-150623526D01*
X57182820Y-150629656D01*
X57982820Y-150629656D01*
X58045061Y-150623526D01*
X58104910Y-150605371D01*
X58160067Y-150575889D01*
X58208413Y-150536213D01*
X58217820Y-150524750D01*
X58227227Y-150536213D01*
X58275573Y-150575889D01*
X58330730Y-150605371D01*
X58390579Y-150623526D01*
X58452820Y-150629656D01*
X59252820Y-150629656D01*
X59315061Y-150623526D01*
X59374910Y-150605371D01*
X59430067Y-150575889D01*
X59478413Y-150536213D01*
X59487820Y-150524750D01*
X59497227Y-150536213D01*
X59545573Y-150575889D01*
X59600730Y-150605371D01*
X59660579Y-150623526D01*
X59722820Y-150629656D01*
X60522820Y-150629656D01*
X60585061Y-150623526D01*
X60644910Y-150605371D01*
X60700067Y-150575889D01*
X60748413Y-150536213D01*
X60757820Y-150524750D01*
X60767227Y-150536213D01*
X60815573Y-150575889D01*
X60870730Y-150605371D01*
X60930579Y-150623526D01*
X60992820Y-150629656D01*
X61792820Y-150629656D01*
X61855061Y-150623526D01*
X61914910Y-150605371D01*
X61970067Y-150575889D01*
X62018413Y-150536213D01*
X62058089Y-150487867D01*
X62087571Y-150432710D01*
X62105726Y-150372861D01*
X62111856Y-150310620D01*
X62111856Y-149210620D01*
X62105726Y-149148379D01*
X62087571Y-149088530D01*
X62058089Y-149033373D01*
X62018413Y-148985027D01*
X61970067Y-148945351D01*
X61914910Y-148915869D01*
X61855061Y-148897714D01*
X61792820Y-148891584D01*
X60992820Y-148891584D01*
X60930579Y-148897714D01*
X60870730Y-148915869D01*
X60815573Y-148945351D01*
X60767227Y-148985027D01*
X60757820Y-148996490D01*
X60748413Y-148985027D01*
X60700067Y-148945351D01*
X60644910Y-148915869D01*
X60585061Y-148897714D01*
X60522820Y-148891584D01*
X59722820Y-148891584D01*
X59660579Y-148897714D01*
X59600730Y-148915869D01*
X59545573Y-148945351D01*
X59497227Y-148985027D01*
X59487820Y-148996490D01*
X59478413Y-148985027D01*
X59430067Y-148945351D01*
X59374910Y-148915869D01*
X59315061Y-148897714D01*
X59252820Y-148891584D01*
X59228864Y-148891584D01*
X59228307Y-148885931D01*
X59206521Y-148814112D01*
X59183465Y-148770979D01*
X59171142Y-148747923D01*
X59135459Y-148704444D01*
X59123531Y-148689909D01*
X59108994Y-148677979D01*
X57858066Y-147427052D01*
X57846131Y-147412509D01*
X57788116Y-147364898D01*
X57721928Y-147329519D01*
X57650109Y-147307733D01*
X57594133Y-147302220D01*
X57594130Y-147302220D01*
X57575420Y-147300377D01*
X57556710Y-147302220D01*
X56864275Y-147302220D01*
X56813239Y-147225840D01*
X56713300Y-147125901D01*
X56595784Y-147047379D01*
X56465207Y-146993293D01*
X56326588Y-146965720D01*
X56185252Y-146965720D01*
X56046633Y-146993293D01*
X55916056Y-147047379D01*
X55798540Y-147125901D01*
X55698601Y-147225840D01*
X55620079Y-147343356D01*
X55565993Y-147473933D01*
X55538420Y-147612552D01*
X55538420Y-147753888D01*
X55565993Y-147892507D01*
X55620079Y-148023084D01*
X55698601Y-148140600D01*
X55798540Y-148240539D01*
X55916056Y-148319061D01*
X56046633Y-148373147D01*
X56185252Y-148400720D01*
X56326588Y-148400720D01*
X56465207Y-148373147D01*
X56595784Y-148319061D01*
X56713300Y-148240539D01*
X56813239Y-148140600D01*
X56864275Y-148064220D01*
X57417606Y-148064220D01*
X58290668Y-148937283D01*
X58275573Y-148945351D01*
X58227227Y-148985027D01*
X58217820Y-148996490D01*
X58208413Y-148985027D01*
X58160067Y-148945351D01*
X58104910Y-148915869D01*
X58045061Y-148897714D01*
X57982820Y-148891584D01*
X57182820Y-148891584D01*
X57120579Y-148897714D01*
X57060730Y-148915869D01*
X57005573Y-148945351D01*
X56957227Y-148985027D01*
X56947820Y-148996490D01*
X56938413Y-148985027D01*
X56890067Y-148945351D01*
X56834910Y-148915869D01*
X56775061Y-148897714D01*
X56712820Y-148891584D01*
X55912820Y-148891584D01*
X55850579Y-148897714D01*
X55790730Y-148915869D01*
X55735573Y-148945351D01*
X55687227Y-148985027D01*
X55677820Y-148996490D01*
X55668413Y-148985027D01*
X55620067Y-148945351D01*
X55564910Y-148915869D01*
X55505061Y-148897714D01*
X55442820Y-148891584D01*
X55423820Y-148891584D01*
X55423820Y-145549656D01*
X55442820Y-145549656D01*
X55505061Y-145543526D01*
X55564910Y-145525371D01*
X55620067Y-145495889D01*
X55668413Y-145456213D01*
X55677820Y-145444750D01*
X55687227Y-145456213D01*
X55735573Y-145495889D01*
X55790730Y-145525371D01*
X55850579Y-145543526D01*
X55912820Y-145549656D01*
X56712820Y-145549656D01*
X56775061Y-145543526D01*
X56834910Y-145525371D01*
X56890067Y-145495889D01*
X56938413Y-145456213D01*
X56947820Y-145444750D01*
X56957227Y-145456213D01*
X57005573Y-145495889D01*
X57060730Y-145525371D01*
X57120579Y-145543526D01*
X57182820Y-145549656D01*
X57982820Y-145549656D01*
X58045061Y-145543526D01*
X58104910Y-145525371D01*
X58160067Y-145495889D01*
X58208413Y-145456213D01*
X58217820Y-145444750D01*
X58227227Y-145456213D01*
X58275573Y-145495889D01*
X58330730Y-145525371D01*
X58390579Y-145543526D01*
X58452820Y-145549656D01*
X59252820Y-145549656D01*
X59315061Y-145543526D01*
X59374910Y-145525371D01*
X59430067Y-145495889D01*
X59478413Y-145456213D01*
X59487820Y-145444750D01*
X59497227Y-145456213D01*
X59545573Y-145495889D01*
X59600730Y-145525371D01*
X59660579Y-145543526D01*
X59722820Y-145549656D01*
X60522820Y-145549656D01*
X60585061Y-145543526D01*
X60644910Y-145525371D01*
X60700067Y-145495889D01*
X60748413Y-145456213D01*
X60757820Y-145444750D01*
X60767227Y-145456213D01*
X60815573Y-145495889D01*
X60870730Y-145525371D01*
X60930579Y-145543526D01*
X60992820Y-145549656D01*
X61792820Y-145549656D01*
X61855061Y-145543526D01*
X61914910Y-145525371D01*
X61970067Y-145495889D01*
X62018413Y-145456213D01*
X62058089Y-145407867D01*
X62087571Y-145352710D01*
X62105726Y-145292861D01*
X62111856Y-145230620D01*
X62111856Y-144130620D01*
X62105726Y-144068379D01*
X62087571Y-144008530D01*
X62058089Y-143953373D01*
X62018413Y-143905027D01*
X61970067Y-143865351D01*
X61914910Y-143835869D01*
X61855061Y-143817714D01*
X61792820Y-143811584D01*
X60992820Y-143811584D01*
X60930579Y-143817714D01*
X60870730Y-143835869D01*
X60815573Y-143865351D01*
X60767227Y-143905027D01*
X60757820Y-143916490D01*
X60748413Y-143905027D01*
X60700067Y-143865351D01*
X60644910Y-143835869D01*
X60585061Y-143817714D01*
X60522820Y-143811584D01*
X59722820Y-143811584D01*
X59660579Y-143817714D01*
X59600730Y-143835869D01*
X59545573Y-143865351D01*
X59497227Y-143905027D01*
X59487820Y-143916490D01*
X59478413Y-143905027D01*
X59430067Y-143865351D01*
X59374910Y-143835869D01*
X59315061Y-143817714D01*
X59252820Y-143811584D01*
X58452820Y-143811584D01*
X58390579Y-143817714D01*
X58330730Y-143835869D01*
X58275573Y-143865351D01*
X58227227Y-143905027D01*
X58217820Y-143916490D01*
X58208413Y-143905027D01*
X58160067Y-143865351D01*
X58104910Y-143835869D01*
X58045061Y-143817714D01*
X57982820Y-143811584D01*
X57182820Y-143811584D01*
X57120579Y-143817714D01*
X57060730Y-143835869D01*
X57005573Y-143865351D01*
X56957227Y-143905027D01*
X56947820Y-143916490D01*
X56938413Y-143905027D01*
X56890067Y-143865351D01*
X56834910Y-143835869D01*
X56775061Y-143817714D01*
X56712820Y-143811584D01*
X55912820Y-143811584D01*
X55850579Y-143817714D01*
X55790730Y-143835869D01*
X55735573Y-143865351D01*
X55687227Y-143905027D01*
X55677820Y-143916490D01*
X55668413Y-143905027D01*
X55620067Y-143865351D01*
X55564910Y-143835869D01*
X55505061Y-143817714D01*
X55449970Y-143812288D01*
X56443515Y-142818744D01*
X56458051Y-142806815D01*
X56499377Y-142756459D01*
X56505662Y-142748801D01*
X56541041Y-142682612D01*
X56552385Y-142645215D01*
X56562827Y-142610793D01*
X56568340Y-142554817D01*
X56568340Y-142554814D01*
X56570183Y-142536104D01*
X56568340Y-142517394D01*
X56568340Y-141628790D01*
X56570183Y-141610080D01*
X56568340Y-141591367D01*
X56562827Y-141535391D01*
X56541041Y-141463572D01*
X56505662Y-141397384D01*
X56469980Y-141353904D01*
X56469977Y-141353901D01*
X56458051Y-141339369D01*
X56443519Y-141327443D01*
X56124336Y-141008262D01*
X56112402Y-140993720D01*
X56054387Y-140946109D01*
X55988199Y-140910730D01*
X55916380Y-140888944D01*
X55860404Y-140883431D01*
X55860401Y-140883431D01*
X55841691Y-140881588D01*
X55822981Y-140883431D01*
X52831600Y-140883431D01*
X52780564Y-140807051D01*
X52680625Y-140707112D01*
X52563109Y-140628590D01*
X52432532Y-140574504D01*
X52337428Y-140555587D01*
X52424614Y-140468401D01*
X57811387Y-140468401D01*
X58032841Y-140689856D01*
X58014920Y-140779952D01*
X58014920Y-140921288D01*
X58042493Y-141059907D01*
X58096579Y-141190484D01*
X58175101Y-141308000D01*
X58275040Y-141407939D01*
X58392556Y-141486461D01*
X58523133Y-141540547D01*
X58661752Y-141568120D01*
X58803088Y-141568120D01*
X58941707Y-141540547D01*
X59072284Y-141486461D01*
X59189800Y-141407939D01*
X59289739Y-141308000D01*
X59368261Y-141190484D01*
X59422347Y-141059907D01*
X59449920Y-140921288D01*
X59449920Y-140779952D01*
X59422347Y-140641333D01*
X59368261Y-140510756D01*
X59289739Y-140393240D01*
X59208999Y-140312500D01*
X63181786Y-140312500D01*
X63181786Y-140270000D01*
X63994026Y-140270000D01*
X64049391Y-140832128D01*
X64213358Y-141372654D01*
X64479625Y-141870806D01*
X64837961Y-142307439D01*
X65274594Y-142665775D01*
X65772746Y-142932042D01*
X66313272Y-143096009D01*
X66734535Y-143137500D01*
X69016265Y-143137500D01*
X69437528Y-143096009D01*
X69978054Y-142932042D01*
X70476206Y-142665775D01*
X70912839Y-142307439D01*
X71271175Y-141870806D01*
X71537442Y-141372654D01*
X71701409Y-140832128D01*
X71756774Y-140270000D01*
X71701409Y-139707872D01*
X71537442Y-139167346D01*
X71271175Y-138669194D01*
X70912839Y-138232561D01*
X70476206Y-137874225D01*
X69978054Y-137607958D01*
X69437528Y-137443991D01*
X69016265Y-137402500D01*
X66734535Y-137402500D01*
X66313272Y-137443991D01*
X65772746Y-137607958D01*
X65274594Y-137874225D01*
X64837961Y-138232561D01*
X64479625Y-138669194D01*
X64213358Y-139167346D01*
X64049391Y-139707872D01*
X63994026Y-140270000D01*
X63181786Y-140270000D01*
X63181786Y-137127500D01*
X42818215Y-137127500D01*
X40342500Y-137127500D01*
X40342500Y-136082474D01*
X68707500Y-136082474D01*
X68707500Y-136307526D01*
X68751406Y-136528255D01*
X68837530Y-136736177D01*
X68962562Y-136923301D01*
X69121699Y-137082438D01*
X69308823Y-137207470D01*
X69516745Y-137293594D01*
X69737474Y-137337500D01*
X69962526Y-137337500D01*
X70183255Y-137293594D01*
X70391177Y-137207470D01*
X70578301Y-137082438D01*
X70737438Y-136923301D01*
X70862470Y-136736177D01*
X70948594Y-136528255D01*
X70992500Y-136307526D01*
X70992500Y-136082474D01*
X70948594Y-135861745D01*
X70862470Y-135653823D01*
X70737438Y-135466699D01*
X70578301Y-135307562D01*
X70391177Y-135182530D01*
X70183255Y-135096406D01*
X69962526Y-135052500D01*
X69737474Y-135052500D01*
X69516745Y-135096406D01*
X69308823Y-135182530D01*
X69121699Y-135307562D01*
X68962562Y-135466699D01*
X68837530Y-135653823D01*
X68751406Y-135861745D01*
X68707500Y-136082474D01*
X40342500Y-136082474D01*
X40342500Y-133415596D01*
X40347094Y-133462241D01*
X40365249Y-133522090D01*
X40394731Y-133577247D01*
X40434407Y-133625593D01*
X40482753Y-133665269D01*
X40537910Y-133694751D01*
X40597759Y-133712906D01*
X40660000Y-133719036D01*
X45160000Y-133719036D01*
X45222241Y-133712906D01*
X45282090Y-133694751D01*
X45337247Y-133665269D01*
X45385593Y-133625593D01*
X45425269Y-133577247D01*
X45454751Y-133522090D01*
X45472906Y-133462241D01*
X45479036Y-133400000D01*
X45479036Y-124600000D01*
X45472906Y-124537759D01*
X45454751Y-124477910D01*
X45425269Y-124422753D01*
X45385593Y-124374407D01*
X45337247Y-124334731D01*
X45282090Y-124305249D01*
X45222241Y-124287094D01*
X45160000Y-124280964D01*
X40660000Y-124280964D01*
X40597759Y-124287094D01*
X40537910Y-124305249D01*
X40482753Y-124334731D01*
X40434407Y-124374407D01*
X40394731Y-124422753D01*
X40365249Y-124477910D01*
X40347094Y-124537759D01*
X40342500Y-124584404D01*
X40342500Y-124175000D01*
X56020964Y-124175000D01*
X56020964Y-124935000D01*
X56027094Y-124997241D01*
X56045249Y-125057090D01*
X56074731Y-125112247D01*
X56114407Y-125160593D01*
X56150240Y-125190000D01*
X56114407Y-125219407D01*
X56074731Y-125267753D01*
X56045249Y-125322910D01*
X56027094Y-125382759D01*
X56020964Y-125445000D01*
X56020964Y-126205000D01*
X56027094Y-126267241D01*
X56045249Y-126327090D01*
X56074731Y-126382247D01*
X56114407Y-126430593D01*
X56150240Y-126460000D01*
X56114407Y-126489407D01*
X56074731Y-126537753D01*
X56045249Y-126592910D01*
X56027094Y-126652759D01*
X56020964Y-126715000D01*
X56020964Y-127475000D01*
X56027094Y-127537241D01*
X56045249Y-127597090D01*
X56074731Y-127652247D01*
X56114407Y-127700593D01*
X56150240Y-127730000D01*
X56114407Y-127759407D01*
X56074731Y-127807753D01*
X56045249Y-127862910D01*
X56027094Y-127922759D01*
X56020964Y-127985000D01*
X56020964Y-128745000D01*
X56027094Y-128807241D01*
X56045249Y-128867090D01*
X56074731Y-128922247D01*
X56114407Y-128970593D01*
X56150240Y-129000000D01*
X56114407Y-129029407D01*
X56074731Y-129077753D01*
X56045249Y-129132910D01*
X56027094Y-129192759D01*
X56020964Y-129255000D01*
X56020964Y-130015000D01*
X56027094Y-130077241D01*
X56045249Y-130137090D01*
X56074731Y-130192247D01*
X56114407Y-130240593D01*
X56150240Y-130270000D01*
X56114407Y-130299407D01*
X56074731Y-130347753D01*
X56045249Y-130402910D01*
X56027094Y-130462759D01*
X56020964Y-130525000D01*
X56020964Y-131285000D01*
X56027094Y-131347241D01*
X56045249Y-131407090D01*
X56074731Y-131462247D01*
X56114407Y-131510593D01*
X56150240Y-131540000D01*
X56114407Y-131569407D01*
X56074731Y-131617753D01*
X56045249Y-131672910D01*
X56027094Y-131732759D01*
X56020964Y-131795000D01*
X56020964Y-132555000D01*
X56027094Y-132617241D01*
X56045249Y-132677090D01*
X56074731Y-132732247D01*
X56114407Y-132780593D01*
X56150240Y-132810000D01*
X56114407Y-132839407D01*
X56074731Y-132887753D01*
X56045249Y-132942910D01*
X56027094Y-133002759D01*
X56020964Y-133065000D01*
X56020964Y-133825000D01*
X56027094Y-133887241D01*
X56045249Y-133947090D01*
X56074731Y-134002247D01*
X56114407Y-134050593D01*
X56162753Y-134090269D01*
X56217910Y-134119751D01*
X56277759Y-134137906D01*
X56340000Y-134144036D01*
X61340000Y-134144036D01*
X61402241Y-134137906D01*
X61462090Y-134119751D01*
X61517247Y-134090269D01*
X61565593Y-134050593D01*
X61605269Y-134002247D01*
X61634751Y-133947090D01*
X61652906Y-133887241D01*
X61658938Y-133826000D01*
X69736290Y-133826000D01*
X69755000Y-133827843D01*
X69773710Y-133826000D01*
X69773713Y-133826000D01*
X69829689Y-133820487D01*
X69901508Y-133798701D01*
X69967696Y-133763322D01*
X70025711Y-133715711D01*
X70037646Y-133701168D01*
X70324236Y-133414579D01*
X70414332Y-133432500D01*
X70555668Y-133432500D01*
X70694287Y-133404927D01*
X70824864Y-133350841D01*
X70942380Y-133272319D01*
X71042319Y-133172380D01*
X71120841Y-133054864D01*
X71174927Y-132924287D01*
X71202500Y-132785668D01*
X71202500Y-132644332D01*
X71174927Y-132505713D01*
X71120841Y-132375136D01*
X71042319Y-132257620D01*
X70942380Y-132157681D01*
X70826123Y-132080000D01*
X70942380Y-132002319D01*
X71042319Y-131902380D01*
X71120841Y-131784864D01*
X71174927Y-131654287D01*
X71202500Y-131515668D01*
X71202500Y-131374332D01*
X71174927Y-131235713D01*
X71120841Y-131105136D01*
X71042319Y-130987620D01*
X70942380Y-130887681D01*
X70824864Y-130809159D01*
X70694287Y-130755073D01*
X70555668Y-130727500D01*
X70414332Y-130727500D01*
X70275713Y-130755073D01*
X70145136Y-130809159D01*
X70027620Y-130887681D01*
X69927681Y-130987620D01*
X69876645Y-131064000D01*
X64734652Y-131064000D01*
X64770831Y-131009854D01*
X64824917Y-130879277D01*
X64852490Y-130740658D01*
X64852490Y-130599322D01*
X64824917Y-130460703D01*
X64770831Y-130330126D01*
X64692309Y-130212610D01*
X64592370Y-130112671D01*
X64515990Y-130061635D01*
X64515990Y-129318546D01*
X64517833Y-129299836D01*
X64515990Y-129281123D01*
X64510477Y-129225147D01*
X64488691Y-129153328D01*
X64453313Y-129087141D01*
X64453312Y-129087139D01*
X64417629Y-129043660D01*
X64405701Y-129029125D01*
X64391165Y-129017196D01*
X63482800Y-128108832D01*
X63470865Y-128094289D01*
X63412850Y-128046678D01*
X63346662Y-128011299D01*
X63274843Y-127989513D01*
X63218867Y-127984000D01*
X63218864Y-127984000D01*
X63200154Y-127982157D01*
X63181444Y-127984000D01*
X61658938Y-127984000D01*
X61652906Y-127922759D01*
X61634751Y-127862910D01*
X61605269Y-127807753D01*
X61565593Y-127759407D01*
X61529760Y-127730000D01*
X61565593Y-127700593D01*
X61605269Y-127652247D01*
X61634751Y-127597090D01*
X61652906Y-127537241D01*
X61658938Y-127476000D01*
X68834001Y-127476000D01*
X68834000Y-129566645D01*
X68757620Y-129617681D01*
X68657681Y-129717620D01*
X68579159Y-129835136D01*
X68525073Y-129965713D01*
X68497500Y-130104332D01*
X68497500Y-130245668D01*
X68525073Y-130384287D01*
X68579159Y-130514864D01*
X68657681Y-130632380D01*
X68757620Y-130732319D01*
X68875136Y-130810841D01*
X69005713Y-130864927D01*
X69144332Y-130892500D01*
X69285668Y-130892500D01*
X69424287Y-130864927D01*
X69554864Y-130810841D01*
X69672380Y-130732319D01*
X69772319Y-130632380D01*
X69850841Y-130514864D01*
X69904927Y-130384287D01*
X69932500Y-130245668D01*
X69932500Y-130104332D01*
X69904927Y-129965713D01*
X69850841Y-129835136D01*
X69772319Y-129717620D01*
X69672380Y-129617681D01*
X69596000Y-129566645D01*
X69596000Y-127157814D01*
X70324236Y-126429579D01*
X70414332Y-126447500D01*
X70555668Y-126447500D01*
X70694287Y-126419927D01*
X70824864Y-126365841D01*
X70942380Y-126287319D01*
X71042319Y-126187380D01*
X71120841Y-126069864D01*
X71174927Y-125939287D01*
X71202500Y-125800668D01*
X71202500Y-125659332D01*
X71174927Y-125520713D01*
X71120841Y-125390136D01*
X71042319Y-125272620D01*
X70942380Y-125172681D01*
X70824864Y-125094159D01*
X70694287Y-125040073D01*
X70555668Y-125012500D01*
X70414332Y-125012500D01*
X70275713Y-125040073D01*
X70145136Y-125094159D01*
X70027620Y-125172681D01*
X69927681Y-125272620D01*
X69849159Y-125390136D01*
X69795073Y-125520713D01*
X69767500Y-125659332D01*
X69767500Y-125800668D01*
X69785421Y-125890764D01*
X68962186Y-126714000D01*
X61658938Y-126714000D01*
X61652906Y-126652759D01*
X61634751Y-126592910D01*
X61605269Y-126537753D01*
X61565593Y-126489407D01*
X61529760Y-126460000D01*
X61565593Y-126430593D01*
X61605269Y-126382247D01*
X61634751Y-126327090D01*
X61652906Y-126267241D01*
X61658938Y-126206000D01*
X62466301Y-126206000D01*
X62547620Y-126287319D01*
X62665136Y-126365841D01*
X62795713Y-126419927D01*
X62934332Y-126447500D01*
X63075668Y-126447500D01*
X63214287Y-126419927D01*
X63344864Y-126365841D01*
X63462380Y-126287319D01*
X63562319Y-126187380D01*
X63640841Y-126069864D01*
X63694927Y-125939287D01*
X63722500Y-125800668D01*
X63722500Y-125659332D01*
X63694927Y-125520713D01*
X63640841Y-125390136D01*
X63562319Y-125272620D01*
X63462380Y-125172681D01*
X63344864Y-125094159D01*
X63214287Y-125040073D01*
X63075668Y-125012500D01*
X62934332Y-125012500D01*
X62795713Y-125040073D01*
X62665136Y-125094159D01*
X62547620Y-125172681D01*
X62447681Y-125272620D01*
X62369159Y-125390136D01*
X62346848Y-125444000D01*
X61658938Y-125444000D01*
X61652906Y-125382759D01*
X61634751Y-125322910D01*
X61605269Y-125267753D01*
X61565593Y-125219407D01*
X61529760Y-125190000D01*
X61565593Y-125160593D01*
X61605269Y-125112247D01*
X61634751Y-125057090D01*
X61652906Y-124997241D01*
X61658938Y-124936000D01*
X61691301Y-124936000D01*
X61772620Y-125017319D01*
X61890136Y-125095841D01*
X62020713Y-125149927D01*
X62159332Y-125177500D01*
X62300668Y-125177500D01*
X62439287Y-125149927D01*
X62569864Y-125095841D01*
X62687380Y-125017319D01*
X62787319Y-124917380D01*
X62865841Y-124799864D01*
X62919927Y-124669287D01*
X62947500Y-124530668D01*
X62947500Y-124389332D01*
X62919927Y-124250713D01*
X62865841Y-124120136D01*
X62787319Y-124002620D01*
X62687380Y-123902681D01*
X62569864Y-123824159D01*
X62439287Y-123770073D01*
X62300668Y-123742500D01*
X62159332Y-123742500D01*
X62020713Y-123770073D01*
X61890136Y-123824159D01*
X61772620Y-123902681D01*
X61672681Y-124002620D01*
X61636102Y-124057364D01*
X61634751Y-124052910D01*
X61605269Y-123997753D01*
X61565593Y-123949407D01*
X61517247Y-123909731D01*
X61462090Y-123880249D01*
X61402241Y-123862094D01*
X61340000Y-123855964D01*
X56340000Y-123855964D01*
X56277759Y-123862094D01*
X56217910Y-123880249D01*
X56162753Y-123909731D01*
X56114407Y-123949407D01*
X56074731Y-123997753D01*
X56045249Y-124052910D01*
X56027094Y-124112759D01*
X56020964Y-124175000D01*
X40342500Y-124175000D01*
X40342500Y-120232474D01*
X68707500Y-120232474D01*
X68707500Y-120457526D01*
X68751406Y-120678255D01*
X68837530Y-120886177D01*
X68962562Y-121073301D01*
X69121699Y-121232438D01*
X69308823Y-121357470D01*
X69516745Y-121443594D01*
X69737474Y-121487500D01*
X69962526Y-121487500D01*
X70183255Y-121443594D01*
X70391177Y-121357470D01*
X70578301Y-121232438D01*
X70737438Y-121073301D01*
X70862470Y-120886177D01*
X70948594Y-120678255D01*
X70992500Y-120457526D01*
X70992500Y-120232474D01*
X70948594Y-120011745D01*
X70862470Y-119803823D01*
X70737438Y-119616699D01*
X70578301Y-119457562D01*
X70391177Y-119332530D01*
X70183255Y-119246406D01*
X69962526Y-119202500D01*
X69737474Y-119202500D01*
X69516745Y-119246406D01*
X69308823Y-119332530D01*
X69121699Y-119457562D01*
X68962562Y-119616699D01*
X68837530Y-119803823D01*
X68751406Y-120011745D01*
X68707500Y-120232474D01*
X40342500Y-120232474D01*
X40342500Y-118342500D01*
X73657500Y-118342500D01*
X73657501Y-151007500D01*
G36*
X54417227Y-145456213D02*
G01*
X54465573Y-145495889D01*
X54520730Y-145525371D01*
X54580579Y-145543526D01*
X54642820Y-145549656D01*
X54661820Y-145549656D01*
X54661821Y-148891584D01*
X54642820Y-148891584D01*
X54580579Y-148897714D01*
X54520730Y-148915869D01*
X54465573Y-148945351D01*
X54417227Y-148985027D01*
X54407820Y-148996490D01*
X54398413Y-148985027D01*
X54350067Y-148945351D01*
X54294910Y-148915869D01*
X54235061Y-148897714D01*
X54172820Y-148891584D01*
X53372820Y-148891584D01*
X53310579Y-148897714D01*
X53250730Y-148915869D01*
X53195573Y-148945351D01*
X53147227Y-148985027D01*
X53137820Y-148996490D01*
X53128413Y-148985027D01*
X53080067Y-148945351D01*
X53024910Y-148915869D01*
X52965061Y-148897714D01*
X52902820Y-148891584D01*
X52883820Y-148891584D01*
X52883820Y-147555534D01*
X53415456Y-147023899D01*
X53505552Y-147041820D01*
X53646888Y-147041820D01*
X53785507Y-147014247D01*
X53916084Y-146960161D01*
X54033600Y-146881639D01*
X54133539Y-146781700D01*
X54212061Y-146664184D01*
X54266147Y-146533607D01*
X54293720Y-146394988D01*
X54293720Y-146253652D01*
X54266147Y-146115033D01*
X54212061Y-145984456D01*
X54133539Y-145866940D01*
X54033600Y-145767001D01*
X53916084Y-145688479D01*
X53785507Y-145634393D01*
X53646888Y-145606820D01*
X53505552Y-145606820D01*
X53366933Y-145634393D01*
X53236356Y-145688479D01*
X53118840Y-145767001D01*
X53018901Y-145866940D01*
X52940379Y-145984456D01*
X52886293Y-146115033D01*
X52858720Y-146253652D01*
X52858720Y-146394988D01*
X52876641Y-146485084D01*
X52246647Y-147115079D01*
X52232110Y-147127009D01*
X52220181Y-147141545D01*
X52184498Y-147185024D01*
X52149119Y-147251213D01*
X52127334Y-147323032D01*
X52119977Y-147397720D01*
X52121821Y-147416440D01*
X52121820Y-148891584D01*
X52102820Y-148891584D01*
X52040579Y-148897714D01*
X51980730Y-148915869D01*
X51925573Y-148945351D01*
X51877227Y-148985027D01*
X51867820Y-148996490D01*
X51862154Y-148989585D01*
X51923739Y-148928000D01*
X52002261Y-148810484D01*
X52056347Y-148679907D01*
X52083920Y-148541288D01*
X52083920Y-148399952D01*
X52056347Y-148261333D01*
X52002261Y-148130756D01*
X51923739Y-148013240D01*
X51823800Y-147913301D01*
X51706284Y-147834779D01*
X51575707Y-147780693D01*
X51437088Y-147753120D01*
X51295752Y-147753120D01*
X51157133Y-147780693D01*
X51026556Y-147834779D01*
X50909040Y-147913301D01*
X50809101Y-148013240D01*
X50730579Y-148130756D01*
X50676493Y-148261333D01*
X50648920Y-148399952D01*
X50648920Y-148541288D01*
X50676493Y-148679907D01*
X50730579Y-148810484D01*
X50787735Y-148896024D01*
X50770579Y-148897714D01*
X50710730Y-148915869D01*
X50655573Y-148945351D01*
X50607227Y-148985027D01*
X50597820Y-148996490D01*
X50588413Y-148985027D01*
X50540067Y-148945351D01*
X50484910Y-148915869D01*
X50425061Y-148897714D01*
X50362820Y-148891584D01*
X50343820Y-148891584D01*
X50343820Y-145549656D01*
X50362820Y-145549656D01*
X50425061Y-145543526D01*
X50484910Y-145525371D01*
X50540067Y-145495889D01*
X50588413Y-145456213D01*
X50597820Y-145444750D01*
X50607227Y-145456213D01*
X50655573Y-145495889D01*
X50710730Y-145525371D01*
X50770579Y-145543526D01*
X50832820Y-145549656D01*
X50851821Y-145549656D01*
X50851821Y-145829781D01*
X50801690Y-145904807D01*
X50747604Y-146035384D01*
X50720031Y-146174003D01*
X50720031Y-146315339D01*
X50747604Y-146453958D01*
X50801690Y-146584535D01*
X50880212Y-146702051D01*
X50980151Y-146801990D01*
X51097667Y-146880512D01*
X51228244Y-146934598D01*
X51366863Y-146962171D01*
X51508199Y-146962171D01*
X51646818Y-146934598D01*
X51777395Y-146880512D01*
X51894911Y-146801990D01*
X51994850Y-146702051D01*
X52073372Y-146584535D01*
X52127458Y-146453958D01*
X52155031Y-146315339D01*
X52155031Y-146174003D01*
X52127458Y-146035384D01*
X52073372Y-145904807D01*
X51994850Y-145787291D01*
X51894911Y-145687352D01*
X51777395Y-145608830D01*
X51646818Y-145554744D01*
X51621239Y-145549656D01*
X51632820Y-145549656D01*
X51695061Y-145543526D01*
X51754910Y-145525371D01*
X51810067Y-145495889D01*
X51858413Y-145456213D01*
X51867820Y-145444750D01*
X51877227Y-145456213D01*
X51925573Y-145495889D01*
X51980730Y-145525371D01*
X52040579Y-145543526D01*
X52102820Y-145549656D01*
X52902820Y-145549656D01*
X52965061Y-145543526D01*
X53024910Y-145525371D01*
X53080067Y-145495889D01*
X53128413Y-145456213D01*
X53137820Y-145444750D01*
X53147227Y-145456213D01*
X53195573Y-145495889D01*
X53250730Y-145525371D01*
X53310579Y-145543526D01*
X53372820Y-145549656D01*
X54172820Y-145549656D01*
X54235061Y-145543526D01*
X54294910Y-145525371D01*
X54350067Y-145495889D01*
X54398413Y-145456213D01*
X54407820Y-145444750D01*
X54417227Y-145456213D01*
G37*
X54417227Y-145456213D02*
X54465573Y-145495889D01*
X54520730Y-145525371D01*
X54580579Y-145543526D01*
X54642820Y-145549656D01*
X54661820Y-145549656D01*
X54661821Y-148891584D01*
X54642820Y-148891584D01*
X54580579Y-148897714D01*
X54520730Y-148915869D01*
X54465573Y-148945351D01*
X54417227Y-148985027D01*
X54407820Y-148996490D01*
X54398413Y-148985027D01*
X54350067Y-148945351D01*
X54294910Y-148915869D01*
X54235061Y-148897714D01*
X54172820Y-148891584D01*
X53372820Y-148891584D01*
X53310579Y-148897714D01*
X53250730Y-148915869D01*
X53195573Y-148945351D01*
X53147227Y-148985027D01*
X53137820Y-148996490D01*
X53128413Y-148985027D01*
X53080067Y-148945351D01*
X53024910Y-148915869D01*
X52965061Y-148897714D01*
X52902820Y-148891584D01*
X52883820Y-148891584D01*
X52883820Y-147555534D01*
X53415456Y-147023899D01*
X53505552Y-147041820D01*
X53646888Y-147041820D01*
X53785507Y-147014247D01*
X53916084Y-146960161D01*
X54033600Y-146881639D01*
X54133539Y-146781700D01*
X54212061Y-146664184D01*
X54266147Y-146533607D01*
X54293720Y-146394988D01*
X54293720Y-146253652D01*
X54266147Y-146115033D01*
X54212061Y-145984456D01*
X54133539Y-145866940D01*
X54033600Y-145767001D01*
X53916084Y-145688479D01*
X53785507Y-145634393D01*
X53646888Y-145606820D01*
X53505552Y-145606820D01*
X53366933Y-145634393D01*
X53236356Y-145688479D01*
X53118840Y-145767001D01*
X53018901Y-145866940D01*
X52940379Y-145984456D01*
X52886293Y-146115033D01*
X52858720Y-146253652D01*
X52858720Y-146394988D01*
X52876641Y-146485084D01*
X52246647Y-147115079D01*
X52232110Y-147127009D01*
X52220181Y-147141545D01*
X52184498Y-147185024D01*
X52149119Y-147251213D01*
X52127334Y-147323032D01*
X52119977Y-147397720D01*
X52121821Y-147416440D01*
X52121820Y-148891584D01*
X52102820Y-148891584D01*
X52040579Y-148897714D01*
X51980730Y-148915869D01*
X51925573Y-148945351D01*
X51877227Y-148985027D01*
X51867820Y-148996490D01*
X51862154Y-148989585D01*
X51923739Y-148928000D01*
X52002261Y-148810484D01*
X52056347Y-148679907D01*
X52083920Y-148541288D01*
X52083920Y-148399952D01*
X52056347Y-148261333D01*
X52002261Y-148130756D01*
X51923739Y-148013240D01*
X51823800Y-147913301D01*
X51706284Y-147834779D01*
X51575707Y-147780693D01*
X51437088Y-147753120D01*
X51295752Y-147753120D01*
X51157133Y-147780693D01*
X51026556Y-147834779D01*
X50909040Y-147913301D01*
X50809101Y-148013240D01*
X50730579Y-148130756D01*
X50676493Y-148261333D01*
X50648920Y-148399952D01*
X50648920Y-148541288D01*
X50676493Y-148679907D01*
X50730579Y-148810484D01*
X50787735Y-148896024D01*
X50770579Y-148897714D01*
X50710730Y-148915869D01*
X50655573Y-148945351D01*
X50607227Y-148985027D01*
X50597820Y-148996490D01*
X50588413Y-148985027D01*
X50540067Y-148945351D01*
X50484910Y-148915869D01*
X50425061Y-148897714D01*
X50362820Y-148891584D01*
X50343820Y-148891584D01*
X50343820Y-145549656D01*
X50362820Y-145549656D01*
X50425061Y-145543526D01*
X50484910Y-145525371D01*
X50540067Y-145495889D01*
X50588413Y-145456213D01*
X50597820Y-145444750D01*
X50607227Y-145456213D01*
X50655573Y-145495889D01*
X50710730Y-145525371D01*
X50770579Y-145543526D01*
X50832820Y-145549656D01*
X50851821Y-145549656D01*
X50851821Y-145829781D01*
X50801690Y-145904807D01*
X50747604Y-146035384D01*
X50720031Y-146174003D01*
X50720031Y-146315339D01*
X50747604Y-146453958D01*
X50801690Y-146584535D01*
X50880212Y-146702051D01*
X50980151Y-146801990D01*
X51097667Y-146880512D01*
X51228244Y-146934598D01*
X51366863Y-146962171D01*
X51508199Y-146962171D01*
X51646818Y-146934598D01*
X51777395Y-146880512D01*
X51894911Y-146801990D01*
X51994850Y-146702051D01*
X52073372Y-146584535D01*
X52127458Y-146453958D01*
X52155031Y-146315339D01*
X52155031Y-146174003D01*
X52127458Y-146035384D01*
X52073372Y-145904807D01*
X51994850Y-145787291D01*
X51894911Y-145687352D01*
X51777395Y-145608830D01*
X51646818Y-145554744D01*
X51621239Y-145549656D01*
X51632820Y-145549656D01*
X51695061Y-145543526D01*
X51754910Y-145525371D01*
X51810067Y-145495889D01*
X51858413Y-145456213D01*
X51867820Y-145444750D01*
X51877227Y-145456213D01*
X51925573Y-145495889D01*
X51980730Y-145525371D01*
X52040579Y-145543526D01*
X52102820Y-145549656D01*
X52902820Y-145549656D01*
X52965061Y-145543526D01*
X53024910Y-145525371D01*
X53080067Y-145495889D01*
X53128413Y-145456213D01*
X53137820Y-145444750D01*
X53147227Y-145456213D01*
X53195573Y-145495889D01*
X53250730Y-145525371D01*
X53310579Y-145543526D01*
X53372820Y-145549656D01*
X54172820Y-145549656D01*
X54235061Y-145543526D01*
X54294910Y-145525371D01*
X54350067Y-145495889D01*
X54398413Y-145456213D01*
X54407820Y-145444750D01*
X54417227Y-145456213D01*
G36*
X55341662Y-142838124D02*
G01*
X55346505Y-142838124D01*
X54786647Y-143397983D01*
X54772110Y-143409913D01*
X54760181Y-143424449D01*
X54724498Y-143467928D01*
X54689119Y-143534117D01*
X54667334Y-143605936D01*
X54659977Y-143680624D01*
X54661821Y-143699344D01*
X54661821Y-143811584D01*
X54642820Y-143811584D01*
X54580579Y-143817714D01*
X54520730Y-143835869D01*
X54465573Y-143865351D01*
X54417227Y-143905027D01*
X54407820Y-143916490D01*
X54398413Y-143905027D01*
X54350067Y-143865351D01*
X54294910Y-143835869D01*
X54249634Y-143822135D01*
X55251566Y-142820203D01*
X55341662Y-142838124D01*
G37*
X55341662Y-142838124D02*
X55346505Y-142838124D01*
X54786647Y-143397983D01*
X54772110Y-143409913D01*
X54760181Y-143424449D01*
X54724498Y-143467928D01*
X54689119Y-143534117D01*
X54667334Y-143605936D01*
X54659977Y-143680624D01*
X54661821Y-143699344D01*
X54661821Y-143811584D01*
X54642820Y-143811584D01*
X54580579Y-143817714D01*
X54520730Y-143835869D01*
X54465573Y-143865351D01*
X54417227Y-143905027D01*
X54407820Y-143916490D01*
X54398413Y-143905027D01*
X54350067Y-143865351D01*
X54294910Y-143835869D01*
X54249634Y-143822135D01*
X55251566Y-142820203D01*
X55341662Y-142838124D01*
G36*
X53475407Y-141663238D02*
G01*
X53396885Y-141780754D01*
X53342799Y-141911331D01*
X53315226Y-142049950D01*
X53315226Y-142191286D01*
X53333147Y-142281382D01*
X52246647Y-143367883D01*
X52232110Y-143379813D01*
X52220181Y-143394349D01*
X52184498Y-143437828D01*
X52149119Y-143504017D01*
X52127334Y-143575836D01*
X52119977Y-143650524D01*
X52121821Y-143669244D01*
X52121821Y-143811584D01*
X52102820Y-143811584D01*
X52040579Y-143817714D01*
X51980730Y-143835869D01*
X51925573Y-143865351D01*
X51877227Y-143905027D01*
X51867820Y-143916490D01*
X51858413Y-143905027D01*
X51810067Y-143865351D01*
X51754910Y-143835869D01*
X51695061Y-143817714D01*
X51632820Y-143811584D01*
X50832820Y-143811584D01*
X50770579Y-143817714D01*
X50710730Y-143835869D01*
X50655573Y-143865351D01*
X50607227Y-143905027D01*
X50597820Y-143916490D01*
X50588413Y-143905027D01*
X50540067Y-143865351D01*
X50484910Y-143835869D01*
X50425061Y-143817714D01*
X50362820Y-143811584D01*
X50343820Y-143811584D01*
X50343820Y-142549194D01*
X50814496Y-142078519D01*
X50904592Y-142096440D01*
X51045928Y-142096440D01*
X51184547Y-142068867D01*
X51315124Y-142014781D01*
X51432640Y-141936259D01*
X51532579Y-141836320D01*
X51611101Y-141718804D01*
X51631312Y-141670008D01*
X51665926Y-141721811D01*
X51765865Y-141821750D01*
X51883381Y-141900272D01*
X52013958Y-141954358D01*
X52152577Y-141981931D01*
X52293913Y-141981931D01*
X52432532Y-141954358D01*
X52563109Y-141900272D01*
X52680625Y-141821750D01*
X52780564Y-141721811D01*
X52831600Y-141645431D01*
X53493214Y-141645431D01*
X53475407Y-141663238D01*
G37*
X53475407Y-141663238D02*
X53396885Y-141780754D01*
X53342799Y-141911331D01*
X53315226Y-142049950D01*
X53315226Y-142191286D01*
X53333147Y-142281382D01*
X52246647Y-143367883D01*
X52232110Y-143379813D01*
X52220181Y-143394349D01*
X52184498Y-143437828D01*
X52149119Y-143504017D01*
X52127334Y-143575836D01*
X52119977Y-143650524D01*
X52121821Y-143669244D01*
X52121821Y-143811584D01*
X52102820Y-143811584D01*
X52040579Y-143817714D01*
X51980730Y-143835869D01*
X51925573Y-143865351D01*
X51877227Y-143905027D01*
X51867820Y-143916490D01*
X51858413Y-143905027D01*
X51810067Y-143865351D01*
X51754910Y-143835869D01*
X51695061Y-143817714D01*
X51632820Y-143811584D01*
X50832820Y-143811584D01*
X50770579Y-143817714D01*
X50710730Y-143835869D01*
X50655573Y-143865351D01*
X50607227Y-143905027D01*
X50597820Y-143916490D01*
X50588413Y-143905027D01*
X50540067Y-143865351D01*
X50484910Y-143835869D01*
X50425061Y-143817714D01*
X50362820Y-143811584D01*
X50343820Y-143811584D01*
X50343820Y-142549194D01*
X50814496Y-142078519D01*
X50904592Y-142096440D01*
X51045928Y-142096440D01*
X51184547Y-142068867D01*
X51315124Y-142014781D01*
X51432640Y-141936259D01*
X51532579Y-141836320D01*
X51611101Y-141718804D01*
X51631312Y-141670008D01*
X51665926Y-141721811D01*
X51765865Y-141821750D01*
X51883381Y-141900272D01*
X52013958Y-141954358D01*
X52152577Y-141981931D01*
X52293913Y-141981931D01*
X52432532Y-141954358D01*
X52563109Y-141900272D01*
X52680625Y-141821750D01*
X52780564Y-141721811D01*
X52831600Y-141645431D01*
X53493214Y-141645431D01*
X53475407Y-141663238D01*
G36*
X53962058Y-142838118D02*
G01*
X54103394Y-142838118D01*
X54169089Y-142825050D01*
X53516647Y-143477493D01*
X53502110Y-143489423D01*
X53490181Y-143503959D01*
X53454498Y-143547438D01*
X53419119Y-143613627D01*
X53407927Y-143650524D01*
X53398797Y-143680624D01*
X53397334Y-143685446D01*
X53389977Y-143760134D01*
X53391821Y-143778854D01*
X53391821Y-143811584D01*
X53372820Y-143811584D01*
X53310579Y-143817714D01*
X53250730Y-143835869D01*
X53195573Y-143865351D01*
X53147227Y-143905027D01*
X53137820Y-143916490D01*
X53128413Y-143905027D01*
X53080067Y-143865351D01*
X53024910Y-143835869D01*
X52965061Y-143817714D01*
X52902820Y-143811584D01*
X52883820Y-143811584D01*
X52883820Y-143808338D01*
X53871962Y-142820197D01*
X53962058Y-142838118D01*
G37*
X53962058Y-142838118D02*
X54103394Y-142838118D01*
X54169089Y-142825050D01*
X53516647Y-143477493D01*
X53502110Y-143489423D01*
X53490181Y-143503959D01*
X53454498Y-143547438D01*
X53419119Y-143613627D01*
X53407927Y-143650524D01*
X53398797Y-143680624D01*
X53397334Y-143685446D01*
X53389977Y-143760134D01*
X53391821Y-143778854D01*
X53391821Y-143811584D01*
X53372820Y-143811584D01*
X53310579Y-143817714D01*
X53250730Y-143835869D01*
X53195573Y-143865351D01*
X53147227Y-143905027D01*
X53137820Y-143916490D01*
X53128413Y-143905027D01*
X53080067Y-143865351D01*
X53024910Y-143835869D01*
X52965061Y-143817714D01*
X52902820Y-143811584D01*
X52883820Y-143811584D01*
X52883820Y-143808338D01*
X53871962Y-142820197D01*
X53962058Y-142838118D01*
G36*
X54855011Y-141663244D02*
G01*
X54776489Y-141780760D01*
X54722529Y-141911032D01*
X54668567Y-141780754D01*
X54590045Y-141663238D01*
X54572238Y-141645431D01*
X54872824Y-141645431D01*
X54855011Y-141663244D01*
G37*
X54855011Y-141663244D02*
X54776489Y-141780760D01*
X54722529Y-141911032D01*
X54668567Y-141780754D01*
X54590045Y-141663238D01*
X54572238Y-141645431D01*
X54872824Y-141645431D01*
X54855011Y-141663244D01*
G36*
X62913305Y-131820487D02*
G01*
X62969281Y-131826000D01*
X62969290Y-131826000D01*
X62987993Y-131827842D01*
X63006696Y-131826000D01*
X69876645Y-131826000D01*
X69927681Y-131902380D01*
X70027620Y-132002319D01*
X70143877Y-132080000D01*
X70027620Y-132157681D01*
X69927681Y-132257620D01*
X69849159Y-132375136D01*
X69795073Y-132505713D01*
X69767500Y-132644332D01*
X69767500Y-132785668D01*
X69785421Y-132875764D01*
X69597186Y-133064000D01*
X61658938Y-133064000D01*
X61652906Y-133002759D01*
X61634751Y-132942910D01*
X61605269Y-132887753D01*
X61565593Y-132839407D01*
X61529760Y-132810000D01*
X61565593Y-132780593D01*
X61605269Y-132732247D01*
X61634751Y-132677090D01*
X61652906Y-132617241D01*
X61658938Y-132556000D01*
X61691301Y-132556000D01*
X61772620Y-132637319D01*
X61890136Y-132715841D01*
X62020713Y-132769927D01*
X62159332Y-132797500D01*
X62300668Y-132797500D01*
X62439287Y-132769927D01*
X62569864Y-132715841D01*
X62687380Y-132637319D01*
X62787319Y-132537380D01*
X62865841Y-132419864D01*
X62919927Y-132289287D01*
X62947500Y-132150668D01*
X62947500Y-132009332D01*
X62919927Y-131870713D01*
X62897085Y-131815567D01*
X62913305Y-131820487D01*
G37*
X62913305Y-131820487D02*
X62969281Y-131826000D01*
X62969290Y-131826000D01*
X62987993Y-131827842D01*
X63006696Y-131826000D01*
X69876645Y-131826000D01*
X69927681Y-131902380D01*
X70027620Y-132002319D01*
X70143877Y-132080000D01*
X70027620Y-132157681D01*
X69927681Y-132257620D01*
X69849159Y-132375136D01*
X69795073Y-132505713D01*
X69767500Y-132644332D01*
X69767500Y-132785668D01*
X69785421Y-132875764D01*
X69597186Y-133064000D01*
X61658938Y-133064000D01*
X61652906Y-133002759D01*
X61634751Y-132942910D01*
X61605269Y-132887753D01*
X61565593Y-132839407D01*
X61529760Y-132810000D01*
X61565593Y-132780593D01*
X61605269Y-132732247D01*
X61634751Y-132677090D01*
X61652906Y-132617241D01*
X61658938Y-132556000D01*
X61691301Y-132556000D01*
X61772620Y-132637319D01*
X61890136Y-132715841D01*
X62020713Y-132769927D01*
X62159332Y-132797500D01*
X62300668Y-132797500D01*
X62439287Y-132769927D01*
X62569864Y-132715841D01*
X62687380Y-132637319D01*
X62787319Y-132537380D01*
X62865841Y-132419864D01*
X62919927Y-132289287D01*
X62947500Y-132150668D01*
X62947500Y-132009332D01*
X62919927Y-131870713D01*
X62897085Y-131815567D01*
X62913305Y-131820487D01*
G36*
X62383070Y-131378891D02*
G01*
X62300668Y-131362500D01*
X62159332Y-131362500D01*
X62020713Y-131390073D01*
X61890136Y-131444159D01*
X61772620Y-131522681D01*
X61672681Y-131622620D01*
X61636102Y-131677364D01*
X61634751Y-131672910D01*
X61605269Y-131617753D01*
X61565593Y-131569407D01*
X61529760Y-131540000D01*
X61565593Y-131510593D01*
X61605269Y-131462247D01*
X61634751Y-131407090D01*
X61652906Y-131347241D01*
X61658938Y-131286000D01*
X62290180Y-131286000D01*
X62383070Y-131378891D01*
G37*
X62383070Y-131378891D02*
X62300668Y-131362500D01*
X62159332Y-131362500D01*
X62020713Y-131390073D01*
X61890136Y-131444159D01*
X61772620Y-131522681D01*
X61672681Y-131622620D01*
X61636102Y-131677364D01*
X61634751Y-131672910D01*
X61605269Y-131617753D01*
X61565593Y-131569407D01*
X61529760Y-131540000D01*
X61565593Y-131510593D01*
X61605269Y-131462247D01*
X61634751Y-131407090D01*
X61652906Y-131347241D01*
X61658938Y-131286000D01*
X62290180Y-131286000D01*
X62383070Y-131378891D01*
G36*
X63753990Y-129457651D02*
G01*
X63753991Y-130061635D01*
X63677610Y-130112671D01*
X63577671Y-130212610D01*
X63499149Y-130330126D01*
X63445063Y-130460703D01*
X63417490Y-130599322D01*
X63417490Y-130740658D01*
X63445063Y-130879277D01*
X63499149Y-131009854D01*
X63535328Y-131064000D01*
X63145809Y-131064000D01*
X62730640Y-130648832D01*
X62718705Y-130634289D01*
X62660690Y-130586678D01*
X62594502Y-130551299D01*
X62522683Y-130529513D01*
X62466707Y-130524000D01*
X62466704Y-130524000D01*
X62447994Y-130522157D01*
X62429284Y-130524000D01*
X61658938Y-130524000D01*
X61652906Y-130462759D01*
X61634751Y-130402910D01*
X61605269Y-130347753D01*
X61565593Y-130299407D01*
X61529760Y-130270000D01*
X61565593Y-130240593D01*
X61605269Y-130192247D01*
X61634751Y-130137090D01*
X61652906Y-130077241D01*
X61658938Y-130016000D01*
X62466301Y-130016000D01*
X62547620Y-130097319D01*
X62665136Y-130175841D01*
X62795713Y-130229927D01*
X62934332Y-130257500D01*
X63075668Y-130257500D01*
X63214287Y-130229927D01*
X63344864Y-130175841D01*
X63462380Y-130097319D01*
X63562319Y-129997380D01*
X63640841Y-129879864D01*
X63694927Y-129749287D01*
X63722500Y-129610668D01*
X63722500Y-129469332D01*
X63711780Y-129415441D01*
X63753990Y-129457651D01*
G37*
X63753990Y-129457651D02*
X63753991Y-130061635D01*
X63677610Y-130112671D01*
X63577671Y-130212610D01*
X63499149Y-130330126D01*
X63445063Y-130460703D01*
X63417490Y-130599322D01*
X63417490Y-130740658D01*
X63445063Y-130879277D01*
X63499149Y-131009854D01*
X63535328Y-131064000D01*
X63145809Y-131064000D01*
X62730640Y-130648832D01*
X62718705Y-130634289D01*
X62660690Y-130586678D01*
X62594502Y-130551299D01*
X62522683Y-130529513D01*
X62466707Y-130524000D01*
X62466704Y-130524000D01*
X62447994Y-130522157D01*
X62429284Y-130524000D01*
X61658938Y-130524000D01*
X61652906Y-130462759D01*
X61634751Y-130402910D01*
X61605269Y-130347753D01*
X61565593Y-130299407D01*
X61529760Y-130270000D01*
X61565593Y-130240593D01*
X61605269Y-130192247D01*
X61634751Y-130137090D01*
X61652906Y-130077241D01*
X61658938Y-130016000D01*
X62466301Y-130016000D01*
X62547620Y-130097319D01*
X62665136Y-130175841D01*
X62795713Y-130229927D01*
X62934332Y-130257500D01*
X63075668Y-130257500D01*
X63214287Y-130229927D01*
X63344864Y-130175841D01*
X63462380Y-130097319D01*
X63562319Y-129997380D01*
X63640841Y-129879864D01*
X63694927Y-129749287D01*
X63722500Y-129610668D01*
X63722500Y-129469332D01*
X63711780Y-129415441D01*
X63753990Y-129457651D01*
G36*
X63129559Y-128833220D02*
G01*
X63075668Y-128822500D01*
X62934332Y-128822500D01*
X62795713Y-128850073D01*
X62665136Y-128904159D01*
X62547620Y-128982681D01*
X62447681Y-129082620D01*
X62369159Y-129200136D01*
X62346848Y-129254000D01*
X61658938Y-129254000D01*
X61652906Y-129192759D01*
X61634751Y-129132910D01*
X61605269Y-129077753D01*
X61565593Y-129029407D01*
X61529760Y-129000000D01*
X61565593Y-128970593D01*
X61605269Y-128922247D01*
X61634751Y-128867090D01*
X61652906Y-128807241D01*
X61658938Y-128746000D01*
X63042340Y-128746000D01*
X63129559Y-128833220D01*
G37*
X63129559Y-128833220D02*
X63075668Y-128822500D01*
X62934332Y-128822500D01*
X62795713Y-128850073D01*
X62665136Y-128904159D01*
X62547620Y-128982681D01*
X62447681Y-129082620D01*
X62369159Y-129200136D01*
X62346848Y-129254000D01*
X61658938Y-129254000D01*
X61652906Y-129192759D01*
X61634751Y-129132910D01*
X61605269Y-129077753D01*
X61565593Y-129029407D01*
X61529760Y-129000000D01*
X61565593Y-128970593D01*
X61605269Y-128922247D01*
X61634751Y-128867090D01*
X61652906Y-128807241D01*
X61658938Y-128746000D01*
X63042340Y-128746000D01*
X63129559Y-128833220D01*
M02*
