M48
; DRILL file {KiCad 5.1.5} date Mon 23 Mar 2020 03:00:22 PM EDT
; FORMAT={-:-/ absolute / metric / decimal}
; #@! TF.CreationDate,2020-03-23T15:00:22-04:00
; #@! TF.GenerationSoftware,Kicad,Pcbnew,5.1.5
FMAT,2
METRIC
T1C0.400
T2C2.600
T3C1.650
%
G90
G05
T1
X50.975Y-141.379
X51.366Y-148.471
X51.438Y-146.245
X52.223Y-141.264
X53.576Y-146.324
X54.033Y-142.121
X55.412Y-142.121
X56.256Y-147.683
X58.732Y-140.851
X62.23Y-124.46
X62.23Y-132.08
X63.005Y-125.73
X63.005Y-129.54
X64.135Y-130.67
X69.215Y-130.175
X70.485Y-125.73
X70.485Y-131.445
X70.485Y-132.715
X65.25Y-139.27
X65.25Y-141.27
X66.75Y-138.27
X66.75Y-142.27
X68.95Y-138.27
X68.95Y-142.27
X70.45Y-139.27
X70.45Y-141.27
X41.678Y-144.121
X41.678Y-146.321
X42.678Y-142.621
X42.678Y-147.821
X44.678Y-142.621
X44.678Y-147.821
X45.678Y-144.121
X45.678Y-146.321
T3
X69.85Y-120.345
X69.85Y-136.195
X47.753Y-147.221
X63.603Y-147.221
T2
G00X66.875Y-140.27
M15
G01X68.875Y-140.27
M16
G05
G00X43.678Y-144.246
M15
G01X43.678Y-146.246
M16
G05
T0
M30
