G04 #@! TF.GenerationSoftware,KiCad,Pcbnew,5.1.5*
G04 #@! TF.CreationDate,2020-03-22T18:40:06-04:00*
G04 #@! TF.ProjectId,M55-RJ45,4d35352d-524a-4343-952e-6b696361645f,rev?*
G04 #@! TF.SameCoordinates,Original*
G04 #@! TF.FileFunction,Legend,Top*
G04 #@! TF.FilePolarity,Positive*
%FSLAX46Y46*%
G04 Gerber Fmt 4.6, Leading zero omitted, Abs format (unit mm)*
G04 Created by KiCad (PCBNEW 5.1.5) date 2020-03-22 18:40:06*
%MOMM*%
%LPD*%
G04 APERTURE LIST*
%ADD10C,0.150000*%
%ADD11C,0.120000*%
%ADD12C,0.300000*%
G04 APERTURE END LIST*
D10*
X35862380Y-136685000D02*
X35862380Y-136065952D01*
X36243333Y-136399285D01*
X36243333Y-136256428D01*
X36290952Y-136161190D01*
X36338571Y-136113571D01*
X36433809Y-136065952D01*
X36671904Y-136065952D01*
X36767142Y-136113571D01*
X36814761Y-136161190D01*
X36862380Y-136256428D01*
X36862380Y-136542142D01*
X36814761Y-136637380D01*
X36767142Y-136685000D01*
X35862380Y-135732619D02*
X35862380Y-135113571D01*
X36243333Y-135446904D01*
X36243333Y-135304047D01*
X36290952Y-135208809D01*
X36338571Y-135161190D01*
X36433809Y-135113571D01*
X36671904Y-135113571D01*
X36767142Y-135161190D01*
X36814761Y-135208809D01*
X36862380Y-135304047D01*
X36862380Y-135589761D01*
X36814761Y-135685000D01*
X36767142Y-135732619D01*
X36767142Y-134685000D02*
X36814761Y-134637380D01*
X36862380Y-134685000D01*
X36814761Y-134732619D01*
X36767142Y-134685000D01*
X36862380Y-134685000D01*
X35862380Y-134304047D02*
X35862380Y-133685000D01*
X36243333Y-134018333D01*
X36243333Y-133875476D01*
X36290952Y-133780238D01*
X36338571Y-133732619D01*
X36433809Y-133685000D01*
X36671904Y-133685000D01*
X36767142Y-133732619D01*
X36814761Y-133780238D01*
X36862380Y-133875476D01*
X36862380Y-134161190D01*
X36814761Y-134256428D01*
X36767142Y-134304047D01*
X35862380Y-132780238D02*
X35862380Y-133256428D01*
X36338571Y-133304047D01*
X36290952Y-133256428D01*
X36243333Y-133161190D01*
X36243333Y-132923095D01*
X36290952Y-132827857D01*
X36338571Y-132780238D01*
X36433809Y-132732619D01*
X36671904Y-132732619D01*
X36767142Y-132780238D01*
X36814761Y-132827857D01*
X36862380Y-132923095D01*
X36862380Y-133161190D01*
X36814761Y-133256428D01*
X36767142Y-133304047D01*
D11*
X37681461Y-151365663D02*
X37691621Y-117997683D01*
X39512240Y-151366220D02*
X37095040Y-151365484D01*
X39522400Y-117998240D02*
X37105200Y-117997504D01*
X37691621Y-117997683D02*
X38277699Y-119124365D01*
X37691621Y-117997683D02*
X37104857Y-119124008D01*
X37681461Y-151365663D02*
X38268225Y-150239338D01*
X37681461Y-151365663D02*
X37095383Y-150238981D01*
D10*
X54856190Y-112456121D02*
X55475237Y-112455041D01*
X55142569Y-112836574D01*
X55285426Y-112836325D01*
X55380747Y-112883778D01*
X55428449Y-112931314D01*
X55476234Y-113026469D01*
X55476649Y-113264563D01*
X55429197Y-113359884D01*
X55381661Y-113407587D01*
X55286506Y-113455372D01*
X55000792Y-113455870D01*
X54905471Y-113408418D01*
X54857769Y-113360882D01*
X56332960Y-112786878D02*
X56334123Y-113453543D01*
X56094200Y-112406341D02*
X55857352Y-113121042D01*
X56476399Y-113119961D01*
X56857932Y-113452629D02*
X56856769Y-112785963D01*
X56856935Y-112881201D02*
X56904471Y-112833499D01*
X56999626Y-112785714D01*
X57142482Y-112785465D01*
X57237803Y-112832918D01*
X57285589Y-112928072D01*
X57286503Y-113451881D01*
X57285589Y-112928072D02*
X57333041Y-112832751D01*
X57428196Y-112784966D01*
X57571053Y-112784717D01*
X57666374Y-112832170D01*
X57714159Y-112927324D01*
X57715074Y-113451133D01*
X58191263Y-113450302D02*
X58190100Y-112783636D01*
X58190266Y-112878874D02*
X58237802Y-112831172D01*
X58332957Y-112783387D01*
X58475814Y-112783138D01*
X58571135Y-112830590D01*
X58618920Y-112925745D01*
X58619834Y-113449554D01*
X58618920Y-112925745D02*
X58666373Y-112830424D01*
X58761528Y-112782639D01*
X58904385Y-112782390D01*
X58999706Y-112829842D01*
X59047491Y-112924997D01*
X59048405Y-113448806D01*
D11*
X39988024Y-114323211D02*
X73985924Y-114277491D01*
X39992300Y-117502940D02*
X39987235Y-113736791D01*
X73990200Y-117457220D02*
X73985135Y-113691071D01*
X73985924Y-114277491D02*
X72860210Y-114865426D01*
X73985924Y-114277491D02*
X72858633Y-113692586D01*
X39988024Y-114323211D02*
X41115315Y-114908116D01*
X39988024Y-114323211D02*
X41113738Y-113735276D01*
D12*
X43321428Y-129337857D02*
X43250000Y-129266428D01*
X43178571Y-129123571D01*
X43178571Y-128766428D01*
X43250000Y-128623571D01*
X43321428Y-128552142D01*
X43464285Y-128480714D01*
X43607142Y-128480714D01*
X43821428Y-128552142D01*
X44678571Y-129409285D01*
X44678571Y-128480714D01*
X43178571Y-127552142D02*
X43178571Y-127409285D01*
X43250000Y-127266428D01*
X43321428Y-127195000D01*
X43464285Y-127123571D01*
X43750000Y-127052142D01*
X44107142Y-127052142D01*
X44392857Y-127123571D01*
X44535714Y-127195000D01*
X44607142Y-127266428D01*
X44678571Y-127409285D01*
X44678571Y-127552142D01*
X44607142Y-127695000D01*
X44535714Y-127766428D01*
X44392857Y-127837857D01*
X44107142Y-127909285D01*
X43750000Y-127909285D01*
X43464285Y-127837857D01*
X43321428Y-127766428D01*
X43250000Y-127695000D01*
X43178571Y-127552142D01*
X43321428Y-126480714D02*
X43250000Y-126409285D01*
X43178571Y-126266428D01*
X43178571Y-125909285D01*
X43250000Y-125766428D01*
X43321428Y-125695000D01*
X43464285Y-125623571D01*
X43607142Y-125623571D01*
X43821428Y-125695000D01*
X44678571Y-126552142D01*
X44678571Y-125623571D01*
X43178571Y-124695000D02*
X43178571Y-124552142D01*
X43250000Y-124409285D01*
X43321428Y-124337857D01*
X43464285Y-124266428D01*
X43750000Y-124195000D01*
X44107142Y-124195000D01*
X44392857Y-124266428D01*
X44535714Y-124337857D01*
X44607142Y-124409285D01*
X44678571Y-124552142D01*
X44678571Y-124695000D01*
X44607142Y-124837857D01*
X44535714Y-124909285D01*
X44392857Y-124980714D01*
X44107142Y-125052142D01*
X43750000Y-125052142D01*
X43464285Y-124980714D01*
X43321428Y-124909285D01*
X43250000Y-124837857D01*
X43178571Y-124695000D01*
X44107142Y-123552142D02*
X44107142Y-122409285D01*
X43178571Y-121409285D02*
X43178571Y-121266428D01*
X43250000Y-121123571D01*
X43321428Y-121052142D01*
X43464285Y-120980714D01*
X43750000Y-120909285D01*
X44107142Y-120909285D01*
X44392857Y-120980714D01*
X44535714Y-121052142D01*
X44607142Y-121123571D01*
X44678571Y-121266428D01*
X44678571Y-121409285D01*
X44607142Y-121552142D01*
X44535714Y-121623571D01*
X44392857Y-121695000D01*
X44107142Y-121766428D01*
X43750000Y-121766428D01*
X43464285Y-121695000D01*
X43321428Y-121623571D01*
X43250000Y-121552142D01*
X43178571Y-121409285D01*
X43178571Y-120409285D02*
X43178571Y-119480714D01*
X43750000Y-119980714D01*
X43750000Y-119766428D01*
X43821428Y-119623571D01*
X43892857Y-119552142D01*
X44035714Y-119480714D01*
X44392857Y-119480714D01*
X44535714Y-119552142D01*
X44607142Y-119623571D01*
X44678571Y-119766428D01*
X44678571Y-120195000D01*
X44607142Y-120337857D01*
X44535714Y-120409285D01*
X42678571Y-137766428D02*
X41964285Y-138266428D01*
X42678571Y-138623571D02*
X41178571Y-138623571D01*
X41178571Y-138052142D01*
X41250000Y-137909285D01*
X41321428Y-137837857D01*
X41464285Y-137766428D01*
X41678571Y-137766428D01*
X41821428Y-137837857D01*
X41892857Y-137909285D01*
X41964285Y-138052142D01*
X41964285Y-138623571D01*
X41178571Y-136695000D02*
X42250000Y-136695000D01*
X42464285Y-136766428D01*
X42607142Y-136909285D01*
X42678571Y-137123571D01*
X42678571Y-137266428D01*
X41678571Y-135337857D02*
X42678571Y-135337857D01*
X41107142Y-135695000D02*
X42178571Y-136052142D01*
X42178571Y-135123571D01*
X41178571Y-133837857D02*
X41178571Y-134552142D01*
X41892857Y-134623571D01*
X41821428Y-134552142D01*
X41750000Y-134409285D01*
X41750000Y-134052142D01*
X41821428Y-133909285D01*
X41892857Y-133837857D01*
X42035714Y-133766428D01*
X42392857Y-133766428D01*
X42535714Y-133837857D01*
X42607142Y-133909285D01*
X42678571Y-134052142D01*
X42678571Y-134409285D01*
X42607142Y-134552142D01*
X42535714Y-134623571D01*
X42107142Y-133123571D02*
X42107142Y-131980714D01*
X42678571Y-131266428D02*
X41178571Y-131266428D01*
X42250000Y-130766428D01*
X41178571Y-130266428D01*
X42678571Y-130266428D01*
X41178571Y-128837857D02*
X41178571Y-129552142D01*
X41892857Y-129623571D01*
X41821428Y-129552142D01*
X41750000Y-129409285D01*
X41750000Y-129052142D01*
X41821428Y-128909285D01*
X41892857Y-128837857D01*
X42035714Y-128766428D01*
X42392857Y-128766428D01*
X42535714Y-128837857D01*
X42607142Y-128909285D01*
X42678571Y-129052142D01*
X42678571Y-129409285D01*
X42607142Y-129552142D01*
X42535714Y-129623571D01*
X41178571Y-127409285D02*
X41178571Y-128123571D01*
X41892857Y-128195000D01*
X41821428Y-128123571D01*
X41750000Y-127980714D01*
X41750000Y-127623571D01*
X41821428Y-127480714D01*
X41892857Y-127409285D01*
X42035714Y-127337857D01*
X42392857Y-127337857D01*
X42535714Y-127409285D01*
X42607142Y-127480714D01*
X42678571Y-127623571D01*
X42678571Y-127980714D01*
X42607142Y-128123571D01*
X42535714Y-128195000D01*
X41678571Y-125766428D02*
X41678571Y-125195000D01*
X42678571Y-125552142D02*
X41392857Y-125552142D01*
X41250000Y-125480714D01*
X41178571Y-125337857D01*
X41178571Y-125195000D01*
X41678571Y-123695000D02*
X42678571Y-123337857D01*
X41678571Y-122980714D01*
X41178571Y-122123571D02*
X41178571Y-121980714D01*
X41250000Y-121837857D01*
X41321428Y-121766428D01*
X41464285Y-121695000D01*
X41750000Y-121623571D01*
X42107142Y-121623571D01*
X42392857Y-121695000D01*
X42535714Y-121766428D01*
X42607142Y-121837857D01*
X42678571Y-121980714D01*
X42678571Y-122123571D01*
X42607142Y-122266428D01*
X42535714Y-122337857D01*
X42392857Y-122409285D01*
X42107142Y-122480714D01*
X41750000Y-122480714D01*
X41464285Y-122409285D01*
X41321428Y-122337857D01*
X41250000Y-122266428D01*
X41178571Y-122123571D01*
X42535714Y-120980714D02*
X42607142Y-120909285D01*
X42678571Y-120980714D01*
X42607142Y-121052142D01*
X42535714Y-120980714D01*
X42678571Y-120980714D01*
X41178571Y-120409285D02*
X41178571Y-119480714D01*
X41750000Y-119980714D01*
X41750000Y-119766428D01*
X41821428Y-119623571D01*
X41892857Y-119552142D01*
X42035714Y-119480714D01*
X42392857Y-119480714D01*
X42535714Y-119552142D01*
X42607142Y-119623571D01*
X42678571Y-119766428D01*
X42678571Y-120195000D01*
X42607142Y-120337857D01*
X42535714Y-120409285D01*
D11*
X50612820Y-137300620D02*
X50612820Y-139560620D01*
X47817820Y-137300620D02*
X50612820Y-137300620D01*
X47817820Y-137300620D02*
X47817820Y-121740620D01*
X47817820Y-121740620D02*
X51037820Y-121740620D01*
X51037820Y-121740620D02*
X51037820Y-118640620D01*
X51037820Y-118640620D02*
X60317820Y-118640620D01*
X60317820Y-118640620D02*
X60317820Y-121740620D01*
X60317820Y-121740620D02*
X63537820Y-121740620D01*
X63537820Y-121740620D02*
X63537820Y-137300620D01*
X63537820Y-137300620D02*
X60757820Y-137300620D01*
X67530000Y-135660000D02*
X67530000Y-134605000D01*
X67530000Y-137300000D02*
X72170000Y-137300000D01*
X67530000Y-121935000D02*
X66710000Y-121935000D01*
X72170000Y-135636000D02*
X72170000Y-134581000D01*
X72170000Y-119240000D02*
X67530000Y-119240000D01*
X67530000Y-120904000D02*
X67530000Y-121959000D01*
X72170000Y-120880000D02*
X72170000Y-121935000D01*
D10*
X48166666Y-140452380D02*
X48166666Y-141166666D01*
X48119047Y-141309523D01*
X48023809Y-141404761D01*
X47880952Y-141452380D01*
X47785714Y-141452380D01*
X49166666Y-141452380D02*
X48595238Y-141452380D01*
X48880952Y-141452380D02*
X48880952Y-140452380D01*
X48785714Y-140595238D01*
X48690476Y-140690476D01*
X48595238Y-140738095D01*
X64130940Y-135677233D02*
X64845226Y-135677233D01*
X64988083Y-135724852D01*
X65083321Y-135820090D01*
X65130940Y-135962947D01*
X65130940Y-136058185D01*
X64464274Y-134772471D02*
X65130940Y-134772471D01*
X64083321Y-135010566D02*
X64797607Y-135248661D01*
X64797607Y-134629614D01*
M02*
