ISO-10303-21;
HEADER;
/* Generated by software containing ST-Developer
 * from STEP Tools, Inc. (www.steptools.com) 
 */

FILE_DESCRIPTION(
/* description */ (''),
/* implementation_level */ '2;1');

FILE_NAME(
/* name */ 'panel-spacer.stp',
/* time_stamp */ '2026-07-02T13:42:56-04:00',
/* author */ ('labadmin'),
/* organization */ (''),
/* preprocessor_version */ 'ST-DEVELOPER v20',
/* originating_system */ 'Autodesk Inventor 2025',
/* authorisation */ '');

FILE_SCHEMA (('AUTOMOTIVE_DESIGN { 1 0 10303 214 3 1 1 }'));
ENDSEC;

DATA;
#10=MECHANICAL_DESIGN_GEOMETRIC_PRESENTATION_REPRESENTATION('',(#13),#616);
#11=SHAPE_REPRESENTATION_RELATIONSHIP('SRR','None',#627,#12);
#12=ADVANCED_BREP_SHAPE_REPRESENTATION('',(#14),#615);
#13=STYLED_ITEM('',(#637),#14);
#14=MANIFOLD_SOLID_BREP('Solid1',#356);
#15=CYLINDRICAL_SURFACE('',#385,0.0885);
#16=CYLINDRICAL_SURFACE('',#387,0.0885);
#17=CYLINDRICAL_SURFACE('',#402,0.0885);
#18=CYLINDRICAL_SURFACE('',#404,0.0885);
#19=CYLINDRICAL_SURFACE('',#410,0.25);
#20=FACE_BOUND('',#50,.T.);
#21=FACE_BOUND('',#53,.T.);
#22=FACE_BOUND('',#61,.T.);
#23=FACE_BOUND('',#63,.T.);
#24=FACE_BOUND('',#66,.T.);
#25=FACE_BOUND('',#74,.T.);
#26=FACE_BOUND('',#75,.T.);
#27=FACE_BOUND('',#77,.T.);
#28=FACE_OUTER_BOUND('',#49,.T.);
#29=FACE_OUTER_BOUND('',#51,.T.);
#30=FACE_OUTER_BOUND('',#52,.T.);
#31=FACE_OUTER_BOUND('',#54,.T.);
#32=FACE_OUTER_BOUND('',#55,.T.);
#33=FACE_OUTER_BOUND('',#56,.T.);
#34=FACE_OUTER_BOUND('',#57,.T.);
#35=FACE_OUTER_BOUND('',#58,.T.);
#36=FACE_OUTER_BOUND('',#59,.T.);
#37=FACE_OUTER_BOUND('',#60,.T.);
#38=FACE_OUTER_BOUND('',#62,.T.);
#39=FACE_OUTER_BOUND('',#64,.T.);
#40=FACE_OUTER_BOUND('',#65,.T.);
#41=FACE_OUTER_BOUND('',#67,.T.);
#42=FACE_OUTER_BOUND('',#68,.T.);
#43=FACE_OUTER_BOUND('',#69,.T.);
#44=FACE_OUTER_BOUND('',#70,.T.);
#45=FACE_OUTER_BOUND('',#71,.T.);
#46=FACE_OUTER_BOUND('',#72,.T.);
#47=FACE_OUTER_BOUND('',#73,.T.);
#48=FACE_OUTER_BOUND('',#76,.T.);
#49=EDGE_LOOP('',(#229,#230,#231,#232,#233));
#50=EDGE_LOOP('',(#234));
#51=EDGE_LOOP('',(#235,#236,#237,#238));
#52=EDGE_LOOP('',(#239,#240,#241,#242,#243));
#53=EDGE_LOOP('',(#244));
#54=EDGE_LOOP('',(#245,#246,#247,#248));
#55=EDGE_LOOP('',(#249,#250,#251,#252));
#56=EDGE_LOOP('',(#253));
#57=EDGE_LOOP('',(#254,#255,#256,#257));
#58=EDGE_LOOP('',(#258,#259,#260,#261));
#59=EDGE_LOOP('',(#262,#263,#264,#265));
#60=EDGE_LOOP('',(#266));
#61=EDGE_LOOP('',(#267));
#62=EDGE_LOOP('',(#268,#269,#270,#271,#272));
#63=EDGE_LOOP('',(#273));
#64=EDGE_LOOP('',(#274,#275,#276,#277));
#65=EDGE_LOOP('',(#278,#279,#280,#281,#282));
#66=EDGE_LOOP('',(#283));
#67=EDGE_LOOP('',(#284,#285,#286,#287));
#68=EDGE_LOOP('',(#288,#289,#290,#291));
#69=EDGE_LOOP('',(#292));
#70=EDGE_LOOP('',(#293,#294,#295,#296));
#71=EDGE_LOOP('',(#297,#298,#299,#300));
#72=EDGE_LOOP('',(#301,#302,#303,#304));
#73=EDGE_LOOP('',(#305,#306,#307,#308));
#74=EDGE_LOOP('',(#309,#310,#311,#312));
#75=EDGE_LOOP('',(#313,#314,#315,#316));
#76=EDGE_LOOP('',(#317));
#77=EDGE_LOOP('',(#318));
#78=CIRCLE('',#379,0.25);
#79=CIRCLE('',#380,0.0885);
#80=CIRCLE('',#383,0.25);
#81=CIRCLE('',#384,0.0885);
#82=CIRCLE('',#386,0.0885);
#83=CIRCLE('',#388,0.0885);
#84=CIRCLE('',#394,0.25);
#85=CIRCLE('',#396,0.25);
#86=CIRCLE('',#397,0.0885);
#87=CIRCLE('',#400,0.25);
#88=CIRCLE('',#401,0.0885);
#89=CIRCLE('',#403,0.0885);
#90=CIRCLE('',#405,0.0885);
#91=CIRCLE('',#411,0.25);
#92=LINE('',#520,#123);
#93=LINE('',#524,#124);
#94=LINE('',#526,#125);
#95=LINE('',#527,#126);
#96=LINE('',#533,#127);
#97=LINE('',#534,#128);
#98=LINE('',#535,#129);
#99=LINE('',#538,#130);
#100=LINE('',#540,#131);
#101=LINE('',#542,#132);
#102=LINE('',#549,#133);
#103=LINE('',#552,#134);
#104=LINE('',#556,#135);
#105=LINE('',#557,#136);
#106=LINE('',#560,#137);
#107=LINE('',#567,#138);
#108=LINE('',#569,#139);
#109=LINE('',#571,#140);
#110=LINE('',#573,#141);
#111=LINE('',#580,#142);
#112=LINE('',#581,#143);
#113=LINE('',#582,#144);
#114=LINE('',#587,#145);
#115=LINE('',#589,#146);
#116=LINE('',#590,#147);
#117=LINE('',#596,#148);
#118=LINE('',#599,#149);
#119=LINE('',#603,#150);
#120=LINE('',#604,#151);
#121=LINE('',#607,#152);
#122=LINE('',#611,#153);
#123=VECTOR('',#417,0.393700787401575);
#124=VECTOR('',#420,0.393700787401575);
#125=VECTOR('',#421,0.393700787401575);
#126=VECTOR('',#422,0.393700787401575);
#127=VECTOR('',#427,0.393700787401575);
#128=VECTOR('',#428,0.393700787401575);
#129=VECTOR('',#429,0.393700787401575);
#130=VECTOR('',#432,0.393700787401575);
#131=VECTOR('',#433,0.393700787401575);
#132=VECTOR('',#434,0.393700787401575);
#133=VECTOR('',#443,0.0885);
#134=VECTOR('',#446,0.0885);
#135=VECTOR('',#453,0.393700787401575);
#136=VECTOR('',#454,0.393700787401575);
#137=VECTOR('',#459,0.393700787401575);
#138=VECTOR('',#466,0.393700787401575);
#139=VECTOR('',#467,0.393700787401575);
#140=VECTOR('',#468,0.393700787401575);
#141=VECTOR('',#469,0.393700787401575);
#142=VECTOR('',#476,0.393700787401575);
#143=VECTOR('',#477,0.393700787401575);
#144=VECTOR('',#478,0.393700787401575);
#145=VECTOR('',#483,0.393700787401575);
#146=VECTOR('',#484,0.393700787401575);
#147=VECTOR('',#485,0.393700787401575);
#148=VECTOR('',#492,0.0885);
#149=VECTOR('',#495,0.0885);
#150=VECTOR('',#502,0.393700787401575);
#151=VECTOR('',#503,0.393700787401575);
#152=VECTOR('',#508,0.393700787401575);
#153=VECTOR('',#513,0.25);
#154=VERTEX_POINT('',#518);
#155=VERTEX_POINT('',#519);
#156=VERTEX_POINT('',#521);
#157=VERTEX_POINT('',#523);
#158=VERTEX_POINT('',#525);
#159=VERTEX_POINT('',#528);
#160=VERTEX_POINT('',#531);
#161=VERTEX_POINT('',#532);
#162=VERTEX_POINT('',#537);
#163=VERTEX_POINT('',#539);
#164=VERTEX_POINT('',#541);
#165=VERTEX_POINT('',#544);
#166=VERTEX_POINT('',#547);
#167=VERTEX_POINT('',#551);
#168=VERTEX_POINT('',#562);
#169=VERTEX_POINT('',#565);
#170=VERTEX_POINT('',#566);
#171=VERTEX_POINT('',#568);
#172=VERTEX_POINT('',#570);
#173=VERTEX_POINT('',#572);
#174=VERTEX_POINT('',#575);
#175=VERTEX_POINT('',#578);
#176=VERTEX_POINT('',#579);
#177=VERTEX_POINT('',#584);
#178=VERTEX_POINT('',#586);
#179=VERTEX_POINT('',#588);
#180=VERTEX_POINT('',#591);
#181=VERTEX_POINT('',#594);
#182=VERTEX_POINT('',#598);
#183=VERTEX_POINT('',#609);
#184=EDGE_CURVE('',#154,#155,#92,.T.);
#185=EDGE_CURVE('',#154,#156,#78,.T.);
#186=EDGE_CURVE('',#157,#156,#93,.T.);
#187=EDGE_CURVE('',#158,#157,#94,.T.);
#188=EDGE_CURVE('',#155,#158,#95,.T.);
#189=EDGE_CURVE('',#159,#159,#79,.T.);
#190=EDGE_CURVE('',#160,#161,#96,.T.);
#191=EDGE_CURVE('',#160,#154,#97,.T.);
#192=EDGE_CURVE('',#155,#161,#98,.T.);
#193=EDGE_CURVE('',#161,#162,#99,.T.);
#194=EDGE_CURVE('',#162,#163,#100,.T.);
#195=EDGE_CURVE('',#163,#164,#101,.T.);
#196=EDGE_CURVE('',#164,#160,#80,.T.);
#197=EDGE_CURVE('',#165,#165,#81,.T.);
#198=EDGE_CURVE('',#166,#166,#82,.T.);
#199=EDGE_CURVE('',#166,#159,#102,.T.);
#200=EDGE_CURVE('',#165,#167,#103,.T.);
#201=EDGE_CURVE('',#167,#167,#83,.T.);
#202=EDGE_CURVE('',#157,#163,#104,.T.);
#203=EDGE_CURVE('',#158,#162,#105,.T.);
#204=EDGE_CURVE('',#156,#164,#106,.T.);
#205=EDGE_CURVE('',#168,#168,#84,.T.);
#206=EDGE_CURVE('',#169,#170,#107,.T.);
#207=EDGE_CURVE('',#170,#171,#108,.T.);
#208=EDGE_CURVE('',#171,#172,#109,.T.);
#209=EDGE_CURVE('',#172,#173,#110,.T.);
#210=EDGE_CURVE('',#169,#173,#85,.T.);
#211=EDGE_CURVE('',#174,#174,#86,.T.);
#212=EDGE_CURVE('',#175,#176,#111,.T.);
#213=EDGE_CURVE('',#170,#176,#112,.T.);
#214=EDGE_CURVE('',#175,#169,#113,.T.);
#215=EDGE_CURVE('',#177,#175,#87,.T.);
#216=EDGE_CURVE('',#178,#177,#114,.T.);
#217=EDGE_CURVE('',#179,#178,#115,.T.);
#218=EDGE_CURVE('',#176,#179,#116,.T.);
#219=EDGE_CURVE('',#180,#180,#88,.T.);
#220=EDGE_CURVE('',#181,#181,#89,.T.);
#221=EDGE_CURVE('',#181,#174,#117,.T.);
#222=EDGE_CURVE('',#180,#182,#118,.T.);
#223=EDGE_CURVE('',#182,#182,#90,.T.);
#224=EDGE_CURVE('',#171,#179,#119,.T.);
#225=EDGE_CURVE('',#172,#178,#120,.T.);
#226=EDGE_CURVE('',#173,#177,#121,.T.);
#227=EDGE_CURVE('',#183,#183,#91,.T.);
#228=EDGE_CURVE('',#183,#168,#122,.T.);
#229=ORIENTED_EDGE('',*,*,#184,.F.);
#230=ORIENTED_EDGE('',*,*,#185,.T.);
#231=ORIENTED_EDGE('',*,*,#186,.F.);
#232=ORIENTED_EDGE('',*,*,#187,.F.);
#233=ORIENTED_EDGE('',*,*,#188,.F.);
#234=ORIENTED_EDGE('',*,*,#189,.F.);
#235=ORIENTED_EDGE('',*,*,#190,.F.);
#236=ORIENTED_EDGE('',*,*,#191,.T.);
#237=ORIENTED_EDGE('',*,*,#184,.T.);
#238=ORIENTED_EDGE('',*,*,#192,.T.);
#239=ORIENTED_EDGE('',*,*,#190,.T.);
#240=ORIENTED_EDGE('',*,*,#193,.T.);
#241=ORIENTED_EDGE('',*,*,#194,.T.);
#242=ORIENTED_EDGE('',*,*,#195,.T.);
#243=ORIENTED_EDGE('',*,*,#196,.T.);
#244=ORIENTED_EDGE('',*,*,#197,.F.);
#245=ORIENTED_EDGE('',*,*,#198,.T.);
#246=ORIENTED_EDGE('',*,*,#199,.T.);
#247=ORIENTED_EDGE('',*,*,#189,.T.);
#248=ORIENTED_EDGE('',*,*,#199,.F.);
#249=ORIENTED_EDGE('',*,*,#197,.T.);
#250=ORIENTED_EDGE('',*,*,#200,.T.);
#251=ORIENTED_EDGE('',*,*,#201,.T.);
#252=ORIENTED_EDGE('',*,*,#200,.F.);
#253=ORIENTED_EDGE('',*,*,#201,.F.);
#254=ORIENTED_EDGE('',*,*,#187,.T.);
#255=ORIENTED_EDGE('',*,*,#202,.T.);
#256=ORIENTED_EDGE('',*,*,#194,.F.);
#257=ORIENTED_EDGE('',*,*,#203,.F.);
#258=ORIENTED_EDGE('',*,*,#188,.T.);
#259=ORIENTED_EDGE('',*,*,#203,.T.);
#260=ORIENTED_EDGE('',*,*,#193,.F.);
#261=ORIENTED_EDGE('',*,*,#192,.F.);
#262=ORIENTED_EDGE('',*,*,#186,.T.);
#263=ORIENTED_EDGE('',*,*,#204,.T.);
#264=ORIENTED_EDGE('',*,*,#195,.F.);
#265=ORIENTED_EDGE('',*,*,#202,.F.);
#266=ORIENTED_EDGE('',*,*,#205,.F.);
#267=ORIENTED_EDGE('',*,*,#198,.F.);
#268=ORIENTED_EDGE('',*,*,#206,.T.);
#269=ORIENTED_EDGE('',*,*,#207,.T.);
#270=ORIENTED_EDGE('',*,*,#208,.T.);
#271=ORIENTED_EDGE('',*,*,#209,.T.);
#272=ORIENTED_EDGE('',*,*,#210,.F.);
#273=ORIENTED_EDGE('',*,*,#211,.T.);
#274=ORIENTED_EDGE('',*,*,#212,.T.);
#275=ORIENTED_EDGE('',*,*,#213,.F.);
#276=ORIENTED_EDGE('',*,*,#206,.F.);
#277=ORIENTED_EDGE('',*,*,#214,.F.);
#278=ORIENTED_EDGE('',*,*,#212,.F.);
#279=ORIENTED_EDGE('',*,*,#215,.F.);
#280=ORIENTED_EDGE('',*,*,#216,.F.);
#281=ORIENTED_EDGE('',*,*,#217,.F.);
#282=ORIENTED_EDGE('',*,*,#218,.F.);
#283=ORIENTED_EDGE('',*,*,#219,.T.);
#284=ORIENTED_EDGE('',*,*,#220,.F.);
#285=ORIENTED_EDGE('',*,*,#221,.T.);
#286=ORIENTED_EDGE('',*,*,#211,.F.);
#287=ORIENTED_EDGE('',*,*,#221,.F.);
#288=ORIENTED_EDGE('',*,*,#219,.F.);
#289=ORIENTED_EDGE('',*,*,#222,.T.);
#290=ORIENTED_EDGE('',*,*,#223,.F.);
#291=ORIENTED_EDGE('',*,*,#222,.F.);
#292=ORIENTED_EDGE('',*,*,#223,.T.);
#293=ORIENTED_EDGE('',*,*,#208,.F.);
#294=ORIENTED_EDGE('',*,*,#224,.T.);
#295=ORIENTED_EDGE('',*,*,#217,.T.);
#296=ORIENTED_EDGE('',*,*,#225,.F.);
#297=ORIENTED_EDGE('',*,*,#207,.F.);
#298=ORIENTED_EDGE('',*,*,#213,.T.);
#299=ORIENTED_EDGE('',*,*,#218,.T.);
#300=ORIENTED_EDGE('',*,*,#224,.F.);
#301=ORIENTED_EDGE('',*,*,#209,.F.);
#302=ORIENTED_EDGE('',*,*,#225,.T.);
#303=ORIENTED_EDGE('',*,*,#216,.T.);
#304=ORIENTED_EDGE('',*,*,#226,.F.);
#305=ORIENTED_EDGE('',*,*,#227,.F.);
#306=ORIENTED_EDGE('',*,*,#228,.T.);
#307=ORIENTED_EDGE('',*,*,#205,.T.);
#308=ORIENTED_EDGE('',*,*,#228,.F.);
#309=ORIENTED_EDGE('',*,*,#191,.F.);
#310=ORIENTED_EDGE('',*,*,#196,.F.);
#311=ORIENTED_EDGE('',*,*,#204,.F.);
#312=ORIENTED_EDGE('',*,*,#185,.F.);
#313=ORIENTED_EDGE('',*,*,#214,.T.);
#314=ORIENTED_EDGE('',*,*,#210,.T.);
#315=ORIENTED_EDGE('',*,*,#226,.T.);
#316=ORIENTED_EDGE('',*,*,#215,.T.);
#317=ORIENTED_EDGE('',*,*,#227,.T.);
#318=ORIENTED_EDGE('',*,*,#220,.T.);
#319=PLANE('',#378);
#320=PLANE('',#381);
#321=PLANE('',#382);
#322=PLANE('',#389);
#323=PLANE('',#390);
#324=PLANE('',#391);
#325=PLANE('',#392);
#326=PLANE('',#393);
#327=PLANE('',#395);
#328=PLANE('',#398);
#329=PLANE('',#399);
#330=PLANE('',#406);
#331=PLANE('',#407);
#332=PLANE('',#408);
#333=PLANE('',#409);
#334=PLANE('',#412);
#335=ADVANCED_FACE('',(#28,#20),#319,.T.);
#336=ADVANCED_FACE('',(#29),#320,.T.);
#337=ADVANCED_FACE('',(#30,#21),#321,.T.);
#338=ADVANCED_FACE('',(#31),#15,.F.);
#339=ADVANCED_FACE('',(#32),#16,.F.);
#340=ADVANCED_FACE('',(#33),#322,.F.);
#341=ADVANCED_FACE('',(#34),#323,.T.);
#342=ADVANCED_FACE('',(#35),#324,.T.);
#343=ADVANCED_FACE('',(#36),#325,.T.);
#344=ADVANCED_FACE('',(#37,#22),#326,.F.);
#345=ADVANCED_FACE('',(#38,#23),#327,.F.);
#346=ADVANCED_FACE('',(#39),#328,.F.);
#347=ADVANCED_FACE('',(#40,#24),#329,.F.);
#348=ADVANCED_FACE('',(#41),#17,.F.);
#349=ADVANCED_FACE('',(#42),#18,.F.);
#350=ADVANCED_FACE('',(#43),#330,.T.);
#351=ADVANCED_FACE('',(#44),#331,.F.);
#352=ADVANCED_FACE('',(#45),#332,.F.);
#353=ADVANCED_FACE('',(#46),#333,.F.);
#354=ADVANCED_FACE('',(#47,#25,#26),#19,.T.);
#355=ADVANCED_FACE('',(#48,#27),#334,.T.);
#356=CLOSED_SHELL('',(#335,#336,#337,#338,#339,#340,#341,#342,#343,#344,
#345,#346,#347,#348,#349,#350,#351,#352,#353,#354,#355));
#357=DERIVED_UNIT_ELEMENT(#359,1.);
#358=DERIVED_UNIT_ELEMENT(#621,-3.);
#359=(
CONVERSION_BASED_UNIT('gram',#361)
MASS_UNIT()
NAMED_UNIT(#618)
);
#360=(
MASS_UNIT()
NAMED_UNIT(*)
SI_UNIT(.KILO.,.GRAM.)
);
#361=MASS_MEASURE_WITH_UNIT(MASS_MEASURE(0.001),#360);
#362=DERIVED_UNIT((#357,#358));
#363=MEASURE_REPRESENTATION_ITEM('density measure',
POSITIVE_RATIO_MEASURE(1.),#362);
#364=PROPERTY_DEFINITION_REPRESENTATION(#369,#366);
#365=PROPERTY_DEFINITION_REPRESENTATION(#370,#367);
#366=REPRESENTATION('material name',(#368),#615);
#367=REPRESENTATION('density',(#363),#615);
#368=DESCRIPTIVE_REPRESENTATION_ITEM('Generic','Generic');
#369=PROPERTY_DEFINITION('material property','material name',#629);
#370=PROPERTY_DEFINITION('material property','density of part',#629);
#371=DATE_TIME_ROLE('creation_date');
#372=APPLIED_DATE_AND_TIME_ASSIGNMENT(#373,#371,(#629));
#373=DATE_AND_TIME(#374,#375);
#374=CALENDAR_DATE(2026,12,6);
#375=LOCAL_TIME(0,0,0.,#376);
#376=COORDINATED_UNIVERSAL_TIME_OFFSET(0,0,.BEHIND.);
#377=AXIS2_PLACEMENT_3D('',#516,#413,#414);
#378=AXIS2_PLACEMENT_3D('',#517,#415,#416);
#379=AXIS2_PLACEMENT_3D('',#522,#418,#419);
#380=AXIS2_PLACEMENT_3D('',#529,#423,#424);
#381=AXIS2_PLACEMENT_3D('',#530,#425,#426);
#382=AXIS2_PLACEMENT_3D('',#536,#430,#431);
#383=AXIS2_PLACEMENT_3D('',#543,#435,#436);
#384=AXIS2_PLACEMENT_3D('',#545,#437,#438);
#385=AXIS2_PLACEMENT_3D('',#546,#439,#440);
#386=AXIS2_PLACEMENT_3D('',#548,#441,#442);
#387=AXIS2_PLACEMENT_3D('',#550,#444,#445);
#388=AXIS2_PLACEMENT_3D('',#553,#447,#448);
#389=AXIS2_PLACEMENT_3D('',#554,#449,#450);
#390=AXIS2_PLACEMENT_3D('',#555,#451,#452);
#391=AXIS2_PLACEMENT_3D('',#558,#455,#456);
#392=AXIS2_PLACEMENT_3D('',#559,#457,#458);
#393=AXIS2_PLACEMENT_3D('',#561,#460,#461);
#394=AXIS2_PLACEMENT_3D('',#563,#462,#463);
#395=AXIS2_PLACEMENT_3D('',#564,#464,#465);
#396=AXIS2_PLACEMENT_3D('',#574,#470,#471);
#397=AXIS2_PLACEMENT_3D('',#576,#472,#473);
#398=AXIS2_PLACEMENT_3D('',#577,#474,#475);
#399=AXIS2_PLACEMENT_3D('',#583,#479,#480);
#400=AXIS2_PLACEMENT_3D('',#585,#481,#482);
#401=AXIS2_PLACEMENT_3D('',#592,#486,#487);
#402=AXIS2_PLACEMENT_3D('',#593,#488,#489);
#403=AXIS2_PLACEMENT_3D('',#595,#490,#491);
#404=AXIS2_PLACEMENT_3D('',#597,#493,#494);
#405=AXIS2_PLACEMENT_3D('',#600,#496,#497);
#406=AXIS2_PLACEMENT_3D('',#601,#498,#499);
#407=AXIS2_PLACEMENT_3D('',#602,#500,#501);
#408=AXIS2_PLACEMENT_3D('',#605,#504,#505);
#409=AXIS2_PLACEMENT_3D('',#606,#506,#507);
#410=AXIS2_PLACEMENT_3D('',#608,#509,#510);
#411=AXIS2_PLACEMENT_3D('',#610,#511,#512);
#412=AXIS2_PLACEMENT_3D('',#612,#514,#515);
#413=DIRECTION('axis',(0.,0.,1.));
#414=DIRECTION('refdir',(1.,0.,0.));
#415=DIRECTION('center_axis',(0.,1.,0.));
#416=DIRECTION('ref_axis',(0.,0.,1.));
#417=DIRECTION('',(4.00443120194848E-16,0.,-1.));
#418=DIRECTION('center_axis',(0.,1.,0.));
#419=DIRECTION('ref_axis',(-1.,0.,0.));
#420=DIRECTION('',(-4.00443120194848E-16,0.,1.));
#421=DIRECTION('',(0.866025403784439,0.,0.5));
#422=DIRECTION('',(0.866025403784439,0.,-0.5));
#423=DIRECTION('center_axis',(0.,1.,0.));
#424=DIRECTION('ref_axis',(1.,0.,0.));
#425=DIRECTION('center_axis',(1.,0.,4.00443120194848E-16));
#426=DIRECTION('ref_axis',(4.00443120194848E-16,0.,-1.));
#427=DIRECTION('',(4.00443120194848E-16,0.,-1.));
#428=DIRECTION('',(0.,-1.,0.));
#429=DIRECTION('',(0.,1.,0.));
#430=DIRECTION('center_axis',(0.,-1.,0.));
#431=DIRECTION('ref_axis',(0.,0.,-1.));
#432=DIRECTION('',(0.866025403784439,0.,-0.5));
#433=DIRECTION('',(0.866025403784439,0.,0.5));
#434=DIRECTION('',(0.,0.,1.));
#435=DIRECTION('center_axis',(0.,-1.,0.));
#436=DIRECTION('ref_axis',(-1.,0.,0.));
#437=DIRECTION('center_axis',(0.,-1.,0.));
#438=DIRECTION('ref_axis',(1.,0.,0.));
#439=DIRECTION('center_axis',(0.,1.,0.));
#440=DIRECTION('ref_axis',(1.,0.,0.));
#441=DIRECTION('center_axis',(0.,-1.,0.));
#442=DIRECTION('ref_axis',(1.,0.,0.));
#443=DIRECTION('',(0.,1.,0.));
#444=DIRECTION('center_axis',(0.,1.,0.));
#445=DIRECTION('ref_axis',(1.,0.,0.));
#446=DIRECTION('',(0.,1.,0.));
#447=DIRECTION('center_axis',(0.,1.,0.));
#448=DIRECTION('ref_axis',(1.,0.,0.));
#449=DIRECTION('center_axis',(0.,1.,0.));
#450=DIRECTION('ref_axis',(1.,0.,0.));
#451=DIRECTION('center_axis',(-0.5,0.,0.866025403784439));
#452=DIRECTION('ref_axis',(0.866025403784439,0.,0.5));
#453=DIRECTION('',(0.,1.,0.));
#454=DIRECTION('',(0.,1.,0.));
#455=DIRECTION('center_axis',(0.5,0.,0.866025403784439));
#456=DIRECTION('ref_axis',(0.866025403784439,0.,-0.5));
#457=DIRECTION('center_axis',(-1.,0.,-4.00443120194848E-16));
#458=DIRECTION('ref_axis',(-4.00443120194848E-16,0.,1.));
#459=DIRECTION('',(0.,1.,0.));
#460=DIRECTION('center_axis',(0.,1.,0.));
#461=DIRECTION('ref_axis',(0.,0.,1.));
#462=DIRECTION('center_axis',(0.,1.,0.));
#463=DIRECTION('ref_axis',(-1.,0.,0.));
#464=DIRECTION('center_axis',(0.,1.,0.));
#465=DIRECTION('ref_axis',(0.,0.,1.));
#466=DIRECTION('',(4.00443120194848E-16,0.,-1.));
#467=DIRECTION('',(0.866025403784439,0.,-0.5));
#468=DIRECTION('',(0.866025403784439,0.,0.5));
#469=DIRECTION('',(-4.00443120194848E-16,0.,1.));
#470=DIRECTION('center_axis',(0.,1.,0.));
#471=DIRECTION('ref_axis',(-1.,0.,0.));
#472=DIRECTION('center_axis',(0.,1.,0.));
#473=DIRECTION('ref_axis',(1.,0.,0.));
#474=DIRECTION('center_axis',(-1.,0.,-4.00443120194848E-16));
#475=DIRECTION('ref_axis',(4.00443120194848E-16,0.,-1.));
#476=DIRECTION('',(4.00443120194848E-16,0.,-1.));
#477=DIRECTION('',(0.,-1.,0.));
#478=DIRECTION('',(0.,1.,0.));
#479=DIRECTION('center_axis',(0.,-1.,0.));
#480=DIRECTION('ref_axis',(0.,0.,-1.));
#481=DIRECTION('center_axis',(0.,-1.,0.));
#482=DIRECTION('ref_axis',(-1.,0.,0.));
#483=DIRECTION('',(0.,0.,1.));
#484=DIRECTION('',(0.866025403784439,0.,0.5));
#485=DIRECTION('',(0.866025403784439,0.,-0.5));
#486=DIRECTION('center_axis',(0.,-1.,0.));
#487=DIRECTION('ref_axis',(1.,0.,0.));
#488=DIRECTION('center_axis',(0.,1.,0.));
#489=DIRECTION('ref_axis',(1.,0.,0.));
#490=DIRECTION('center_axis',(0.,-1.,0.));
#491=DIRECTION('ref_axis',(1.,0.,0.));
#492=DIRECTION('',(0.,-1.,0.));
#493=DIRECTION('center_axis',(0.,1.,0.));
#494=DIRECTION('ref_axis',(1.,0.,0.));
#495=DIRECTION('',(0.,-1.,0.));
#496=DIRECTION('center_axis',(0.,1.,0.));
#497=DIRECTION('ref_axis',(1.,0.,0.));
#498=DIRECTION('center_axis',(0.,1.,0.));
#499=DIRECTION('ref_axis',(1.,0.,0.));
#500=DIRECTION('center_axis',(0.5,0.,-0.866025403784439));
#501=DIRECTION('ref_axis',(0.866025403784439,0.,0.5));
#502=DIRECTION('',(0.,-1.,0.));
#503=DIRECTION('',(0.,-1.,0.));
#504=DIRECTION('center_axis',(-0.5,0.,-0.866025403784439));
#505=DIRECTION('ref_axis',(0.866025403784439,0.,-0.5));
#506=DIRECTION('center_axis',(1.,0.,4.00443120194848E-16));
#507=DIRECTION('ref_axis',(-4.00443120194848E-16,0.,1.));
#508=DIRECTION('',(0.,-1.,0.));
#509=DIRECTION('center_axis',(0.,1.,0.));
#510=DIRECTION('ref_axis',(-1.,0.,0.));
#511=DIRECTION('center_axis',(0.,1.,0.));
#512=DIRECTION('ref_axis',(-1.,0.,0.));
#513=DIRECTION('',(0.,-1.,0.));
#514=DIRECTION('center_axis',(0.,1.,0.));
#515=DIRECTION('ref_axis',(0.,0.,1.));
#516=CARTESIAN_POINT('',(0.,0.,0.));
#517=CARTESIAN_POINT('Origin',(-4.92671161657047E-18,-1.875,9.85342323314094E-18));
#518=CARTESIAN_POINT('',(-0.189058541798566,-1.875,0.163575266385233));
#519=CARTESIAN_POINT('',(-0.189058541798566,-1.875,-0.109153));
#520=CARTESIAN_POINT('',(-0.189058541798566,-1.875,0.109153));
#521=CARTESIAN_POINT('',(0.189058541798566,-1.875,0.163575266385233));
#522=CARTESIAN_POINT('Origin',(0.,-1.875,0.));
#523=CARTESIAN_POINT('',(0.189058541798566,-1.875,-0.109153));
#524=CARTESIAN_POINT('',(0.189058541798566,-1.875,-0.109153));
#525=CARTESIAN_POINT('',(-6.36137395311862E-18,-1.875,-0.218306));
#526=CARTESIAN_POINT('',(-6.36137395311862E-18,-1.875,-0.218306));
#527=CARTESIAN_POINT('',(-0.189058541798566,-1.875,-0.109153));
#528=CARTESIAN_POINT('',(-0.0885,-1.875,1.08381241724541E-17));
#529=CARTESIAN_POINT('Origin',(0.,-1.875,0.));
#530=CARTESIAN_POINT('Origin',(-0.189058541798566,-1.875,0.109153));
#531=CARTESIAN_POINT('',(-0.189058541798566,-1.7,0.163575266385233));
#532=CARTESIAN_POINT('',(-0.189058541798566,-1.7,-0.109153));
#533=CARTESIAN_POINT('',(-0.189058541798566,-1.7,0.109153));
#534=CARTESIAN_POINT('',(-0.189058541798565,0.,0.163575266385234));
#535=CARTESIAN_POINT('',(-0.189058541798566,-1.875,-0.109153));
#536=CARTESIAN_POINT('Origin',(0.,-1.7,0.));
#537=CARTESIAN_POINT('',(0.,-1.7,-0.218306));
#538=CARTESIAN_POINT('',(-0.189058541798566,-1.7,-0.109153));
#539=CARTESIAN_POINT('',(0.189058541798566,-1.7,-0.109153));
#540=CARTESIAN_POINT('',(-6.36137395311862E-18,-1.7,-0.218306));
#541=CARTESIAN_POINT('',(0.189058541798566,-1.7,0.163575266385233));
#542=CARTESIAN_POINT('',(0.189058541798566,-1.7,0.));
#543=CARTESIAN_POINT('Origin',(0.,-1.7,0.));
#544=CARTESIAN_POINT('',(-0.0885,-1.7,-1.08381241724541E-17));
#545=CARTESIAN_POINT('Origin',(0.,-1.7,0.));
#546=CARTESIAN_POINT('Origin',(0.,-1.75,0.));
#547=CARTESIAN_POINT('',(-0.0885,-2.,1.08381241724541E-17));
#548=CARTESIAN_POINT('Origin',(0.,-2.,0.));
#549=CARTESIAN_POINT('',(-0.0885,-1.75,1.08381241724541E-17));
#550=CARTESIAN_POINT('Origin',(0.,-1.75,0.));
#551=CARTESIAN_POINT('',(-0.0885,-1.5,1.08381241724541E-17));
#552=CARTESIAN_POINT('',(-0.0885,-1.75,1.08381241724541E-17));
#553=CARTESIAN_POINT('Origin',(0.,-1.5,0.));
#554=CARTESIAN_POINT('Origin',(0.,-1.5,0.));
#555=CARTESIAN_POINT('Origin',(-6.36137395311862E-18,-1.875,-0.218306));
#556=CARTESIAN_POINT('',(0.189058541798566,-1.875,-0.109153));
#557=CARTESIAN_POINT('',(-6.36137395311862E-18,-1.875,-0.218306));
#558=CARTESIAN_POINT('Origin',(-0.189058541798566,-1.875,-0.109153));
#559=CARTESIAN_POINT('Origin',(0.189058541798566,-1.875,-0.109153));
#560=CARTESIAN_POINT('',(0.189058541798566,0.,0.163575266385233));
#561=CARTESIAN_POINT('Origin',(0.,-2.,0.));
#562=CARTESIAN_POINT('',(0.25,-2.,-3.06161699786838E-17));
#563=CARTESIAN_POINT('Origin',(0.,-2.,0.));
#564=CARTESIAN_POINT('Origin',(-4.92671161657047E-18,1.875,9.85342323314094E-18));
#565=CARTESIAN_POINT('',(-0.189058541798566,1.875,0.163575266385233));
#566=CARTESIAN_POINT('',(-0.189058541798566,1.875,-0.109153));
#567=CARTESIAN_POINT('',(-0.189058541798566,1.875,0.109153));
#568=CARTESIAN_POINT('',(-6.36137395311862E-18,1.875,-0.218306));
#569=CARTESIAN_POINT('',(-0.189058541798566,1.875,-0.109153));
#570=CARTESIAN_POINT('',(0.189058541798566,1.875,-0.109153));
#571=CARTESIAN_POINT('',(-6.36137395311862E-18,1.875,-0.218306));
#572=CARTESIAN_POINT('',(0.189058541798566,1.875,0.163575266385233));
#573=CARTESIAN_POINT('',(0.189058541798566,1.875,-0.109153));
#574=CARTESIAN_POINT('Origin',(0.,1.875,0.));
#575=CARTESIAN_POINT('',(-0.0885,1.875,1.08381241724541E-17));
#576=CARTESIAN_POINT('Origin',(0.,1.875,0.));
#577=CARTESIAN_POINT('Origin',(-0.189058541798566,1.875,0.109153));
#578=CARTESIAN_POINT('',(-0.189058541798566,1.7,0.163575266385233));
#579=CARTESIAN_POINT('',(-0.189058541798566,1.7,-0.109153));
#580=CARTESIAN_POINT('',(-0.189058541798566,1.7,0.109153));
#581=CARTESIAN_POINT('',(-0.189058541798566,1.875,-0.109153));
#582=CARTESIAN_POINT('',(-0.189058541798565,0.,0.163575266385234));
#583=CARTESIAN_POINT('Origin',(0.,1.7,0.));
#584=CARTESIAN_POINT('',(0.189058541798566,1.7,0.163575266385233));
#585=CARTESIAN_POINT('Origin',(0.,1.7,0.));
#586=CARTESIAN_POINT('',(0.189058541798566,1.7,-0.109153));
#587=CARTESIAN_POINT('',(0.189058541798566,1.7,0.));
#588=CARTESIAN_POINT('',(0.,1.7,-0.218306));
#589=CARTESIAN_POINT('',(-6.36137395311862E-18,1.7,-0.218306));
#590=CARTESIAN_POINT('',(-0.189058541798566,1.7,-0.109153));
#591=CARTESIAN_POINT('',(-0.0885,1.7,-1.08381241724541E-17));
#592=CARTESIAN_POINT('Origin',(0.,1.7,0.));
#593=CARTESIAN_POINT('Origin',(0.,1.75,0.));
#594=CARTESIAN_POINT('',(-0.0885,2.,1.08381241724541E-17));
#595=CARTESIAN_POINT('Origin',(0.,2.,0.));
#596=CARTESIAN_POINT('',(-0.0885,1.75,1.08381241724541E-17));
#597=CARTESIAN_POINT('Origin',(0.,1.75,0.));
#598=CARTESIAN_POINT('',(-0.0885,1.5,1.08381241724541E-17));
#599=CARTESIAN_POINT('',(-0.0885,1.75,1.08381241724541E-17));
#600=CARTESIAN_POINT('Origin',(0.,1.5,0.));
#601=CARTESIAN_POINT('Origin',(0.,1.5,0.));
#602=CARTESIAN_POINT('Origin',(-6.36137395311862E-18,1.875,-0.218306));
#603=CARTESIAN_POINT('',(-6.36137395311862E-18,1.875,-0.218306));
#604=CARTESIAN_POINT('',(0.189058541798566,1.875,-0.109153));
#605=CARTESIAN_POINT('Origin',(-0.189058541798566,1.875,-0.109153));
#606=CARTESIAN_POINT('Origin',(0.189058541798566,1.875,-0.109153));
#607=CARTESIAN_POINT('',(0.189058541798566,0.,0.163575266385233));
#608=CARTESIAN_POINT('Origin',(0.,0.,0.));
#609=CARTESIAN_POINT('',(0.25,2.,-3.06161699786838E-17));
#610=CARTESIAN_POINT('Origin',(0.,2.,0.));
#611=CARTESIAN_POINT('',(0.25,0.,-3.06161699786838E-17));
#612=CARTESIAN_POINT('Origin',(0.,2.,0.));
#613=UNCERTAINTY_MEASURE_WITH_UNIT(LENGTH_MEASURE(0.000393700787401575),
#619,'DISTANCE_ACCURACY_VALUE',
'Maximum model space distance between geometric entities at asserted c
onnectivities');
#614=UNCERTAINTY_MEASURE_WITH_UNIT(LENGTH_MEASURE(0.000393700787401575),
#619,'DISTANCE_ACCURACY_VALUE',
'Maximum model space distance between geometric entities at asserted c
onnectivities');
#615=(
GEOMETRIC_REPRESENTATION_CONTEXT(3)
GLOBAL_UNCERTAINTY_ASSIGNED_CONTEXT((#613))
GLOBAL_UNIT_ASSIGNED_CONTEXT((#619,#623,#624))
REPRESENTATION_CONTEXT('','3D')
);
#616=(
GEOMETRIC_REPRESENTATION_CONTEXT(3)
GLOBAL_UNCERTAINTY_ASSIGNED_CONTEXT((#614))
GLOBAL_UNIT_ASSIGNED_CONTEXT((#619,#623,#624))
REPRESENTATION_CONTEXT('','3D')
);
#617=DIMENSIONAL_EXPONENTS(1.,0.,0.,0.,0.,0.,0.);
#618=DIMENSIONAL_EXPONENTS(0.,1.,0.,0.,0.,0.,0.);
#619=(
CONVERSION_BASED_UNIT('inch',#622)
LENGTH_UNIT()
NAMED_UNIT(#617)
);
#620=(
LENGTH_UNIT()
NAMED_UNIT(*)
SI_UNIT(.MILLI.,.METRE.)
);
#621=(
LENGTH_UNIT()
NAMED_UNIT(*)
SI_UNIT(.CENTI.,.METRE.)
);
#622=LENGTH_MEASURE_WITH_UNIT(LENGTH_MEASURE(25.4),#620);
#623=(
NAMED_UNIT(*)
PLANE_ANGLE_UNIT()
SI_UNIT($,.RADIAN.)
);
#624=(
NAMED_UNIT(*)
SI_UNIT($,.STERADIAN.)
SOLID_ANGLE_UNIT()
);
#625=SHAPE_DEFINITION_REPRESENTATION(#626,#627);
#626=PRODUCT_DEFINITION_SHAPE('',$,#629);
#627=SHAPE_REPRESENTATION('',(#377),#615);
#628=PRODUCT_DEFINITION_CONTEXT('part definition',#633,'design');
#629=PRODUCT_DEFINITION('J011595','panel-spacer',#630,#628);
#630=PRODUCT_DEFINITION_FORMATION('0',$,#635);
#631=PRODUCT_RELATED_PRODUCT_CATEGORY('panel-spacer','panel-spacer',(#635));
#632=APPLICATION_PROTOCOL_DEFINITION('international standard',
'automotive_design',2009,#633);
#633=APPLICATION_CONTEXT(
'Core Data for Automotive Mechanical Design Process');
#634=PRODUCT_CONTEXT('part definition',#633,'mechanical');
#635=PRODUCT('J011595','panel-spacer',$,(#634));
#636=PRESENTATION_STYLE_ASSIGNMENT((#638));
#637=PRESENTATION_STYLE_ASSIGNMENT((#639));
#638=SURFACE_STYLE_USAGE(.BOTH.,#644);
#639=SURFACE_STYLE_USAGE(.BOTH.,#645);
#640=SURFACE_STYLE_RENDERING_WITH_PROPERTIES($,#652,(#642));
#641=SURFACE_STYLE_RENDERING_WITH_PROPERTIES($,#653,(#643));
#642=SURFACE_STYLE_TRANSPARENT(0.);
#643=SURFACE_STYLE_TRANSPARENT(0.58500000834465);
#644=SURFACE_SIDE_STYLE('',(#646,#640));
#645=SURFACE_SIDE_STYLE('',(#647,#641));
#646=SURFACE_STYLE_FILL_AREA(#648);
#647=SURFACE_STYLE_FILL_AREA(#649);
#648=FILL_AREA_STYLE('',(#650));
#649=FILL_AREA_STYLE('',(#651));
#650=FILL_AREA_STYLE_COLOUR('',#652);
#651=FILL_AREA_STYLE_COLOUR('',#653);
#652=COLOUR_RGB('',0.749019607843137,0.749019607843137,0.749019607843137);
#653=COLOUR_RGB('',0.509803921568627,0.52156862745098,0.63921568627451);
ENDSEC;
END-ISO-10303-21;
