%TF.GenerationSoftware,KiCad,Pcbnew,10.0.3*%
%TF.CreationDate,2026-06-18T19:27:22-04:00*%
%TF.ProjectId,panel,70616e65-6c2e-46b6-9963-61645f706362,rev?*%
%TF.SameCoordinates,Original*%
%TF.FileFunction,Copper,L2,Bot*%
%TF.FilePolarity,Positive*%
%FSLAX46Y46*%
G04 Gerber Fmt 4.6, Leading zero omitted, Abs format (unit mm)*
G04 Created by KiCad (PCBNEW 10.0.3) date 2026-06-18 19:27:22*
%MOMM*%
%LPD*%
G01*
G04 APERTURE LIST*
%TA.AperFunction,ComponentPad*%
%ADD10C,1.800000*%
%TD*%
%TA.AperFunction,ComponentPad*%
%ADD11R,1.800000X1.800000*%
%TD*%
%TA.AperFunction,ComponentPad*%
%ADD12O,4.500000X2.250000*%
%TD*%
%TA.AperFunction,ComponentPad*%
%ADD13C,1.440000*%
%TD*%
%TA.AperFunction,Conductor*%
%ADD14C,0.500000*%
%TD*%
G04 APERTURE END LIST*
D10*
%TO.P,RV4,1,1_1*%
%TO.N,+12V*%
X93235000Y-61605000D03*
%TO.P,RV4,2,2_2*%
%TO.N,Net-(D13-A)*%
X95775000Y-53985000D03*
%TO.P,RV4,3,3_3*%
%TO.N,GND*%
X93235000Y-48905000D03*
%TD*%
%TO.P,RV3,1,1_1*%
%TO.N,+12V*%
X100235000Y-61605000D03*
%TO.P,RV3,2,2_2*%
%TO.N,Net-(D1-A)*%
X102775000Y-53985000D03*
%TO.P,RV3,3,3_3*%
%TO.N,GND*%
X100235000Y-48905000D03*
%TD*%
D11*
%TO.P,D12,1,K_1*%
%TO.N,GND*%
X48460000Y-96000000D03*
D10*
%TO.P,D12,2,A_2*%
%TO.N,Net-(D11-K)*%
X51000000Y-96000000D03*
%TD*%
D12*
%TO.P,J1,1*%
%TO.N,+12V*%
X52500000Y-58937500D03*
%TO.P,J1,2*%
%TO.N,GND*%
X52500000Y-52637500D03*
%TD*%
D13*
%TO.P,RV1,1,1_1*%
%TO.N,+12V*%
X75540000Y-48000000D03*
%TO.P,RV1,2,2_2*%
%TO.N,Net-(D1-A)*%
X73000000Y-48000000D03*
%TO.P,RV1,3,3_3*%
%TO.N,GND*%
X70460000Y-48000000D03*
%TD*%
D10*
%TO.P,D15,2,A_2*%
%TO.N,Net-(D14-K)*%
X64500000Y-66000000D03*
D11*
%TO.P,D15,1,K_1*%
%TO.N,Net-(D15-K)*%
X61960000Y-66000000D03*
%TD*%
D10*
%TO.P,D11,2,A_2*%
%TO.N,Net-(D10-K)*%
X51000000Y-69000000D03*
D11*
%TO.P,D11,1,K_1*%
%TO.N,Net-(D11-K)*%
X48460000Y-69000000D03*
%TD*%
%TO.P,D13,1,K_1*%
%TO.N,Net-(D13-K)*%
X100460000Y-95000000D03*
D10*
%TO.P,D13,2,A_2*%
%TO.N,Net-(D13-A)*%
X103000000Y-95000000D03*
%TD*%
D11*
%TO.P,D16,1,K_1*%
%TO.N,GND*%
X48500000Y-79500000D03*
D10*
%TO.P,D16,2,A_2*%
%TO.N,Net-(D15-K)*%
X51040000Y-79500000D03*
%TD*%
D11*
%TO.P,D10,1,K_1*%
%TO.N,Net-(D10-K)*%
X87460000Y-66000000D03*
D10*
%TO.P,D10,2,A_2*%
%TO.N,Net-(D1-K)*%
X90000000Y-66000000D03*
%TD*%
D11*
%TO.P,D9,1,K_1*%
%TO.N,Net-(D1-K)*%
X100000000Y-80000000D03*
D10*
%TO.P,D9,2,A_2*%
%TO.N,Net-(D1-A)*%
X102540000Y-80000000D03*
%TD*%
%TO.P,D14,2,A_2*%
%TO.N,Net-(D13-K)*%
X103000000Y-69000000D03*
D11*
%TO.P,D14,1,K_1*%
%TO.N,Net-(D14-K)*%
X100460000Y-69000000D03*
%TD*%
D13*
%TO.P,RV2,1,1_1*%
%TO.N,+12V*%
X86580000Y-48000000D03*
%TO.P,RV2,2,2_2*%
%TO.N,Net-(D13-A)*%
X84040000Y-48000000D03*
%TO.P,RV2,3,3_3*%
%TO.N,GND*%
X81500000Y-48000000D03*
%TD*%
%TO.N,Net-(D1-A)*%
D14*
X102775000Y-53985000D02*
X104350000Y-55560000D01*
X104350000Y-55560000D02*
X104350000Y-78190000D01*
X104350000Y-78190000D02*
X102540000Y-80000000D01*
%TO.N,GND*%
X70460000Y-48000000D02*
X57137500Y-48000000D01*
X57137500Y-48000000D02*
X52500000Y-52637500D01*
X81500000Y-48000000D02*
X80330000Y-49170000D01*
X80330000Y-49170000D02*
X71630000Y-49170000D01*
X71630000Y-49170000D02*
X70460000Y-48000000D01*
X93235000Y-48905000D02*
X92970000Y-49170000D01*
X92970000Y-49170000D02*
X82670000Y-49170000D01*
X82670000Y-49170000D02*
X81500000Y-48000000D01*
X100235000Y-48905000D02*
X93235000Y-48905000D01*
%TD*%
%TA.AperFunction,NonConductor*%
G36*
X105442539Y-43520185D02*
G01*
X105488294Y-43572989D01*
X105499500Y-43624500D01*
X105499500Y-99375500D01*
X105479815Y-99442539D01*
X105427011Y-99488294D01*
X105375500Y-99499500D01*
X92624500Y-99499500D01*
X92557461Y-99479815D01*
X92511706Y-99427011D01*
X92500500Y-99375500D01*
X92500500Y-94052135D01*
X99059500Y-94052135D01*
X99059500Y-95947870D01*
X99059501Y-95947876D01*
X99065908Y-96007483D01*
X99116202Y-96142328D01*
X99116206Y-96142335D01*
X99202452Y-96257544D01*
X99202455Y-96257547D01*
X99317664Y-96343793D01*
X99317671Y-96343797D01*
X99452517Y-96394091D01*
X99452516Y-96394091D01*
X99459444Y-96394835D01*
X99512127Y-96400500D01*
X101407872Y-96400499D01*
X101467483Y-96394091D01*
X101602331Y-96343796D01*
X101717546Y-96257546D01*
X101803796Y-96142331D01*
X101831429Y-96068243D01*
X101833601Y-96062420D01*
X101875471Y-96006486D01*
X101940936Y-95982068D01*
X102009209Y-95996919D01*
X102037464Y-96018071D01*
X102087636Y-96068243D01*
X102087641Y-96068247D01*
X102189603Y-96142326D01*
X102265978Y-96197815D01*
X102394375Y-96263237D01*
X102462393Y-96297895D01*
X102462396Y-96297896D01*
X102554898Y-96327951D01*
X102672049Y-96366015D01*
X102889778Y-96400500D01*
X102889779Y-96400500D01*
X103110221Y-96400500D01*
X103110222Y-96400500D01*
X103327951Y-96366015D01*
X103537606Y-96297895D01*
X103734022Y-96197815D01*
X103912365Y-96068242D01*
X104068242Y-95912365D01*
X104197815Y-95734022D01*
X104297895Y-95537606D01*
X104366015Y-95327951D01*
X104400500Y-95110222D01*
X104400500Y-94889778D01*
X104366015Y-94672049D01*
X104297895Y-94462394D01*
X104297895Y-94462393D01*
X104263237Y-94394375D01*
X104197815Y-94265978D01*
X104139501Y-94185715D01*
X104068247Y-94087641D01*
X104068243Y-94087636D01*
X103912363Y-93931756D01*
X103912358Y-93931752D01*
X103734025Y-93802187D01*
X103734024Y-93802186D01*
X103734022Y-93802185D01*
X103616791Y-93742452D01*
X103537606Y-93702104D01*
X103537603Y-93702103D01*
X103327952Y-93633985D01*
X103219086Y-93616742D01*
X103110222Y-93599500D01*
X102889778Y-93599500D01*
X102817201Y-93610995D01*
X102672047Y-93633985D01*
X102462396Y-93702103D01*
X102462393Y-93702104D01*
X102265974Y-93802187D01*
X102087641Y-93931752D01*
X102087636Y-93931756D01*
X102037463Y-93981929D01*
X101976140Y-94015413D01*
X101906448Y-94010428D01*
X101850515Y-93968557D01*
X101833601Y-93937580D01*
X101803797Y-93857671D01*
X101803793Y-93857664D01*
X101717547Y-93742455D01*
X101717544Y-93742452D01*
X101602335Y-93656206D01*
X101602328Y-93656202D01*
X101467482Y-93605908D01*
X101467483Y-93605908D01*
X101407883Y-93599501D01*
X101407881Y-93599500D01*
X101407873Y-93599500D01*
X101407864Y-93599500D01*
X99512129Y-93599500D01*
X99512123Y-93599501D01*
X99452516Y-93605908D01*
X99317671Y-93656202D01*
X99317664Y-93656206D01*
X99202455Y-93742452D01*
X99202452Y-93742455D01*
X99116206Y-93857664D01*
X99116202Y-93857671D01*
X99065908Y-93992517D01*
X99059501Y-94052116D01*
X99059500Y-94052135D01*
X92500500Y-94052135D01*
X92500500Y-86393713D01*
X93649500Y-86393713D01*
X93649500Y-86606286D01*
X93682753Y-86816239D01*
X93748444Y-87018414D01*
X93844951Y-87207820D01*
X93969890Y-87379786D01*
X94120213Y-87530109D01*
X94292179Y-87655048D01*
X94292181Y-87655049D01*
X94292184Y-87655051D01*
X94481588Y-87751557D01*
X94683757Y-87817246D01*
X94893713Y-87850500D01*
X94893714Y-87850500D01*
X95106286Y-87850500D01*
X95106287Y-87850500D01*
X95316243Y-87817246D01*
X95518412Y-87751557D01*
X95707816Y-87655051D01*
X95729789Y-87639086D01*
X95879786Y-87530109D01*
X95879788Y-87530106D01*
X95879792Y-87530104D01*
X96030104Y-87379792D01*
X96030106Y-87379788D01*
X96030109Y-87379786D01*
X96155048Y-87207820D01*
X96155047Y-87207820D01*
X96155051Y-87207816D01*
X96251557Y-87018412D01*
X96317246Y-86816243D01*
X96350500Y-86606287D01*
X96350500Y-86393713D01*
X96317246Y-86183757D01*
X96251557Y-85981588D01*
X96155051Y-85792184D01*
X96155049Y-85792181D01*
X96155048Y-85792179D01*
X96030109Y-85620213D01*
X95879786Y-85469890D01*
X95707820Y-85344951D01*
X95518414Y-85248444D01*
X95518413Y-85248443D01*
X95518412Y-85248443D01*
X95316243Y-85182754D01*
X95316241Y-85182753D01*
X95316240Y-85182753D01*
X95154957Y-85157208D01*
X95106287Y-85149500D01*
X94893713Y-85149500D01*
X94845042Y-85157208D01*
X94683760Y-85182753D01*
X94481585Y-85248444D01*
X94292179Y-85344951D01*
X94120213Y-85469890D01*
X93969890Y-85620213D01*
X93844951Y-85792179D01*
X93748444Y-85981585D01*
X93682753Y-86183760D01*
X93649500Y-86393713D01*
X92500500Y-86393713D01*
X92500500Y-79052135D01*
X98599500Y-79052135D01*
X98599500Y-80947870D01*
X98599501Y-80947876D01*
X98605908Y-81007483D01*
X98656202Y-81142328D01*
X98656206Y-81142335D01*
X98742452Y-81257544D01*
X98742455Y-81257547D01*
X98857664Y-81343793D01*
X98857671Y-81343797D01*
X98992517Y-81394091D01*
X98992516Y-81394091D01*
X98999444Y-81394835D01*
X99052127Y-81400500D01*
X100947872Y-81400499D01*
X101007483Y-81394091D01*
X101142331Y-81343796D01*
X101257546Y-81257546D01*
X101343796Y-81142331D01*
X101371429Y-81068243D01*
X101373601Y-81062420D01*
X101415471Y-81006486D01*
X101480936Y-80982068D01*
X101549209Y-80996919D01*
X101577464Y-81018071D01*
X101627636Y-81068243D01*
X101627641Y-81068247D01*
X101729603Y-81142326D01*
X101805978Y-81197815D01*
X101934375Y-81263237D01*
X102002393Y-81297895D01*
X102002396Y-81297896D01*
X102107221Y-81331955D01*
X102212049Y-81366015D01*
X102429778Y-81400500D01*
X102429779Y-81400500D01*
X102650221Y-81400500D01*
X102650222Y-81400500D01*
X102867951Y-81366015D01*
X103077606Y-81297895D01*
X103274022Y-81197815D01*
X103452365Y-81068242D01*
X103608242Y-80912365D01*
X103737815Y-80734022D01*
X103837895Y-80537606D01*
X103906015Y-80327951D01*
X103940500Y-80110222D01*
X103940500Y-79889778D01*
X103919084Y-79754566D01*
X103928038Y-79685276D01*
X103953873Y-79647493D01*
X104932952Y-78668415D01*
X104988001Y-78586027D01*
X105015084Y-78545495D01*
X105038518Y-78488920D01*
X105071659Y-78408912D01*
X105100500Y-78263917D01*
X105100500Y-78116082D01*
X105100500Y-55486082D01*
X105100500Y-55486079D01*
X105071659Y-55341092D01*
X105071658Y-55341091D01*
X105071658Y-55341087D01*
X105047554Y-55282895D01*
X105015087Y-55204511D01*
X105015080Y-55204498D01*
X104932952Y-55081585D01*
X104904609Y-55053242D01*
X104828416Y-54977049D01*
X104188876Y-54337508D01*
X104155391Y-54276185D01*
X104154084Y-54230434D01*
X104175500Y-54095222D01*
X104175500Y-53874778D01*
X104141015Y-53657049D01*
X104072895Y-53447394D01*
X104072895Y-53447393D01*
X104038237Y-53379375D01*
X103972815Y-53250978D01*
X103956260Y-53228192D01*
X103843247Y-53072641D01*
X103843243Y-53072636D01*
X103687363Y-52916756D01*
X103687358Y-52916752D01*
X103509025Y-52787187D01*
X103509024Y-52787186D01*
X103509022Y-52787185D01*
X103446096Y-52755122D01*
X103312606Y-52687104D01*
X103312603Y-52687103D01*
X103102952Y-52618985D01*
X102994086Y-52601742D01*
X102885222Y-52584500D01*
X102664778Y-52584500D01*
X102592201Y-52595995D01*
X102447047Y-52618985D01*
X102237396Y-52687103D01*
X102237393Y-52687104D01*
X102040974Y-52787187D01*
X101862641Y-52916752D01*
X101862636Y-52916756D01*
X101706756Y-53072636D01*
X101706752Y-53072641D01*
X101577187Y-53250974D01*
X101477104Y-53447393D01*
X101477103Y-53447396D01*
X101408985Y-53657047D01*
X101389159Y-53782225D01*
X101374500Y-53874778D01*
X101374500Y-54095222D01*
X101382212Y-54143911D01*
X101408985Y-54312952D01*
X101477103Y-54522603D01*
X101477104Y-54522606D01*
X101577187Y-54719025D01*
X101706752Y-54897358D01*
X101706756Y-54897363D01*
X101862636Y-55053243D01*
X101862641Y-55053247D01*
X102018192Y-55166260D01*
X102040978Y-55182815D01*
X102169375Y-55248237D01*
X102237393Y-55282895D01*
X102237396Y-55282896D01*
X102342221Y-55316955D01*
X102447049Y-55351015D01*
X102664778Y-55385500D01*
X102664779Y-55385500D01*
X102885220Y-55385500D01*
X102885222Y-55385500D01*
X103020431Y-55364084D01*
X103089722Y-55373038D01*
X103127508Y-55398876D01*
X103563181Y-55834548D01*
X103596666Y-55895871D01*
X103599500Y-55922229D01*
X103599500Y-67551544D01*
X103579815Y-67618583D01*
X103527011Y-67664338D01*
X103457853Y-67674282D01*
X103437183Y-67669475D01*
X103327953Y-67633985D01*
X103327954Y-67633985D01*
X103164654Y-67608121D01*
X103110222Y-67599500D01*
X102889778Y-67599500D01*
X102817201Y-67610995D01*
X102672047Y-67633985D01*
X102462396Y-67702103D01*
X102462393Y-67702104D01*
X102265974Y-67802187D01*
X102087641Y-67931752D01*
X102087636Y-67931756D01*
X102037463Y-67981929D01*
X101976140Y-68015413D01*
X101906448Y-68010428D01*
X101850515Y-67968557D01*
X101833601Y-67937580D01*
X101803797Y-67857671D01*
X101803793Y-67857664D01*
X101717547Y-67742455D01*
X101717544Y-67742452D01*
X101602335Y-67656206D01*
X101602328Y-67656202D01*
X101467482Y-67605908D01*
X101467483Y-67605908D01*
X101407883Y-67599501D01*
X101407881Y-67599500D01*
X101407873Y-67599500D01*
X101407864Y-67599500D01*
X99512129Y-67599500D01*
X99512123Y-67599501D01*
X99452516Y-67605908D01*
X99317671Y-67656202D01*
X99317664Y-67656206D01*
X99202455Y-67742452D01*
X99202452Y-67742455D01*
X99116206Y-67857664D01*
X99116202Y-67857671D01*
X99065908Y-67992517D01*
X99059501Y-68052116D01*
X99059500Y-68052135D01*
X99059500Y-69947870D01*
X99059501Y-69947876D01*
X99065908Y-70007483D01*
X99116202Y-70142328D01*
X99116206Y-70142335D01*
X99202452Y-70257544D01*
X99202455Y-70257547D01*
X99317664Y-70343793D01*
X99317671Y-70343797D01*
X99452517Y-70394091D01*
X99452516Y-70394091D01*
X99459444Y-70394835D01*
X99512127Y-70400500D01*
X101407872Y-70400499D01*
X101467483Y-70394091D01*
X101602331Y-70343796D01*
X101717546Y-70257546D01*
X101803796Y-70142331D01*
X101831429Y-70068243D01*
X101833601Y-70062420D01*
X101875471Y-70006486D01*
X101940936Y-69982068D01*
X102009209Y-69996919D01*
X102037464Y-70018071D01*
X102087636Y-70068243D01*
X102087641Y-70068247D01*
X102189603Y-70142326D01*
X102265978Y-70197815D01*
X102394375Y-70263237D01*
X102462393Y-70297895D01*
X102462396Y-70297896D01*
X102556677Y-70328529D01*
X102672049Y-70366015D01*
X102889778Y-70400500D01*
X102889779Y-70400500D01*
X103110221Y-70400500D01*
X103110222Y-70400500D01*
X103327951Y-70366015D01*
X103437182Y-70330523D01*
X103507023Y-70328529D01*
X103566856Y-70364609D01*
X103597684Y-70427310D01*
X103599500Y-70448455D01*
X103599500Y-77827769D01*
X103579815Y-77894808D01*
X103563181Y-77915450D01*
X102892508Y-78586122D01*
X102831185Y-78619607D01*
X102785429Y-78620914D01*
X102650227Y-78599500D01*
X102650222Y-78599500D01*
X102429778Y-78599500D01*
X102357201Y-78610995D01*
X102212047Y-78633985D01*
X102002396Y-78702103D01*
X102002393Y-78702104D01*
X101805974Y-78802187D01*
X101627641Y-78931752D01*
X101627636Y-78931756D01*
X101577463Y-78981929D01*
X101516140Y-79015413D01*
X101446448Y-79010428D01*
X101390515Y-78968557D01*
X101373601Y-78937580D01*
X101343797Y-78857671D01*
X101343793Y-78857664D01*
X101257547Y-78742455D01*
X101257544Y-78742452D01*
X101142335Y-78656206D01*
X101142328Y-78656202D01*
X101007482Y-78605908D01*
X101007483Y-78605908D01*
X100947883Y-78599501D01*
X100947881Y-78599500D01*
X100947873Y-78599500D01*
X100947864Y-78599500D01*
X99052129Y-78599500D01*
X99052123Y-78599501D01*
X98992516Y-78605908D01*
X98857671Y-78656202D01*
X98857664Y-78656206D01*
X98742455Y-78742452D01*
X98742452Y-78742455D01*
X98656206Y-78857664D01*
X98656202Y-78857671D01*
X98605908Y-78992517D01*
X98599501Y-79052116D01*
X98599500Y-79052135D01*
X92500500Y-79052135D01*
X92500500Y-69934110D01*
X92500500Y-69934108D01*
X92466392Y-69806814D01*
X92400500Y-69692686D01*
X92307314Y-69599500D01*
X92250250Y-69566554D01*
X92193187Y-69533608D01*
X92129539Y-69516554D01*
X92065892Y-69499500D01*
X60065892Y-69499500D01*
X59934108Y-69499500D01*
X59806812Y-69533608D01*
X59692686Y-69599500D01*
X59692683Y-69599502D01*
X59599502Y-69692683D01*
X59599500Y-69692686D01*
X59533608Y-69806812D01*
X59499500Y-69934108D01*
X59499500Y-99375500D01*
X59479815Y-99442539D01*
X59427011Y-99488294D01*
X59375500Y-99499500D01*
X45624500Y-99499500D01*
X45557461Y-99479815D01*
X45511706Y-99427011D01*
X45500500Y-99375500D01*
X45500500Y-95052135D01*
X47059500Y-95052135D01*
X47059500Y-96947870D01*
X47059501Y-96947876D01*
X47065908Y-97007483D01*
X47116202Y-97142328D01*
X47116206Y-97142335D01*
X47202452Y-97257544D01*
X47202455Y-97257547D01*
X47317664Y-97343793D01*
X47317671Y-97343797D01*
X47452517Y-97394091D01*
X47452516Y-97394091D01*
X47459444Y-97394835D01*
X47512127Y-97400500D01*
X49407872Y-97400499D01*
X49467483Y-97394091D01*
X49602331Y-97343796D01*
X49717546Y-97257546D01*
X49803796Y-97142331D01*
X49831429Y-97068243D01*
X49833601Y-97062420D01*
X49875471Y-97006486D01*
X49940936Y-96982068D01*
X50009209Y-96996919D01*
X50037464Y-97018071D01*
X50087636Y-97068243D01*
X50087641Y-97068247D01*
X50189603Y-97142326D01*
X50265978Y-97197815D01*
X50394375Y-97263237D01*
X50462393Y-97297895D01*
X50462396Y-97297896D01*
X50567221Y-97331955D01*
X50672049Y-97366015D01*
X50889778Y-97400500D01*
X50889779Y-97400500D01*
X51110221Y-97400500D01*
X51110222Y-97400500D01*
X51327951Y-97366015D01*
X51537606Y-97297895D01*
X51734022Y-97197815D01*
X51912365Y-97068242D01*
X52068242Y-96912365D01*
X52197815Y-96734022D01*
X52297895Y-96537606D01*
X52366015Y-96327951D01*
X52400500Y-96110222D01*
X52400500Y-95889778D01*
X52366015Y-95672049D01*
X52331955Y-95567221D01*
X52297896Y-95462396D01*
X52297895Y-95462393D01*
X52263237Y-95394375D01*
X52197815Y-95265978D01*
X52139501Y-95185715D01*
X52068247Y-95087641D01*
X52068243Y-95087636D01*
X51912363Y-94931756D01*
X51912358Y-94931752D01*
X51734025Y-94802187D01*
X51734024Y-94802186D01*
X51734022Y-94802185D01*
X51616791Y-94742452D01*
X51537606Y-94702104D01*
X51537603Y-94702103D01*
X51327952Y-94633985D01*
X51219086Y-94616742D01*
X51110222Y-94599500D01*
X50889778Y-94599500D01*
X50817201Y-94610995D01*
X50672047Y-94633985D01*
X50462396Y-94702103D01*
X50462393Y-94702104D01*
X50265974Y-94802187D01*
X50087641Y-94931752D01*
X50087636Y-94931756D01*
X50037463Y-94981929D01*
X49976140Y-95015413D01*
X49906448Y-95010428D01*
X49850515Y-94968557D01*
X49833601Y-94937580D01*
X49803797Y-94857671D01*
X49803793Y-94857664D01*
X49717547Y-94742455D01*
X49717544Y-94742452D01*
X49602335Y-94656206D01*
X49602328Y-94656202D01*
X49467482Y-94605908D01*
X49467483Y-94605908D01*
X49407883Y-94599501D01*
X49407881Y-94599500D01*
X49407873Y-94599500D01*
X49407864Y-94599500D01*
X47512129Y-94599500D01*
X47512123Y-94599501D01*
X47452516Y-94605908D01*
X47317671Y-94656202D01*
X47317664Y-94656206D01*
X47202455Y-94742452D01*
X47202452Y-94742455D01*
X47116206Y-94857664D01*
X47116202Y-94857671D01*
X47065908Y-94992517D01*
X47059501Y-95052116D01*
X47059500Y-95052135D01*
X45500500Y-95052135D01*
X45500500Y-86393713D01*
X55649500Y-86393713D01*
X55649500Y-86606286D01*
X55682753Y-86816239D01*
X55748444Y-87018414D01*
X55844951Y-87207820D01*
X55969890Y-87379786D01*
X56120213Y-87530109D01*
X56292179Y-87655048D01*
X56292181Y-87655049D01*
X56292184Y-87655051D01*
X56481588Y-87751557D01*
X56683757Y-87817246D01*
X56893713Y-87850500D01*
X56893714Y-87850500D01*
X57106286Y-87850500D01*
X57106287Y-87850500D01*
X57316243Y-87817246D01*
X57518412Y-87751557D01*
X57707816Y-87655051D01*
X57729789Y-87639086D01*
X57879786Y-87530109D01*
X57879788Y-87530106D01*
X57879792Y-87530104D01*
X58030104Y-87379792D01*
X58030106Y-87379788D01*
X58030109Y-87379786D01*
X58155048Y-87207820D01*
X58155047Y-87207820D01*
X58155051Y-87207816D01*
X58251557Y-87018412D01*
X58317246Y-86816243D01*
X58350500Y-86606287D01*
X58350500Y-86393713D01*
X58317246Y-86183757D01*
X58251557Y-85981588D01*
X58155051Y-85792184D01*
X58155049Y-85792181D01*
X58155048Y-85792179D01*
X58030109Y-85620213D01*
X57879786Y-85469890D01*
X57707820Y-85344951D01*
X57518414Y-85248444D01*
X57518413Y-85248443D01*
X57518412Y-85248443D01*
X57316243Y-85182754D01*
X57316241Y-85182753D01*
X57316240Y-85182753D01*
X57154957Y-85157208D01*
X57106287Y-85149500D01*
X56893713Y-85149500D01*
X56845042Y-85157208D01*
X56683760Y-85182753D01*
X56481585Y-85248444D01*
X56292179Y-85344951D01*
X56120213Y-85469890D01*
X55969890Y-85620213D01*
X55844951Y-85792179D01*
X55748444Y-85981585D01*
X55682753Y-86183760D01*
X55649500Y-86393713D01*
X45500500Y-86393713D01*
X45500500Y-78552135D01*
X47099500Y-78552135D01*
X47099500Y-80447870D01*
X47099501Y-80447876D01*
X47105908Y-80507483D01*
X47156202Y-80642328D01*
X47156206Y-80642335D01*
X47242452Y-80757544D01*
X47242455Y-80757547D01*
X47357664Y-80843793D01*
X47357671Y-80843797D01*
X47492517Y-80894091D01*
X47492516Y-80894091D01*
X47499444Y-80894835D01*
X47552127Y-80900500D01*
X49447872Y-80900499D01*
X49507483Y-80894091D01*
X49642331Y-80843796D01*
X49757546Y-80757546D01*
X49843796Y-80642331D01*
X49871429Y-80568243D01*
X49873601Y-80562420D01*
X49915471Y-80506486D01*
X49980936Y-80482068D01*
X50049209Y-80496919D01*
X50077464Y-80518071D01*
X50127636Y-80568243D01*
X50127641Y-80568247D01*
X50229603Y-80642326D01*
X50305978Y-80697815D01*
X50434375Y-80763237D01*
X50502393Y-80797895D01*
X50502396Y-80797896D01*
X50552841Y-80814286D01*
X50712049Y-80866015D01*
X50929778Y-80900500D01*
X50929779Y-80900500D01*
X51150221Y-80900500D01*
X51150222Y-80900500D01*
X51367951Y-80866015D01*
X51577606Y-80797895D01*
X51774022Y-80697815D01*
X51952365Y-80568242D01*
X52108242Y-80412365D01*
X52237815Y-80234022D01*
X52337895Y-80037606D01*
X52406015Y-79827951D01*
X52440500Y-79610222D01*
X52440500Y-79389778D01*
X52406015Y-79172049D01*
X52353502Y-79010428D01*
X52337896Y-78962396D01*
X52337895Y-78962393D01*
X52284532Y-78857664D01*
X52237815Y-78765978D01*
X52191408Y-78702104D01*
X52108247Y-78587641D01*
X52108243Y-78587636D01*
X51952363Y-78431756D01*
X51952358Y-78431752D01*
X51774025Y-78302187D01*
X51774024Y-78302186D01*
X51774022Y-78302185D01*
X51711096Y-78270122D01*
X51577606Y-78202104D01*
X51577603Y-78202103D01*
X51367952Y-78133985D01*
X51254916Y-78116082D01*
X51150222Y-78099500D01*
X50929778Y-78099500D01*
X50857201Y-78110995D01*
X50712047Y-78133985D01*
X50502396Y-78202103D01*
X50502393Y-78202104D01*
X50305974Y-78302187D01*
X50127641Y-78431752D01*
X50127636Y-78431756D01*
X50077463Y-78481929D01*
X50016140Y-78515413D01*
X49946448Y-78510428D01*
X49890515Y-78468557D01*
X49873601Y-78437580D01*
X49843797Y-78357671D01*
X49843793Y-78357664D01*
X49757547Y-78242455D01*
X49757544Y-78242452D01*
X49642335Y-78156206D01*
X49642328Y-78156202D01*
X49507482Y-78105908D01*
X49507483Y-78105908D01*
X49447883Y-78099501D01*
X49447881Y-78099500D01*
X49447873Y-78099500D01*
X49447864Y-78099500D01*
X47552129Y-78099500D01*
X47552123Y-78099501D01*
X47492516Y-78105908D01*
X47357671Y-78156202D01*
X47357664Y-78156206D01*
X47242455Y-78242452D01*
X47242452Y-78242455D01*
X47156206Y-78357664D01*
X47156202Y-78357671D01*
X47105908Y-78492517D01*
X47099501Y-78552116D01*
X47099500Y-78552135D01*
X45500500Y-78552135D01*
X45500500Y-68052135D01*
X47059500Y-68052135D01*
X47059500Y-69947870D01*
X47059501Y-69947876D01*
X47065908Y-70007483D01*
X47116202Y-70142328D01*
X47116206Y-70142335D01*
X47202452Y-70257544D01*
X47202455Y-70257547D01*
X47317664Y-70343793D01*
X47317671Y-70343797D01*
X47452517Y-70394091D01*
X47452516Y-70394091D01*
X47459444Y-70394835D01*
X47512127Y-70400500D01*
X49407872Y-70400499D01*
X49467483Y-70394091D01*
X49602331Y-70343796D01*
X49717546Y-70257546D01*
X49803796Y-70142331D01*
X49831429Y-70068243D01*
X49833601Y-70062420D01*
X49875471Y-70006486D01*
X49940936Y-69982068D01*
X50009209Y-69996919D01*
X50037464Y-70018071D01*
X50087636Y-70068243D01*
X50087641Y-70068247D01*
X50189603Y-70142326D01*
X50265978Y-70197815D01*
X50394375Y-70263237D01*
X50462393Y-70297895D01*
X50462396Y-70297896D01*
X50556677Y-70328529D01*
X50672049Y-70366015D01*
X50889778Y-70400500D01*
X50889779Y-70400500D01*
X51110221Y-70400500D01*
X51110222Y-70400500D01*
X51327951Y-70366015D01*
X51537606Y-70297895D01*
X51734022Y-70197815D01*
X51912365Y-70068242D01*
X52068242Y-69912365D01*
X52197815Y-69734022D01*
X52297895Y-69537606D01*
X52366015Y-69327951D01*
X52400500Y-69110222D01*
X52400500Y-68889778D01*
X52366015Y-68672049D01*
X52297895Y-68462394D01*
X52297895Y-68462393D01*
X52263237Y-68394375D01*
X52197815Y-68265978D01*
X52139501Y-68185715D01*
X52068247Y-68087641D01*
X52068243Y-68087636D01*
X51912363Y-67931756D01*
X51912358Y-67931752D01*
X51734025Y-67802187D01*
X51734024Y-67802186D01*
X51734022Y-67802185D01*
X51616791Y-67742452D01*
X51537606Y-67702104D01*
X51537603Y-67702103D01*
X51327952Y-67633985D01*
X51219086Y-67616742D01*
X51110222Y-67599500D01*
X50889778Y-67599500D01*
X50817201Y-67610995D01*
X50672047Y-67633985D01*
X50462396Y-67702103D01*
X50462393Y-67702104D01*
X50265974Y-67802187D01*
X50087641Y-67931752D01*
X50087636Y-67931756D01*
X50037463Y-67981929D01*
X49976140Y-68015413D01*
X49906448Y-68010428D01*
X49850515Y-67968557D01*
X49833601Y-67937580D01*
X49803797Y-67857671D01*
X49803793Y-67857664D01*
X49717547Y-67742455D01*
X49717544Y-67742452D01*
X49602335Y-67656206D01*
X49602328Y-67656202D01*
X49467482Y-67605908D01*
X49467483Y-67605908D01*
X49407883Y-67599501D01*
X49407881Y-67599500D01*
X49407873Y-67599500D01*
X49407864Y-67599500D01*
X47512129Y-67599500D01*
X47512123Y-67599501D01*
X47452516Y-67605908D01*
X47317671Y-67656202D01*
X47317664Y-67656206D01*
X47202455Y-67742452D01*
X47202452Y-67742455D01*
X47116206Y-67857664D01*
X47116202Y-67857671D01*
X47065908Y-67992517D01*
X47059501Y-68052116D01*
X47059500Y-68052135D01*
X45500500Y-68052135D01*
X45500500Y-65052135D01*
X60559500Y-65052135D01*
X60559500Y-66947870D01*
X60559501Y-66947876D01*
X60565908Y-67007483D01*
X60616202Y-67142328D01*
X60616206Y-67142335D01*
X60702452Y-67257544D01*
X60702455Y-67257547D01*
X60817664Y-67343793D01*
X60817671Y-67343797D01*
X60952517Y-67394091D01*
X60952516Y-67394091D01*
X60959444Y-67394835D01*
X61012127Y-67400500D01*
X62907872Y-67400499D01*
X62967483Y-67394091D01*
X63102331Y-67343796D01*
X63217546Y-67257546D01*
X63303796Y-67142331D01*
X63331429Y-67068243D01*
X63333601Y-67062420D01*
X63375471Y-67006486D01*
X63440936Y-66982068D01*
X63509209Y-66996919D01*
X63537464Y-67018071D01*
X63587636Y-67068243D01*
X63587641Y-67068247D01*
X63689603Y-67142326D01*
X63765978Y-67197815D01*
X63894375Y-67263237D01*
X63962393Y-67297895D01*
X63962396Y-67297896D01*
X64018864Y-67316243D01*
X64172049Y-67366015D01*
X64389778Y-67400500D01*
X64389779Y-67400500D01*
X64610221Y-67400500D01*
X64610222Y-67400500D01*
X64827951Y-67366015D01*
X65037606Y-67297895D01*
X65234022Y-67197815D01*
X65412365Y-67068242D01*
X65568242Y-66912365D01*
X65581793Y-66893713D01*
X74649500Y-66893713D01*
X74649500Y-67106287D01*
X74682754Y-67316243D01*
X74710130Y-67400498D01*
X74748444Y-67518414D01*
X74844951Y-67707820D01*
X74969890Y-67879786D01*
X75120213Y-68030109D01*
X75292179Y-68155048D01*
X75292181Y-68155049D01*
X75292184Y-68155051D01*
X75481588Y-68251557D01*
X75683757Y-68317246D01*
X75893713Y-68350500D01*
X75893714Y-68350500D01*
X76106286Y-68350500D01*
X76106287Y-68350500D01*
X76316243Y-68317246D01*
X76518412Y-68251557D01*
X76707816Y-68155051D01*
X76800599Y-68087641D01*
X76879786Y-68030109D01*
X76879788Y-68030106D01*
X76879792Y-68030104D01*
X77030104Y-67879792D01*
X77030106Y-67879788D01*
X77030109Y-67879786D01*
X77155048Y-67707820D01*
X77155047Y-67707820D01*
X77155051Y-67707816D01*
X77251557Y-67518412D01*
X77317246Y-67316243D01*
X77350500Y-67106287D01*
X77350500Y-66893713D01*
X77317246Y-66683757D01*
X77251557Y-66481588D01*
X77155051Y-66292184D01*
X77155049Y-66292181D01*
X77155048Y-66292179D01*
X77030109Y-66120213D01*
X76879786Y-65969890D01*
X76707820Y-65844951D01*
X76518414Y-65748444D01*
X76518413Y-65748443D01*
X76518412Y-65748443D01*
X76316243Y-65682754D01*
X76316241Y-65682753D01*
X76316240Y-65682753D01*
X76154957Y-65657208D01*
X76106287Y-65649500D01*
X75893713Y-65649500D01*
X75845042Y-65657208D01*
X75683760Y-65682753D01*
X75481585Y-65748444D01*
X75292179Y-65844951D01*
X75120213Y-65969890D01*
X74969890Y-66120213D01*
X74844951Y-66292179D01*
X74748444Y-66481585D01*
X74682753Y-66683760D01*
X74661815Y-66815959D01*
X74649500Y-66893713D01*
X65581793Y-66893713D01*
X65697815Y-66734022D01*
X65797895Y-66537606D01*
X65866015Y-66327951D01*
X65900500Y-66110222D01*
X65900500Y-65889778D01*
X65866015Y-65672049D01*
X65797895Y-65462394D01*
X65797895Y-65462393D01*
X65763237Y-65394375D01*
X65697815Y-65265978D01*
X65639501Y-65185715D01*
X65592986Y-65121691D01*
X65568247Y-65087641D01*
X65568243Y-65087636D01*
X65532742Y-65052135D01*
X86059500Y-65052135D01*
X86059500Y-66947870D01*
X86059501Y-66947876D01*
X86065908Y-67007483D01*
X86116202Y-67142328D01*
X86116206Y-67142335D01*
X86202452Y-67257544D01*
X86202455Y-67257547D01*
X86317664Y-67343793D01*
X86317671Y-67343797D01*
X86452517Y-67394091D01*
X86452516Y-67394091D01*
X86459444Y-67394835D01*
X86512127Y-67400500D01*
X88407872Y-67400499D01*
X88467483Y-67394091D01*
X88602331Y-67343796D01*
X88717546Y-67257546D01*
X88803796Y-67142331D01*
X88831429Y-67068243D01*
X88833601Y-67062420D01*
X88875471Y-67006486D01*
X88940936Y-66982068D01*
X89009209Y-66996919D01*
X89037464Y-67018071D01*
X89087636Y-67068243D01*
X89087641Y-67068247D01*
X89189603Y-67142326D01*
X89265978Y-67197815D01*
X89394375Y-67263237D01*
X89462393Y-67297895D01*
X89462396Y-67297896D01*
X89518864Y-67316243D01*
X89672049Y-67366015D01*
X89889778Y-67400500D01*
X89889779Y-67400500D01*
X90110221Y-67400500D01*
X90110222Y-67400500D01*
X90327951Y-67366015D01*
X90537606Y-67297895D01*
X90734022Y-67197815D01*
X90912365Y-67068242D01*
X91068242Y-66912365D01*
X91197815Y-66734022D01*
X91297895Y-66537606D01*
X91366015Y-66327951D01*
X91400500Y-66110222D01*
X91400500Y-65889778D01*
X91366015Y-65672049D01*
X91297895Y-65462394D01*
X91297895Y-65462393D01*
X91263237Y-65394375D01*
X91197815Y-65265978D01*
X91092985Y-65121691D01*
X91068247Y-65087641D01*
X91068243Y-65087636D01*
X90912363Y-64931756D01*
X90912358Y-64931752D01*
X90734025Y-64802187D01*
X90734024Y-64802186D01*
X90734022Y-64802185D01*
X90616791Y-64742452D01*
X90537606Y-64702104D01*
X90537603Y-64702103D01*
X90327952Y-64633985D01*
X90219086Y-64616742D01*
X90110222Y-64599500D01*
X89889778Y-64599500D01*
X89817201Y-64610995D01*
X89672047Y-64633985D01*
X89462396Y-64702103D01*
X89462393Y-64702104D01*
X89265974Y-64802187D01*
X89087641Y-64931752D01*
X89087636Y-64931756D01*
X89037463Y-64981929D01*
X88976140Y-65015413D01*
X88906448Y-65010428D01*
X88850515Y-64968557D01*
X88833601Y-64937580D01*
X88803797Y-64857671D01*
X88803793Y-64857664D01*
X88717547Y-64742455D01*
X88717544Y-64742452D01*
X88602335Y-64656206D01*
X88602328Y-64656202D01*
X88467482Y-64605908D01*
X88467483Y-64605908D01*
X88407883Y-64599501D01*
X88407881Y-64599500D01*
X88407873Y-64599500D01*
X88407864Y-64599500D01*
X86512129Y-64599500D01*
X86512123Y-64599501D01*
X86452516Y-64605908D01*
X86317671Y-64656202D01*
X86317664Y-64656206D01*
X86202455Y-64742452D01*
X86202452Y-64742455D01*
X86116206Y-64857664D01*
X86116202Y-64857671D01*
X86065908Y-64992517D01*
X86059501Y-65052116D01*
X86059500Y-65052135D01*
X65532742Y-65052135D01*
X65412363Y-64931756D01*
X65412358Y-64931752D01*
X65234025Y-64802187D01*
X65234024Y-64802186D01*
X65234022Y-64802185D01*
X65116791Y-64742452D01*
X65037606Y-64702104D01*
X65037603Y-64702103D01*
X64827952Y-64633985D01*
X64719086Y-64616742D01*
X64610222Y-64599500D01*
X64389778Y-64599500D01*
X64317201Y-64610995D01*
X64172047Y-64633985D01*
X63962396Y-64702103D01*
X63962393Y-64702104D01*
X63765974Y-64802187D01*
X63587641Y-64931752D01*
X63587636Y-64931756D01*
X63537463Y-64981929D01*
X63476140Y-65015413D01*
X63406448Y-65010428D01*
X63350515Y-64968557D01*
X63333601Y-64937580D01*
X63303797Y-64857671D01*
X63303793Y-64857664D01*
X63217547Y-64742455D01*
X63217544Y-64742452D01*
X63102335Y-64656206D01*
X63102328Y-64656202D01*
X62967482Y-64605908D01*
X62967483Y-64605908D01*
X62907883Y-64599501D01*
X62907881Y-64599500D01*
X62907873Y-64599500D01*
X62907864Y-64599500D01*
X61012129Y-64599500D01*
X61012123Y-64599501D01*
X60952516Y-64605908D01*
X60817671Y-64656202D01*
X60817664Y-64656206D01*
X60702455Y-64742452D01*
X60702452Y-64742455D01*
X60616206Y-64857664D01*
X60616202Y-64857671D01*
X60565908Y-64992517D01*
X60559501Y-65052116D01*
X60559500Y-65052135D01*
X45500500Y-65052135D01*
X45500500Y-61494778D01*
X91834500Y-61494778D01*
X91834500Y-61715221D01*
X91868985Y-61932952D01*
X91937103Y-62142603D01*
X91937104Y-62142606D01*
X92037187Y-62339025D01*
X92166752Y-62517358D01*
X92166756Y-62517363D01*
X92322636Y-62673243D01*
X92322641Y-62673247D01*
X92478192Y-62786260D01*
X92500978Y-62802815D01*
X92629375Y-62868237D01*
X92697393Y-62902895D01*
X92697396Y-62902896D01*
X92802221Y-62936955D01*
X92907049Y-62971015D01*
X93124778Y-63005500D01*
X93124779Y-63005500D01*
X93345221Y-63005500D01*
X93345222Y-63005500D01*
X93562951Y-62971015D01*
X93772606Y-62902895D01*
X93969022Y-62802815D01*
X94147365Y-62673242D01*
X94303242Y-62517365D01*
X94432815Y-62339022D01*
X94532895Y-62142606D01*
X94601015Y-61932951D01*
X94635500Y-61715222D01*
X94635500Y-61494778D01*
X98834500Y-61494778D01*
X98834500Y-61715221D01*
X98868985Y-61932952D01*
X98937103Y-62142603D01*
X98937104Y-62142606D01*
X99037187Y-62339025D01*
X99166752Y-62517358D01*
X99166756Y-62517363D01*
X99322636Y-62673243D01*
X99322641Y-62673247D01*
X99478192Y-62786260D01*
X99500978Y-62802815D01*
X99629375Y-62868237D01*
X99697393Y-62902895D01*
X99697396Y-62902896D01*
X99802221Y-62936955D01*
X99907049Y-62971015D01*
X100124778Y-63005500D01*
X100124779Y-63005500D01*
X100345221Y-63005500D01*
X100345222Y-63005500D01*
X100562951Y-62971015D01*
X100772606Y-62902895D01*
X100969022Y-62802815D01*
X101147365Y-62673242D01*
X101303242Y-62517365D01*
X101432815Y-62339022D01*
X101532895Y-62142606D01*
X101601015Y-61932951D01*
X101635500Y-61715222D01*
X101635500Y-61494778D01*
X101601015Y-61277049D01*
X101532895Y-61067394D01*
X101532895Y-61067393D01*
X101498237Y-60999375D01*
X101432815Y-60870978D01*
X101416260Y-60848192D01*
X101303247Y-60692641D01*
X101303243Y-60692636D01*
X101147363Y-60536756D01*
X101147358Y-60536752D01*
X100969025Y-60407187D01*
X100969024Y-60407186D01*
X100969022Y-60407185D01*
X100906096Y-60375122D01*
X100772606Y-60307104D01*
X100772603Y-60307103D01*
X100562952Y-60238985D01*
X100454086Y-60221742D01*
X100345222Y-60204500D01*
X100124778Y-60204500D01*
X100052201Y-60215995D01*
X99907047Y-60238985D01*
X99697396Y-60307103D01*
X99697393Y-60307104D01*
X99500974Y-60407187D01*
X99322641Y-60536752D01*
X99322636Y-60536756D01*
X99166756Y-60692636D01*
X99166752Y-60692641D01*
X99037187Y-60870974D01*
X98937104Y-61067393D01*
X98937103Y-61067396D01*
X98868985Y-61277047D01*
X98834500Y-61494778D01*
X94635500Y-61494778D01*
X94601015Y-61277049D01*
X94532895Y-61067394D01*
X94532895Y-61067393D01*
X94498237Y-60999375D01*
X94432815Y-60870978D01*
X94416260Y-60848192D01*
X94303247Y-60692641D01*
X94303243Y-60692636D01*
X94147363Y-60536756D01*
X94147358Y-60536752D01*
X93969025Y-60407187D01*
X93969024Y-60407186D01*
X93969022Y-60407185D01*
X93906096Y-60375122D01*
X93772606Y-60307104D01*
X93772603Y-60307103D01*
X93562952Y-60238985D01*
X93454086Y-60221742D01*
X93345222Y-60204500D01*
X93124778Y-60204500D01*
X93052201Y-60215995D01*
X92907047Y-60238985D01*
X92697396Y-60307103D01*
X92697393Y-60307104D01*
X92500974Y-60407187D01*
X92322641Y-60536752D01*
X92322636Y-60536756D01*
X92166756Y-60692636D01*
X92166752Y-60692641D01*
X92037187Y-60870974D01*
X91937104Y-61067393D01*
X91937103Y-61067396D01*
X91868985Y-61277047D01*
X91834500Y-61494778D01*
X45500500Y-61494778D01*
X45500500Y-58809570D01*
X49749500Y-58809570D01*
X49749500Y-59065429D01*
X49789526Y-59318140D01*
X49868588Y-59561472D01*
X49868589Y-59561475D01*
X49984750Y-59789450D01*
X50135132Y-59996435D01*
X50135136Y-59996440D01*
X50316059Y-60177363D01*
X50316064Y-60177367D01*
X50353410Y-60204500D01*
X50523053Y-60327752D01*
X50672080Y-60403685D01*
X50751024Y-60443910D01*
X50751027Y-60443911D01*
X50872693Y-60483442D01*
X50994361Y-60522974D01*
X51247070Y-60563000D01*
X51247071Y-60563000D01*
X53752929Y-60563000D01*
X53752930Y-60563000D01*
X54005639Y-60522974D01*
X54248975Y-60443910D01*
X54476947Y-60327752D01*
X54683942Y-60177362D01*
X54864862Y-59996442D01*
X55015252Y-59789447D01*
X55131410Y-59561475D01*
X55210474Y-59318139D01*
X55250500Y-59065430D01*
X55250500Y-58809570D01*
X55210474Y-58556861D01*
X55131410Y-58313525D01*
X55131410Y-58313524D01*
X55091185Y-58234580D01*
X55015252Y-58085553D01*
X54996038Y-58059107D01*
X54864867Y-57878564D01*
X54864863Y-57878559D01*
X54683940Y-57697636D01*
X54683935Y-57697632D01*
X54476950Y-57547250D01*
X54476949Y-57547249D01*
X54476947Y-57547248D01*
X54403910Y-57510033D01*
X54248975Y-57431089D01*
X54248972Y-57431088D01*
X54005640Y-57352026D01*
X53879284Y-57332013D01*
X53752930Y-57312000D01*
X51247070Y-57312000D01*
X51162833Y-57325342D01*
X50994359Y-57352026D01*
X50751027Y-57431088D01*
X50751024Y-57431089D01*
X50523049Y-57547250D01*
X50316064Y-57697632D01*
X50316059Y-57697636D01*
X50135136Y-57878559D01*
X50135132Y-57878564D01*
X49984750Y-58085549D01*
X49868589Y-58313524D01*
X49868588Y-58313527D01*
X49789526Y-58556859D01*
X49749500Y-58809570D01*
X45500500Y-58809570D01*
X45500500Y-52509570D01*
X49749500Y-52509570D01*
X49749500Y-52765429D01*
X49789526Y-53018140D01*
X49868588Y-53261472D01*
X49868589Y-53261475D01*
X49947533Y-53416410D01*
X49963320Y-53447393D01*
X49984750Y-53489450D01*
X50135132Y-53696435D01*
X50135136Y-53696440D01*
X50316059Y-53877363D01*
X50316064Y-53877367D01*
X50496607Y-54008538D01*
X50523053Y-54027752D01*
X50655464Y-54095219D01*
X50751024Y-54143910D01*
X50751027Y-54143911D01*
X50872693Y-54183442D01*
X50994361Y-54222974D01*
X51247070Y-54263000D01*
X51247071Y-54263000D01*
X53752929Y-54263000D01*
X53752930Y-54263000D01*
X54005639Y-54222974D01*
X54248975Y-54143910D01*
X54476947Y-54027752D01*
X54683942Y-53877362D01*
X54686526Y-53874778D01*
X94374500Y-53874778D01*
X94374500Y-54095222D01*
X94382212Y-54143911D01*
X94408985Y-54312952D01*
X94477103Y-54522603D01*
X94477104Y-54522606D01*
X94577187Y-54719025D01*
X94706752Y-54897358D01*
X94706756Y-54897363D01*
X94862636Y-55053243D01*
X94862641Y-55053247D01*
X95018192Y-55166260D01*
X95040978Y-55182815D01*
X95169375Y-55248237D01*
X95237393Y-55282895D01*
X95237396Y-55282896D01*
X95342221Y-55316955D01*
X95447049Y-55351015D01*
X95664778Y-55385500D01*
X95664779Y-55385500D01*
X95885221Y-55385500D01*
X95885222Y-55385500D01*
X96102951Y-55351015D01*
X96312606Y-55282895D01*
X96509022Y-55182815D01*
X96687365Y-55053242D01*
X96843242Y-54897365D01*
X96972815Y-54719022D01*
X97072895Y-54522606D01*
X97141015Y-54312951D01*
X97175500Y-54095222D01*
X97175500Y-53874778D01*
X97141015Y-53657049D01*
X97072895Y-53447394D01*
X97072895Y-53447393D01*
X97038237Y-53379375D01*
X96972815Y-53250978D01*
X96956260Y-53228192D01*
X96843247Y-53072641D01*
X96843243Y-53072636D01*
X96687363Y-52916756D01*
X96687358Y-52916752D01*
X96509025Y-52787187D01*
X96509024Y-52787186D01*
X96509022Y-52787185D01*
X96446096Y-52755122D01*
X96312606Y-52687104D01*
X96312603Y-52687103D01*
X96102952Y-52618985D01*
X95994086Y-52601742D01*
X95885222Y-52584500D01*
X95664778Y-52584500D01*
X95592201Y-52595995D01*
X95447047Y-52618985D01*
X95237396Y-52687103D01*
X95237393Y-52687104D01*
X95040974Y-52787187D01*
X94862641Y-52916752D01*
X94862636Y-52916756D01*
X94706756Y-53072636D01*
X94706752Y-53072641D01*
X94577187Y-53250974D01*
X94477104Y-53447393D01*
X94477103Y-53447396D01*
X94408985Y-53657047D01*
X94389159Y-53782225D01*
X94374500Y-53874778D01*
X54686526Y-53874778D01*
X54864862Y-53696442D01*
X55015252Y-53489447D01*
X55131410Y-53261475D01*
X55210474Y-53018139D01*
X55250500Y-52765430D01*
X55250500Y-52509570D01*
X55210474Y-52256861D01*
X55131410Y-52013525D01*
X55131410Y-52013524D01*
X55091185Y-51934580D01*
X55015252Y-51785553D01*
X54996038Y-51759107D01*
X54864867Y-51578564D01*
X54864863Y-51578559D01*
X54830266Y-51543962D01*
X54796781Y-51482639D01*
X54801765Y-51412947D01*
X54830266Y-51368600D01*
X56096052Y-50102815D01*
X57412048Y-48786819D01*
X57473371Y-48753334D01*
X57499729Y-48750500D01*
X69433796Y-48750500D01*
X69500835Y-48770185D01*
X69525530Y-48791736D01*
X69525610Y-48791657D01*
X69526773Y-48792820D01*
X69528077Y-48793958D01*
X69529050Y-48795097D01*
X69529055Y-48795102D01*
X69664898Y-48930945D01*
X69820319Y-49043865D01*
X69991491Y-49131082D01*
X69991493Y-49131083D01*
X70082845Y-49160764D01*
X70174199Y-49190447D01*
X70363945Y-49220500D01*
X70363946Y-49220500D01*
X70556042Y-49220500D01*
X70556055Y-49220500D01*
X70556067Y-49220497D01*
X70557526Y-49220383D01*
X70558083Y-49220500D01*
X70560927Y-49220500D01*
X70560927Y-49221097D01*
X70625905Y-49234739D01*
X70654951Y-49256319D01*
X71151578Y-49752947D01*
X71151585Y-49752953D01*
X71209469Y-49791629D01*
X71209471Y-49791630D01*
X71209474Y-49791632D01*
X71274505Y-49835084D01*
X71274506Y-49835084D01*
X71274507Y-49835085D01*
X71411082Y-49891656D01*
X71411087Y-49891658D01*
X71411091Y-49891658D01*
X71411092Y-49891659D01*
X71556079Y-49920500D01*
X71556082Y-49920500D01*
X80403920Y-49920500D01*
X80501462Y-49901096D01*
X80548913Y-49891658D01*
X80685495Y-49835084D01*
X80750526Y-49791632D01*
X80750529Y-49791629D01*
X80750531Y-49791629D01*
X80779664Y-49772162D01*
X80808416Y-49752952D01*
X81305050Y-49256316D01*
X81331977Y-49241613D01*
X81357793Y-49225023D01*
X81363434Y-49224437D01*
X81366370Y-49222834D01*
X81392728Y-49220000D01*
X81400788Y-49220000D01*
X81403945Y-49220500D01*
X81596055Y-49220500D01*
X81599212Y-49220000D01*
X81607270Y-49220000D01*
X81636291Y-49228521D01*
X81665905Y-49234739D01*
X81671420Y-49238836D01*
X81674309Y-49239685D01*
X81677465Y-49243328D01*
X81694951Y-49256319D01*
X82191578Y-49752947D01*
X82191585Y-49752953D01*
X82249469Y-49791629D01*
X82249471Y-49791630D01*
X82249474Y-49791632D01*
X82314505Y-49835084D01*
X82314506Y-49835084D01*
X82314507Y-49835085D01*
X82451082Y-49891656D01*
X82451087Y-49891658D01*
X82451091Y-49891658D01*
X82451092Y-49891659D01*
X82596079Y-49920500D01*
X82596082Y-49920500D01*
X82596083Y-49920500D01*
X82743918Y-49920500D01*
X92218531Y-49920500D01*
X92285570Y-49940185D01*
X92306212Y-49956819D01*
X92322636Y-49973243D01*
X92322641Y-49973247D01*
X92478192Y-50086260D01*
X92500978Y-50102815D01*
X92629375Y-50168237D01*
X92697393Y-50202895D01*
X92697396Y-50202896D01*
X92802221Y-50236955D01*
X92907049Y-50271015D01*
X93124778Y-50305500D01*
X93124779Y-50305500D01*
X93345221Y-50305500D01*
X93345222Y-50305500D01*
X93562951Y-50271015D01*
X93772606Y-50202895D01*
X93969022Y-50102815D01*
X94147365Y-49973242D01*
X94303242Y-49817365D01*
X94383705Y-49706615D01*
X94439035Y-49663949D01*
X94484024Y-49655500D01*
X98985976Y-49655500D01*
X99053015Y-49675185D01*
X99086295Y-49706616D01*
X99166754Y-49817361D01*
X99322636Y-49973243D01*
X99322641Y-49973247D01*
X99478192Y-50086260D01*
X99500978Y-50102815D01*
X99629375Y-50168237D01*
X99697393Y-50202895D01*
X99697396Y-50202896D01*
X99802221Y-50236955D01*
X99907049Y-50271015D01*
X100124778Y-50305500D01*
X100124779Y-50305500D01*
X100345221Y-50305500D01*
X100345222Y-50305500D01*
X100562951Y-50271015D01*
X100772606Y-50202895D01*
X100969022Y-50102815D01*
X101147365Y-49973242D01*
X101303242Y-49817365D01*
X101432815Y-49639022D01*
X101532895Y-49442606D01*
X101601015Y-49232951D01*
X101635500Y-49015222D01*
X101635500Y-48794778D01*
X101601015Y-48577049D01*
X101543429Y-48399815D01*
X101532896Y-48367396D01*
X101532895Y-48367393D01*
X101486379Y-48276102D01*
X101432815Y-48170978D01*
X101406541Y-48134815D01*
X101303247Y-47992641D01*
X101303243Y-47992636D01*
X101147363Y-47836756D01*
X101147358Y-47836752D01*
X100969025Y-47707187D01*
X100969024Y-47707186D01*
X100969022Y-47707185D01*
X100864163Y-47653756D01*
X100772606Y-47607104D01*
X100772603Y-47607103D01*
X100562952Y-47538985D01*
X100454086Y-47521742D01*
X100345222Y-47504500D01*
X100124778Y-47504500D01*
X100052201Y-47515995D01*
X99907047Y-47538985D01*
X99697396Y-47607103D01*
X99697393Y-47607104D01*
X99500974Y-47707187D01*
X99322641Y-47836752D01*
X99322636Y-47836756D01*
X99166754Y-47992638D01*
X99097898Y-48087413D01*
X99091620Y-48096055D01*
X99086295Y-48103384D01*
X99030965Y-48146051D01*
X98985976Y-48154500D01*
X94484024Y-48154500D01*
X94416985Y-48134815D01*
X94383705Y-48103384D01*
X94378380Y-48096055D01*
X94361807Y-48073243D01*
X94303245Y-47992638D01*
X94147363Y-47836756D01*
X94147358Y-47836752D01*
X93969025Y-47707187D01*
X93969024Y-47707186D01*
X93969022Y-47707185D01*
X93864163Y-47653756D01*
X93772606Y-47607104D01*
X93772603Y-47607103D01*
X93562952Y-47538985D01*
X93454086Y-47521742D01*
X93345222Y-47504500D01*
X93124778Y-47504500D01*
X93052201Y-47515995D01*
X92907047Y-47538985D01*
X92697396Y-47607103D01*
X92697393Y-47607104D01*
X92500974Y-47707187D01*
X92322641Y-47836752D01*
X92322636Y-47836756D01*
X92166756Y-47992636D01*
X92166752Y-47992641D01*
X92037184Y-48170978D01*
X92037183Y-48170979D01*
X91945052Y-48351795D01*
X91897078Y-48402591D01*
X91834568Y-48419500D01*
X87894456Y-48419500D01*
X87827417Y-48399815D01*
X87781662Y-48347011D01*
X87771718Y-48277853D01*
X87771983Y-48276102D01*
X87791876Y-48150507D01*
X87800500Y-48096055D01*
X87800500Y-47903945D01*
X87770447Y-47714199D01*
X87735650Y-47607103D01*
X87711083Y-47531493D01*
X87697329Y-47504500D01*
X87623865Y-47360319D01*
X87510945Y-47204898D01*
X87375102Y-47069055D01*
X87219681Y-46956135D01*
X87048506Y-46868916D01*
X86865802Y-46809553D01*
X86770928Y-46794526D01*
X86676055Y-46779500D01*
X86483945Y-46779500D01*
X86420696Y-46789517D01*
X86294197Y-46809553D01*
X86111493Y-46868916D01*
X85940318Y-46956135D01*
X85851645Y-47020560D01*
X85784898Y-47069055D01*
X85784896Y-47069057D01*
X85784895Y-47069057D01*
X85649057Y-47204895D01*
X85649057Y-47204896D01*
X85649055Y-47204898D01*
X85616650Y-47249500D01*
X85536135Y-47360318D01*
X85448916Y-47531493D01*
X85427931Y-47596081D01*
X85388494Y-47653756D01*
X85324135Y-47680955D01*
X85255289Y-47669041D01*
X85203813Y-47621797D01*
X85192069Y-47596081D01*
X85171083Y-47531493D01*
X85157329Y-47504500D01*
X85083865Y-47360319D01*
X84970945Y-47204898D01*
X84835102Y-47069055D01*
X84679681Y-46956135D01*
X84508506Y-46868916D01*
X84325802Y-46809553D01*
X84230928Y-46794526D01*
X84136055Y-46779500D01*
X83943945Y-46779500D01*
X83880696Y-46789517D01*
X83754197Y-46809553D01*
X83571493Y-46868916D01*
X83400318Y-46956135D01*
X83311645Y-47020560D01*
X83244898Y-47069055D01*
X83244896Y-47069057D01*
X83244895Y-47069057D01*
X83109057Y-47204895D01*
X83109057Y-47204896D01*
X83109055Y-47204898D01*
X83076650Y-47249500D01*
X82996135Y-47360318D01*
X82908916Y-47531493D01*
X82887931Y-47596081D01*
X82848494Y-47653756D01*
X82784135Y-47680955D01*
X82715289Y-47669041D01*
X82663813Y-47621797D01*
X82652069Y-47596081D01*
X82631083Y-47531493D01*
X82617329Y-47504500D01*
X82543865Y-47360319D01*
X82430945Y-47204898D01*
X82295102Y-47069055D01*
X82139681Y-46956135D01*
X81968506Y-46868916D01*
X81785802Y-46809553D01*
X81690928Y-46794526D01*
X81596055Y-46779500D01*
X81403945Y-46779500D01*
X81340696Y-46789517D01*
X81214197Y-46809553D01*
X81031493Y-46868916D01*
X80860318Y-46956135D01*
X80771645Y-47020560D01*
X80704898Y-47069055D01*
X80704896Y-47069057D01*
X80704895Y-47069057D01*
X80569057Y-47204895D01*
X80569057Y-47204896D01*
X80569055Y-47204898D01*
X80536650Y-47249500D01*
X80456135Y-47360318D01*
X80368916Y-47531493D01*
X80309553Y-47714197D01*
X80279500Y-47903945D01*
X80279500Y-48096061D01*
X80279618Y-48097564D01*
X80279500Y-48098125D01*
X80279500Y-48100927D01*
X80278911Y-48100927D01*
X80265241Y-48165939D01*
X80243679Y-48194951D01*
X80055449Y-48383182D01*
X79994129Y-48416666D01*
X79967770Y-48419500D01*
X76854456Y-48419500D01*
X76787417Y-48399815D01*
X76741662Y-48347011D01*
X76731718Y-48277853D01*
X76731983Y-48276102D01*
X76751876Y-48150507D01*
X76760500Y-48096055D01*
X76760500Y-47903945D01*
X76730447Y-47714199D01*
X76695650Y-47607103D01*
X76671083Y-47531493D01*
X76657329Y-47504500D01*
X76583865Y-47360319D01*
X76470945Y-47204898D01*
X76335102Y-47069055D01*
X76179681Y-46956135D01*
X76008506Y-46868916D01*
X75825802Y-46809553D01*
X75730928Y-46794526D01*
X75636055Y-46779500D01*
X75443945Y-46779500D01*
X75380696Y-46789517D01*
X75254197Y-46809553D01*
X75071493Y-46868916D01*
X74900318Y-46956135D01*
X74811645Y-47020560D01*
X74744898Y-47069055D01*
X74744896Y-47069057D01*
X74744895Y-47069057D01*
X74609057Y-47204895D01*
X74609057Y-47204896D01*
X74609055Y-47204898D01*
X74576650Y-47249500D01*
X74496135Y-47360318D01*
X74408916Y-47531493D01*
X74387931Y-47596081D01*
X74348494Y-47653756D01*
X74284135Y-47680955D01*
X74215289Y-47669041D01*
X74163813Y-47621797D01*
X74152069Y-47596081D01*
X74131083Y-47531493D01*
X74117329Y-47504500D01*
X74043865Y-47360319D01*
X73930945Y-47204898D01*
X73795102Y-47069055D01*
X73639681Y-46956135D01*
X73468506Y-46868916D01*
X73285802Y-46809553D01*
X73190928Y-46794526D01*
X73096055Y-46779500D01*
X72903945Y-46779500D01*
X72840696Y-46789517D01*
X72714197Y-46809553D01*
X72531493Y-46868916D01*
X72360318Y-46956135D01*
X72271645Y-47020560D01*
X72204898Y-47069055D01*
X72204896Y-47069057D01*
X72204895Y-47069057D01*
X72069057Y-47204895D01*
X72069057Y-47204896D01*
X72069055Y-47204898D01*
X72036650Y-47249500D01*
X71956135Y-47360318D01*
X71868916Y-47531493D01*
X71847931Y-47596081D01*
X71808494Y-47653756D01*
X71744135Y-47680955D01*
X71675289Y-47669041D01*
X71623813Y-47621797D01*
X71612069Y-47596081D01*
X71591083Y-47531493D01*
X71577329Y-47504500D01*
X71503865Y-47360319D01*
X71390945Y-47204898D01*
X71255102Y-47069055D01*
X71099681Y-46956135D01*
X70928506Y-46868916D01*
X70745802Y-46809553D01*
X70650928Y-46794526D01*
X70556055Y-46779500D01*
X70363945Y-46779500D01*
X70300696Y-46789517D01*
X70174197Y-46809553D01*
X69991493Y-46868916D01*
X69820318Y-46956135D01*
X69731645Y-47020560D01*
X69664898Y-47069055D01*
X69664896Y-47069057D01*
X69664895Y-47069057D01*
X69529050Y-47204902D01*
X69528077Y-47206042D01*
X69527599Y-47206353D01*
X69525610Y-47208343D01*
X69525191Y-47207924D01*
X69469566Y-47244229D01*
X69433796Y-47249500D01*
X57063580Y-47249500D01*
X56918592Y-47278340D01*
X56918582Y-47278343D01*
X56782011Y-47334912D01*
X56781998Y-47334919D01*
X56659084Y-47417048D01*
X56659080Y-47417051D01*
X53100451Y-50975681D01*
X53039128Y-51009166D01*
X53012770Y-51012000D01*
X51247070Y-51012000D01*
X51162833Y-51025342D01*
X50994359Y-51052026D01*
X50751027Y-51131088D01*
X50751024Y-51131089D01*
X50523049Y-51247250D01*
X50316064Y-51397632D01*
X50316059Y-51397636D01*
X50135136Y-51578559D01*
X50135132Y-51578564D01*
X49984750Y-51785549D01*
X49868589Y-52013524D01*
X49868588Y-52013527D01*
X49789526Y-52256859D01*
X49749500Y-52509570D01*
X45500500Y-52509570D01*
X45500500Y-43624500D01*
X45520185Y-43557461D01*
X45572989Y-43511706D01*
X45624500Y-43500500D01*
X105375500Y-43500500D01*
X105442539Y-43520185D01*
G37*
%TD.AperFunction*%
M02*
