%TF.GenerationSoftware,KiCad,Pcbnew,10.0.3*%
%TF.CreationDate,2026-06-18T19:27:22-04:00*%
%TF.ProjectId,panel,70616e65-6c2e-46b6-9963-61645f706362,rev?*%
%TF.SameCoordinates,Original*%
%TF.FileFunction,Copper,L1,Top*%
%TF.FilePolarity,Positive*%
%FSLAX46Y46*%
G04 Gerber Fmt 4.6, Leading zero omitted, Abs format (unit mm)*
G04 Created by KiCad (PCBNEW 10.0.3) date 2026-06-18 19:27:22*
%MOMM*%
%LPD*%
G01*
G04 APERTURE LIST*
G04 Aperture macros list*
%AMRoundRect*
0 Rectangle with rounded corners*
0 $1 Rounding radius*
0 $2 $3 $4 $5 $6 $7 $8 $9 X,Y pos of 4 corners*
0 Add a 4 corners polygon primitive as box body*
4,1,4,$2,$3,$4,$5,$6,$7,$8,$9,$2,$3,0*
0 Add four circle primitives for the rounded corners*
1,1,$1+$1,$2,$3*
1,1,$1+$1,$4,$5*
1,1,$1+$1,$6,$7*
1,1,$1+$1,$8,$9*
0 Add four rect primitives between the rounded corners*
20,1,$1+$1,$2,$3,$4,$5,0*
20,1,$1+$1,$4,$5,$6,$7,0*
20,1,$1+$1,$6,$7,$8,$9,0*
20,1,$1+$1,$8,$9,$2,$3,0*%
G04 Aperture macros list end*
%TA.AperFunction,SMDPad,CuDef*%
%ADD10RoundRect,0.250001X-0.462499X-0.624999X0.462499X-0.624999X0.462499X0.624999X-0.462499X0.624999X0*%
%TD*%
%TA.AperFunction,SMDPad,CuDef*%
%ADD11RoundRect,0.250000X-0.400000X-0.625000X0.400000X-0.625000X0.400000X0.625000X-0.400000X0.625000X0*%
%TD*%
%TA.AperFunction,ComponentPad*%
%ADD12C,1.800000*%
%TD*%
%TA.AperFunction,ComponentPad*%
%ADD13R,1.800000X1.800000*%
%TD*%
%TA.AperFunction,ComponentPad*%
%ADD14O,4.500000X2.250000*%
%TD*%
%TA.AperFunction,ComponentPad*%
%ADD15C,1.440000*%
%TD*%
%TA.AperFunction,Conductor*%
%ADD16C,0.500000*%
%TD*%
G04 APERTURE END LIST*
D10*
%TO.P,D5,2,A_2*%
%TO.N,Net-(D13-A)*%
X96975000Y-97000000D03*
%TO.P,D5,1,K_1*%
%TO.N,Net-(D13-K)*%
X94000000Y-97000000D03*
%TD*%
D11*
%TO.P,R2,2*%
%TO.N,Net-(D13-A)*%
X65050000Y-52000000D03*
%TO.P,R2,1*%
%TO.N,+12V*%
X61950000Y-52000000D03*
%TD*%
D12*
%TO.P,RV4,1,1_1*%
%TO.N,+12V*%
X93235000Y-61605000D03*
%TO.P,RV4,2,2_2*%
%TO.N,Net-(D13-A)*%
X95775000Y-53985000D03*
%TO.P,RV4,3,3_3*%
%TO.N,GND*%
X93235000Y-48905000D03*
%TD*%
%TO.P,RV3,1,1_1*%
%TO.N,+12V*%
X100235000Y-61605000D03*
%TO.P,RV3,2,2_2*%
%TO.N,Net-(D1-A)*%
X102775000Y-53985000D03*
%TO.P,RV3,3,3_3*%
%TO.N,GND*%
X100235000Y-48905000D03*
%TD*%
D10*
%TO.P,D1,1,K_1*%
%TO.N,Net-(D1-K)*%
X94000000Y-80000000D03*
%TO.P,D1,2,A_2*%
%TO.N,Net-(D1-A)*%
X96975000Y-80000000D03*
%TD*%
D13*
%TO.P,D12,1,K_1*%
%TO.N,GND*%
X48460000Y-96000000D03*
D12*
%TO.P,D12,2,A_2*%
%TO.N,Net-(D11-K)*%
X51000000Y-96000000D03*
%TD*%
D14*
%TO.P,J1,1*%
%TO.N,+12V*%
X52500000Y-58937500D03*
%TO.P,J1,2*%
%TO.N,GND*%
X52500000Y-52637500D03*
%TD*%
D10*
%TO.P,D3,2,A_2*%
%TO.N,Net-(D10-K)*%
X58000000Y-69000000D03*
%TO.P,D3,1,K_1*%
%TO.N,Net-(D11-K)*%
X55025000Y-69000000D03*
%TD*%
%TO.P,D7,2,A_2*%
%TO.N,Net-(D14-K)*%
X71000000Y-66000000D03*
%TO.P,D7,1,K_1*%
%TO.N,Net-(D15-K)*%
X68025000Y-66000000D03*
%TD*%
D15*
%TO.P,RV1,1,1_1*%
%TO.N,+12V*%
X75540000Y-48000000D03*
%TO.P,RV1,2,2_2*%
%TO.N,Net-(D1-A)*%
X73000000Y-48000000D03*
%TO.P,RV1,3,3_3*%
%TO.N,GND*%
X70460000Y-48000000D03*
%TD*%
D12*
%TO.P,D15,2,A_2*%
%TO.N,Net-(D14-K)*%
X64500000Y-66000000D03*
D13*
%TO.P,D15,1,K_1*%
%TO.N,Net-(D15-K)*%
X61960000Y-66000000D03*
%TD*%
D12*
%TO.P,D11,2,A_2*%
%TO.N,Net-(D10-K)*%
X51000000Y-69000000D03*
D13*
%TO.P,D11,1,K_1*%
%TO.N,Net-(D11-K)*%
X48460000Y-69000000D03*
%TD*%
D11*
%TO.P,R1,1*%
%TO.N,+12V*%
X61950000Y-48000000D03*
%TO.P,R1,2*%
%TO.N,Net-(D1-A)*%
X65050000Y-48000000D03*
%TD*%
D13*
%TO.P,D13,1,K_1*%
%TO.N,Net-(D13-K)*%
X100460000Y-95000000D03*
D12*
%TO.P,D13,2,A_2*%
%TO.N,Net-(D13-A)*%
X103000000Y-95000000D03*
%TD*%
D13*
%TO.P,D16,1,K_1*%
%TO.N,GND*%
X48500000Y-79500000D03*
D12*
%TO.P,D16,2,A_2*%
%TO.N,Net-(D15-K)*%
X51040000Y-79500000D03*
%TD*%
D13*
%TO.P,D10,1,K_1*%
%TO.N,Net-(D10-K)*%
X87460000Y-66000000D03*
D12*
%TO.P,D10,2,A_2*%
%TO.N,Net-(D1-K)*%
X90000000Y-66000000D03*
%TD*%
D10*
%TO.P,D4,1,K_1*%
%TO.N,GND*%
X54972500Y-97000000D03*
%TO.P,D4,2,A_2*%
%TO.N,Net-(D11-K)*%
X57947500Y-97000000D03*
%TD*%
D13*
%TO.P,D9,1,K_1*%
%TO.N,Net-(D1-K)*%
X100000000Y-80000000D03*
D12*
%TO.P,D9,2,A_2*%
%TO.N,Net-(D1-A)*%
X102540000Y-80000000D03*
%TD*%
D10*
%TO.P,D6,1,K_1*%
%TO.N,Net-(D14-K)*%
X94000000Y-69000000D03*
%TO.P,D6,2,A_2*%
%TO.N,Net-(D13-K)*%
X96975000Y-69000000D03*
%TD*%
%TO.P,D2,1,K_1*%
%TO.N,Net-(D10-K)*%
X81000000Y-66000000D03*
%TO.P,D2,2,A_2*%
%TO.N,Net-(D1-K)*%
X83975000Y-66000000D03*
%TD*%
D12*
%TO.P,D14,2,A_2*%
%TO.N,Net-(D13-K)*%
X103000000Y-69000000D03*
D13*
%TO.P,D14,1,K_1*%
%TO.N,Net-(D14-K)*%
X100460000Y-69000000D03*
%TD*%
D10*
%TO.P,D8,1,K_1*%
%TO.N,GND*%
X55012500Y-79500000D03*
%TO.P,D8,2,A_2*%
%TO.N,Net-(D15-K)*%
X57987500Y-79500000D03*
%TD*%
D15*
%TO.P,RV2,1,1_1*%
%TO.N,+12V*%
X86580000Y-48000000D03*
%TO.P,RV2,2,2_2*%
%TO.N,Net-(D13-A)*%
X84040000Y-48000000D03*
%TO.P,RV2,3,3_3*%
%TO.N,GND*%
X81500000Y-48000000D03*
%TD*%
%TO.N,GND*%
D16*
X52500000Y-52637500D02*
X46410000Y-58727500D01*
X46410000Y-58727500D02*
X46410000Y-77410000D01*
X46410000Y-77410000D02*
X48500000Y-79500000D01*
%TO.N,Net-(D13-A)*%
X65050000Y-52000000D02*
X80040000Y-52000000D01*
X80040000Y-52000000D02*
X84040000Y-48000000D01*
X103000000Y-95000000D02*
X104600000Y-93400000D01*
X104600000Y-93400000D02*
X104600000Y-62810000D01*
X104600000Y-62810000D02*
X95775000Y-53985000D01*
%TO.N,GND*%
X54972500Y-97000000D02*
X54622500Y-97350000D01*
X54622500Y-97350000D02*
X49810000Y-97350000D01*
X49810000Y-97350000D02*
X48460000Y-96000000D01*
%TO.N,Net-(D11-K)*%
X57947500Y-97000000D02*
X59150000Y-95797500D01*
X59150000Y-95797500D02*
X59150000Y-73125000D01*
X59150000Y-73125000D02*
X55025000Y-69000000D01*
X51000000Y-96000000D02*
X51900000Y-95100000D01*
X51900000Y-95100000D02*
X56047500Y-95100000D01*
X56047500Y-95100000D02*
X57947500Y-97000000D01*
%TO.N,GND*%
X48500000Y-79500000D02*
X48500000Y-95960000D01*
X48500000Y-95960000D02*
X48460000Y-96000000D01*
%TO.N,Net-(D15-K)*%
X51040000Y-79500000D02*
X52365000Y-78175000D01*
X56662500Y-78175000D02*
X57987500Y-79500000D01*
X52365000Y-78175000D02*
X56662500Y-78175000D01*
%TO.N,GND*%
X55012500Y-79500000D02*
X53662500Y-80850000D01*
X53662500Y-80850000D02*
X49850000Y-80850000D01*
X49850000Y-80850000D02*
X48500000Y-79500000D01*
%TO.N,Net-(D15-K)*%
X61960000Y-66000000D02*
X48760000Y-66000000D01*
X48760000Y-66000000D02*
X47110000Y-67650000D01*
X47110000Y-67650000D02*
X47110000Y-75570000D01*
X47110000Y-75570000D02*
X51040000Y-79500000D01*
%TO.N,Net-(D10-K)*%
X51000000Y-69000000D02*
X52325000Y-67675000D01*
X52325000Y-67675000D02*
X56675000Y-67675000D01*
X56675000Y-67675000D02*
X58000000Y-69000000D01*
%TO.N,Net-(D11-K)*%
X55025000Y-69000000D02*
X55000000Y-69000000D01*
X55000000Y-69000000D02*
X53650000Y-70350000D01*
X53650000Y-70350000D02*
X49810000Y-70350000D01*
X49810000Y-70350000D02*
X48460000Y-69000000D01*
%TO.N,Net-(D14-K)*%
X64500000Y-66000000D02*
X65825000Y-64675000D01*
X65825000Y-64675000D02*
X69675000Y-64675000D01*
X69675000Y-64675000D02*
X71000000Y-66000000D01*
%TO.N,Net-(D15-K)*%
X68025000Y-66000000D02*
X66675000Y-67350000D01*
X66675000Y-67350000D02*
X63310000Y-67350000D01*
X63310000Y-67350000D02*
X61960000Y-66000000D01*
%TO.N,Net-(D10-K)*%
X81000000Y-66000000D02*
X78000000Y-69000000D01*
X78000000Y-69000000D02*
X58000000Y-69000000D01*
%TO.N,Net-(D14-K)*%
X94000000Y-69000000D02*
X94000000Y-68090811D01*
X94000000Y-68090811D02*
X89884189Y-63975000D01*
X89884189Y-63975000D02*
X73025000Y-63975000D01*
X73025000Y-63975000D02*
X71000000Y-66000000D01*
%TO.N,Net-(D10-K)*%
X87460000Y-66000000D02*
X86135000Y-64675000D01*
X86135000Y-64675000D02*
X82325000Y-64675000D01*
X82325000Y-64675000D02*
X81000000Y-66000000D01*
%TO.N,Net-(D1-K)*%
X83975000Y-66000000D02*
X85325000Y-67350000D01*
X85325000Y-67350000D02*
X88650000Y-67350000D01*
X88650000Y-67350000D02*
X90000000Y-66000000D01*
X90000000Y-66000000D02*
X92750000Y-68750000D01*
X92750000Y-78750000D02*
X94000000Y-80000000D01*
X92750000Y-68750000D02*
X92750000Y-78750000D01*
X100000000Y-80000000D02*
X98675000Y-81325000D01*
X98675000Y-81325000D02*
X95325000Y-81325000D01*
X95325000Y-81325000D02*
X94000000Y-80000000D01*
%TO.N,Net-(D1-A)*%
X102540000Y-80000000D02*
X101190000Y-78650000D01*
X101190000Y-78650000D02*
X98325000Y-78650000D01*
X98325000Y-78650000D02*
X96975000Y-80000000D01*
%TO.N,Net-(D14-K)*%
X100460000Y-69000000D02*
X99135000Y-67675000D01*
X99135000Y-67675000D02*
X95325000Y-67675000D01*
X95325000Y-67675000D02*
X94000000Y-69000000D01*
%TO.N,Net-(D13-K)*%
X103000000Y-69000000D02*
X101650000Y-70350000D01*
X101650000Y-70350000D02*
X98325000Y-70350000D01*
X98325000Y-70350000D02*
X96975000Y-69000000D01*
X100460000Y-95000000D02*
X103900000Y-91560000D01*
X103900000Y-91560000D02*
X103900000Y-69900000D01*
X103900000Y-69900000D02*
X103000000Y-69000000D01*
X100460000Y-95000000D02*
X96000000Y-95000000D01*
X96000000Y-95000000D02*
X94000000Y-97000000D01*
%TO.N,Net-(D13-A)*%
X96975000Y-97000000D02*
X101000000Y-97000000D01*
X101000000Y-97000000D02*
X103000000Y-95000000D01*
%TO.N,Net-(D1-A)*%
X102775000Y-53985000D02*
X94920000Y-46130000D01*
X94920000Y-46130000D02*
X74870000Y-46130000D01*
X74870000Y-46130000D02*
X73000000Y-48000000D01*
%TO.N,Net-(D13-A)*%
X95775000Y-53985000D02*
X88620000Y-46830000D01*
X88620000Y-46830000D02*
X85210000Y-46830000D01*
X85210000Y-46830000D02*
X84040000Y-48000000D01*
%TO.N,Net-(D1-A)*%
X71830000Y-46830000D02*
X73000000Y-48000000D01*
X65050000Y-48000000D02*
X66220000Y-46830000D01*
X66220000Y-46830000D02*
X71830000Y-46830000D01*
%TO.N,+12V*%
X100235000Y-61605000D02*
X93235000Y-61605000D01*
X75540000Y-48000000D02*
X74052500Y-49487500D01*
X74052500Y-49487500D02*
X61950000Y-49487500D01*
X61950000Y-48000000D02*
X61950000Y-49487500D01*
X61950000Y-49487500D02*
X59437500Y-52000000D01*
X71555000Y-61605000D02*
X86500000Y-61605000D01*
X86580000Y-48000000D02*
X86580000Y-61525000D01*
X86580000Y-61525000D02*
X86500000Y-61605000D01*
X61950000Y-52000000D02*
X71555000Y-61605000D01*
X86500000Y-61605000D02*
X93235000Y-61605000D01*
X52500000Y-58937500D02*
X59437500Y-52000000D01*
X59437500Y-52000000D02*
X61950000Y-52000000D01*
%TD*%
%TA.AperFunction,NonConductor*%
G36*
X83155336Y-46886738D02*
G01*
X83177425Y-46888318D01*
X83188208Y-46896390D01*
X83201130Y-46900185D01*
X83215629Y-46916918D01*
X83233358Y-46930190D01*
X83238065Y-46942810D01*
X83246885Y-46952989D01*
X83250036Y-46974906D01*
X83257775Y-46995654D01*
X83254912Y-47008814D01*
X83256829Y-47022147D01*
X83247629Y-47042290D01*
X83242923Y-47063927D01*
X83229654Y-47081652D01*
X83227804Y-47085703D01*
X83221772Y-47092181D01*
X83109057Y-47204895D01*
X83109057Y-47204896D01*
X83109055Y-47204898D01*
X83060560Y-47271645D01*
X82996135Y-47360318D01*
X82908916Y-47531493D01*
X82887931Y-47596081D01*
X82848494Y-47653756D01*
X82784135Y-47680955D01*
X82715289Y-47669041D01*
X82663813Y-47621797D01*
X82652069Y-47596081D01*
X82631083Y-47531493D01*
X82543864Y-47360318D01*
X82430945Y-47204898D01*
X82318228Y-47092181D01*
X82284743Y-47030858D01*
X82289727Y-46961166D01*
X82331599Y-46905233D01*
X82397063Y-46880816D01*
X82405909Y-46880500D01*
X83134091Y-46880500D01*
X83155336Y-46886738D01*
G37*
%TD.AperFunction*%
%TA.AperFunction,NonConductor*%
G36*
X69212583Y-47600185D02*
G01*
X69258338Y-47652989D01*
X69268282Y-47722147D01*
X69268020Y-47723872D01*
X69248125Y-47849492D01*
X69239500Y-47903945D01*
X69239500Y-48096054D01*
X69269553Y-48285802D01*
X69328916Y-48468506D01*
X69373856Y-48556705D01*
X69386752Y-48625374D01*
X69360476Y-48690115D01*
X69303369Y-48730372D01*
X69263371Y-48737000D01*
X66324500Y-48737000D01*
X66257461Y-48717315D01*
X66211706Y-48664511D01*
X66200500Y-48613000D01*
X66200499Y-47962230D01*
X66220183Y-47895191D01*
X66236818Y-47874549D01*
X66494549Y-47616819D01*
X66555872Y-47583334D01*
X66582230Y-47580500D01*
X69145544Y-47580500D01*
X69212583Y-47600185D01*
G37*
%TD.AperFunction*%
%TA.AperFunction,NonConductor*%
G36*
X80661130Y-46900185D02*
G01*
X80706885Y-46952989D01*
X80716829Y-47022147D01*
X80687804Y-47085703D01*
X80681772Y-47092181D01*
X80569057Y-47204895D01*
X80569057Y-47204896D01*
X80569055Y-47204898D01*
X80520560Y-47271645D01*
X80456135Y-47360318D01*
X80368916Y-47531493D01*
X80309553Y-47714197D01*
X80279500Y-47903945D01*
X80279500Y-48096054D01*
X80309553Y-48285802D01*
X80368916Y-48468506D01*
X80368918Y-48468509D01*
X80456135Y-48639681D01*
X80569055Y-48795102D01*
X80704898Y-48930945D01*
X80860319Y-49043865D01*
X80958039Y-49093656D01*
X81031493Y-49131083D01*
X81122845Y-49160764D01*
X81214199Y-49190447D01*
X81403945Y-49220500D01*
X81403946Y-49220500D01*
X81458770Y-49220500D01*
X81525809Y-49240185D01*
X81571564Y-49292989D01*
X81581508Y-49362147D01*
X81552483Y-49425703D01*
X81546451Y-49432181D01*
X79765451Y-51213181D01*
X79704128Y-51246666D01*
X79677770Y-51249500D01*
X66288585Y-51249500D01*
X66221546Y-51229815D01*
X66175791Y-51177011D01*
X66170879Y-51164504D01*
X66159807Y-51131090D01*
X66134814Y-51055666D01*
X66042712Y-50906344D01*
X65918656Y-50782288D01*
X65769334Y-50690186D01*
X65602797Y-50635001D01*
X65602795Y-50635000D01*
X65500010Y-50624500D01*
X64599998Y-50624500D01*
X64599980Y-50624501D01*
X64497203Y-50635000D01*
X64497200Y-50635001D01*
X64330668Y-50690185D01*
X64330663Y-50690187D01*
X64181342Y-50782289D01*
X64057289Y-50906342D01*
X63965187Y-51055663D01*
X63965186Y-51055666D01*
X63910001Y-51222203D01*
X63910001Y-51222204D01*
X63910000Y-51222204D01*
X63899500Y-51324983D01*
X63899500Y-52588770D01*
X63879815Y-52655809D01*
X63827011Y-52701564D01*
X63757853Y-52711508D01*
X63694297Y-52682483D01*
X63687819Y-52676451D01*
X63136818Y-52125450D01*
X63103333Y-52064127D01*
X63100499Y-52037769D01*
X63100499Y-51324998D01*
X63100498Y-51324981D01*
X63089999Y-51222203D01*
X63089998Y-51222200D01*
X63059807Y-51131090D01*
X63034814Y-51055666D01*
X62942712Y-50906344D01*
X62818656Y-50782288D01*
X62669334Y-50690186D01*
X62502797Y-50635001D01*
X62502795Y-50635000D01*
X62400016Y-50624500D01*
X62400009Y-50624500D01*
X62173729Y-50624500D01*
X62152483Y-50618261D01*
X62130395Y-50616682D01*
X62119611Y-50608609D01*
X62106690Y-50604815D01*
X62092190Y-50588081D01*
X62074462Y-50574810D01*
X62069754Y-50562189D01*
X62060935Y-50552011D01*
X62057783Y-50530093D01*
X62050045Y-50509346D01*
X62052907Y-50496185D01*
X62050991Y-50482853D01*
X62060190Y-50462709D01*
X62064897Y-50441073D01*
X62078165Y-50423347D01*
X62080016Y-50419297D01*
X62086048Y-50412819D01*
X62224548Y-50274319D01*
X62285871Y-50240834D01*
X62312229Y-50238000D01*
X74126420Y-50238000D01*
X74223962Y-50218596D01*
X74271413Y-50209158D01*
X74407995Y-50152584D01*
X74482480Y-50102815D01*
X74530916Y-50070452D01*
X75345049Y-49256317D01*
X75406370Y-49222834D01*
X75439073Y-49220613D01*
X75439073Y-49220500D01*
X75440746Y-49220500D01*
X75442469Y-49220383D01*
X75443936Y-49220498D01*
X75443945Y-49220500D01*
X75443954Y-49220500D01*
X75636054Y-49220500D01*
X75636055Y-49220500D01*
X75825801Y-49190447D01*
X76008509Y-49131082D01*
X76179681Y-49043865D01*
X76335102Y-48930945D01*
X76470945Y-48795102D01*
X76583865Y-48639681D01*
X76671082Y-48468509D01*
X76730447Y-48285801D01*
X76760500Y-48096055D01*
X76760500Y-47903945D01*
X76730447Y-47714199D01*
X76693402Y-47600185D01*
X76671083Y-47531493D01*
X76583864Y-47360318D01*
X76470945Y-47204898D01*
X76358228Y-47092181D01*
X76324743Y-47030858D01*
X76329727Y-46961166D01*
X76371599Y-46905233D01*
X76437063Y-46880816D01*
X76445909Y-46880500D01*
X80594091Y-46880500D01*
X80661130Y-46900185D01*
G37*
%TD.AperFunction*%
%TA.AperFunction,NonConductor*%
G36*
X88324809Y-47600185D02*
G01*
X88345451Y-47616819D01*
X94361122Y-53632490D01*
X94394607Y-53693813D01*
X94395914Y-53739569D01*
X94374500Y-53874772D01*
X94374500Y-53874778D01*
X94374500Y-54095222D01*
X94382212Y-54143911D01*
X94408985Y-54312952D01*
X94477103Y-54522603D01*
X94477104Y-54522606D01*
X94577187Y-54719025D01*
X94706752Y-54897358D01*
X94706756Y-54897363D01*
X94862636Y-55053243D01*
X94862641Y-55053247D01*
X95018192Y-55166260D01*
X95040978Y-55182815D01*
X95169375Y-55248237D01*
X95237393Y-55282895D01*
X95237396Y-55282896D01*
X95342221Y-55316955D01*
X95447049Y-55351015D01*
X95664778Y-55385500D01*
X95664779Y-55385500D01*
X95885220Y-55385500D01*
X95885222Y-55385500D01*
X96020431Y-55364084D01*
X96089722Y-55373038D01*
X96127508Y-55398876D01*
X99818361Y-59089729D01*
X100797166Y-60068533D01*
X100830651Y-60129856D01*
X100825667Y-60199548D01*
X100783795Y-60255481D01*
X100718331Y-60279898D01*
X100671168Y-60274145D01*
X100562954Y-60238985D01*
X100399654Y-60213121D01*
X100345222Y-60204500D01*
X100124778Y-60204500D01*
X100052201Y-60215995D01*
X99907047Y-60238985D01*
X99697396Y-60307103D01*
X99697393Y-60307104D01*
X99500974Y-60407187D01*
X99322641Y-60536752D01*
X99322636Y-60536756D01*
X99166754Y-60692638D01*
X99086295Y-60803384D01*
X99030965Y-60846051D01*
X98985976Y-60854500D01*
X94484024Y-60854500D01*
X94416985Y-60834815D01*
X94383705Y-60803384D01*
X94379458Y-60797539D01*
X94361807Y-60773243D01*
X94303245Y-60692638D01*
X94147363Y-60536756D01*
X94147358Y-60536752D01*
X93969025Y-60407187D01*
X93969024Y-60407186D01*
X93969022Y-60407185D01*
X93906096Y-60375122D01*
X93772606Y-60307104D01*
X93772603Y-60307103D01*
X93562952Y-60238985D01*
X93454086Y-60221742D01*
X93345222Y-60204500D01*
X93124778Y-60204500D01*
X93052201Y-60215995D01*
X92907047Y-60238985D01*
X92697396Y-60307103D01*
X92697393Y-60307104D01*
X92500974Y-60407187D01*
X92322641Y-60536752D01*
X92322636Y-60536756D01*
X92166754Y-60692638D01*
X92086295Y-60803384D01*
X92030965Y-60846051D01*
X91985976Y-60854500D01*
X87454500Y-60854500D01*
X87387461Y-60834815D01*
X87341706Y-60782011D01*
X87330500Y-60730500D01*
X87330500Y-49026203D01*
X87350185Y-48959164D01*
X87371736Y-48934469D01*
X87371657Y-48934390D01*
X87372830Y-48933216D01*
X87373969Y-48931912D01*
X87375089Y-48930953D01*
X87375102Y-48930945D01*
X87510945Y-48795102D01*
X87623865Y-48639681D01*
X87711082Y-48468509D01*
X87770447Y-48285801D01*
X87800500Y-48096055D01*
X87800500Y-47903945D01*
X87771983Y-47723897D01*
X87780938Y-47654605D01*
X87825934Y-47601153D01*
X87892685Y-47580513D01*
X87894456Y-47580500D01*
X88257770Y-47580500D01*
X88324809Y-47600185D01*
G37*
%TD.AperFunction*%
%TA.AperFunction,NonConductor*%
G36*
X85326944Y-48324422D02*
G01*
X85358270Y-48328017D01*
X85361103Y-48330333D01*
X85364711Y-48330958D01*
X85387951Y-48352287D01*
X85412359Y-48372246D01*
X85414547Y-48376697D01*
X85416187Y-48378202D01*
X85427931Y-48403919D01*
X85448915Y-48468504D01*
X85448918Y-48468509D01*
X85536135Y-48639681D01*
X85649055Y-48795102D01*
X85784898Y-48930945D01*
X85784903Y-48930949D01*
X85786031Y-48931912D01*
X85786343Y-48932390D01*
X85788343Y-48934390D01*
X85787922Y-48934810D01*
X85824224Y-48990419D01*
X85829500Y-49026203D01*
X85829500Y-60730500D01*
X85809815Y-60797539D01*
X85757011Y-60843294D01*
X85705500Y-60854500D01*
X71917229Y-60854500D01*
X71850190Y-60834815D01*
X71829548Y-60818181D01*
X64598547Y-53587180D01*
X64565062Y-53525857D01*
X64570046Y-53456165D01*
X64611918Y-53400232D01*
X64677382Y-53375815D01*
X64686202Y-53375499D01*
X65500008Y-53375499D01*
X65500016Y-53375498D01*
X65500019Y-53375498D01*
X65556302Y-53369748D01*
X65602797Y-53364999D01*
X65769334Y-53309814D01*
X65918656Y-53217712D01*
X66042712Y-53093656D01*
X66134814Y-52944334D01*
X66170879Y-52835494D01*
X66210652Y-52778051D01*
X66275167Y-52751228D01*
X66288585Y-52750500D01*
X80113920Y-52750500D01*
X80211462Y-52731096D01*
X80258913Y-52721658D01*
X80395495Y-52665084D01*
X80444729Y-52632186D01*
X80518416Y-52582952D01*
X83845048Y-49256317D01*
X83906369Y-49222834D01*
X83939073Y-49220613D01*
X83939073Y-49220500D01*
X83940744Y-49220500D01*
X83942467Y-49220383D01*
X83943938Y-49220498D01*
X83943945Y-49220500D01*
X83943952Y-49220500D01*
X84136054Y-49220500D01*
X84136055Y-49220500D01*
X84325801Y-49190447D01*
X84508509Y-49131082D01*
X84679681Y-49043865D01*
X84835102Y-48930945D01*
X84970945Y-48795102D01*
X85083865Y-48639681D01*
X85171082Y-48468509D01*
X85171084Y-48468504D01*
X85192069Y-48403919D01*
X85209865Y-48377892D01*
X85226155Y-48350879D01*
X85229440Y-48349263D01*
X85231506Y-48346243D01*
X85260553Y-48333966D01*
X85288856Y-48320052D01*
X85292491Y-48320469D01*
X85295864Y-48319044D01*
X85326944Y-48324422D01*
G37*
%TD.AperFunction*%
%TA.AperFunction,NonConductor*%
G36*
X85839809Y-65445185D02*
G01*
X85860451Y-65461819D01*
X86023181Y-65624549D01*
X86056666Y-65685872D01*
X86059500Y-65712230D01*
X86059500Y-66126628D01*
X86059501Y-66475500D01*
X86056950Y-66484186D01*
X86058239Y-66493147D01*
X86047261Y-66517183D01*
X86039817Y-66542539D01*
X86032974Y-66548467D01*
X86029214Y-66556703D01*
X86006982Y-66570989D01*
X85987013Y-66588294D01*
X85976497Y-66590581D01*
X85970436Y-66594477D01*
X85935501Y-66599500D01*
X85687229Y-66599500D01*
X85620190Y-66579815D01*
X85599548Y-66563181D01*
X85224319Y-66187951D01*
X85190834Y-66126628D01*
X85188000Y-66100270D01*
X85188000Y-65549500D01*
X85207685Y-65482461D01*
X85260489Y-65436706D01*
X85312000Y-65425500D01*
X85772770Y-65425500D01*
X85839809Y-65445185D01*
G37*
%TD.AperFunction*%
%TA.AperFunction,NonConductor*%
G36*
X66755039Y-65445185D02*
G01*
X66800794Y-65497989D01*
X66812000Y-65549500D01*
X66812000Y-66100270D01*
X66792315Y-66167309D01*
X66775681Y-66187951D01*
X66400451Y-66563181D01*
X66339128Y-66596666D01*
X66312770Y-66599500D01*
X65948456Y-66599500D01*
X65881417Y-66579815D01*
X65835662Y-66527011D01*
X65825718Y-66457853D01*
X65830525Y-66437183D01*
X65866014Y-66327954D01*
X65866013Y-66327954D01*
X65866015Y-66327951D01*
X65900500Y-66110222D01*
X65900500Y-65889778D01*
X65879084Y-65754566D01*
X65888038Y-65685276D01*
X65913871Y-65647495D01*
X66099550Y-65461816D01*
X66160873Y-65428334D01*
X66187230Y-65425500D01*
X66688000Y-65425500D01*
X66755039Y-65445185D01*
G37*
%TD.AperFunction*%
%TA.AperFunction,NonConductor*%
G36*
X105442539Y-43520185D02*
G01*
X105488294Y-43572989D01*
X105499500Y-43624500D01*
X105499500Y-62396560D01*
X105479815Y-62463599D01*
X105427011Y-62509354D01*
X105357853Y-62519298D01*
X105294297Y-62490273D01*
X105272398Y-62465451D01*
X105182952Y-62331585D01*
X105178023Y-62326656D01*
X105078416Y-62227049D01*
X101164891Y-58313524D01*
X97188876Y-54337508D01*
X97155391Y-54276185D01*
X97154084Y-54230434D01*
X97175500Y-54095222D01*
X97175500Y-53874778D01*
X97141015Y-53657049D01*
X97072895Y-53447394D01*
X97072895Y-53447393D01*
X97030912Y-53364998D01*
X96972815Y-53250978D01*
X96948645Y-53217710D01*
X96843247Y-53072641D01*
X96843243Y-53072636D01*
X96687363Y-52916756D01*
X96687358Y-52916752D01*
X96509025Y-52787187D01*
X96509024Y-52787186D01*
X96509022Y-52787185D01*
X96438453Y-52751228D01*
X96312606Y-52687104D01*
X96312603Y-52687103D01*
X96102952Y-52618985D01*
X95994086Y-52601742D01*
X95885222Y-52584500D01*
X95664778Y-52584500D01*
X95664773Y-52584500D01*
X95529569Y-52605914D01*
X95460275Y-52596959D01*
X95422490Y-52571122D01*
X93354704Y-50503336D01*
X93321219Y-50442013D01*
X93326203Y-50372321D01*
X93368075Y-50316388D01*
X93422980Y-50293184D01*
X93562951Y-50271015D01*
X93772606Y-50202895D01*
X93969022Y-50102815D01*
X94147365Y-49973242D01*
X94303242Y-49817365D01*
X94432815Y-49639022D01*
X94532895Y-49442606D01*
X94601015Y-49232951D01*
X94635500Y-49015222D01*
X94635500Y-48794778D01*
X94601015Y-48577049D01*
X94535918Y-48376697D01*
X94532896Y-48367396D01*
X94532895Y-48367393D01*
X94498237Y-48299375D01*
X94432815Y-48170978D01*
X94378380Y-48096054D01*
X94303247Y-47992641D01*
X94303243Y-47992636D01*
X94147363Y-47836756D01*
X94147358Y-47836752D01*
X93969025Y-47707187D01*
X93969024Y-47707186D01*
X93969022Y-47707185D01*
X93894161Y-47669041D01*
X93772606Y-47607104D01*
X93772603Y-47607103D01*
X93562952Y-47538985D01*
X93454086Y-47521742D01*
X93345222Y-47504500D01*
X93124778Y-47504500D01*
X93052201Y-47515995D01*
X92907047Y-47538985D01*
X92697396Y-47607103D01*
X92697393Y-47607104D01*
X92500974Y-47707187D01*
X92322641Y-47836752D01*
X92322636Y-47836756D01*
X92166756Y-47992636D01*
X92166752Y-47992641D01*
X92037187Y-48170974D01*
X91937104Y-48367393D01*
X91937103Y-48367396D01*
X91868985Y-48577047D01*
X91846817Y-48717012D01*
X91816888Y-48780147D01*
X91757576Y-48817078D01*
X91687714Y-48816080D01*
X91636663Y-48785295D01*
X89943549Y-47092181D01*
X89910064Y-47030858D01*
X89915048Y-46961166D01*
X89956920Y-46905233D01*
X90022384Y-46880816D01*
X90031230Y-46880500D01*
X94557770Y-46880500D01*
X94624809Y-46900185D01*
X94645451Y-46916819D01*
X101361122Y-53632489D01*
X101394607Y-53693812D01*
X101395914Y-53739568D01*
X101374500Y-53874772D01*
X101374500Y-53874778D01*
X101374500Y-54095222D01*
X101382212Y-54143911D01*
X101408985Y-54312952D01*
X101477103Y-54522603D01*
X101477104Y-54522606D01*
X101577187Y-54719025D01*
X101706752Y-54897358D01*
X101706756Y-54897363D01*
X101862636Y-55053243D01*
X101862641Y-55053247D01*
X102018192Y-55166260D01*
X102040978Y-55182815D01*
X102169375Y-55248237D01*
X102237393Y-55282895D01*
X102237396Y-55282896D01*
X102342221Y-55316955D01*
X102447049Y-55351015D01*
X102664778Y-55385500D01*
X102664779Y-55385500D01*
X102885221Y-55385500D01*
X102885222Y-55385500D01*
X103102951Y-55351015D01*
X103312606Y-55282895D01*
X103509022Y-55182815D01*
X103687365Y-55053242D01*
X103843242Y-54897365D01*
X103972815Y-54719022D01*
X104072895Y-54522606D01*
X104141015Y-54312951D01*
X104175500Y-54095222D01*
X104175500Y-53874778D01*
X104141015Y-53657049D01*
X104072895Y-53447394D01*
X104072895Y-53447393D01*
X104030912Y-53364998D01*
X103972815Y-53250978D01*
X103948645Y-53217710D01*
X103843247Y-53072641D01*
X103843243Y-53072636D01*
X103687363Y-52916756D01*
X103687358Y-52916752D01*
X103509025Y-52787187D01*
X103509024Y-52787186D01*
X103509022Y-52787185D01*
X103438453Y-52751228D01*
X103312606Y-52687104D01*
X103312603Y-52687103D01*
X103102952Y-52618985D01*
X102994086Y-52601742D01*
X102885222Y-52584500D01*
X102664778Y-52584500D01*
X102664773Y-52584500D01*
X102529568Y-52605914D01*
X102460274Y-52596959D01*
X102422489Y-52571122D01*
X100354704Y-50503337D01*
X100321219Y-50442014D01*
X100326203Y-50372322D01*
X100368075Y-50316389D01*
X100422986Y-50293183D01*
X100562951Y-50271015D01*
X100772606Y-50202895D01*
X100969022Y-50102815D01*
X101147365Y-49973242D01*
X101303242Y-49817365D01*
X101432815Y-49639022D01*
X101532895Y-49442606D01*
X101601015Y-49232951D01*
X101635500Y-49015222D01*
X101635500Y-48794778D01*
X101601015Y-48577049D01*
X101535918Y-48376697D01*
X101532896Y-48367396D01*
X101532895Y-48367393D01*
X101498237Y-48299375D01*
X101432815Y-48170978D01*
X101378380Y-48096054D01*
X101303247Y-47992641D01*
X101303243Y-47992636D01*
X101147363Y-47836756D01*
X101147358Y-47836752D01*
X100969025Y-47707187D01*
X100969024Y-47707186D01*
X100969022Y-47707185D01*
X100894161Y-47669041D01*
X100772606Y-47607104D01*
X100772603Y-47607103D01*
X100562952Y-47538985D01*
X100454086Y-47521742D01*
X100345222Y-47504500D01*
X100124778Y-47504500D01*
X100052201Y-47515995D01*
X99907047Y-47538985D01*
X99697396Y-47607103D01*
X99697393Y-47607104D01*
X99500974Y-47707187D01*
X99322641Y-47836752D01*
X99322636Y-47836756D01*
X99166756Y-47992636D01*
X99166752Y-47992641D01*
X99037187Y-48170974D01*
X98937104Y-48367393D01*
X98937103Y-48367396D01*
X98868985Y-48577047D01*
X98846817Y-48717011D01*
X98816888Y-48780146D01*
X98757576Y-48817077D01*
X98687714Y-48816079D01*
X98636663Y-48785294D01*
X95398421Y-45547052D01*
X95398414Y-45547046D01*
X95324729Y-45497812D01*
X95324729Y-45497813D01*
X95275491Y-45464913D01*
X95138917Y-45408343D01*
X95138907Y-45408340D01*
X94993920Y-45379500D01*
X94993918Y-45379500D01*
X74943917Y-45379500D01*
X74796082Y-45379500D01*
X74796080Y-45379500D01*
X74651092Y-45408340D01*
X74651082Y-45408343D01*
X74514511Y-45464912D01*
X74514498Y-45464919D01*
X74391584Y-45547048D01*
X74391580Y-45547051D01*
X73194951Y-46743679D01*
X73168023Y-46758382D01*
X73142205Y-46774975D01*
X73136561Y-46775561D01*
X73133628Y-46777164D01*
X73107270Y-46779998D01*
X73099199Y-46779998D01*
X73096055Y-46779500D01*
X72903945Y-46779500D01*
X72900801Y-46779998D01*
X72892729Y-46779998D01*
X72863687Y-46771470D01*
X72834059Y-46765240D01*
X72828565Y-46761157D01*
X72825690Y-46760313D01*
X72822543Y-46756681D01*
X72805048Y-46743679D01*
X72308421Y-46247052D01*
X72308414Y-46247046D01*
X72234729Y-46197812D01*
X72234729Y-46197813D01*
X72185491Y-46164913D01*
X72048917Y-46108343D01*
X72048907Y-46108340D01*
X71903920Y-46079500D01*
X71903918Y-46079500D01*
X66146082Y-46079500D01*
X66146080Y-46079500D01*
X66001092Y-46108340D01*
X66001086Y-46108342D01*
X65864508Y-46164914D01*
X65864496Y-46164921D01*
X65815270Y-46197811D01*
X65815271Y-46197812D01*
X65741581Y-46247049D01*
X65400449Y-46588181D01*
X65339126Y-46621666D01*
X65312768Y-46624500D01*
X64599998Y-46624500D01*
X64599980Y-46624501D01*
X64497203Y-46635000D01*
X64497200Y-46635001D01*
X64330668Y-46690185D01*
X64330663Y-46690187D01*
X64181342Y-46782289D01*
X64057289Y-46906342D01*
X63965187Y-47055663D01*
X63965185Y-47055668D01*
X63953086Y-47092181D01*
X63910001Y-47222203D01*
X63910001Y-47222204D01*
X63910000Y-47222204D01*
X63899500Y-47324983D01*
X63899500Y-47324991D01*
X63899500Y-47992641D01*
X63899501Y-48613000D01*
X63879816Y-48680039D01*
X63827013Y-48725794D01*
X63775501Y-48737000D01*
X63224500Y-48737000D01*
X63157461Y-48717315D01*
X63111706Y-48664511D01*
X63100500Y-48613000D01*
X63100499Y-47324998D01*
X63100498Y-47324981D01*
X63089999Y-47222203D01*
X63089998Y-47222200D01*
X63084264Y-47204895D01*
X63034814Y-47055666D01*
X62942712Y-46906344D01*
X62818656Y-46782288D01*
X62669334Y-46690186D01*
X62502797Y-46635001D01*
X62502795Y-46635000D01*
X62400010Y-46624500D01*
X61499998Y-46624500D01*
X61499980Y-46624501D01*
X61397203Y-46635000D01*
X61397200Y-46635001D01*
X61230668Y-46690185D01*
X61230663Y-46690187D01*
X61081342Y-46782289D01*
X60957289Y-46906342D01*
X60865187Y-47055663D01*
X60865185Y-47055668D01*
X60853086Y-47092181D01*
X60810001Y-47222203D01*
X60810001Y-47222204D01*
X60810000Y-47222204D01*
X60799500Y-47324983D01*
X60799500Y-48675001D01*
X60799501Y-48675018D01*
X60810000Y-48777796D01*
X60810001Y-48777799D01*
X60865185Y-48944331D01*
X60865187Y-48944336D01*
X60957289Y-49093657D01*
X61032201Y-49168569D01*
X61065686Y-49229892D01*
X61060702Y-49299584D01*
X61032201Y-49343931D01*
X53100451Y-57275681D01*
X53039128Y-57309166D01*
X53012770Y-57312000D01*
X51247070Y-57312000D01*
X51162833Y-57325342D01*
X50994359Y-57352026D01*
X50751027Y-57431088D01*
X50751024Y-57431089D01*
X50523049Y-57547250D01*
X50316064Y-57697632D01*
X50316059Y-57697636D01*
X50135136Y-57878559D01*
X50135132Y-57878564D01*
X49984750Y-58085549D01*
X49868589Y-58313524D01*
X49868588Y-58313527D01*
X49789526Y-58556859D01*
X49749500Y-58809570D01*
X49749500Y-59065429D01*
X49789526Y-59318140D01*
X49868588Y-59561472D01*
X49868589Y-59561475D01*
X49984750Y-59789450D01*
X50135132Y-59996435D01*
X50135136Y-59996440D01*
X50316059Y-60177363D01*
X50316064Y-60177367D01*
X50353410Y-60204500D01*
X50523053Y-60327752D01*
X50672080Y-60403685D01*
X50751024Y-60443910D01*
X50751027Y-60443911D01*
X50872693Y-60483442D01*
X50994361Y-60522974D01*
X51247070Y-60563000D01*
X51247071Y-60563000D01*
X53752929Y-60563000D01*
X53752930Y-60563000D01*
X54005639Y-60522974D01*
X54248975Y-60443910D01*
X54476947Y-60327752D01*
X54683942Y-60177362D01*
X54864862Y-59996442D01*
X55015252Y-59789447D01*
X55131410Y-59561475D01*
X55210474Y-59318139D01*
X55250500Y-59065430D01*
X55250500Y-58809570D01*
X55210474Y-58556861D01*
X55146934Y-58361302D01*
X55131411Y-58313527D01*
X55131410Y-58313524D01*
X55091185Y-58234580D01*
X55015252Y-58085553D01*
X54996038Y-58059107D01*
X54864867Y-57878564D01*
X54864863Y-57878559D01*
X54830266Y-57843962D01*
X54796781Y-57782639D01*
X54801765Y-57712947D01*
X54830266Y-57668600D01*
X59712048Y-52786819D01*
X59773371Y-52753334D01*
X59799729Y-52750500D01*
X60711415Y-52750500D01*
X60778454Y-52770185D01*
X60824209Y-52822989D01*
X60829118Y-52835489D01*
X60865186Y-52944334D01*
X60957288Y-53093656D01*
X61081344Y-53217712D01*
X61230666Y-53309814D01*
X61397203Y-53364999D01*
X61499991Y-53375500D01*
X62212769Y-53375499D01*
X62279808Y-53395183D01*
X62300450Y-53411818D01*
X71076580Y-62187948D01*
X71076584Y-62187951D01*
X71199498Y-62270080D01*
X71199511Y-62270087D01*
X71336082Y-62326656D01*
X71336087Y-62326658D01*
X71336091Y-62326658D01*
X71336092Y-62326659D01*
X71481079Y-62355500D01*
X71481082Y-62355500D01*
X71628917Y-62355500D01*
X86426082Y-62355500D01*
X86426083Y-62355500D01*
X86573917Y-62355500D01*
X91985976Y-62355500D01*
X92053015Y-62375185D01*
X92086295Y-62406616D01*
X92166754Y-62517361D01*
X92322636Y-62673243D01*
X92322641Y-62673247D01*
X92409127Y-62736082D01*
X92500978Y-62802815D01*
X92629375Y-62868237D01*
X92697393Y-62902895D01*
X92697396Y-62902896D01*
X92802221Y-62936955D01*
X92907049Y-62971015D01*
X93124778Y-63005500D01*
X93124779Y-63005500D01*
X93345221Y-63005500D01*
X93345222Y-63005500D01*
X93562951Y-62971015D01*
X93772606Y-62902895D01*
X93969022Y-62802815D01*
X94147365Y-62673242D01*
X94303242Y-62517365D01*
X94383705Y-62406615D01*
X94439035Y-62363949D01*
X94484024Y-62355500D01*
X98985976Y-62355500D01*
X99053015Y-62375185D01*
X99086295Y-62406616D01*
X99166754Y-62517361D01*
X99322636Y-62673243D01*
X99322641Y-62673247D01*
X99409127Y-62736082D01*
X99500978Y-62802815D01*
X99629375Y-62868237D01*
X99697393Y-62902895D01*
X99697396Y-62902896D01*
X99802221Y-62936955D01*
X99907049Y-62971015D01*
X100124778Y-63005500D01*
X100124779Y-63005500D01*
X100345221Y-63005500D01*
X100345222Y-63005500D01*
X100562951Y-62971015D01*
X100772606Y-62902895D01*
X100969022Y-62802815D01*
X101147365Y-62673242D01*
X101303242Y-62517365D01*
X101432815Y-62339022D01*
X101532895Y-62142606D01*
X101601015Y-61932951D01*
X101635500Y-61715222D01*
X101635500Y-61494778D01*
X101601015Y-61277049D01*
X101565854Y-61168832D01*
X101563859Y-61098990D01*
X101599940Y-61039158D01*
X101662641Y-61008330D01*
X101732055Y-61016295D01*
X101771466Y-61042833D01*
X103813181Y-63084548D01*
X103846666Y-63145871D01*
X103849500Y-63172229D01*
X103849500Y-67658673D01*
X103829815Y-67725712D01*
X103777011Y-67771467D01*
X103707853Y-67781411D01*
X103669205Y-67769158D01*
X103537606Y-67702104D01*
X103537603Y-67702103D01*
X103327952Y-67633985D01*
X103219086Y-67616742D01*
X103110222Y-67599500D01*
X102889778Y-67599500D01*
X102817201Y-67610995D01*
X102672047Y-67633985D01*
X102462396Y-67702103D01*
X102462393Y-67702104D01*
X102265974Y-67802187D01*
X102087641Y-67931752D01*
X102087636Y-67931756D01*
X102037463Y-67981929D01*
X101976140Y-68015413D01*
X101906448Y-68010428D01*
X101850515Y-67968557D01*
X101833601Y-67937580D01*
X101803797Y-67857671D01*
X101803793Y-67857664D01*
X101717547Y-67742455D01*
X101717544Y-67742452D01*
X101602335Y-67656206D01*
X101602328Y-67656202D01*
X101467482Y-67605908D01*
X101467483Y-67605908D01*
X101407883Y-67599501D01*
X101407881Y-67599500D01*
X101407873Y-67599500D01*
X101407865Y-67599500D01*
X100172230Y-67599500D01*
X100105191Y-67579815D01*
X100084549Y-67563181D01*
X99613421Y-67092052D01*
X99613414Y-67092046D01*
X99539729Y-67042812D01*
X99539729Y-67042813D01*
X99490491Y-67009913D01*
X99353917Y-66953343D01*
X99353907Y-66953340D01*
X99208920Y-66924500D01*
X99208918Y-66924500D01*
X95251082Y-66924500D01*
X95251080Y-66924500D01*
X95106092Y-66953340D01*
X95106086Y-66953342D01*
X94969508Y-67009914D01*
X94969496Y-67009921D01*
X94920270Y-67042811D01*
X94920271Y-67042812D01*
X94846581Y-67092049D01*
X94542275Y-67396355D01*
X94480952Y-67429840D01*
X94411260Y-67424856D01*
X94366913Y-67396355D01*
X90362610Y-63392052D01*
X90362603Y-63392046D01*
X90288918Y-63342812D01*
X90288918Y-63342813D01*
X90239680Y-63309913D01*
X90103106Y-63253343D01*
X90103096Y-63253340D01*
X89958109Y-63224500D01*
X89958107Y-63224500D01*
X72951082Y-63224500D01*
X72951080Y-63224500D01*
X72806092Y-63253340D01*
X72806082Y-63253343D01*
X72669511Y-63309912D01*
X72669498Y-63309919D01*
X72546584Y-63392048D01*
X72546580Y-63392051D01*
X71350451Y-64588181D01*
X71289128Y-64621666D01*
X71262770Y-64624500D01*
X70737230Y-64624500D01*
X70670191Y-64604815D01*
X70649549Y-64588181D01*
X70153421Y-64092052D01*
X70153414Y-64092046D01*
X70079729Y-64042812D01*
X70079729Y-64042813D01*
X70030491Y-64009913D01*
X69893917Y-63953343D01*
X69893907Y-63953340D01*
X69748920Y-63924500D01*
X69748918Y-63924500D01*
X65751082Y-63924500D01*
X65751080Y-63924500D01*
X65606092Y-63953340D01*
X65606086Y-63953342D01*
X65469508Y-64009914D01*
X65469496Y-64009921D01*
X65420270Y-64042811D01*
X65420271Y-64042812D01*
X65346581Y-64092049D01*
X64852508Y-64586122D01*
X64791185Y-64619607D01*
X64745429Y-64620914D01*
X64610227Y-64599500D01*
X64610222Y-64599500D01*
X64389778Y-64599500D01*
X64317201Y-64610995D01*
X64172047Y-64633985D01*
X63962396Y-64702103D01*
X63962393Y-64702104D01*
X63765974Y-64802187D01*
X63587641Y-64931752D01*
X63587636Y-64931756D01*
X63537463Y-64981929D01*
X63476140Y-65015413D01*
X63406448Y-65010428D01*
X63350515Y-64968557D01*
X63333601Y-64937580D01*
X63303797Y-64857671D01*
X63303793Y-64857664D01*
X63217547Y-64742455D01*
X63217544Y-64742452D01*
X63102335Y-64656206D01*
X63102328Y-64656202D01*
X62967482Y-64605908D01*
X62967483Y-64605908D01*
X62907883Y-64599501D01*
X62907881Y-64599500D01*
X62907873Y-64599500D01*
X62907864Y-64599500D01*
X61012129Y-64599500D01*
X61012123Y-64599501D01*
X60952516Y-64605908D01*
X60817671Y-64656202D01*
X60817664Y-64656206D01*
X60702455Y-64742452D01*
X60702452Y-64742455D01*
X60616206Y-64857664D01*
X60616202Y-64857671D01*
X60565908Y-64992517D01*
X60559501Y-65052116D01*
X60559500Y-65052135D01*
X60559500Y-65125500D01*
X60539815Y-65192539D01*
X60487011Y-65238294D01*
X60435500Y-65249500D01*
X48686080Y-65249500D01*
X48541092Y-65278340D01*
X48541082Y-65278343D01*
X48404511Y-65334912D01*
X48404498Y-65334919D01*
X48281584Y-65417048D01*
X48281580Y-65417051D01*
X47372181Y-66326451D01*
X47310858Y-66359936D01*
X47241166Y-66354952D01*
X47185233Y-66313080D01*
X47160816Y-66247616D01*
X47160500Y-66238770D01*
X47160500Y-59089729D01*
X47180185Y-59022690D01*
X47196819Y-59002048D01*
X51899548Y-54299319D01*
X51960871Y-54265834D01*
X51987229Y-54263000D01*
X53752929Y-54263000D01*
X53752930Y-54263000D01*
X54005639Y-54222974D01*
X54248975Y-54143910D01*
X54476947Y-54027752D01*
X54683942Y-53877362D01*
X54864862Y-53696442D01*
X55015252Y-53489447D01*
X55131410Y-53261475D01*
X55210474Y-53018139D01*
X55250500Y-52765430D01*
X55250500Y-52509570D01*
X55210474Y-52256861D01*
X55155976Y-52089131D01*
X55131411Y-52013527D01*
X55131410Y-52013524D01*
X55091185Y-51934580D01*
X55015252Y-51785553D01*
X54996038Y-51759107D01*
X54864867Y-51578564D01*
X54864863Y-51578559D01*
X54683940Y-51397636D01*
X54683935Y-51397632D01*
X54476950Y-51247250D01*
X54476949Y-51247249D01*
X54476947Y-51247248D01*
X54339100Y-51177011D01*
X54248975Y-51131089D01*
X54248972Y-51131088D01*
X54005640Y-51052026D01*
X53879284Y-51032013D01*
X53752930Y-51012000D01*
X51247070Y-51012000D01*
X51162833Y-51025342D01*
X50994359Y-51052026D01*
X50751027Y-51131088D01*
X50751024Y-51131089D01*
X50523049Y-51247250D01*
X50316064Y-51397632D01*
X50316059Y-51397636D01*
X50135136Y-51578559D01*
X50135132Y-51578564D01*
X49984750Y-51785549D01*
X49868589Y-52013524D01*
X49868588Y-52013527D01*
X49789526Y-52256859D01*
X49749500Y-52509570D01*
X49749500Y-52765429D01*
X49789526Y-53018140D01*
X49868588Y-53261472D01*
X49868589Y-53261475D01*
X49945194Y-53411818D01*
X49963320Y-53447393D01*
X49984750Y-53489450D01*
X50135132Y-53696435D01*
X50135136Y-53696440D01*
X50169733Y-53731037D01*
X50203218Y-53792360D01*
X50198234Y-53862052D01*
X50169733Y-53906399D01*
X45827050Y-58249081D01*
X45827048Y-58249084D01*
X45814513Y-58267845D01*
X45744916Y-58372005D01*
X45735170Y-58395532D01*
X45729794Y-58404177D01*
X45711015Y-58420940D01*
X45695219Y-58440543D01*
X45685394Y-58443812D01*
X45677672Y-58450707D01*
X45652810Y-58454657D01*
X45628924Y-58462607D01*
X45618892Y-58460046D01*
X45608668Y-58461671D01*
X45585617Y-58451553D01*
X45561225Y-58445327D01*
X45554170Y-58437749D01*
X45544690Y-58433588D01*
X45530768Y-58412613D01*
X45513615Y-58394189D01*
X45510892Y-58382668D01*
X45506052Y-58375375D01*
X45505844Y-58361302D01*
X45500500Y-58338686D01*
X45500500Y-43624500D01*
X45520185Y-43557461D01*
X45572989Y-43511706D01*
X45624500Y-43500500D01*
X105375500Y-43500500D01*
X105442539Y-43520185D01*
G37*
%TD.AperFunction*%
%TA.AperFunction,NonConductor*%
G36*
X52039440Y-66770185D02*
G01*
X52085195Y-66822989D01*
X52095139Y-66892147D01*
X52066114Y-66955703D01*
X52019854Y-66989061D01*
X51969508Y-67009914D01*
X51969496Y-67009921D01*
X51920270Y-67042811D01*
X51920271Y-67042812D01*
X51846581Y-67092049D01*
X51352508Y-67586122D01*
X51291185Y-67619607D01*
X51245429Y-67620914D01*
X51110227Y-67599500D01*
X51110222Y-67599500D01*
X50889778Y-67599500D01*
X50817201Y-67610995D01*
X50672047Y-67633985D01*
X50462396Y-67702103D01*
X50462393Y-67702104D01*
X50265974Y-67802187D01*
X50087641Y-67931752D01*
X50087636Y-67931756D01*
X50037463Y-67981929D01*
X49976140Y-68015413D01*
X49906448Y-68010428D01*
X49850515Y-67968557D01*
X49833601Y-67937580D01*
X49803797Y-67857671D01*
X49803793Y-67857664D01*
X49717547Y-67742455D01*
X49717544Y-67742452D01*
X49602335Y-67656206D01*
X49602328Y-67656202D01*
X49467482Y-67605908D01*
X49467483Y-67605908D01*
X49407883Y-67599501D01*
X49407881Y-67599500D01*
X49407873Y-67599500D01*
X49407865Y-67599500D01*
X48521229Y-67599500D01*
X48454190Y-67579815D01*
X48408435Y-67527011D01*
X48398491Y-67457853D01*
X48427516Y-67394297D01*
X48433548Y-67387819D01*
X49034548Y-66786819D01*
X49095871Y-66753334D01*
X49122229Y-66750500D01*
X51972401Y-66750500D01*
X52039440Y-66770185D01*
G37*
%TD.AperFunction*%
%TA.AperFunction,NonConductor*%
G36*
X79841739Y-64727725D02*
G01*
X79849534Y-64726457D01*
X79874787Y-64737429D01*
X79901200Y-64745185D01*
X79906370Y-64751151D01*
X79913616Y-64754300D01*
X79928930Y-64777187D01*
X79946955Y-64797989D01*
X79948078Y-64805804D01*
X79952471Y-64812369D01*
X79952980Y-64839894D01*
X79956899Y-64867147D01*
X79953650Y-64876108D01*
X79953764Y-64882227D01*
X79939700Y-64914594D01*
X79877515Y-65015413D01*
X79852686Y-65055666D01*
X79797501Y-65222203D01*
X79797500Y-65222204D01*
X79787000Y-65324984D01*
X79787000Y-66100270D01*
X79767315Y-66167309D01*
X79750681Y-66187951D01*
X77725451Y-68213181D01*
X77664128Y-68246666D01*
X77637770Y-68249500D01*
X76959029Y-68249500D01*
X76891990Y-68229815D01*
X76846235Y-68177011D01*
X76836291Y-68107853D01*
X76865316Y-68044297D01*
X76878493Y-68031214D01*
X76879789Y-68030106D01*
X76879788Y-68030106D01*
X76879792Y-68030104D01*
X77030104Y-67879792D01*
X77030106Y-67879788D01*
X77030109Y-67879786D01*
X77155048Y-67707820D01*
X77155047Y-67707820D01*
X77155051Y-67707816D01*
X77251557Y-67518412D01*
X77317246Y-67316243D01*
X77350500Y-67106287D01*
X77350500Y-66893713D01*
X77317246Y-66683757D01*
X77251557Y-66481588D01*
X77155051Y-66292184D01*
X77155049Y-66292181D01*
X77155048Y-66292179D01*
X77030109Y-66120213D01*
X76879786Y-65969890D01*
X76707820Y-65844951D01*
X76518414Y-65748444D01*
X76518413Y-65748443D01*
X76518412Y-65748443D01*
X76316243Y-65682754D01*
X76316241Y-65682753D01*
X76316240Y-65682753D01*
X76154957Y-65657208D01*
X76106287Y-65649500D01*
X75893713Y-65649500D01*
X75845042Y-65657208D01*
X75683760Y-65682753D01*
X75481585Y-65748444D01*
X75292179Y-65844951D01*
X75120213Y-65969890D01*
X74969890Y-66120213D01*
X74844951Y-66292179D01*
X74748444Y-66481585D01*
X74682753Y-66683760D01*
X74652543Y-66874500D01*
X74649500Y-66893713D01*
X74649500Y-67106287D01*
X74659534Y-67169644D01*
X74681735Y-67309814D01*
X74682754Y-67316243D01*
X74721931Y-67436818D01*
X74748444Y-67518414D01*
X74844951Y-67707820D01*
X74969890Y-67879786D01*
X75120210Y-68030106D01*
X75121507Y-68031214D01*
X75121862Y-68031758D01*
X75123653Y-68033549D01*
X75123276Y-68033925D01*
X75159698Y-68089723D01*
X75160193Y-68159591D01*
X75122836Y-68218635D01*
X75059488Y-68248110D01*
X75040971Y-68249500D01*
X67086970Y-68249500D01*
X67053847Y-68239773D01*
X67020639Y-68230267D01*
X67020350Y-68229938D01*
X67019931Y-68229815D01*
X66997387Y-68203798D01*
X66974527Y-68177775D01*
X66974461Y-68177340D01*
X66974176Y-68177011D01*
X66969271Y-68142903D01*
X66964115Y-68108685D01*
X66964294Y-68108285D01*
X66964232Y-68107853D01*
X66978573Y-68076449D01*
X66992709Y-68044934D01*
X66993115Y-68044607D01*
X66993257Y-68044297D01*
X67019225Y-68021641D01*
X67027158Y-68016466D01*
X67030495Y-68015084D01*
X67079729Y-67982186D01*
X67153416Y-67932952D01*
X67674549Y-67411819D01*
X67735872Y-67378334D01*
X67762230Y-67375500D01*
X68537503Y-67375500D01*
X68537508Y-67375500D01*
X68640297Y-67364999D01*
X68806834Y-67309814D01*
X68956155Y-67217711D01*
X69080211Y-67093655D01*
X69172314Y-66944334D01*
X69227499Y-66777797D01*
X69238000Y-66675008D01*
X69238000Y-65598730D01*
X69257685Y-65531691D01*
X69310489Y-65485936D01*
X69379647Y-65475992D01*
X69443203Y-65505017D01*
X69449681Y-65511049D01*
X69750681Y-65812049D01*
X69784166Y-65873372D01*
X69787000Y-65899730D01*
X69787000Y-66675015D01*
X69797500Y-66777795D01*
X69797501Y-66777796D01*
X69852686Y-66944335D01*
X69852687Y-66944337D01*
X69944786Y-67093651D01*
X69944789Y-67093655D01*
X70068844Y-67217710D01*
X70068848Y-67217713D01*
X70218162Y-67309812D01*
X70218164Y-67309813D01*
X70218166Y-67309814D01*
X70384703Y-67364999D01*
X70487492Y-67375500D01*
X70487497Y-67375500D01*
X71512503Y-67375500D01*
X71512508Y-67375500D01*
X71615297Y-67364999D01*
X71781834Y-67309814D01*
X71931155Y-67217711D01*
X72055211Y-67093655D01*
X72147314Y-66944334D01*
X72202499Y-66777797D01*
X72213000Y-66675008D01*
X72213000Y-65899729D01*
X72232685Y-65832690D01*
X72249319Y-65812048D01*
X73299548Y-64761819D01*
X73360871Y-64728334D01*
X73387229Y-64725500D01*
X79834161Y-64725500D01*
X79841739Y-64727725D01*
G37*
%TD.AperFunction*%
%TA.AperFunction,NonConductor*%
G36*
X60502540Y-66770185D02*
G01*
X60548295Y-66822989D01*
X60559501Y-66874500D01*
X60559501Y-66947876D01*
X60565908Y-67007483D01*
X60616202Y-67142328D01*
X60616206Y-67142335D01*
X60702452Y-67257544D01*
X60702455Y-67257547D01*
X60817664Y-67343793D01*
X60817671Y-67343797D01*
X60952517Y-67394091D01*
X60952516Y-67394091D01*
X60959444Y-67394835D01*
X61012127Y-67400500D01*
X62247769Y-67400499D01*
X62314808Y-67420184D01*
X62335450Y-67436818D01*
X62831580Y-67932948D01*
X62831584Y-67932951D01*
X62954506Y-68015085D01*
X62956481Y-68016141D01*
X62957321Y-68016966D01*
X62959570Y-68018469D01*
X62959285Y-68018895D01*
X63006326Y-68065102D01*
X63021788Y-68133239D01*
X62997958Y-68198920D01*
X62942401Y-68241289D01*
X62898030Y-68249500D01*
X59301085Y-68249500D01*
X59234046Y-68229815D01*
X59188291Y-68177011D01*
X59183379Y-68164504D01*
X59176221Y-68142903D01*
X59147314Y-68055666D01*
X59140694Y-68044934D01*
X59055213Y-67906348D01*
X59055210Y-67906344D01*
X58931155Y-67782289D01*
X58931151Y-67782286D01*
X58781837Y-67690187D01*
X58781835Y-67690186D01*
X58679277Y-67656202D01*
X58615297Y-67635001D01*
X58615295Y-67635000D01*
X58512515Y-67624500D01*
X58512508Y-67624500D01*
X57737230Y-67624500D01*
X57670191Y-67604815D01*
X57649549Y-67588181D01*
X57153421Y-67092052D01*
X57153414Y-67092046D01*
X57079729Y-67042812D01*
X57079729Y-67042813D01*
X57030495Y-67009916D01*
X57030493Y-67009915D01*
X56980147Y-66989061D01*
X56925744Y-66945220D01*
X56903679Y-66878926D01*
X56920958Y-66811227D01*
X56972095Y-66763616D01*
X57027600Y-66750500D01*
X60435501Y-66750500D01*
X60502540Y-66770185D01*
G37*
%TD.AperFunction*%
%TA.AperFunction,NonConductor*%
G36*
X82681334Y-65482548D02*
G01*
X82737267Y-65524420D01*
X82761684Y-65589884D01*
X82762000Y-65598730D01*
X82762000Y-66675015D01*
X82772500Y-66777795D01*
X82772501Y-66777796D01*
X82827686Y-66944335D01*
X82827687Y-66944337D01*
X82919786Y-67093651D01*
X82919789Y-67093655D01*
X83043844Y-67217710D01*
X83043848Y-67217713D01*
X83193162Y-67309812D01*
X83193164Y-67309813D01*
X83193166Y-67309814D01*
X83359703Y-67364999D01*
X83462492Y-67375500D01*
X84237771Y-67375500D01*
X84304810Y-67395185D01*
X84325452Y-67411819D01*
X84742049Y-67828416D01*
X84799717Y-67886084D01*
X84846585Y-67932952D01*
X84969498Y-68015080D01*
X84969511Y-68015087D01*
X85090259Y-68065102D01*
X85106087Y-68071658D01*
X85106091Y-68071658D01*
X85106092Y-68071659D01*
X85251079Y-68100500D01*
X85251082Y-68100500D01*
X88723920Y-68100500D01*
X88821462Y-68081096D01*
X88868913Y-68071658D01*
X89005495Y-68015084D01*
X89054729Y-67982186D01*
X89128416Y-67932952D01*
X89647492Y-67413874D01*
X89708813Y-67380391D01*
X89754565Y-67379084D01*
X89889778Y-67400500D01*
X89889780Y-67400500D01*
X90110220Y-67400500D01*
X90110222Y-67400500D01*
X90245431Y-67379084D01*
X90314722Y-67388038D01*
X90352508Y-67413876D01*
X91963181Y-69024548D01*
X91996666Y-69085871D01*
X91999500Y-69112229D01*
X91999500Y-69375500D01*
X91979815Y-69442539D01*
X91927011Y-69488294D01*
X91875500Y-69499500D01*
X78861230Y-69499500D01*
X78794191Y-69479815D01*
X78748436Y-69427011D01*
X78738492Y-69357853D01*
X78767517Y-69294297D01*
X78773549Y-69287819D01*
X80649548Y-67411819D01*
X80710871Y-67378334D01*
X80737229Y-67375500D01*
X81512503Y-67375500D01*
X81512508Y-67375500D01*
X81615297Y-67364999D01*
X81781834Y-67309814D01*
X81931155Y-67217711D01*
X82055211Y-67093655D01*
X82147314Y-66944334D01*
X82202499Y-66777797D01*
X82213000Y-66675008D01*
X82213000Y-65899729D01*
X82232685Y-65832691D01*
X82249319Y-65812049D01*
X82550319Y-65511049D01*
X82611642Y-65477564D01*
X82681334Y-65482548D01*
G37*
%TD.AperFunction*%
%TA.AperFunction,NonConductor*%
G36*
X56443203Y-68505017D02*
G01*
X56449681Y-68511049D01*
X56750681Y-68812049D01*
X56784166Y-68873372D01*
X56787000Y-68899730D01*
X56787000Y-69401270D01*
X56767315Y-69468309D01*
X56714511Y-69514064D01*
X56645353Y-69524008D01*
X56581797Y-69494983D01*
X56575319Y-69488951D01*
X56274319Y-69187951D01*
X56240834Y-69126628D01*
X56238000Y-69100270D01*
X56238000Y-68598730D01*
X56257685Y-68531691D01*
X56310489Y-68485936D01*
X56379647Y-68475992D01*
X56443203Y-68505017D01*
G37*
%TD.AperFunction*%
%TA.AperFunction,NonConductor*%
G36*
X98802210Y-68434144D02*
G01*
X98832197Y-68440668D01*
X98837212Y-68444422D01*
X98839809Y-68445185D01*
X98860450Y-68461818D01*
X99023181Y-68624549D01*
X99056666Y-68685872D01*
X99059500Y-68712230D01*
X99059500Y-69126632D01*
X99059501Y-69475500D01*
X99039817Y-69542539D01*
X98987013Y-69588294D01*
X98935501Y-69599500D01*
X98687229Y-69599500D01*
X98620190Y-69579815D01*
X98599548Y-69563181D01*
X98224319Y-69187951D01*
X98190834Y-69126628D01*
X98188000Y-69100270D01*
X98188000Y-68549500D01*
X98207685Y-68482461D01*
X98260489Y-68436706D01*
X98312000Y-68425500D01*
X98772770Y-68425500D01*
X98802210Y-68434144D01*
G37*
%TD.AperFunction*%
%TA.AperFunction,NonConductor*%
G36*
X53755039Y-68445185D02*
G01*
X53800794Y-68497989D01*
X53812000Y-68549500D01*
X53812000Y-69075270D01*
X53792315Y-69142309D01*
X53775681Y-69162951D01*
X53375451Y-69563181D01*
X53314128Y-69596666D01*
X53287770Y-69599500D01*
X52448456Y-69599500D01*
X52381417Y-69579815D01*
X52335662Y-69527011D01*
X52325718Y-69457853D01*
X52330525Y-69437183D01*
X52366014Y-69327954D01*
X52366013Y-69327954D01*
X52366015Y-69327951D01*
X52400500Y-69110222D01*
X52400500Y-68889778D01*
X52379084Y-68754566D01*
X52388038Y-68685276D01*
X52413871Y-68647495D01*
X52599550Y-68461816D01*
X52660873Y-68428334D01*
X52687230Y-68425500D01*
X53688000Y-68425500D01*
X53755039Y-68445185D01*
G37*
%TD.AperFunction*%
%TA.AperFunction,NonConductor*%
G36*
X59454137Y-69770185D02*
G01*
X59499892Y-69822989D01*
X59509836Y-69892147D01*
X59506873Y-69906593D01*
X59499500Y-69934108D01*
X59499500Y-72113770D01*
X59479815Y-72180809D01*
X59427011Y-72226564D01*
X59357853Y-72236508D01*
X59294297Y-72207483D01*
X59287819Y-72201451D01*
X57673549Y-70587181D01*
X57640064Y-70525858D01*
X57645048Y-70456166D01*
X57686920Y-70400233D01*
X57752384Y-70375816D01*
X57761230Y-70375500D01*
X58512503Y-70375500D01*
X58512508Y-70375500D01*
X58615297Y-70364999D01*
X58781834Y-70309814D01*
X58931155Y-70217711D01*
X59055211Y-70093655D01*
X59147314Y-69944334D01*
X59183379Y-69835494D01*
X59197249Y-69815461D01*
X59207372Y-69793297D01*
X59216782Y-69787249D01*
X59223151Y-69778051D01*
X59245652Y-69768695D01*
X59266150Y-69755523D01*
X59283250Y-69753064D01*
X59287667Y-69751228D01*
X59301085Y-69750500D01*
X59387098Y-69750500D01*
X59454137Y-69770185D01*
G37*
%TD.AperFunction*%
%TA.AperFunction,NonConductor*%
G36*
X47365703Y-76887516D02*
G01*
X47372181Y-76893548D01*
X48366451Y-77887819D01*
X48377063Y-77907255D01*
X48391564Y-77923989D01*
X48393480Y-77937320D01*
X48399936Y-77949142D01*
X48398356Y-77971228D01*
X48401508Y-77993147D01*
X48395912Y-78005398D01*
X48394952Y-78018834D01*
X48381681Y-78036560D01*
X48372483Y-78056703D01*
X48361151Y-78063985D01*
X48353080Y-78074767D01*
X48332334Y-78082504D01*
X48313705Y-78094477D01*
X48291786Y-78097628D01*
X48287616Y-78099184D01*
X48278770Y-78099500D01*
X48212230Y-78099500D01*
X48145191Y-78079815D01*
X48124549Y-78063181D01*
X47196819Y-77135451D01*
X47163334Y-77074128D01*
X47160500Y-77047770D01*
X47160500Y-76981229D01*
X47180185Y-76914190D01*
X47232989Y-76868435D01*
X47302147Y-76858491D01*
X47365703Y-76887516D01*
G37*
%TD.AperFunction*%
%TA.AperFunction,NonConductor*%
G36*
X55354809Y-70395185D02*
G01*
X55375451Y-70411819D01*
X58363181Y-73399549D01*
X58396666Y-73460872D01*
X58399500Y-73487230D01*
X58399500Y-78000500D01*
X58379815Y-78067539D01*
X58327011Y-78113294D01*
X58275500Y-78124500D01*
X57724730Y-78124500D01*
X57657691Y-78104815D01*
X57637049Y-78088181D01*
X57140921Y-77592052D01*
X57140914Y-77592046D01*
X57067229Y-77542812D01*
X57067229Y-77542813D01*
X57017991Y-77509913D01*
X56881417Y-77453343D01*
X56881407Y-77453340D01*
X56736420Y-77424500D01*
X56736418Y-77424500D01*
X52291082Y-77424500D01*
X52291080Y-77424500D01*
X52146092Y-77453340D01*
X52146086Y-77453342D01*
X52009508Y-77509914D01*
X52009496Y-77509921D01*
X51960270Y-77542811D01*
X51960271Y-77542812D01*
X51886581Y-77592049D01*
X51392508Y-78086122D01*
X51331185Y-78119607D01*
X51285429Y-78120914D01*
X51150227Y-78099500D01*
X51150222Y-78099500D01*
X50929778Y-78099500D01*
X50929773Y-78099500D01*
X50794568Y-78120914D01*
X50725274Y-78111959D01*
X50687489Y-78086122D01*
X47896819Y-75295451D01*
X47863334Y-75234128D01*
X47860500Y-75207770D01*
X47860500Y-70524499D01*
X47880185Y-70457460D01*
X47932989Y-70411705D01*
X47984500Y-70400499D01*
X48747769Y-70400499D01*
X48814808Y-70420184D01*
X48835450Y-70436818D01*
X49331580Y-70932948D01*
X49331584Y-70932951D01*
X49454498Y-71015080D01*
X49454511Y-71015087D01*
X49591082Y-71071656D01*
X49591087Y-71071658D01*
X49591091Y-71071658D01*
X49591092Y-71071659D01*
X49736079Y-71100500D01*
X49736082Y-71100500D01*
X53723920Y-71100500D01*
X53821462Y-71081096D01*
X53868913Y-71071658D01*
X54005495Y-71015084D01*
X54054729Y-70982186D01*
X54128416Y-70932952D01*
X54649549Y-70411819D01*
X54710872Y-70378334D01*
X54737230Y-70375500D01*
X55287770Y-70375500D01*
X55354809Y-70395185D01*
G37*
%TD.AperFunction*%
%TA.AperFunction,NonConductor*%
G36*
X53742539Y-78945185D02*
G01*
X53788294Y-78997989D01*
X53799500Y-79049500D01*
X53799500Y-79600270D01*
X53779815Y-79667309D01*
X53763181Y-79687951D01*
X53387951Y-80063181D01*
X53326628Y-80096666D01*
X53300270Y-80099500D01*
X52488456Y-80099500D01*
X52421417Y-80079815D01*
X52375662Y-80027011D01*
X52365718Y-79957853D01*
X52370525Y-79937183D01*
X52406014Y-79827954D01*
X52406013Y-79827954D01*
X52406015Y-79827951D01*
X52440500Y-79610222D01*
X52440500Y-79389778D01*
X52419084Y-79254566D01*
X52428038Y-79185276D01*
X52453871Y-79147495D01*
X52639550Y-78961816D01*
X52700873Y-78928334D01*
X52727230Y-78925500D01*
X53675500Y-78925500D01*
X53742539Y-78945185D01*
G37*
%TD.AperFunction*%
%TA.AperFunction,NonConductor*%
G36*
X95681334Y-68482548D02*
G01*
X95737267Y-68524420D01*
X95761684Y-68589884D01*
X95762000Y-68598730D01*
X95762000Y-69675015D01*
X95772500Y-69777795D01*
X95772501Y-69777797D01*
X95784982Y-69815461D01*
X95827686Y-69944335D01*
X95827687Y-69944337D01*
X95919786Y-70093651D01*
X95919789Y-70093655D01*
X96043844Y-70217710D01*
X96043848Y-70217713D01*
X96193162Y-70309812D01*
X96193164Y-70309813D01*
X96193166Y-70309814D01*
X96359703Y-70364999D01*
X96462492Y-70375500D01*
X97237771Y-70375500D01*
X97304810Y-70395185D01*
X97325452Y-70411819D01*
X97846580Y-70932948D01*
X97846584Y-70932951D01*
X97969498Y-71015080D01*
X97969511Y-71015087D01*
X98106082Y-71071656D01*
X98106087Y-71071658D01*
X98106091Y-71071658D01*
X98106092Y-71071659D01*
X98251079Y-71100500D01*
X98251082Y-71100500D01*
X101723920Y-71100500D01*
X101821462Y-71081096D01*
X101868913Y-71071658D01*
X102005495Y-71015084D01*
X102054729Y-70982186D01*
X102128416Y-70932952D01*
X102647492Y-70413874D01*
X102708813Y-70380391D01*
X102754565Y-70379084D01*
X102889778Y-70400500D01*
X102889780Y-70400500D01*
X103025500Y-70400500D01*
X103092539Y-70420185D01*
X103138294Y-70472989D01*
X103149500Y-70524500D01*
X103149500Y-78554793D01*
X103129815Y-78621832D01*
X103077011Y-78667587D01*
X103007853Y-78677531D01*
X102987183Y-78672724D01*
X102867953Y-78633985D01*
X102867954Y-78633985D01*
X102704654Y-78608121D01*
X102650222Y-78599500D01*
X102429778Y-78599500D01*
X102429773Y-78599500D01*
X102294569Y-78620914D01*
X102225275Y-78611959D01*
X102187490Y-78586122D01*
X101668421Y-78067052D01*
X101668414Y-78067046D01*
X101594729Y-78017812D01*
X101594729Y-78017813D01*
X101545491Y-77984913D01*
X101408917Y-77928343D01*
X101408907Y-77928340D01*
X101263920Y-77899500D01*
X101263918Y-77899500D01*
X98398917Y-77899500D01*
X98251082Y-77899500D01*
X98251080Y-77899500D01*
X98106092Y-77928340D01*
X98106082Y-77928343D01*
X97969511Y-77984912D01*
X97969498Y-77984919D01*
X97846584Y-78067048D01*
X97846580Y-78067051D01*
X97325452Y-78588181D01*
X97264129Y-78621666D01*
X97237771Y-78624500D01*
X96462484Y-78624500D01*
X96359704Y-78635000D01*
X96359703Y-78635001D01*
X96193164Y-78690186D01*
X96193162Y-78690187D01*
X96043848Y-78782286D01*
X96043844Y-78782289D01*
X95919789Y-78906344D01*
X95919786Y-78906348D01*
X95827687Y-79055662D01*
X95827686Y-79055664D01*
X95772501Y-79222203D01*
X95772500Y-79222204D01*
X95762000Y-79324984D01*
X95762000Y-80401270D01*
X95742315Y-80468309D01*
X95689511Y-80514064D01*
X95620353Y-80524008D01*
X95556797Y-80494983D01*
X95550319Y-80488951D01*
X95249319Y-80187951D01*
X95215834Y-80126628D01*
X95213000Y-80100270D01*
X95213000Y-79324997D01*
X95212999Y-79324984D01*
X95202499Y-79222204D01*
X95202499Y-79222203D01*
X95147314Y-79055666D01*
X95089427Y-78961818D01*
X95055213Y-78906348D01*
X95055210Y-78906344D01*
X94931155Y-78782289D01*
X94931151Y-78782286D01*
X94781837Y-78690187D01*
X94781835Y-78690186D01*
X94698565Y-78662593D01*
X94615297Y-78635001D01*
X94615295Y-78635000D01*
X94512515Y-78624500D01*
X94512508Y-78624500D01*
X93737230Y-78624500D01*
X93707789Y-78615855D01*
X93677803Y-78609332D01*
X93672787Y-78605577D01*
X93670191Y-78604815D01*
X93649549Y-78588181D01*
X93536819Y-78475451D01*
X93503334Y-78414128D01*
X93500500Y-78387770D01*
X93500500Y-70499500D01*
X93520185Y-70432461D01*
X93572989Y-70386706D01*
X93624500Y-70375500D01*
X94512503Y-70375500D01*
X94512508Y-70375500D01*
X94615297Y-70364999D01*
X94781834Y-70309814D01*
X94931155Y-70217711D01*
X95055211Y-70093655D01*
X95147314Y-69944334D01*
X95202499Y-69777797D01*
X95213000Y-69675008D01*
X95213000Y-68899730D01*
X95232685Y-68832691D01*
X95249319Y-68812049D01*
X95550319Y-68511049D01*
X95611642Y-68477564D01*
X95681334Y-68482548D01*
G37*
%TD.AperFunction*%
%TA.AperFunction,NonConductor*%
G36*
X98518834Y-79620047D02*
G01*
X98574767Y-79661919D01*
X98599184Y-79727383D01*
X98599500Y-79736229D01*
X98599500Y-80287769D01*
X98579815Y-80354808D01*
X98563185Y-80375445D01*
X98400449Y-80538182D01*
X98339128Y-80571666D01*
X98312770Y-80574500D01*
X98312000Y-80574500D01*
X98244961Y-80554815D01*
X98199206Y-80502011D01*
X98188000Y-80450500D01*
X98188000Y-79899729D01*
X98196644Y-79870288D01*
X98203168Y-79840302D01*
X98206922Y-79835286D01*
X98207685Y-79832690D01*
X98224319Y-79812048D01*
X98387819Y-79648548D01*
X98449142Y-79615063D01*
X98518834Y-79620047D01*
G37*
%TD.AperFunction*%
%TA.AperFunction,NonConductor*%
G36*
X103755398Y-92854086D02*
G01*
X103768834Y-92855047D01*
X103786560Y-92868317D01*
X103806703Y-92877516D01*
X103813985Y-92888847D01*
X103824767Y-92896919D01*
X103832504Y-92917664D01*
X103844477Y-92936294D01*
X103847628Y-92958212D01*
X103849184Y-92962383D01*
X103849500Y-92971229D01*
X103849500Y-93037769D01*
X103829815Y-93104808D01*
X103813181Y-93125450D01*
X103352508Y-93586122D01*
X103291185Y-93619607D01*
X103245429Y-93620914D01*
X103187987Y-93611816D01*
X103124852Y-93581887D01*
X103087921Y-93522575D01*
X103088919Y-93452713D01*
X103119702Y-93401664D01*
X103637819Y-92883548D01*
X103657255Y-92872935D01*
X103673989Y-92858435D01*
X103687320Y-92856518D01*
X103699142Y-92850063D01*
X103721228Y-92851642D01*
X103743147Y-92848491D01*
X103755398Y-92854086D01*
G37*
%TD.AperFunction*%
%TA.AperFunction,NonConductor*%
G36*
X56430703Y-79005017D02*
G01*
X56437181Y-79011049D01*
X56738181Y-79312049D01*
X56771666Y-79373372D01*
X56774500Y-79399730D01*
X56774500Y-80175015D01*
X56785000Y-80277795D01*
X56785001Y-80277797D01*
X56805325Y-80339131D01*
X56840186Y-80444335D01*
X56840187Y-80444337D01*
X56932286Y-80593651D01*
X56932289Y-80593655D01*
X57056344Y-80717710D01*
X57056348Y-80717713D01*
X57205662Y-80809812D01*
X57205664Y-80809813D01*
X57205666Y-80809814D01*
X57372203Y-80864999D01*
X57474992Y-80875500D01*
X58275500Y-80875500D01*
X58342539Y-80895185D01*
X58388294Y-80947989D01*
X58399500Y-80999500D01*
X58399500Y-85755444D01*
X58379815Y-85822483D01*
X58327011Y-85868238D01*
X58257853Y-85878182D01*
X58194297Y-85849157D01*
X58165016Y-85811740D01*
X58155050Y-85792182D01*
X58030109Y-85620213D01*
X57879786Y-85469890D01*
X57707820Y-85344951D01*
X57518414Y-85248444D01*
X57518413Y-85248443D01*
X57518412Y-85248443D01*
X57316243Y-85182754D01*
X57316241Y-85182753D01*
X57316240Y-85182753D01*
X57154957Y-85157208D01*
X57106287Y-85149500D01*
X56893713Y-85149500D01*
X56845042Y-85157208D01*
X56683760Y-85182753D01*
X56481585Y-85248444D01*
X56292179Y-85344951D01*
X56120213Y-85469890D01*
X55969890Y-85620213D01*
X55844951Y-85792179D01*
X55748444Y-85981585D01*
X55682753Y-86183760D01*
X55649500Y-86393713D01*
X55649500Y-86606286D01*
X55682753Y-86816239D01*
X55748444Y-87018414D01*
X55844951Y-87207820D01*
X55969890Y-87379786D01*
X56120213Y-87530109D01*
X56292179Y-87655048D01*
X56292181Y-87655049D01*
X56292184Y-87655051D01*
X56481588Y-87751557D01*
X56683757Y-87817246D01*
X56893713Y-87850500D01*
X56893714Y-87850500D01*
X57106286Y-87850500D01*
X57106287Y-87850500D01*
X57316243Y-87817246D01*
X57518412Y-87751557D01*
X57707816Y-87655051D01*
X57729789Y-87639086D01*
X57879786Y-87530109D01*
X57879788Y-87530106D01*
X57879792Y-87530104D01*
X58030104Y-87379792D01*
X58030106Y-87379788D01*
X58030109Y-87379786D01*
X58155050Y-87207817D01*
X58165015Y-87188261D01*
X58212989Y-87137464D01*
X58280810Y-87120669D01*
X58346945Y-87143206D01*
X58390397Y-87197921D01*
X58399500Y-87244555D01*
X58399500Y-95435270D01*
X58390855Y-95464710D01*
X58384332Y-95494697D01*
X58380577Y-95499712D01*
X58379815Y-95502309D01*
X58363181Y-95522951D01*
X58297951Y-95588181D01*
X58236628Y-95621666D01*
X58210270Y-95624500D01*
X57684730Y-95624500D01*
X57617691Y-95604815D01*
X57597049Y-95588181D01*
X56525921Y-94517052D01*
X56525914Y-94517046D01*
X56444218Y-94462459D01*
X56444119Y-94462394D01*
X56402995Y-94434916D01*
X56402994Y-94434915D01*
X56402992Y-94434914D01*
X56266417Y-94378343D01*
X56266407Y-94378340D01*
X56121420Y-94349500D01*
X56121418Y-94349500D01*
X51973917Y-94349500D01*
X51826082Y-94349500D01*
X51826080Y-94349500D01*
X51681092Y-94378340D01*
X51681082Y-94378343D01*
X51544511Y-94434912D01*
X51544498Y-94434919D01*
X51421587Y-94517046D01*
X51421582Y-94517050D01*
X51352508Y-94586123D01*
X51291184Y-94619608D01*
X51245430Y-94620914D01*
X51110227Y-94599500D01*
X51110222Y-94599500D01*
X50889778Y-94599500D01*
X50817201Y-94610995D01*
X50672047Y-94633985D01*
X50462396Y-94702103D01*
X50462393Y-94702104D01*
X50265974Y-94802187D01*
X50087641Y-94931752D01*
X50087636Y-94931756D01*
X50037463Y-94981929D01*
X49976140Y-95015413D01*
X49906448Y-95010428D01*
X49850515Y-94968557D01*
X49833601Y-94937580D01*
X49803797Y-94857671D01*
X49803793Y-94857664D01*
X49717547Y-94742455D01*
X49717544Y-94742452D01*
X49602335Y-94656206D01*
X49602328Y-94656202D01*
X49467482Y-94605908D01*
X49467483Y-94605908D01*
X49407883Y-94599501D01*
X49407881Y-94599500D01*
X49407873Y-94599500D01*
X49407865Y-94599500D01*
X49374500Y-94599500D01*
X49307461Y-94579815D01*
X49261706Y-94527011D01*
X49250500Y-94475500D01*
X49250500Y-81584033D01*
X49270185Y-81516994D01*
X49322989Y-81471239D01*
X49392147Y-81461295D01*
X49443391Y-81480931D01*
X49494498Y-81515080D01*
X49494511Y-81515087D01*
X49631082Y-81571656D01*
X49631087Y-81571658D01*
X49631091Y-81571658D01*
X49631092Y-81571659D01*
X49776079Y-81600500D01*
X49776082Y-81600500D01*
X53736420Y-81600500D01*
X53833962Y-81581096D01*
X53881413Y-81571658D01*
X54017995Y-81515084D01*
X54067229Y-81482186D01*
X54069108Y-81480931D01*
X54098496Y-81461295D01*
X54140916Y-81432952D01*
X54662049Y-80911819D01*
X54723372Y-80878334D01*
X54749730Y-80875500D01*
X55525003Y-80875500D01*
X55525008Y-80875500D01*
X55627797Y-80864999D01*
X55794334Y-80809814D01*
X55943655Y-80717711D01*
X56067711Y-80593655D01*
X56159814Y-80444334D01*
X56214999Y-80277797D01*
X56225500Y-80175008D01*
X56225500Y-79098730D01*
X56245185Y-79031691D01*
X56297989Y-78985936D01*
X56367147Y-78975992D01*
X56430703Y-79005017D01*
G37*
%TD.AperFunction*%
%TA.AperFunction,NonConductor*%
G36*
X98944186Y-95753050D02*
G01*
X98953148Y-95751762D01*
X98977188Y-95762740D01*
X99002540Y-95770185D01*
X99008467Y-95777025D01*
X99016704Y-95780787D01*
X99030993Y-95803021D01*
X99048295Y-95822989D01*
X99050582Y-95833503D01*
X99054478Y-95839565D01*
X99059501Y-95874500D01*
X99059501Y-95947876D01*
X99065908Y-96007483D01*
X99093764Y-96082167D01*
X99098748Y-96151859D01*
X99065263Y-96213182D01*
X99003939Y-96246666D01*
X98977582Y-96249500D01*
X98276085Y-96249500D01*
X98209046Y-96229815D01*
X98163291Y-96177011D01*
X98158379Y-96164504D01*
X98140391Y-96110221D01*
X98122314Y-96055666D01*
X98122312Y-96055662D01*
X98050722Y-95939597D01*
X98032281Y-95872205D01*
X98053203Y-95805541D01*
X98106845Y-95760771D01*
X98156260Y-95750500D01*
X98935501Y-95750500D01*
X98944186Y-95753050D01*
G37*
%TD.AperFunction*%
%TA.AperFunction,NonConductor*%
G36*
X53796598Y-95870185D02*
G01*
X53842353Y-95922989D01*
X53852297Y-95992147D01*
X53835098Y-96039597D01*
X53825185Y-96055667D01*
X53770001Y-96222203D01*
X53770000Y-96222204D01*
X53759500Y-96324984D01*
X53759500Y-96475500D01*
X53739815Y-96542539D01*
X53687011Y-96588294D01*
X53635500Y-96599500D01*
X52448456Y-96599500D01*
X52381417Y-96579815D01*
X52335662Y-96527011D01*
X52325718Y-96457853D01*
X52330525Y-96437183D01*
X52366014Y-96327954D01*
X52366013Y-96327954D01*
X52366015Y-96327951D01*
X52400500Y-96110222D01*
X52400500Y-95974500D01*
X52420185Y-95907461D01*
X52472989Y-95861706D01*
X52524500Y-95850500D01*
X53729559Y-95850500D01*
X53796598Y-95870185D01*
G37*
%TD.AperFunction*%
%TA.AperFunction,NonConductor*%
G36*
X92705703Y-79767517D02*
G01*
X92712181Y-79773549D01*
X92750681Y-79812049D01*
X92784166Y-79873372D01*
X92787000Y-79899730D01*
X92787000Y-80675015D01*
X92797500Y-80777795D01*
X92797501Y-80777797D01*
X92809592Y-80814286D01*
X92852686Y-80944335D01*
X92852687Y-80944337D01*
X92944786Y-81093651D01*
X92944789Y-81093655D01*
X93068844Y-81217710D01*
X93068848Y-81217713D01*
X93218162Y-81309812D01*
X93218164Y-81309813D01*
X93218166Y-81309814D01*
X93384703Y-81364999D01*
X93487492Y-81375500D01*
X94262770Y-81375500D01*
X94329809Y-81395185D01*
X94350451Y-81411819D01*
X94846586Y-81907954D01*
X94876058Y-81927645D01*
X94920270Y-81957186D01*
X94969505Y-81990084D01*
X94969506Y-81990084D01*
X94969507Y-81990085D01*
X94969509Y-81990086D01*
X95106082Y-82046656D01*
X95106087Y-82046658D01*
X95106091Y-82046658D01*
X95106092Y-82046659D01*
X95251079Y-82075500D01*
X95251082Y-82075500D01*
X98748920Y-82075500D01*
X98846462Y-82056096D01*
X98893913Y-82046658D01*
X99030495Y-81990084D01*
X99079729Y-81957186D01*
X99079734Y-81957183D01*
X99104071Y-81940921D01*
X99153416Y-81907952D01*
X99624549Y-81436817D01*
X99685872Y-81403333D01*
X99712230Y-81400499D01*
X100947871Y-81400499D01*
X100947872Y-81400499D01*
X101007483Y-81394091D01*
X101142331Y-81343796D01*
X101257546Y-81257546D01*
X101343796Y-81142331D01*
X101361951Y-81093655D01*
X101373601Y-81062420D01*
X101415471Y-81006486D01*
X101480936Y-80982068D01*
X101549209Y-80996919D01*
X101577464Y-81018071D01*
X101627636Y-81068243D01*
X101627641Y-81068247D01*
X101662613Y-81093655D01*
X101805978Y-81197815D01*
X101934375Y-81263237D01*
X102002393Y-81297895D01*
X102002396Y-81297896D01*
X102092818Y-81327275D01*
X102212049Y-81366015D01*
X102429778Y-81400500D01*
X102429779Y-81400500D01*
X102650221Y-81400500D01*
X102650222Y-81400500D01*
X102867951Y-81366015D01*
X102987182Y-81327274D01*
X103057023Y-81325280D01*
X103116856Y-81361360D01*
X103147684Y-81424061D01*
X103149500Y-81445206D01*
X103149500Y-91197769D01*
X103129815Y-91264808D01*
X103113181Y-91285450D01*
X100835449Y-93563181D01*
X100774126Y-93596666D01*
X100747768Y-93599500D01*
X99512129Y-93599500D01*
X99512123Y-93599501D01*
X99452516Y-93605908D01*
X99317671Y-93656202D01*
X99317664Y-93656206D01*
X99202455Y-93742452D01*
X99202452Y-93742455D01*
X99116206Y-93857664D01*
X99116202Y-93857671D01*
X99065908Y-93992517D01*
X99059501Y-94052116D01*
X99059500Y-94052135D01*
X99059500Y-94125500D01*
X99039815Y-94192539D01*
X98987011Y-94238294D01*
X98935500Y-94249500D01*
X95926080Y-94249500D01*
X95781092Y-94278340D01*
X95781082Y-94278343D01*
X95644511Y-94334912D01*
X95644498Y-94334919D01*
X95555943Y-94394091D01*
X95521581Y-94417050D01*
X95521578Y-94417053D01*
X94350451Y-95588181D01*
X94289128Y-95621666D01*
X94262770Y-95624500D01*
X93487484Y-95624500D01*
X93384704Y-95635000D01*
X93384703Y-95635001D01*
X93218164Y-95690186D01*
X93218162Y-95690187D01*
X93068848Y-95782286D01*
X93068844Y-95782289D01*
X92944789Y-95906344D01*
X92944786Y-95906348D01*
X92852687Y-96055662D01*
X92852686Y-96055664D01*
X92797501Y-96222203D01*
X92797500Y-96222204D01*
X92787000Y-96324984D01*
X92787000Y-97675015D01*
X92797500Y-97777795D01*
X92797501Y-97777796D01*
X92852686Y-97944335D01*
X92852687Y-97944337D01*
X92944786Y-98093651D01*
X92944789Y-98093655D01*
X93068844Y-98217710D01*
X93068848Y-98217713D01*
X93218162Y-98309812D01*
X93218164Y-98309813D01*
X93218166Y-98309814D01*
X93384703Y-98364999D01*
X93487492Y-98375500D01*
X93487497Y-98375500D01*
X94512503Y-98375500D01*
X94512508Y-98375500D01*
X94615297Y-98364999D01*
X94781834Y-98309814D01*
X94931155Y-98217711D01*
X95055211Y-98093655D01*
X95147314Y-97944334D01*
X95202499Y-97777797D01*
X95213000Y-97675008D01*
X95213000Y-96899728D01*
X95232685Y-96832689D01*
X95249315Y-96812051D01*
X95550319Y-96511046D01*
X95611642Y-96477562D01*
X95681334Y-96482546D01*
X95737267Y-96524418D01*
X95761684Y-96589882D01*
X95762000Y-96598728D01*
X95762000Y-97675015D01*
X95772500Y-97777795D01*
X95772501Y-97777796D01*
X95827686Y-97944335D01*
X95827687Y-97944337D01*
X95919786Y-98093651D01*
X95919789Y-98093655D01*
X96043844Y-98217710D01*
X96043848Y-98217713D01*
X96193162Y-98309812D01*
X96193164Y-98309813D01*
X96193166Y-98309814D01*
X96359703Y-98364999D01*
X96462492Y-98375500D01*
X96462497Y-98375500D01*
X97487503Y-98375500D01*
X97487508Y-98375500D01*
X97590297Y-98364999D01*
X97756834Y-98309814D01*
X97906155Y-98217711D01*
X98030211Y-98093655D01*
X98122314Y-97944334D01*
X98158379Y-97835494D01*
X98198151Y-97778051D01*
X98262667Y-97751228D01*
X98276085Y-97750500D01*
X101073920Y-97750500D01*
X101171462Y-97731096D01*
X101218913Y-97721658D01*
X101355495Y-97665084D01*
X101404729Y-97632186D01*
X101478416Y-97582952D01*
X102647492Y-96413874D01*
X102708813Y-96380391D01*
X102754565Y-96379084D01*
X102889778Y-96400500D01*
X102889780Y-96400500D01*
X103110221Y-96400500D01*
X103110222Y-96400500D01*
X103327951Y-96366015D01*
X103537606Y-96297895D01*
X103734022Y-96197815D01*
X103912365Y-96068242D01*
X104068242Y-95912365D01*
X104197815Y-95734022D01*
X104297895Y-95537606D01*
X104366015Y-95327951D01*
X104400500Y-95110222D01*
X104400500Y-94889778D01*
X104379084Y-94754566D01*
X104388038Y-94685276D01*
X104413873Y-94647493D01*
X105182952Y-93878416D01*
X105233887Y-93802185D01*
X105265084Y-93755495D01*
X105266455Y-93752183D01*
X105271608Y-93744276D01*
X105294235Y-93724916D01*
X105315102Y-93703673D01*
X105320494Y-93702449D01*
X105324698Y-93698853D01*
X105354205Y-93694799D01*
X105383239Y-93688211D01*
X105388436Y-93690096D01*
X105393917Y-93689344D01*
X105420927Y-93701884D01*
X105448920Y-93712041D01*
X105452274Y-93716439D01*
X105457290Y-93718768D01*
X105473232Y-93743920D01*
X105491289Y-93767598D01*
X105492546Y-93774393D01*
X105494694Y-93777782D01*
X105494644Y-93785728D01*
X105499500Y-93811969D01*
X105499500Y-99375500D01*
X105479815Y-99442539D01*
X105427011Y-99488294D01*
X105375500Y-99499500D01*
X92624500Y-99499500D01*
X92557461Y-99479815D01*
X92511706Y-99427011D01*
X92500500Y-99375500D01*
X92500500Y-86393713D01*
X93649500Y-86393713D01*
X93649500Y-86606286D01*
X93682753Y-86816239D01*
X93748444Y-87018414D01*
X93844951Y-87207820D01*
X93969890Y-87379786D01*
X94120213Y-87530109D01*
X94292179Y-87655048D01*
X94292181Y-87655049D01*
X94292184Y-87655051D01*
X94481588Y-87751557D01*
X94683757Y-87817246D01*
X94893713Y-87850500D01*
X94893714Y-87850500D01*
X95106286Y-87850500D01*
X95106287Y-87850500D01*
X95316243Y-87817246D01*
X95518412Y-87751557D01*
X95707816Y-87655051D01*
X95729789Y-87639086D01*
X95879786Y-87530109D01*
X95879788Y-87530106D01*
X95879792Y-87530104D01*
X96030104Y-87379792D01*
X96030106Y-87379788D01*
X96030109Y-87379786D01*
X96155048Y-87207820D01*
X96155050Y-87207817D01*
X96155051Y-87207816D01*
X96251557Y-87018412D01*
X96317246Y-86816243D01*
X96350500Y-86606287D01*
X96350500Y-86393713D01*
X96317246Y-86183757D01*
X96251557Y-85981588D01*
X96155051Y-85792184D01*
X96155049Y-85792181D01*
X96155048Y-85792179D01*
X96030109Y-85620213D01*
X95879786Y-85469890D01*
X95707820Y-85344951D01*
X95518414Y-85248444D01*
X95518413Y-85248443D01*
X95518412Y-85248443D01*
X95316243Y-85182754D01*
X95316241Y-85182753D01*
X95316240Y-85182753D01*
X95154957Y-85157208D01*
X95106287Y-85149500D01*
X94893713Y-85149500D01*
X94845042Y-85157208D01*
X94683760Y-85182753D01*
X94481585Y-85248444D01*
X94292179Y-85344951D01*
X94120213Y-85469890D01*
X93969890Y-85620213D01*
X93844951Y-85792179D01*
X93748444Y-85981585D01*
X93682753Y-86183760D01*
X93649500Y-86393713D01*
X92500500Y-86393713D01*
X92500500Y-79861230D01*
X92520185Y-79794191D01*
X92572989Y-79748436D01*
X92642147Y-79738492D01*
X92705703Y-79767517D01*
G37*
%TD.AperFunction*%
%TA.AperFunction,NonConductor*%
G36*
X45644289Y-77677053D02*
G01*
X45646631Y-77676804D01*
X45675907Y-77691492D01*
X45705703Y-77705100D01*
X45707219Y-77707202D01*
X45709081Y-77708137D01*
X45731201Y-77735639D01*
X45735689Y-77743220D01*
X45744916Y-77765495D01*
X45777813Y-77814729D01*
X45779692Y-77817541D01*
X45779702Y-77817558D01*
X45827046Y-77888414D01*
X45827052Y-77888421D01*
X47063181Y-79124548D01*
X47096666Y-79185871D01*
X47099500Y-79212229D01*
X47099500Y-80447870D01*
X47099501Y-80447876D01*
X47105908Y-80507483D01*
X47156202Y-80642328D01*
X47156206Y-80642335D01*
X47242452Y-80757544D01*
X47242455Y-80757547D01*
X47357664Y-80843793D01*
X47357671Y-80843797D01*
X47402618Y-80860561D01*
X47492517Y-80894091D01*
X47552127Y-80900500D01*
X47625500Y-80900499D01*
X47692538Y-80920183D01*
X47738294Y-80972986D01*
X47749500Y-81024499D01*
X47749500Y-94475500D01*
X47729815Y-94542539D01*
X47677011Y-94588294D01*
X47625501Y-94599500D01*
X47512130Y-94599500D01*
X47512123Y-94599501D01*
X47452516Y-94605908D01*
X47317671Y-94656202D01*
X47317664Y-94656206D01*
X47202455Y-94742452D01*
X47202452Y-94742455D01*
X47116206Y-94857664D01*
X47116202Y-94857671D01*
X47065908Y-94992517D01*
X47059501Y-95052116D01*
X47059500Y-95052135D01*
X47059500Y-96947870D01*
X47059501Y-96947876D01*
X47065908Y-97007483D01*
X47116202Y-97142328D01*
X47116206Y-97142335D01*
X47202452Y-97257544D01*
X47202455Y-97257547D01*
X47317664Y-97343793D01*
X47317671Y-97343797D01*
X47452517Y-97394091D01*
X47452516Y-97394091D01*
X47459444Y-97394835D01*
X47512127Y-97400500D01*
X48747769Y-97400499D01*
X48814808Y-97420184D01*
X48835450Y-97436818D01*
X49331580Y-97932948D01*
X49331584Y-97932951D01*
X49454498Y-98015080D01*
X49454511Y-98015087D01*
X49591082Y-98071656D01*
X49591087Y-98071658D01*
X49591091Y-98071658D01*
X49591092Y-98071659D01*
X49736079Y-98100500D01*
X49736082Y-98100500D01*
X49883917Y-98100500D01*
X53872772Y-98100500D01*
X53939811Y-98120185D01*
X53960453Y-98136819D01*
X54041344Y-98217710D01*
X54041348Y-98217713D01*
X54190662Y-98309812D01*
X54190664Y-98309813D01*
X54190666Y-98309814D01*
X54357203Y-98364999D01*
X54459992Y-98375500D01*
X54459997Y-98375500D01*
X55485003Y-98375500D01*
X55485008Y-98375500D01*
X55587797Y-98364999D01*
X55754334Y-98309814D01*
X55903655Y-98217711D01*
X56027711Y-98093655D01*
X56119814Y-97944334D01*
X56174999Y-97777797D01*
X56185500Y-97675008D01*
X56185500Y-96598730D01*
X56205185Y-96531691D01*
X56257989Y-96485936D01*
X56327147Y-96475992D01*
X56390703Y-96505017D01*
X56397181Y-96511049D01*
X56698181Y-96812049D01*
X56731666Y-96873372D01*
X56734500Y-96899730D01*
X56734500Y-97675015D01*
X56745000Y-97777795D01*
X56745001Y-97777796D01*
X56800186Y-97944335D01*
X56800187Y-97944337D01*
X56892286Y-98093651D01*
X56892289Y-98093655D01*
X57016344Y-98217710D01*
X57016348Y-98217713D01*
X57165662Y-98309812D01*
X57165664Y-98309813D01*
X57165666Y-98309814D01*
X57332203Y-98364999D01*
X57434992Y-98375500D01*
X57434997Y-98375500D01*
X58460003Y-98375500D01*
X58460008Y-98375500D01*
X58562797Y-98364999D01*
X58729334Y-98309814D01*
X58878655Y-98217711D01*
X59002711Y-98093655D01*
X59094814Y-97944334D01*
X59149999Y-97777797D01*
X59160500Y-97675008D01*
X59160500Y-96899730D01*
X59169144Y-96870289D01*
X59175668Y-96840303D01*
X59179422Y-96835287D01*
X59180185Y-96832691D01*
X59196819Y-96812049D01*
X59287819Y-96721049D01*
X59349142Y-96687564D01*
X59418834Y-96692548D01*
X59474767Y-96734420D01*
X59499184Y-96799884D01*
X59499500Y-96808730D01*
X59499500Y-99375500D01*
X59479815Y-99442539D01*
X59427011Y-99488294D01*
X59375500Y-99499500D01*
X45624500Y-99499500D01*
X45557461Y-99479815D01*
X45511706Y-99427011D01*
X45500500Y-99375500D01*
X45500500Y-77798813D01*
X45501163Y-77796553D01*
X45500583Y-77794271D01*
X45510959Y-77763191D01*
X45520185Y-77731774D01*
X45521963Y-77730232D01*
X45522710Y-77727998D01*
X45548244Y-77707460D01*
X45572989Y-77686019D01*
X45575318Y-77685683D01*
X45577154Y-77684208D01*
X45609721Y-77680737D01*
X45642147Y-77676075D01*
X45644289Y-77677053D01*
G37*
%TD.AperFunction*%
M02*
