M48
; DRILL file KiCad 10.0.3 date 2026-06-18T19:27:20
; FORMAT={-:-/ absolute / metric / decimal}
; #@! TF.CreationDate,2026-06-18T19:27:20-04:00
; #@! TF.GenerationSoftware,Kicad,Pcbnew,10.0.3
; #@! TF.FileFunction,Plated,1,2,PTH
FMAT,2
METRIC
; #@! TA.AperFunction,Plated,PTH,ComponentDrill
T1C0.800
; #@! TA.AperFunction,Plated,PTH,ComponentDrill
T2C0.900
; #@! TA.AperFunction,Plated,PTH,ComponentDrill
T3C1.000
; #@! TA.AperFunction,Plated,PTH,ComponentDrill
T4C1.100
%
G90
G05
T1
X70.46Y-48.0
X73.0Y-48.0
X75.54Y-48.0
X81.5Y-48.0
X84.04Y-48.0
X86.58Y-48.0
T2
X48.46Y-69.0
X48.46Y-96.0
X48.5Y-79.5
X51.0Y-69.0
X51.0Y-96.0
X51.04Y-79.5
X61.96Y-66.0
X64.5Y-66.0
X87.46Y-66.0
X90.0Y-66.0
X100.0Y-80.0
X100.46Y-69.0
X100.46Y-95.0
X102.54Y-80.0
X103.0Y-69.0
X103.0Y-95.0
T3
X93.235Y-48.905
X93.235Y-61.605
X95.775Y-53.985
X100.235Y-48.905
X100.235Y-61.605
X102.775Y-53.985
T4
G00X51.45Y-52.637
M15
G01X53.55Y-52.637
M16
G05
G00X51.45Y-58.938
M15
G01X53.55Y-58.938
M16
G05
M30
