<?xml version="1.0" encoding="UTF-8" standalone="no"?>
<!-- Created with Inkscape (http://www.inkscape.org/) -->

<svg
   width="80mm"
   height="80mm"
   viewBox="0 0 80 80"
   version="1.1"
   id="svg5"
   inkscape:version="1.4.4 (dcaf3e7, 2026-05-05)"
   sodipodi:docname="heat_baseplate_sketch.svg"
   xmlns:inkscape="http://www.inkscape.org/namespaces/inkscape"
   xmlns:sodipodi="http://sodipodi.sourceforge.net/DTD/sodipodi-0.dtd"
   xmlns="http://www.w3.org/2000/svg"
   xmlns:svg="http://www.w3.org/2000/svg">
  <sodipodi:namedview
     id="namedview7"
     pagecolor="#ffffff"
     bordercolor="#666666"
     borderopacity="1.0"
     inkscape:pageshadow="2"
     inkscape:pageopacity="0.0"
     inkscape:pagecheckerboard="0"
     inkscape:document-units="mm"
     showgrid="false"
     inkscape:zoom="2.0219301"
     inkscape:cx="161.97395"
     inkscape:cy="132.79391"
     inkscape:window-width="1398"
     inkscape:window-height="920"
     inkscape:window-x="0"
     inkscape:window-y="33"
     inkscape:window-maximized="0"
     inkscape:current-layer="layer1"
     width="70mm"
     inkscape:showpageshadow="2"
     inkscape:deskcolor="#d1d1d1" />
  <defs
     id="defs2">
    <marker
       style="overflow:visible"
       id="Arrow1Lstart"
       refX="0"
       refY="0"
       orient="auto"
       inkscape:stockid="Arrow1Lstart"
       inkscape:isstock="true">
      <path
         transform="matrix(0.8,0,0,0.8,10,0)"
         style="fill:context-stroke;fill-rule:evenodd;stroke:context-stroke;stroke-width:1pt"
         d="M 0,0 5,-5 -12.5,0 5,5 Z"
         id="path2939" />
    </marker>
  </defs>
  <g
     inkscape:label="Layer 1"
     inkscape:groupmode="layer"
     id="layer1">
    <path
       id="path31"
       style="fill:none;fill-rule:evenodd;stroke:#fc0000;stroke-width:0.05;stroke-miterlimit:4;stroke-dasharray:none;stroke-opacity:1"
       d="M 74.933998,40 A 34.933998,34.933998 0 0 1 40,74.933998 34.933998,34.933998 0 0 1 5.0660019,40 34.933998,34.933998 0 0 1 40,5.0660019 34.933998,34.933998 0 0 1 74.933998,40 Z" />
    <path
       id="path1"
       style="fill:none;stroke:#ff0000;stroke-width:0.05;stroke-dasharray:none;stroke-opacity:1"
       d="M 39.000203 32.000114 L 39.000203 34.111613 A 5.9725981 5.9725981 0 0 0 34.111613 39.000203 L 32.000114 39.000203 L 32.000114 41.000081 L 34.111613 41.000081 A 5.9725981 5.9725981 0 0 0 39.000203 45.888155 L 39.000203 48.000171 L 41.000081 48.000171 L 41.000081 45.888155 A 5.9725981 5.9725981 0 0 0 45.888155 41.000081 L 48.000171 41.000081 L 48.000171 39.000203 L 45.888155 39.000203 A 5.9725981 5.9725981 0 0 0 41.000081 34.111613 L 41.000081 32.000114 L 39.000203 32.000114 z " />
  </g>
</svg>
