G04 #@! TF.GenerationSoftware,KiCad,Pcbnew,5.1.5*
G04 #@! TF.CreationDate,2020-03-23T15:00:30-04:00*
G04 #@! TF.ProjectId,M55-RJ45,4d35352d-524a-4343-952e-6b696361645f,v0.3*
G04 #@! TF.SameCoordinates,Original*
G04 #@! TF.FileFunction,Paste,Top*
G04 #@! TF.FilePolarity,Positive*
%FSLAX46Y46*%
G04 Gerber Fmt 4.6, Leading zero omitted, Abs format (unit mm)*
G04 Created by KiCad (PCBNEW 5.1.5) date 2020-03-23 15:00:30*
%MOMM*%
%LPD*%
G04 APERTURE LIST*
%ADD10C,0.300000*%
%ADD11R,0.760000X5.000000*%
%ADD12R,8.800000X4.500000*%
%ADD13R,1.100000X0.800000*%
%ADD14R,2.500000X1.200000*%
G04 APERTURE END LIST*
D10*
X43321428Y-129337857D02*
X43250000Y-129266428D01*
X43178571Y-129123571D01*
X43178571Y-128766428D01*
X43250000Y-128623571D01*
X43321428Y-128552142D01*
X43464285Y-128480714D01*
X43607142Y-128480714D01*
X43821428Y-128552142D01*
X44678571Y-129409285D01*
X44678571Y-128480714D01*
X43178571Y-127552142D02*
X43178571Y-127409285D01*
X43250000Y-127266428D01*
X43321428Y-127195000D01*
X43464285Y-127123571D01*
X43750000Y-127052142D01*
X44107142Y-127052142D01*
X44392857Y-127123571D01*
X44535714Y-127195000D01*
X44607142Y-127266428D01*
X44678571Y-127409285D01*
X44678571Y-127552142D01*
X44607142Y-127695000D01*
X44535714Y-127766428D01*
X44392857Y-127837857D01*
X44107142Y-127909285D01*
X43750000Y-127909285D01*
X43464285Y-127837857D01*
X43321428Y-127766428D01*
X43250000Y-127695000D01*
X43178571Y-127552142D01*
X43321428Y-126480714D02*
X43250000Y-126409285D01*
X43178571Y-126266428D01*
X43178571Y-125909285D01*
X43250000Y-125766428D01*
X43321428Y-125695000D01*
X43464285Y-125623571D01*
X43607142Y-125623571D01*
X43821428Y-125695000D01*
X44678571Y-126552142D01*
X44678571Y-125623571D01*
X43178571Y-124695000D02*
X43178571Y-124552142D01*
X43250000Y-124409285D01*
X43321428Y-124337857D01*
X43464285Y-124266428D01*
X43750000Y-124195000D01*
X44107142Y-124195000D01*
X44392857Y-124266428D01*
X44535714Y-124337857D01*
X44607142Y-124409285D01*
X44678571Y-124552142D01*
X44678571Y-124695000D01*
X44607142Y-124837857D01*
X44535714Y-124909285D01*
X44392857Y-124980714D01*
X44107142Y-125052142D01*
X43750000Y-125052142D01*
X43464285Y-124980714D01*
X43321428Y-124909285D01*
X43250000Y-124837857D01*
X43178571Y-124695000D01*
X44107142Y-123552142D02*
X44107142Y-122409285D01*
X43178571Y-121409285D02*
X43178571Y-121266428D01*
X43250000Y-121123571D01*
X43321428Y-121052142D01*
X43464285Y-120980714D01*
X43750000Y-120909285D01*
X44107142Y-120909285D01*
X44392857Y-120980714D01*
X44535714Y-121052142D01*
X44607142Y-121123571D01*
X44678571Y-121266428D01*
X44678571Y-121409285D01*
X44607142Y-121552142D01*
X44535714Y-121623571D01*
X44392857Y-121695000D01*
X44107142Y-121766428D01*
X43750000Y-121766428D01*
X43464285Y-121695000D01*
X43321428Y-121623571D01*
X43250000Y-121552142D01*
X43178571Y-121409285D01*
X43178571Y-120409285D02*
X43178571Y-119480714D01*
X43750000Y-119980714D01*
X43750000Y-119766428D01*
X43821428Y-119623571D01*
X43892857Y-119552142D01*
X44035714Y-119480714D01*
X44392857Y-119480714D01*
X44535714Y-119552142D01*
X44607142Y-119623571D01*
X44678571Y-119766428D01*
X44678571Y-120195000D01*
X44607142Y-120337857D01*
X44535714Y-120409285D01*
X42678571Y-137766428D02*
X41964285Y-138266428D01*
X42678571Y-138623571D02*
X41178571Y-138623571D01*
X41178571Y-138052142D01*
X41250000Y-137909285D01*
X41321428Y-137837857D01*
X41464285Y-137766428D01*
X41678571Y-137766428D01*
X41821428Y-137837857D01*
X41892857Y-137909285D01*
X41964285Y-138052142D01*
X41964285Y-138623571D01*
X41178571Y-136695000D02*
X42250000Y-136695000D01*
X42464285Y-136766428D01*
X42607142Y-136909285D01*
X42678571Y-137123571D01*
X42678571Y-137266428D01*
X41678571Y-135337857D02*
X42678571Y-135337857D01*
X41107142Y-135695000D02*
X42178571Y-136052142D01*
X42178571Y-135123571D01*
X41178571Y-133837857D02*
X41178571Y-134552142D01*
X41892857Y-134623571D01*
X41821428Y-134552142D01*
X41750000Y-134409285D01*
X41750000Y-134052142D01*
X41821428Y-133909285D01*
X41892857Y-133837857D01*
X42035714Y-133766428D01*
X42392857Y-133766428D01*
X42535714Y-133837857D01*
X42607142Y-133909285D01*
X42678571Y-134052142D01*
X42678571Y-134409285D01*
X42607142Y-134552142D01*
X42535714Y-134623571D01*
X42107142Y-133123571D02*
X42107142Y-131980714D01*
X42678571Y-131266428D02*
X41178571Y-131266428D01*
X42250000Y-130766428D01*
X41178571Y-130266428D01*
X42678571Y-130266428D01*
X41178571Y-128837857D02*
X41178571Y-129552142D01*
X41892857Y-129623571D01*
X41821428Y-129552142D01*
X41750000Y-129409285D01*
X41750000Y-129052142D01*
X41821428Y-128909285D01*
X41892857Y-128837857D01*
X42035714Y-128766428D01*
X42392857Y-128766428D01*
X42535714Y-128837857D01*
X42607142Y-128909285D01*
X42678571Y-129052142D01*
X42678571Y-129409285D01*
X42607142Y-129552142D01*
X42535714Y-129623571D01*
X41178571Y-127409285D02*
X41178571Y-128123571D01*
X41892857Y-128195000D01*
X41821428Y-128123571D01*
X41750000Y-127980714D01*
X41750000Y-127623571D01*
X41821428Y-127480714D01*
X41892857Y-127409285D01*
X42035714Y-127337857D01*
X42392857Y-127337857D01*
X42535714Y-127409285D01*
X42607142Y-127480714D01*
X42678571Y-127623571D01*
X42678571Y-127980714D01*
X42607142Y-128123571D01*
X42535714Y-128195000D01*
X41678571Y-125766428D02*
X41678571Y-125195000D01*
X42678571Y-125552142D02*
X41392857Y-125552142D01*
X41250000Y-125480714D01*
X41178571Y-125337857D01*
X41178571Y-125195000D01*
X41678571Y-123695000D02*
X42678571Y-123337857D01*
X41678571Y-122980714D01*
X41178571Y-122123571D02*
X41178571Y-121980714D01*
X41250000Y-121837857D01*
X41321428Y-121766428D01*
X41464285Y-121695000D01*
X41750000Y-121623571D01*
X42107142Y-121623571D01*
X42392857Y-121695000D01*
X42535714Y-121766428D01*
X42607142Y-121837857D01*
X42678571Y-121980714D01*
X42678571Y-122123571D01*
X42607142Y-122266428D01*
X42535714Y-122337857D01*
X42392857Y-122409285D01*
X42107142Y-122480714D01*
X41750000Y-122480714D01*
X41464285Y-122409285D01*
X41321428Y-122337857D01*
X41250000Y-122266428D01*
X41178571Y-122123571D01*
X42535714Y-120980714D02*
X42607142Y-120909285D01*
X42678571Y-120980714D01*
X42607142Y-121052142D01*
X42535714Y-120980714D01*
X42678571Y-120980714D01*
X41178571Y-120409285D02*
X41178571Y-119480714D01*
X41750000Y-119980714D01*
X41750000Y-119766428D01*
X41821428Y-119623571D01*
X41892857Y-119552142D01*
X42035714Y-119480714D01*
X42392857Y-119480714D01*
X42535714Y-119552142D01*
X42607142Y-119623571D01*
X42678571Y-119766428D01*
X42678571Y-120195000D01*
X42607142Y-120337857D01*
X42535714Y-120409285D01*
D11*
X51232820Y-137060620D03*
X52502820Y-137060620D03*
X53772820Y-137060620D03*
X55042820Y-137060620D03*
X56312820Y-137060620D03*
X57582820Y-137060620D03*
X58852820Y-137060620D03*
X60122820Y-137060620D03*
D12*
X55677820Y-121130620D03*
D13*
X67310000Y-133985000D03*
X72390000Y-133985000D03*
X67310000Y-132715000D03*
X72390000Y-132715000D03*
X67310000Y-131445000D03*
X72390000Y-131445000D03*
X67310000Y-130175000D03*
X72390000Y-130175000D03*
X67310000Y-128905000D03*
X72390000Y-128905000D03*
X67310000Y-127635000D03*
X72390000Y-127635000D03*
X67310000Y-126365000D03*
X72390000Y-126365000D03*
X67310000Y-125095000D03*
X72390000Y-125095000D03*
X67310000Y-123825000D03*
X72390000Y-123825000D03*
X67310000Y-122555000D03*
X72390000Y-122555000D03*
D14*
X67475000Y-120060000D03*
X72225000Y-120060000D03*
X67475000Y-136480000D03*
X72225000Y-136480000D03*
M02*
